<svg width="168" height="168" viewBox="0 0 168 168" fill="none" xmlns="http://www.w3.org/2000/svg">
<g id="card item 1">
<rect width="168" height="168" rx="84" fill="#03736D" fill-opacity="0.2"/>
<g id="Group">
<g id="Group_2">
<g id="Group_3">
<g id="Group_4">
<g id="Group_5">
<g id="Group_6">
<path id="Vector" d="M118.837 111.2H48.6479V113.691C48.6479 116.295 50.7989 118.446 53.4027 118.446H113.969C116.572 118.446 118.723 116.295 118.723 113.691V111.2H118.837Z" fill="#00ADA4"/>
<path id="Vector_2" d="M113.969 119.691H53.4029C50.1199 119.691 47.5161 116.974 47.5161 113.804V111.314C47.5161 110.634 47.9689 110.182 48.6482 110.182H118.837C119.516 110.182 119.969 110.634 119.969 111.314V113.804C119.969 117.087 117.252 119.691 113.969 119.691ZM49.7803 112.333V113.691C49.7803 115.729 51.4784 117.314 53.4029 117.314H113.969C116.007 117.314 117.592 115.616 117.592 113.691V112.333H49.7803Z" fill="#143534"/>
</g>
<g id="Group_7">
<path id="Vector_3" d="M89.9689 114.936H77.4029C76.2708 114.936 75.252 114.031 75.252 112.785V111.314H92.1199V112.785C92.1199 113.917 91.2142 114.936 89.9689 114.936Z" fill="white"/>
</g>
<g id="Group_8">
<path id="Vector_4" d="M114.195 112.333H53.2898C52.6105 112.333 52.1577 111.88 52.1577 111.2V74.0684C52.1577 71.2382 54.5351 68.8608 57.3653 68.8608H59.1766C59.8558 68.8608 60.3087 69.3137 60.3087 69.9929C60.3087 70.6722 59.8558 71.125 59.1766 71.125H57.3653C55.7804 71.125 54.4219 72.4835 54.4219 74.0684V110.068H113.063V74.0684C113.063 72.4835 111.705 71.125 110.12 71.125H104.573C103.894 71.125 103.441 70.6722 103.441 69.9929C103.441 69.3137 103.894 68.8608 104.573 68.8608H110.12C112.95 68.8608 115.328 71.2382 115.328 74.0684V111.2C115.328 111.88 114.761 112.333 114.195 112.333Z" fill="#143534"/>
</g>
<g id="Group_9">
<path id="Vector_5" d="M111.931 116.068H108.535C107.856 116.068 107.403 115.616 107.403 114.936C107.403 114.257 107.856 113.804 108.535 113.804H111.931C112.61 113.804 113.063 114.257 113.063 114.936C113.063 115.616 112.497 116.068 111.931 116.068Z" fill="#143534"/>
</g>
</g>
</g>
</g>
</g>
<g id="Group_10">
<g id="Group_11">
<path id="Vector_6" d="M111.478 63.54C115.542 63.54 118.837 60.2455 118.837 56.1815C118.837 52.1175 115.542 48.823 111.478 48.823C107.414 48.823 104.12 52.1175 104.12 56.1815C104.12 60.2455 107.414 63.54 111.478 63.54Z" fill="#00ADA4"/>
<path id="Vector_7" d="M111.478 64.6721C106.837 64.6721 102.988 60.823 102.988 56.1815C102.988 51.54 106.837 47.6909 111.478 47.6909C116.12 47.6909 119.969 51.4268 119.969 56.1815C119.969 60.9362 116.233 64.6721 111.478 64.6721ZM111.478 49.9551C108.082 49.9551 105.252 52.7853 105.252 56.1815C105.252 59.5777 108.082 62.4079 111.478 62.4079C114.875 62.4079 117.705 59.5777 117.705 56.1815C117.705 52.7853 114.988 49.9551 111.478 49.9551Z" fill="#143534"/>
</g>
<g id="Group_12">
<path id="Vector_8" d="M110.346 59.3513C110.007 59.3513 109.78 59.2381 109.554 59.0117L107.856 57.3136C107.403 56.8608 107.403 56.1815 107.856 55.7287C108.309 55.2759 108.988 55.2759 109.441 55.7287L110.346 56.6344L113.629 53.3513C114.082 52.8985 114.761 52.8985 115.214 53.3513C115.667 53.8042 115.667 54.4834 115.214 54.9362L111.139 59.0117C110.912 59.2381 110.573 59.3513 110.346 59.3513Z" fill="white"/>
</g>
</g>
<g id="Group_13">
<g id="Group_14">
<path id="Vector_9" d="M63.9312 87.3135H76.0444V68.521C76.0444 66.2569 74.233 64.4456 71.9689 64.4456C69.7047 64.4456 67.8934 66.2569 67.8934 68.521V83.238" fill="#00ADA4"/>
<path id="Vector_10" d="M76.0446 88.4456H63.9314C63.2521 88.4456 62.7993 87.9927 62.7993 87.3135C62.7993 86.6342 63.2521 86.1814 63.9314 86.1814H74.9125V68.521C74.9125 66.9361 73.554 65.5776 71.9691 65.5776C70.3842 65.5776 69.0257 66.9361 69.0257 68.521V83.238C69.0257 83.9172 68.5729 84.3701 67.8937 84.3701C67.2144 84.3701 66.7616 83.9172 66.7616 83.238V68.521C66.7616 65.6908 69.0257 63.3135 71.9691 63.3135C74.9125 63.3135 77.1767 65.5776 77.1767 68.521V87.3135C77.1767 87.9927 76.7238 88.4456 76.0446 88.4456Z" fill="#143534"/>
</g>
</g>
<g id="Group_15">
<path id="Vector_11" d="M79.7803 106.106C78.535 106.106 77.2897 105.653 76.3841 104.634C75.4784 103.729 74.9124 102.483 74.9124 101.238V68.5211C74.9124 67.8419 75.3652 67.389 76.0445 67.389C76.7237 67.389 77.1765 67.8419 77.1765 68.5211V101.238C77.1765 101.917 77.403 102.597 77.969 103.049C78.4218 103.502 79.1011 103.842 79.7803 103.842H100.837C102.309 103.842 103.441 102.71 103.441 101.238V68.2947C103.441 66.823 102.309 65.6909 100.837 65.6909H71.969C71.2897 65.6909 70.8369 65.2381 70.8369 64.5588C70.8369 63.8796 71.2897 63.4268 71.969 63.4268H100.724C103.441 63.4268 105.592 65.5777 105.592 68.2947V101.351C105.592 104.068 103.441 106.219 100.724 106.219L79.7803 106.106Z" fill="#143534"/>
</g>
<g id="Group_16">
<path id="Vector_12" d="M91.7804 53.1248V64.5587H71.9691C69.3653 64.7851 68.12 66.37 67.8936 68.7474V83.238C67.8936 85.5021 66.0823 87.3134 63.8181 87.3134C61.554 87.3134 59.7427 85.5021 59.7427 83.238V53.1248C59.7427 51.087 61.4408 49.3889 63.4785 49.3889H87.9314C90.0823 49.3889 91.7804 51.087 91.7804 53.1248Z" fill="#BCE3E0"/>
<path id="Vector_13" d="M63.9312 88.4455C61.101 88.4455 58.7236 86.1814 58.7236 83.238V53.1248C58.7236 50.4078 60.8746 48.2568 63.5916 48.2568H88.0444C89.2897 48.2568 90.535 48.7097 91.4406 49.7285C92.3463 50.6342 92.9123 51.8795 92.9123 53.1248V64.5587C92.9123 65.238 92.4595 65.6908 91.7802 65.6908H71.9689C70.1576 65.804 69.2519 66.8229 69.0255 68.8606V83.238C69.1387 86.1814 66.7614 88.4455 63.9312 88.4455ZM88.0444 50.521H63.5916C62.1199 50.521 60.9878 51.6531 60.9878 53.1248V83.238C60.9878 84.8229 62.3463 86.1814 63.9312 86.1814C65.5161 86.1814 66.8746 84.8229 66.8746 83.238V68.7474C67.3274 64.5587 69.818 63.5399 71.9689 63.4266H90.6482V53.1248C90.6482 52.4455 90.4218 51.7663 89.8557 51.3134C89.4029 50.8606 88.7236 50.521 88.0444 50.521Z" fill="#143534"/>
</g>
<g id="Group_17">
<g id="Group_18">
<path id="Vector_14" d="M100.044 97.389L95.8555 93.2004L113.855 75.2004C114.535 74.5211 115.667 74.5211 116.459 75.2004L118.044 76.7853C118.723 77.4645 118.723 78.5966 118.044 79.389L100.044 97.389Z" fill="#BCE3E0"/>
<path id="Vector_15" d="M100.044 98.5211C99.7048 98.5211 99.4784 98.4079 99.2519 98.1815L95.0633 93.9928C94.6104 93.54 94.6104 92.8607 95.0633 92.4079L113.063 74.4079C114.195 73.2758 116.12 73.2758 117.252 74.4079L118.837 75.9928C119.403 76.5588 119.743 77.2381 119.743 78.0305C119.743 78.823 119.403 79.6154 118.837 80.0683L100.837 98.1815C100.61 98.4079 100.384 98.5211 100.044 98.5211ZM97.4406 93.2003L100.044 95.8041L117.252 78.5966C117.365 78.4834 117.478 78.257 117.478 78.1437C117.478 77.9173 117.365 77.8041 117.252 77.6909L115.667 76.106C115.441 75.8796 114.988 75.8796 114.648 76.106L97.4406 93.2003Z" fill="#143534"/>
</g>
<g id="Group_19">
<path id="Vector_16" d="M94.6106 99.8796C94.271 99.8796 94.0446 99.7663 93.8181 99.5399C93.5917 99.3135 93.4785 98.8607 93.4785 98.5211L94.7238 93.0871C94.837 92.5211 95.5163 92.0682 96.0823 92.2947C96.6483 92.4079 97.1012 93.0871 96.8747 93.6531L95.9691 97.389L99.7049 96.4833C100.271 96.3701 100.95 96.7097 101.063 97.2758C101.177 97.8418 100.837 98.5211 100.271 98.6343L94.837 99.8796C94.7238 99.8796 94.7238 99.8796 94.6106 99.8796Z" fill="#143534"/>
</g>
<g id="Group_20">
<path id="Vector_17" d="M115.554 83.0117C115.215 83.0117 114.988 82.8985 114.762 82.672L110.573 78.4834C110.12 78.0305 110.12 77.3513 110.573 76.8985C111.026 76.4456 111.705 76.4456 112.158 76.8985L116.347 81.0871C116.799 81.54 116.799 82.2192 116.347 82.672C116.12 82.8985 115.894 83.0117 115.554 83.0117Z" fill="#143534"/>
</g>
</g>
<g id="Group_21">
<g id="Group_22">
<path id="Vector_18" d="M75.9312 55.9551H65.0632C64.384 55.9551 63.9312 55.5022 63.9312 54.823C63.9312 54.1437 64.384 53.6909 65.0632 53.6909H75.9312C76.6104 53.6909 77.0632 54.1437 77.0632 54.823C77.0632 55.5022 76.6104 55.9551 75.9312 55.9551Z" fill="#143534"/>
</g>
<g id="Group_23">
<path id="Vector_19" d="M86.5727 60.823H65.1765C64.4973 60.823 64.0444 60.3702 64.0444 59.6909C64.0444 59.0117 64.4973 58.5588 65.1765 58.5588H86.5727C87.252 58.5588 87.7048 59.0117 87.7048 59.6909C87.7048 60.3702 87.1388 60.823 86.5727 60.823Z" fill="#143534"/>
</g>
</g>
<g id="Group_24">
<path id="Vector_20" d="M81.3647 69.4268H99.5912V75.2003H81.3647V69.4268Z" fill="#BCE3E0"/>
<path id="Vector_21" d="M99.5914 76.4457H81.365C80.6857 76.4457 80.2329 75.9929 80.2329 75.3136V69.54C80.2329 68.8608 80.6857 68.408 81.365 68.408H99.5914C100.271 68.408 100.723 68.8608 100.723 69.54V75.3136C100.723 75.8797 100.157 76.4457 99.5914 76.4457ZM82.4971 74.1815H98.4593V70.6721H82.4971V74.1815Z" fill="#143534"/>
</g>
<g id="Group_25">
<path id="Vector_22" d="M84.7615 83.8042H82.3842C81.8181 83.8042 81.4785 83.3513 81.4785 82.8985V80.5211C81.4785 79.9551 81.9313 79.6155 82.3842 79.6155H84.7615C85.3276 79.6155 85.6672 80.0683 85.6672 80.5211V82.8985C85.7804 83.3513 85.3276 83.8042 84.7615 83.8042Z" fill="#00ADA4"/>
</g>
<g id="Group_26">
<path id="Vector_23" d="M84.7613 92.9738H82.3839C81.2519 92.9738 80.3462 92.0682 80.3462 90.9361V88.5587C80.3462 87.4267 81.2519 86.521 82.3839 86.521H84.7613C85.8934 86.521 86.799 87.4267 86.799 88.5587V90.9361C86.9122 92.0682 86.0066 92.9738 84.7613 92.9738ZM82.6103 90.7097H84.6481V88.6719H82.6103V90.7097Z" fill="#143534"/>
</g>
<g id="Group_27">
<path id="Vector_24" d="M84.7615 99.9929H82.3842C81.8181 99.9929 81.4785 99.54 81.4785 99.0872V96.7099C81.4785 96.1438 81.9313 95.8042 82.3842 95.8042H84.7615C85.3276 95.8042 85.6672 96.257 85.6672 96.7099V99.0872C85.7804 99.54 85.3276 99.9929 84.7615 99.9929Z" fill="#BCE3E0"/>
</g>
<g id="Group_28">
<path id="Vector_25" d="M99.5918 82.7851H90.1956C89.5163 82.7851 89.0635 82.3323 89.0635 81.6531C89.0635 80.9738 89.5163 80.521 90.1956 80.521H99.5918C100.271 80.521 100.724 80.9738 100.724 81.6531C100.724 82.3323 100.158 82.7851 99.5918 82.7851Z" fill="#143534"/>
</g>
<g id="Group_29">
<path id="Vector_26" d="M92.9125 90.9363H90.1956C89.5163 90.9363 89.0635 90.4834 89.0635 89.8042C89.0635 89.1249 89.5163 88.6721 90.1956 88.6721H92.9125C93.5918 88.6721 94.0446 89.1249 94.0446 89.8042C94.0446 90.4834 93.4786 90.9363 92.9125 90.9363Z" fill="#143534"/>
</g>
</g>
</g>
</svg>
