<svg width="92" height="92" viewBox="0 0 92 92" fill="none" xmlns="http://www.w3.org/2000/svg">
<g clip-path="url(#clip0_963_47526)">
<path d="M0.684082 14.4924C0.684082 6.41746 7.28832 -0.11508 15.3901 0.00153744C23.2379 0.114381 29.6192 6.55043 29.6688 14.3988C29.6966 18.7942 27.7671 22.7388 24.7013 25.4146C24.3777 25.6969 24.4244 26.2122 24.794 26.4309L27.5247 28.0466C27.9662 28.3079 27.781 28.9846 27.268 28.9846L14.9022 28.9815C7.02489 28.8351 0.684082 22.4046 0.684082 14.4924Z" fill="#7ACAA6"/>
<path d="M27.5246 28.0467L24.7937 26.431C24.4261 26.2135 24.3751 25.6989 24.6969 25.4182C27.7978 22.7141 29.7373 18.7119 29.6671 14.2582C29.5454 6.55446 23.3102 0.230723 15.6087 0.0062938C14.5165 -0.0255109 13.4506 0.0637938 12.4233 0.26127C19.0802 1.53741 24.1535 7.40511 24.1977 14.3987C24.2191 17.7857 23.0783 20.905 21.1509 23.3824C19.9871 24.8783 20.3653 27.0475 21.9966 28.0127L22.0537 28.0465C22.4903 28.3049 22.3132 28.9687 21.8131 28.9831L27.2677 28.9843C27.7807 28.9847 27.9661 28.3078 27.5246 28.0467Z" fill="#57BE92"/>
<path d="M71.2983 52.6044H38.4216C30.2102 52.6044 25.7166 43.035 30.9612 36.7164L31.2528 36.365C33.5632 33.5814 34.8278 30.0777 34.8278 26.4602V20.1203C34.828 9.00809 43.8361 0 54.9484 0C66.0606 0 75.0687 9.00809 75.0687 20.1203V26.6742C75.0687 30.3296 76.3599 33.8675 78.7145 36.6636C84.0245 42.9692 79.542 52.6044 71.2983 52.6044Z" fill="#C59191"/>
<path d="M88.5805 68.8975V90.6326H21.1401V69.0611C21.1401 64.1772 24.0672 59.7694 28.5666 57.8755L39.4539 53.1425L43.1195 51.5487C45.9011 50.3394 47.6997 47.5956 47.6997 44.5625V43.1555H62.019V44.4906C62.019 47.5363 63.8357 50.2909 66.637 51.4912L81.3624 57.8036C85.7504 59.7479 88.5805 64.0963 88.5805 68.8975Z" fill="white"/>
<path d="M39.4532 58.3249C43.169 59.4352 48.6381 60.6193 55.3047 60.5027C61.5598 60.3934 66.6946 59.1771 70.2675 58.0359L72.0428 53.8084L66.6367 51.4914C63.8361 50.2909 62.0202 47.5371 62.0202 44.49V43.156H47.7009V44.5626C47.7009 47.5954 45.9018 50.339 43.1208 51.5483L38.7422 53.4521L39.4532 58.3249Z" fill="#FFCEBF"/>
<path d="M81.3615 57.8027L70.2691 53.0483L70.2671 53.0485V90.6321H88.5805V68.8977C88.5805 64.097 85.7506 59.7476 81.3615 57.8027Z" fill="#03736D"/>
<path d="M39.4539 53.1426V90.6326H21.1401V69.0611C21.1401 64.1772 24.0672 59.7695 28.5666 57.8755L39.4539 53.1426Z" fill="#03736D"/>
<path d="M59.824 51.0154C61.4714 51.0154 63.0411 50.6846 64.472 50.0876C62.9371 48.6708 62.02 46.6547 62.02 44.49V43.156H47.7007V44.5624C47.7007 45.658 47.4648 46.7154 47.0337 47.6768C49.202 49.7437 52.1354 51.0152 55.3674 51.0152L59.824 51.0154Z" fill="#FFB09E"/>
<path d="M69.1721 21.6151V33.461C69.1721 40.1346 63.7621 45.5445 57.0887 45.5445H52.6323C45.9587 45.5445 40.5488 40.1344 40.5488 33.461V21.6151C40.5488 17.2737 44.0682 13.7542 48.4098 13.7542H61.3114C65.6528 13.7543 69.1721 17.2737 69.1721 21.6151Z" fill="#FFCEBF"/>
<path d="M69.172 27.7783C69.1666 27.7947 69.16 27.8105 69.1551 27.8272C68.7183 29.3357 67.5719 32.1852 64.8015 34.3215C63.5115 35.3164 62.04 36.0351 60.4282 36.4581C59.6976 36.6498 59.2606 37.3975 59.4523 38.1281C59.6137 38.7425 60.1677 39.1491 60.7745 39.1491C60.8893 39.1491 61.0061 39.1346 61.1225 39.104C63.0905 38.5876 64.8902 37.7073 66.472 36.4878C67.5643 35.6454 68.4484 34.715 69.1641 33.7795C69.1668 33.6735 69.1722 33.568 69.1722 33.4613V27.7783H69.172Z" fill="#7A6D79"/>
<path d="M58.9287 40.239H55.7236C54.2647 40.239 53.082 39.0563 53.082 37.5974C53.082 36.1385 54.2647 34.9558 55.7236 34.9558H58.9287C60.3876 34.9558 61.5703 36.1385 61.5703 37.5974C61.5701 39.0565 60.3876 40.239 58.9287 40.239Z" fill="#685E68"/>
<path d="M57.7158 10.6189C58.0227 6.7484 61.7283 4.17977 65.2748 2.84937C71.1414 6.36459 75.069 12.7832 75.069 20.12V21.5033C74.7446 21.5714 74.4219 21.631 74.1028 21.6786C72.1491 21.9705 70.4853 21.8441 69.3486 21.6786C62.024 20.7029 57.3451 15.2934 57.7158 10.6189Z" fill="#B98080"/>
<path d="M54.9488 0C59.4927 0 63.6844 1.50686 67.0527 4.04746C65.3724 6.97116 61.5142 12.7517 54.2794 17.0311C48.9086 20.2082 43.8443 21.2757 40.7256 21.6788H34.8286V20.1201C34.8284 9.00809 43.8365 0 54.9488 0Z" fill="#C59191"/>
<path d="M77.44 90.6323H33.6584L31.2436 67.8524C31.0723 66.2366 32.3389 64.8286 33.9637 64.8286H77.1348C78.7596 64.8286 80.0262 66.2366 79.855 67.8524L77.44 90.6323Z" fill="#EFEDEF"/>
<path d="M77.1348 64.8286H71.6641C73.2888 64.8286 74.5554 66.2366 74.3842 67.8524L71.9694 90.6325H77.4401L79.8549 67.8524C80.0264 66.2366 78.7597 64.8286 77.1348 64.8286Z" fill="#E5E1E5"/>
<path d="M90.6523 92H1.34766C0.603211 92 0 91.3966 0 90.6523C0 89.9081 0.603211 89.3047 1.34766 89.3047H90.6523C91.3968 89.3047 92 89.9081 92 90.6523C92 91.3966 91.3968 92 90.6523 92Z" fill="#C9BFC8"/>
<path d="M55.5492 81.5599C57.6642 81.5599 59.3787 79.8454 59.3787 77.7304C59.3787 75.6154 57.6642 73.9009 55.5492 73.9009C53.4343 73.9009 51.7197 75.6154 51.7197 77.7304C51.7197 79.8454 53.4343 81.5599 55.5492 81.5599Z" fill="#C9BFC8"/>
<path d="M9.70549 15.86C10.4608 15.86 11.0731 15.2477 11.0731 14.4924C11.0731 13.7371 10.4608 13.1248 9.70549 13.1248C8.95019 13.1248 8.33789 13.7371 8.33789 14.4924C8.33789 15.2477 8.95019 15.86 9.70549 15.86Z" fill="white"/>
<path d="M15.1762 15.86C15.9315 15.86 16.5438 15.2477 16.5438 14.4924C16.5438 13.7371 15.9315 13.1248 15.1762 13.1248C14.4209 13.1248 13.8086 13.7371 13.8086 14.4924C13.8086 15.2477 14.4209 15.86 15.1762 15.86Z" fill="white"/>
<path d="M20.6469 15.86C21.4022 15.86 22.0145 15.2477 22.0145 14.4924C22.0145 13.7371 21.4022 13.1248 20.6469 13.1248C19.8916 13.1248 19.2793 13.7371 19.2793 14.4924C19.2793 15.2477 19.8916 15.86 20.6469 15.86Z" fill="white"/>
</g>
<defs>
<clipPath id="clip0_963_47526">
<rect width="92" height="92" fill="white"/>
</clipPath>
</defs>
</svg>
