<svg width="72" height="72" viewBox="0 0 72 72" fill="none" xmlns="http://www.w3.org/2000/svg">
<path d="M47.25 10.125V13.5L45 12.375L42.75 13.5L40.5 12.375L38.25 13.5V10.125V1.125H47.25V10.125Z" fill="#E2DEDE"/>
<path d="M45 1.125V9.50625C45 9.88538 44.7862 10.2319 44.4465 10.4018L43.2529 10.998C42.9356 11.1566 42.5633 11.1566 42.2471 10.998L41.0029 10.3759C40.6856 10.2172 40.3133 10.2172 39.9971 10.3759L38.25 11.25V13.5L40.5 12.375L42.75 13.5L45 12.375L47.25 13.5V11.25V1.125H45Z" fill="#D3BEBE"/>
<path d="M42.75 57.375V63C42.75 63.6188 42.2437 64.125 41.625 64.125H30.375C29.7562 64.125 29.25 63.6188 29.25 63V57.375H32.625H32.7263H42.75Z" fill="#FFCA3A"/>
<path d="M42.75 57.375V63C42.75 63.6188 42.2437 64.125 41.625 64.125H30.375C29.7562 64.125 29.25 63.6188 29.25 63V61.875H39.375C39.9937 61.875 40.5 61.3688 40.5 60.75V57.375H42.75Z" fill="#FF9700"/>
<path d="M70.875 58.5V69.75C70.875 70.3687 70.3688 70.875 69.75 70.875H2.25C1.63125 70.875 1.125 70.3687 1.125 69.75V58.5C1.125 57.8812 1.63125 57.375 2.25 57.375H5.52375H29.25V63C29.25 63.6188 29.7563 64.125 30.375 64.125H41.625C42.2438 64.125 42.75 63.6188 42.75 63V57.375H60.75H69.75C70.3688 57.375 70.875 57.8812 70.875 58.5Z" fill="#E89A10"/>
<path d="M29.25 57.375V60.75H2.25C1.63125 60.75 1.125 61.2562 1.125 61.875V58.5C1.125 57.8812 1.63125 57.375 2.25 57.375H29.25Z" fill="#EFAB48"/>
<path d="M60.8625 60.75H42.75V57.375H63.27C63.7403 57.375 64.125 57.8812 64.125 58.5C63.6098 59.8545 62.3115 60.75 60.8625 60.75Z" fill="#EFAB48"/>
<path d="M70.875 58.5V69.75C70.875 70.3687 70.3688 70.875 69.75 70.875H2.25C1.63125 70.875 1.125 70.3687 1.125 69.75V67.5H57.375C62.9437 67.5 67.5 62.9437 67.5 57.375H69.75C70.3688 57.375 70.875 57.8812 70.875 58.5Z" fill="#C97700"/>
<path d="M34.875 45L33.84 56.3512C33.795 56.9362 33.3 57.375 32.7262 57.375H32.625H29.25H5.52375C4.95 57.375 4.455 56.9362 4.41 56.3512L3.375 45H14.625V48.375C14.625 48.9938 15.1313 49.5 15.75 49.5H22.5C23.1187 49.5 23.625 48.9938 23.625 48.375V45H34.875Z" fill="#E89A10"/>
<path d="M23.625 45V48.375C23.625 48.9938 23.1187 49.5 22.5 49.5H15.75C15.1312 49.5 14.625 48.9938 14.625 48.375V45H23.625Z" fill="#FFCA3A"/>
<path d="M23.625 45V48.375C23.625 48.9938 23.1187 49.5 22.5 49.5H15.75C15.1312 49.5 14.625 48.9938 14.625 48.375V47.25H20.25C20.8688 47.25 21.375 46.7437 21.375 46.125V45H23.625Z" fill="#FF9700"/>
<path d="M34.8749 45H32.4224H25.8749H23.6249V47.25V48.375C23.6249 48.9938 23.1186 49.5 22.4999 49.5H16.8749C16.8749 50.1188 17.3811 50.625 17.9999 50.625H24.7499C25.3686 50.625 25.8749 50.1188 25.8749 49.5V47.25H30.9835C31.645 47.25 32.1636 47.8181 32.104 48.4774L31.5899 54.1012C31.5449 54.6862 31.0499 55.125 30.4761 55.125H4.29736L4.40986 56.3512C4.45486 56.9362 4.94986 57.375 5.52361 57.375H32.7261C33.2999 57.375 33.7949 56.9362 33.8399 56.3512L34.6701 47.25H34.6724L34.8749 45Z" fill="#C97700"/>
<path d="M14.625 45H3.375L3.5775 47.25H14.625V45Z" fill="#C97700"/>
<path d="M37.0802 43.5825C37.2827 44.2913 36.7314 45 35.9777 45H34.8752H23.6252H14.6252H3.37518H2.27268C1.51893 45 0.967677 44.2913 1.17018 43.5825L3.98268 33.4575C4.11768 32.9625 4.56768 32.625 5.08518 32.625H19.7777H33.1652C33.6827 32.625 34.1327 32.9625 34.2677 33.4575L37.0802 43.5825Z" fill="#EFAB48"/>
<path d="M24.1977 34.875H3.58887L3.98037 33.4643C4.11874 32.9681 4.56987 32.625 5.08512 32.625H24.1651C24.6804 32.625 25.1315 32.9681 25.2699 33.4643C25.4667 34.173 24.9335 34.875 24.1977 34.875Z" fill="#EFBD7B"/>
<path d="M35.9777 45H2.27268C1.51893 45 0.967677 44.2913 1.17018 43.5825L1.40643 42.75H32.6027C33.3564 42.75 33.9077 42.0413 33.7052 41.3325L31.2864 32.625H33.1652C33.6827 32.625 34.1327 32.9625 34.2677 33.4575L37.0802 43.5825C37.2827 44.2913 36.7314 45 35.9777 45Z" fill="#E89A10"/>
<path d="M68.625 48.375L69.75 57.375H60.75L61.875 48.375L64.125 10.125H65.25L67.5 1.125L68.625 48.375Z" fill="#D1800B"/>
<path d="M68.625 48.375L69.75 57.375H60.75L61.875 48.375L64.125 10.125H65.25L67.5 1.125L68.625 48.375Z" fill="#D1800B"/>
<path d="M68.625 48.375L68.0591 24.6217C65.637 33.9356 69.0007 45.036 63.9146 52.3013L64.125 50.625L66.375 12.375H67.5L67.7475 11.3962L67.5 1.125L65.25 10.125H64.125L61.875 48.375L60.75 57.375H63.2812H69.75L68.625 48.375Z" fill="#AD6207"/>
<path d="M38.25 1.125V10.125H21.375H20.25L22.5 1.125H38.25Z" fill="#EFAB48"/>
<path d="M38.25 1.125V3.375H21.9375L22.5 1.125H38.25Z" fill="#EFBD7B"/>
<path d="M67.5 1.125L65.25 10.125H64.125H47.25V1.125H67.5Z" fill="#EFAB48"/>
<path d="M62.6501 2.52338C62.5252 3.024 62.0753 3.375 61.5589 3.375H47.25V1.125H61.5589C62.2913 1.125 62.8279 1.81238 62.6501 2.52338Z" fill="#EFBD7B"/>
<path d="M64.1248 10.125L61.8748 48.375L60.7498 57.375H42.7498H32.7261C33.2998 57.375 33.7948 56.9362 33.8398 56.3512L34.8748 45H35.9773C36.7311 45 37.2823 44.2913 37.0798 43.5825L34.2673 33.4575C34.1323 32.9625 33.6823 32.625 33.1648 32.625H19.7773L21.3748 10.125H38.2498V13.5L40.4998 12.375L42.7498 13.5L44.9998 12.375L47.2498 13.5V10.125H64.1248Z" fill="#E89A10"/>
<path d="M64.1248 10.125L61.8748 48.375L60.7498 57.375H34.9761C35.5498 57.375 36.0448 56.9362 36.0898 56.3512L37.1248 45H38.2273C38.9811 45 39.5323 44.2913 39.3298 43.5825L36.5173 33.4575C36.3823 32.9625 35.9323 32.625 35.4148 32.625H19.7773L21.3748 10.125H38.2498V13.5L40.4998 12.375L42.7498 13.5L44.9998 12.375L47.2498 13.5V10.125H64.1248Z" fill="#DB8C0E"/>
<path d="M61.5249 16.8041L59.6248 45C58.9824 50.1412 54.6118 54 49.4301 54H39.2151C37.6525 54 36.4273 52.6578 36.5691 51.1008L37.1248 45H38.2273C38.9811 45 39.5323 44.2912 39.3298 43.5825L36.5173 33.4575C36.3823 32.9625 35.9323 32.625 35.4148 32.625H33.1648C33.6823 32.625 34.1323 32.9625 34.2673 33.4575L37.0798 43.5825C37.2823 44.2912 36.7311 45 35.9773 45H34.8748L34.0547 54L33.8398 56.3512C33.7948 56.9362 33.2998 57.375 32.7261 57.375H34.9761H60.7498L61.8748 48.375L63.8537 14.733C62.6432 14.6733 61.6071 15.5947 61.5249 16.8041Z" fill="#BC6D04"/>
<path d="M42.75 13.5L40.5 12.375L38.25 13.5V13.9297C38.25 14.7656 39.1297 15.3101 39.8779 14.9355L40.5 14.625L42.2471 15.498C42.5633 15.6566 42.9367 15.6566 43.2529 15.498L45 14.625L45.6221 14.9355C46.3703 15.3101 47.25 14.7656 47.25 13.9297V13.5L45 12.375L42.75 13.5Z" fill="#C97700"/>
<path d="M64.125 10.125H49.5H47.25V12.375V13.5L48.051 13.9005C48.717 14.2335 49.5 13.7498 49.5 13.005V12.375H63.99L64.125 10.125Z" fill="#C97700"/>
<path d="M38.2498 10.125H21.3748L21.2173 12.375H38.2498V10.125Z" fill="#C97700"/>
<path d="M40.1099 4.86336V6.92549C40.1099 8.37336 42.3599 8.37561 42.3599 6.92549V4.86336C42.3599 3.41549 40.1099 3.41324 40.1099 4.86336Z" fill="#F9F4F4"/>
</svg>
