<svg width="160" height="160" viewBox="0 0 160 160" fill="none" xmlns="http://www.w3.org/2000/svg">
<g id="fi_545885" clip-path="url(#clip0_1002_56722)">
<g id="Group">
<path id="Vector" d="M114.188 100.513H92.0342V148.513H114.188V100.513Z" fill="#03736D"/>
<path id="Vector_2" d="M137.983 58.5298C148.783 58.5298 157.538 49.7745 157.538 38.9743C157.538 28.174 148.783 19.4187 137.983 19.4187C127.183 19.4187 118.427 28.174 118.427 38.9743C118.427 49.7745 127.183 58.5298 137.983 58.5298Z" fill="#03736D"/>
</g>
<path id="Vector_3" d="M141.41 25.4957C141.29 25.3763 141.138 25.3166 140.952 25.3166H137.547C137.322 24.2153 136.897 23.2592 136.273 22.4496H140.912C141.098 22.4496 141.25 22.3899 141.37 22.2707C141.489 22.1513 141.549 21.9985 141.549 21.8127V19.7814C141.549 19.5955 141.489 19.443 141.37 19.3234C141.25 19.2042 141.098 19.1443 140.912 19.1443H124.346C124.16 19.1443 124.008 19.2042 123.888 19.3234C123.769 19.4429 123.709 19.5954 123.709 19.7813V22.4294C123.709 22.602 123.772 22.7513 123.898 22.8774C124.024 23.0034 124.174 23.0665 124.346 23.0665H127.233C130.034 23.0665 131.813 23.8162 132.569 25.3163H124.346C124.16 25.3163 124.008 25.3759 123.888 25.4954C123.769 25.615 123.709 25.7674 123.709 25.9533V27.9844C123.709 28.1702 123.769 28.3229 123.888 28.4421C124.008 28.5617 124.161 28.6212 124.346 28.6212H132.848C132.556 29.7099 131.876 30.5394 130.807 31.1102C129.739 31.6811 128.329 31.9665 126.576 31.9665H124.346C124.174 31.9665 124.024 32.0296 123.898 32.1556C123.772 32.2818 123.709 32.4312 123.709 32.6035V35.1325C123.709 35.3053 123.769 35.4512 123.888 35.5705C126.437 38.2783 129.742 42.0677 133.804 46.9396C133.923 47.099 134.089 47.1785 134.302 47.1785H138.184C138.463 47.1785 138.656 47.0594 138.762 46.82C138.894 46.581 138.868 46.3554 138.682 46.1429C134.806 41.3908 131.76 37.8335 129.543 35.4708C131.8 35.2054 133.631 34.4752 135.039 33.2808C136.445 32.0862 137.301 30.5329 137.607 28.6215H140.952C141.138 28.6215 141.29 28.562 141.41 28.4424C141.529 28.3232 141.589 28.1705 141.589 27.9847V25.9539C141.589 25.7678 141.529 25.6153 141.41 25.4957Z" fill="black"/>
<g id="Group_2">
<path id="Vector_4" d="M132.786 55.5212C144.957 55.5212 154.803 45.6751 154.803 33.5042C154.803 21.3332 144.957 11.4871 132.786 11.4871C120.615 11.4871 110.769 21.47 110.769 33.6409C110.769 45.8118 120.615 55.5212 132.786 55.5212ZM132.786 16.5469C142.222 16.5469 149.88 24.205 149.88 33.6409C149.88 43.0768 142.222 50.7349 132.786 50.7349C123.35 50.7349 115.692 43.0768 115.692 33.6409C115.692 24.205 123.35 16.5469 132.786 16.5469Z" fill="#2D2D2D"/>
<path id="Vector_5" d="M28.1709 92.9913C28.7179 92.9913 29.1282 92.8546 29.5384 92.5811L62.2222 69.1964L93.8119 82.3246C94.6324 82.5982 95.5897 82.5981 96.2735 82.0511L121.709 61.9486C122.803 61.1281 122.94 59.6238 122.12 58.5298C121.299 57.4358 119.795 57.299 118.701 58.1195L94.3589 77.4016L62.9059 64.2734C62.0854 63.9999 61.2649 63.9999 60.5812 64.5469L26.8034 88.6152C25.7094 89.4358 25.4359 90.94 26.2564 92.034C26.6666 92.7178 27.4871 92.9913 28.1709 92.9913Z" fill="#2D2D2D"/>
<path id="Vector_6" d="M157.538 140.992H146.325V71.2479C146.325 69.8804 145.231 68.7864 143.863 68.7864H121.709C120.342 68.7864 119.248 69.8804 119.248 71.2479V140.992H111.043V95.3163C111.043 93.9488 109.949 92.8548 108.581 92.8548H86.5641C85.1966 92.8548 84.1026 93.9488 84.1026 95.3163V140.992H75.8974V91.7607C75.8974 90.3932 74.8034 89.2992 73.4359 89.2992H51.2821C49.9145 89.2992 48.8205 90.3932 48.8205 91.7607V140.992H40.6154V105.846C40.6154 104.479 39.5214 103.385 38.1538 103.385H16.1368C14.7692 103.385 13.6752 104.479 13.6752 105.846V140.992H2.46154C1.09402 140.992 0 142.086 0 143.453C0 144.821 1.09402 145.915 2.46154 145.915H16.1368H38.2906H51.2821H73.4359H86.4274H108.718H121.709H143.863H157.538C158.906 145.915 160 144.821 160 143.453C160 142.086 158.769 140.992 157.538 140.992ZM124.171 73.5727H141.538V140.992H124.171V73.5727ZM88.8889 97.7778H106.256V140.992H88.8889V97.7778ZM53.7436 94.0855H71.1111V140.855H53.7436V94.0855ZM18.5983 108.171H35.9658V140.855H18.5983V108.171Z" fill="#2D2D2D"/>
</g>
</g>
<defs>
<clipPath id="clip0_1002_56722">
<rect width="160" height="160" fill="white"/>
</clipPath>
</defs>
</svg>
