<svg width="128" height="128" viewBox="0 0 128 128" fill="none" xmlns="http://www.w3.org/2000/svg">
<g id="fi_855279">
<path id="Vector" d="M107.618 17.9622H12.3925C5.55925 17.9622 0 23.5214 0 30.3549V32.0359C0 38.8692 5.55925 44.4284 12.3925 44.4284H107.619C108.658 44.4284 109.499 43.5869 109.499 42.5484V19.8422C109.499 18.8037 108.657 17.9622 107.618 17.9622Z" fill="#7C3D1E"/>
<path id="Vector_2" d="M0.51325 26.8318C0.181 27.9493 0 29.1308 0 30.355V32.036C0 38.8693 5.55925 44.4285 12.3925 44.4285H107.619C108.658 44.4285 109.499 43.587 109.499 42.5485V35.6943H12.3925C6.775 35.694 2.0335 31.9555 0.51325 26.8318Z" fill="#68321A"/>
<path id="Vector_3" d="M59.922 12.181L52.7797 5.03903C52.0457 4.30503 50.8552 4.30503 50.1207 5.03903L13.9412 41.2185C13.4035 41.7565 13.2427 42.5648 13.534 43.2675C13.8247 43.9703 14.5107 44.4283 15.271 44.4283H29.5552C30.0537 44.4283 30.532 44.2303 30.8847 43.8778L59.9222 14.8403C60.2747 14.4875 60.4727 14.0095 60.4727 13.5108C60.4727 13.012 60.2745 12.534 59.922 12.181Z" fill="#78AA17"/>
<path id="Vector_4" d="M19.3802 35.7798L13.9415 41.2185C13.4037 41.7565 13.243 42.5648 13.5342 43.2675C13.825 43.9703 14.511 44.4283 15.2712 44.4283H29.5555C30.054 44.4283 30.5322 44.2303 30.885 43.8778L38.9827 35.78L19.3802 35.7798Z" fill="#6D8915"/>
<path id="Vector_5" d="M103.243 41.2185L67.0642 5.03903C66.3297 4.30503 65.1394 4.30503 64.4049 5.03903L28.2257 41.2185C27.6879 41.7565 27.5272 42.5648 27.8184 43.2675C28.1092 43.9703 28.7952 44.4283 29.5554 44.4283H101.914C102.675 44.4283 103.36 43.9703 103.651 43.2675C103.942 42.5648 103.781 41.7563 103.243 41.2185Z" fill="#8ACC19"/>
<g id="Group">
<path id="Vector_6" d="M28.2257 41.2185C27.6879 41.7565 27.5272 42.5648 27.8184 43.2675C28.1092 43.9703 28.7952 44.4283 29.5554 44.4283H101.914C102.675 44.4283 103.36 43.9703 103.651 43.2675C103.942 42.5648 103.782 41.7565 103.244 41.2185L97.8054 35.7798H33.6644L28.2257 41.2185Z" fill="#78A017"/>
<path id="Vector_7" d="M92.553 41.2186L72.4662 21.1316C72.1135 20.7791 71.6352 20.5811 71.1367 20.5811C70.6382 20.5811 70.1602 20.7791 69.8072 21.1316C68.727 22.2121 67.291 22.8071 65.763 22.8071C64.2352 22.8071 62.799 22.2123 61.7187 21.1318C61.3662 20.7791 60.888 20.5811 60.3892 20.5811C59.8905 20.5811 59.4125 20.7791 59.0597 21.1316L38.9727 41.2186C38.435 41.7566 38.2742 42.5648 38.5655 43.2676C38.8562 43.9703 39.5422 44.4283 40.3025 44.4283H91.2237C91.984 44.4283 92.67 43.9703 92.9607 43.2676C93.2515 42.5648 93.0905 41.7563 92.553 41.2186Z" fill="#78A017"/>
</g>
<path id="Vector_8" d="M38.973 41.2185C38.4352 41.7565 38.2745 42.5648 38.5657 43.2675C38.8565 43.9703 39.5425 44.4283 40.3027 44.4283H91.224C91.9842 44.4283 92.6702 43.9703 92.961 43.2675C93.252 42.5648 93.0912 41.7565 92.5537 41.2185L87.115 35.7798H44.4115L38.973 41.2185Z" fill="#6D8915"/>
<path id="Vector_9" d="M119.301 40.668H29.856H13.233H10.167C4.768 40.668 0.352 36.4682 0.002 31.1577C0.00175 31.1702 0 31.1827 0 31.196V31.1962V110.279C0 117.575 5.93625 123.512 13.233 123.512H119.301C120.34 123.512 121.181 122.67 121.181 121.632V42.548C121.181 41.5097 120.34 40.668 119.301 40.668Z" fill="#AA5D24"/>
<path id="Vector_10" d="M121.181 72.9612H100.945C93.3868 72.9612 87.2373 79.1102 87.2373 86.6689C87.2373 94.2272 93.3863 100.377 100.945 100.377H121.181V72.9612Z" fill="#7C3D1E"/>
<path id="Vector_11" d="M122.36 68.1328H100.945C93.3866 68.1328 87.2371 74.2818 87.2371 81.8406C87.2371 89.3988 93.3861 95.5483 100.945 95.5483H122.36C125.47 95.5483 128 93.0181 128 89.9081V73.7733C128 70.6628 125.47 68.1328 122.36 68.1328Z" fill="#F99608"/>
<path id="Vector_12" d="M102.537 75.707C99.1553 75.707 96.4041 78.4585 96.4041 81.84C96.4041 85.2215 99.1553 87.9728 102.537 87.9728C105.918 87.9728 108.67 85.2215 108.67 81.84C108.67 78.4585 105.918 75.707 102.537 75.707Z" fill="#FFD039"/>
</g>
</svg>
