<svg width="384" height="384" viewBox="0 0 384 384" fill="none" xmlns="http://www.w3.org/2000/svg">
<path d="M291.176 112.235C319.45 133.129 372.008 265.363 349.866 314.031C329.076 359.727 180.561 357.969 106.921 351.825C33.2812 345.681 14.1427 311.482 27.3907 247.872C44.8588 163.968 71.0784 106.003 120.522 98.1235C172.266 89.879 260.924 89.879 291.176 112.235Z" fill="#D2FFDC"/>
<path d="M334.698 123.729L333.52 126.801C333.446 126.99 333.334 127.162 333.191 127.305C333.047 127.449 332.875 127.561 332.686 127.634L329.614 128.809C329.346 128.916 329.116 129.102 328.953 129.342C328.791 129.581 328.705 129.864 328.705 130.153C328.705 130.442 328.791 130.725 328.953 130.964C329.116 131.204 329.346 131.389 329.614 131.497L332.686 132.676C332.876 132.748 333.049 132.859 333.192 133.003C333.336 133.147 333.447 133.319 333.52 133.509L334.698 136.581C334.806 136.85 334.991 137.08 335.231 137.242C335.471 137.404 335.753 137.491 336.042 137.491C336.332 137.491 336.614 137.404 336.854 137.242C337.093 137.08 337.279 136.85 337.386 136.581L338.565 133.509C338.637 133.32 338.748 133.148 338.891 133.004C339.034 132.861 339.206 132.749 339.395 132.676L342.467 131.497C342.735 131.389 342.965 131.204 343.128 130.964C343.29 130.725 343.376 130.442 343.376 130.153C343.376 129.864 343.29 129.581 343.128 129.342C342.965 129.102 342.735 128.916 342.467 128.809L339.395 127.634C339.206 127.56 339.035 127.448 338.893 127.304C338.75 127.161 338.638 126.989 338.565 126.801L337.386 123.729C337.279 123.46 337.093 123.23 336.854 123.068C336.614 122.906 336.332 122.819 336.042 122.819C335.753 122.819 335.471 122.906 335.231 123.068C334.991 123.23 334.806 123.46 334.698 123.729Z" fill="#D2FFDC"/>
<path d="M15.1642 183.068L13.4401 187.569C13.3332 187.847 13.169 188.1 12.9579 188.311C12.7469 188.522 12.4938 188.687 12.2151 188.794L7.71463 190.522C7.31223 190.675 6.96599 190.948 6.72173 191.303C6.47746 191.657 6.34668 192.078 6.34668 192.509C6.34668 192.94 6.47746 193.36 6.72173 193.715C6.96599 194.07 7.31223 194.342 7.71463 194.496L12.2113 196.224C12.4902 196.33 12.7437 196.494 12.9553 196.704C13.167 196.914 13.3322 197.167 13.4401 197.445L15.1681 201.949C15.3225 202.351 15.5949 202.696 15.9493 202.939C16.3037 203.182 16.7235 203.312 17.1534 203.312C17.5832 203.312 18.003 203.182 18.3574 202.939C18.7118 202.696 18.9842 202.351 19.1386 201.949L20.8705 197.445C20.9769 197.168 21.1402 196.916 21.3499 196.706C21.5595 196.495 21.8109 196.331 22.0878 196.224L26.5921 194.496C26.9945 194.342 27.3407 194.07 27.585 193.715C27.8292 193.36 27.96 192.94 27.96 192.509C27.96 192.078 27.8292 191.657 27.585 191.303C27.3407 190.948 26.9945 190.675 26.5921 190.522L22.0878 188.794C21.8095 188.687 21.557 188.522 21.3466 188.311C21.1362 188.1 20.9726 187.847 20.8666 187.569L19.1348 183.068C18.9803 182.667 18.708 182.322 18.3536 182.079C17.9992 181.835 17.5794 181.705 17.1495 181.705C16.7196 181.705 16.2999 181.835 15.9455 182.079C15.5911 182.322 15.3187 182.667 15.1642 183.068Z" fill="#D2FFDC"/>
<path d="M234.647 225.128L233.495 228.154C233.423 228.341 233.312 228.511 233.17 228.652C233.028 228.794 232.857 228.904 232.669 228.975L229.647 230.127C229.377 230.231 229.145 230.413 228.981 230.652C228.817 230.89 228.729 231.172 228.729 231.462C228.729 231.751 228.817 232.033 228.981 232.272C229.145 232.51 229.377 232.693 229.647 232.796L232.669 233.948C232.857 234.02 233.027 234.13 233.169 234.272C233.311 234.413 233.422 234.583 233.495 234.77L234.647 237.796C234.747 238.072 234.929 238.312 235.17 238.481C235.41 238.65 235.697 238.74 235.991 238.74C236.285 238.74 236.572 238.65 236.812 238.481C237.053 238.312 237.235 238.072 237.335 237.796L238.487 234.77C238.558 234.583 238.668 234.413 238.81 234.271C238.952 234.129 239.122 234.019 239.309 233.948L242.331 232.796C242.601 232.693 242.834 232.51 242.998 232.272C243.162 232.033 243.25 231.751 243.25 231.462C243.25 231.172 243.162 230.89 242.998 230.652C242.834 230.413 242.601 230.231 242.331 230.127L239.309 228.975C239.121 228.905 238.951 228.795 238.809 228.653C238.668 228.511 238.558 228.341 238.487 228.154L237.335 225.128C237.235 224.851 237.053 224.612 236.812 224.443C236.572 224.274 236.285 224.183 235.991 224.183C235.697 224.183 235.41 224.274 235.17 224.443C234.929 224.612 234.747 224.851 234.647 225.128Z" fill="white"/>
<path d="M113.952 313.283L113.184 315.314C113.136 315.44 113.062 315.554 112.967 315.65C112.871 315.745 112.757 315.819 112.631 315.867L110.6 316.635C110.418 316.704 110.262 316.827 110.152 316.987C110.042 317.147 109.983 317.337 109.983 317.532C109.983 317.726 110.042 317.916 110.152 318.076C110.262 318.236 110.418 318.359 110.6 318.428L112.631 319.196C112.757 319.245 112.871 319.319 112.966 319.414C113.061 319.51 113.135 319.624 113.184 319.749L113.952 321.784C114.021 321.966 114.144 322.122 114.304 322.232C114.465 322.342 114.654 322.401 114.849 322.401C115.043 322.401 115.233 322.342 115.393 322.232C115.553 322.122 115.676 321.966 115.745 321.784L116.513 319.749C116.563 319.624 116.637 319.51 116.732 319.415C116.827 319.32 116.941 319.245 117.066 319.196L119.101 318.428C119.283 318.359 119.439 318.236 119.549 318.076C119.659 317.916 119.718 317.726 119.718 317.532C119.718 317.337 119.659 317.147 119.549 316.987C119.439 316.827 119.283 316.704 119.101 316.635L117.066 315.867C116.941 315.818 116.827 315.744 116.731 315.649C116.636 315.554 116.562 315.439 116.513 315.314L115.745 313.283C115.676 313.101 115.553 312.945 115.393 312.835C115.233 312.725 115.043 312.666 114.849 312.666C114.654 312.666 114.465 312.725 114.304 312.835C114.144 312.945 114.021 313.101 113.952 313.283Z" fill="white"/>
<path d="M135.844 113.664L135.076 115.695C135.028 115.821 134.954 115.936 134.858 116.031C134.763 116.126 134.649 116.2 134.523 116.248L132.492 117.016C132.31 117.086 132.154 117.209 132.044 117.369C131.933 117.529 131.875 117.719 131.875 117.913C131.875 118.107 131.933 118.297 132.044 118.457C132.154 118.617 132.31 118.74 132.492 118.81L134.523 119.578C134.649 119.626 134.763 119.7 134.858 119.795C134.954 119.89 135.028 120.005 135.076 120.131L135.844 122.162C135.913 122.343 136.036 122.5 136.196 122.61C136.356 122.72 136.546 122.779 136.74 122.779C136.935 122.779 137.125 122.72 137.285 122.61C137.445 122.5 137.568 122.343 137.637 122.162L138.405 120.131C138.453 120.005 138.527 119.89 138.622 119.795C138.718 119.7 138.832 119.626 138.958 119.578L140.989 118.81C141.171 118.74 141.327 118.617 141.437 118.457C141.547 118.297 141.606 118.107 141.606 117.913C141.606 117.719 141.547 117.529 141.437 117.369C141.327 117.209 141.171 117.086 140.989 117.016L138.958 116.248C138.832 116.2 138.718 116.126 138.622 116.031C138.527 115.936 138.453 115.821 138.405 115.695L137.637 113.664C137.568 113.482 137.445 113.326 137.285 113.216C137.125 113.106 136.935 113.047 136.74 113.047C136.546 113.047 136.356 113.106 136.196 113.216C136.036 113.326 135.913 113.482 135.844 113.664Z" fill="white"/>
<path d="M172.531 197.153C172.385 203.478 178.122 208.673 185.345 208.673C192.568 208.673 198.363 203.462 198.282 197.153C198.206 190.936 192.469 185.975 185.468 185.975C178.468 185.975 172.677 190.936 172.531 197.153Z" fill="#85FFA7"/>
<path d="M83.3281 348.518C86.2567 349.13 89.3082 349.674 92.4826 350.15L100.508 277.432H109.797C121.106 277.432 129.638 286.548 128.798 298.038L124.766 353.119C127.807 353.311 130.924 353.491 134.116 353.66L137.599 298.038C138.616 281.837 126.497 269.119 110.623 269.119H101.43L108.975 200.717H151.215C152.367 214.971 164.728 226.671 181.045 228.434L179.666 354.996C182.915 355.014 186.181 355.014 189.466 354.996V270.394H322.714L332.878 331.354C335.75 329.65 338.465 327.695 340.992 325.513L331.185 270.397H354.566C354.336 267.709 354.037 264.991 353.683 262.226H329.729L318.785 200.717H338.753C337.947 198.339 337.123 195.974 336.28 193.624H257.864L255.114 164.713C254.231 155.432 244.662 148.063 233.764 148.063C226.852 148.063 220.977 143.455 220.708 137.891L220.593 135.487H309.615C308.433 133.51 307.256 131.626 306.086 129.834H220.335L218.638 93.9955C216.442 93.8496 214.23 93.7216 212.003 93.6115L213.327 129.838H189.416V93.0778C187.112 93.0778 184.815 93.0957 182.527 93.1315L182.143 129.838H116.794L120.288 98.1696C117.982 98.5437 115.697 99.0359 113.441 99.6442L109.79 129.838H71.6046C70.2298 131.651 68.8897 133.533 67.5841 135.487H109.106L102.071 193.624H41.2532C40.5108 195.956 39.785 198.321 39.0759 200.717H101.215L92.9281 269.119H24.0999C23.8439 271.963 23.666 274.734 23.5662 277.432H91.9182L83.3281 348.518ZM250.176 193.624H219.264C216.906 180.184 204.526 169.859 189.42 168.361V135.487H213.535L213.623 137.891C213.946 146.696 223.162 154.019 234.156 154.019C241.144 154.019 247.235 158.769 247.734 164.698L250.176 193.624ZM189.439 228.434C205.774 226.671 218.27 214.971 219.56 200.717H311.04L321.327 262.226H189.446L189.439 228.434ZM159.871 197.153C160.366 184.927 171.844 175.311 185.526 175.311C199.208 175.311 210.582 184.911 210.947 197.153C211.331 209.825 199.841 220.397 185.284 220.397C170.726 220.397 159.36 209.81 159.871 197.153ZM109.755 193.624L116.172 135.487H182.054L181.697 168.361C166.575 169.859 154.088 180.173 151.588 193.624H109.755Z" fill="white"/>
<path d="M268.247 185.057H317.188L312.657 159.821H265.448L268.247 185.057Z" fill="#85FFA7"/>
<path d="M34.9019 319.926H77.3185L82.0071 284.463H41.3646L34.9019 319.926Z" fill="#85FFA7"/>
<path d="M58.894 188.275H94.7174L98.0851 162.812H63.5328L58.894 188.275Z" fill="#85FFA7"/>
<path d="M163.465 126.858H177.869L178.195 109.375H164.156L163.465 126.858Z" fill="#85FFA7"/>
<path d="M271.384 255.725H312.672L310.119 239.201H269.968L271.384 255.725Z" fill="#85FFA7"/>
<g opacity="0.1">
<path d="M303.663 113.864C305.199 160.8 245.46 199.457 170.246 199.457C95.0322 199.457 34.7289 160.8 35.5468 113.864C36.3532 67.7299 96.0882 30.9197 168.987 30.9197C241.885 30.9197 302.166 67.7299 303.663 113.864Z" fill="#03736D"/>
</g>
<g opacity="0.2">
<path d="M250.794 110.88C251.716 139.296 215.547 162.72 169.997 162.72C124.447 162.72 87.9283 139.296 88.4237 110.88C88.9152 82.9402 125.088 60.6451 169.233 60.6451C213.377 60.6451 249.888 82.944 250.794 110.88Z" fill="#03736D"/>
</g>
<g opacity="0.3">
<path d="M205.298 111.325C205.705 123.821 189.807 134.112 169.782 134.112C149.756 134.112 133.709 123.821 133.928 111.325C134.139 99.0375 150.056 89.2455 169.448 89.2455C188.84 89.2455 204.902 99.0452 205.298 111.325Z" fill="#03736D"/>
</g>
<path d="M260.41 257.23H312.576C313.32 257.23 314.034 256.934 314.561 256.408C315.087 255.882 315.383 255.168 315.383 254.423V228.426H257.603V254.423C257.603 255.168 257.898 255.882 258.425 256.408C258.951 256.934 259.665 257.23 260.41 257.23Z" fill="#03736D"/>
<path d="M254.776 221.153H261.988V229.167C261.988 230.124 261.608 231.041 260.932 231.717C260.256 232.393 259.338 232.773 258.382 232.773C257.426 232.773 256.509 232.393 255.832 231.717C255.156 231.041 254.776 230.124 254.776 229.167V221.153Z" fill="#EF9F20"/>
<path d="M261.992 221.153H269.203V229.167C269.203 230.124 268.823 231.041 268.147 231.717C267.471 232.393 266.554 232.773 265.597 232.773C264.641 232.773 263.724 232.393 263.048 231.717C262.372 231.041 261.992 230.124 261.992 229.167V221.153Z" fill="#49A12A"/>
<path d="M269.203 221.153H276.415V229.167C276.415 230.124 276.035 231.041 275.359 231.717C274.683 232.393 273.765 232.773 272.809 232.773C271.853 232.773 270.936 232.393 270.259 231.717C269.583 231.041 269.203 230.124 269.203 229.167V221.153Z" fill="#EF9F20"/>
<path d="M276.415 221.153H283.626V229.167C283.626 230.124 283.246 231.041 282.57 231.717C281.894 232.393 280.977 232.773 280.021 232.773C279.064 232.773 278.147 232.393 277.471 231.717C276.795 231.041 276.415 230.124 276.415 229.167V221.153Z" fill="#49A12A"/>
<path d="M283.63 221.153H290.842V229.167C290.842 230.124 290.462 231.041 289.786 231.717C289.109 232.393 288.192 232.773 287.236 232.773C286.28 232.773 285.362 232.393 284.686 231.717C284.01 231.041 283.63 230.124 283.63 229.167V221.153Z" fill="#EF9F20"/>
<path d="M290.842 221.153H298.053V229.167C298.053 230.124 297.673 231.041 296.997 231.717C296.321 232.393 295.404 232.773 294.448 232.773C293.491 232.773 292.574 232.393 291.898 231.717C291.222 231.041 290.842 230.124 290.842 229.167V221.153Z" fill="#49A12A"/>
<path d="M298.057 221.153H305.28V229.167C305.28 230.124 304.9 231.041 304.224 231.717C303.548 232.393 302.631 232.773 301.674 232.773C300.718 232.773 299.801 232.393 299.125 231.717C298.449 231.041 298.069 230.124 298.069 229.167V221.153H298.057Z" fill="#EF9F20"/>
<path d="M305.28 221.153H312.492V229.167C312.492 230.124 312.112 231.041 311.435 231.717C310.759 232.393 309.842 232.773 308.886 232.773C307.929 232.773 307.012 232.393 306.336 231.717C305.66 231.041 305.28 230.124 305.28 229.167V221.153Z" fill="#49A12A"/>
<path d="M312.48 221.153H319.692V229.167C319.692 230.124 319.312 231.041 318.635 231.717C317.959 232.393 317.042 232.773 316.086 232.773C315.129 232.773 314.212 232.393 313.536 231.717C312.86 231.041 312.48 230.124 312.48 229.167V221.153Z" fill="#EF9F20"/>
<path d="M319.695 221.153H254.776L260.878 213.22C261.405 212.537 262.081 211.983 262.856 211.603C263.63 211.223 264.481 211.026 265.344 211.027H309.12C309.981 211.027 310.831 211.225 311.604 211.605C312.377 211.985 313.053 212.538 313.578 213.22L319.695 221.153Z" fill="#FFBA40"/>
<path d="M265.344 211.027C264.139 211.029 262.966 211.42 262 212.141V221.153H269.211V211.027H265.344Z" fill="#03736D"/>
<path d="M283.626 211.027H276.415V221.153H283.626V211.027Z" fill="#03736D"/>
<path d="M298.053 211.027H290.842V221.153H298.053V211.027Z" fill="#03736D"/>
<path d="M309.12 211.027H305.28V221.153H312.492V212.141C311.518 211.414 310.335 211.024 309.12 211.027Z" fill="#03736D"/>
<path d="M274.668 236.083H264.503V257.23H274.668V236.083Z" fill="white"/>
<path d="M307.296 236.102H281.487V249.876H307.296V236.102Z" fill="white"/>
<path d="M37.4898 322.656H80.3058C81.1083 322.656 81.878 322.337 82.4454 321.77C83.0129 321.202 83.3317 320.433 83.3317 319.63V291.598H34.4639V319.63C34.4639 320.433 34.7827 321.202 35.3501 321.77C35.9176 322.337 36.6873 322.656 37.4898 322.656Z" fill="#03736D"/>
<path d="M31.822 283.776H39.598V292.416C39.595 293.445 39.1842 294.43 38.4557 295.156C37.7273 295.883 36.7406 296.291 35.7119 296.291C34.6813 296.291 33.6928 295.881 32.9641 295.152C32.2353 294.424 31.8259 293.435 31.8259 292.404V283.776H31.822Z" fill="#17AF6F"/>
<path d="M39.5979 283.776H47.3739V292.416C47.3739 293.447 46.9645 294.435 46.2357 295.164C45.5069 295.893 44.5185 296.302 43.4878 296.302C42.4572 296.302 41.4687 295.893 40.7399 295.164C40.0112 294.435 39.6017 293.447 39.6017 292.416V283.776H39.5979Z" fill="#24E27B"/>
<path d="M47.374 283.776H55.15V292.416C55.15 292.926 55.0495 293.432 54.8542 293.903C54.6589 294.375 54.3727 294.803 54.0118 295.164C53.651 295.525 53.2226 295.811 52.7511 296.006C52.2796 296.202 51.7743 296.302 51.2639 296.302C50.2333 296.302 49.2448 295.893 48.5161 295.164C47.7873 294.435 47.3779 293.447 47.3779 292.416V283.776H47.374Z" fill="#17AF6F"/>
<path d="M55.1499 283.776H62.9259V292.416C62.9259 293.447 62.5165 294.435 61.7877 295.164C61.0589 295.893 60.0705 296.302 59.0398 296.302C58.5295 296.302 58.0242 296.202 57.5527 296.006C57.0812 295.811 56.6528 295.525 56.292 295.164C55.9311 294.803 55.6449 294.375 55.4496 293.903C55.2543 293.432 55.1537 292.926 55.1537 292.416V283.776H55.1499Z" fill="#24E27B"/>
<path d="M62.926 283.776H70.702V292.416C70.699 293.445 70.2882 294.43 69.5598 295.156C68.8313 295.883 67.8446 296.291 66.8159 296.291C65.7853 296.291 64.7969 295.881 64.0681 295.152C63.3393 294.424 62.9299 293.435 62.9299 292.404V283.776H62.926Z" fill="#17AF6F"/>
<path d="M70.7019 283.776H78.4779V292.416C78.4779 293.447 78.0685 294.435 77.3397 295.164C76.6109 295.893 75.6225 296.302 74.5918 296.302C73.5612 296.302 72.5727 295.893 71.844 295.164C71.1152 294.435 70.7057 293.447 70.7057 292.416V283.776H70.7019Z" fill="#24E27B"/>
<path d="M78.478 283.776H85.9698V292.558C85.9698 293.552 85.5749 294.505 84.8721 295.208C84.1692 295.911 83.2159 296.306 82.222 296.306C81.228 296.306 80.2747 295.911 79.5718 295.208C78.869 294.505 78.4741 293.552 78.4741 292.558V283.776H78.478Z" fill="#17AF6F"/>
<path d="M85.9699 283.776H31.8259L38.4 275.213C38.9664 274.477 39.694 273.882 40.5269 273.472C41.3597 273.061 42.2755 272.848 43.2038 272.847H74.5882C75.5166 272.847 76.4326 273.061 77.2655 273.471C78.0985 273.881 78.826 274.477 79.392 275.213L85.9699 283.776Z" fill="#36C16E"/>
<path d="M43.2037 272.847C41.9038 272.85 40.6393 273.271 39.5979 274.049V283.776H47.3739V272.847H43.2037Z" fill="#03736D"/>
<path d="M62.9259 272.847H55.1499V283.765H62.9259V272.847Z" fill="#03736D"/>
<path d="M74.5918 272.847H70.7019V283.776H78.4779V274.264C77.3893 273.35 76.0135 272.848 74.5918 272.847Z" fill="#03736D"/>
<path d="M53.2646 299.877H42.3091V322.656H53.2646V299.877Z" fill="white"/>
<path d="M77.5103 299.877H60.6143V314.726H77.5103V299.877Z" fill="white"/>
<path d="M163.772 113.787L138.896 74.8417H203.735L178.859 113.787C178.05 115.054 176.935 116.097 175.617 116.819C174.298 117.541 172.819 117.92 171.316 117.92C169.812 117.92 168.333 117.541 167.015 116.819C165.696 116.097 164.581 115.054 163.772 113.787Z" fill="#03736D"/>
<path d="M171.314 93.12C192.231 93.12 209.188 76.1633 209.188 55.2461C209.188 34.3289 192.231 17.3722 171.314 17.3722C150.397 17.3722 133.44 34.3289 133.44 55.2461C133.44 76.1633 150.397 93.12 171.314 93.12Z" fill="#03736D"/>
<path d="M171.314 69.5002C179.186 69.5002 185.568 63.1185 185.568 55.2461C185.568 47.3738 179.186 40.9921 171.314 40.9921C163.442 40.9921 157.06 47.3738 157.06 55.2461C157.06 63.1185 163.442 69.5002 171.314 69.5002Z" fill="white"/>
</svg>
