<svg width="608" height="640" viewBox="0 0 608 640" fill="none" xmlns="http://www.w3.org/2000/svg">
<path d="M343.892 454.285H46.73C41.0763 454.285 36.4922 449.701 36.4922 444.048V29.6096C36.4922 23.9559 41.0763 19.3718 46.73 19.3718H343.892C349.545 19.3718 354.129 23.9559 354.129 29.6096V444.048C354.129 449.701 349.547 454.285 343.892 454.285Z" fill="#F5F5F5"/>
<path d="M585.107 45.2763L585.703 48.2959L579.721 80.6606C575.43 83.8082 570.03 85.0442 564.798 84.077L530.948 77.8203C530.948 77.8203 525.567 76.6184 527.067 69.6334C527.067 69.6334 527.333 65.9482 530.49 65.7021C530.49 65.7021 523.929 63.0367 524.654 57.9847C525.381 52.9312 529.103 52.998 529.103 52.998C529.103 52.998 522.957 51.4477 523.595 45.7556C524.232 40.0635 527.553 40.055 527.553 40.055C527.553 40.055 520.404 38.3183 522.194 32.009C523.983 25.6996 530.127 27.2513 530.127 27.2513L554.204 31.6961L575.31 35.5975C580.251 36.5077 584.134 40.3451 585.107 45.2763Z" fill="#EBEBEB"/>
<path d="M579.145 36.9971C579.145 36.9971 571.73 30.2895 569.122 22.993C567.229 17.6963 567.36 11.7269 567.36 11.7269C567.412 11.4395 567.847 8.89076 568.203 6.80423C568.495 5.09461 567.382 3.47744 565.688 3.10479C562.125 2.3211 555.86 4.36638 553.973 10.8649C551.158 20.5623 553.564 27.1732 553.646 30.1245C553.727 33.0772 553.727 33.0772 553.727 33.0772L579.145 36.9971Z" fill="#EBEBEB"/>
<path d="M574.528 85.4745L598.171 89.8457L607.052 41.8121L583.409 37.4409L574.528 85.4745Z" fill="#EBEBEB"/>
<path d="M574.497 85.4951C574.446 85.4852 576.392 74.724 578.844 61.4609C581.296 48.1936 583.325 37.4494 583.377 37.4594C583.428 37.4693 581.482 48.2277 579.03 61.4965C576.578 74.7581 574.548 85.5051 574.497 85.4951Z" fill="#E0E0E0"/>
<path d="M598.138 89.866C598.087 89.856 600.032 79.0948 602.484 65.8318C604.936 52.5644 606.966 41.8203 607.017 41.8302C607.068 41.8402 605.123 52.5985 602.671 65.8673C600.219 79.129 598.189 89.8759 598.138 89.866Z" fill="#E0E0E0"/>
<path d="M589.691 49.9983C589.239 52.4418 590.855 54.7886 593.297 55.2395C595.74 55.6918 598.087 54.0761 598.539 51.6325C598.992 49.189 597.376 46.8422 594.932 46.3913C592.49 45.9404 590.143 47.5548 589.691 49.9983Z" fill="white"/>
<path d="M548.663 30.6693C548.673 30.6181 551.257 31.0533 554.438 31.6407C557.618 32.2281 560.188 32.7458 560.178 32.797C560.168 32.8482 557.584 32.413 554.404 31.8256C551.223 31.2396 548.653 30.7205 548.663 30.6693Z" fill="#E0E0E0"/>
<path d="M528.582 53.1336C528.592 53.0824 530.248 53.3455 532.279 53.721C534.311 54.0965 535.951 54.4421 535.941 54.4933C535.931 54.5445 534.277 54.2814 532.245 53.9059C530.213 53.5318 528.574 53.1862 528.582 53.1336Z" fill="#E0E0E0"/>
<path d="M527.109 39.8487C527.119 39.7975 529.465 40.1887 532.349 40.722C535.235 41.2554 537.565 41.729 537.555 41.7802C537.545 41.8314 535.2 41.4403 532.315 40.9069C529.431 40.3736 527.099 39.8999 527.109 39.8487Z" fill="#E0E0E0"/>
<path d="M528.996 65.4878C529.006 65.4366 531.352 65.8277 534.236 66.3611C537.122 66.8944 539.452 67.3681 539.442 67.4193C539.432 67.4705 537.086 67.0794 534.202 66.546C531.317 66.0126 528.986 65.539 528.996 65.4878Z" fill="#E0E0E0"/>
<path d="M588.701 39.8516C588.711 39.8004 592.022 40.3693 596.097 41.1231C600.174 41.877 603.469 42.5284 603.459 42.5796C603.449 42.6308 600.139 42.0619 596.063 41.308C591.988 40.5542 588.691 39.9028 588.701 39.8516Z" fill="white"/>
<path d="M525.857 48.1779C525.844 48.1822 525.807 48.0854 525.752 47.9062C525.692 47.7284 525.635 47.4611 525.594 47.1268C525.55 46.7926 525.544 46.3886 525.581 45.9434C525.628 45.4997 525.723 45.0147 525.89 44.5268C526.062 44.0404 526.288 43.6009 526.527 43.224C526.774 42.8513 527.029 42.5384 527.271 42.3037C527.51 42.0676 527.72 41.8927 527.878 41.7903C528.033 41.685 528.123 41.631 528.13 41.6424C528.151 41.6708 527.813 41.9098 527.367 42.3962C527.143 42.6366 526.907 42.9509 526.673 43.3164C526.45 43.6877 526.235 44.1172 526.067 44.5894C525.907 45.063 525.809 45.5324 525.753 45.9619C525.708 46.3929 525.699 46.7854 525.726 47.114C525.773 47.7711 525.891 48.1694 525.857 48.1779Z" fill="white"/>
<path d="M524.606 35.3628C524.593 35.3756 524.369 35.1751 524.136 34.7541C523.901 34.3374 523.694 33.6859 523.707 32.9478C523.722 32.2096 523.954 31.5667 524.203 31.1585C524.452 30.7474 524.684 30.5554 524.695 30.5682C524.721 30.5896 524.529 30.8114 524.32 31.2225C524.109 31.6307 523.91 32.248 523.894 32.9506C523.883 33.6532 524.059 34.2776 524.254 34.6929C524.449 35.1139 524.633 35.3429 524.606 35.3628Z" fill="white"/>
<path d="M527.618 61.9619C527.609 61.9776 527.304 61.8069 526.959 61.3702C526.618 60.9435 526.268 60.2111 526.28 59.352C526.292 58.4929 526.665 57.7704 527.018 57.3536C527.373 56.9269 527.685 56.7648 527.692 56.7818C527.713 56.8075 527.436 57.0052 527.123 57.4361C526.81 57.8586 526.48 58.5484 526.467 59.3562C526.457 60.1641 526.766 60.8625 527.068 61.2934C527.369 61.7315 527.639 61.9363 527.618 61.9619Z" fill="white"/>
<path d="M530.322 74.2574C530.308 74.2702 530.093 74.0497 529.867 73.6117C529.639 73.1764 529.433 72.5094 529.429 71.7541C529.427 70.9974 529.631 70.329 529.854 69.8937C530.077 69.4542 530.291 69.2324 530.305 69.2452C530.332 69.2636 530.16 69.5111 529.975 69.9492C529.789 70.3859 529.616 71.0287 529.616 71.7541C529.621 72.4795 529.797 73.121 529.986 73.5562C530.175 73.9928 530.349 74.2389 530.322 74.2574Z" fill="white"/>
<path d="M554.239 22.0982C554.226 22.101 554.168 21.9118 554.074 21.5634C554.024 21.3898 553.97 21.1765 553.923 20.9248C553.875 20.673 553.806 20.3885 553.768 20.0685C553.664 19.4313 553.599 18.6647 553.579 17.8113C553.572 16.9579 553.62 16.0178 553.757 15.0421C553.903 14.0664 554.125 13.1518 554.375 12.3368C554.637 11.5247 554.92 10.8078 555.2 10.2261C555.33 9.93027 555.475 9.6771 555.593 9.44953C555.709 9.22196 555.823 9.03279 555.92 8.8806C556.109 8.5748 556.22 8.40839 556.23 8.4155C556.241 8.42261 556.152 8.6004 555.984 8.91758C555.897 9.07403 555.793 9.26747 555.687 9.49931C555.577 9.72972 555.442 9.98574 555.321 10.2816C555.058 10.8647 554.791 11.5801 554.542 12.388C554.303 13.1987 554.088 14.1048 553.943 15.0705C553.806 16.0363 553.754 16.9664 553.751 17.8113C553.761 18.6562 553.812 19.4171 553.899 20.0514C553.929 20.37 553.987 20.6545 554.025 20.9063C554.062 21.158 554.106 21.3728 554.145 21.5477C554.217 21.899 554.252 22.0953 554.239 22.0982Z" fill="white"/>
<path d="M548.509 341.193L550.112 343.028L558.815 367.584C557.118 371.44 553.905 374.424 549.935 375.831L524.251 384.933C524.251 384.933 520.087 386.238 518.351 380.856C518.351 380.856 517.076 378.223 519.144 376.805C519.144 376.805 513.59 377.574 512.089 373.822C510.588 370.07 513.166 368.642 513.166 368.642C513.166 368.642 508.338 370.01 506.523 365.856C504.709 361.701 506.982 360.381 506.982 360.381C506.982 360.381 501.393 362.02 500.123 356.986C498.853 351.953 503.68 350.585 503.68 350.585L521.946 344.106L537.96 338.429C541.71 337.104 545.89 338.198 548.509 341.193Z" fill="#EBEBEB"/>
<path d="M541.144 337.876C541.144 337.876 533.407 336.211 528.731 332.241C525.338 329.359 523.065 325.215 523.065 325.215C522.988 324.997 522.277 323.077 521.695 321.507C521.219 320.22 519.816 319.551 518.508 319.965C515.756 320.837 512.268 324.718 513.547 329.921C515.454 337.683 519.72 341.264 520.943 343.255C522.166 345.248 522.166 345.248 522.166 345.248L541.144 337.876Z" fill="#EBEBEB"/>
<path d="M557.169 373L575.106 366.642L562.187 330.197L544.25 336.555L557.169 373Z" fill="#EBEBEB"/>
<path d="M557.147 372.966C557.108 372.98 554.184 364.832 550.617 354.767C547.048 344.7 544.19 336.532 544.228 336.518C544.266 336.503 547.189 344.651 550.758 354.718C554.325 364.782 557.185 372.953 557.147 372.966Z" fill="#E0E0E0"/>
<path d="M575.085 366.608C575.046 366.622 572.122 358.474 568.556 348.41C564.988 338.343 562.129 330.174 562.167 330.16C562.206 330.146 565.129 338.293 568.697 348.36C572.264 358.423 575.125 366.594 575.085 366.608Z" fill="#E0E0E0"/>
<path d="M553.518 342.617C554.175 344.47 556.211 345.441 558.065 344.784C559.919 344.127 560.89 342.092 560.233 340.237C559.576 338.384 557.54 337.412 555.686 338.069C553.831 338.728 552.861 340.763 553.518 342.617Z" fill="white"/>
<path d="M517.741 345.598C517.727 345.559 519.673 344.834 522.085 343.979C524.499 343.124 526.464 342.462 526.479 342.501C526.493 342.54 524.549 343.265 522.135 344.12C519.723 344.975 517.756 345.638 517.741 345.598Z" fill="#E0E0E0"/>
<path d="M512.864 368.947C512.85 368.908 514.089 368.433 515.631 367.887C517.173 367.341 518.434 366.928 518.448 366.968C518.463 367.007 517.224 367.482 515.681 368.028C514.139 368.573 512.879 368.985 512.864 368.947Z" fill="#E0E0E0"/>
<path d="M506.597 360.42C506.583 360.381 508.346 359.72 510.535 358.945C512.724 358.168 514.509 357.572 514.523 357.611C514.538 357.649 512.774 358.31 510.585 359.086C508.396 359.862 506.611 360.46 506.597 360.42Z" fill="#E0E0E0"/>
<path d="M518.036 377.25C518.022 377.212 519.786 376.55 521.975 375.775C524.164 374.998 525.949 374.401 525.963 374.441C525.977 374.479 524.213 375.141 522.024 375.916C519.835 376.692 518.049 377.29 518.036 377.25Z" fill="#E0E0E0"/>
<path d="M548.827 336.053C548.813 336.014 551.309 335.094 554.4 333.999C557.492 332.902 560.009 332.046 560.024 332.084C560.038 332.123 557.542 333.043 554.45 334.14C551.359 335.235 548.841 336.091 548.827 336.053Z" fill="white"/>
<path d="M509.031 366.627C509.024 366.634 508.962 366.583 508.852 366.482C508.74 366.384 508.596 366.223 508.435 366.01C508.273 365.798 508.11 365.523 507.959 365.203C507.815 364.88 507.689 364.51 507.611 364.109C507.537 363.707 507.517 363.317 507.532 362.964C507.554 362.612 507.605 362.296 507.679 362.04C507.75 361.782 507.824 361.581 507.892 361.447C507.956 361.313 507.997 361.242 508.006 361.246C508.032 361.258 507.894 361.555 507.781 362.064C507.723 362.317 507.684 362.627 507.67 362.97C507.665 363.314 507.687 363.691 507.758 364.082C507.835 364.472 507.955 364.83 508.087 365.148C508.226 365.462 508.376 365.734 508.525 365.948C508.814 366.381 509.051 366.607 509.031 366.627Z" fill="white"/>
<path d="M503.106 358.336C503.102 358.35 502.87 358.3 502.543 358.104C502.217 357.912 501.817 357.546 501.533 357.036C501.251 356.524 501.156 355.99 501.166 355.614C501.173 355.232 501.257 355.01 501.27 355.013C501.295 355.018 501.253 355.245 501.271 355.611C501.288 355.975 501.396 356.475 501.664 356.965C501.934 357.451 502.301 357.81 502.601 358.017C502.9 358.226 503.114 358.31 503.106 358.336Z" fill="white"/>
<path d="M515.696 375.38C515.696 375.394 515.418 375.398 515.01 375.235C514.608 375.077 514.077 374.713 513.744 374.12C513.413 373.525 513.383 372.884 513.46 372.457C513.535 372.023 513.685 371.79 513.696 371.797C513.72 371.807 513.609 372.052 513.564 372.471C513.515 372.885 513.564 373.488 513.874 374.047C514.187 374.605 514.675 374.962 515.052 375.138C515.434 375.319 515.7 375.353 515.696 375.38Z" fill="white"/>
<path d="M522.414 382.74C522.41 382.754 522.175 382.689 521.847 382.477C521.519 382.269 521.113 381.894 520.811 381.376C520.511 380.858 520.386 380.319 520.366 379.932C520.345 379.543 520.404 379.307 520.419 379.309C520.444 379.312 520.424 379.548 520.471 379.922C520.517 380.295 520.652 380.804 520.939 381.302C521.229 381.797 521.603 382.168 521.906 382.392C522.209 382.616 522.425 382.716 522.414 382.74Z" fill="white"/>
<path d="M518.172 337.516C518.165 337.523 518.05 337.417 517.848 337.215C517.746 337.115 517.623 336.99 517.491 336.836C517.359 336.684 517.199 336.515 517.046 336.31C516.723 335.915 516.375 335.414 516.023 334.837C515.68 334.255 515.342 333.591 515.05 332.868C514.764 332.141 514.555 331.426 514.405 330.767C514.262 330.106 514.173 329.504 514.136 328.995C514.107 328.742 514.106 328.51 514.097 328.308C514.087 328.106 514.09 327.931 514.096 327.789C514.105 327.505 514.114 327.347 514.124 327.347C514.134 327.347 514.144 327.505 514.154 327.788C514.157 327.93 514.163 328.103 514.181 328.304C514.197 328.504 514.205 328.733 514.241 328.985C514.292 329.489 514.392 330.085 514.54 330.737C514.698 331.387 514.908 332.094 515.191 332.813C515.48 333.53 515.811 334.187 516.144 334.767C516.485 335.343 516.823 335.844 517.131 336.245C517.278 336.451 517.43 336.623 517.556 336.781C517.682 336.939 517.797 337.07 517.892 337.173C518.078 337.388 518.179 337.509 518.172 337.516Z" fill="white"/>
<path d="M326.437 623.181H257.171C246.717 623.181 238.243 614.707 238.243 604.253V534.987C238.243 524.533 246.717 516.059 257.171 516.059H326.437C336.891 516.059 345.365 524.533 345.365 534.987V604.253C345.365 614.707 336.891 623.181 326.437 623.181Z" fill="#E0E0E0"/>
<path d="M307.202 623.181H237.937C227.483 623.181 219.009 614.707 219.009 604.253V534.987C219.009 524.533 227.483 516.059 237.937 516.059H307.202C317.656 516.059 326.131 524.533 326.131 534.987V604.253C326.131 614.707 317.655 623.181 307.202 623.181Z" fill="#EBEBEB"/>
<path d="M235.584 571.161L246.374 560.371L267.185 578.87L301.935 543.985L311.955 554.775L265.643 599.68L235.584 571.161Z" fill="white"/>
<path d="M79.1006 622.157H33.851C23.397 622.157 14.9229 613.682 14.9229 603.228V557.98C14.9229 547.526 23.397 539.052 33.851 539.052H79.0992C89.5532 539.052 98.0273 547.526 98.0273 557.98V603.228C98.0273 613.681 89.5532 622.157 79.1006 622.157Z" fill="#E0E0E0"/>
<path d="M64.1783 622.157H18.9301C8.47611 622.157 0.00195312 613.683 0.00195312 603.229V557.981C0.00195312 547.527 8.47611 539.052 18.9301 539.052H64.1783C74.6323 539.052 83.1064 547.527 83.1064 557.981V603.229C83.1064 613.681 74.6323 622.157 64.1783 622.157Z" fill="#EBEBEB"/>
<path d="M12.8613 581.8L21.2317 573.428L37.3764 587.779L64.3364 560.716L72.1093 569.087L36.1802 603.924L12.8613 581.8Z" fill="white"/>
<path d="M587.488 619.704C587.488 619.909 459.541 620.074 301.746 620.074C143.898 620.074 15.9775 619.908 15.9775 619.704C15.9775 619.499 143.898 619.334 301.746 619.334C459.541 619.334 587.488 619.501 587.488 619.704Z" fill="#263238"/>
<path d="M530.214 578.967C530.214 578.967 524.285 538.207 524.779 514.495C525.272 490.78 524.749 464.102 524.749 464.102H527.481C527.481 464.102 525.631 511.172 527.645 539.561C529.657 567.928 534.958 578.968 534.958 578.968H530.214" fill="#263238"/>
<path d="M547.87 418.241C547.321 416.849 546.645 415.398 545.381 414.597C543.647 413.499 541.376 413.956 539.441 414.64C531.188 417.558 523.87 432.949 520.533 441.044L531.492 477.968C551.272 459.618 554.697 435.545 547.87 418.241Z" fill="#455A64"/>
<path d="M544.743 416.092C544.757 416.098 544.702 416.264 544.584 416.574C544.443 416.928 544.265 417.374 544.047 417.92C543.567 419.082 542.893 420.772 542.087 422.869C540.473 427.062 538.418 432.924 536.58 439.529C534.75 446.137 533.49 452.22 532.712 456.647C532.32 458.86 532.027 460.655 531.84 461.898C531.744 462.478 531.668 462.952 531.606 463.327C531.548 463.653 531.51 463.824 531.494 463.822C531.478 463.821 531.487 463.646 531.515 463.316C531.555 462.937 531.605 462.46 531.665 461.874C531.798 460.622 532.045 458.817 532.396 456.594C533.094 452.148 534.309 446.036 536.144 439.41C537.987 432.787 540.096 426.924 541.789 422.754C542.634 420.668 543.353 418.994 543.885 417.853C544.136 417.32 544.339 416.886 544.5 416.54C544.646 416.239 544.729 416.085 544.743 416.092Z" fill="#263238"/>
<path d="M526.623 486.821C516.352 481.146 510.298 470.467 509.733 458.746C509.338 450.552 511.856 442.511 514.709 434.82C514.956 434.152 515.249 433.433 515.869 433.083C516.731 432.595 517.809 433.029 518.67 433.52C526.134 437.769 530.656 445.872 533.062 454.117C534.664 459.603 535.493 465.389 534.752 471.056C534.011 476.724 530.771 482.889 526.623 486.821Z" fill="#455A64"/>
<path d="M526.624 486.821C526.609 486.821 526.596 486.65 526.584 486.326C526.577 485.952 526.569 485.484 526.557 484.909C526.555 483.679 526.505 481.9 526.404 479.703C526.206 475.311 525.63 469.258 524.498 462.646C523.359 456.032 521.976 450.109 520.956 445.83C520.454 443.735 520.042 442.019 519.74 440.761C519.612 440.2 519.507 439.744 519.425 439.378C519.358 439.061 519.329 438.893 519.343 438.889C519.359 438.884 519.416 439.045 519.513 439.355C519.618 439.714 519.749 440.165 519.911 440.716C520.248 441.901 520.715 443.621 521.266 445.753C522.366 450.017 523.8 455.938 524.943 462.57C526.08 469.201 526.607 475.284 526.724 479.691C526.784 481.894 526.785 483.679 526.734 484.909C526.711 485.484 526.691 485.953 526.677 486.327C526.657 486.651 526.64 486.822 526.624 486.821Z" fill="#263238"/>
<g opacity="0.3">
<path d="M526.624 486.821C516.352 481.146 510.299 470.467 509.734 458.746C509.339 450.552 511.857 442.511 514.71 434.82C514.957 434.152 515.25 433.433 515.87 433.083C516.732 432.595 517.81 433.029 518.671 433.52C526.135 437.769 530.657 445.872 533.063 454.117C534.665 459.603 535.494 465.389 534.753 471.056C534.012 476.724 530.772 482.889 526.624 486.821Z" fill="black"/>
</g>
<path d="M538.214 549.185C548.324 551.405 556.647 558.537 566.4 562.004C572.853 564.299 580.149 565.109 585.302 569.622C584.066 566.502 581.135 564.422 578.288 562.644C570.267 557.635 561.679 553.535 552.74 550.448C548.152 548.864 543.173 547.54 538.498 548.845" fill="#455A64"/>
<path d="M523.594 558.191C510.934 557.986 497.603 547.208 485.001 546.565C498.189 542.307 517.071 545.784 523.594 558.191Z" fill="#455A64"/>
<path d="M528.544 527.821C534.973 525.504 542.032 525.393 548.785 526.444C555.538 527.493 562.059 529.658 568.544 531.814C567.894 527.422 564.337 524.118 560.994 521.195C558.479 518.995 555.945 516.782 553.06 515.097C550.175 513.412 546.883 512.27 543.545 512.413C539.517 512.583 535.684 514.661 533.043 517.706C530.402 520.749 528.981 523.814 528.544 527.821Z" fill="#455A64"/>
<path d="M502.559 513.842C494.59 507.038 482.519 507.703 472.042 507.939C488.147 515.64 505.501 526.196 519.371 537.433C519.795 530.027 512.626 522.437 502.559 513.842Z" fill="#455A64"/>
<g opacity="0.3">
<path d="M502.558 513.842C494.589 507.038 482.518 507.703 472.041 507.94C488.146 515.64 505.5 526.196 519.37 537.433C519.794 530.027 512.625 522.437 502.558 513.842Z" fill="black"/>
</g>
<path d="M532.127 504.449C536.133 501.778 540.188 499.23 544.383 497.325C548.577 495.419 552.491 492.382 556.542 490.189C561.796 487.344 566.346 483.39 571.169 479.864C575.991 476.338 581.288 473.154 587.189 472.221C582.377 471.228 577.349 471.77 572.61 473.064C567.871 474.358 563.368 476.384 558.889 478.402C552.672 481.203 546.347 484.073 541.265 488.619C536.183 493.164 531.591 497.652 532.127 504.449Z" fill="#455A64"/>
<path d="M566.169 558.191C566.162 558.204 566.024 558.144 565.768 558.017C565.469 557.862 565.105 557.673 564.662 557.446C563.71 556.938 562.34 556.187 560.616 555.319C559.763 554.868 558.818 554.399 557.791 553.917C556.776 553.412 555.672 552.915 554.504 552.409C552.166 551.411 549.556 550.368 546.709 549.692C543.87 548.996 541.042 548.843 538.587 549.489C537.35 549.788 536.183 550.084 535.147 550.516C534.105 550.938 533.177 551.431 532.369 551.943C530.746 552.964 529.614 554.046 528.878 554.826C528.145 555.611 527.788 556.091 527.756 556.067C527.743 556.057 527.822 555.931 527.984 555.695C528.142 555.457 528.398 555.123 528.749 554.708C529.452 553.884 530.567 552.748 532.197 551.672C533.009 551.135 533.948 550.614 535.006 550.169C536.061 549.711 537.253 549.394 538.493 549.082C541.001 548.397 543.941 548.543 546.814 549.252C549.705 549.939 552.33 551.001 554.672 552.027C555.843 552.546 556.945 553.058 557.958 553.578C558.98 554.076 559.92 554.564 560.767 555.033C562.476 555.938 563.823 556.733 564.751 557.289C565.176 557.548 565.527 557.761 565.815 557.935C566.054 558.091 566.176 558.177 566.169 558.191Z" fill="#263238"/>
<path d="M514.152 551.917C514.163 551.887 514.444 551.971 514.946 552.149C515.449 552.32 516.157 552.623 517.008 553.045C518.712 553.886 520.952 555.319 523.057 557.335C525.156 559.357 526.677 561.539 527.586 563.207C528.042 564.041 528.374 564.736 528.564 565.233C528.762 565.726 528.856 566.004 528.827 566.016C528.755 566.048 528.281 564.977 527.308 563.368C526.34 561.761 524.805 559.649 522.743 557.66C520.675 555.679 518.503 554.231 516.857 553.328C515.213 552.421 514.122 551.991 514.152 551.917Z" fill="#263238"/>
<path d="M486.14 513.206C486.145 513.192 486.33 513.247 486.679 513.365C487.071 513.505 487.575 513.684 488.198 513.906C488.872 514.155 489.674 514.451 490.594 514.789C491.527 515.136 492.542 515.648 493.689 516.153C498.248 518.223 504.313 521.704 510.171 526.654C513.06 529.169 515.673 531.725 517.857 534.224C520.033 536.727 521.877 539.081 523.312 541.135C524.757 543.183 525.854 544.888 526.605 546.067C526.96 546.625 527.247 547.074 527.471 547.425C527.667 547.737 527.764 547.905 527.751 547.915C527.738 547.925 527.616 547.774 527.395 547.478C527.174 547.184 526.853 546.743 526.458 546.165C525.662 545.015 524.527 543.339 523.053 541.321C521.588 539.297 519.728 536.974 517.546 534.498C515.355 532.028 512.75 529.496 509.878 526.997C504.055 522.078 498.057 518.575 493.553 516.44C492.419 515.918 491.418 515.388 490.498 515.019C489.59 514.654 488.801 514.335 488.137 514.067C487.526 513.812 487.033 513.607 486.649 513.448C486.31 513.304 486.135 513.22 486.14 513.206Z" fill="#263238"/>
<path d="M547.539 520.703C547.53 520.733 547.17 520.685 546.529 520.574C546.18 520.51 545.795 520.439 545.365 520.359C544.913 520.272 544.385 520.269 543.811 520.21C541.534 520.045 538.217 520.232 535.11 521.926C533.543 522.72 532.227 523.791 531.151 524.865C530.058 525.93 529.229 527.041 528.605 528.012C527.335 529.957 526.942 531.361 526.864 531.334C526.84 531.328 526.911 530.969 527.121 530.346C527.355 529.733 527.713 528.844 528.333 527.843C528.933 526.833 529.753 525.68 530.853 524.572C531.939 523.457 533.283 522.345 534.899 521.527C538.104 519.78 541.535 519.639 543.838 519.891C544.42 519.972 544.954 519.998 545.408 520.11C545.836 520.218 546.22 520.315 546.567 520.402C547.203 520.568 547.547 520.673 547.539 520.703Z" fill="#263238"/>
<path d="M560.262 481.23C560.269 481.244 560.104 481.345 559.782 481.525C559.418 481.723 558.949 481.978 558.37 482.292C557.141 482.953 555.375 483.93 553.227 485.195C551.089 486.478 548.572 488.052 545.892 489.967C543.221 491.885 540.352 494.117 537.704 496.828C536.398 498.192 535.193 499.616 534.354 501.165C533.525 502.758 532.733 504.297 532.003 505.774C530.539 508.727 529.346 511.445 528.486 513.782C527.627 516.119 527.092 518.065 526.775 519.42C526.45 520.775 526.334 521.539 526.29 521.532C526.274 521.529 526.292 521.337 526.341 520.972C526.386 520.606 526.463 520.069 526.604 519.383C526.87 518.009 527.362 516.039 528.187 513.674C529.015 511.31 530.182 508.564 531.632 505.591C532.353 504.103 533.139 502.557 533.963 500.961C534.835 499.341 536.057 497.898 537.381 496.515C540.062 493.771 542.955 491.54 545.653 489.63C548.358 487.724 550.903 486.172 553.068 484.922C555.242 483.687 557.036 482.753 558.29 482.138C558.886 481.854 559.368 481.625 559.742 481.446C560.077 481.289 560.256 481.215 560.262 481.23Z" fill="#263238"/>
<path d="M524.763 519.562C524.732 519.567 524.645 519.187 524.512 518.496C524.364 517.715 524.179 516.735 523.958 515.571C523.476 513.107 522.739 509.713 521.565 506.07C520.401 502.424 518.985 499.25 517.949 496.962C517.458 495.882 517.044 494.975 516.715 494.251C516.427 493.608 516.281 493.247 516.309 493.233C516.338 493.218 516.537 493.554 516.872 494.173C517.208 494.791 517.68 495.695 518.238 496.824C519.349 499.081 520.822 502.254 521.996 505.93C523.179 509.599 523.87 513.026 524.274 515.512C524.472 516.756 524.615 517.766 524.688 518.467C524.765 519.17 524.793 519.558 524.763 519.562Z" fill="#263238"/>
<path d="M523.847 490.759C523.53 485.976 521.971 481.328 519.729 477.091C513.585 465.472 502.036 456.86 489.146 454.286C498.584 468.352 508.022 482.419 517.459 496.486L521.116 504.018C523.611 499.923 524.164 495.543 523.847 490.759Z" fill="#455A64"/>
<path d="M564.46 573.925H498.624V585.594H564.46V573.925Z" fill="#03736D"/>
<path d="M503.539 583.278L509.144 619.486H552.852L559.541 583.278H503.539Z" fill="#03736D"/>
<path d="M564.422 585.608C564.422 585.736 549.572 585.839 531.258 585.839C512.937 585.839 498.09 585.736 498.09 585.608C498.09 585.48 512.937 585.376 531.258 585.376C549.572 585.377 564.422 585.48 564.422 585.608Z" fill="#263238"/>
<path d="M155.438 619.704H97.0268C86.5728 619.704 78.0986 611.23 78.0986 600.776V542.365C78.0986 531.911 86.5728 523.437 97.0268 523.437H155.438C165.892 523.437 174.367 531.911 174.367 542.365V600.776C174.367 611.23 165.892 619.704 155.438 619.704Z" fill="#03736D"/>
<g opacity="0.3">
<path d="M155.438 619.704H97.0268C86.5728 619.704 78.0986 611.23 78.0986 600.776V542.365C78.0986 531.911 86.5728 523.437 97.0268 523.437H155.438C165.892 523.437 174.367 531.911 174.367 542.365V600.776C174.367 611.23 165.892 619.704 155.438 619.704Z" fill="black"/>
</g>
<path d="M138.154 619.705H79.7426C69.2886 619.705 60.8145 611.23 60.8145 600.776V542.365C60.8145 531.911 69.2886 523.437 79.7426 523.437H138.154C148.608 523.437 157.082 531.911 157.082 542.365V600.776C157.081 611.23 148.607 619.705 138.154 619.705Z" fill="#03736D"/>
<path d="M75.7139 572.957L85.4112 563.26L104.113 579.884L135.343 548.533L144.348 558.231L102.728 598.585L75.7139 572.957Z" fill="white"/>
<path d="M205.998 619.705H167.82C161.359 619.705 156.12 614.466 156.12 608.005V569.827C156.12 563.365 161.359 558.127 167.82 558.127H205.998C212.459 558.127 217.698 563.365 217.698 569.827V608.005C217.699 614.466 212.461 619.705 205.998 619.705Z" fill="#263238"/>
<path d="M194.942 619.705H156.764C150.303 619.705 145.064 614.466 145.064 608.005V569.827C145.064 563.366 150.303 558.127 156.764 558.127H194.942C201.404 558.127 206.642 563.366 206.642 569.827V608.005C206.642 614.466 201.404 619.705 194.942 619.705Z" fill="#455A64"/>
<path d="M154.59 589.802L160.793 583.599L172.756 594.232L192.732 574.179L198.492 580.382L171.87 606.195L154.59 589.802Z" fill="white"/>
<path d="M358.186 435.283H61.0249C55.3712 435.283 50.7871 430.699 50.7871 425.045V10.6076C50.7871 4.95386 55.3712 0.369751 61.0249 0.369751H358.186C363.84 0.369751 368.424 4.95386 368.424 10.6076V425.045C368.424 430.701 363.84 435.283 358.186 435.283Z" fill="white"/>
<path d="M358.187 435.283C358.167 435.2 359.543 435.446 361.922 434.53C363.09 434.063 364.497 433.259 365.741 431.853C367.006 430.486 368.054 428.456 368.301 426.003C368.374 416.111 368.282 401.486 368.28 382.672C368.252 345.028 368.212 290.569 368.162 223.276C368.148 189.627 368.134 152.771 368.117 113.205C368.111 93.4219 368.105 72.9605 368.098 51.8847C368.095 41.3467 368.092 30.6552 368.09 19.8172C368.09 17.1077 368.088 14.3896 368.088 11.6616C368.259 8.96209 367.518 6.27818 365.761 4.23858C364.054 2.20041 361.494 0.894728 358.823 0.739696C356.105 0.675691 353.3 0.722629 350.53 0.708406C261.554 0.71694 163.734 0.726896 61.0585 0.736853C57.9579 0.725474 54.8956 2.24308 53.0864 4.75915C52.1605 5.99372 51.5404 7.45017 51.3014 8.97205C51.0639 10.4712 51.1862 12.1026 51.1549 13.6913C51.1549 20.0718 51.1549 26.4324 51.1549 32.7716C51.1549 45.4501 51.1535 58.0461 51.1535 70.5497C51.1521 95.5568 51.1492 120.197 51.1478 144.409C51.1407 192.832 51.1336 239.539 51.1265 284.035C51.1151 328.529 51.1023 370.81 51.0924 410.379C51.0909 415.324 51.0909 420.228 51.0895 425.088C51.0995 427.452 51.9827 429.776 53.516 431.543C55.0336 433.326 57.2055 434.511 59.4954 434.854C60.629 435.039 61.8223 434.972 63.0142 434.985C64.2018 434.985 65.3866 434.986 66.5686 434.986C68.9325 434.988 71.285 434.988 73.6275 434.989C78.3112 434.99 82.9494 434.993 87.5406 434.995C105.907 435.003 123.534 435.012 140.358 435.019C207.651 435.069 262.106 435.108 299.744 435.137C318.556 435.167 333.165 435.191 343.078 435.207C348.026 435.222 351.801 435.235 354.347 435.244C356.886 435.259 358.187 435.283 358.187 435.283C358.187 435.283 356.887 435.309 354.349 435.322C351.803 435.33 348.028 435.342 343.08 435.359C333.166 435.374 318.557 435.399 299.746 435.429C262.106 435.457 207.651 435.497 140.36 435.547C123.535 435.554 105.908 435.562 87.542 435.571C82.9508 435.572 78.3126 435.575 73.6289 435.576C71.2878 435.578 68.9339 435.578 66.57 435.579C65.3881 435.579 64.2033 435.581 63.0156 435.581C61.8365 435.568 60.6332 435.64 59.4058 435.446C56.9779 435.083 54.6752 433.828 53.0651 431.94C51.438 430.069 50.4993 427.6 50.4865 425.095C50.4836 420.234 50.4822 415.33 50.4793 410.383C50.4694 370.813 50.458 328.533 50.4452 284.039C50.4381 239.545 50.431 192.837 50.4239 144.413C50.4224 120.201 50.4196 95.5611 50.4182 70.5539C50.4182 58.0504 50.4168 45.4558 50.4168 32.7759C50.4168 26.4366 50.4168 20.076 50.4168 13.6955C50.4523 12.1011 50.3172 10.5181 50.5732 8.854C50.8307 7.21834 51.4991 5.64952 52.4933 4.3225C54.4348 1.62153 57.7346 -0.0141311 61.0614 9.20067e-05C163.737 0.0100482 261.557 0.020005 350.533 0.0285389C353.322 0.0441844 356.064 -0.00417211 358.869 0.0640989C361.723 0.23051 364.46 1.62864 366.28 3.80478C368.154 5.95105 368.946 8.92653 368.761 11.6616C368.761 14.3896 368.759 17.1077 368.759 19.8172C368.757 30.6552 368.754 41.3467 368.751 51.8847C368.744 72.9605 368.738 93.4205 368.732 113.205C368.715 152.771 368.701 189.627 368.687 223.276C368.637 290.569 368.597 345.028 368.569 382.672C368.525 401.494 368.573 416.098 368.451 426.017C368.188 428.506 367.114 430.556 365.825 431.93C364.557 433.343 363.13 434.141 361.949 434.601C360.762 435.077 359.79 435.178 359.155 435.254C358.512 435.281 358.187 435.283 358.187 435.283Z" fill="#263238"/>
<path d="M178.072 65.336C176.696 65.336 175.368 65.168 174.088 64.832C172.824 64.48 171.792 64.032 170.992 63.488L172.552 59.984C173.304 60.464 174.168 60.864 175.144 61.184C176.136 61.488 177.12 61.64 178.096 61.64C178.752 61.64 179.28 61.584 179.68 61.472C180.08 61.344 180.368 61.184 180.544 60.992C180.736 60.784 180.832 60.544 180.832 60.272C180.832 59.888 180.656 59.584 180.304 59.36C179.952 59.136 179.496 58.952 178.936 58.808C178.376 58.664 177.752 58.52 177.064 58.376C176.392 58.232 175.712 58.048 175.024 57.824C174.352 57.6 173.736 57.312 173.176 56.96C172.616 56.592 172.16 56.12 171.808 55.544C171.456 54.952 171.28 54.208 171.28 53.312C171.28 52.304 171.552 51.392 172.096 50.576C172.656 49.76 173.488 49.104 174.592 48.608C175.696 48.112 177.072 47.864 178.72 47.864C179.824 47.864 180.904 47.992 181.96 48.248C183.032 48.488 183.984 48.848 184.816 49.328L183.352 52.856C182.552 52.424 181.76 52.104 180.976 51.896C180.192 51.672 179.432 51.56 178.696 51.56C178.04 51.56 177.512 51.632 177.112 51.776C176.712 51.904 176.424 52.08 176.248 52.304C176.072 52.528 175.984 52.784 175.984 53.072C175.984 53.44 176.152 53.736 176.488 53.96C176.84 54.168 177.296 54.344 177.856 54.488C178.432 54.616 179.056 54.752 179.728 54.896C180.416 55.04 181.096 55.224 181.768 55.448C182.456 55.656 183.08 55.944 183.64 56.312C184.2 56.664 184.648 57.136 184.984 57.728C185.336 58.304 185.512 59.032 185.512 59.912C185.512 60.888 185.232 61.792 184.672 62.624C184.128 63.44 183.304 64.096 182.2 64.592C181.112 65.088 179.736 65.336 178.072 65.336ZM193.299 65.216C191.635 65.216 190.339 64.808 189.411 63.992C188.483 63.16 188.019 61.912 188.019 60.248V49.088H192.579V60.2C192.579 60.664 192.707 61.032 192.963 61.304C193.219 61.56 193.547 61.688 193.947 61.688C194.491 61.688 194.955 61.552 195.339 61.28L196.467 64.472C196.083 64.728 195.611 64.912 195.051 65.024C194.491 65.152 193.907 65.216 193.299 65.216ZM186.123 55.88V52.472H195.555V55.88H186.123ZM203.698 65.216C202.642 65.216 201.69 65.008 200.842 64.592C200.01 64.176 199.354 63.528 198.874 62.648C198.41 61.752 198.178 60.624 198.178 59.264V51.992H202.738V58.52C202.738 59.528 202.922 60.248 203.29 60.68C203.674 61.112 204.21 61.328 204.898 61.328C205.346 61.328 205.754 61.224 206.122 61.016C206.49 60.808 206.786 60.48 207.01 60.032C207.234 59.568 207.346 58.976 207.346 58.256V51.992H211.906V65H207.562V61.328L208.402 62.36C207.954 63.32 207.306 64.04 206.458 64.52C205.61 64.984 204.69 65.216 203.698 65.216ZM215.371 65V52.136C215.371 50.568 215.835 49.32 216.763 48.392C217.707 47.448 219.051 46.976 220.795 46.976C221.355 46.976 221.907 47.032 222.451 47.144C222.995 47.256 223.451 47.424 223.819 47.648L222.691 50.864C222.499 50.752 222.283 50.664 222.043 50.6C221.803 50.52 221.563 50.48 221.323 50.48C220.843 50.48 220.467 50.624 220.195 50.912C219.939 51.184 219.811 51.608 219.811 52.184V53.12L219.931 55.016V65H215.371ZM213.475 55.88V52.472H222.907V55.88H213.475ZM225.121 65V52.136C225.121 50.568 225.585 49.32 226.513 48.392C227.457 47.448 228.801 46.976 230.545 46.976C231.105 46.976 231.657 47.032 232.201 47.144C232.745 47.256 233.201 47.424 233.569 47.648L232.441 50.864C232.249 50.752 232.033 50.664 231.793 50.6C231.553 50.52 231.313 50.48 231.073 50.48C230.593 50.48 230.217 50.624 229.945 50.912C229.689 51.184 229.561 51.608 229.561 52.184V53.12L229.681 55.016V65H225.121ZM223.225 55.88V52.472H232.657V55.88H223.225ZM234.745 65V51.992H239.305V65H234.745ZM237.025 50.552C236.193 50.552 235.521 50.32 235.009 49.856C234.497 49.392 234.241 48.816 234.241 48.128C234.241 47.44 234.497 46.864 235.009 46.4C235.521 45.936 236.193 45.704 237.025 45.704C237.857 45.704 238.529 45.928 239.041 46.376C239.553 46.808 239.809 47.368 239.809 48.056C239.809 48.776 239.553 49.376 239.041 49.856C238.545 50.32 237.873 50.552 237.025 50.552ZM250.737 51.776C251.745 51.776 252.657 51.984 253.473 52.4C254.289 52.8 254.929 53.424 255.393 54.272C255.873 55.12 256.113 56.216 256.113 57.56V65H251.553V58.304C251.553 57.376 251.361 56.704 250.977 56.288C250.609 55.856 250.089 55.64 249.417 55.64C248.937 55.64 248.497 55.752 248.097 55.976C247.697 56.184 247.385 56.512 247.161 56.96C246.937 57.408 246.825 57.992 246.825 58.712V65H242.265V51.992H246.609V55.688L245.769 54.608C246.265 53.664 246.945 52.96 247.809 52.496C248.673 52.016 249.649 51.776 250.737 51.776Z" fill="#263238"/>
<path d="M310.33 148.508H169.528C164.575 148.508 160.562 144.494 160.562 139.542V138.687C160.562 133.735 164.575 129.721 169.528 129.721H310.33C315.282 129.721 319.296 133.735 319.296 138.687V139.542C319.296 144.494 315.281 148.508 310.33 148.508Z" fill="#E0E0E0"/>
<path d="M136.14 162.049H107.227C103.19 162.049 99.9189 158.776 99.9189 154.741V125.828C99.9189 121.791 103.19 118.52 107.227 118.52H136.14C140.176 118.52 143.447 121.791 143.447 125.828V154.741C143.447 158.776 140.175 162.049 136.14 162.049Z" fill="#03736D"/>
<path d="M106.649 140.91L111.034 136.527L119.49 144.042L133.611 129.867L137.683 134.252L118.864 152.499L106.649 140.91Z" fill="white"/>
<path d="M310.33 216.032H169.528C164.575 216.032 160.562 212.018 160.562 207.066V206.211C160.562 201.259 164.575 197.245 169.528 197.245H310.33C315.282 197.245 319.296 201.259 319.296 206.211V207.066C319.296 212.017 315.281 216.032 310.33 216.032Z" fill="#E0E0E0"/>
<path d="M136.14 229.571H107.227C103.19 229.571 99.9189 226.3 99.9189 222.263V193.352C99.9189 189.316 103.19 186.044 107.227 186.044H136.14C140.176 186.044 143.447 189.317 143.447 193.352V222.263C143.447 226.3 140.175 229.571 136.14 229.571Z" fill="#03736D"/>
<path d="M106.649 208.434L111.034 204.049L119.49 211.566L133.611 197.391L137.683 201.775L118.864 220.022L106.649 208.434Z" fill="white"/>
<path d="M310.33 283.555H169.528C164.575 283.555 160.562 279.542 160.562 274.589V273.734C160.562 268.782 164.575 264.768 169.528 264.768H310.33C315.282 264.768 319.296 268.782 319.296 273.734V274.589C319.296 279.542 315.281 283.555 310.33 283.555Z" fill="#E0E0E0"/>
<path d="M136.14 297.096H107.227C103.19 297.096 99.9189 293.823 99.9189 289.788V260.875C99.9189 256.839 103.19 253.567 107.227 253.567H136.14C140.176 253.567 143.447 256.839 143.447 260.875V289.786C143.447 293.824 140.175 297.096 136.14 297.096Z" fill="#03736D"/>
<path d="M106.649 275.957L111.034 271.574L119.49 279.089L133.611 264.915L137.683 269.3L118.864 287.546L106.649 275.957Z" fill="white"/>
<path d="M310.33 351.08H169.528C164.575 351.08 160.562 347.066 160.562 342.114V341.259C160.562 336.308 164.575 332.292 169.528 332.292H310.33C315.282 332.292 319.296 336.306 319.296 341.259V342.114C319.296 347.066 315.281 351.08 310.33 351.08Z" fill="#E0E0E0"/>
<path d="M136.14 364.62H107.227C103.19 364.62 99.9189 361.347 99.9189 357.312V328.4C99.9189 324.363 103.19 321.092 107.227 321.092H136.14C140.176 321.092 143.447 324.363 143.447 328.4V357.312C143.447 361.347 140.175 364.62 136.14 364.62Z" fill="#03736D"/>
<path d="M106.649 343.482L111.034 339.097L119.49 346.614L133.611 332.439L137.683 336.823L118.864 355.071L106.649 343.482Z" fill="white"/>
<path d="M424.355 569.465L423.135 601.577C423.135 601.577 455.364 613.602 455.716 619.557L393.369 619.427L393.218 569.316L424.355 569.465Z" fill="#263238"/>
<path d="M403.842 598.836C402.635 599.163 401.798 600.519 402.076 601.738C402.353 602.958 403.724 603.82 404.937 603.514C406.151 603.209 407.205 601.613 406.792 600.432C406.38 599.252 404.716 598.327 403.612 598.915" fill="#E0E0E0"/>
<path d="M393.353 619.429L393.535 614.377L453.243 616.391C453.243 616.391 456.017 617.604 455.698 619.558L393.353 619.429Z" fill="#455A64"/>
<path d="M424.138 601.262C424.127 601.567 422.605 601.702 421.104 602.677C419.578 603.615 418.803 604.932 418.524 604.809C418.244 604.75 418.702 602.931 420.538 601.781C422.364 600.616 424.205 600.983 424.138 601.262Z" fill="white"/>
<path d="M430.673 603.98C430.742 604.276 429.423 604.791 428.386 606.075C427.313 607.33 427.048 608.722 426.745 608.708C426.459 608.756 426.252 606.973 427.571 605.398C428.876 603.815 430.668 603.69 430.673 603.98Z" fill="white"/>
<path d="M434.368 611.816C434.091 611.88 433.671 610.358 434.457 608.693C435.23 607.02 436.667 606.366 436.795 606.62C436.967 606.871 436.04 607.764 435.417 609.141C434.761 610.503 434.671 611.786 434.368 611.816Z" fill="white"/>
<path d="M423.595 593.912C423.467 594.189 422.07 593.765 420.351 593.879C418.627 593.957 417.287 594.532 417.129 594.27C416.953 594.05 418.263 592.926 420.292 592.821C422.318 592.701 423.744 593.673 423.595 593.912Z" fill="white"/>
<path d="M348.022 565.1L344.646 603.831L350.809 635.234C351.253 637.497 349.689 639.665 347.4 639.954C346.119 640.116 344.847 639.656 343.974 638.703C338.417 632.646 318.088 610.257 318.494 607.437C318.965 604.17 319.343 566.346 319.343 566.346L348.022 565.1Z" fill="#263238"/>
<path d="M347.405 639.954L318.668 604.82L318.562 606.465C318.471 607.885 318.881 609.293 319.733 610.436C322.011 613.489 328.484 621.781 343.864 638.7C344.756 639.683 346.09 640.156 347.405 639.954Z" fill="#455A64"/>
<g opacity="0.6">
<path d="M327.436 592.814C328.365 593.548 328.588 595.039 327.893 595.997C327.196 596.956 325.682 597.195 324.741 596.476C323.799 595.76 323.476 593.978 324.274 593.103C325.074 592.228 326.866 592.043 327.608 592.966" fill="white"/>
</g>
<path d="M339.626 622.432C339.838 622.554 340.844 620.577 343.222 619.633C345.57 618.618 347.679 619.302 347.743 619.066C347.783 618.973 347.311 618.639 346.412 618.453C345.522 618.262 344.2 618.305 342.895 618.844C341.592 619.387 340.629 620.292 340.133 621.057C339.629 621.826 339.531 622.395 339.626 622.432Z" fill="white"/>
<path d="M342.059 627.806C342.233 627.987 343.56 626.805 345.602 626.358C347.636 625.866 349.344 626.35 349.423 626.112C349.548 625.922 347.733 624.979 345.41 625.525C343.085 626.048 341.864 627.688 342.059 627.806Z" fill="white"/>
<path d="M334.905 615.444C335.076 615.639 337.106 613.813 340.223 612.84C343.325 611.819 346.04 612.126 346.065 611.867C346.141 611.664 343.293 610.94 339.963 612.027C336.623 613.079 334.726 615.322 334.905 615.444Z" fill="white"/>
<path d="M334.95 603.584C335.038 603.823 337.239 603.065 340.035 603.143C342.833 603.183 344.999 604.033 345.097 603.797C345.215 603.614 343.059 602.338 340.052 602.288C337.048 602.213 334.839 603.396 334.95 603.584Z" fill="white"/>
<path d="M335.652 592.19C335.757 592.421 337.996 591.266 340.933 591.589C343.877 591.848 345.846 593.418 345.995 593.211C346.065 593.134 345.672 592.621 344.81 592.046C343.957 591.471 342.602 590.9 341.019 590.739C339.434 590.585 337.993 590.881 337.043 591.278C336.086 591.673 335.601 592.1 335.652 592.19Z" fill="white"/>
<path d="M341.006 589.418C341.055 589.423 341.176 588.906 341.152 587.955C341.127 587.009 340.943 585.609 340.232 584.036C339.859 583.288 339.482 582.334 338.431 581.753C337.909 581.46 337.1 581.51 336.608 581.994C336.119 582.465 335.934 583.092 335.881 583.706C335.763 586.171 337.724 588.689 340.472 589.221C343.234 589.704 345.856 588.278 347.093 586.222C347.369 585.688 347.58 585.023 347.321 584.348C347.068 583.668 346.295 583.354 345.733 583.413C344.57 583.511 343.8 584.129 343.092 584.578C341.686 585.567 340.787 586.645 340.252 587.423C339.714 588.206 339.526 588.701 339.569 588.724C339.699 588.835 340.671 586.881 343.428 585.08C344.119 584.669 344.921 584.144 345.755 584.122C346.162 584.107 346.5 584.291 346.622 584.625C346.75 584.948 346.638 585.43 346.4 585.848C345.358 587.528 342.958 588.827 340.63 588.381C338.31 587.958 336.591 585.742 336.666 583.756C336.692 583.278 336.85 582.806 337.123 582.54C337.392 582.277 337.778 582.226 338.127 582.393C338.862 582.746 339.316 583.592 339.687 584.298C341.141 587.249 340.831 589.445 341.006 589.418Z" fill="white"/>
<path d="M454.384 298.772C454.384 298.772 459.112 317.074 457.396 339.372C456.733 347.999 427.616 586.693 427.616 586.693H388.304L399.354 362.355L396.136 363.053C396.136 363.053 374.676 458.734 372.925 474.225C371.35 488.148 353.253 589.309 353.253 589.309L317.31 589.722L328.789 455.916L342.147 327.527L347.174 290.154L454.384 298.772Z" fill="#263238"/>
<path d="M397.92 347.134C397.903 347.154 397.988 347.245 398.175 347.403C398.367 347.546 398.68 347.74 399.133 347.855C400.022 348.11 401.504 347.98 402.861 346.972C404.274 345.98 405.12 344.005 405.406 341.891C405.687 339.755 405.73 337.458 405.889 335.027C406.154 330.171 406.35 325.775 406.454 322.589C406.558 319.404 406.569 317.432 406.464 317.426C406.359 317.42 406.155 319.383 405.914 322.559C405.672 325.737 405.389 330.13 405.126 334.984C404.968 337.404 404.941 339.746 404.707 341.793C404.467 343.826 403.737 345.618 402.53 346.542C401.344 347.504 400.018 347.709 399.194 347.562C398.345 347.431 397.963 347.064 397.92 347.134Z" fill="#455A64"/>
<path d="M340.088 324.054C340.077 324.101 340.464 324.256 341.189 324.451C341.914 324.647 342.987 324.857 344.331 324.978C347.003 325.233 350.838 324.981 354.692 323.431C358.55 321.883 361.493 319.411 363.248 317.379C364.134 316.362 364.762 315.469 365.151 314.824C365.54 314.182 365.713 313.802 365.671 313.776C365.56 313.704 364.686 315.113 362.849 317.011C361.033 318.905 358.134 321.223 354.407 322.72C350.682 324.216 346.986 324.549 344.362 324.436C341.727 324.338 340.118 323.924 340.088 324.054Z" fill="#455A64"/>
<path d="M438.713 314.069C438.633 314.078 438.699 315.615 439.309 318.015C439.912 320.41 441.168 323.644 443.263 326.807C445.368 329.965 447.864 332.376 449.84 333.859C451.817 335.353 453.208 336.008 453.246 335.937C453.424 335.735 447.996 332.64 443.901 326.384C439.72 320.187 438.967 313.984 438.713 314.069Z" fill="#455A64"/>
<path d="M558.795 246.532L567.816 249.385L584.206 240.327L593.506 266.221L571.203 271.529L554.309 269.67L558.795 246.532Z" fill="#AE7461"/>
<path d="M453.871 142.565C453.871 142.565 463.088 148.098 470.721 166.898C485.717 203.83 495.135 223.765 495.135 223.765L563.977 245.509L558.478 273.105C558.478 273.105 488.696 263.384 479.35 259.879C466.567 255.086 457.086 229.871 457.086 229.871L453.871 142.565Z" fill="#E0E0E0"/>
<path d="M434.949 59.7113C438.5 59.9346 441.992 57.1568 442.572 53.6451C443.152 50.1334 440.739 46.3814 437.304 45.4512C439.386 43.0887 439.749 39.3694 438.163 36.6485C436.577 33.9276 433.161 32.4114 430.08 33.0614C429.793 29.965 427.789 27.0848 424.984 25.7393C422.18 24.3952 418.679 24.637 416.084 26.3524C412.506 23.586 406.97 23.7552 403.568 26.7364C400.524 26.3324 397.317 28.1046 396.04 30.8966C394.762 33.6886 395.519 37.2743 397.815 39.3125" fill="#263238"/>
<path d="M402.368 33.9747L403.963 33.8951C420.004 33.0972 433.968 44.7502 436.052 60.6758C437.99 75.4878 439.94 91.8757 440.239 99.8591C440.856 116.388 424.461 119.779 424.461 119.779L426.845 139.556L386.692 140.305L379.569 68.5028C377.236 51.4251 385.232 35.8323 402.368 33.9747Z" fill="#AE7461"/>
<path d="M424.591 119.748C424.591 119.748 414.073 120.907 402.631 114.488C402.631 114.488 408.313 126.124 424.722 123.817L424.591 119.748Z" fill="#6F4439"/>
<path d="M430.107 75.9155C430.213 77.1586 429.248 78.2737 427.951 78.4088C426.656 78.5425 425.52 77.6464 425.413 76.4033C425.308 75.1602 426.272 74.0437 427.567 73.9086C428.864 73.7735 430.002 74.6724 430.107 75.9155Z" fill="#263238"/>
<path d="M432.896 68.9361C432.619 69.259 430.767 68.0244 428.228 68.1567C425.691 68.2534 423.893 69.6515 423.603 69.3543C423.46 69.2234 423.731 68.6531 424.512 68.0216C425.281 67.3943 426.615 66.7543 428.197 66.6818C429.778 66.6121 431.137 67.1283 431.932 67.6859C432.741 68.2477 433.033 68.791 432.896 68.9361Z" fill="#263238"/>
<path d="M406.961 76.557C407.068 77.8001 406.101 78.9152 404.805 79.0489C403.511 79.184 402.374 78.2866 402.268 77.0435C402.162 75.8004 403.128 74.6838 404.422 74.5487C405.718 74.4136 406.855 75.3125 406.961 76.557Z" fill="#263238"/>
<path d="M407.981 70.6464C407.704 70.9693 405.849 69.7347 403.312 69.8684C400.776 69.9651 398.977 71.3633 398.685 71.066C398.543 70.9351 398.81 70.3648 399.595 69.7347C400.365 69.1075 401.697 68.4674 403.279 68.3949C404.861 68.3252 406.22 68.8415 407.014 69.399C407.823 69.958 408.116 70.5013 407.981 70.6464Z" fill="#263238"/>
<path d="M418.114 89.0162C418.094 88.8725 419.658 88.5212 422.2 88.0675C422.844 87.9693 423.452 87.8086 423.54 87.3606C423.669 86.8855 423.364 86.2 423.012 85.4604C422.325 83.9228 421.606 82.3099 420.85 80.6202C417.839 73.7249 415.625 68.0427 415.904 67.9233C416.182 67.8052 418.849 73.2968 421.86 80.1936C422.587 81.8946 423.283 83.5161 423.944 85.0678C424.226 85.7918 424.689 86.6068 424.406 87.5953C424.255 88.0888 423.797 88.4643 423.388 88.5966C422.978 88.7445 422.614 88.7687 422.294 88.8042C419.725 89.0688 418.131 89.1584 418.114 89.0162Z" fill="#263238"/>
<path d="M409.684 60.7708C409.381 61.4308 407.171 60.8419 404.488 60.8874C401.804 60.8732 399.573 61.4905 399.294 60.8334C399.173 60.5205 399.62 59.9189 400.56 59.3556C401.491 58.7924 402.928 58.3216 404.536 58.3116C406.145 58.3031 407.565 58.7568 408.475 59.3087C409.394 59.8605 409.818 60.4565 409.684 60.7708Z" fill="#263238"/>
<path d="M432.501 58.4617C431.994 59.0648 429.869 58.5698 427.349 58.668C424.826 58.6921 422.715 59.2867 422.195 58.7078C421.964 58.4262 422.271 57.8316 423.177 57.2385C424.069 56.6497 425.584 56.1277 427.316 56.0864C429.05 56.0466 430.576 56.4947 431.482 57.0408C432.4 57.5898 432.723 58.1687 432.501 58.4617Z" fill="#263238"/>
<path d="M434.088 53.1787C434.088 53.1787 429.216 43.0504 424.109 40.8843C417.924 38.2615 415.654 45.0189 409.819 43.6962C403.983 42.3734 398.079 39.8559 392.418 44.5965C386.222 49.7851 389.408 53.0522 389.374 60.4013C389.238 90.1973 384.23 98.8706 381.99 84.9504C381.745 83.4257 377.428 82.4172 376.475 75.9699C375.241 67.6095 374.41 57.4244 375.989 51.3696C377.32 46.2649 380.013 42.6508 384.959 38.5673C392.769 32.1214 403.905 31.4387 411.508 31.8241C419.113 32.2096 434.133 40.1916 434.088 53.1787Z" fill="#263238"/>
<path d="M383.018 84.4494C382.788 81.9049 380.491 80.0004 377.962 80.3688C374.895 80.814 371.554 82.7341 372.073 89.0904C372.995 100.367 384.126 97.1151 384.119 96.7894C384.115 96.569 383.446 89.1644 383.018 84.4494Z" fill="#AE7461"/>
<path d="M381.323 92.7493C381.271 92.718 381.138 92.9029 380.818 93.0821C380.507 93.2571 379.959 93.405 379.352 93.2315C378.125 92.8916 376.968 91.0824 376.746 89.0541C376.634 88.0301 376.769 87.0359 377.066 86.1967C377.344 85.3433 377.829 84.7232 378.42 84.5682C379.006 84.3804 379.46 84.7061 379.624 85.0119C379.8 85.3149 379.747 85.5453 379.809 85.5609C379.843 85.5865 380.035 85.3519 379.907 84.8939C379.841 84.6734 379.688 84.4188 379.405 84.224C379.116 84.0263 378.709 83.9466 378.295 84.0263C377.43 84.1571 376.714 85.0219 376.386 85.9421C376.012 86.8709 375.836 87.9903 375.963 89.1409C376.22 91.4081 377.557 93.4391 379.225 93.7762C380.036 93.9185 380.678 93.6255 380.998 93.331C381.325 93.0224 381.363 92.7664 381.323 92.7493Z" fill="#6F4439"/>
<path d="M382.156 62.5573C383.672 63.4861 385.274 64.4419 387.049 64.5287C388.825 64.6154 390.795 63.5003 391.007 61.7352C391.102 60.9416 390.865 60.0398 391.351 59.4069C391.932 58.6517 393.081 58.8223 394.032 58.875C397.334 59.0599 400.989 55.2424 401.667 52.0066C402.566 53.2184 404.42 53.5072 405.647 52.6268C406.875 51.7463 407.313 51.2571 408.248 50.0723C409.184 48.8875 410.526 47.8023 412.029 47.9402C412.87 48.017 413.676 48.475 414.512 48.3598C415.989 48.1536 416.627 46.3814 416.778 44.8979C416.929 43.4144 417.018 41.6892 418.235 40.8258C419.361 40.0265 420.891 40.3806 422.267 40.5129C423.642 40.6466 425.389 40.2384 425.672 38.8858C425.82 38.1761 425.483 37.4549 425.064 36.8633C423.169 34.1822 419.273 33.1425 416.293 34.5235C415.003 30.8469 411.369 28.116 407.478 27.8998C403.586 27.6836 399.672 29.9949 397.984 33.5066C395.489 31.4599 391.976 30.7231 388.868 31.5964C385.762 32.4697 383.146 34.9275 382.082 37.9741C379.299 37.3881 376.221 38.6056 374.591 40.9368C372.962 43.2679 372.878 46.5777 374.386 48.9899C372.413 50.2501 370.776 52.3537 370.85 54.6934C370.924 57.0331 373.316 59.2491 375.542 58.5222C374.722 60.3883 375.585 62.8205 377.4 63.7507C379.215 64.6794 381.694 63.9597 382.728 62.2032" fill="#263238"/>
<path d="M417.299 37.805C417.308 37.805 417.31 37.8747 417.306 38.0127C417.297 38.1492 417.3 38.354 417.263 38.62C417.185 39.1462 417.014 39.9299 416.552 40.8374C416.085 41.732 415.344 42.7746 414.181 43.6322C413.042 44.497 411.453 45.1911 409.619 45.1811L409.799 44.9208C410.197 45.8695 410.159 47.033 409.726 48.0499C409.321 49.0825 408.648 50.0127 407.931 50.923C407.563 51.3611 407.25 51.8703 406.732 52.2813C406.227 52.6767 405.613 52.9214 404.976 53.0337C403.71 53.2599 402.253 52.937 401.276 51.9115L401.693 51.7693C401.517 54.0279 400.352 56.3377 398.392 57.8084C397.356 58.6376 396.052 59.1781 394.743 59.208C393.435 59.2606 392.202 58.9377 391.048 58.5878L391.344 58.4399C390.807 59.8736 389.933 61.1181 388.844 62.0583C387.776 62.9956 386.319 63.5873 384.962 63.3256C382.268 62.8946 380.391 60.7654 379.93 58.6945L380.192 58.8012C378.905 59.5877 377.489 59.7271 376.339 59.5636C375.174 59.4099 374.242 58.9534 373.572 58.4911C372.9 58.0189 372.49 57.5211 372.242 57.1741C372.012 56.8128 371.915 56.6108 371.927 56.6037C371.981 56.5539 372.343 57.4429 373.679 58.3333C374.345 58.7571 375.253 59.171 376.373 59.2919C377.478 59.4242 378.818 59.2606 380.005 58.5082L380.212 58.3773L380.269 58.6149C380.724 60.5435 382.529 62.5277 385.025 62.9003C386.254 63.125 387.534 62.5974 388.545 61.7098C389.562 60.8237 390.394 59.6247 390.892 58.2778L390.97 58.0644L391.186 58.1299C392.321 58.4712 393.512 58.7713 394.719 58.7201C395.93 58.686 397.1 58.2052 398.087 57.4187C399.939 56.0277 401.033 53.8658 401.211 51.7266L401.255 51.189L401.627 51.5858C402.452 52.4634 403.757 52.7763 404.895 52.5757C405.466 52.4776 406.012 52.2628 406.452 51.9215C406.882 51.5943 407.21 51.0894 407.583 50.6471C408.298 49.7524 408.954 48.8564 409.341 47.8949C409.752 46.9434 409.789 45.9207 409.446 45.0602L409.344 44.7971L409.628 44.8014C411.356 44.8312 412.887 44.1997 414.002 43.3862C415.141 42.5826 415.883 41.5912 416.364 40.735C417.309 38.977 417.216 37.7823 417.299 37.805Z" fill="#455A64"/>
<path d="M418.002 97.7298C417.918 97.3116 415.168 98.0299 412.598 96.1923C410.023 94.3603 409.559 91.3493 409.169 91.4289C408.987 91.436 408.808 92.2226 409.099 93.4671C409.377 94.6903 410.233 96.3601 411.806 97.4851C413.381 98.6045 415.139 98.8008 416.291 98.5974C417.467 98.3997 418.067 97.9132 418.002 97.7298Z" fill="#263238"/>
<path d="M485.038 202.162C484.787 201.27 470.081 161.242 465.389 152.479C459.777 141.998 447.977 137.361 440.654 136.91C433.329 136.459 354.951 142.705 354.951 142.705C354.951 142.705 331.538 147.949 328.554 168.084C325.119 191.264 322.109 244.326 322.109 244.326L357.785 226.042L362.408 214.403L436.219 230.872L454.242 204.213L485.038 202.162Z" fill="#E0E0E0"/>
<path d="M349.769 144.987L380.384 131.489L383.815 118.286L419.551 135.18L427.036 126.911L430.17 136.231L438.001 138.791L456.303 170.981L456.246 239.574L459.95 298.742L455.982 308.082L423.194 312.92C419.609 313.449 415.966 313.453 412.381 312.931L345.828 302.05L344.112 282.502L351.221 228.621L349.769 144.987Z" fill="#E0E0E0"/>
<path d="M383.822 118.286C383.822 118.286 387.817 119.442 398.079 124.918C408.132 130.282 419.558 135.182 419.558 135.182L418.689 151.318L380.657 132.225" fill="#E0E0E0"/>
<path d="M427.039 126.911L419.554 135.181L423.553 152.479L430.221 136.845" fill="#E0E0E0"/>
<g opacity="0.3">
<path d="M419.696 136.968C420.027 137.215 422.105 156.93 422.105 156.93L383.984 133.897L418.687 151.319L419.696 136.968Z" fill="black"/>
</g>
<path d="M419.435 210.545C418.864 195.466 421.24 156.996 421.24 156.996L426.21 156.196C426.21 156.196 435.492 193.592 438.958 239.418C440.361 257.963 440.361 279.443 440.361 279.443L430.379 300.868L419.347 279.584C419.347 279.584 420.131 228.869 419.435 210.545Z" fill="#455A64"/>
<path d="M347.493 147.32C347.435 147.394 348.526 148.244 350.069 149.835C351.614 151.419 353.553 153.813 355.157 156.785C356.751 159.765 357.68 162.702 358.149 164.864C358.624 167.029 358.731 168.407 358.825 168.4C358.862 168.397 358.862 168.052 358.834 167.426C358.814 166.799 358.71 165.895 358.516 164.792C358.137 162.583 357.248 159.569 355.623 156.535C353.991 153.508 351.967 151.105 350.334 149.569C349.519 148.798 348.822 148.213 348.311 147.85C347.805 147.481 347.516 147.291 347.493 147.32Z" fill="#263238"/>
<path d="M419.433 142.898L422.837 141.57L426.064 147.104L426.647 156.197L422.101 156.929L418.684 151.318L419.433 142.898Z" fill="#455A64"/>
<path d="M456.252 169.946C456.105 169.946 455.987 189.628 455.987 213.901C455.987 238.183 456.105 257.86 456.252 257.86C456.398 257.86 456.516 238.183 456.516 213.901C456.516 189.626 456.397 169.946 456.252 169.946Z" fill="#263238"/>
<path d="M419.191 135.042C419.126 135.087 419.925 136.309 421.133 138.33C422.34 140.351 423.937 143.185 425.459 146.434C425.583 146.702 425.707 146.966 425.821 147.214L426.058 147.726L426.3 147.218C427.768 144.13 428.826 141.259 429.482 139.159C429.812 138.11 430.048 137.256 430.193 136.663C430.338 136.069 430.398 135.737 430.365 135.727C430.292 135.706 429.884 136.986 429.139 139.043C428.396 141.101 427.287 143.93 425.823 146.991L426.303 146.995C426.188 146.746 426.064 146.479 425.94 146.21C424.407 142.937 422.746 140.111 421.451 138.132C420.804 137.143 420.252 136.36 419.855 135.83C419.459 135.301 419.221 135.022 419.191 135.042Z" fill="#263238"/>
<path d="M380.389 131.489C380.382 131.505 380.561 131.613 380.911 131.802C381.315 132.013 381.825 132.28 382.454 132.609C383.858 133.337 385.784 134.334 388.136 135.551C392.929 138.045 399.493 141.596 406.767 145.482C411.198 147.843 415.393 150.029 419.043 151.855L419.38 152.023L419.384 151.651C419.431 146.916 419.47 142.928 419.498 140.043C419.495 138.688 419.494 137.594 419.493 136.77C419.483 136.014 419.466 135.608 419.44 135.608C419.414 135.608 419.383 136.012 419.346 136.768C419.315 137.59 419.274 138.682 419.222 140.037C419.147 142.922 419.042 146.909 418.918 151.642L419.258 151.437C415.63 149.578 411.448 147.375 407.019 145.016C399.748 141.13 393.15 137.628 388.31 135.219C385.892 134.01 383.919 133.061 382.548 132.424C381.902 132.132 381.376 131.895 380.961 131.706C380.592 131.549 380.397 131.474 380.389 131.489Z" fill="#263238"/>
<path d="M451.648 143.925C451.571 143.972 452.17 144.985 452.94 146.71C453.712 148.431 454.597 150.896 455.122 153.723C455.638 156.554 455.688 159.172 455.578 161.055C455.471 162.941 455.274 164.101 455.36 164.118C455.396 164.125 455.479 163.842 455.598 163.32C455.725 162.801 455.848 162.035 455.949 161.085C456.157 159.185 456.167 156.513 455.641 153.628C455.106 150.747 454.146 148.252 453.277 146.549C452.843 145.696 452.455 145.026 452.153 144.585C451.859 144.141 451.68 143.907 451.648 143.925Z" fill="#263238"/>
<path d="M422.93 157.517C423.008 157.64 423.873 157.235 424.86 156.611C425.848 155.986 426.586 155.38 426.508 155.257C426.43 155.133 425.565 155.538 424.577 156.163C423.589 156.787 422.851 157.393 422.93 157.517Z" fill="#263238"/>
<path d="M421.293 155.297C421.427 155.355 422.462 153.294 423.605 150.694C424.747 148.093 425.565 145.937 425.431 145.878C425.297 145.82 424.263 147.879 423.12 150.481C421.977 153.081 421.161 155.237 421.293 155.297Z" fill="#263238"/>
<path d="M343.501 148.37C343.501 148.37 331.706 156.86 330.231 161.55C328.756 166.241 322.489 242.469 321.384 251.537C320.279 260.607 319.172 277.564 326.176 283.093C333.179 288.623 348.293 292.769 348.293 292.769L362.254 263.924L354.858 248.442L362.254 190.548L343.501 148.37Z" fill="#E0E0E0"/>
<path d="M344.928 291.753C344.929 291.733 345.187 291.715 345.683 291.698C346.178 291.681 346.91 291.689 347.853 291.56C349.702 291.325 352.547 290.84 355.4 288.83C358.273 286.89 360.913 283.43 362.599 278.978C364.293 274.539 365.278 269.187 365.329 263.462L365.395 263.66C362.04 259.014 358.376 253.944 354.561 248.663L354.476 248.545L354.494 248.4C354.544 248.016 354.597 247.599 354.649 247.181C356.734 230.945 358.62 216.251 359.996 205.53C360.68 200.256 361.237 195.962 361.633 192.911C361.821 191.474 361.971 190.331 362.082 189.482C362.176 188.701 362.229 188.287 362.256 188.287C362.269 188.287 362.273 188.391 362.27 188.594C362.264 188.796 362.259 189.102 362.232 189.497C362.155 190.352 362.051 191.5 361.92 192.945C361.621 195.936 361.139 200.257 360.516 205.595C359.27 216.27 357.457 231.005 355.385 247.275C355.332 247.691 355.278 248.108 355.23 248.494L355.163 248.23C358.966 253.52 362.617 258.599 365.962 263.253L366.029 263.347L366.028 263.451C365.95 269.298 364.918 274.677 363.15 279.194C361.395 283.711 358.636 287.244 355.645 289.189C354.171 290.189 352.679 290.81 351.345 291.179C351.012 291.271 350.69 291.359 350.379 291.445C350.065 291.499 349.761 291.551 349.469 291.601C348.89 291.719 348.358 291.769 347.878 291.79C346.92 291.885 346.182 291.839 345.684 291.817C345.184 291.794 344.926 291.773 344.928 291.753Z" fill="#263238"/>
<path d="M330.675 253.789C330.627 253.726 331.726 252.759 333.772 251.587C335.81 250.412 338.847 249.121 342.39 248.427C345.937 247.744 349.237 247.804 351.565 248.129C353.9 248.451 355.281 248.934 355.26 249.011C355.242 249.269 349.505 247.75 342.529 249.153C335.54 250.463 330.788 254.021 330.675 253.789Z" fill="#263238"/>
<path d="M423.231 177.897C423.273 177.891 423.904 180.427 424.981 184.895C427.386 181.42 430.481 178.464 434.074 176.196L434.028 176.204C434.028 176.204 452.239 158.114 458.057 139.09C462.28 125.28 461.229 109.986 461.229 109.986C461.058 109.256 459.638 102.77 458.478 97.4622C457.526 93.1128 460.185 88.8302 464.484 87.6724C473.526 85.236 498.007 80.4713 503.622 96.9132C512.001 121.447 498.458 147.946 498.603 155.528C498.63 156.96 498.652 158.121 498.671 159.064C505.848 157.404 511.415 156.208 511.442 156.328L511.433 156.333L558.573 145.334C558.573 145.334 574.148 140.621 579.491 156.586C584.833 172.552 566.707 177.861 566.707 177.861C566.707 177.861 575.227 177.486 577.541 192.006C579.855 206.527 564.282 211.24 564.282 211.24C564.282 211.24 573.822 210.626 576.29 223.498C578.692 236.027 563.12 243.578 562.288 243.972C564.595 243.478 566.029 243.204 566.045 243.266C566.057 243.322 564.984 243.626 563.187 244.089C570.448 245.017 571.501 253.664 571.501 253.664C576.18 271.398 562.527 275.125 562.527 275.125L476.463 295.224C467.802 297.246 458.852 296.868 450.517 294.282C451.342 297.949 451.789 300.014 451.753 300.025L391.64 314.063C391.511 314.093 385.019 286.776 377.144 253.056C369.266 219.323 362.988 191.962 363.117 191.932L423.231 177.897Z" fill="#03736D"/>
<g opacity="0.3">
<path d="M423.231 177.897C423.273 177.891 423.904 180.427 424.981 184.895C427.386 181.42 430.481 178.464 434.074 176.196L434.028 176.204C434.028 176.204 452.239 158.114 458.057 139.09C462.28 125.28 461.229 109.986 461.229 109.986C461.058 109.256 459.638 102.77 458.478 97.4622C457.526 93.1128 460.185 88.8302 464.484 87.6724C473.526 85.236 498.007 80.4713 503.622 96.9132C512.001 121.447 498.458 147.946 498.603 155.528C498.63 156.96 498.652 158.121 498.671 159.064C505.848 157.404 511.415 156.208 511.442 156.328L511.433 156.333L558.573 145.334C558.573 145.334 574.148 140.621 579.491 156.586C584.833 172.552 566.707 177.861 566.707 177.861C566.707 177.861 575.227 177.486 577.541 192.006C579.855 206.527 564.282 211.24 564.282 211.24C564.282 211.24 573.822 210.626 576.29 223.498C578.692 236.027 563.12 243.578 562.288 243.972C564.595 243.478 566.029 243.204 566.045 243.266C566.057 243.322 564.984 243.626 563.187 244.089C570.448 245.017 571.501 253.664 571.501 253.664C576.18 271.398 562.527 275.125 562.527 275.125L476.463 295.224C467.802 297.246 458.852 296.868 450.517 294.282C451.342 297.949 451.789 300.014 451.753 300.025L391.64 314.063C391.511 314.093 385.019 286.776 377.144 253.056C369.266 219.323 362.988 191.962 363.117 191.932L423.231 177.897Z" fill="black"/>
</g>
<path d="M434.854 195.024L433.688 202.838L452.904 285.123C464.286 292.682 478.283 295.206 491.587 292.099L577.651 271.998C577.651 271.998 591.304 268.272 586.625 250.537C586.625 250.537 585.501 241.117 577.373 240.864C577.373 240.864 593.883 233.243 591.414 220.371C588.946 207.499 579.407 208.114 579.407 208.114C579.407 208.114 594.981 203.4 592.665 188.88C590.35 174.358 581.832 174.735 581.832 174.735C581.832 174.735 599.958 169.427 594.615 153.46C589.273 137.494 573.697 142.208 573.697 142.208L512.482 156.491L458.823 169.023C446.258 171.957 436.758 182.263 434.854 195.024Z" fill="#03736D"/>
<path d="M449.152 173.079C449.152 173.079 467.364 154.989 473.181 135.965C477.404 122.156 476.353 106.862 476.353 106.862C476.182 106.132 474.763 99.6467 473.602 94.3386C472.65 89.9892 475.309 85.7066 479.608 84.5488C488.65 82.1124 504.967 86.6055 510.582 103.049C518.961 127.582 513.582 144.822 513.728 152.405C513.875 159.987 513.875 159.987 513.875 159.987L449.152 173.079Z" fill="#03736D"/>
<path d="M438.353 174.782L378.24 188.819L406.76 310.951L466.873 296.914L438.353 174.782Z" fill="#03736D"/>
<path d="M466.877 296.903C467.006 296.873 460.727 269.506 452.851 235.785C444.973 202.052 438.484 174.741 438.354 174.77C438.224 174.8 444.502 202.161 452.38 235.894C460.256 269.615 466.747 296.933 466.877 296.903Z" fill="#263238"/>
<path d="M406.762 310.941C406.892 310.911 400.612 283.543 392.737 249.823C384.859 216.09 378.369 188.779 378.239 188.809C378.11 188.839 384.388 216.2 392.266 249.933C400.142 283.654 406.633 310.971 406.762 310.941Z" fill="#263238"/>
<path d="M423.663 207.683C425.114 213.895 421.253 220.107 415.042 221.557C408.83 223.008 402.618 219.148 401.168 212.937C399.717 206.724 403.577 200.513 409.79 199.062C415.999 197.611 422.212 201.471 423.663 207.683Z" fill="white"/>
<path d="M526.568 153.202C526.538 153.071 519.958 154.497 511.875 156.385C503.789 158.274 497.261 159.91 497.292 160.039C497.322 160.169 503.9 158.745 511.986 156.856C520.068 154.967 526.597 153.332 526.568 153.202Z" fill="#263238"/>
<path d="M580.76 208.41C580.73 208.28 576.516 209.152 571.35 210.36C566.181 211.567 562.018 212.65 562.048 212.78C562.078 212.91 566.291 212.038 571.459 210.83C576.627 209.624 580.791 208.541 580.76 208.41Z" fill="#263238"/>
<path d="M582.947 174.163C582.917 174.032 576.946 175.316 569.613 177.029C562.276 178.741 556.357 180.236 556.388 180.365C556.418 180.495 562.387 179.212 569.723 177.499C577.055 175.786 582.977 174.292 582.947 174.163Z" fill="#263238"/>
<path d="M581.172 240.141C581.142 240.012 575.172 241.295 567.838 243.007C560.502 244.72 554.582 246.214 554.613 246.344C554.643 246.473 560.613 245.19 567.949 243.478C575.281 241.765 581.202 240.272 581.172 240.141Z" fill="#263238"/>
<g opacity="0.3">
<path d="M480.12 90.5965C478.25 92.3431 478.034 95.2959 478.743 97.7536C479.453 100.211 480.917 102.37 482.027 104.675C484.487 109.768 485.205 115.683 484.039 121.218C483.682 122.907 483.212 124.864 484.296 126.21C485.831 128.117 488.93 127.058 490.869 125.563C498.212 119.898 501.742 109.717 499.481 100.722C498.528 96.9301 496.551 93.2876 493.413 90.955C490.277 88.6238 485.451 86.5088 480.12 90.5965Z" fill="white"/>
</g>
<g opacity="0.3">
<path d="M579.326 144.336C577.217 143.931 575.052 144.464 572.97 144.992C560.862 148.067 548.752 151.142 536.644 154.218C532.683 155.224 525.251 156.12 525.176 160.162C524.375 162.371 526.056 164.863 528.222 165.767C530.39 166.672 532.849 166.398 535.169 166.026C540.028 165.248 544.822 164.119 549.607 162.975C559.223 160.678 568.869 158.309 577.999 154.514C579.355 153.951 580.721 153.341 581.818 152.365C582.915 151.389 583.715 149.977 583.617 148.513C583.476 146.369 581.437 144.741 579.326 144.336Z" fill="white"/>
</g>
<path d="M424.99 181.544C424.96 181.414 416.534 183.27 406.175 185.69C395.812 188.111 387.439 190.177 387.469 190.307C387.499 190.436 395.922 188.581 406.285 186.161C416.645 183.741 425.019 181.673 424.99 181.544Z" fill="white"/>
<path d="M587.156 195.374C587.189 195.382 587.271 195.129 587.393 194.663C587.527 194.199 587.64 193.506 587.705 192.644C587.779 191.783 587.745 190.746 587.595 189.609C587.422 188.477 587.119 187.247 586.634 186.012C586.132 184.785 585.502 183.685 584.845 182.747C584.166 181.822 583.476 181.05 582.826 180.477C582.184 179.899 581.625 179.475 581.208 179.232C580.797 178.979 580.564 178.854 580.545 178.882C580.494 178.958 581.393 179.529 582.59 180.724C583.195 181.314 583.841 182.089 584.479 183.003C585.098 183.93 585.698 185.002 586.185 186.193C586.655 187.39 586.961 188.579 587.155 189.677C587.322 190.778 587.391 191.785 587.362 192.63C587.322 194.32 587.066 195.354 587.156 195.374Z" fill="white"/>
<path d="M588.833 162.359C588.867 162.391 589.417 161.849 589.965 160.744C590.517 159.647 590.971 157.95 590.851 156.06C590.723 154.171 590.053 152.545 589.363 151.531C588.676 150.506 588.059 150.041 588.031 150.076C587.967 150.136 588.486 150.679 589.072 151.709C589.662 152.732 590.247 154.291 590.369 156.091C590.481 157.893 590.106 159.513 589.654 160.604C589.206 161.701 588.762 162.308 588.833 162.359Z" fill="white"/>
<path d="M584.284 230.934C584.308 230.974 585.073 230.501 585.901 229.339C586.725 228.202 587.535 226.283 587.405 224.08C587.267 221.877 586.228 220.071 585.272 219.042C584.31 217.99 583.493 217.613 583.473 217.656C583.422 217.725 584.155 218.199 585.012 219.264C585.867 220.31 586.793 222.041 586.922 224.11C587.045 226.18 586.336 228.01 585.615 229.151C584.896 230.311 584.224 230.87 584.284 230.934Z" fill="white"/>
<path d="M578.824 262.792C578.863 262.822 579.386 262.231 579.914 261.081C580.444 259.939 580.894 258.203 580.814 256.263C580.726 254.323 580.127 252.634 579.5 251.541C578.874 250.442 578.301 249.899 578.265 249.931C578.198 249.984 578.668 250.596 579.195 251.698C579.726 252.796 580.245 254.424 580.33 256.283C580.406 258.142 580.03 259.811 579.596 260.95C579.168 262.096 578.753 262.746 578.824 262.792Z" fill="white"/>
<path d="M511.246 131.887C511.278 131.895 511.405 131.4 511.605 130.496C511.711 130.046 511.826 129.491 511.917 128.839C512.012 128.189 512.15 127.451 512.213 126.625C512.4 124.979 512.48 123.004 512.426 120.813C512.342 118.624 512.107 116.219 511.637 113.733C511.145 111.25 510.465 108.931 509.725 106.868C508.957 104.815 508.146 103.012 507.357 101.555C506.991 100.813 506.587 100.18 506.256 99.6109C505.929 99.0406 505.616 98.5684 505.35 98.19C504.827 97.4262 504.525 97.0152 504.498 97.0337C504.471 97.0522 504.719 97.5002 505.191 98.2896C505.431 98.6821 505.72 99.1657 506.023 99.7446C506.33 100.322 506.71 100.961 507.053 101.709C507.796 103.174 508.567 104.976 509.306 107.015C510.014 109.066 510.674 111.363 511.162 113.821C511.627 116.282 511.873 118.66 511.981 120.826C512.058 122.995 512.015 124.954 511.871 126.591C511.832 127.413 511.718 128.148 511.649 128.798C511.585 129.45 511.499 130.004 511.421 130.459C511.277 131.373 511.213 131.88 511.246 131.887Z" fill="white"/>
<path d="M373.997 275.988C373.997 275.988 378.723 272.329 382.231 272.176C385.738 272.024 390.312 273.397 391.227 272.939C392.141 272.481 394.276 270.475 395.649 272.165C397.021 273.855 398.698 279.954 391.379 281.63H386.347C386.347 281.63 386.957 286.663 388.177 288.645C389.398 290.628 406.475 312.128 406.475 312.128C406.475 312.128 408.61 314.263 407.542 316.397C406.475 318.532 401.9 317.312 401.9 317.312C401.9 317.312 398.698 320.209 395.039 318.837C391.379 317.464 389.854 316.397 389.854 316.397C389.854 316.397 385.889 319.599 381.62 316.397C377.351 313.196 363.113 295.353 363.113 295.353L368.201 275.379L373.997 275.988Z" fill="#AE7461"/>
<path d="M359.178 264.187L373.998 275.988L363.116 295.353L341.413 287.473C341.413 287.473 342.036 264.601 359.178 264.187Z" fill="#AE7461"/>
<path d="M590.342 237.822C590.342 237.822 589.874 232.515 586.909 233.607C583.943 234.7 582.694 240.944 582.694 240.944L590.342 237.822Z" fill="#AE7461"/>
<path d="M579.728 243.056C579.728 243.056 584.88 237.28 592.06 237.749C599.239 238.217 594.714 244.306 594.714 244.306C594.714 244.306 600.027 247.584 596.122 252.267L595.495 253.516C595.495 253.516 600.022 255.232 595.338 260.071C595.338 260.071 597.055 263.193 594.714 265.534C592.373 267.875 586.518 264.753 586.518 264.753C586.518 264.753 581.133 266.002 580.664 263.816C580.196 261.631 581.445 260.07 581.913 259.758C582.381 259.447 585.191 258.353 585.191 258.353C585.191 258.353 578.947 259.134 578.791 257.572C578.634 256.01 578.01 254.294 582.694 252.733L585.191 252.065C585.191 252.065 578.717 252.265 578.676 250.704C578.634 249.143 578.323 248.519 580.664 247.425C583.005 246.333 584.878 245.084 584.878 245.084C584.878 245.084 578.792 246.334 579.728 243.056Z" fill="#AE7461"/>
<path d="M578.579 249.151C578.7 249.329 581.62 246.482 586.302 245.197C590.966 243.84 594.943 244.736 594.953 244.521C594.97 244.453 594.015 244.129 592.402 243.974C590.795 243.814 588.519 243.905 586.127 244.578C583.738 245.258 581.752 246.372 580.465 247.349C579.172 248.326 578.529 249.101 578.579 249.151Z" fill="#6F4439"/>
<path d="M579.298 258.079C579.335 258.035 579.146 257.881 578.998 257.521C578.848 257.167 578.795 256.577 579.013 255.898C579.229 255.228 579.648 254.453 580.425 253.94C581.19 253.388 582.189 253.01 583.28 252.749C587.71 251.727 591.462 251.966 591.462 251.765C591.468 251.684 590.542 251.52 589.023 251.495C587.507 251.469 585.403 251.601 583.127 252.125C581.991 252.397 580.907 252.82 580.074 253.463C579.195 254.092 578.748 255.022 578.573 255.783C578.387 256.56 578.522 257.257 578.776 257.636C579.03 258.022 579.286 258.104 579.298 258.079Z" fill="#6F4439"/>
<path d="M581.926 264.939C581.943 264.89 581.702 264.8 581.383 264.501C581.073 264.208 580.683 263.674 580.608 262.914C580.53 262.163 580.724 261.202 581.522 260.594C582.289 259.981 583.46 259.559 584.586 259.175C586.92 258.525 589.211 258.821 590.84 258.846C592.484 258.913 593.51 258.792 593.504 258.704C593.498 258.614 592.494 258.575 590.871 258.393C589.263 258.259 586.936 257.862 584.407 258.558C583.185 258.981 582.064 259.383 581.141 260.142C580.692 260.519 580.367 261.031 580.225 261.543C580.091 262.058 580.086 262.54 580.16 262.98C580.312 263.864 580.834 264.436 581.229 264.698C581.638 264.967 581.921 264.974 581.926 264.939Z" fill="#6F4439"/>
<path d="M579.634 243.306C579.682 243.31 579.77 243.11 580.092 242.817C580.4 242.521 580.884 242.12 581.511 241.663C582.77 240.777 584.593 239.546 586.802 238.819C589.072 238.099 591.187 237.697 592.699 237.963C594.209 238.194 595.044 238.756 595.1 238.648C595.14 238.61 594.38 237.889 592.781 237.516C591.178 237.109 588.9 237.476 586.616 238.204C581.949 239.878 579.245 243.096 579.634 243.306Z" fill="#6F4439"/>
</svg>
