<svg width="22" height="22" viewBox="0 0 22 22" fill="none" xmlns="http://www.w3.org/2000/svg">
<g id="Frame 1185">
<path id="Symbol" d="M5.38895 21.0277H1.21641V7.61243H5.38895V21.0277ZM3.28025 5.81775C1.97913 5.81775 0.902344 4.69607 0.902344 3.35005C0.902344 2.04891 1.97913 0.972099 3.28025 0.972099C4.62623 0.972099 5.70301 2.04891 5.70301 3.35005C5.70301 4.69607 4.62623 5.81775 3.28025 5.81775ZM16.8298 21.0277V14.522C16.8298 12.9516 16.7849 10.9775 14.6314 10.9775C12.4778 10.9775 12.1637 12.6375 12.1637 14.3874V21.0277H7.99118V7.61243H11.9843V9.45198H12.0291C12.6124 8.42004 13.9584 7.29836 15.9773 7.29836C20.1948 7.29836 21.0023 10.0801 21.0023 13.6695V21.0277H16.8298Z" fill="#03736D"/>
</g>
</svg>
