<svg width="568" height="568" viewBox="0 0 568 568" fill="none" xmlns="http://www.w3.org/2000/svg">
<path d="M46.8662 368.366C46.8662 368.366 -16.084 297.631 3.92981 174.533C23.9449 51.4357 126.722 6.09067 194.926 29.7894C263.129 53.4882 278.471 94.7097 334.18 118.3C389.888 141.89 495.649 125.677 548.559 204.887C601.467 284.096 533.928 415.348 447.944 497.646C361.96 579.944 142.466 528.411 46.8662 368.366Z" fill="#92E3A9"/>
<path opacity="0.7" d="M46.8662 368.366C46.8662 368.366 -16.084 297.631 3.92981 174.533C23.9449 51.4357 126.722 6.09067 194.926 29.7894C263.129 53.4882 278.471 94.7097 334.18 118.3C389.888 141.89 495.649 125.677 548.559 204.887C601.467 284.096 533.928 415.348 447.944 497.646C361.96 579.944 142.466 528.411 46.8662 368.366Z" fill="white"/>
<path d="M509.874 567.113H16.8843" stroke="#263238" stroke-width="1.232" stroke-miterlimit="10"/>
<path d="M433.379 379.865L413.815 566.872" stroke="#263238" stroke-width="2.464" stroke-miterlimit="10"/>
<path d="M417.287 528.501L425.983 519.316" stroke="#263238" stroke-width="2.464" stroke-miterlimit="10"/>
<path d="M423.341 522.068C423.341 522.068 423.092 518.005 426.803 514.691C429.035 512.697 440.782 507.755 441.897 511.893C443.11 516.393 431.084 525.231 423.341 522.068Z" fill="#00D0C5" stroke="#263238" stroke-width="1.232" stroke-miterlimit="10"/>
<path d="M423.341 522.068L434.525 515.099" stroke="#263238" stroke-width="0.616" stroke-miterlimit="10"/>
<path d="M415.105 549.406L423.802 540.22" stroke="#263238" stroke-width="2.464" stroke-miterlimit="10"/>
<path d="M421.158 542.973C421.158 542.973 420.91 538.91 424.619 535.596C426.852 533.602 438.6 528.659 439.714 532.798C440.927 537.298 428.903 546.137 421.158 542.973Z" fill="#00D0C5" stroke="#263238" stroke-width="1.232" stroke-miterlimit="10"/>
<path d="M421.158 542.973L432.342 536.003" stroke="#263238" stroke-width="0.616" stroke-miterlimit="10"/>
<path d="M422.612 477.489L431.308 468.303" stroke="#263238" stroke-width="2.464" stroke-miterlimit="10"/>
<path d="M428.665 471.056C428.665 471.056 428.416 466.993 432.127 463.679C434.36 461.685 446.107 456.742 447.222 460.881C448.434 465.381 436.41 474.22 428.665 471.056Z" fill="#00D0C5" stroke="#263238" stroke-width="1.232" stroke-miterlimit="10"/>
<path d="M428.666 471.056L439.85 464.086" stroke="#263238" stroke-width="0.616" stroke-miterlimit="10"/>
<path d="M420.431 498.394L429.128 489.209" stroke="#263238" stroke-width="2.464" stroke-miterlimit="10"/>
<path d="M426.485 491.961C426.485 491.961 426.236 487.897 429.945 484.583C432.178 482.59 443.926 477.647 445.04 481.786C446.253 486.286 434.229 495.124 426.485 491.961Z" fill="#00D0C5" stroke="#263238" stroke-width="1.232" stroke-miterlimit="10"/>
<path d="M426.484 491.961L437.668 484.991" stroke="#263238" stroke-width="0.616" stroke-miterlimit="10"/>
<path d="M426.155 443.531L434.852 434.346" stroke="#263238" stroke-width="2.464" stroke-miterlimit="10"/>
<path d="M432.208 437.098C432.208 437.098 431.959 433.035 435.669 429.721C437.901 427.728 449.65 422.785 450.763 426.923C451.977 431.423 439.953 440.261 432.208 437.098Z" fill="#00D0C5" stroke="#263238" stroke-width="1.232" stroke-miterlimit="10"/>
<path d="M432.208 437.098L443.392 430.128" stroke="#263238" stroke-width="0.616" stroke-miterlimit="10"/>
<path d="M429.715 409.424L438.412 400.239" stroke="#263238" stroke-width="2.464" stroke-miterlimit="10"/>
<path d="M435.77 402.99C435.77 402.99 435.521 398.927 439.232 395.614C441.464 393.621 453.211 388.678 454.326 392.817C455.538 397.316 443.513 406.154 435.77 402.99Z" fill="#00D0C5" stroke="#263238" stroke-width="1.232" stroke-miterlimit="10"/>
<path d="M435.77 402.99L446.954 396.021" stroke="#263238" stroke-width="0.616" stroke-miterlimit="10"/>
<path d="M418.75 516.132L412.138 505.35" stroke="#263238" stroke-width="2.464" stroke-miterlimit="10"/>
<path d="M414.154 508.587C414.154 508.587 415.237 504.664 412.29 500.655C410.517 498.244 400.043 490.982 398.099 494.8C395.984 498.953 405.923 510.084 414.154 508.587Z" fill="#00D0C5" stroke="#263238" stroke-width="1.232" stroke-miterlimit="10"/>
<path d="M414.154 508.588L404.083 498.962" stroke="#263238" stroke-width="0.616" stroke-miterlimit="10"/>
<path d="M424.49 461.121L417.878 450.337" stroke="#263238" stroke-width="2.464" stroke-miterlimit="10"/>
<path d="M419.895 453.576C419.895 453.576 420.977 449.652 418.031 445.643C416.258 443.232 405.783 435.971 403.839 439.789C401.724 443.942 411.664 455.072 419.895 453.576Z" fill="#00D0C5" stroke="#263238" stroke-width="1.232" stroke-miterlimit="10"/>
<path d="M419.895 453.576L409.823 443.951" stroke="#263238" stroke-width="0.616" stroke-miterlimit="10"/>
<path d="M427.013 436.946L420.399 426.162" stroke="#263238" stroke-width="2.464" stroke-miterlimit="10"/>
<path d="M422.417 429.401C422.417 429.401 423.5 425.477 420.553 421.468C418.78 419.057 408.306 411.795 406.362 415.613C404.246 419.766 414.186 430.896 422.417 429.401Z" fill="#00D0C5" stroke="#263238" stroke-width="1.232" stroke-miterlimit="10"/>
<path d="M422.417 429.401L412.345 419.775" stroke="#263238" stroke-width="0.616" stroke-miterlimit="10"/>
<path d="M430.711 401.503L424.099 390.721" stroke="#263238" stroke-width="2.464" stroke-miterlimit="10"/>
<path d="M426.117 393.96C426.117 393.96 427.198 390.036 424.253 386.027C422.48 383.616 412.005 376.355 410.061 380.172C407.946 384.326 417.886 395.455 426.117 393.96Z" fill="#00D0C5" stroke="#263238" stroke-width="1.232" stroke-miterlimit="10"/>
<path d="M426.115 393.96L416.045 384.334" stroke="#263238" stroke-width="0.616" stroke-miterlimit="10"/>
<path d="M433.539 378.844C433.539 378.844 434.621 374.92 431.675 370.911C429.903 368.5 419.428 361.239 417.484 365.057C415.367 369.21 425.308 380.34 433.539 378.844Z" fill="#00D0C5" stroke="#263238" stroke-width="1.232" stroke-miterlimit="10"/>
<path d="M433.541 378.845L423.469 369.219" stroke="#263238" stroke-width="0.616" stroke-miterlimit="10"/>
<path d="M432.956 379.26C432.956 379.26 436.972 379.925 440.649 376.574C442.861 374.558 448.984 363.38 444.983 361.847C440.631 360.178 430.605 371.231 432.956 379.26Z" fill="#00D0C5" stroke="#263238" stroke-width="1.232" stroke-miterlimit="10"/>
<path d="M432.955 379.26L441.472 368.234" stroke="#263238" stroke-width="0.616" stroke-miterlimit="10"/>
<path d="M382.78 405.178L398.961 566.872" stroke="#263238" stroke-width="2.464" stroke-miterlimit="10"/>
<path d="M397.639 553.944L404.257 543.165" stroke="#263238" stroke-width="2.464" stroke-miterlimit="10"/>
<path d="M402.238 546.403C402.238 546.403 401.158 542.477 404.106 538.471C405.88 536.06 416.358 528.805 418.301 532.624C420.415 536.778 410.468 547.903 402.238 546.403Z" fill="#00D0C5" stroke="#263238" stroke-width="1.232" stroke-miterlimit="10"/>
<path d="M402.237 546.403L411.745 537.278" stroke="#263238" stroke-width="0.616" stroke-miterlimit="10"/>
<path d="M392.344 502.929L398.964 492.15" stroke="#263238" stroke-width="2.464" stroke-miterlimit="10"/>
<path d="M396.944 495.387C396.944 495.387 395.864 491.461 398.813 487.455C400.587 485.044 411.065 477.79 413.008 481.609C415.121 485.763 405.174 496.888 396.944 495.387Z" fill="#00D0C5" stroke="#263238" stroke-width="1.232" stroke-miterlimit="10"/>
<path d="M396.945 495.387L406.455 486.264" stroke="#263238" stroke-width="0.616" stroke-miterlimit="10"/>
<path d="M394.513 523.835L401.133 513.056" stroke="#263238" stroke-width="2.464" stroke-miterlimit="10"/>
<path d="M399.114 516.293C399.114 516.293 398.034 512.368 400.982 508.361C402.756 505.95 413.234 498.696 415.177 502.515C417.291 506.669 407.344 517.794 399.114 516.293Z" fill="#00D0C5" stroke="#263238" stroke-width="1.232" stroke-miterlimit="10"/>
<path d="M399.114 516.293L408.624 507.17" stroke="#263238" stroke-width="0.616" stroke-miterlimit="10"/>
<path d="M388.82 468.969L395.439 458.189" stroke="#263238" stroke-width="2.464" stroke-miterlimit="10"/>
<path d="M393.421 461.427C393.421 461.427 392.341 457.502 395.289 453.495C397.063 451.084 407.541 443.829 409.484 447.649C411.597 451.802 401.651 462.927 393.421 461.427Z" fill="#00D0C5" stroke="#263238" stroke-width="1.232" stroke-miterlimit="10"/>
<path d="M393.422 461.427L402.931 452.304" stroke="#263238" stroke-width="0.616" stroke-miterlimit="10"/>
<path d="M385.28 434.86L391.899 424.08" stroke="#263238" stroke-width="2.464" stroke-miterlimit="10"/>
<path d="M389.88 427.318C389.88 427.318 388.799 423.393 391.749 419.386C393.523 416.976 404.001 409.721 405.944 413.54C408.057 417.695 398.109 428.818 389.88 427.318Z" fill="#00D0C5" stroke="#263238" stroke-width="1.232" stroke-miterlimit="10"/>
<path d="M389.881 427.318L399.391 418.195" stroke="#263238" stroke-width="0.616" stroke-miterlimit="10"/>
<path d="M396.521 541.539L387.831 532.349" stroke="#263238" stroke-width="2.464" stroke-miterlimit="10"/>
<path d="M390.471 535.103C390.471 535.103 390.722 531.04 387.014 527.724C384.783 525.73 373.038 520.78 371.921 524.917C370.705 529.416 382.724 538.262 390.471 535.103Z" fill="#00D0C5" stroke="#263238" stroke-width="1.232" stroke-miterlimit="10"/>
<path d="M390.473 535.103L378.636 527.756" stroke="#263238" stroke-width="0.616" stroke-miterlimit="10"/>
<path d="M390.813 486.524L382.123 477.334" stroke="#263238" stroke-width="2.464" stroke-miterlimit="10"/>
<path d="M384.763 480.088C384.763 480.088 385.014 476.025 381.306 472.709C379.075 470.715 367.33 465.766 366.213 469.902C364.998 474.401 377.017 483.247 384.763 480.088Z" fill="#00D0C5" stroke="#263238" stroke-width="1.232" stroke-miterlimit="10"/>
<path d="M384.764 480.088L372.927 472.741" stroke="#263238" stroke-width="0.616" stroke-miterlimit="10"/>
<path d="M388.304 462.347L379.613 453.158" stroke="#263238" stroke-width="2.464" stroke-miterlimit="10"/>
<path d="M382.253 455.91C382.253 455.91 382.505 451.847 378.796 448.531C376.565 446.537 364.82 441.588 363.703 445.724C362.488 450.224 374.506 459.069 382.253 455.91Z" fill="#00D0C5" stroke="#263238" stroke-width="1.232" stroke-miterlimit="10"/>
<path d="M382.254 455.91L370.417 448.565" stroke="#263238" stroke-width="0.616" stroke-miterlimit="10"/>
<path d="M384.625 426.904L375.933 417.713" stroke="#263238" stroke-width="2.464" stroke-miterlimit="10"/>
<path d="M378.575 420.467C378.575 420.467 378.826 416.403 375.118 413.088C372.886 411.093 361.142 406.145 360.024 410.28C358.81 414.781 370.829 423.625 378.575 420.467Z" fill="#00D0C5" stroke="#263238" stroke-width="1.232" stroke-miterlimit="10"/>
<path d="M378.573 420.467L366.737 413.121" stroke="#263238" stroke-width="0.616" stroke-miterlimit="10"/>
<path d="M382.728 404.147C382.728 404.147 382.979 400.084 379.271 396.769C377.04 394.774 365.295 389.825 364.178 393.963C362.963 398.461 374.982 407.305 382.728 404.147Z" fill="#00D0C5" stroke="#263238" stroke-width="1.232" stroke-miterlimit="10"/>
<path d="M382.727 404.147L370.89 396.801" stroke="#263238" stroke-width="0.616" stroke-miterlimit="10"/>
<path d="M382.242 404.673C382.242 404.673 386.309 404.497 389.218 400.462C390.967 398.034 394.658 385.835 390.426 385.159C385.825 384.421 378.289 397.301 382.242 404.673Z" fill="#00D0C5" stroke="#263238" stroke-width="1.232" stroke-miterlimit="10"/>
<path d="M382.243 404.674L388.307 392.132" stroke="#263238" stroke-width="0.616" stroke-miterlimit="10"/>
<path d="M404.638 330.325L405.836 567.147" stroke="#263238" stroke-width="2.464" stroke-miterlimit="10"/>
<path d="M404.458 527.832L412.154 517.793" stroke="#263238" stroke-width="2.464" stroke-miterlimit="10"/>
<path d="M409.811 520.804C409.811 520.804 409.142 516.789 412.489 513.108C414.502 510.894 425.673 504.758 427.211 508.758C428.884 513.108 417.842 523.147 409.811 520.804Z" fill="#00D0C5" stroke="#263238" stroke-width="1.232" stroke-miterlimit="10"/>
<path d="M409.811 520.804L420.21 512.712" stroke="#263238" stroke-width="0.616" stroke-miterlimit="10"/>
<path d="M404.458 484.146L412.154 474.108" stroke="#263238" stroke-width="2.464" stroke-miterlimit="10"/>
<path d="M409.811 477.12C409.811 477.12 409.142 473.105 412.489 469.423C414.502 467.21 425.673 461.074 427.211 465.073C428.884 469.423 417.842 479.462 409.811 477.12Z" fill="#00D0C5" stroke="#263238" stroke-width="1.232" stroke-miterlimit="10"/>
<path d="M409.811 477.12L420.21 469.027" stroke="#263238" stroke-width="0.616" stroke-miterlimit="10"/>
<path d="M404.458 432.858L412.154 422.82" stroke="#263238" stroke-width="2.464" stroke-miterlimit="10"/>
<path d="M409.811 425.83C409.811 425.83 409.142 421.815 412.489 418.134C414.502 415.92 425.673 409.785 427.211 413.784C428.884 418.134 417.842 428.172 409.811 425.83Z" fill="#00D0C5" stroke="#263238" stroke-width="1.232" stroke-miterlimit="10"/>
<path d="M409.811 425.831L420.21 417.738" stroke="#263238" stroke-width="0.616" stroke-miterlimit="10"/>
<path d="M404.458 398.714L412.154 388.676" stroke="#263238" stroke-width="2.464" stroke-miterlimit="10"/>
<path d="M409.811 391.688C409.811 391.688 409.142 387.673 412.489 383.992C414.502 381.777 425.673 375.642 427.211 379.642C428.884 383.992 417.842 394.03 409.811 391.688Z" fill="#00D0C5" stroke="#263238" stroke-width="1.232" stroke-miterlimit="10"/>
<path d="M409.811 391.688L420.21 383.595" stroke="#263238" stroke-width="0.616" stroke-miterlimit="10"/>
<path d="M404.458 364.423L412.154 354.384" stroke="#263238" stroke-width="2.464" stroke-miterlimit="10"/>
<path d="M409.811 357.395C409.811 357.395 409.142 353.38 412.489 349.699C414.502 347.484 425.673 341.35 427.211 345.349C428.884 349.7 417.842 359.739 409.811 357.395Z" fill="#00D0C5" stroke="#263238" stroke-width="1.232" stroke-miterlimit="10"/>
<path d="M409.811 357.395L420.21 349.302" stroke="#263238" stroke-width="0.616" stroke-miterlimit="10"/>
<path d="M404.626 541.171L396.93 531.133" stroke="#263238" stroke-width="2.464" stroke-miterlimit="10"/>
<path d="M399.273 534.144C399.273 534.144 399.942 530.129 396.595 526.448C394.582 524.233 383.411 518.098 381.873 522.098C380.2 526.448 391.242 536.486 399.273 534.144Z" fill="#00D0C5" stroke="#263238" stroke-width="1.232" stroke-miterlimit="10"/>
<path d="M399.272 534.144L388.257 525.616" stroke="#263238" stroke-width="0.616" stroke-miterlimit="10"/>
<path d="M404.626 471.693L396.93 461.655" stroke="#263238" stroke-width="2.464" stroke-miterlimit="10"/>
<path d="M399.273 464.666C399.273 464.666 399.942 460.651 396.595 456.969C394.582 454.755 383.411 448.62 381.873 452.619C380.2 456.969 391.242 467.008 399.273 464.666Z" fill="#00D0C5" stroke="#263238" stroke-width="1.232" stroke-miterlimit="10"/>
<path d="M399.272 464.666L388.257 456.138" stroke="#263238" stroke-width="0.616" stroke-miterlimit="10"/>
<path d="M404.626 437.4L396.93 427.362" stroke="#263238" stroke-width="2.464" stroke-miterlimit="10"/>
<path d="M399.273 430.374C399.273 430.374 399.942 426.359 396.595 422.678C394.582 420.464 383.411 414.329 381.873 418.328C380.2 422.678 391.242 432.716 399.273 430.374Z" fill="#00D0C5" stroke="#263238" stroke-width="1.232" stroke-miterlimit="10"/>
<path d="M399.272 430.374L388.257 421.845" stroke="#263238" stroke-width="0.616" stroke-miterlimit="10"/>
<path d="M404.626 392.075L396.93 382.037" stroke="#263238" stroke-width="2.464" stroke-miterlimit="10"/>
<path d="M399.273 385.049C399.273 385.049 399.942 381.034 396.595 377.353C394.582 375.137 383.411 369.003 381.873 373.002C380.2 377.353 391.242 387.391 399.273 385.049Z" fill="#00D0C5" stroke="#263238" stroke-width="1.232" stroke-miterlimit="10"/>
<path d="M399.272 385.049L388.257 376.52" stroke="#263238" stroke-width="0.616" stroke-miterlimit="10"/>
<path d="M404.624 356.442L396.928 346.403" stroke="#263238" stroke-width="2.464" stroke-miterlimit="10"/>
<path d="M399.272 349.415C399.272 349.415 399.941 345.399 396.594 341.718C394.581 339.503 383.41 333.369 381.872 337.368C380.199 341.72 391.241 351.757 399.272 349.415Z" fill="#00D0C5" stroke="#263238" stroke-width="1.232" stroke-miterlimit="10"/>
<path d="M399.271 349.414L388.255 340.886" stroke="#263238" stroke-width="0.616" stroke-miterlimit="10"/>
<path d="M405.087 333.61C405.087 333.61 405.756 329.595 402.41 325.914C400.397 323.7 389.225 317.565 387.687 321.564C386.014 325.914 397.057 335.952 405.087 333.61Z" fill="#00D0C5" stroke="#263238" stroke-width="1.232" stroke-miterlimit="10"/>
<path d="M405.086 333.61L394.071 325.082" stroke="#263238" stroke-width="0.616" stroke-miterlimit="10"/>
<path d="M404.549 334.085C404.549 334.085 408.612 334.329 411.923 330.615C413.914 328.38 418.843 316.628 414.704 315.517C410.203 314.31 401.378 326.344 404.549 334.085Z" fill="#00D0C5" stroke="#263238" stroke-width="1.232" stroke-miterlimit="10"/>
<path d="M404.549 334.085L411.874 322.235" stroke="#263238" stroke-width="0.616" stroke-miterlimit="10"/>
<path d="M91.6566 567.113L98.7801 485.028H267.379L276.685 567.113H91.6566Z" fill="#263238" stroke="#263238" stroke-width="1.232" stroke-miterlimit="10"/>
<path d="M194.929 236.226C194.929 236.226 244.238 249.768 265.769 266.089C287.298 282.41 302.23 299.079 298.758 330.678C295.285 362.278 272.714 448.743 272.714 448.743C272.714 448.743 275.839 483.816 275.839 485.899C275.839 487.982 276.187 493.886 268.547 494.234C260.907 494.581 169.233 498.4 148.745 498.748C128.257 499.095 101.171 497.012 98.0457 494.581C94.9201 492.15 93.1842 488.331 92.8368 484.163C92.4893 479.997 89.0176 428.95 89.0176 428.95L88.6702 406.031C88.6702 406.031 66.0987 331.024 64.7102 306.717C63.3205 282.41 72.3499 274.423 82.4202 266.783C92.4906 259.143 123.823 246.21 140.759 241.086C157.693 235.962 194.929 236.226 194.929 236.226Z" fill="#03736D" stroke="#263238" stroke-width="1.232" stroke-miterlimit="10"/>
<path d="M182.767 352.764C185.275 386.587 189.731 448.918 189.336 459.591C188.789 474.371 194.81 478.751 194.81 484.225" stroke="#263238" stroke-width="1.232" stroke-miterlimit="10"/>
<path d="M181.125 330.948C181.125 330.948 181.569 336.709 182.249 345.808" stroke="#263238" stroke-width="1.232" stroke-miterlimit="10"/>
<path d="M159.117 374.397L155.964 411.602L138.307 410.341L159.117 374.397Z" fill="#263238" stroke="#263238" stroke-width="1.232" stroke-miterlimit="10"/>
<path d="M175.849 439.272C175.849 439.272 132.699 432.496 129.49 433.209C126.28 433.922 104.17 444.621 100.96 445.334C97.7509 446.048 94.8976 447.474 94.8976 447.474L90.0595 451.523L91.6882 439.273C91.6882 439.273 98.107 431.428 112.372 425.722C126.636 420.017 133.768 423.226 136.979 424.295C140.187 425.364 175.849 439.272 175.849 439.272Z" fill="#263238" stroke="#263238" stroke-width="1.232" stroke-miterlimit="10"/>
<path d="M242.156 406.726L129.993 406.378C129.993 406.378 93.8786 402.905 92.4901 402.559C91.1004 402.212 76.8635 406.032 75.475 407.073C74.0865 408.115 74.0865 411.24 74.7801 414.365C75.475 417.491 75.475 417.491 75.475 417.491C75.475 417.491 74.4327 423.047 74.4327 425.478C74.4327 427.909 77.2109 428.604 77.5583 429.645C77.9057 430.687 75.475 434.506 78.2531 436.937C81.0313 439.368 81.0313 439.368 81.0313 439.368C81.0313 439.368 81.3787 445.965 82.7672 447.702C84.1556 449.438 88.3235 452.564 90.0594 451.521C91.7953 450.479 91.1004 447.702 91.1004 445.965C91.1004 444.228 91.7953 442.492 93.8786 442.492C95.9619 442.492 96.3093 444.228 107.075 441.451C117.84 438.673 129.646 429.297 130.688 428.95C131.731 428.602 225.836 453.952 253.616 457.424C281.396 460.896 283.827 457.076 284.868 452.562C285.91 448.048 287.646 437.283 287.646 437.283L292.508 416.1L242.156 406.726Z" fill="white" stroke="#263238" stroke-width="1.232" stroke-miterlimit="10"/>
<path d="M169.255 276.922C169.255 276.922 163.462 270.825 159.803 273.569C156.144 276.312 152.79 290.947 148.217 289.728C143.644 288.508 134.498 260.154 134.498 248.873C134.498 237.593 142.424 230.885 144.254 230.275C146.083 229.665 192.73 229.055 198.219 231.19C203.708 233.326 205.841 252.532 207.975 264.118C210.109 275.704 205.232 278.448 202.182 276.924C199.133 275.4 187.243 270.521 184.499 270.521C181.756 270.52 169.255 276.922 169.255 276.922Z" fill="#03736D" stroke="#263238" stroke-width="1.232" stroke-miterlimit="10"/>
<path d="M138.031 212.659C138.031 212.659 142.401 234.263 144.1 239.604C145.799 244.944 158.179 261.208 161.336 264.607C164.492 268.006 173.716 284.755 176.143 285.241C178.57 285.726 185.367 262.908 185.367 262.908C185.367 262.908 194.106 247.858 195.806 243.974C197.505 240.089 200.176 228.681 200.176 228.681C200.176 228.681 185.854 241.061 170.56 238.391C155.266 235.722 147.498 220.428 147.498 220.428L138.031 212.659Z" fill="white" stroke="#263238" stroke-width="1.232" stroke-miterlimit="10"/>
<path d="M197.304 169.603C197.304 169.603 201.573 165.03 204.011 172.042C206.451 179.055 201.572 191.555 201.572 191.555L197.304 169.603Z" fill="white" stroke="#263238" stroke-width="1.232" stroke-miterlimit="10"/>
<path d="M196.532 155.369C196.532 155.369 203.572 205.376 203.572 208.289C203.572 211.202 205.514 220.912 202.601 227.223C199.689 233.535 190.949 241.303 183.909 242.274C176.87 243.244 163.033 241.788 155.265 235.719C147.498 229.65 138.516 216.542 138.516 216.542C138.516 216.542 128.806 215.086 122.494 212.415C116.183 209.745 111.327 203.676 111.57 197.365C111.813 191.053 115.697 186.198 115.697 186.198L119.339 179.401L109.628 161.194C109.628 161.194 115.212 150.756 133.176 140.804C151.139 130.851 167.16 127.695 174.685 127.695C182.21 127.695 191.678 130.851 194.348 136.919C197.018 142.989 196.532 155.369 196.532 155.369Z" fill="white" stroke="#263238" stroke-width="1.232" stroke-miterlimit="10"/>
<path d="M173.471 130.851C173.471 130.851 159.634 153.669 149.195 152.699C138.757 151.728 135.602 146.872 135.602 146.872L128.562 156.339C128.562 156.339 136.087 159.494 134.631 163.379C133.175 167.263 126.62 176.002 126.62 176.002L131.961 198.82C131.961 198.82 127.834 199.548 127.106 198.092C126.378 196.635 122.736 187.653 122.736 187.653C122.736 187.653 121.28 186.682 119.581 186.197C117.882 185.711 115.696 186.197 115.696 186.197C115.696 186.197 113.026 177.215 112.054 176.973C111.084 176.73 101.373 174.059 97.7324 164.592C94.0906 155.126 99.674 140.074 112.297 128.179C124.92 116.284 151.623 113.129 153.079 110.944C154.535 108.759 146.282 111.914 147.981 107.059C149.68 102.204 160.361 95.8922 173.955 102.689C187.549 109.486 185.607 117.011 184.151 119.438C182.695 121.865 182.695 121.865 182.695 121.865C182.695 121.865 194.104 117.981 202.115 122.836C210.125 127.691 214.01 137.401 210.368 138.372C206.726 139.342 202.115 137.158 202.115 137.158C202.115 137.158 206.97 145.169 205.513 146.867C204.056 148.566 196.531 155.363 196.531 155.363C196.531 155.363 193.619 138.37 187.55 135.943C181.481 133.516 173.471 130.851 173.471 130.851Z" fill="#263238" stroke="#263238" stroke-width="1.232" stroke-miterlimit="10"/>
<path d="M177.84 163.623L175.656 170.662L188.036 193.967L174.928 199.065" stroke="#263238" stroke-width="1.232" stroke-miterlimit="10"/>
<path d="M180.269 160.953C180.269 160.953 186.095 156.34 190.95 157.554C195.806 158.767 192.892 159.495 189.494 160.709C186.095 161.924 179.298 165.08 180.269 160.953Z" fill="#263238" stroke="#263238" stroke-width="1.232" stroke-miterlimit="10"/>
<path d="M162.305 159.982C162.305 159.982 167.889 161.438 165.218 162.652C162.548 163.865 154.536 161.438 151.381 162.652C148.225 163.865 144.099 167.993 144.342 166.051C144.584 164.109 146.526 160.225 150.896 158.769C155.266 157.311 162.305 159.982 162.305 159.982Z" fill="#263238" stroke="#263238" stroke-width="1.232" stroke-miterlimit="10"/>
<path d="M183.479 171.726C183.904 173.485 185.094 174.707 186.136 174.454C187.179 174.203 187.679 172.572 187.254 170.813C186.829 169.053 185.639 167.831 184.596 168.084C183.554 168.336 183.054 169.966 183.479 171.726Z" fill="#263238"/>
<path d="M157.017 178.645C157.442 180.404 158.632 181.626 159.674 181.373C160.717 181.121 161.217 179.491 160.792 177.732C160.367 175.972 159.177 174.75 158.134 175.003C157.092 175.255 156.592 176.885 157.017 178.645Z" fill="#263238"/>
<path d="M193.962 209.524C193.962 209.524 190.439 216.318 184.009 216.079C177.578 215.84 175.114 212.144 175.114 212.144" stroke="#263238" stroke-width="1.232" stroke-miterlimit="10"/>
<path d="M93.1818 260.88C93.1818 260.88 58.8041 274.076 52.2067 293.87C45.6094 313.663 53.9426 338.665 57.4156 349.083C60.8886 359.501 82.4178 400.13 85.8896 409.853C89.3626 419.576 94.5715 431.382 94.5715 431.382C94.5715 431.382 99.433 402.213 112.629 384.156C125.825 366.098 128.949 349.778 128.949 349.778C128.949 349.778 104.989 307.413 98.7381 294.217" fill="#03736D"/>
<path d="M93.1818 260.88C93.1818 260.88 58.8041 274.076 52.2067 293.87C45.6094 313.663 53.9426 338.665 57.4156 349.083C60.8886 359.501 82.4178 400.13 85.8896 409.853C89.3626 419.576 94.5715 431.382 94.5715 431.382C94.5715 431.382 99.433 402.213 112.629 384.156C125.825 366.098 128.949 349.778 128.949 349.778C128.949 349.778 104.989 307.413 98.7381 294.217" stroke="#263238" stroke-width="1.232" stroke-miterlimit="10"/>
<path d="M125.305 342.439C125.305 342.439 118.272 338.921 115.927 340.094C113.583 341.267 83.4925 357.288 79.5858 375.655C75.6779 394.021 81.5398 409.652 85.0571 416.295C88.5745 422.938 95.2174 435.833 100.297 437.396C105.376 438.96 109.676 397.147 120.227 375.263C130.777 353.38 125.305 342.439 125.305 342.439Z" fill="#03736D" stroke="#263238" stroke-width="1.232" stroke-miterlimit="10"/>
<path d="M113.67 322.344C113.67 322.344 107.419 301.162 104.988 292.827" stroke="#263238" stroke-width="1.232" stroke-miterlimit="10"/>
<path d="M176.384 247.129C176.384 247.129 186.095 233.535 193.62 224.554C201.145 215.572 208.913 210.232 211.584 210.96C214.253 211.688 215.225 214.358 213.525 217.514C211.826 220.67 203.815 227.709 202.358 229.652C200.902 231.593 198.717 238.633 198.717 238.633C198.717 238.633 205.756 239.118 206.97 240.575C208.183 242.031 209.883 245.915 209.883 245.915C209.883 245.915 212.311 247.129 213.524 249.072C214.738 251.013 214.738 251.499 214.98 252.47C215.223 253.44 218.622 255.139 218.378 259.509C218.135 263.879 214.008 270.191 212.552 273.103C211.096 276.016 200.414 288.881 198.473 291.067C196.531 293.251 185.364 312.671 182.452 319.226C179.539 325.78 151.379 401.76 143.126 413.169C134.873 424.579 119.579 435.502 111.326 439.386C103.073 443.271 97.2466 436.716 93.3621 428.462C89.4776 420.209 86.0798 403.701 93.6048 384.767C101.13 365.832 115.937 349.568 127.347 339.858C138.756 330.147 160.118 305.873 162.545 301.503C164.972 297.133 168.129 287.424 168.129 287.424C168.129 287.424 161.817 268.975 161.332 264.606C160.846 260.236 163.273 252.468 162.545 249.071C161.817 245.673 158.903 238.875 157.69 235.962C156.476 233.05 152.349 228.194 154.535 226.009C156.719 223.824 165.701 226.494 168.857 231.592C172.014 236.69 176.384 247.129 176.384 247.129Z" fill="white" stroke="#263238" stroke-width="1.232" stroke-miterlimit="10"/>
<path d="M251.416 299.699C250.682 295.842 250.142 293.174 250.142 293.174L251.416 299.699Z" fill="#03736D"/>
<path d="M251.416 299.699C250.682 295.842 250.142 293.174 250.142 293.174" stroke="#263238" stroke-width="1.232" stroke-miterlimit="10"/>
<path d="M253.613 259.838C253.613 259.838 272.018 262.269 291.117 282.757C310.215 303.245 301.882 351.86 300.145 361.93C298.409 372.001 295.631 402.905 295.631 402.905L246.669 386.585C246.669 386.585 254.656 332.067 255.351 327.205C255.702 324.748 254.367 316.083 252.962 308.112" fill="#03736D"/>
<path d="M253.613 259.838C253.613 259.838 272.018 262.269 291.117 282.757C310.215 303.245 301.882 351.86 300.145 361.93C298.409 372.001 295.631 402.905 295.631 402.905L246.669 386.585C246.669 386.585 254.656 332.067 255.351 327.205C255.702 324.748 254.367 316.083 252.962 308.112" stroke="#263238" stroke-width="1.232" stroke-miterlimit="10"/>
<path d="M300.492 392.141C300.492 392.141 295.631 418.185 293.2 419.574C290.769 420.964 252.919 410.546 248.752 409.851C244.585 409.157 242.155 410.199 242.155 406.726C242.155 403.253 245.628 386.932 247.711 384.154C249.794 381.376 294.937 387.28 298.757 388.321C302.576 389.363 300.492 392.141 300.492 392.141Z" fill="#03736D" stroke="#263238" stroke-width="1.232" stroke-miterlimit="10"/>
<path d="M272.762 372.013C258.717 377.604 247.71 384.154 247.71 384.154C247.71 384.154 259.516 361.93 264.378 357.416" stroke="#263238" stroke-width="1.232" stroke-miterlimit="10"/>
<path d="M279.312 369.57C277.918 370.054 276.54 370.555 275.186 371.07" stroke="#263238" stroke-width="1.232" stroke-miterlimit="10"/>
<path d="M165.425 483.249C156.444 480.047 148.177 476.521 143.188 473.051" stroke="#263238" stroke-width="1.232" stroke-miterlimit="10"/>
<path d="M207.776 495.622C207.776 495.622 188.59 491.071 170.384 484.963" stroke="#263238" stroke-width="1.232" stroke-miterlimit="10"/>
<path d="M127.086 471.608C136.52 476.309 151.466 483.195 163.675 486.247" stroke="#263238" stroke-width="1.232" stroke-miterlimit="10"/>
<path d="M117.84 466.801C117.84 466.801 119.775 467.87 122.983 469.526" stroke="#263238" stroke-width="1.232" stroke-miterlimit="10"/>
<path d="M442.675 26.1278C525.308 65.9313 540.984 182.809 488.573 253.055C477.618 267.738 463.297 280.118 446.338 287.309C388.408 311.872 342.024 263.04 313.795 218.177C268.729 146.553 263.096 128.848 263.901 140.921C264.705 152.993 243.782 165.869 231.71 102.291C216.279 21.0212 330.059 2.53994 387.652 10.1931C406.963 12.7582 425.666 17.935 442.675 26.1278Z" fill="#263238" stroke="#263238" stroke-width="1.232" stroke-miterlimit="10"/>
<path d="M257.71 163.421C262.556 172.169 262.228 181.617 256.98 184.525C251.731 187.432 243.548 182.697 238.703 173.948C233.858 165.2 234.185 155.751 239.434 152.844C244.682 149.938 252.865 154.672 257.71 163.421Z" fill="#263238" stroke="#263238" stroke-width="1.232" stroke-miterlimit="10"/>
<path d="M230.068 175.741C232.931 180.91 232.738 186.495 229.635 188.212C226.533 189.93 221.698 187.132 218.834 181.962C215.971 176.793 216.165 171.208 219.267 169.491C222.368 167.773 227.203 170.571 230.068 175.741Z" fill="#263238" stroke="#263238" stroke-width="1.232" stroke-miterlimit="10"/>
<path d="M437.915 18.514C520.549 58.3175 536.223 175.195 483.813 245.442C472.858 260.125 458.536 272.506 441.577 279.697C383.649 304.259 337.264 255.428 309.035 210.564C263.969 138.941 258.336 121.236 259.14 133.308C259.945 145.379 239.022 158.255 226.949 94.6787C211.519 13.4086 325.299 -5.0726 382.892 2.58058C402.203 5.14437 420.907 10.3212 437.915 18.514Z" fill="#2F615E" stroke="#263238" stroke-width="1.232" stroke-miterlimit="10"/>
<path d="M252.953 155.807C257.798 164.555 257.47 174.004 252.222 176.911C246.974 179.819 238.791 175.083 233.945 166.334C229.1 157.586 229.427 148.138 234.676 145.23C239.924 142.324 248.107 147.058 252.953 155.807Z" fill="white" stroke="#263238" stroke-width="1.232" stroke-miterlimit="10"/>
<path d="M225.308 168.128C228.171 173.298 227.978 178.882 224.876 180.6C221.773 182.318 216.938 179.519 214.075 174.35C211.211 169.18 211.405 163.596 214.507 161.878C217.609 160.16 222.445 162.957 225.308 168.128Z" fill="white" stroke="#263238" stroke-width="1.232" stroke-miterlimit="10"/>
<path d="M296.835 139.494H485.775C485.783 139.546 485.788 139.599 485.795 139.651C484.86 139.758 483.924 139.866 482.988 139.973C482.988 139.997 482.988 140.02 482.99 140.044H484.933C484.935 140.087 484.937 140.13 484.939 140.175C483.001 140.385 481.063 140.602 479.124 140.802C474.39 141.29 469.655 141.777 464.919 142.254C461.554 142.592 458.185 142.909 454.82 143.251C450.769 143.665 446.722 144.108 442.672 144.516C439.245 144.86 435.815 145.167 432.389 145.498C428.695 145.854 425 146.239 421.304 146.57C418.023 146.866 414.739 147.115 411.455 147.369C407.547 147.671 403.638 147.974 399.728 148.241C397.189 148.415 394.644 148.546 392.101 148.668C386.895 148.919 381.689 149.151 376.483 149.386C374.839 149.461 373.192 149.558 371.545 149.579C361.085 149.712 350.624 149.884 340.164 149.923C334.981 149.942 329.791 149.826 324.616 149.553C319.357 149.276 314.105 148.818 308.868 148.267C305.773 147.942 302.708 147.287 299.91 145.725C297.691 144.486 296.361 141.84 296.835 139.494Z" fill="white"/>
<path d="M445.872 126.827C445.907 126.466 446.223 126.196 446.586 126.213C456.767 126.672 462.756 126.657 472.943 126.211C473.296 126.195 473.606 126.451 473.652 126.801C474.055 129.933 474.059 131.924 473.644 135.073C473.602 135.392 473.336 135.638 473.014 135.661C462.865 136.368 456.875 136.411 446.495 135.662C446.172 135.639 445.906 135.39 445.867 135.068C445.49 131.931 445.568 129.942 445.872 126.827Z" fill="white"/>
<path d="M445.959 105.861C445.986 105.493 446.304 105.213 446.673 105.23C456.78 105.686 462.738 105.671 472.844 105.229C473.216 105.213 473.535 105.498 473.556 105.87C473.742 109.19 473.76 111.183 473.561 114.004C473.537 114.344 473.261 114.612 472.922 114.632C462.851 115.223 456.886 115.244 446.577 114.631C446.249 114.611 445.978 114.358 445.942 114.031C445.615 110.996 445.733 108.995 445.959 105.861Z" fill="white"/>
<path d="M444.92 112.018C445.723 111.891 446.212 111.857 446.616 112.181L447.888 113.432C448.359 113.895 448.109 114.675 447.449 114.67C446.813 114.666 446.03 114.597 444.898 114.447C444.622 114.41 444.378 114.236 444.283 113.974C444.062 113.368 444.076 112.929 444.391 112.369C444.5 112.175 444.7 112.053 444.92 112.018Z" fill="white"/>
<path d="M474.586 112.017C473.856 111.9 473.39 111.866 472.947 112.142C472.907 112.167 472.87 112.198 472.837 112.231L471.59 113.458C471.124 113.916 471.365 114.681 472.017 114.674C472.64 114.667 473.433 114.597 474.603 114.445C474.88 114.409 475.126 114.235 475.221 113.972C475.441 113.366 475.427 112.928 475.112 112.368C475.003 112.175 474.804 112.053 474.586 112.017Z" fill="white"/>
<path d="M445.913 96.1255C445.965 95.3795 446.579 94.7958 447.327 94.7771C456.104 94.5571 461.95 94.5244 472.18 94.777C472.934 94.7956 473.553 95.3906 473.592 96.1446C473.731 98.8225 473.744 100.647 473.605 102.943C473.561 103.668 472.975 104.241 472.249 104.282C462.788 104.824 456.911 104.842 447.219 104.28C446.518 104.239 445.942 103.701 445.878 103.002C445.651 100.52 445.734 98.682 445.913 96.1255Z" fill="white"/>
<path d="M444.92 101.629C445.723 101.502 446.212 101.468 446.616 101.792L447.888 103.044C448.359 103.506 448.109 104.286 447.449 104.281C446.813 104.277 446.03 104.208 444.898 104.058C444.622 104.021 444.378 103.847 444.283 103.585C444.062 102.979 444.076 102.541 444.391 101.98C444.5 101.786 444.7 101.664 444.92 101.629Z" fill="white"/>
<path d="M474.586 101.629C473.856 101.511 473.39 101.477 472.947 101.753C472.907 101.778 472.87 101.809 472.837 101.842L471.59 103.069C471.124 103.527 471.365 104.292 472.017 104.285C472.64 104.279 473.433 104.208 474.603 104.057C474.88 104.021 475.126 103.846 475.221 103.583C475.441 102.978 475.427 102.539 475.112 101.979C475.003 101.786 474.804 101.664 474.586 101.629Z" fill="white"/>
<path d="M445.959 116.249C445.986 115.881 446.304 115.601 446.673 115.618C456.78 116.074 462.738 116.059 472.844 115.617C473.216 115.601 473.535 115.886 473.556 116.258C473.742 119.579 473.76 121.572 473.561 124.393C473.537 124.732 473.261 125 472.922 125.02C462.851 125.611 456.886 125.632 446.577 125.019C446.249 124.999 445.978 124.747 445.942 124.42C445.615 121.385 445.733 119.384 445.959 116.249Z" fill="white"/>
<path d="M444.92 122.406C445.723 122.279 446.212 122.244 446.616 122.569L447.888 123.82C448.359 124.283 448.109 125.063 447.449 125.058C446.813 125.054 446.03 124.985 444.898 124.835C444.622 124.798 444.378 124.623 444.283 124.362C444.062 123.756 444.076 123.317 444.391 122.757C444.5 122.563 444.7 122.441 444.92 122.406Z" fill="white"/>
<path d="M445.336 133.093C446.139 132.965 446.628 132.931 447.032 133.256L448.304 134.507C448.775 134.97 448.525 135.749 447.865 135.745C447.229 135.74 446.446 135.671 445.314 135.521C445.038 135.485 444.794 135.31 444.699 135.049C444.478 134.443 444.492 134.004 444.807 133.444C444.916 133.25 445.116 133.128 445.336 133.093Z" fill="white"/>
<path d="M474.586 122.405C473.856 122.288 473.39 122.254 472.947 122.53C472.907 122.555 472.87 122.586 472.837 122.619L471.59 123.846C471.124 124.304 471.365 125.069 472.017 125.062C472.64 125.055 473.433 124.985 474.603 124.833C474.88 124.797 475.126 124.623 475.221 124.36C475.441 123.754 475.427 123.316 475.112 122.755C475.003 122.563 474.804 122.44 474.586 122.405Z" fill="white"/>
<path d="M474.456 133.086C473.726 132.969 473.26 132.935 472.817 133.211C472.777 133.236 472.741 133.267 472.707 133.3L471.46 134.527C470.994 134.985 471.235 135.75 471.887 135.743C472.51 135.736 473.303 135.666 474.473 135.514C474.75 135.479 474.996 135.304 475.091 135.041C475.312 134.436 475.297 133.997 474.982 133.437C474.873 133.244 474.674 133.122 474.456 133.086Z" fill="white"/>
<path fill-rule="evenodd" clip-rule="evenodd" d="M467.333 100.417H451.959V92.3139C451.959 89.5601 454.191 87.3276 456.945 87.3276H462.347C465.101 87.3276 467.333 89.5601 467.333 92.3139V100.417ZM456.945 89.613C455.454 89.613 454.244 90.8222 454.244 92.3139V98.1312H465.048V92.3139C465.048 90.8222 463.839 89.613 462.347 89.613H456.945Z" fill="white"/>
<g style="mix-blend-mode:darken">
<rect x="468.581" y="94.5989" width="3.32419" height="41.5523" fill="#D9D9D9"/>
</g>
<g style="mix-blend-mode:darken">
<rect x="467.335" y="94.5989" width="0.831047" height="41.5523" fill="#D9D9D9"/>
</g>
<g style="mix-blend-mode:darken">
<rect x="464.462" y="94.7031" width="0.415523" height="41.5523" fill="#D9D9D9"/>
</g>
<path d="M314.864 131.652C312.775 131.652 310.759 131.397 308.815 130.887C306.896 130.352 305.329 129.672 304.115 128.846L306.483 123.526C307.625 124.255 308.937 124.862 310.419 125.348C311.925 125.81 313.419 126.04 314.901 126.04C315.897 126.04 316.698 125.955 317.305 125.785C317.913 125.591 318.35 125.348 318.617 125.057C318.909 124.741 319.055 124.376 319.055 123.963C319.055 123.38 318.787 122.919 318.253 122.579C317.718 122.239 317.026 121.959 316.176 121.741C315.326 121.522 314.378 121.303 313.334 121.085C312.313 120.866 311.281 120.587 310.236 120.247C309.216 119.906 308.281 119.469 307.43 118.935C306.58 118.376 305.888 117.659 305.353 116.785C304.819 115.886 304.552 114.756 304.552 113.396C304.552 111.866 304.965 110.481 305.791 109.242C306.641 108.003 307.904 107.007 309.58 106.254C311.257 105.501 313.346 105.124 315.848 105.124C317.524 105.124 319.164 105.319 320.767 105.707C322.395 106.072 323.84 106.618 325.103 107.347L322.881 112.704C321.666 112.048 320.464 111.562 319.273 111.246C318.083 110.906 316.929 110.736 315.811 110.736C314.815 110.736 314.014 110.845 313.407 111.064C312.799 111.258 312.362 111.525 312.095 111.866C311.827 112.206 311.694 112.594 311.694 113.032C311.694 113.59 311.949 114.04 312.459 114.38C312.994 114.696 313.686 114.963 314.536 115.182C315.411 115.376 316.358 115.582 317.378 115.801C318.423 116.02 319.455 116.299 320.476 116.639C321.52 116.955 322.468 117.392 323.318 117.951C324.168 118.485 324.848 119.202 325.359 120.101C325.893 120.975 326.16 122.081 326.16 123.417C326.16 124.899 325.735 126.271 324.885 127.534C324.059 128.773 322.808 129.769 321.132 130.522C319.48 131.275 317.391 131.652 314.864 131.652ZM337.983 131.47C335.457 131.47 333.489 130.85 332.08 129.611C330.671 128.348 329.967 126.453 329.967 123.927V106.983H336.89V123.854C336.89 124.559 337.084 125.117 337.473 125.53C337.862 125.919 338.36 126.113 338.967 126.113C339.793 126.113 340.498 125.907 341.081 125.494L342.793 130.34C342.21 130.729 341.494 131.008 340.643 131.178C339.793 131.373 338.906 131.47 337.983 131.47ZM327.088 117.295V112.121H341.409V117.295H327.088ZM353.771 131.47C352.168 131.47 350.722 131.154 349.435 130.522C348.172 129.891 347.176 128.907 346.447 127.571C345.742 126.21 345.39 124.498 345.39 122.433V111.392H352.314V121.303C352.314 122.834 352.593 123.927 353.152 124.583C353.735 125.239 354.548 125.567 355.593 125.567C356.273 125.567 356.893 125.409 357.451 125.093C358.01 124.777 358.46 124.279 358.8 123.599C359.14 122.894 359.31 121.996 359.31 120.902V111.392H366.233V131.142H359.638V125.567L360.913 127.134C360.233 128.591 359.249 129.684 357.962 130.413C356.674 131.118 355.277 131.47 353.771 131.47ZM371.494 131.142V111.61C371.494 109.23 372.199 107.335 373.608 105.926C375.041 104.493 377.082 103.776 379.73 103.776C380.58 103.776 381.418 103.861 382.244 104.031C383.07 104.201 383.762 104.456 384.321 104.796L382.608 109.679C382.317 109.509 381.989 109.376 381.625 109.278C381.26 109.157 380.896 109.096 380.531 109.096C379.803 109.096 379.232 109.315 378.819 109.752C378.43 110.165 378.236 110.809 378.236 111.683V113.104L378.418 115.983V131.142H371.494ZM368.616 117.295V112.121H382.936V117.295H368.616ZM386.298 131.142V111.61C386.298 109.23 387.002 107.335 388.411 105.926C389.845 104.493 391.885 103.776 394.533 103.776C395.383 103.776 396.221 103.861 397.047 104.031C397.873 104.201 398.566 104.456 399.124 104.796L397.412 109.679C397.12 109.509 396.792 109.376 396.428 109.278C396.064 109.157 395.699 109.096 395.335 109.096C394.606 109.096 394.035 109.315 393.622 109.752C393.233 110.165 393.039 110.809 393.039 111.683V113.104L393.221 115.983V131.142H386.298ZM383.419 117.295V112.121H397.74V117.295H383.419ZM400.91 131.142V111.392H407.833V131.142H400.91ZM404.372 109.206C403.108 109.206 402.088 108.853 401.311 108.149C400.533 107.444 400.145 106.57 400.145 105.525C400.145 104.481 400.533 103.606 401.311 102.902C402.088 102.197 403.108 101.845 404.372 101.845C405.635 101.845 406.655 102.185 407.433 102.865C408.21 103.521 408.599 104.371 408.599 105.416C408.599 106.509 408.21 107.42 407.433 108.149C406.679 108.853 405.659 109.206 404.372 109.206ZM425.19 111.064C426.721 111.064 428.105 111.38 429.344 112.011C430.583 112.619 431.555 113.566 432.259 114.854C432.988 116.141 433.353 117.805 433.353 119.846V131.142H426.429V120.975C426.429 119.566 426.138 118.546 425.555 117.914C424.996 117.259 424.206 116.931 423.186 116.931C422.457 116.931 421.789 117.101 421.182 117.441C420.575 117.757 420.101 118.255 419.761 118.935C419.421 119.615 419.251 120.502 419.251 121.595V131.142H412.327V111.392H418.923V117.003L417.647 115.364C418.4 113.93 419.433 112.862 420.745 112.157C422.057 111.428 423.538 111.064 425.19 111.064Z" fill="white"/>
</svg>
