<svg width="163" height="151" viewBox="0 0 163 151" fill="none" xmlns="http://www.w3.org/2000/svg">
<path fill-rule="evenodd" clip-rule="evenodd" d="M5.64881 80.6225C-10.244 113.104 12.6516 149.963 63.5424 150.258C114.433 150.553 172.64 140.902 160.807 107.177C148.974 73.4527 104.518 106.991 80.6076 80.0911C56.6968 53.1914 21.5416 48.1414 5.64881 80.6225Z" fill="#03736D" fill-opacity="0.4"/>
<path fill-rule="evenodd" clip-rule="evenodd" d="M64.6542 29.8115C71.8359 47.7713 113.103 54.9949 119.399 43.0772C125.695 31.1595 106.556 29.2734 95.7195 12.9669C84.8826 -3.33952 57.4725 11.8517 64.6542 29.8115Z" fill="#03736D" fill-opacity="0.4"/>
<path fill-rule="evenodd" clip-rule="evenodd" d="M79.5634 128.503C107.536 128.503 130.213 105.826 130.213 77.8535C130.213 49.8806 107.536 27.2041 79.5634 27.2041C51.5905 27.2041 28.9141 49.8806 28.9141 77.8535C28.9141 105.826 51.5905 128.503 79.5634 128.503Z" fill="#7D6E74"/>
<path fill-rule="evenodd" clip-rule="evenodd" d="M79.2389 128.477C52.0173 127.62 30.2129 105.283 30.2129 77.8534C30.2129 50.4237 52.0173 28.0867 79.2389 27.2296C106.46 28.0867 128.265 50.4237 128.265 77.8534C128.265 105.283 106.46 127.62 79.2389 128.477Z" fill="white"/>
<path fill-rule="evenodd" clip-rule="evenodd" d="M77.94 128.477C50.7185 127.62 28.9141 105.283 28.9141 77.8534C28.9141 50.4237 50.7185 28.0867 77.94 27.2296C105.162 28.0867 126.966 50.4237 126.966 77.8534C126.966 105.283 105.162 127.62 77.94 128.477Z" fill="#5A4F53"/>
<path fill-rule="evenodd" clip-rule="evenodd" d="M79.2391 123.957C104.881 123.957 125.668 103.171 125.668 77.5288C125.668 51.887 104.881 31.1002 79.2391 31.1002C53.5973 31.1002 32.8105 51.887 32.8105 77.5288C32.8105 103.171 53.5973 123.957 79.2391 123.957Z" fill="#393035"/>
<path fill-rule="evenodd" clip-rule="evenodd" d="M79.0667 123.957C53.4992 123.835 32.8105 103.095 32.8105 77.5291C32.8105 51.8871 53.6217 31.1002 79.2935 31.1002C90.9477 31.1002 101.6 35.3841 109.759 42.4614C106.523 42.2007 102.627 42.3071 97.991 43.2055C76.2465 47.4194 65.9217 74.8716 63.8449 95.2358C62.4054 109.351 72.1614 119.226 79.0667 123.957Z" fill="#35242E"/>
<path fill-rule="evenodd" clip-rule="evenodd" d="M47.2055 60.8735C47.0801 61.2447 47.3346 61.6193 47.7236 61.6661L66.2983 63.9C66.6969 63.9479 67.0362 63.6312 66.9811 63.2335C66.6667 60.9634 65.1503 54.2921 58.1201 52.9094C50.9789 51.5049 47.9823 58.5728 47.2055 60.8735Z" fill="#EC923D"/>
<path fill-rule="evenodd" clip-rule="evenodd" d="M47.9946 61.5643C46.705 61.5643 47.3192 60.3545 47.5811 59.6122C49.5111 54.1413 53.0244 51.907 58.121 52.9094C63.1019 53.889 66.0069 56.8596 66.8362 61.8212C66.8622 61.9772 66.8659 62.1362 66.847 62.2933C66.7375 63.2038 65.9105 63.8532 65 63.7437L64.971 63.7402C63.8928 59.7795 61.8559 57.4446 58.8603 56.7356C55.5531 55.9529 52.0173 57.5625 48.2529 61.5643L47.9946 61.5643Z" fill="#D37928"/>
<path fill-rule="evenodd" clip-rule="evenodd" d="M75.5786 61.9157C75.9709 61.9268 76.2551 61.5729 76.1853 61.1867L72.8738 42.8898C72.8026 42.4962 72.4025 42.265 72.0388 42.4315C69.9545 43.3858 63.972 46.7651 64.7099 53.8562C65.459 61.0534 73.1401 61.8462 75.5786 61.9157Z" fill="#EC923D"/>
<path fill-rule="evenodd" clip-rule="evenodd" d="M75.9332 60.7203C75.73 61.4431 75.0444 61.9592 74.2535 61.926L74.2535 61.926C68.4256 61.6814 65.2444 58.9915 64.7099 53.8562C64.1876 48.8376 66.19 45.2134 70.7171 42.9835C70.8595 42.9134 71.0112 42.8638 71.1678 42.8361C72.0756 42.6756 72.9431 43.2728 73.1055 44.1701L73.1107 44.1987C69.6191 46.3743 67.9728 48.9886 68.1717 52.0418C68.3914 55.4125 70.9785 58.3053 75.9332 60.7203Z" fill="#D37928"/>
<path fill-rule="evenodd" clip-rule="evenodd" d="M72.8332 57.3854C72.8423 57.7771 73.2096 58.0421 73.5912 57.953L91.8097 53.6992C92.2007 53.6079 92.4111 53.1942 92.2233 52.8394C91.1515 50.8137 87.4449 45.0634 80.3657 46.1686C73.1748 47.2912 72.7763 54.9577 72.8332 57.3854Z" fill="#EC923D"/>
<path fill-rule="evenodd" clip-rule="evenodd" d="M74.223 57.5561C73.4861 57.3925 72.9318 56.7387 72.924 55.9515L72.924 55.9515C72.8665 50.1504 75.4037 46.8493 80.5358 46.0481C85.5513 45.2651 89.2972 47.063 91.7734 51.4417C91.8513 51.5794 91.909 51.7275 91.945 51.8816C92.1535 52.7747 91.5986 53.6678 90.7054 53.8763L90.677 53.8829C88.3092 50.5298 85.5966 49.0323 82.5391 49.3907C79.1637 49.7863 76.3916 52.5081 74.223 57.5561Z" fill="#D37928"/>
<path fill-rule="evenodd" clip-rule="evenodd" d="M80.146 37.0408C79.3057 37.8627 79.5837 39.1926 80.6132 39.7599L94.36 47.3353C95.4149 47.9166 96.7101 47.3969 96.8832 46.2049C97.3118 43.2551 97.2082 38.0651 92.2383 34.822C87.0956 31.4661 82.4291 34.808 80.146 37.0408Z" fill="#EC923D"/>
<path fill-rule="evenodd" clip-rule="evenodd" d="M80.0527 39.1738C79.6147 38.5591 79.6403 37.7023 80.1612 37.1121L80.1612 37.1121C84.0001 32.7626 88.0945 32.0071 92.4445 34.8458C96.6957 37.6199 98.2764 41.4625 97.1866 46.3734C97.1524 46.5278 97.0962 46.6766 97.0198 46.8151C96.5772 47.6184 95.5672 47.9107 94.7639 47.4681L94.7383 47.454C95.2225 43.3777 94.2086 40.4498 91.6966 38.6703C88.9234 36.7057 85.0421 36.8735 80.0527 39.1738Z" fill="#D37928"/>
<path fill-rule="evenodd" clip-rule="evenodd" d="M111.544 77.2041C115.938 77.2041 119.499 73.6427 119.499 69.2495C119.499 64.8564 115.938 61.295 111.544 61.295C107.151 61.295 103.59 64.8564 103.59 69.2495C103.59 73.6427 107.151 77.2041 111.544 77.2041Z" fill="#D83134"/>
<path fill-rule="evenodd" clip-rule="evenodd" d="M111.543 76.5547C115.578 76.5547 118.849 73.2841 118.849 69.2495C118.849 65.215 115.578 61.9443 111.543 61.9443C107.509 61.9443 104.238 65.215 104.238 69.2495C104.238 73.2841 107.509 76.5547 111.543 76.5547Z" fill="#F04649"/>
<path fill-rule="evenodd" clip-rule="evenodd" d="M89.2851 75.8729L92.0176 71.1401C92.8567 69.6868 94.6596 69.1044 96.1902 69.7923C97.3462 70.3118 98.6983 70.1166 99.6601 69.2913L100.04 68.9657C101.693 67.5475 104.172 67.6884 105.655 69.2834C105.916 69.5646 106.087 69.7485 106.087 69.7485C106.087 69.7485 106.58 69.6025 107.242 69.406C109.098 68.8556 111.032 69.9991 111.442 71.8911L111.469 72.0129C111.83 73.6802 110.819 75.3376 109.171 75.779L108.555 75.944C107.611 76.1968 106.93 77.0187 106.857 77.993C106.753 79.3874 105.439 80.3665 104.073 80.0669L101.044 79.4026C99.956 79.1639 98.8874 79.8779 98.6916 80.9748C98.412 82.5404 96.4841 83.1409 95.3649 82.011L89.2851 75.8729Z" fill="url(#paint0_linear_548_36937)"/>
<path d="M93.4219 77.0019L111.545 71.7774" stroke="white" stroke-width="0.324675"/>
<path d="M97.4219 75.9469L101.416 79.3089" stroke="white" stroke-width="0.324675" stroke-linecap="round"/>
<path d="M100.992 74.7456L102.482 68.677" stroke="white" stroke-width="0.324675" stroke-linecap="round"/>
<path d="M104.975 73.6327L108.379 76.1928" stroke="white" stroke-width="0.324675" stroke-linecap="round"/>
<path fill-rule="evenodd" clip-rule="evenodd" d="M92.8824 84.1644L97.1296 80.7251C98.4337 79.669 100.326 79.7715 101.508 80.9622C102.401 81.8614 103.733 82.1637 104.927 81.738L105.398 81.57C107.449 80.8384 109.713 81.8583 110.526 83.8789C110.67 84.2352 110.763 84.4681 110.763 84.4681C110.763 84.4681 111.276 84.5083 111.964 84.5623C113.894 84.7136 115.29 86.4741 114.995 88.3874L114.976 88.5106C114.716 90.1967 113.178 91.3817 111.481 91.2032L110.847 91.1364C109.875 91.0342 108.945 91.5575 108.528 92.441C107.931 93.7054 106.353 94.1483 105.185 93.3792L102.596 91.6737C101.665 91.0608 100.412 91.3445 99.8358 92.2983C99.0137 93.6598 96.9986 93.5295 96.3587 92.0735L92.8824 84.1644Z" fill="#95B53B"/>
<path d="M96.3387 86.7007L115.131 88.3181" stroke="white" stroke-width="0.324675"/>
<path d="M96.3382 86.5827L101.279 80.5762" stroke="white" stroke-width="0.324675" stroke-linecap="round"/>
<path d="M100.451 87.1492L102.975 91.7191" stroke="white" stroke-width="0.324675" stroke-linecap="round"/>
<path d="M104.215 87.3077L108.297 81.2626" stroke="white" stroke-width="0.324675" stroke-linecap="round"/>
<path d="M108.332 87.6958L110.593 91.306" stroke="white" stroke-width="0.324675" stroke-linecap="round"/>
<path fill-rule="evenodd" clip-rule="evenodd" d="M89.5123 90.1639L94.4243 87.7682C95.9325 87.0326 97.7528 87.5579 98.6372 88.9841C99.305 90.0612 100.535 90.6555 101.794 90.5092L102.291 90.4514C104.454 90.2 106.431 91.7031 106.768 93.8547C106.828 94.2342 106.867 94.4822 106.867 94.4822C106.867 94.4822 107.357 94.6366 108.016 94.8442C109.862 95.4257 110.826 97.455 110.108 99.2529L110.062 99.3687C109.429 100.953 107.664 101.762 106.051 101.206L105.448 100.998C104.524 100.68 103.5 100.981 102.895 101.748C102.029 102.846 100.391 102.922 99.4266 101.91L97.2874 99.6658C96.5186 98.8593 95.2335 98.8537 94.4577 99.6536C93.3505 100.795 91.4163 100.215 91.1203 98.6524L89.5123 90.1639Z" fill="url(#paint1_linear_548_36937)"/>
<path d="M92.309 93.4129L110.255 99.2161" stroke="white" stroke-width="0.324675"/>
<path d="M92.3361 93.2979L98.5016 88.5568" stroke="white" stroke-width="0.324675" stroke-linecap="round"/>
<path d="M96.2168 94.775L97.6477 99.7954" stroke="white" stroke-width="0.324675" stroke-linecap="round"/>
<path d="M99.849 95.7762L105.186 90.8042" stroke="white" stroke-width="0.324675" stroke-linecap="round"/>
<path d="M103.771 97.0804L105.162 101.107" stroke="white" stroke-width="0.324675" stroke-linecap="round"/>
<path fill-rule="evenodd" clip-rule="evenodd" d="M68.5107 90.8188L72.4419 94.6151C73.6491 95.7808 73.7779 97.671 72.7402 98.9898C71.9565 99.9858 71.8188 101.345 72.3869 102.478L72.611 102.925C73.5872 104.872 72.8507 107.243 70.9443 108.296C70.6082 108.482 70.3884 108.604 70.3884 108.604C70.3884 108.604 70.4109 109.117 70.4413 109.807C70.5263 111.741 68.949 113.341 67.014 113.281L66.8894 113.277C65.1842 113.225 63.8206 111.843 63.791 110.137L63.7799 109.499C63.763 108.522 63.1303 107.663 62.2025 107.356C60.8747 106.918 60.2428 105.405 60.8639 104.153L62.2411 101.375C62.736 100.377 62.3017 99.167 61.2848 98.7116C59.8333 98.0616 59.717 96.0456 61.0841 95.233L68.5107 90.8188Z" fill="url(#paint2_linear_548_36937)"/>
<path d="M66.4151 94.5591L67.0999 113.408" stroke="white" stroke-width="0.324675"/>
<path d="M66.5314 94.5448L73.0953 98.7169" stroke="white" stroke-width="0.324675" stroke-linecap="round"/>
<path d="M66.4707 98.6955L62.2425 101.757" stroke="white" stroke-width="0.324675" stroke-linecap="round"/>
<path d="M66.7715 102.451L73.2689 105.766" stroke="white" stroke-width="0.324675" stroke-linecap="round"/>
<path d="M66.8887 106.585L63.581 109.269" stroke="white" stroke-width="0.324675" stroke-linecap="round"/>
<path fill-rule="evenodd" clip-rule="evenodd" d="M66.595 88.7539L67.6534 94.7569C67.9785 96.6002 66.8555 98.3903 65.0545 98.9C63.6944 99.2849 62.6791 100.421 62.4489 101.816L62.3581 102.366C61.9625 104.763 59.7433 106.42 57.3325 106.121C56.9074 106.068 56.6295 106.033 56.6295 106.033C56.6295 106.033 56.3134 106.511 55.8882 107.154C54.6969 108.955 52.225 109.364 50.518 108.042L50.4081 107.957C48.9038 106.791 48.5794 104.65 49.671 103.091L50.0792 102.509C50.7044 101.616 50.6969 100.426 50.0606 99.5409C49.1499 98.2748 49.5713 96.4957 50.953 95.7724L54.0168 94.1688C55.1179 93.5925 55.519 92.2163 54.9 91.1387C54.0163 89.6005 55.2331 87.7051 56.9995 87.8682L66.595 88.7539Z" fill="#95B53B"/>
<path d="M62.2454 90.8348L50.5816 108.251" stroke="white" stroke-width="0.324675"/>
<path d="M62.3853 90.776L65.6004 98.9137" stroke="white" stroke-width="0.324675" stroke-linecap="round"/>
<path d="M59.7324 94.7042L53.746 94.6413" stroke="white" stroke-width="0.324675" stroke-linecap="round"/>
<path d="M57.4045 97.9387L61.0988 105.325" stroke="white" stroke-width="0.324675" stroke-linecap="round"/>
<path d="M54.9492 101.845L50.0864 102.111" stroke="white" stroke-width="0.324675" stroke-linecap="round"/>
<path opacity="0.30106" fill-rule="evenodd" clip-rule="evenodd" d="M102.29 72.9833C107.311 72.9833 111.381 68.9132 111.381 63.8924C111.381 58.8717 107.311 54.8015 102.29 54.8015C97.2694 54.8015 93.1992 58.8717 93.1992 63.8924C93.1992 68.9132 97.2694 72.9833 102.29 72.9833Z" fill="#754238"/>
<path fill-rule="evenodd" clip-rule="evenodd" d="M100.991 72.0093C106.012 72.0093 110.082 67.9391 110.082 62.9184C110.082 57.8976 106.012 53.8275 100.991 53.8275C95.9705 53.8275 91.9004 57.8976 91.9004 62.9184C91.9004 67.9391 95.9705 72.0093 100.991 72.0093Z" fill="#FE5F41"/>
<path fill-rule="evenodd" clip-rule="evenodd" d="M100.992 71.3599C105.654 71.3599 109.434 67.5805 109.434 62.9184C109.434 58.2562 105.654 54.4768 100.992 54.4768C96.3302 54.4768 92.5508 58.2562 92.5508 62.9184C92.5508 67.5805 96.3302 71.3599 100.992 71.3599Z" fill="#FE7B62"/>
<path fill-rule="evenodd" clip-rule="evenodd" d="M101.155 70.7106C105.369 70.7106 108.785 67.2946 108.785 63.0807C108.785 58.8669 105.369 55.4509 101.155 55.4509C96.9414 55.4509 93.5254 58.8669 93.5254 63.0807C93.5254 67.2946 96.9414 70.7106 101.155 70.7106Z" fill="#FF8E79"/>
<path opacity="0.30106" fill-rule="evenodd" clip-rule="evenodd" d="M108.46 65.8405C111.867 65.8405 114.629 63.0786 114.629 59.6716C114.629 56.2647 111.867 53.5028 108.46 53.5028C105.053 53.5028 102.291 56.2647 102.291 59.6716C102.291 63.0786 105.053 65.8405 108.46 65.8405Z" fill="#754238"/>
<path fill-rule="evenodd" clip-rule="evenodd" d="M109.759 64.5418C113.166 64.5418 115.928 61.7799 115.928 58.3729C115.928 54.966 113.166 52.2041 109.759 52.2041C106.352 52.2041 103.59 54.966 103.59 58.3729C103.59 61.7799 106.352 64.5418 109.759 64.5418Z" fill="#FF9985"/>
<path opacity="0.5" fill-rule="evenodd" clip-rule="evenodd" d="M109.758 63.8924C112.806 63.8924 115.277 61.4213 115.277 58.3729C115.277 55.3246 112.806 52.8535 109.758 52.8535C106.709 52.8535 104.238 55.3246 104.238 58.3729C104.238 61.4213 106.709 63.8924 109.758 63.8924Z" fill="#FFC4B9"/>
<path fill-rule="evenodd" clip-rule="evenodd" d="M91.5042 64.3C91.7924 64.5655 92.2381 64.4853 92.439 64.149L101.445 49.0767C101.959 48.215 101.566 47.1209 100.583 46.9179C97.7375 46.3302 92.2342 46.0205 88.668 51.0897C84.4804 57.0421 89.7184 62.6545 91.5042 64.3Z" fill="#EC923D"/>
<path fill-rule="evenodd" clip-rule="evenodd" d="M92.5604 63.6249C91.9308 64.0413 91.0755 63.9858 90.5038 63.4446L90.5038 63.4446C86.2909 59.4562 85.6788 55.3379 88.6675 51.0897C91.5883 46.9379 95.4837 45.4922 100.354 46.7527C100.507 46.7924 100.653 46.8537 100.789 46.9348C101.577 47.4052 101.833 48.4248 101.363 49.2121L101.348 49.2372C97.2912 48.6111 94.3297 49.5223 92.4636 51.9705C90.4034 54.6735 90.4357 58.5583 92.5604 63.6249Z" fill="#D37928"/>
<path fill-rule="evenodd" clip-rule="evenodd" d="M58.9171 61.3087C66.5174 61.3087 67.3578 63.1593 76.7436 57.4915C86.1295 51.8237 93.1527 55.982 95.4707 61.9329C97.7887 67.8838 93.182 75.6573 95.4707 80.5982C97.7593 85.5392 102.173 93.8244 96.8471 100.485C91.5209 107.145 77.0822 107.23 67.9996 96.8401C58.9171 86.4505 51.888 87.3621 48.9056 77.8846C45.9231 68.4071 51.3167 61.3087 58.9171 61.3087Z" fill="#F9EFE5"/>
<path opacity="0.27267" fill-rule="evenodd" clip-rule="evenodd" d="M99.366 92.9025C99.4176 95.486 98.7616 98.0902 96.8469 100.485C91.5207 107.145 77.082 107.23 67.9995 96.8401C67.5505 96.3266 67.1066 95.8407 66.668 95.3797C69.7198 93.2158 72.7954 92.3901 75.8946 92.9025C79.2447 93.4565 81.5437 95.1127 82.7917 97.8712C84.2052 95.1127 86.139 93.5436 88.5931 93.1641C91.0471 92.7846 93.1239 93.233 94.8234 94.5095C96.4796 93.4389 97.9938 92.9033 99.366 92.9025Z" fill="#CFBEA1"/>
<path fill-rule="evenodd" clip-rule="evenodd" d="M75.8308 102.973C74.5649 102.355 73.3214 101.609 72.123 100.728L72.1666 100.65L73.4728 101.267C75.5852 102.637 77.8108 103.606 80.0296 104.208C79.8534 104.178 79.6759 104.146 79.497 104.111L80.8386 104.744C80.2436 104.608 79.6471 104.447 79.0514 104.259L77.8973 103.714C77.2256 103.515 76.5367 103.27 75.8308 102.973ZM76.0318 57.7941C75.7818 57.9422 75.5384 58.0845 75.301 58.2212C75.5687 58.1821 75.8487 58.144 76.1391 58.1079C76.3595 57.9776 76.5848 57.8428 76.8152 57.7035C76.5468 57.7317 76.2852 57.7622 76.0318 57.7941Z" fill="#F0E5C2"/>
<path fill-rule="evenodd" clip-rule="evenodd" d="M76.803 90.1911C82.272 90.1911 86.7056 85.7576 86.7056 80.2885C86.7056 74.8195 82.272 70.3859 76.803 70.3859C71.3339 70.3859 66.9004 74.8195 66.9004 80.2885C66.9004 85.7576 71.3339 90.1911 76.803 90.1911Z" fill="#FECA52"/>
<path fill-rule="evenodd" clip-rule="evenodd" d="M79.2394 70.5431C79.0179 70.5987 78.7994 70.6616 78.584 70.7315C78.8052 70.7731 79.0237 70.8221 79.2394 70.8782C79.4551 70.8221 79.6736 70.7731 79.8948 70.7315C79.6795 70.6616 79.4609 70.5987 79.2394 70.5431ZM79.8948 89.8455C79.6795 89.9153 79.4609 89.9783 79.2394 90.0339C79.0179 89.9783 78.7994 89.9153 78.584 89.8455C78.8052 89.8039 79.0238 89.7549 79.2394 89.6988C79.4551 89.7549 79.6736 89.8039 79.8948 89.8455Z" fill="#FFAB30"/>
<rect x="87.6797" y="73.6412" width="0.649351" height="1.62338" rx="0.324675" fill="#D37928"/>
<rect x="89.4434" y="77.4412" width="0.649351" height="1.62338" rx="0.324675" transform="rotate(-51 89.4434 77.4412)" fill="#D37928"/>
<rect x="63.0059" y="66.4984" width="0.649351" height="1.62338" rx="0.324675" fill="#D37928"/>
<rect x="64.7676" y="70.2983" width="0.649351" height="1.62338" rx="0.324675" transform="rotate(-51 64.7676 70.2983)" fill="#D37928"/>
<rect x="92.0391" y="70.9477" width="0.649351" height="1.62338" rx="0.324675" transform="rotate(-51 92.0391 70.9477)" fill="#F0B27A"/>
<rect x="88.3301" y="83.7062" width="0.649351" height="1.62338" rx="0.324675" fill="#D37928"/>
<path fill-rule="evenodd" clip-rule="evenodd" d="M73.5149 92.7247C73.3755 92.6119 73.3541 92.4074 73.4669 92.2681C73.5797 92.1287 73.7842 92.1072 73.9235 92.2201L74.6805 92.833C74.8199 92.9459 74.8413 93.1503 74.7285 93.2897C74.6157 93.429 74.4112 93.4505 74.2719 93.3377L73.5149 92.7247Z" fill="#D37928"/>
<rect x="83.459" y="90.5244" width="0.649351" height="1.62338" rx="0.324675" fill="#F0B27A"/>
<path fill-rule="evenodd" clip-rule="evenodd" d="M89.7493 92.7247C89.6099 92.6119 89.5884 92.4074 89.7013 92.2681C89.8141 92.1287 90.0186 92.1072 90.1579 92.2201L90.9149 92.833C91.0542 92.9459 91.0757 93.1503 90.9629 93.2897C90.85 93.429 90.6456 93.4505 90.5062 93.3377L89.7493 92.7247Z" fill="#D37928"/>
<path fill-rule="evenodd" clip-rule="evenodd" d="M94.0547 87.2423C93.8755 87.236 93.7353 87.0857 93.7416 86.9065C93.7478 86.7273 93.8982 86.5871 94.0774 86.5933L95.0508 86.6273C95.23 86.6336 95.3702 86.7839 95.3639 86.9631C95.3577 87.1423 95.2073 87.2825 95.0281 87.2763L94.0547 87.2423Z" fill="#F0B27A"/>
<path fill-rule="evenodd" clip-rule="evenodd" d="M84.0244 108.334C85.835 111.535 89.3376 113.397 93.0042 113.106L98.4717 112.672C102.886 112.322 106.524 109.067 107.36 104.719L107.615 103.393C108.217 100.262 106.862 97.0783 104.188 95.3415C102.009 93.9261 99.2709 93.6826 96.8766 94.6913L94.8044 95.5643L92.4461 95.1552C89.8207 94.6997 87.1342 95.5081 85.1962 97.3368C82.366 100.007 81.7232 104.264 83.6387 107.652L84.0244 108.334Z" fill="#C72326"/>
<path fill-rule="evenodd" clip-rule="evenodd" d="M91.7533 95.1999C89.4314 95.8005 84.3096 98.0233 83.5898 101.806C82.7914 106.003 86.862 112.924 93.9178 112.924C94.2038 112.924 94.4516 112.941 94.6639 112.974L93.6908 113.051C89.6049 113.375 85.7018 111.301 83.6841 107.733L83.049 106.61C81.4793 103.835 82.006 100.346 84.3253 98.1578C86.351 96.2463 89.0144 95.204 91.7533 95.1999L91.7533 95.1999Z" fill="#9F1517"/>
<path fill-rule="evenodd" clip-rule="evenodd" d="M86.8959 106.957C88.2457 109.348 90.8634 110.734 93.5992 110.507L97.7714 110.161C101.055 109.889 103.759 107.471 104.395 104.238L104.597 103.21C105.057 100.869 104.044 98.4838 102.039 97.1901C100.419 96.1443 98.3854 95.9683 96.6092 96.7199L95.0185 97.3931L93.2493 97.0938C91.283 96.7612 89.2744 97.3688 87.8221 98.7355C85.6868 100.745 85.1992 103.952 86.6409 106.506L86.8959 106.957Z" fill="#FE5F41"/>
<path fill-rule="evenodd" clip-rule="evenodd" d="M89.9749 106.051C90.8332 107.566 92.4889 108.449 94.2253 108.319L96.7482 108.129C98.8463 107.972 100.576 106.423 100.963 104.355L101.174 103.232C101.391 102.069 100.888 100.889 99.8984 100.241C98.6897 99.4503 97.0846 99.6583 96.1175 100.732L94.9548 102.022L94.0234 101.235C92.8398 100.236 91.0942 100.286 89.9691 101.35C88.9531 102.312 88.7238 103.843 89.4134 105.06L89.9749 106.051Z" fill="#C72326"/>
<path fill-rule="evenodd" clip-rule="evenodd" d="M94.8149 99.8417C94.279 99.8885 93.8825 100.361 93.9294 100.897L94.1155 103.024C93.3698 103.362 92.8926 103.947 92.9469 104.568C93.0012 105.188 93.5727 105.682 94.3659 105.885L94.5237 107.689C94.5706 108.225 95.043 108.621 95.5789 108.575C96.1148 108.528 96.5112 108.055 96.4643 107.519L96.3148 105.81C97.2375 105.506 97.8601 104.848 97.7985 104.143C97.7369 103.439 97.0095 102.899 96.0479 102.76L95.8701 100.727C95.8232 100.191 95.3508 99.7948 94.8149 99.8417Z" fill="#FFA27C"/>
<path opacity="0.489979" fill-rule="evenodd" clip-rule="evenodd" d="M90.7349 113.012C90.8419 113.03 90.9492 113.046 91.057 113.059C91.8579 109.225 90.0064 106.03 87.8814 103.755C86.7175 102.509 85.4654 101.532 84.5052 100.866C84.0248 100.533 83.6168 100.278 83.3285 100.106C83.3068 100.093 83.2859 100.08 83.2656 100.068C83.2214 100.168 83.1792 100.269 83.139 100.371C83.1465 100.375 83.1542 100.38 83.1619 100.384C83.4449 100.553 83.8466 100.805 84.3202 101.133C85.2679 101.79 86.5006 102.753 87.6441 103.977C89.7393 106.22 91.5147 109.316 90.7349 113.012Z" fill="#9F1517"/>
<path fill-rule="evenodd" clip-rule="evenodd" d="M98.2304 101.826C98.4205 101.698 98.4706 101.44 98.3424 101.25C98.2142 101.059 97.9561 101.009 97.7661 101.138C97.576 101.266 97.5258 101.524 97.654 101.714C97.7822 101.904 98.0403 101.954 98.2304 101.826Z" fill="#FFA27C"/>
<path fill-rule="evenodd" clip-rule="evenodd" d="M99.203 103.125C99.3931 102.996 99.4433 102.738 99.315 102.548C99.1868 102.358 98.9288 102.308 98.7387 102.436C98.5486 102.564 98.4985 102.822 98.6267 103.013C98.7549 103.203 99.0129 103.253 99.203 103.125Z" fill="#FFA27C"/>
<path fill-rule="evenodd" clip-rule="evenodd" d="M98.2304 106.371C98.4205 106.243 98.4706 105.985 98.3424 105.795C98.2142 105.605 97.9561 105.555 97.7661 105.683C97.576 105.811 97.5258 106.069 97.654 106.259C97.7822 106.449 98.0403 106.5 98.2304 106.371Z" fill="#FFA27C"/>
<path fill-rule="evenodd" clip-rule="evenodd" d="M99.203 104.748C99.3931 104.62 99.4433 104.362 99.315 104.172C99.1868 103.982 98.9288 103.931 98.7387 104.06C98.5486 104.188 98.4985 104.446 98.6267 104.636C98.7549 104.826 99.0129 104.876 99.203 104.748Z" fill="#FFA27C"/>
<path fill-rule="evenodd" clip-rule="evenodd" d="M92.0604 102.151C92.2505 102.022 92.3007 101.764 92.1725 101.574C92.0443 101.384 91.7862 101.334 91.5961 101.462C91.406 101.59 91.3559 101.848 91.4841 102.039C91.6123 102.229 91.8704 102.279 92.0604 102.151Z" fill="#FFA27C"/>
<path fill-rule="evenodd" clip-rule="evenodd" d="M91.0878 103.449C91.2779 103.321 91.328 103.063 91.1998 102.873C91.0716 102.683 90.8136 102.633 90.6235 102.761C90.4334 102.889 90.3832 103.147 90.5115 103.337C90.6397 103.527 90.8977 103.578 91.0878 103.449Z" fill="#FFA27C"/>
<path fill-rule="evenodd" clip-rule="evenodd" d="M92.0604 106.696C92.2505 106.568 92.3007 106.31 92.1725 106.12C92.0443 105.93 91.7862 105.879 91.5961 106.008C91.406 106.136 91.3559 106.394 91.4841 106.584C91.6123 106.774 91.8704 106.824 92.0604 106.696Z" fill="#FFA27C"/>
<path fill-rule="evenodd" clip-rule="evenodd" d="M91.412 105.073C91.6021 104.944 91.6522 104.686 91.524 104.496C91.3958 104.306 91.1378 104.256 90.9477 104.384C90.7576 104.513 90.7075 104.771 90.8357 104.961C90.9639 105.151 91.2219 105.201 91.412 105.073Z" fill="#FFA27C"/>
<path fill-rule="evenodd" clip-rule="evenodd" d="M73.4354 74.8817C72.7471 75.0832 72.0257 74.6886 71.8241 74.0002C71.6226 73.3119 72.0173 72.5905 72.7056 72.3889C77.9955 70.8402 82.1238 72.2376 84.7243 76.5313C85.0959 77.1448 84.8998 77.9434 84.2863 78.3149C83.6728 78.6865 82.8742 78.4904 82.5026 77.8769C80.538 74.6331 77.6377 73.6514 73.4354 74.8817Z" fill="#F9EFE5"/>
<path fill-rule="evenodd" clip-rule="evenodd" d="M60.4083 55.3991C60.4083 55.3991 57.7705 51.3536 58.6497 50.1179C59.529 48.8823 60.8065 49.6892 60.8065 51.5028C60.8065 53.3165 60.8065 55.0808 60.8065 55.0808C60.8065 55.0808 61.6984 51.8609 62.9 52.2993C64.1015 52.7377 60.6649 55.9115 60.6649 55.9115C60.6649 55.9115 56.1698 56.3539 56.4412 54.8015C56.7127 53.2491 60.4083 55.3991 60.4083 55.3991Z" fill="url(#paint3_linear_548_36937)"/>
<path fill-rule="evenodd" clip-rule="evenodd" d="M70.9669 46.219C70.9669 46.219 66.8666 43.6673 67.1413 42.1758C67.416 40.6843 68.9148 40.8758 69.6813 42.5195C70.4478 44.1632 71.1934 45.7622 71.1934 45.7622C71.1934 45.7622 70.641 42.4671 71.9152 42.3566C73.1895 42.2461 71.4162 46.5749 71.4162 46.5749C71.4162 46.5749 67.5291 48.8756 67.1191 47.3539C66.709 45.8323 70.9669 46.219 70.9669 46.219Z" fill="url(#paint4_linear_548_36937)"/>
<path fill-rule="evenodd" clip-rule="evenodd" d="M74.9099 58.4058C74.9099 58.4058 74.229 53.6246 75.5481 52.8763C76.8672 52.128 77.684 53.3992 76.9175 55.0429C76.151 56.6866 75.4054 58.2856 75.4054 58.2856C75.4054 58.2856 77.5745 55.7444 78.4782 56.6495C79.3819 57.5547 74.926 58.9787 74.926 58.9787C74.926 58.9787 70.6651 57.4799 71.5671 56.1877C72.4692 54.8955 74.9099 58.4058 74.9099 58.4058Z" fill="url(#paint5_linear_548_36937)"/>
<path fill-rule="evenodd" clip-rule="evenodd" d="M55.5681 81.4844C55.5681 81.4844 54.6378 76.7453 55.916 75.929C57.1941 75.1127 58.0763 76.3394 57.3969 78.021C56.7175 79.7026 56.0566 81.3384 56.0566 81.3384C56.0566 81.3384 58.0897 78.6872 59.0395 79.5438C59.9894 80.4004 55.6141 82.0556 55.6141 82.0556C55.6141 82.0556 51.2806 80.7819 52.1138 79.4443C52.947 78.1066 55.5681 81.4844 55.5681 81.4844Z" fill="url(#paint6_linear_548_36937)"/>
<path fill-rule="evenodd" clip-rule="evenodd" d="M86.0052 47.112C86.0052 47.112 89.473 43.7508 90.8537 44.3781C92.2345 45.0055 91.6861 46.4135 89.9058 46.7595C88.1255 47.1056 86.3936 47.4422 86.3936 47.4422C86.3936 47.4422 89.7245 47.7034 89.5234 48.9665C89.3223 50.2297 85.5512 47.4618 85.5512 47.4618C85.5512 47.4618 84.2592 43.1336 85.8348 43.1039C87.4105 43.0741 86.0052 47.112 86.0052 47.112Z" fill="url(#paint7_linear_548_36937)"/>
<path fill-rule="evenodd" clip-rule="evenodd" d="M66.3526 99.6518C64.5409 102.853 64.7492 106.814 66.8869 109.807L70.0744 114.27C72.6481 117.874 77.3115 119.315 81.4698 117.792L82.7377 117.328C85.7314 116.231 87.7624 113.43 87.8741 110.244C87.9652 107.648 86.7635 105.175 84.6657 103.642L82.8501 102.315L81.9862 100.083C81.0244 97.5983 78.9478 95.7118 76.3822 94.9925C72.6354 93.9419 68.6553 95.5835 66.7386 98.9699L66.3526 99.6518Z" fill="#C72326"/>
<path fill-rule="evenodd" clip-rule="evenodd" d="M81.3912 99.2898C79.6805 97.6089 75.1373 94.3635 71.5238 95.695C67.5158 97.1718 63.6794 104.226 67.3134 110.274C67.4607 110.519 67.5735 110.74 67.6547 110.939L67.0874 110.145C64.7053 106.809 64.4731 102.395 66.4921 98.8284L67.1276 97.7056C68.6983 94.9305 71.9598 93.5854 75.0301 94.4462C77.7119 95.1982 79.9771 96.9442 81.3912 99.2898L81.3912 99.2898Z" fill="#9F1517"/>
<path fill-rule="evenodd" clip-rule="evenodd" d="M69.0111 101.404C67.6573 103.792 67.8172 106.75 69.4207 108.978L71.8661 112.376C73.7906 115.05 77.2562 116.123 80.3548 115.002L81.3398 114.646C83.5835 113.835 85.1061 111.738 85.1825 109.353C85.2442 107.426 84.348 105.592 82.7889 104.457L81.3927 103.44L80.738 101.77C80.0103 99.9128 78.455 98.504 76.5356 97.963C73.7134 97.1676 70.7129 98.4017 69.2669 100.952L69.0111 101.404Z" fill="#FE5F41"/>
<path fill-rule="evenodd" clip-rule="evenodd" d="M71.3744 103.577C70.5178 105.093 70.6133 106.967 71.6194 108.388L73.0813 110.453C74.297 112.17 76.5156 112.855 78.4877 112.122L79.5584 111.724C80.6674 111.312 81.4196 110.273 81.4651 109.091C81.5207 107.647 80.5157 106.378 79.0977 106.102L77.3927 105.77L77.5872 104.567C77.8343 103.037 76.8928 101.567 75.4006 101.151C74.053 100.775 72.623 101.367 71.9349 102.585L71.3744 103.577Z" fill="#C72326"/>
<path fill-rule="evenodd" clip-rule="evenodd" d="M77.0421 107.015C77.322 107.946 77.14 108.833 76.5279 109.187C75.9158 109.54 75.0562 109.254 74.3903 108.546L72.9044 109.404C72.4386 109.673 71.8429 109.513 71.5739 109.047C71.3049 108.582 71.4645 107.986 71.9304 107.717L73.4985 106.812C73.348 106.007 73.5533 105.28 74.0928 104.969C74.6323 104.657 75.364 104.843 75.9859 105.375L77.8351 104.308C78.301 104.039 78.8967 104.198 79.1657 104.664C79.4347 105.13 79.275 105.726 78.8092 105.995L77.0421 107.015Z" fill="#FFA27C"/>
<path fill-rule="evenodd" clip-rule="evenodd" d="M79.291 108.976C79.4988 109.073 79.7458 108.983 79.8427 108.775C79.9396 108.568 79.8497 108.321 79.6419 108.224C79.4341 108.127 79.1871 108.217 79.0902 108.424C78.9933 108.632 79.0832 108.879 79.291 108.976Z" fill="#FFA27C"/>
<path fill-rule="evenodd" clip-rule="evenodd" d="M78.6406 110.275C78.8484 110.372 79.0954 110.282 79.1923 110.074C79.2892 109.866 79.1993 109.619 78.9915 109.522C78.7837 109.425 78.5367 109.515 78.4398 109.723C78.3429 109.931 78.4328 110.178 78.6406 110.275Z" fill="#FFA27C"/>
<path fill-rule="evenodd" clip-rule="evenodd" d="M77.0175 110.924C77.2253 111.021 77.4724 110.931 77.5693 110.723C77.6662 110.516 77.5763 110.269 77.3684 110.172C77.1606 110.075 76.9136 110.165 76.8167 110.373C76.7198 110.58 76.8097 110.827 77.0175 110.924Z" fill="#FFA27C"/>
<path fill-rule="evenodd" clip-rule="evenodd" d="M75.3945 110.6C75.6023 110.697 75.8493 110.607 75.9462 110.399C76.0431 110.191 75.9532 109.944 75.7454 109.847C75.5376 109.75 75.2906 109.84 75.1937 110.048C75.0968 110.256 75.1867 110.503 75.3945 110.6Z" fill="#FFA27C"/>
<path fill-rule="evenodd" clip-rule="evenodd" d="M75.7187 103.781C75.9265 103.878 76.1735 103.788 76.2704 103.581C76.3673 103.373 76.2774 103.126 76.0696 103.029C75.8618 102.932 75.6148 103.022 75.5179 103.23C75.421 103.438 75.5109 103.685 75.7187 103.781Z" fill="#FFA27C"/>
<path fill-rule="evenodd" clip-rule="evenodd" d="M74.0957 103.457C74.3035 103.554 74.5505 103.464 74.6474 103.256C74.7443 103.048 74.6544 102.801 74.4466 102.704C74.2388 102.607 73.9918 102.697 73.8949 102.905C73.798 103.113 73.8879 103.36 74.0957 103.457Z" fill="#FFA27C"/>
<path fill-rule="evenodd" clip-rule="evenodd" d="M72.7968 104.755C73.0046 104.852 73.2517 104.762 73.3486 104.555C73.4455 104.347 73.3555 104.1 73.1477 104.003C72.9399 103.906 72.6929 103.996 72.596 104.204C72.4991 104.412 72.589 104.659 72.7968 104.755Z" fill="#FFA27C"/>
<path fill-rule="evenodd" clip-rule="evenodd" d="M71.8222 106.379C72.03 106.476 72.277 106.386 72.3739 106.178C72.4708 105.97 72.3809 105.723 72.1731 105.626C71.9653 105.529 71.7183 105.619 71.6214 105.827C71.5245 106.035 71.6144 106.282 71.8222 106.379Z" fill="#FFA27C"/>
<path fill-rule="evenodd" clip-rule="evenodd" d="M50.0617 78.1781C50.0617 78.1781 45.6747 78.5132 47.1371 80.8937C48.5994 83.2742 50.6671 87.7102 53.2203 88.831C55.7735 89.9518 57.0876 94.8093 58.3382 95.0612L60.4078 93.6085C60.4078 93.6085 59.4336 90.0322 55.6613 85.6956C51.889 81.3591 50.0617 78.1781 50.0617 78.1781Z" fill="#EC923D"/>
<path fill-rule="evenodd" clip-rule="evenodd" d="M52.5109 84.877C52.5109 84.877 48.7976 82.5917 48.5765 85.3614C48.3553 88.1312 47.4162 92.9097 48.807 95.3C50.1978 97.6902 48.4078 102.369 49.263 103.301L51.7726 103.336C51.7726 103.336 53.0851 99.8868 52.5994 94.1956C52.1137 88.5043 52.5109 84.877 52.5109 84.877Z" fill="#FFAC32"/>
<path opacity="0.39953" fill-rule="evenodd" clip-rule="evenodd" d="M52.405 91.3281C52.4495 92.2358 52.5146 93.1916 52.6003 94.1956C52.6417 94.6812 52.6733 95.1546 52.6951 95.6157L52.6079 99.6184C52.4609 101.021 52.1828 102.26 51.7735 103.336L49.2638 103.301C48.4087 102.369 50.1986 97.6902 48.8079 95.3C48.3107 94.4455 48.1112 93.2857 48.0703 92.0216L48.0703 90.9347C48.1003 89.8806 48.208 88.7954 48.3203 87.7844C50.3309 89.3238 51.6925 90.5051 52.405 91.3281Z" fill="#89623E"/>
<path fill-rule="evenodd" clip-rule="evenodd" d="M51.671 71.9659C51.671 71.9659 50.5139 67.7621 48.4631 69.637C46.4124 71.5118 42.4667 74.3662 41.8537 77.0628C41.2407 79.7594 36.7404 81.9608 36.7306 83.2252L38.5422 84.9624C38.5422 84.9624 41.8542 83.3351 45.3805 78.8415C48.9067 74.3479 51.671 71.9659 51.671 71.9659Z" fill="#FFAC32"/>
<path fill-rule="evenodd" clip-rule="evenodd" d="M53.7002 67.6319C53.7002 67.6319 53.7467 63.2721 51.2586 64.509C48.7705 65.746 44.1909 67.4022 42.8583 69.8254C41.5258 72.2485 36.5931 73.1242 36.2351 74.3369L37.4977 76.5062C37.4977 76.5062 41.13 75.8548 45.7582 72.5073C50.3864 69.1597 53.7002 67.6319 53.7002 67.6319Z" fill="#FFAC32"/>
<path fill-rule="evenodd" clip-rule="evenodd" d="M60.1748 97.6547C60.1748 97.6547 61.7096 93.5737 58.9485 93.8851C56.1874 94.1965 51.3175 94.1864 49.2366 96.0077C47.1556 97.829 42.2209 96.9648 41.4698 97.9819L41.9143 100.452C41.9143 100.452 45.5503 101.082 51.0443 99.5197C56.5383 97.957 60.1748 97.6547 60.1748 97.6547Z" fill="#FFAC32"/>
<path fill-rule="evenodd" clip-rule="evenodd" d="M41.748 99.531C43.1428 99.4741 48.77 99.1951 51.6479 98.3056C54.4089 97.4521 58.8262 96.7486 60.471 96.7727C60.3911 97.0473 60.2922 97.3413 60.1743 97.6547C57.75 97.8562 54.7065 98.4779 51.0439 99.5197C47.3812 100.562 44.3378 100.872 41.9138 100.452L41.748 99.531H41.748Z" fill="#ED9848"/>
<path fill-rule="evenodd" clip-rule="evenodd" d="M57.0811 76.8333C57.0811 76.8333 55.924 72.6295 53.8733 74.5044C51.8226 76.3792 47.8768 79.2335 47.2638 81.9301C46.6509 84.6268 42.1506 86.8281 42.1408 88.0925L43.9523 89.8297C43.9523 89.8297 47.2644 88.2024 50.7906 83.7089C54.3168 79.2153 57.0811 76.8333 57.0811 76.8333Z" fill="#FFAC32"/>
<path fill-rule="evenodd" clip-rule="evenodd" d="M40.5447 90.3747C40.5447 90.3747 36.3618 91.6049 38.2721 93.6226C40.1825 95.6403 43.1052 99.5357 45.8121 100.101C48.519 100.667 50.7986 105.128 52.063 105.116L53.7683 103.275C53.7683 103.275 52.0835 99.9915 47.529 96.5442C42.9746 93.097 40.5447 90.3747 40.5447 90.3747Z" fill="#EC923D"/>
<path fill-rule="evenodd" clip-rule="evenodd" d="M52.5737 104.564C52.572 104.562 52.5704 104.56 52.5687 104.558C52.2583 104.226 51.8462 103.836 51.3668 103.412C50.4075 102.562 49.1693 101.564 47.9136 100.593C45.4054 98.653 42.8099 96.8072 42.2128 96.4571C41.9459 96.3006 41.5389 95.8956 41.0667 95.351C40.6003 94.8131 40.0863 94.1583 39.6074 93.523C39.1288 92.888 38.6866 92.2742 38.364 91.8191C38.3158 91.7511 38.2702 91.6866 38.2276 91.6261C38.1471 91.7082 38.0743 91.7939 38.0117 91.8833C38.0398 91.923 38.0689 91.9642 38.0991 92.0069C38.4229 92.4636 38.8671 93.0801 39.3482 93.7184C39.829 94.3563 40.348 95.0177 40.8214 95.5637C41.289 96.103 41.7286 96.5496 42.0486 96.7372C42.6251 97.0752 45.2049 98.9083 47.715 100.849C48.9683 101.819 50.2 102.812 51.1515 103.655C51.6274 104.076 52.031 104.458 52.3314 104.78C52.3385 104.788 52.3455 104.795 52.3525 104.803L52.5737 104.564ZM51.6166 104.974L51.4233 104.83C51.3488 104.774 51.2687 104.715 51.1832 104.651C51.3355 104.785 51.4801 104.894 51.6166 104.974ZM42.5345 98.1545C43.0929 98.5787 43.6654 99.0122 44.2392 99.4456C43.6664 99.101 43.0944 98.6549 42.5345 98.1545Z" fill="#D87D28"/>
<path fill-rule="evenodd" clip-rule="evenodd" d="M39.2537 80.3874C39.2537 80.3874 35.0707 81.6177 36.9811 83.6354C38.8915 85.6531 41.8142 89.5484 44.5211 90.1142C47.228 90.6801 49.5076 95.1412 50.772 95.129L52.4773 93.2874C52.4773 93.2874 50.7925 90.0042 46.238 86.557C41.6836 83.1097 39.2537 80.3874 39.2537 80.3874Z" fill="#EC923D"/>
<path fill-rule="evenodd" clip-rule="evenodd" d="M51.2827 94.5765C51.281 94.5747 51.2793 94.5729 51.2776 94.5711C50.9673 94.2389 50.5552 93.8491 50.0758 93.4244C49.1165 92.5745 47.8783 91.5765 46.6226 90.6054C44.1144 88.6657 41.5189 86.8199 40.9218 86.4699C40.6549 86.3134 40.2479 85.9084 39.7757 85.3638C39.3093 84.8258 38.7953 84.171 38.3164 83.5357C37.8378 82.9007 37.3956 82.287 37.073 81.8319C37.0248 81.7638 36.9792 81.6993 36.9366 81.6389C36.8561 81.7209 36.7833 81.8067 36.7207 81.896C36.7488 81.9358 36.7779 81.977 36.8081 82.0196C37.1319 82.4764 37.576 83.0929 38.0571 83.7311C38.538 84.369 39.057 85.0305 39.5304 85.5765C39.998 86.1158 40.4376 86.5624 40.7576 86.75C41.3341 87.0879 43.9139 88.921 46.4239 90.8622C47.6773 91.8315 48.909 92.8245 49.8605 93.6674C50.3364 94.089 50.74 94.4712 51.0404 94.7927C51.0475 94.8003 51.0545 94.8079 51.0615 94.8154L51.2827 94.5765ZM50.3256 94.9864L50.1323 94.8425C50.0578 94.7871 49.9777 94.7274 49.8922 94.6638C50.0445 94.7974 50.1891 94.9071 50.3256 94.9864ZM41.2434 88.1672C41.8018 88.5915 42.3743 89.025 42.9482 89.4584C42.3753 89.1138 41.8034 88.6676 41.2434 88.1672Z" fill="#D87D28"/>
<path fill-rule="evenodd" clip-rule="evenodd" d="M150.668 67.5312V21.9072C150.668 20.1752 149.263 18.7711 147.531 18.7711C146.542 18.7711 145.611 19.2378 145.019 20.0303L143.129 22.5605C141.91 24.1916 141.252 26.173 141.252 28.209V60.035C141.252 61.3013 142.279 62.3279 143.545 62.3279C144.858 62.3279 145.903 63.4283 145.835 64.7395L145.673 67.8559L150.668 67.5312Z" fill="#EFEFEF"/>
<path fill-rule="evenodd" clip-rule="evenodd" d="M144.062 62.3744C143.29 61.6952 142.83 60.7075 142.83 59.6489L142.83 31.1002C142.83 25.924 144.104 21.9155 146.652 19.0747C147.177 18.8764 147.739 18.7711 148.314 18.7711C149.614 18.7711 150.668 19.825 150.668 21.125V67.5312L145.673 67.8559L145.838 64.6786C145.84 64.64 145.841 64.6014 145.841 64.5628C145.841 63.4847 145.078 62.5849 144.062 62.3744Z" fill="url(#paint8_linear_548_36937)"/>
<path opacity="0.200707" fill-rule="evenodd" clip-rule="evenodd" d="M150.657 67.5319L150.602 61.295C144.872 58.2647 141.755 51.6086 141.252 41.3266V29.006C141.252 26.4526 142.078 23.9676 143.606 21.922L144.551 20.6569C145.438 19.4701 146.832 18.7711 148.314 18.7711C149.614 18.7711 150.668 19.825 150.668 21.125V67.5312L150.657 67.5319Z" fill="#EFEFEF"/>
<path d="M144.824 66.5572C144.824 65.6606 145.551 64.9338 146.448 64.9338H150.019C150.916 64.9338 151.642 65.6606 151.642 66.5572V67.8559H144.824V66.5572Z" fill="#393035"/>
<rect x="143.85" y="66.5572" width="8.76623" height="51.9481" rx="3.24675" fill="#5A4F53"/>
<path fill-rule="evenodd" clip-rule="evenodd" d="M148.233 72.0179C149.039 72.0179 149.694 71.3638 149.694 70.5569C149.694 69.75 149.039 69.0958 148.233 69.0958C147.426 69.0958 146.771 69.75 146.771 70.5569C146.771 71.3638 147.426 72.0179 148.233 72.0179Z" fill="#EFEFEF"/>
<path fill-rule="evenodd" clip-rule="evenodd" d="M149.505 118.502C149.46 118.504 149.414 118.505 149.369 118.505H147.096C145.303 118.505 143.85 117.052 143.85 115.258V69.8039C143.85 68.0362 145.262 66.5984 147.02 66.558C145.454 69.2344 145.057 72.4785 145.904 84.252C146.786 96.5048 153.101 110.491 149.505 118.502Z" fill="url(#paint9_linear_548_36937)"/>
<path fill-rule="evenodd" clip-rule="evenodd" d="M10.9231 78.0832L11.5371 49.3584C11.5773 47.475 10.5278 45.7373 8.8422 44.8964L7.67858 44.3159C6.90012 43.9275 6.4082 43.1323 6.4082 42.2624V25.1466C6.4082 24.8501 6.64857 24.6097 6.94508 24.6097C7.22702 24.6097 7.46093 24.8278 7.48065 25.1091L8.2154 35.5887C8.23753 35.9044 8.50006 36.1491 8.81649 36.1491C9.13926 36.1491 9.40471 35.8948 9.4185 35.5723L9.84388 25.6307C9.86831 25.0599 10.3381 24.6097 10.9095 24.6097C11.0307 24.6097 11.1299 24.7062 11.1333 24.8274L11.4439 35.8662C11.4484 36.0237 11.5773 36.1491 11.7349 36.1491C12.2664 36.1491 12.7058 35.7348 12.737 35.2042L13.3233 25.2282C13.3437 24.8809 13.6313 24.6097 13.9791 24.6097C14.3277 24.6097 14.6156 24.882 14.6351 25.23L15.2049 35.4175C15.2278 35.828 15.5674 36.1491 15.9786 36.1491C16.3922 36.1491 16.7329 35.8243 16.7526 35.4112L17.2423 25.1714C17.2573 24.8569 17.5166 24.6097 17.8314 24.6097C18.1571 24.6097 18.4212 24.8738 18.4212 25.1995V42.3607C18.4212 43.1793 17.9876 43.9366 17.2816 44.3509L16.7811 44.6447C15.0616 45.6539 14.0054 47.4984 14.0054 49.4921V78.0832H10.9231Z" fill="url(#paint10_linear_548_36937)"/>
<path opacity="0.200707" fill-rule="evenodd" clip-rule="evenodd" d="M11.5475 48.8632C11.5813 47.2822 10.7002 45.8234 9.28516 45.1174V45.1174C12.3361 44.9088 15.3814 42.241 18.421 37.1142V41.2652C18.421 42.7624 17.6279 44.1475 16.3367 44.9054C14.8924 45.753 14.0052 47.3024 14.0052 48.977V67.3502L11.159 67.0364L11.5475 48.8632Z" fill="#EFEFEF"/>
<path fill-rule="evenodd" clip-rule="evenodd" d="M11.5371 49.3584C11.5773 47.475 10.5278 45.7374 8.8422 44.8964L8.74473 44.8478C7.31296 44.1335 6.4082 42.671 6.4082 41.0709L6.4082 25.1285C6.4082 24.9092 6.54432 24.7216 6.7367 24.6458C6.91442 34.9538 7.09006 40.7224 7.26361 41.9514C7.3505 42.5667 8.52973 43.5305 9.6987 44.3471C11.1273 45.3451 12.0736 46.9346 12.0736 48.6773V66.875H11.1627L11.5371 49.3584Z" fill="#EFEFEF"/>
<path d="M9.10938 68.1806C9.10938 67.2841 9.83619 66.5573 10.7328 66.5573H14.3042C15.2007 66.5573 15.9276 67.2841 15.9276 68.1806V69.4793H9.10938V68.1806Z" fill="#393035"/>
<rect x="8.13672" y="68.1806" width="8.76623" height="51.9481" rx="3.24675" fill="#5A4F53"/>
<path fill-rule="evenodd" clip-rule="evenodd" d="M12.5196 74.2906C13.3265 74.2906 13.9807 73.6365 13.9807 72.8296C13.9807 72.0227 13.3265 71.3685 12.5196 71.3685C11.7127 71.3685 11.0586 72.0227 11.0586 72.8296C11.0586 73.6365 11.7127 74.2906 12.5196 74.2906Z" fill="#EFEFEF"/>
<path fill-rule="evenodd" clip-rule="evenodd" d="M13.7917 120.126C13.7467 120.128 13.7016 120.129 13.6562 120.129H11.3835C9.59034 120.129 8.13672 118.675 8.13672 116.882V71.4273C8.13672 69.6596 9.54944 68.2218 11.3075 68.1815C9.74115 70.8578 9.34368 74.1019 10.1913 85.8754C11.0735 98.1282 17.388 112.114 13.7917 120.126Z" fill="url(#paint11_linear_548_36937)"/>
<defs>
<linearGradient id="paint0_linear_548_36937" x1="112.959" y1="71.4025" x2="103.825" y2="87.2222" gradientUnits="userSpaceOnUse">
<stop stop-color="#A4C976"/>
<stop offset="1" stop-color="#6B9941"/>
</linearGradient>
<linearGradient id="paint1_linear_548_36937" x1="111.639" y1="99.696" x2="95.2204" y2="107.704" gradientUnits="userSpaceOnUse">
<stop stop-color="#A4C976"/>
<stop offset="1" stop-color="#6B9941"/>
</linearGradient>
<linearGradient id="paint2_linear_548_36937" x1="67.1211" y1="114.871" x2="53.9809" y2="102.182" gradientUnits="userSpaceOnUse">
<stop stop-color="#A4C976"/>
<stop offset="1" stop-color="#6B9941"/>
</linearGradient>
<linearGradient id="paint3_linear_548_36937" x1="56.4258" y1="49.5247" x2="56.4258" y2="56.0096" gradientUnits="userSpaceOnUse">
<stop stop-color="#C7DB6D"/>
<stop offset="1" stop-color="#95B53B"/>
</linearGradient>
<linearGradient id="paint4_linear_548_36937" x1="64.875" y1="42.5781" x2="67.6156" y2="48.4554" gradientUnits="userSpaceOnUse">
<stop stop-color="#C7DB6D"/>
<stop offset="1" stop-color="#95B53B"/>
</linearGradient>
<linearGradient id="paint5_linear_548_36937" x1="73.7832" y1="51.3987" x2="71.0426" y2="57.276" gradientUnits="userSpaceOnUse">
<stop stop-color="#C7DB6D"/>
<stop offset="1" stop-color="#95B53B"/>
</linearGradient>
<linearGradient id="paint6_linear_548_36937" x1="54.0762" y1="74.5459" x2="51.6469" y2="80.5586" gradientUnits="userSpaceOnUse">
<stop stop-color="#C7DB6D"/>
<stop offset="1" stop-color="#95B53B"/>
</linearGradient>
<linearGradient id="paint7_linear_548_36937" x1="91.0117" y1="42.0818" x2="84.646" y2="43.3192" gradientUnits="userSpaceOnUse">
<stop stop-color="#C7DB6D"/>
<stop offset="1" stop-color="#95B53B"/>
</linearGradient>
<linearGradient id="paint8_linear_548_36937" x1="142.83" y1="18.7711" x2="142.83" y2="67.8559" gradientUnits="userSpaceOnUse">
<stop stop-color="#E7E5E2"/>
<stop offset="1" stop-color="#CBC6C1"/>
</linearGradient>
<linearGradient id="paint9_linear_548_36937" x1="143.85" y1="66.558" x2="143.85" y2="118.505" gradientUnits="userSpaceOnUse">
<stop stop-color="#5A4F53"/>
<stop offset="1" stop-color="#7D6E74"/>
</linearGradient>
<linearGradient id="paint10_linear_548_36937" x1="6.4082" y1="24.6097" x2="6.4082" y2="78.0832" gradientUnits="userSpaceOnUse">
<stop stop-color="#E7E5E2"/>
<stop offset="1" stop-color="#CBC6C1"/>
</linearGradient>
<linearGradient id="paint11_linear_548_36937" x1="8.13672" y1="68.1815" x2="8.13672" y2="120.129" gradientUnits="userSpaceOnUse">
<stop stop-color="#5A4F53"/>
<stop offset="1" stop-color="#7D6E74"/>
</linearGradient>
</defs>
</svg>
