<svg width="168" height="168" viewBox="0 0 168 168" fill="none" xmlns="http://www.w3.org/2000/svg">
<rect width="168" height="168" rx="84" fill="#DB8C0E" fill-opacity="0.2"/>
<path d="M93.8912 77.1118C93.092 77.1644 90.137 78.1214 90.137 78.1214L86.4458 77.3958L87.9496 79.2045L89.8636 79.4569C89.8636 79.4569 90.4419 79.4569 91.0834 79.2045C91.7249 78.9521 94.1541 77.7007 94.3645 77.4588C94.5853 77.217 93.8912 77.1118 93.8912 77.1118Z" fill="#F37E4E"/>
<path d="M94.9216 62.2945C94.9216 62.2945 94.848 60.4437 95.2582 58.5402C95.6683 56.6368 96.436 55.0909 98.087 55.0068C99.5698 54.9332 100.422 55.9112 100.863 57.72C101.273 59.4446 101.315 62.5995 101.315 62.5995C101.315 62.5995 101.095 62.8203 100.727 62.8098C100.358 62.8098 100.211 62.5364 100.211 62.5364C100.211 62.5364 100.285 58.9714 99.9168 57.7936C99.5487 56.6158 99.0335 55.9007 98.1501 55.9953C97.2667 56.09 96.6042 57.089 96.2993 58.372C95.9838 59.6549 96.0574 62.284 96.0574 62.284C96.0574 62.284 95.8891 62.6205 95.4474 62.5889C94.9953 62.5784 94.9216 62.2945 94.9216 62.2945Z" fill="#C82C2F"/>
<path d="M91.1886 60.4856L87.508 76.0285C87.508 76.0285 86.9822 76.4491 88.6647 76.7856C90.3473 77.1221 93.5968 77.7952 97.1828 78.1317C100.769 78.4682 102.399 78.5839 102.672 78.5208C102.956 78.4682 104.418 77.3114 104.534 77.0275C104.649 76.7436 104.071 61.4215 104.071 61.4215L102.672 61.8737L91.1886 60.4856Z" fill="#FFC648"/>
<path d="M102.62 70.9387C102.62 74.2303 102.683 78.5104 102.683 78.5104L104.544 77.0171L104.071 61.4216L102.672 61.8738C102.672 61.8633 102.62 68.7724 102.62 70.9387Z" fill="#FFB92C"/>
<path d="M104.071 61.4215L92.829 60.0649L91.1885 60.4856L102.672 61.8632L104.071 61.4215Z" fill="#FFA300"/>
<path d="M94.1855 62.0315C94.1855 62.0315 94.2592 60.1807 94.8165 58.3088C95.3739 56.4474 96.2572 54.9541 97.9083 55.0067C99.391 55.0488 100.369 56.195 100.369 58.0564C100.369 60.044 100.117 62.8623 100.117 62.8623C100.117 62.8623 99.8853 63.0621 99.5172 63.0305C99.1492 62.999 99.023 62.7256 99.023 62.7256C99.023 62.7256 99.4436 59.5076 99.4541 58.1616C99.4541 56.9312 98.7811 55.9847 97.8872 56.0058C97.0039 56.0268 96.2677 56.9732 95.8576 58.2352C95.4475 59.4971 95.3213 62.1156 95.3213 62.1156C95.3213 62.1156 95.132 62.4416 94.6798 62.3785C94.2276 62.3154 94.1855 62.0315 94.1855 62.0315Z" fill="#E84C4F"/>
<path d="M110.002 52.1043C110.002 52.1043 105.238 52.1674 104.06 52.1674C102.883 52.1674 101.4 51.6731 100.779 51.3681C100.159 51.0632 99.7909 51.0632 99.0442 51.7362C98.2976 52.4198 97.4983 52.8509 97.1303 53.0928C96.7622 53.3452 96.5098 54.0182 96.8779 54.4494C97.2459 54.8805 97.0041 54.8805 96.8779 55.1329C96.7517 55.3853 96.6255 55.8796 97.0672 56.2476C97.4983 56.6157 97.3196 56.0584 97.4983 56.6157C97.6876 57.1731 97.8033 57.6042 98.245 57.6673C98.6761 57.7304 99.3492 57.5411 99.5069 57.9513C99.6647 58.3509 100.474 58.0459 101.894 57.4254C103.314 56.805 104.187 56.0058 104.187 56.0058L110.559 55.9427L110.002 52.1043Z" fill="#FFA171"/>
<path d="M107.72 52.1359C107.72 52.1359 107.121 53.4609 106.332 54.3863C105.533 55.3118 104.187 55.9953 104.187 55.9953L109.771 55.9112C109.771 55.9112 110.969 51.8099 107.72 52.1359Z" fill="#F37E4E"/>
<path d="M107.962 50.6846C107.962 50.6846 107.531 52.2936 107.594 54.6387C107.657 56.9943 107.846 58.1616 107.846 58.1616C107.846 58.1616 114.156 58.2878 115.397 57.9092C116.638 57.5411 116.816 56.4895 116.816 56.4895L117.248 49.8118L107.962 50.6846Z" fill="#FFC648"/>
<path d="M93.8701 77.9215C93.155 77.7007 90.9991 78.521 90.9991 78.521L87.0977 78.216L88.0546 78.6051L88.4963 79.3833C88.4963 79.3833 90.1579 79.6357 90.7888 79.6357C91.4198 79.6357 93.9121 78.5104 94.1855 78.3737C94.4484 78.237 93.8701 77.9215 93.8701 77.9215Z" fill="#F37E4E"/>
<path d="M89.9266 74.6089C90.1895 75.1452 88.4964 75.9339 88.0022 76.281C87.6972 76.5018 86.7613 77.4167 86.7613 77.4167L89.2326 78.3842L90.0423 77.8374C90.0423 77.8374 91.0203 77.2484 91.441 76.8699C92.44 75.976 93.1866 76.5228 93.1866 76.5228L91.4094 78.2685C91.4094 78.2685 90.5576 79.1624 90.0949 79.6041C89.7373 79.9406 89.201 80.0457 88.4649 80.0983C87.7182 80.1509 84.6055 79.1308 83.2278 79.2886C82.6179 79.3517 80.2097 80.0247 79.8627 79.8249C79.5156 79.6251 81.4716 76.5859 82.1657 76.4387C82.8598 76.2915 83.6064 75.997 83.6064 75.997C83.6064 75.997 84.8473 75.2504 86.0882 75.1557C87.3291 75.0611 88.2651 74.6089 88.8014 74.4406C89.3588 74.2619 89.832 74.4196 89.9266 74.6089Z" fill="#FFA171"/>
<path d="M84.1315 68.1306C83.0062 68.015 81.6707 66.9844 81.6707 66.9844L78.8208 69.4346L79.2309 67.1106L80.7663 65.9538C80.7663 65.9538 80.882 65.9748 81.555 65.8697C82.228 65.775 84.2892 67.5312 84.5206 67.752C84.8045 68.015 84.1315 68.1306 84.1315 68.1306Z" fill="#F37E4E"/>
<path d="M85.604 63.5875C85.1833 64.1974 82.9749 64.8809 82.9749 64.8809L80.083 67.51L80.5983 66.6161L80.4616 65.7328C80.4616 65.7328 81.6184 64.5129 82.1231 64.1238C82.6279 63.7347 85.278 63.0932 85.5724 63.0406C85.8669 62.988 85.604 63.5875 85.604 63.5875Z" fill="#F37E4E"/>
<path d="M85.257 68.6562C84.8784 68.0884 82.5859 68.4564 81.976 68.4775C81.5974 68.4985 80.3039 68.3408 80.3039 68.3408L82.0601 66.1744L83.1012 66.5215C83.1012 66.5215 84.6261 67.4048 85.1624 67.5731C85.7303 67.7519 85.8144 67.4469 85.8144 67.4469L83.8689 65.6591C83.8689 65.6591 82.6595 65.0282 81.976 64.8494C81.5028 64.7337 81.1873 64.7127 80.5563 65.4804C80.0831 66.0588 77.5277 68.3197 76.3498 69.0453C75.824 69.3608 73.521 70.3178 73.3738 70.6859C73.2265 71.0539 76.6338 72.2528 77.2753 71.9478C77.9167 71.6428 78.6844 71.422 78.6844 71.422C78.6844 71.422 80.1146 71.2537 81.1557 70.5702C82.1968 69.8866 84.0372 69.5922 84.584 69.4555C85.2886 69.2662 85.4779 68.9822 85.257 68.6562Z" fill="#FFA171"/>
<path d="M52.468 102.329L46.7262 128.294C46.7262 128.294 46.4948 128.851 46.9786 128.883C47.4623 128.914 47.5675 128.325 47.5675 128.325L53.9718 102.256L52.468 102.329Z" fill="#5E2D1E"/>
<path d="M50.4802 102.329L44.7384 128.294C44.7384 128.294 44.507 128.851 44.9908 128.883C45.4745 128.925 45.5797 128.325 45.5797 128.325L51.984 102.256L50.4802 102.329Z" fill="#5E2D1E"/>
<path d="M73.0058 102.329L78.7476 128.294C78.7476 128.294 78.9789 128.851 78.4952 128.883C78.0115 128.914 77.9063 128.325 77.9063 128.325L71.502 102.256L73.0058 102.329Z" fill="#5E2D1E"/>
<path d="M71.8912 116.495C71.8912 116.495 69.7249 120.827 69.2937 121.437C68.8625 122.047 68.3367 122.215 67.7373 122.647C67.1274 123.078 66.875 123.688 67.4744 124.382C68.0843 125.076 70.5136 127.074 71.2076 127.589C71.9017 128.104 76.4973 127.936 76.4973 127.936L73.2057 125.686L72.3434 123.519L75.1196 118.314L71.8912 116.495Z" fill="#FFA171"/>
<path d="M70.0405 120.144C70.0405 120.144 70.4191 120.996 71.5023 121.469C72.5854 121.942 73.1533 121.847 73.1533 121.847L74.9516 118.735L71.5023 117.178L70.0405 120.144Z" fill="#F37E4E"/>
<path d="M79.0002 96.9872C79.0002 96.9872 75.961 101.93 73.8893 107.304C71.8071 112.677 71.1131 116.232 70.8502 117.01C70.5873 117.788 70.766 117.967 72.8482 119.176C74.9304 120.386 75.2775 120.649 75.7086 120.217C76.1398 119.786 79.0948 115.012 80.9983 112.067C82.9017 109.123 85.0785 104.958 86.2038 103.139C87.329 101.32 90.1052 98.8065 88.5489 95.9461C86.9925 93.0857 84.9944 92.0446 83.1751 92.5599C81.3453 93.0857 79.0002 96.9872 79.0002 96.9872Z" fill="#C82C2F"/>
<path d="M74.9936 102.329L80.7354 128.294C80.7354 128.294 80.9667 128.851 80.483 128.883C79.9992 128.914 79.8941 128.325 79.8941 128.325L73.4897 102.256L74.9936 102.329Z" fill="#5E2D1E"/>
<path d="M46.0845 97.1135C46.0845 97.1135 46.0109 98.1231 46.8838 99.038C47.7566 99.9424 48.4191 100.016 48.4191 100.016L49.0501 98.9644C49.0501 98.9644 48.2824 98.6804 47.7566 98.0915C47.2308 97.5026 47.0941 96.5562 47.0941 96.5562L46.0845 97.1135Z" fill="#5E2D1E"/>
<path d="M73.7002 53.524C73.7002 53.524 74.1208 53.7238 74.8465 53.6187C75.5616 53.524 75.6983 53.5556 75.53 53.0298C75.3617 52.504 75.1094 51.526 75.0357 50.9371C74.9726 50.3482 74.9411 49.6331 74.9411 49.6331C74.9411 49.6331 73.7317 52.546 73.7002 53.524Z" fill="#F37E4E"/>
<path d="M67.5586 59.4447C67.5586 59.4447 67.8215 58.7086 68.5576 57.8147C69.2937 56.9209 69.3463 56.3425 70.0299 56.2373C70.7134 56.1322 65.0347 50.9792 65.0347 50.9792C65.0347 50.9792 65.245 52.4515 64.4563 53.5557C63.6676 54.6599 62.0376 55.8167 62.0376 55.8167C62.0376 55.8167 64.3512 59.6025 67.5586 59.4447Z" fill="#FFA171"/>
<path d="M65.4345 54.9438C65.7499 56.5002 65.7184 57.3205 65.792 58.0777C65.8656 58.8348 65.8656 59.0872 66.4019 59.3396C66.9383 59.592 67.1486 59.7813 67.5482 59.4342C67.9478 59.0872 67.7375 59.0557 68.0214 58.5824C68.3054 58.1092 69.031 56.8893 69.3254 56.6369C69.6094 56.3846 70.03 56.2268 70.03 56.2268L65.0033 51.3999L64.9297 52.8091C64.9297 52.8196 65.2557 54.05 65.4345 54.9438Z" fill="#F37E4E"/>
<path d="M66.4019 51.505C66.4019 51.505 65.508 52.9247 66.139 53.766C66.77 54.6073 67.8216 55.396 69.1887 56.0795C70.5558 56.7631 71.3445 57.1311 72.0281 57.026C72.7116 56.9208 72.8693 56.395 73.0271 56.0795C73.1848 55.764 73.1848 55.764 73.1848 55.764C73.1848 55.764 72.5539 55.2908 72.2384 54.7124C71.9229 54.134 71.9229 53.8185 71.9229 53.8185C71.9229 53.8185 72.4487 54.2392 73.1322 54.3969C73.8158 54.5547 73.9735 54.6073 74.0261 54.2392C74.0787 53.8711 74.2364 52.8721 74.5519 51.9256C74.8674 50.9792 75.0777 50.2956 75.3406 49.4543C75.6035 48.6131 75.9716 47.1408 75.919 46.7201C75.8664 46.2995 74.4993 44.985 72.0281 46.2995C69.5568 47.614 66.77 50.3482 66.4019 51.505Z" fill="#FFA171"/>
<path d="M67.4533 66.0173C67.4533 66.0173 68.2526 69.8767 68.9046 71.086C69.5461 72.2954 69.2306 72.4531 70.2717 71.9694C71.3128 71.4857 76.3079 68.2677 76.3079 68.2677C76.3079 68.2677 77.1913 69.5507 77.7592 70.6023C78.327 71.6434 78.4007 72.695 78.4007 72.695C78.4007 72.695 73.0164 77.3642 71.481 78.4894C69.9562 79.6146 67.7057 80.5821 65.5289 80.4244C63.352 80.2666 60.9438 65.1444 60.9438 65.1444C60.9438 65.1444 64.7191 59.6655 67.4533 66.0173Z" fill="#1949B7"/>
<path d="M61.312 55.8481C61.312 55.8481 57.0109 58.8452 53.225 65.5125C49.4392 72.1797 48.1247 74.9981 47.1362 80.4559C46.1477 85.9138 47.0415 91.1403 47.0415 91.1403L57.7785 89.3947L68.1685 85.7771L70.5031 85.1987C70.5031 85.1987 69.1044 80.1825 68.7574 74.9244C68.4104 69.6769 67.9371 60.3175 67.9371 60.3175C67.9371 60.3175 65.2871 60.0756 63.8358 58.8663C62.3846 57.6569 61.312 55.8481 61.312 55.8481Z" fill="#2D63D9"/>
<path d="M55.8644 68.2676C55.8644 68.2676 54.6446 75.2398 55.3807 80.7608C56.0117 85.5035 58.9983 85.5877 62.5527 85.2512C66.1072 84.9146 70.1664 84.1785 70.1664 84.1785L69.4303 80.8554C69.4303 80.8554 63.8883 79.5199 61.4065 74.3564C58.9246 69.214 55.8644 68.2676 55.8644 68.2676Z" fill="#1949B7"/>
<path d="M60.8597 60.307C64.5403 59.8443 65.3606 62.242 66.0126 68.1941C66.6646 74.1463 67.0537 77.2801 67.222 79.4569C67.3797 81.6338 65.939 83.0009 63.5203 83.4005C61.1121 83.8001 58.4515 83.4005 57.0844 80.7504C55.7173 78.1003 55.7173 71.5803 55.875 68.2782C56.0328 64.9762 56.3483 60.8749 60.8597 60.307Z" fill="#4074E6"/>
<path d="M62.8683 76.1549C65.1188 76.218 69.3042 76.7964 72.6799 76.3126C76.0556 75.8289 81.3662 75.1033 81.3662 75.1033C81.3662 75.1033 82.1655 75.6711 82.1655 78.2371C82.1655 80.8135 82.4915 80.8135 81.7658 81.2132C81.0402 81.6128 74.1206 82.9063 70.503 83.3059C66.8855 83.7055 63.4257 83.7896 61.7326 83.5477C60.0395 83.3059 58.9142 82.9063 57.9573 81.6969C56.9898 80.4981 57.4735 75.9866 62.8683 76.1549Z" fill="#4074E6"/>
<path d="M29.6584 104.717C29.4902 104.391 29.3009 104.065 29.1116 103.77C26.43 99.5847 20.5199 94.7578 20.5199 94.7578C20.5199 94.7578 19.8784 96.7979 21.5925 102.698C23.3067 108.597 24.2742 108.282 25.452 109.354C26.6298 110.427 26.4195 110.532 26.4195 111.5C26.4195 112.467 26.9558 113.329 28.2493 114.286C28.7751 114.686 29.406 115.359 29.9529 116.011H32.5819C32.3821 114.896 32.0982 113.424 31.6986 111.636C31.2569 109.575 30.5102 107.135 29.6584 104.717Z" fill="#C1E5F2"/>
<path d="M39.6277 96.8927C38.881 89.8048 34.7587 81.0659 32.1191 77.89C29.8266 75.1453 27.471 72.7371 26.7875 72.7371C26.7769 72.7371 26.7664 72.7371 26.7454 72.7371C26.1039 72.8422 25.2416 78.216 25.2416 78.216C25.2416 78.216 26.2091 78.8575 27.7129 80.8976C29.0905 82.7695 29.4796 83.8211 29.122 83.8211C29.0905 83.8211 29.0484 83.8106 29.0064 83.7895C28.47 83.5792 27.0714 81.4234 26.2196 80.8871C25.3573 80.3508 24.6106 80.0248 24.6106 80.0248C24.6106 80.0248 24.2846 83.1375 24.5055 85.0725C24.7158 87.0075 25.0418 87.7541 25.0418 87.7541C25.0418 87.7541 26.4404 89.0371 27.6182 89.8994C28.796 90.7617 29.122 91.5084 29.3324 92.0447C29.3955 92.213 29.3955 92.2866 29.3219 92.2866C29.1746 92.2866 28.7119 91.9185 28.0389 91.4032C27.0714 90.6566 24.9261 89.3631 24.9261 89.3631C24.9261 89.3631 25.4624 92.907 27.2922 96.9873C28.2492 99.1221 29.3113 101.772 30.2578 104.454C31.1201 106.904 31.8773 109.375 32.34 111.479C32.7501 113.34 33.0446 114.865 33.2444 115.99H33.297H35.3897H36.3046H36.7042C36.8409 114.865 37.0302 113.424 37.2826 111.71C37.7243 108.776 38.3868 105.179 39.7328 101.73C39.7959 99.9739 39.7749 98.3123 39.6277 96.8927Z" fill="#C1E5F2"/>
<path d="M45.7481 94.5371C45.7481 94.5371 43.8131 95.0734 41.6678 99.0485C41.1736 99.9634 40.7424 100.91 40.3638 101.867C40.2376 102.193 40.1115 102.529 39.9853 102.855C39.8485 103.244 39.7118 103.644 39.5962 104.044C38.7969 106.599 38.2922 109.249 37.9136 111.815C37.6612 113.487 37.4719 114.907 37.3457 116.001H38.0818H38.4078H38.7338H41.1841C42.5722 114.486 44.3705 112.099 44.9909 109.344C46.0636 104.622 45.7481 94.5371 45.7481 94.5371Z" fill="#C1E5F2"/>
<path d="M43.971 116.642H41.4681H41.0265H40.5743H38.6077H38.2817H37.9557H37.2617H36.9357H36.6097H36.2942H35.3793H33.3391H33.2866H33.0131H32.9606H32.6871H32.6451H30.4682H30.0581H29.648H27.713C27.0715 121.69 31.8984 128.557 31.8984 128.557H35.3793H36.2942H39.775C39.7856 128.557 44.6125 121.69 43.971 116.642Z" fill="#C1E5F2"/>
<path d="M88.6226 118.84C88.6226 118.84 90.0107 122.741 90.3577 123.604C90.7048 124.466 90.526 125.339 90.2736 126.201C90.0107 127.063 90.1895 127.41 90.3577 127.673C90.526 127.936 90.7048 127.842 91.5671 127.842C92.4294 127.842 101.799 127.842 101.799 127.842C101.799 127.842 95.4686 125.065 94.8586 124.718C94.2487 124.371 93.9963 123.677 93.4705 122.026C92.9552 120.375 92.3453 116.915 92.3453 116.915L88.6226 118.84Z" fill="#FFA171"/>
<path d="M89.874 122.268C89.874 122.268 90.7469 122.499 91.8511 122.384C92.8606 122.268 93.4811 122.047 93.4811 122.047L92.5241 117.988L88.875 119.366L89.874 122.268Z" fill="#F37E4E"/>
<path d="M80.8194 98.7225C80.8194 98.7225 71.1971 99.0696 63.5624 98.8067C55.9277 98.5438 51.942 98.4596 50.0386 96.2092C48.1352 93.9587 47.8828 92.2972 47.8828 92.2972L58.7986 89.0056L69.2937 85.8823C69.2937 85.8823 69.5671 86.0506 70.9447 86.1873C72.3224 86.3135 77.2649 85.9665 81.4293 87.0076C85.5937 88.0487 87.066 88.911 88.6224 90.909C90.1788 92.9071 90.1788 95.5887 91.2199 100.962C92.261 106.336 93.912 115.706 94.259 116.915C94.6061 118.125 94.869 119.166 94.1749 119.429C93.4809 119.692 91.9245 120.123 90.7046 120.123C89.4952 120.123 88.7065 120.386 88.3595 119.692C88.0125 118.998 84.3739 111.363 83.154 107.808C81.9446 104.275 80.8194 98.7225 80.8194 98.7225Z" fill="#E84C4F"/>
<path d="M62.5319 55.3959C62.5319 55.3959 62.5109 55.1225 61.9535 55.4274C61.3962 55.7324 61.0176 56.0794 61.0176 56.0794C61.0176 56.0794 61.3646 57.1311 63.6782 58.8873C65.9917 60.6434 67.9688 61.5478 67.9688 61.5478C67.9688 61.5478 68.116 60.1597 68.1265 59.6654C68.1475 59.1817 67.7795 58.9188 67.7795 58.9188C67.7795 58.9188 67.7479 59.4236 67.3062 59.4656C66.8751 59.4972 65.529 58.9924 64.0883 57.762C62.6371 56.5421 62.3847 55.9638 62.5319 55.3959Z" fill="#FFC648"/>
<path d="M70.4402 84.6099L70.945 86.1873C70.945 86.1873 67.4011 86.7341 62.9317 88.585C58.4623 90.4358 53.0045 91.8029 50.775 92.0237C48.5351 92.2446 47.8831 92.2972 47.8831 92.2972L47.0103 90.3306C47.0103 90.3306 53.6039 89.7312 56.6641 88.8058C59.7138 87.8804 63.2787 86.4502 65.9919 85.6404C68.5053 84.8938 70.4402 84.6099 70.4402 84.6099Z" fill="#FFC648"/>
<path fill-rule="evenodd" clip-rule="evenodd" d="M73.9102 52.9666C73.9523 52.9877 73.9943 52.9877 74.0364 52.9877C74.6463 52.9877 75.2458 51.915 75.5297 50.8319C75.8347 49.6751 75.8031 48.3501 75.1511 48.1818C74.4991 48.0135 73.8261 49.1598 73.5316 50.3166C73.2267 51.4734 73.2582 52.7984 73.9102 52.9666ZM73.8365 50.3902C74.152 49.1598 74.7094 48.4762 75.0143 48.4762C75.0249 48.4762 75.0327 48.4789 75.0406 48.4815C75.0485 48.4841 75.0564 48.4868 75.0669 48.4868C75.3509 48.5604 75.5507 49.4542 75.2142 50.7477C74.8776 52.0412 74.2677 52.7248 73.9838 52.6512C73.6998 52.5775 73.5 51.6837 73.8365 50.3902Z" fill="#452F27"/>
<path d="M74.3519 103.013H50.5749C49.1763 103.013 48.0405 101.877 48.0405 100.479C48.0405 99.0801 49.1763 97.9443 50.5749 97.9443H74.3519C75.7506 97.9443 76.8863 99.0801 76.8863 100.479C76.8758 101.888 75.7506 103.013 74.3519 103.013Z" fill="#5E2D1E"/>
<path d="M42.9826 95.6729L39.5017 72.1482C39.3019 70.7706 40.2484 69.4771 41.6365 69.2773C43.0141 69.0775 44.3076 70.024 44.5074 71.4121L47.9882 94.9367C48.188 96.3144 47.2416 97.6078 45.8535 97.8077C44.4758 98.0075 43.1929 97.0505 42.9826 95.6729Z" fill="#5E2D1E"/>
<path d="M141.024 104.054C140.993 102.855 140.73 98.1125 138.742 96.9767C136.45 95.6727 131.392 99.5952 131.392 99.5952C131.392 99.5952 131.392 99.6478 131.402 99.753C130.782 99.6899 130.151 99.6478 129.509 99.6478H126.933C125.829 99.6478 124.745 99.753 123.694 99.9528C122.779 99.2798 118.551 96.3037 116.522 97.471C114.229 98.775 114.229 104.822 114.229 104.822C114.261 104.906 114.313 104.99 114.387 105.064C111.485 108.145 109.697 112.299 109.697 116.873V124.487C109.697 126.958 111.705 128.967 114.177 128.967H142.265C144.737 128.967 146.745 126.958 146.745 124.487V116.873C146.745 111.783 144.537 107.209 141.024 104.054Z" fill="#C1E5F2"/>
<path d="M126.365 125.886C131.877 125.886 136.345 121.418 136.345 115.906C136.345 110.394 131.877 105.926 126.365 105.926C120.853 105.926 116.385 110.394 116.385 115.906C116.385 121.418 120.853 125.886 126.365 125.886Z" fill="white"/>
<path d="M70.6909 49.6526L70.7789 49.3496L73.7176 50.2034L73.6296 50.5064L70.6909 49.6526Z" fill="#452F27"/>
<path d="M74.6584 50.4778C74.7631 50.1576 74.6959 49.8483 74.5082 49.7869C74.3205 49.7255 74.0834 49.9353 73.9787 50.2555C73.874 50.5756 73.9412 50.885 74.1289 50.9464C74.3166 51.0078 74.5537 50.798 74.6584 50.4778Z" fill="#5E2D1E"/>
<path d="M127.469 83.0324H87.2556C86.5615 83.0324 85.9937 82.4645 85.9937 81.7705C85.9937 81.0764 86.5615 80.5085 87.2556 80.5085H127.48C128.174 80.5085 128.742 81.0764 128.742 81.7705C128.731 82.4645 128.174 83.0324 127.469 83.0324Z" fill="#5E2D1E"/>
<path d="M108.204 56.5631C108.204 56.5631 111.874 56.6157 113.578 55.7113C114.545 55.196 115.67 51.8098 115.67 51.8098L115.376 57.9197C115.376 57.9197 113.399 58.1721 111.296 58.1721C109.571 58.1616 107.836 58.1721 107.836 58.1721L107.688 56.5947L108.204 56.5631Z" fill="#FFA300"/>
<path d="M93.5124 82.7485L85.8566 127.957C85.8566 127.957 85.5517 128.925 86.1931 128.988C86.8346 129.051 86.9819 128.021 86.9819 128.021L95.5315 82.6328L93.5124 82.7485Z" fill="#5E2D1E"/>
<path d="M129.162 125.57C129.047 125.602 128.921 125.633 128.794 125.654C126.386 126.19 124.945 125.549 124.945 125.549C124.945 125.549 123.915 124.855 123.358 126.832C122.79 128.82 124.504 128.935 124.504 128.935C124.504 128.935 124.924 128.946 125.545 128.956C125.934 128.588 126.67 127.957 127.511 127.526C128.374 127.084 128.9 126.148 129.162 125.57Z" fill="#EA5800"/>
<path d="M133.159 125.875C132.612 125.276 131.949 124.813 131.434 124.497C131.255 124.676 131.024 124.855 130.698 125.023C131.003 125.412 131.434 126.054 131.77 126.842C132.002 127.389 132.149 127.81 132.233 128.115C132.885 127.841 133.537 127.484 134.094 127.032C133.916 126.769 133.621 126.39 133.159 125.875Z" fill="#FF8533"/>
<path d="M135.588 124.96C135.956 123.992 135.966 122.972 135.651 121.826C135.378 122.184 134.883 122.541 134.074 122.825C133.19 123.13 132.454 122.993 131.928 122.773C132.012 122.983 132.044 123.193 132.002 123.446C132.317 123.645 132.717 123.866 133.201 124.066C133.958 124.361 134.957 124.729 135.588 124.96Z" fill="#FF8533"/>
<path d="M130.33 127.053C130.119 126.422 129.888 125.801 129.73 125.402C129.551 125.454 129.362 125.517 129.152 125.57C128.889 126.148 128.363 127.084 127.501 127.536C126.67 127.968 125.923 128.609 125.534 128.967C126.954 128.988 129.425 128.977 130.424 128.714C130.466 128.704 130.519 128.693 130.561 128.683C130.582 128.283 130.54 127.684 130.33 127.053Z" fill="#FF8533"/>
<path d="M134.084 122.815C134.894 122.531 135.388 122.184 135.661 121.816C135.619 121.668 135.577 121.511 135.525 121.364C134.904 119.544 133.474 118.787 132.191 119.649C130.908 120.512 131.318 121.69 131.623 122.173C131.749 122.373 131.865 122.562 131.949 122.762C132.464 122.994 133.19 123.13 134.084 122.815Z" fill="#FFC9A4"/>
<path d="M134.105 127.032C134.431 126.769 134.725 126.474 134.956 126.138C135.23 125.749 135.44 125.36 135.598 124.96C134.967 124.729 133.968 124.361 133.221 124.045C132.738 123.845 132.338 123.625 132.022 123.425C132.001 123.519 131.98 123.614 131.938 123.719C131.844 123.972 131.707 124.235 131.455 124.487C131.97 124.792 132.622 125.255 133.179 125.865C133.621 126.39 133.915 126.769 134.105 127.032Z" fill="#FFC9A4"/>
<path d="M130.698 125.023C130.445 125.16 130.119 125.286 129.741 125.412C129.898 125.812 130.119 126.422 130.34 127.063C130.55 127.684 130.582 128.294 130.582 128.693C131.097 128.557 131.665 128.367 132.244 128.125C132.149 127.82 132.012 127.4 131.781 126.853C131.444 126.054 131.003 125.423 130.698 125.023Z" fill="#FFC9A4"/>
<path d="M109.707 113.277C109.707 113.277 109.118 114.076 108.771 115.885C108.435 117.704 108.403 119.471 108.656 121.111C108.908 122.752 109.634 125.496 109.928 126.38C110.223 127.263 110.223 127.705 110.223 127.705C110.223 127.705 109.76 128.146 109.718 128.546C109.676 128.946 109.718 128.946 110.433 128.946C111.148 128.946 124.493 128.946 124.493 128.946C124.493 128.946 125.881 127.621 125.797 124.655C125.713 121.69 125.019 119.597 123.957 117.841C122.916 116.105 120.066 114.675 120.066 114.675L109.707 113.277Z" fill="#FF8533"/>
<path d="M111.926 122.457C111.926 122.457 112.368 122.92 112.568 123.257C112.757 123.593 112.915 124.319 112.946 125.486C112.978 126.653 112.883 127.621 112.789 128.052C112.694 128.483 112.41 128.935 112.41 128.935L113.304 128.925C113.304 128.925 113.325 128.346 113.525 128.083C113.714 127.821 114.072 127.452 114.072 127.452C114.072 127.452 114.198 125.255 114.229 124.582C114.261 123.919 114.166 123.845 114.513 123.814C114.86 123.782 115.029 123.677 115.029 123.677C115.029 123.677 114.229 123.372 113.493 123.046C112.757 122.72 111.926 122.457 111.926 122.457Z" fill="#EA5800"/>
<path d="M121.654 119.292C121.654 119.292 120.182 119.628 119.487 120.585C118.804 121.521 118.678 121.847 118.562 122.531C118.478 122.983 118.436 122.194 118.783 121.132C119.13 120.07 119.225 119.597 119.33 119.365C119.424 119.134 119.708 119.029 120.413 119.134C121.107 119.229 121.654 119.292 121.654 119.292Z" fill="#EA5800"/>
<path d="M118.457 123.12C118.457 123.12 118.299 124.308 119.078 125.475C119.866 126.653 120.592 126.822 120.592 126.822C120.592 126.822 119.509 127.127 118.867 127.389C118.226 127.652 117.973 127.926 117.847 128.294C117.721 128.662 117.647 128.925 117.647 128.925L116.596 128.935C116.596 128.935 116.922 128.725 117.279 127.999C117.626 127.263 118.11 125.833 118.142 125.171C118.173 124.487 118.173 123.393 118.457 123.12Z" fill="#EA5800"/>
<path d="M109.329 114.339C109.329 114.339 109.066 115.359 109.55 117.052C110.023 118.724 111.043 120.238 111.8 120.943C112.558 121.658 114.167 121.742 115.124 120.943C116.606 119.713 117.637 118.104 118.1 117.536C118.562 116.968 119.677 115.243 119.677 115.243C119.677 115.243 116.438 116.894 113.451 116.368C110.307 115.811 109.329 114.339 109.329 114.339Z" fill="#FFC9A4"/>
<path d="M110.055 128.662C109.855 128.388 110.423 127.305 111.38 127.389C112.337 127.463 112.484 127.863 112.284 128.336C112.126 128.704 111.621 128.82 111.033 128.799C110.896 128.799 110.728 128.62 110.759 128.473C110.791 128.357 110.559 128.788 110.475 128.799C110.202 128.809 110.107 128.746 110.055 128.662Z" fill="#FFC9A4"/>
<path d="M113.756 128.588C113.556 128.315 114.135 127.305 115.081 127.379C116.038 127.452 116.185 127.852 115.986 128.325C115.786 128.799 114.934 128.799 114.482 128.799C114.408 128.799 114.303 128.683 114.303 128.536C114.303 128.462 114.145 128.777 114.093 128.767C113.903 128.725 113.809 128.662 113.756 128.588Z" fill="#FFC9A4"/>
<path d="M118.057 128.63C117.858 128.357 118.436 127.347 119.382 127.421C120.339 127.494 120.497 128.01 120.297 128.483C120.171 128.777 119.761 128.809 119.404 128.809C119.351 128.809 119.256 128.704 119.246 128.62C119.235 128.567 119.141 128.83 119.088 128.83C118.972 128.83 118.857 128.83 118.762 128.83C118.646 128.83 118.583 128.63 118.604 128.546C118.625 128.462 118.499 128.788 118.257 128.767C118.152 128.767 118.089 128.683 118.057 128.63Z" fill="#FFC9A4"/>
<path d="M117.489 105.495C117.489 105.495 120.034 104.128 120.55 104.054C121.054 103.98 121.496 104.664 121.422 105.726C121.349 106.788 121.202 107.398 120.918 108.155C120.623 108.913 120.476 108.997 120.918 109.754C121.359 110.511 121.875 112.13 120.949 113.855C119.792 116.021 115.533 116.463 112.726 115.674C109.339 114.728 107.836 113.077 107.457 111.342C107.173 110.059 107.846 108.523 108.719 107.745C109.665 106.893 110.149 106.031 110.223 105.568C110.296 105.116 110.591 102.981 110.801 102.298C111.022 101.614 111.569 101.467 112.084 102.077C112.589 102.687 113.02 103.234 113.42 103.97C113.777 104.622 113.714 104.653 113.714 104.653C113.714 104.653 116.333 104.885 117.489 105.495Z" fill="#FF8533"/>
<path d="M120.581 104.748C120.497 104.601 119.814 104.79 119.151 105.442C118.488 106.094 118.457 106.325 118.488 106.515C118.52 106.704 119.225 107.125 119.551 107.587C119.877 108.05 120.213 108.239 120.466 107.629C120.728 107.019 121.023 105.558 120.581 104.748Z" fill="#FFC19C"/>
<path d="M112.516 104.527C112.537 104.601 112.516 104.674 112.463 104.727C112.232 104.958 111.758 105.074 111.401 105.2C111.001 105.358 110.78 105.474 110.738 105.2C110.707 104.927 110.991 103.434 111.064 102.971C111.138 102.508 111.317 102.224 111.432 102.245C111.601 102.266 111.906 102.708 112.168 103.402C112.358 103.917 112.473 104.338 112.516 104.527Z" fill="#FFC19C"/>
<path d="M113.577 109.007C113.178 108.986 112.925 109.68 112.399 109.817C111.874 109.954 111.464 110.059 110.559 109.701C109.865 109.428 109.613 109.386 109.213 110.038C108.813 110.69 109.423 111.268 110.149 111.962C110.875 112.656 111.316 113.277 111.737 113.823C111.979 114.139 113.104 114.686 114.061 114.16C115.018 113.645 115.702 113.497 116.459 113.466C117.058 113.434 117.857 113.424 118.089 112.456C118.32 111.489 117.437 111.152 116.911 111.089C116.385 111.016 115.081 111.215 114.587 110.458C114.093 109.701 114.177 109.039 113.577 109.007Z" fill="#FFC9A4"/>
<path d="M113.23 110.669C112.904 110.595 112.641 110.511 112.62 110.648C112.599 110.784 112.873 111.121 112.988 111.247C113.104 111.384 113.188 111.289 113.367 111.237C113.546 111.184 113.84 111.152 113.872 110.995C113.903 110.826 113.451 110.721 113.23 110.669Z" fill="#5E2D1E"/>
<path d="M114.261 112.183C113.314 112.488 113.178 111.889 113.104 111.72C113.02 111.552 113.041 111.479 112.967 111.573C112.883 111.668 112.715 111.794 112.589 111.847C112.052 112.099 111.769 111.615 111.769 111.615" stroke="#7C411E" stroke-width="0.130314" stroke-linecap="round"/>
<path d="M121.349 112.751C121.349 112.751 119.929 115.149 117.458 115.695C115.46 116.137 114.145 115.958 113.073 115.727C109.823 115.043 109.224 114.15 109.224 114.15L108.887 114.949C108.887 114.949 109.445 115.391 110.833 115.948C111.958 116.4 113.157 116.779 114.387 116.831C115.639 116.884 116.795 116.821 118.047 116.369C120.718 115.412 121.633 113.298 121.633 113.298L121.349 112.751Z" fill="#C82C2F"/>
<path d="M115.134 106.893C115.102 106.999 114.997 107.051 114.892 107.041C114.661 106.999 114.408 106.925 114.324 106.788C114.261 106.683 114.408 106.199 114.566 105.789C114.776 105.253 114.976 104.832 114.976 104.832L115.796 104.98L115.502 105.705C115.439 105.842 115.407 105.968 115.355 106.136L115.134 106.893Z" fill="#FFC9A4"/>
<path d="M116.396 106.809C116.375 106.883 116.312 106.925 116.238 106.914C116.007 106.893 115.754 106.841 115.681 106.715C115.554 106.515 116.217 105.063 116.217 105.063L116.932 105.263L116.396 106.809Z" fill="#FFC9A4"/>
<path d="M114.145 106.178C114.103 106.284 113.998 106.347 113.893 106.336C113.693 106.305 113.493 106.241 113.42 106.126C113.367 106.042 113.504 105.758 113.641 105.421C113.819 104.958 113.946 104.675 113.946 104.675L114.682 104.759L114.356 105.505L114.145 106.178Z" fill="#FFC9A4"/>
<path d="M116.564 109.859C116.396 110.427 115.975 110.784 115.628 110.648C115.271 110.511 115.123 109.933 115.281 109.365C115.449 108.797 115.839 108.345 116.196 108.481C116.554 108.618 116.732 109.281 116.564 109.859Z" fill="#5E2D1E"/>
<path d="M112.168 108.723C112.042 109.27 111.664 109.638 111.327 109.533C110.991 109.428 110.812 108.891 110.938 108.345C111.064 107.798 111.443 107.43 111.779 107.535C112.116 107.64 112.295 108.166 112.168 108.723Z" fill="#5E2D1E"/>
<path d="M110.412 109.102C110.412 109.102 110.917 109.228 111.285 109.323C111.653 109.417 112.231 109.659 112.231 109.659C112.231 109.659 111.527 109.691 111.201 109.649C110.864 109.617 110.412 109.102 110.412 109.102Z" fill="#FF8533"/>
<path d="M114.692 110.206C114.692 110.206 115.386 110.29 115.755 110.364C116.27 110.469 116.68 110.827 116.68 110.827C116.68 110.827 115.954 110.774 115.607 110.742C115.271 110.711 114.692 110.206 114.692 110.206Z" fill="#FF8533"/>
<path d="M117.279 116.326C117.605 117.399 117.921 117.956 118.278 118.167C118.636 118.377 119.12 118.04 119.519 117.252C119.919 116.463 120.119 115.538 120.119 115.538L119.677 115.243C119.677 115.243 117.037 115.538 117.279 116.326Z" fill="#C82C2F"/>
<path d="M120.676 115.874C121.149 115.696 121.433 115.243 121.118 114.833C120.802 114.413 120.476 114.37 120.076 114.665C119.677 114.959 119.561 115.17 119.719 115.58C119.877 116 120.034 116.127 120.676 115.874Z" fill="#C82C2F"/>
<path d="M122.748 113.287C123.021 114.16 123.862 115.085 123.505 115.506C123.147 115.927 122.348 115.885 121.864 115.801C121.381 115.716 120.907 115.422 120.907 115.422L120.55 114.749C120.55 114.749 121.349 113.287 121.633 112.867C121.906 112.446 122.548 112.656 122.748 113.287Z" fill="#C82C2F"/>
<path d="M122.705 82.7485L130.361 127.957C130.361 127.957 130.666 128.925 130.024 128.988C129.383 129.051 129.236 128.021 129.236 128.021L120.686 82.6328L122.705 82.7485Z" fill="#5E2D1E"/>
<path d="M74.5516 125.213L72.4589 127.894H65.9179C65.9179 127.894 65.6655 128.01 65.7917 128.42C65.9179 128.83 66.2649 128.893 66.2649 128.893H79.6415C79.6415 128.893 80.02 128.483 79.9254 128.01C79.8413 127.537 74.5516 125.213 74.5516 125.213Z" fill="#E84C4F"/>
<path d="M73.4896 124.571C73.4896 124.571 73.7104 124.476 74.2468 124.729C74.7831 124.981 74.7831 125.36 74.7831 125.36L72.4485 127.894L70.7344 127.915C70.7449 127.915 72.417 125.423 73.4896 124.571Z" fill="#C1E5F2"/>
<path d="M98.4022 125.213L96.3095 127.894H89.7685C89.7685 127.894 89.5161 128.01 89.6423 128.42C89.7685 128.83 90.1155 128.893 90.1155 128.893H103.492C103.492 128.893 103.871 128.483 103.776 128.01C103.681 127.537 98.4022 125.213 98.4022 125.213Z" fill="#E84C4F"/>
<path d="M97.3402 124.571C97.3402 124.571 97.561 124.476 98.0974 124.729C98.6337 124.981 98.6337 125.36 98.6337 125.36L96.2991 127.894L94.585 127.915C94.5955 127.915 96.2675 125.423 97.3402 124.571Z" fill="#C1E5F2"/>
<path d="M72.249 52.6198C72.702 52.6198 73.0692 52.2525 73.0692 51.7995C73.0692 51.3465 72.702 50.9792 72.249 50.9792C71.796 50.9792 71.4287 51.3465 71.4287 51.7995C71.4287 52.2525 71.796 52.6198 72.249 52.6198Z" fill="#FF8080"/>
<path d="M65.8864 41.0307C65.8864 41.0307 65.3186 41.4304 65.3186 42.1665C65.3186 42.9026 65.4342 43.2496 65.4342 43.2496C65.4342 43.2496 64.1828 43.481 64.0146 45.1846C63.8463 46.8882 64.2459 47.2879 64.3511 48.371C64.4668 49.4542 64.3511 49.959 63.8989 50.4742C63.4467 50.9895 63.3731 51.3155 64.0566 52.0517C64.7402 52.7878 65.6025 52.7878 65.6025 52.7878C65.6025 52.7878 65.8339 53.0192 66.2335 53.4188C66.6331 53.8184 67.1379 52.9666 67.4849 52.283C67.8214 51.5995 68.0002 50.8108 68.0002 50.8108L70.3348 50.1272C70.3348 50.1272 70.2191 50.6425 70.9026 50.8108C71.5862 50.979 71.5231 51.0947 71.807 50.1903C72.091 49.2859 72.2066 48.0871 73.1741 47.8031C74.1416 47.5192 74.5938 47.4035 75.5613 47.3509C76.5288 47.2984 77.1492 47.0144 77.5489 46.2152C77.9485 45.416 77.8854 44.6798 77.7802 44.7429C77.6645 44.7955 76.8758 45.1951 76.308 44.9743C75.7401 44.7429 75.6875 44.2907 75.7927 43.786C75.9083 43.2707 75.6244 42.8185 75.2248 42.6502C74.8252 42.482 74.4256 42.5346 74.4256 42.5346C74.4256 42.5346 74.3099 41.4514 73.4055 41.1675C72.5011 40.8835 71.7545 41.1675 71.7545 41.1675C71.7545 41.1675 70.9026 39.6321 69.199 40.0317C67.4954 40.4313 67.0958 41.3357 67.0958 41.3357C67.0958 41.3357 66.1073 41.546 65.8864 41.0307Z" fill="#5E2D1E"/>
<path d="M68.8309 51.4419C69.7253 51.4419 70.4504 50.7168 70.4504 49.8224C70.4504 48.928 69.7253 48.2029 68.8309 48.2029C67.9365 48.2029 67.2114 48.928 67.2114 49.8224C67.2114 50.7168 67.9365 51.4419 68.8309 51.4419Z" fill="#FFA171"/>
<path d="M68.9152 50.8846C69.3508 50.8846 69.7039 50.5314 69.7039 50.0958C69.7039 49.6602 69.3508 49.3071 68.9152 49.3071C68.4796 49.3071 68.1265 49.6602 68.1265 50.0958C68.1265 50.5314 68.4796 50.8846 68.9152 50.8846Z" fill="#F37E4E"/>
<path d="M117.1 38.9907L112.768 76.4808L113.399 76.5544L117.731 39.0538C117.731 39.0538 117.279 39.0118 117.1 38.9907Z" fill="#9E9E9F"/>
<path d="M117.731 39.0537C117.731 39.0537 118.73 43.9227 118.972 45.5527C119.477 49.0546 119.288 53.1348 119.077 56.9206L118.899 58.6032C118.299 62.4416 117.668 66.28 116.133 70.3918C115.544 71.9693 113.409 76.5543 113.409 76.5543L117.731 39.0537Z" fill="#9E9E9F"/>
<path d="M123.757 80.5505H111.79C111.558 80.5505 111.358 80.3612 111.358 80.1193C111.358 79.888 111.548 79.6882 111.79 79.6882H123.757C124.22 79.6882 124.546 79.583 124.703 79.3832C124.998 79.0046 124.861 78.1739 124.703 77.4903C124.398 76.1442 120.392 62.3891 119.677 60.1702C119.256 58.8452 118.877 58.6769 118.825 58.6559C118.636 58.74 118.404 58.6769 118.289 58.4981C118.162 58.2983 118.215 58.0354 118.415 57.9092C118.562 57.8146 118.825 57.7515 119.119 57.8461C119.656 58.0354 120.108 58.7085 120.486 59.8968C121.202 62.1157 125.229 75.9339 125.534 77.2905C125.755 78.258 125.881 79.2465 125.366 79.8985C125.029 80.3402 124.493 80.5505 123.757 80.5505Z" fill="#9E9E9F"/>
<path d="M109.402 44.8166C109.939 44.9639 110.517 45.3319 111.064 45.4897C111.716 45.6684 112.389 45.9629 112.999 46.2258C112.978 46.2679 112.904 46.3099 112.936 46.3625C113.114 46.5202 113.072 46.6044 113.03 46.699C113.009 46.7411 112.873 46.6359 112.904 46.699C112.746 46.6359 112.483 46.5413 112.62 46.657C112.652 46.7201 112.873 46.7726 112.894 46.8568C112.915 46.9409 112.788 46.9724 112.809 47.0566C112.862 47.0776 112.967 47.1197 113.02 47.1407C113.051 47.2038 112.915 47.2564 112.957 47.2774C113.093 47.3931 113.304 47.4562 113.514 47.5403C113.493 47.5824 113.525 47.656 113.419 47.6244C111.611 46.8883 109.718 46.1732 107.951 45.3214C107.751 45.2057 107.951 45.1847 108.13 45.1847C108.067 45.1847 108.098 45.1216 108.035 45.1216C108.067 45.0585 108.214 44.9849 108.435 45.0585C108.382 45.0375 108.33 45.0164 108.277 44.9954C108.235 44.9533 108.309 44.9323 108.33 44.8797C108.382 44.9008 108.435 44.9218 108.445 44.9008C108.456 44.8797 108.477 44.8377 108.487 44.8166C108.435 44.7956 108.33 44.7535 108.277 44.7325C108.33 44.7535 108.382 44.7746 108.393 44.7535C108.403 44.7325 108.424 44.6904 108.435 44.6694C108.55 44.6904 108.677 44.8061 108.792 44.8271L108.824 44.7641C108.729 44.701 108.571 44.6484 108.466 44.6063C108.529 44.6063 108.54 44.5853 108.561 44.5432C108.729 44.5853 108.845 44.722 109.034 44.722C108.982 44.701 108.929 44.6799 108.876 44.6589C109.024 44.5748 109.244 44.7746 109.402 44.8166Z" fill="#E5F8FF"/>
<path d="M111.138 41.4305C111.443 41.5252 111.716 41.8196 112.021 41.9248C112.4 42.0405 112.747 42.2613 113.073 42.4611C113.052 42.5032 112.978 42.5452 112.999 42.5873C113.073 42.7135 113.02 42.7976 112.968 42.8818C112.947 42.9238 112.883 42.8292 112.883 42.8923C112.799 42.8397 112.652 42.7766 112.715 42.8713C112.715 42.9343 112.852 42.9554 112.841 43.029C112.831 43.1026 112.736 43.1342 112.726 43.2183C112.757 43.2393 112.81 43.2709 112.831 43.2814C112.831 43.3445 112.726 43.3865 112.757 43.4076C112.81 43.5022 112.936 43.5443 113.041 43.6179C113.02 43.66 113.02 43.7125 112.947 43.702C111.979 43.1552 110.959 42.6294 110.055 41.9774C109.96 41.8932 110.097 41.8617 110.212 41.8512C110.17 41.8512 110.212 41.7881 110.17 41.7986C110.212 41.7355 110.328 41.6724 110.444 41.7145C110.412 41.6934 110.391 41.6829 110.36 41.6619C110.349 41.6198 110.402 41.5988 110.423 41.5567C110.454 41.5778 110.475 41.5883 110.486 41.5672C110.496 41.5462 110.528 41.5042 110.538 41.4831C110.507 41.4621 110.454 41.4305 110.433 41.42C110.465 41.4411 110.486 41.4516 110.496 41.4305C110.507 41.4095 110.538 41.3674 110.549 41.3464C110.612 41.3569 110.675 41.4516 110.738 41.4621L110.78 41.399C110.738 41.3464 110.644 41.3149 110.591 41.2833C110.633 41.2833 110.644 41.2623 110.665 41.2202C110.759 41.2518 110.801 41.3674 110.917 41.3464C110.885 41.3254 110.864 41.3149 110.833 41.2938C110.959 41.2307 111.043 41.399 111.138 41.4305Z" fill="#E5F8FF"/>
<path d="M108.961 62.5994C109.318 62.3365 109.844 62.1998 110.201 61.9369C110.633 61.6214 111.148 61.3691 111.621 61.1377C111.642 61.1798 111.632 61.2639 111.684 61.2639C111.873 61.2534 111.916 61.3375 111.958 61.4216C111.979 61.4637 111.842 61.4742 111.895 61.5058C111.779 61.5583 111.59 61.6845 111.726 61.6635C111.789 61.6845 111.926 61.5689 112 61.6109C112.073 61.653 112.021 61.7581 112.094 61.8107C112.136 61.7897 112.21 61.7581 112.252 61.7371C112.315 61.7581 112.273 61.8843 112.315 61.8633C112.452 61.8528 112.599 61.7476 112.757 61.674C112.778 61.7161 112.841 61.7371 112.767 61.8002C111.4 62.5153 110.023 63.2935 108.603 63.9034C108.435 63.956 108.508 63.8088 108.592 63.6931C108.561 63.7352 108.529 63.6721 108.498 63.7142C108.466 63.6511 108.487 63.5038 108.645 63.3987C108.603 63.4197 108.561 63.4407 108.529 63.4512C108.477 63.4512 108.498 63.3882 108.477 63.3461C108.519 63.3251 108.561 63.304 108.55 63.283C108.54 63.262 108.519 63.2199 108.508 63.1989C108.466 63.2199 108.393 63.2514 108.351 63.2725C108.393 63.2514 108.435 63.2304 108.424 63.2094C108.414 63.1883 108.393 63.1463 108.382 63.1252C108.456 63.0622 108.592 63.0516 108.656 62.9885L108.624 62.9254C108.529 62.9465 108.424 63.0201 108.351 63.0622C108.382 63.0201 108.372 62.9991 108.351 62.957C108.456 62.8729 108.613 62.8834 108.698 62.7572C108.656 62.7782 108.613 62.7992 108.582 62.8098C108.613 62.6836 108.845 62.6731 108.961 62.5994Z" fill="#E5F8FF"/>
<path d="M109.213 67.6157C109.381 67.3738 109.707 67.2266 109.886 66.9847C110.086 66.6902 110.37 66.4484 110.633 66.2275C110.664 66.2696 110.685 66.3432 110.727 66.3432C110.864 66.3222 110.927 66.3958 110.99 66.4694C111.022 66.5115 110.927 66.522 110.98 66.543C110.917 66.5956 110.822 66.7113 110.917 66.6902C110.969 66.7113 111.022 66.5956 111.095 66.6377C111.169 66.6797 111.169 66.7639 111.232 66.8059C111.253 66.7849 111.295 66.7533 111.316 66.7323C111.369 66.7533 111.39 66.8585 111.411 66.848C111.505 66.827 111.579 66.7323 111.663 66.6587C111.695 66.7008 111.747 66.7113 111.716 66.7744C110.98 67.4579 110.254 68.2046 109.444 68.7935C109.339 68.8461 109.339 68.7199 109.36 68.6042C109.35 68.6463 109.308 68.5832 109.297 68.6252C109.255 68.5726 109.213 68.4359 109.287 68.3518C109.265 68.3728 109.244 68.3939 109.223 68.4044C109.181 68.4044 109.181 68.3518 109.15 68.3097C109.171 68.2887 109.192 68.2677 109.181 68.2572C109.171 68.2361 109.139 68.2046 109.118 68.1835C109.097 68.2046 109.055 68.2361 109.034 68.2572C109.055 68.2361 109.076 68.2151 109.066 68.2046C109.055 68.1835 109.024 68.152 109.003 68.131C109.034 68.0784 109.129 68.0573 109.16 68.0048L109.118 67.9522C109.055 67.9732 109.013 68.0468 108.961 68.0784C108.971 68.0363 108.95 68.0258 108.918 67.9837C108.971 67.9101 109.076 67.9101 109.097 67.7944C109.076 67.8155 109.055 67.8365 109.034 67.847C108.992 67.7103 109.16 67.6893 109.213 67.6157Z" fill="#E5F8FF"/>
<path d="M101.44 69.8656C101.65 67.0451 99.5347 64.5878 96.7142 64.3771C93.8937 64.1665 91.4364 66.2822 91.2257 69.1027C91.015 71.9232 93.1307 74.3805 95.9513 74.5912C98.7718 74.8019 101.229 72.6862 101.44 69.8656Z" fill="#EA8B00"/>
<path d="M94.4871 71.359C94.4918 71.3109 94.5339 71.275 94.5823 71.2772C95.9387 71.3384 96.7366 71.3364 98.0939 71.2769C98.1409 71.2748 98.1823 71.3089 98.1883 71.3556C98.2421 71.7728 98.2426 72.0381 98.1873 72.4576C98.1816 72.5002 98.1462 72.533 98.1033 72.536C96.7512 72.6302 95.9531 72.6359 94.5702 72.5362C94.5271 72.5331 94.4916 72.4999 94.4864 72.457C94.4362 72.039 94.4466 71.7741 94.4871 71.359Z" fill="white"/>
<path d="M94.4989 68.5657C94.5024 68.5167 94.5448 68.4794 94.594 68.4816C95.9406 68.5423 96.7345 68.5404 98.0808 68.4815C98.1304 68.4793 98.1729 68.5174 98.1757 68.5669C98.2006 69.0093 98.2029 69.2748 98.1764 69.6507C98.1732 69.6959 98.1364 69.7316 98.0912 69.7343C96.7495 69.813 95.9548 69.8159 94.5812 69.7341C94.5375 69.7315 94.5013 69.6978 94.4966 69.6543C94.453 69.2499 94.4688 68.9833 94.4989 68.5657Z" fill="white"/>
<path d="M94.3604 69.386C94.4674 69.369 94.5325 69.3645 94.5864 69.4077L94.7559 69.5744C94.8185 69.6361 94.7852 69.7399 94.6973 69.7393C94.6125 69.7387 94.5082 69.7296 94.3575 69.7095C94.3207 69.7047 94.2882 69.6814 94.2755 69.6466C94.2461 69.5658 94.248 69.5074 94.29 69.4327C94.3045 69.4069 94.3311 69.3906 94.3604 69.386Z" fill="white"/>
<path d="M98.3127 69.3859C98.2155 69.3702 98.1534 69.3657 98.0943 69.4025C98.089 69.4058 98.0842 69.4099 98.0797 69.4143L97.9135 69.5778C97.8515 69.6388 97.8836 69.7407 97.9705 69.7398C98.0535 69.7389 98.1591 69.7295 98.315 69.7094C98.3519 69.7046 98.3846 69.6813 98.3974 69.6463C98.4267 69.5656 98.4248 69.5072 98.3828 69.4325C98.3683 69.4068 98.3418 69.3906 98.3127 69.3859Z" fill="white"/>
<path d="M94.4927 67.2685C94.4996 67.1691 94.5815 67.0913 94.6811 67.0888C95.8506 67.0595 96.6294 67.0552 97.9924 67.0888C98.0929 67.0913 98.1753 67.1706 98.1805 67.271C98.199 67.6278 98.2008 67.8709 98.1823 68.1769C98.1764 68.2735 98.0983 68.3497 98.0017 68.3553C96.7411 68.4274 95.958 68.4298 94.6668 68.3549C94.5734 68.3495 94.4966 68.2778 94.4881 68.1846C94.4579 67.854 94.4689 67.6091 94.4927 67.2685Z" fill="white"/>
<path d="M94.3604 68.002C94.4674 67.985 94.5325 67.9804 94.5864 68.0237L94.7559 68.1904C94.8185 68.252 94.7852 68.3559 94.6973 68.3553C94.6125 68.3547 94.5082 68.3455 94.3575 68.3255C94.3207 68.3206 94.2882 68.2974 94.2755 68.2625C94.2461 68.1818 94.248 68.1234 94.29 68.0487C94.3045 68.0229 94.3311 68.0066 94.3604 68.002Z" fill="white"/>
<path d="M98.3127 68.0018C98.2155 67.9862 98.1534 67.9816 98.0943 68.0185C98.089 68.0218 98.0842 68.0259 98.0797 68.0303L97.9135 68.1938C97.8515 68.2548 97.8836 68.3567 97.9705 68.3558C98.0535 68.3549 98.1591 68.3455 98.315 68.3253C98.3519 68.3205 98.3846 68.2973 98.3974 68.2623C98.4267 68.1816 98.4248 68.1232 98.3828 68.0485C98.3683 68.0228 98.3418 68.0065 98.3127 68.0018Z" fill="white"/>
<path d="M94.4989 69.9498C94.5024 69.9007 94.5448 69.8634 94.594 69.8656C95.9406 69.9264 96.7345 69.9245 98.0808 69.8655C98.1304 69.8634 98.1729 69.9014 98.1757 69.9509C98.2006 70.3933 98.2029 70.6589 98.1764 71.0347C98.1732 71.0799 98.1364 71.1156 98.0912 71.1183C96.7495 71.1971 95.9548 71.1999 94.5812 71.1181C94.5375 71.1155 94.5013 71.0819 94.4966 71.0383C94.453 70.634 94.4688 70.3674 94.4989 69.9498Z" fill="white"/>
<path d="M94.3604 70.77C94.4674 70.7531 94.5325 70.7485 94.5864 70.7917L94.7559 70.9584C94.8185 71.0201 94.7852 71.124 94.6973 71.1234C94.6125 71.1228 94.5082 71.1136 94.3575 71.0936C94.3207 71.0887 94.2882 71.0655 94.2755 71.0306C94.2461 70.9499 94.248 70.8914 94.29 70.8168C94.3045 70.7909 94.3311 70.7747 94.3604 70.77Z" fill="white"/>
<path d="M94.4156 72.1938C94.5225 72.1769 94.5877 72.1723 94.6416 72.2156L94.811 72.3823C94.8737 72.4439 94.8404 72.5478 94.7525 72.5472C94.6677 72.5466 94.5634 72.5374 94.4126 72.5174C94.3759 72.5125 94.3434 72.4893 94.3307 72.4544C94.3013 72.3737 94.3031 72.3152 94.3451 72.2406C94.3596 72.2148 94.3863 72.1985 94.4156 72.1938Z" fill="white"/>
<path d="M98.3127 70.7699C98.2155 70.7542 98.1534 70.7497 98.0943 70.7865C98.089 70.7899 98.0842 70.7939 98.0797 70.7984L97.9135 70.9618C97.8515 71.0228 97.8836 71.1248 97.9705 71.1238C98.0535 71.123 98.1591 71.1136 98.315 71.0934C98.3519 71.0886 98.3846 71.0653 98.3974 71.0303C98.4267 70.9496 98.4248 70.8912 98.3828 70.8166C98.3683 70.7909 98.3418 70.7746 98.3127 70.7699Z" fill="white"/>
<path d="M98.2956 72.193C98.1984 72.1773 98.1363 72.1728 98.0773 72.2096C98.0719 72.213 98.0671 72.217 98.0626 72.2215L97.8964 72.3849C97.8344 72.4459 97.8665 72.5479 97.9534 72.5469C98.0364 72.5461 98.142 72.5367 98.2979 72.5165C98.3348 72.5117 98.3676 72.4884 98.3803 72.4534C98.4096 72.3727 98.4077 72.3143 98.3657 72.2397C98.3512 72.214 98.3247 72.1977 98.2956 72.193Z" fill="white"/>
<path fill-rule="evenodd" clip-rule="evenodd" d="M97.3472 67.8398H95.2988V66.7603C95.2988 66.3934 95.5963 66.0959 95.9632 66.0959H96.6829C97.0498 66.0959 97.3472 66.3934 97.3472 66.7603V67.8398ZM95.9632 66.4004C95.7644 66.4004 95.6033 66.5615 95.6033 66.7603V67.5354H97.0427V66.7603C97.0427 66.5615 96.8816 66.4004 96.6829 66.4004H95.9632Z" fill="white"/>
<g style="mix-blend-mode:darken">
<rect x="97.5132" y="67.0647" width="0.442895" height="5.53618" fill="#D9D9D9"/>
</g>
<g style="mix-blend-mode:darken">
<rect x="97.3472" y="67.0647" width="0.110724" height="5.53618" fill="#D9D9D9"/>
</g>
<g style="mix-blend-mode:darken">
<rect x="96.9639" y="67.0786" width="0.0553618" height="5.53618" fill="#D9D9D9"/>
</g>
</svg>
