<svg width="168" height="168" viewBox="0 0 168 168" fill="none" xmlns="http://www.w3.org/2000/svg">
<rect width="168" height="168" rx="84" fill="#FFBA00" fill-opacity="0.2"/>
<g clip-path="url(#clip0_548_3475)">
<path fill-rule="evenodd" clip-rule="evenodd" d="M69.6602 111.314V101.354C69.6602 101.012 69.3813 100.733 69.0381 100.733L59.0786 100.732C58.7359 100.732 58.457 101.011 58.457 101.354V111.314C58.457 111.656 58.7359 111.935 59.0786 111.935L69.0381 111.935C69.3813 111.935 69.6602 111.656 69.6602 111.314Z" fill="#FFBA00"/>
<path fill-rule="evenodd" clip-rule="evenodd" d="M59.0786 69.043H69.0381C69.3813 69.043 69.6602 68.764 69.6602 68.4208V58.4619C69.6602 58.1187 69.3813 57.8398 69.0381 57.8398H59.0786C58.7359 57.8398 58.457 58.1187 58.457 58.4619V68.4208C58.457 68.764 58.7359 69.043 59.0786 69.043Z" fill="#FFBA00"/>
<path fill-rule="evenodd" clip-rule="evenodd" d="M77.839 60.4591L110.337 60.4592C110.877 60.4592 111.317 60.0195 111.317 59.4788C111.317 58.9379 110.877 58.4982 110.337 58.4982L77.839 58.498C77.2985 58.498 76.8584 58.9377 76.8584 59.4785C76.8584 60.0194 77.2982 60.4591 77.839 60.4591Z" fill="#FFBA00"/>
<path fill-rule="evenodd" clip-rule="evenodd" d="M110.337 66.4238H77.839C77.2985 66.4238 76.8584 66.8636 76.8584 67.4044C76.8584 67.9452 77.2982 68.385 77.839 68.385H110.337C110.877 68.385 111.317 67.9452 111.317 67.4044C111.317 66.8637 110.877 66.4238 110.337 66.4238Z" fill="#FFBA00"/>
<path fill-rule="evenodd" clip-rule="evenodd" d="M110.337 101.39L77.839 101.39C77.2985 101.39 76.8584 101.83 76.8584 102.37C76.8584 102.91 77.2982 103.35 77.839 103.35L110.337 103.35C110.877 103.35 111.317 102.911 111.317 102.37C111.317 101.83 110.877 101.39 110.337 101.39Z" fill="#FFBA00"/>
<path fill-rule="evenodd" clip-rule="evenodd" d="M110.337 109.317L77.839 109.316C77.2985 109.316 76.8584 109.756 76.8584 110.296C76.8584 110.837 77.2982 111.276 77.839 111.276L110.337 111.277C110.877 111.277 111.317 110.837 111.317 110.297C111.317 109.756 110.877 109.317 110.337 109.317Z" fill="#FFBA00"/>
<path fill-rule="evenodd" clip-rule="evenodd" d="M109.451 111.72H76.9522C75.6785 111.72 74.642 110.684 74.642 109.41C74.642 108.135 75.6785 107.099 76.9522 107.099H109.45C110.725 107.099 111.761 108.135 111.761 109.41C111.761 110.684 110.725 111.72 109.451 111.72ZM68.151 69.4862H58.1915C57.1153 69.4862 56.2397 68.6105 56.2397 67.5339V57.5753C56.2397 56.4988 57.1155 55.623 58.1915 55.623H68.151C69.2276 55.623 70.1033 56.4988 70.1033 57.5753V67.5342C70.103 68.6105 69.2272 69.4862 68.151 69.4862ZM58.1915 56.9532C57.8488 56.9532 57.5699 57.2321 57.5699 57.5753V67.5342C57.5699 67.8774 57.8488 68.1564 58.1915 68.1564H68.151C68.4942 68.1564 68.7731 67.8774 68.7731 67.5342V57.5753C68.7731 57.2321 68.4942 56.9532 68.151 56.9532H58.1915ZM109.451 60.9022H76.9522C75.6784 60.9022 74.6419 59.8658 74.6419 58.592C74.6419 57.3181 75.6784 56.2818 76.9522 56.2818L109.45 56.2816C110.725 56.2816 111.761 57.318 111.761 58.5918C111.761 59.8657 110.725 60.9022 109.451 60.9022ZM76.9522 57.6113C76.4117 57.6113 75.9716 58.051 75.9716 58.5918C75.9716 59.1327 76.4114 59.5724 76.9522 59.5724L109.45 59.5725C109.991 59.5725 110.43 59.1328 110.43 58.592C110.43 58.0511 109.991 57.6114 109.45 57.6114L76.9522 57.6113ZM109.451 68.828H76.9522C75.6784 68.828 74.6419 67.7916 74.6419 66.5177C74.6419 65.2439 75.6784 64.2074 76.9522 64.2074L109.45 64.2073C110.725 64.2073 111.761 65.2437 111.761 66.5176C111.761 67.7913 110.725 68.828 109.451 68.828ZM76.9522 65.5371C76.4117 65.5371 75.9716 65.9769 75.9716 66.5177C75.9716 67.0585 76.4114 67.4983 76.9522 67.4983H109.45C109.991 67.4983 110.43 67.0585 110.43 66.5177C110.43 65.9769 109.991 65.5371 109.45 65.5371H76.9522ZM68.1511 90.9325H58.1916C57.1154 90.9325 56.2398 90.0568 56.2398 88.9802V79.0211C56.2398 77.9445 57.1155 77.0688 58.1916 77.0688H68.1511C69.2277 77.0688 70.1034 77.9445 70.1034 79.0211V88.9799C70.1031 90.0564 69.2273 90.9325 68.1511 90.9325ZM58.1916 78.3995C57.8489 78.3995 57.57 78.6784 57.57 79.0216V88.9805C57.57 89.3233 57.8489 89.6021 58.1916 89.6021L68.1511 89.6023C68.4943 89.6023 68.7732 89.3234 68.7732 88.9807V79.0211C68.7732 78.6779 68.4943 78.399 68.1511 78.399L58.1916 78.3995ZM109.451 82.3486H76.9523C75.6785 82.3486 74.642 81.3121 74.642 80.0383C74.642 78.7639 75.6785 77.7275 76.9523 77.7275L109.45 77.7274C110.725 77.7274 111.761 78.7638 111.761 80.0381C111.761 81.3121 110.725 82.3486 109.451 82.3486ZM76.9523 79.0572C76.4118 79.0572 75.9717 79.4973 75.9717 80.0378C75.9717 80.5782 76.4115 81.0183 76.9523 81.0183H109.45C109.991 81.0183 110.43 80.5786 110.43 80.0378C110.43 79.497 109.991 79.0572 109.45 79.0572H76.9523ZM109.451 90.2743H76.9523C75.6785 90.2743 74.642 89.2379 74.642 87.9635C74.642 86.6892 75.6785 85.6527 76.9523 85.6527H109.45C110.725 85.6527 111.761 86.6892 111.761 87.9635C111.761 89.2379 110.725 90.2743 109.451 90.2743ZM76.9523 86.9835C76.4118 86.9835 75.9717 87.4232 75.9717 87.9635C75.9717 88.5037 76.4115 88.9435 76.9523 88.9435L109.45 88.9437C109.991 88.9437 110.43 88.504 110.43 87.9637C110.43 87.4234 109.991 86.9837 109.45 86.9837L76.9523 86.9835ZM68.1512 112.378H58.1916C57.1155 112.378 56.2399 111.503 56.2399 110.426V100.467C56.2399 99.3903 57.1156 98.5142 58.1916 98.5142H68.1512C69.2277 98.5142 70.1034 99.39 70.1034 100.467V110.426C70.1032 111.503 69.2273 112.378 68.1512 112.378ZM58.1916 99.8458C57.849 99.8458 57.5701 100.125 57.5701 100.467V110.427C57.5701 110.77 57.849 111.048 58.1916 111.048L68.1512 111.049C68.4944 111.049 68.7732 110.77 68.7732 110.427V100.468C68.7732 100.125 68.4943 99.8459 68.1512 99.8459L58.1916 99.8458ZM109.451 103.794H76.9523C75.6786 103.794 74.6421 102.758 74.6421 101.484C74.6421 100.209 75.6786 99.1728 76.9523 99.1728H109.45C110.725 99.1728 111.761 100.209 111.761 101.484C111.761 102.758 110.725 103.794 109.451 103.794ZM76.9523 100.503C76.4118 100.503 75.9717 100.943 75.9717 101.484C75.9717 102.024 76.4116 102.464 76.9523 102.464L109.45 102.464C109.991 102.464 110.43 102.024 110.43 101.484C110.43 100.943 109.991 100.504 109.45 100.504L76.9523 100.503ZM76.9523 108.43C76.4118 108.43 75.9717 108.869 75.9717 109.41C75.9717 109.95 76.4116 110.39 76.9523 110.39L109.45 110.39C109.991 110.39 110.43 109.95 110.43 109.41C110.43 108.87 109.991 108.43 109.45 108.43L76.9523 108.43Z" fill="#010103"/>
<path fill-rule="evenodd" clip-rule="evenodd" d="M58.1919 89.6019L68.1514 89.602C68.4946 89.602 68.7735 89.3231 68.7735 88.9804V79.0208C68.7735 78.6776 68.4946 78.3987 68.1514 78.3987L58.1919 78.3992C57.8492 78.3992 57.5703 78.6781 57.5703 79.0213V88.9802C57.5703 89.3229 57.8492 89.6019 58.1919 89.6019Z" fill="white"/>
<path fill-rule="evenodd" clip-rule="evenodd" d="M109.45 79.0571H76.9523C76.4118 79.0571 75.9717 79.4972 75.9717 80.0377C75.9717 80.5781 76.4115 81.0182 76.9523 81.0182H109.45C109.991 81.0182 110.43 80.5785 110.43 80.0377C110.43 79.497 109.991 79.0571 109.45 79.0571Z" fill="white"/>
<path fill-rule="evenodd" clip-rule="evenodd" d="M109.45 86.9835L76.9523 86.9834C76.4118 86.9834 75.9717 87.4231 75.9717 87.9633C75.9717 88.5036 76.4115 88.9434 76.9523 88.9434L109.45 88.9435C109.991 88.9435 110.43 88.5038 110.43 87.9636C110.43 87.4232 109.991 86.9835 109.45 86.9835Z" fill="white"/>
</g>
<rect x="49.039" y="49.039" width="69.9225" height="69.9225" rx="3.81007" stroke="#2D2D2D" stroke-width="2.07822" stroke-linejoin="round"/>
<defs>
<clipPath id="clip0_548_3475">
<rect width="56.7604" height="56.7604" fill="white" transform="translate(55.6201 55.6201)"/>
</clipPath>
</defs>
</svg>
