<svg width="64" height="64" viewBox="0 0 64 64" fill="none" xmlns="http://www.w3.org/2000/svg">
<g clip-path="url(#clip0_548_3415)">
<path d="M54.3662 18.3027H9.63379V2.42871C9.63379 1.36328 10.4971 0.5 11.562 0.5H52.438C53.5029 0.5 54.3662 1.36328 54.3662 2.42871V18.3027Z" fill="#FCE270"/>
<path d="M52.438 0.5H46.6128C47.6777 0.5 48.541 1.36328 48.541 2.42871V18.3027H54.3662V2.42871C54.3662 1.36328 53.5029 0.5 52.438 0.5Z" fill="#FFBE7C"/>
<path d="M7.05029 62.6343V22.3301H56.9497V62.6343H7.05029Z" fill="#FEEBCA"/>
<path d="M7.05029 22.3301V28.438H29.1582C41.103 28.438 50.7861 38.1211 50.7861 50.0664V62.6343H56.9502V22.3301H7.05029Z" fill="#F9D9AF"/>
<path d="M52.438 0.5H11.562C10.4971 0.5 9.63379 1.36328 9.63379 2.42871V4.94971H54.3662V2.42871C54.3662 1.36328 53.5029 0.5 52.438 0.5Z" fill="#03736D"/>
<path d="M52.438 0.5H46.6128C47.6777 0.5 48.541 1.36328 48.541 2.42871V4.94971H54.3662V2.42871C54.3662 1.36328 53.5029 0.5 52.438 0.5Z" fill="#249C96"/>
<path d="M27.0869 58.9644H10.8604C10.5415 58.9644 10.2832 59.2227 10.2832 59.5415V62.6343H27.6641V59.5415C27.6641 59.2227 27.4058 58.9644 27.0869 58.9644Z" fill="#D5E0F2"/>
<path d="M24.6655 34.7886H13.2822C12.6357 34.7886 12.1113 35.313 12.1113 35.9595V58.9644H25.8364V35.9595C25.8364 35.3125 25.312 34.7886 24.6655 34.7886Z" fill="#1EB6AE"/>
<path d="M24.085 35.9775H13.7627C13.4033 35.9775 13.1118 36.269 13.1118 36.6284V58.9644H24.7681V36.6606C24.7681 36.2832 24.4619 35.9775 24.085 35.9775Z" fill="#03736D"/>
<path d="M63.064 19.0142H0.936035L5.84375 11.7588C6.59814 10.6436 7.85693 9.9751 9.20361 9.9751H54.7969C56.1431 9.9751 57.4019 10.6436 58.1562 11.7588L63.064 19.0142Z" fill="#03736D"/>
<path d="M56.1748 19.0142H7.8252L11.6445 11.7588C12.2314 10.6436 13.2109 9.9751 14.2588 9.9751H49.7412C50.7891 9.9751 51.7686 10.6436 52.3555 11.7588L56.1748 19.0142Z" fill="#E4EEF9"/>
<path d="M49.2485 19.0142H14.7681L17.4917 11.7588C17.9106 10.6436 18.6089 9.9751 19.3564 9.9751H44.6602C45.4072 9.9751 46.106 10.6436 46.5244 11.7588L49.2485 19.0142Z" fill="#03736D"/>
<path d="M42.3789 19.0142H21.6377L23.2759 11.7588C23.5278 10.6436 23.9482 9.9751 24.3975 9.9751H39.6191C40.0684 9.9751 40.4888 10.6436 40.7407 11.7588L42.3789 19.0142Z" fill="#E4EEF9"/>
<path d="M35.4526 19.0142H28.564L29.1079 11.7588C29.1919 10.6436 29.3315 9.9751 29.4805 9.9751H34.5356C34.6851 9.9751 34.8247 10.6436 34.9082 11.7588L35.4526 19.0142Z" fill="#03736D"/>
<path d="M0.938477 19.0059V23.0688C0.938477 24.9756 2.48389 26.5215 4.39062 26.5215C6.29736 26.5215 7.84277 24.9756 7.84277 23.0688V19.0059H0.938477Z" fill="#E4EEF9"/>
<path d="M7.84277 19.0059V23.0688C7.84277 24.9756 9.38867 26.5215 11.2954 26.5215C13.2021 26.5215 14.7476 24.9756 14.7476 23.0688V19.0059H7.84277Z" fill="#03736D"/>
<path d="M14.7476 19.0059V23.0688C14.7476 24.9756 16.2935 26.5215 18.2002 26.5215C20.1069 26.5215 21.6523 24.9756 21.6523 23.0688V19.0059H14.7476Z" fill="#E4EEF9"/>
<path d="M21.6523 19.0059V23.0688C21.6523 24.9756 23.1982 26.5215 25.105 26.5215C27.0117 26.5215 28.5571 24.9756 28.5571 23.0688V19.0059H21.6523Z" fill="#03736D"/>
<path d="M28.5571 19.0059V23.0688C28.5571 24.9756 30.1025 26.5215 32.0093 26.5215C33.916 26.5215 35.4619 24.9756 35.4619 23.0688V19.0059H28.5571Z" fill="#E4EEF9"/>
<path d="M35.4619 19.0059V23.0688C35.4619 24.9756 37.0073 26.5215 38.9141 26.5215C40.8208 26.5215 42.3667 24.9756 42.3667 23.0688V19.0059H35.4619Z" fill="#03736D"/>
<path d="M42.3662 19.0059V23.0688C42.3662 24.9756 43.9121 26.5215 45.8188 26.5215C47.7256 26.5215 49.271 24.9756 49.271 23.0688V19.0059H42.3662Z" fill="#E4EEF9"/>
<path d="M49.271 19.0059V23.0688C49.271 24.9756 50.8169 26.5215 52.7236 26.5215C54.6304 26.5215 56.1758 24.9756 56.1758 23.0688V19.0059H49.271Z" fill="#03736D"/>
<path d="M56.1758 19.0059V23.0688C56.1758 24.9756 57.7212 26.5215 59.6279 26.5215C61.5347 26.5215 63.0806 24.9756 63.0806 23.0688V19.0059H56.1758Z" fill="#E4EEF9"/>
<path d="M33.1958 63.4819C32.6782 63.4819 32.2583 63.062 32.2583 62.5439V42.4819C32.2583 41.9639 32.6782 41.5439 33.1958 41.5439C33.7139 41.5439 34.1338 41.9639 34.1338 42.4819V62.5439C34.1338 63.062 33.7139 63.4819 33.1958 63.4819Z" fill="white"/>
<path d="M40.0181 63.5718C39.5 63.5718 39.0801 63.1523 39.0801 62.6343V56.4507H34.1338V62.6343C34.1338 63.1523 33.7139 63.5718 33.1958 63.5718C32.6777 63.5718 32.2578 63.1523 32.2578 62.6343V55.5127C32.2578 54.9946 32.6777 54.5747 33.1958 54.5747H39.3242C40.2236 54.5747 40.9556 55.2769 40.9556 56.1396V62.6343C40.9561 63.1519 40.5361 63.5718 40.0181 63.5718Z" fill="white"/>
<path d="M60.7363 63.4819C60.2183 63.4819 59.7983 63.062 59.7983 62.5439V42.4819C59.7983 41.9639 60.2183 41.5439 60.7363 41.5439C61.2539 41.5439 61.6738 41.9639 61.6738 42.4819V62.5439C61.6738 63.062 61.2539 63.4819 60.7363 63.4819Z" fill="#E4EEF9"/>
<path d="M60.7363 63.5718C60.2183 63.5718 59.7983 63.1523 59.7983 62.6343V56.4507H54.8521V62.6343C54.8521 63.1523 54.4321 63.5718 53.9141 63.5718C53.396 63.5718 52.9761 63.1523 52.9761 62.6343V56.1396C52.9761 55.2769 53.708 54.5747 54.6074 54.5747H60.7358C61.2539 54.5747 61.6738 54.9946 61.6738 55.5127V62.6343C61.6738 63.1519 61.2539 63.5718 60.7363 63.5718Z" fill="#E4EEF9"/>
<path d="M46.853 63.5718C46.335 63.5718 45.915 63.1523 45.915 62.6343V51.645C45.915 51.127 46.335 50.707 46.853 50.707C47.3711 50.707 47.791 51.127 47.791 51.645V62.6343C47.791 63.1519 47.3711 63.5718 46.853 63.5718Z" fill="white"/>
<path d="M45.2456 63.5718C43.8418 63.5718 42.7002 62.4302 42.7002 61.0264C42.7002 60.5083 43.1201 60.0889 43.6377 60.0889C44.1558 60.0889 44.5757 60.5083 44.5757 61.0264C44.5757 61.396 44.8765 61.6963 45.2456 61.6963C45.6147 61.6963 45.915 61.3955 45.915 61.0264C45.915 60.5083 46.335 60.0889 46.853 60.0889C47.3711 60.0889 47.791 60.5083 47.791 61.0264C47.791 62.4302 46.6489 63.5718 45.2456 63.5718Z" fill="white"/>
<path d="M48.4609 63.5718C47.0571 63.5718 45.915 62.4302 45.915 61.0264C45.915 60.5083 46.335 60.0889 46.853 60.0889C47.3711 60.0889 47.791 60.5083 47.791 61.0264C47.791 61.396 48.0913 61.6963 48.4609 61.6963C48.8301 61.6963 49.1304 61.3955 49.1304 61.0264C49.1304 60.5083 49.5503 60.0889 50.0684 60.0889C50.5864 60.0889 51.0063 60.5083 51.0063 61.0264C51.0063 62.4302 49.8643 63.5718 48.4609 63.5718Z" fill="white"/>
<path d="M54.4839 51.645H39.2222C38.1577 51.645 37.2944 50.7817 37.2944 49.7173V48.7837C37.2944 48.6768 37.3813 48.5898 37.4883 48.5898H56.2183C56.3252 48.5898 56.4121 48.6768 56.4121 48.7837V49.7173C56.4116 50.7817 55.5488 51.645 54.4839 51.645Z" fill="#95B53B"/>
<path d="M63.062 63.5718H0.937988C0.419922 63.5718 0 63.1523 0 62.6343C0 62.1162 0.419922 61.6963 0.937988 61.6963H63.062C63.5801 61.6963 64 62.1162 64 62.6343C64 63.1519 63.5801 63.5718 63.062 63.5718Z" fill="#60768C"/>
<path d="M46.9663 45.542C46.4482 45.542 46.0283 45.1221 46.0283 44.6045V43.958C46.0283 43.4404 46.4482 43.0205 46.9663 43.0205C47.4839 43.0205 47.9038 43.4404 47.9038 43.958V44.6045C47.9038 45.1221 47.4839 45.542 46.9663 45.542Z" fill="#7C8FA5"/>
<path d="M43.7397 48.5898C43.7397 46.3887 45.1841 44.6045 46.9658 44.6045C48.748 44.6045 50.1924 46.3887 50.1924 48.5898" fill="#91A0B5"/>
<path d="M23.2666 47.145C23.2666 47.6631 22.8467 48.083 22.3286 48.083C21.8105 48.083 21.3906 47.6631 21.3906 47.145C21.3906 46.627 21.8105 46.207 22.3286 46.207C22.8467 46.207 23.2666 46.627 23.2666 47.145Z" fill="#EA9D57"/>
</g>
<defs>
<clipPath id="clip0_548_3415">
<rect width="64" height="64" fill="white"/>
</clipPath>
</defs>
</svg>
