<svg width="128" height="128" viewBox="0 0 128 128" fill="none" xmlns="http://www.w3.org/2000/svg">
<g id="fi_463250">
<path id="Vector" d="M64 0C44.334 20.666 11.666 16 11.666 16V72C11.666 105 64 128 64 128C64 128 116.334 105 116.334 72V16C116.334 16 83.666 20.666 64 0Z" fill="#32BEA6"/>
<path id="Vector_2" d="M63.9999 18.4221C49.9999 33.1401 26.7319 29.8221 26.7319 29.8221V69.7021C26.7319 93.2001 63.9999 109.578 63.9999 109.578C63.9999 109.578 101.27 93.1981 101.27 69.6981V29.8181C101.27 29.8181 77.9999 33.1401 63.9999 18.4221Z" fill="#415E72"/>
<path id="Vector_3" d="M60.3361 84.3899L41.0081 68.2419L46.1361 62.1019L58.8001 72.6839L79.5501 43.2639L86.0901 47.8739L60.3361 84.3899Z" fill="white"/>
</g>
</svg>
