<svg width="789" height="533" viewBox="0 0 789 533" fill="none" xmlns="http://www.w3.org/2000/svg">
<path d="M185.021 198.228H169V531.142H185.021V198.228Z" fill="#ABB8B7"/>
<path d="M186.385 532.5H167.648V196.87H186.385V532.5ZM170.364 529.785H183.67V199.586H170.364V529.785Z" fill="#2D2D2D"/>
<path d="M183.016 212.348C227.857 212.348 264.208 175.997 264.208 131.156C264.208 86.3153 227.857 49.9644 183.016 49.9644C138.175 49.9644 101.824 86.3153 101.824 131.156C101.824 175.997 138.175 212.348 183.016 212.348Z" fill="#2D2D2D"/>
<path d="M183.026 213.706C137.515 213.706 100.477 176.667 100.477 131.156C100.477 85.6453 137.515 48.6066 183.026 48.6066C228.537 48.6066 265.576 85.6453 265.576 131.156C265.576 176.667 228.537 213.706 183.026 213.706ZM183.026 51.322C138.982 51.322 103.192 87.1117 103.192 131.156C103.192 175.201 138.982 210.991 183.026 210.991C227.071 210.991 262.861 175.201 262.861 131.156C262.861 87.1117 227.071 51.322 183.026 51.322Z" fill="#2D2D2D"/>
<path d="M172.112 212.566C216.953 212.566 253.304 176.215 253.304 131.374C253.304 86.5324 216.953 50.1815 172.112 50.1815C127.271 50.1815 90.9199 86.5324 90.9199 131.374C90.9199 176.215 127.271 212.566 172.112 212.566Z" fill="#03736D"/>
<path d="M143.438 162.876C143.512 162.123 144.17 161.56 144.927 161.595C166.15 162.553 178.635 162.522 199.872 161.59C200.608 161.558 201.255 162.092 201.349 162.822C202.191 169.35 202.199 173.501 201.333 180.065C201.245 180.732 200.691 181.244 200.02 181.291C178.864 182.765 166.375 182.855 144.737 181.294C144.063 181.246 143.508 180.727 143.427 180.055C142.642 173.515 142.804 169.37 143.438 162.876Z" fill="white"/>
<path d="M143.622 119.169C143.677 118.401 144.341 117.818 145.11 117.852C166.181 118.803 178.602 118.773 199.668 117.851C200.443 117.817 201.109 118.412 201.153 119.187C201.542 126.109 201.577 130.264 201.163 136.145C201.114 136.852 200.538 137.411 199.831 137.452C178.837 138.685 166.402 138.73 144.91 137.45C144.226 137.409 143.661 136.883 143.587 136.201C142.905 129.874 143.152 125.703 143.622 119.169Z" fill="white"/>
<path d="M141.459 132.002C143.133 131.737 144.152 131.665 144.996 132.342L147.647 134.95C148.628 135.915 148.107 137.54 146.731 137.531C145.404 137.522 143.772 137.378 141.414 137.065C140.838 136.989 140.33 136.625 140.131 136.08C139.671 134.816 139.7 133.902 140.357 132.733C140.584 132.329 141.001 132.075 141.459 132.002Z" fill="white"/>
<path d="M203.298 132.001C201.778 131.756 200.806 131.685 199.882 132.261C199.798 132.313 199.723 132.377 199.653 132.446L197.052 135.004C196.083 135.958 196.584 137.553 197.944 137.539C199.243 137.525 200.896 137.378 203.334 137.063C203.912 136.988 204.424 136.623 204.623 136.076C205.082 134.813 205.052 133.899 204.395 132.731C204.168 132.329 203.754 132.074 203.298 132.001Z" fill="white"/>
<path d="M143.525 98.8723C143.634 97.3171 144.915 96.1005 146.473 96.0614C164.772 95.6028 176.958 95.5345 198.284 96.0612C199.857 96.1 201.146 97.3403 201.228 98.9122C201.517 104.495 201.546 108.298 201.255 113.086C201.164 114.597 199.941 115.79 198.429 115.877C178.706 117.005 166.453 117.043 146.249 115.872C144.788 115.787 143.587 114.665 143.454 113.207C142.981 108.033 143.152 104.202 143.525 98.8723Z" fill="white"/>
<path d="M141.459 110.347C143.133 110.082 144.152 110.011 144.996 110.687L147.647 113.295C148.628 114.26 148.107 115.886 146.731 115.876C145.404 115.867 143.772 115.723 141.414 115.41C140.838 115.334 140.33 114.97 140.131 114.425C139.671 113.161 139.7 112.247 140.357 111.079C140.584 110.675 141.001 110.42 141.459 110.347Z" fill="white"/>
<path d="M203.298 110.346C201.778 110.101 200.806 110.03 199.882 110.606C199.798 110.658 199.723 110.722 199.653 110.791L197.052 113.349C196.083 114.303 196.584 115.898 197.944 115.884C199.243 115.87 200.896 115.723 203.334 115.407C203.912 115.332 204.424 114.968 204.623 114.42C205.082 113.158 205.052 112.244 204.395 111.076C204.168 110.674 203.754 110.419 203.298 110.346Z" fill="white"/>
<path d="M143.622 140.825C143.677 140.057 144.341 139.474 145.11 139.508C166.181 140.459 178.602 140.429 199.668 139.507C200.443 139.473 201.109 140.068 201.153 140.843C201.542 147.765 201.577 151.92 201.163 157.801C201.114 158.508 200.538 159.067 199.831 159.108C178.837 160.341 166.402 160.386 144.91 159.106C144.226 159.065 143.661 158.539 143.587 157.857C142.905 151.53 143.152 147.359 143.622 140.825Z" fill="white"/>
<path d="M141.459 153.66C143.133 153.394 144.152 153.323 144.996 154L147.647 156.608C148.628 157.573 148.107 159.198 146.731 159.189C145.404 159.179 143.772 159.036 141.414 158.723C140.838 158.646 140.33 158.283 140.131 157.737C139.671 156.474 139.7 155.559 140.357 154.391C140.584 153.987 141.001 153.732 141.459 153.66Z" fill="white"/>
<path d="M142.326 175.938C144 175.673 145.019 175.602 145.863 176.278L148.514 178.886C149.495 179.851 148.974 181.477 147.598 181.467C146.272 181.458 144.64 181.314 142.281 181.001C141.705 180.925 141.197 180.561 140.999 180.016C140.538 178.752 140.567 177.838 141.224 176.67C141.451 176.266 141.869 176.011 142.326 175.938Z" fill="white"/>
<path d="M203.298 153.658C201.778 153.413 200.806 153.342 199.882 153.918C199.798 153.97 199.723 154.034 199.653 154.103L197.052 156.661C196.083 157.616 196.584 159.211 197.944 159.196C199.243 159.182 200.896 159.035 203.334 158.72C203.912 158.645 204.424 158.281 204.623 157.733C205.082 156.471 205.052 155.556 204.395 154.388C204.168 153.986 203.754 153.732 203.298 153.658Z" fill="white"/>
<path d="M203.027 175.925C201.506 175.68 200.534 175.609 199.61 176.185C199.527 176.237 199.451 176.301 199.381 176.37L196.781 178.928C195.811 179.883 196.312 181.478 197.673 181.463C198.971 181.449 200.624 181.302 203.062 180.987C203.641 180.912 204.153 180.548 204.352 180C204.811 178.738 204.781 177.823 204.123 176.655C203.897 176.253 203.482 175.998 203.027 175.925Z" fill="white"/>
<path fill-rule="evenodd" clip-rule="evenodd" d="M188.183 107.819H156.133V90.9275C156.133 85.1866 160.787 80.5327 166.528 80.5327H177.789C183.53 80.5327 188.183 85.1866 188.183 90.9275V107.819ZM166.528 85.297C163.418 85.297 160.897 87.8179 160.897 90.9275V103.055H183.419V90.9275C183.419 87.8179 180.898 85.297 177.789 85.297H166.528Z" fill="white"/>
<g style="mix-blend-mode:darken">
<rect x="190.783" y="95.6915" width="6.92988" height="86.6235" fill="#D9D9D9"/>
</g>
<g style="mix-blend-mode:darken">
<rect x="188.184" y="95.6915" width="1.73247" height="86.6235" fill="#D9D9D9"/>
</g>
<g style="mix-blend-mode:darken">
<rect x="182.193" y="95.9082" width="0.866234" height="86.6235" fill="#D9D9D9"/>
</g>
<path d="M172.104 213.923C126.593 213.923 89.5547 176.885 89.5547 131.374C89.5547 85.8626 126.593 48.8239 172.104 48.8239C217.615 48.8239 254.654 85.8626 254.654 131.374C254.654 176.885 217.67 213.923 172.104 213.923ZM172.104 51.5393C128.06 51.5393 92.2701 87.329 92.2701 131.374C92.2701 175.418 128.06 211.208 172.104 211.208C216.149 211.208 251.939 175.418 251.939 131.374C251.939 87.329 216.149 51.5393 172.104 51.5393Z" fill="#2D2D2D"/>
<path d="M581.048 178.731H280.014V500.566H581.048V178.731Z" fill="#C0DCDB"/>
<path d="M582.391 501.87H278.641V177.319H582.391V501.87ZM281.356 499.154H579.675V180.034H281.356V499.154Z" fill="#2D2D2D"/>
<path d="M551.299 298.102H410.15V428.987H551.299V298.102Z" fill="#FFDB5D"/>
<path d="M552.589 430.345H408.725V296.745H552.589V430.345ZM411.494 427.629H549.928V299.46H411.494V427.629Z" fill="#2D2D2D"/>
<path d="M418.458 298.102H410.148V428.987H418.458V298.102Z" fill="#2D2D2D"/>
<path d="M419.823 430.345H408.799V296.745H419.823V430.345ZM411.514 427.629H417.108V299.46H411.514V427.629Z" fill="#2D2D2D"/>
<path d="M740.238 178.731H575.682V500.566H740.238V178.731Z" fill="#03736D"/>
<path d="M741.6 501.87H574.328V177.319H741.6V501.87ZM577.044 499.154H738.884V180.034H577.044V499.154Z" fill="#2D2D2D"/>
<path d="M575.673 221.907H520.006V304.728H575.673V221.907Z" fill="white"/>
<path d="M577.036 306.14H518.654V220.603H577.036V306.14ZM521.37 303.425H574.321V223.319H521.37V303.425Z" fill="#2D2D2D"/>
<path d="M515.985 221.907H574.91L521.687 304.782H462.762L515.985 221.907Z" fill="#03736D"/>
<path d="M522.444 306.14H460.26L515.221 220.603H577.404L522.444 306.14ZM465.256 303.425H520.977L572.408 223.319H516.687L465.256 303.425Z" fill="#2D2D2D"/>
<path d="M457.072 221.907H515.998L462.775 304.782H403.85L457.072 221.907Z" fill="white"/>
<path d="M463.533 306.14H401.35L456.31 220.603H518.494L463.533 306.14ZM406.346 303.425H462.067L513.498 223.319H457.777L406.346 303.425Z" fill="#2D2D2D"/>
<path d="M746.864 165.751H575.682V191.168H746.864V165.751Z" fill="#ABB8B7"/>
<path d="M748.226 192.526H574.328V164.393H748.226V192.526ZM577.044 189.81H745.51V167.109H577.044V189.81Z" fill="#2D2D2D"/>
<path d="M399.884 298.102H306.146V505.128H399.884V298.102Z" fill="white"/>
<path d="M401.228 506.486H304.775V296.745H401.228V506.486ZM307.491 503.771H398.513V299.46H307.491V503.771Z" fill="#2D2D2D"/>
<path d="M398.079 221.907H457.058L403.835 304.782H344.91L398.079 221.907Z" fill="#03736D"/>
<path d="M404.598 306.14H342.414L397.375 220.603H459.559L404.598 306.14ZM347.41 303.425H403.131L454.562 223.319H398.841L347.41 303.425Z" fill="#2D2D2D"/>
<path d="M313.8 298.102H306.143V505.128H313.8V298.102Z" fill="#2D2D2D"/>
<path d="M315.096 506.486H304.723V296.745H315.096V506.486ZM307.492 503.771H312.435V299.46H307.492V503.771Z" fill="#2D2D2D"/>
<path d="M339.161 221.907H398.086L344.917 304.782H285.992L339.161 221.907Z" fill="white"/>
<path d="M345.686 306.14H283.502L338.463 220.603H400.647L345.686 306.14ZM288.444 303.425H344.165L395.596 223.319H339.875L288.444 303.425Z" fill="#2D2D2D"/>
<path d="M344.704 304.294C344.704 320.586 331.507 333.783 315.214 333.783C298.922 333.783 285.725 320.586 285.725 304.294H344.704Z" fill="white"/>
<path d="M315.266 335.087C298.267 335.087 284.418 321.238 284.418 304.239V302.881H346.059V304.239C346.059 321.292 332.264 335.087 315.266 335.087ZM287.188 305.651C287.894 320.532 300.222 332.426 315.266 332.426C330.309 332.426 342.637 320.532 343.343 305.651H287.188Z" fill="#2D2D2D"/>
<path d="M280.406 221.907H339.331L286.162 304.728H227.835C227.563 304.728 227.4 304.402 227.563 304.185L280.406 221.907Z" fill="#03736D"/>
<path d="M286.842 306.14H227.808C227.211 306.14 226.613 305.814 226.287 305.271C225.961 304.728 226.016 304.076 226.342 303.533L279.619 220.603H341.803L286.842 306.14ZM229.654 303.425H285.376L336.806 223.319H281.085L229.654 303.425Z" fill="#2D2D2D"/>
<path d="M285.948 304.294C285.948 320.586 272.75 333.783 256.458 333.783C240.762 333.783 227.946 321.564 227.022 306.086C226.968 305.108 227.728 304.294 228.706 304.294H285.948Z" fill="#03736D"/>
<path d="M256.487 335.087C240.194 335.087 226.671 322.378 225.693 306.086C225.639 305.271 225.965 304.456 226.508 303.859C227.105 303.262 227.866 302.881 228.735 302.881H287.28V304.239C287.28 321.292 273.485 335.087 256.487 335.087ZM228.735 305.651C228.626 305.651 228.517 305.706 228.517 305.76C228.463 305.814 228.409 305.869 228.409 305.977C229.278 320.803 241.606 332.426 256.487 332.426C271.53 332.426 283.858 320.532 284.564 305.651H228.735Z" fill="#2D2D2D"/>
<path d="M403.679 304.294C403.679 320.586 390.482 333.783 374.189 333.783C357.896 333.783 344.699 320.586 344.699 304.294H403.679Z" fill="#03736D"/>
<path d="M374.197 335.087C357.198 335.087 343.35 321.238 343.35 304.239V302.881H404.99V304.239C405.045 321.292 391.196 335.087 374.197 335.087ZM346.119 305.651C346.825 320.532 359.154 332.426 374.197 332.426C389.241 332.426 401.569 320.532 402.275 305.651H346.119Z" fill="#2D2D2D"/>
<path d="M462.614 304.294C462.614 320.586 449.417 333.783 433.124 333.783C416.832 333.783 403.635 320.586 403.635 304.294H462.614Z" fill="white"/>
<path d="M433.111 335.087C416.112 335.087 402.264 321.238 402.264 304.239V302.881H463.904V304.239C463.959 321.292 450.11 335.087 433.111 335.087ZM405.033 305.651C405.739 320.532 418.067 332.426 433.111 332.426C448.155 332.426 460.483 320.532 461.189 305.651H405.033Z" fill="#2D2D2D"/>
<path d="M521.52 304.294C521.52 320.586 508.323 333.783 492.031 333.783C475.738 333.783 462.541 320.586 462.541 304.294H521.52Z" fill="#03736D"/>
<path d="M492.047 335.087C475.048 335.087 461.199 321.238 461.199 304.239V302.881H522.84V304.239C522.894 321.292 509.045 335.087 492.047 335.087ZM463.969 305.651C464.675 320.532 477.003 332.426 492.047 332.426C507.09 332.426 519.418 320.532 520.125 305.651H463.969Z" fill="#2D2D2D"/>
<path d="M385.001 412.64H378.43C373.162 412.64 368.926 408.35 368.926 403.136V365.065C368.926 359.797 373.216 355.561 378.43 355.561H385.001C386.359 355.561 387.445 356.647 387.445 358.005C387.445 359.363 386.359 360.449 385.001 360.449H378.43C375.877 360.449 373.814 362.513 373.814 365.065V403.136C373.814 405.688 375.877 407.752 378.43 407.752H385.001C386.359 407.752 387.445 408.838 387.445 410.196C387.445 411.5 386.359 412.64 385.001 412.64Z" fill="#2D2D2D"/>
<path d="M646.49 235.593H620.096V298.102H646.49V235.593Z" fill="#D8D8D8"/>
<path d="M647.858 299.46H618.748V234.235H647.858V299.46ZM621.463 296.745H645.142V236.95H621.463V296.745Z" fill="#2D2D2D"/>
<path d="M721.165 235.593H638.887V298.102H721.165V235.593Z" fill="#828282"/>
<path d="M722.574 299.46H637.58V234.235H722.574V299.46ZM640.241 296.745H719.804V236.95H640.241V296.745Z" fill="#2D2D2D"/>
<path d="M708.464 254.166H677.236V260.52H708.464V254.166Z" fill="#2D2D2D"/>
<path d="M708.734 267.092H677.506V273.446H708.734V267.092Z" fill="#2D2D2D"/>
<path d="M708.734 280.289H677.506V286.643H708.734V280.289Z" fill="#2D2D2D"/>
<path d="M575.055 165.751H267.395V191.168H575.055V165.751Z" fill="#ABB8B7"/>
<path d="M576.417 192.526H266.041V164.393H576.417V192.526ZM268.756 189.81H573.702V167.109H268.756V189.81Z" fill="#2D2D2D"/>
<path d="M581.055 492.474H273.395V517.891H581.055V492.474Z" fill="#ABB8B7"/>
<path d="M582.417 519.194H272.041V491.062H582.417V519.194ZM274.756 516.479H579.702V493.778H274.756V516.479Z" fill="#2D2D2D"/>
<path d="M746.864 492.474H575.682V517.891H746.864V492.474Z" fill="#ABB8B7"/>
<path d="M748.226 519.194H574.328V491.062H748.226V519.194ZM577.044 516.479H745.51V493.778H577.044V516.479Z" fill="#2D2D2D"/>
<path d="M754.901 514.415H575.682V530.545H754.901V514.415Z" fill="#ABB8B7"/>
<path d="M756.263 531.902H574.328V513.057H756.263V531.902ZM577.044 529.187H753.548V515.773H577.044V529.187Z" fill="#2D2D2D"/>
<path d="M576.003 514.415H251.289V530.545H576.003V514.415Z" fill="#ABB8B7"/>
<path d="M577.417 531.903H249.988V513.057H577.417V531.903ZM252.704 529.187H574.702V515.773H252.704V529.187Z" fill="#2D2D2D"/>
<path d="M88.5696 531.142C106.896 531.142 121.752 516.286 121.752 497.959C121.752 479.633 106.896 464.777 88.5696 464.777C70.2432 464.777 55.3867 479.633 55.3867 497.959C55.3867 516.286 70.2432 531.142 88.5696 531.142Z" fill="#2D2D2D"/>
<path d="M88.5777 532.5C69.5152 532.5 54.0371 517.022 54.0371 497.959C54.0371 478.897 69.5152 463.419 88.5777 463.419C107.64 463.419 123.118 478.897 123.118 497.959C123.118 517.022 107.586 532.5 88.5777 532.5ZM88.5777 466.134C71.0359 466.134 56.7526 480.418 56.7526 497.959C56.7526 515.501 71.0359 529.785 88.5777 529.785C106.12 529.785 120.403 515.501 120.403 497.959C120.403 480.418 106.12 466.134 88.5777 466.134Z" fill="#2D2D2D"/>
<path d="M88.5687 518.651C99.9965 518.651 109.26 509.387 109.26 497.959C109.26 486.532 99.9965 477.268 88.5687 477.268C77.141 477.268 67.877 486.532 67.877 497.959C67.877 509.387 77.141 518.651 88.5687 518.651Z" fill="white"/>
<path d="M88.5749 520.063C76.4097 520.063 66.5254 510.179 66.5254 498.014C66.5254 485.849 76.4097 475.964 88.5749 475.964C100.74 475.964 110.624 485.849 110.624 498.014C110.624 510.179 100.74 520.063 88.5749 520.063ZM88.5749 478.625C77.876 478.625 69.2408 487.315 69.2408 497.959C69.2408 508.604 77.9303 517.293 88.5749 517.293C99.2195 517.293 107.909 508.604 107.909 497.959C107.909 487.315 99.2195 478.625 88.5749 478.625Z" fill="#2D2D2D"/>
<path d="M88.5865 507.138C93.6555 507.138 97.7647 503.028 97.7647 497.959C97.7647 492.89 93.6555 488.781 88.5865 488.781C83.5175 488.781 79.4082 492.89 79.4082 497.959C79.4082 503.028 83.5175 507.138 88.5865 507.138Z" fill="#25383F"/>
<path d="M283.163 531.142C301.49 531.142 316.346 516.286 316.346 497.959C316.346 479.633 301.49 464.777 283.163 464.777C264.837 464.777 249.98 479.633 249.98 497.959C249.98 516.286 264.837 531.142 283.163 531.142Z" fill="#2D2D2D"/>
<path d="M283.167 532.5C264.105 532.5 248.627 517.022 248.627 497.959C248.627 478.897 264.105 463.419 283.167 463.419C302.23 463.419 317.708 478.897 317.708 497.959C317.708 517.022 302.23 532.5 283.167 532.5ZM283.167 466.134C265.626 466.134 251.342 480.418 251.342 497.959C251.342 515.501 265.626 529.785 283.167 529.785C300.709 529.785 314.993 515.501 314.993 497.959C314.993 480.418 300.709 466.134 283.167 466.134Z" fill="#2D2D2D"/>
<path d="M283.158 518.651C294.586 518.651 303.85 509.387 303.85 497.959C303.85 486.532 294.586 477.268 283.158 477.268C271.731 477.268 262.467 486.532 262.467 497.959C262.467 509.387 271.731 518.651 283.158 518.651Z" fill="white"/>
<path d="M283.174 520.063C271.009 520.063 261.125 510.179 261.125 498.014C261.125 485.849 271.009 475.964 283.174 475.964C295.34 475.964 305.224 485.849 305.224 498.014C305.224 510.179 295.34 520.063 283.174 520.063ZM283.174 478.625C272.476 478.625 263.84 487.315 263.84 497.959C263.84 508.604 272.53 517.293 283.174 517.293C293.819 517.293 302.508 508.604 302.508 497.959C302.508 487.315 293.873 478.625 283.174 478.625Z" fill="#2D2D2D"/>
<path d="M283.161 507.138C288.23 507.138 292.339 503.028 292.339 497.959C292.339 492.89 288.23 488.781 283.161 488.781C278.092 488.781 273.982 492.89 273.982 497.959C273.982 503.028 278.092 507.138 283.161 507.138Z" fill="#2D2D2D"/>
<path d="M283.169 508.495C277.358 508.495 272.633 503.77 272.633 497.959C272.633 492.148 277.358 487.423 283.169 487.423C288.98 487.423 293.705 492.148 293.705 497.959C293.705 503.77 288.98 508.495 283.169 508.495ZM283.169 490.139C278.824 490.139 275.348 493.669 275.348 497.959C275.348 502.25 278.878 505.78 283.169 505.78C287.513 505.78 290.989 502.25 290.989 497.959C290.989 493.669 287.513 490.139 283.169 490.139Z" fill="#2D2D2D"/>
<path d="M248.24 388.69C254.599 388.69 259.754 383.535 259.754 377.176C259.754 370.818 254.599 365.663 248.24 365.663C241.881 365.663 236.727 370.818 236.727 377.176C236.727 383.535 241.881 388.69 248.24 388.69Z" fill="white"/>
<path d="M248.246 390.047C241.132 390.047 235.375 384.291 235.375 377.176C235.375 370.062 241.132 364.305 248.246 364.305C255.361 364.305 261.118 370.062 261.118 377.176C261.118 384.291 255.361 390.047 248.246 390.047ZM248.246 367.021C242.653 367.021 238.09 371.582 238.09 377.176C238.09 382.77 242.653 387.332 248.246 387.332C253.84 387.332 258.402 382.77 258.402 377.176C258.402 371.582 253.84 367.021 248.246 367.021Z" fill="#2D2D2D"/>
<path d="M139.578 485.306L89.7769 487.804C83.9658 488.075 79.4038 492.963 79.5667 498.829C79.7297 504.64 84.5089 509.31 90.3199 509.31L153.862 509.147L139.578 485.306Z" fill="#BABABA"/>
<path d="M90.3062 510.668C83.7891 510.668 78.3582 505.4 78.1952 498.883C78.0323 492.257 83.0831 486.826 89.6545 486.5L140.216 483.948L156.183 510.505L90.3062 510.668C90.3605 510.668 90.3062 510.668 90.3062 510.668ZM138.804 486.717L89.8173 489.216C84.7123 489.487 80.8021 493.723 80.9107 498.828C81.0193 503.879 85.2554 507.952 90.3062 507.952L151.458 507.789L138.804 486.717Z" fill="#2D2D2D"/>
<path d="M268.08 463.799L286.056 493.615C287.414 495.841 286.708 498.72 284.535 500.132C282.363 501.544 279.485 500.947 278.018 498.774L258.793 470.533L268.08 463.799Z" fill="#474747"/>
<path d="M281.918 502.25C279.963 502.25 278.062 501.327 276.867 499.535L256.936 470.208L268.503 461.844L287.24 492.909C288.978 495.787 288.109 499.48 285.285 501.272C284.199 501.924 283.058 502.25 281.918 502.25ZM260.628 470.859L279.094 498.014C280.125 499.535 282.189 499.969 283.764 498.991C285.339 497.96 285.828 495.95 284.85 494.321L267.689 465.754L260.628 470.859Z" fill="#2D2D2D"/>
<path d="M78.584 431.485C78.584 431.485 88.7941 411.988 112.962 412.26H162.22C169.28 412.26 175.091 417.854 175.254 424.914C175.417 432.354 172.973 440.935 161.894 444.574L78.584 431.485Z" fill="#BABABA"/>
<path d="M162.009 445.986L76.4727 432.517L77.3415 430.834C77.4501 430.616 88.0404 410.848 112.371 410.848C112.534 410.848 112.751 410.848 112.914 410.848H162.172C169.884 410.848 176.347 417.093 176.564 424.805C176.727 432.191 174.392 441.804 162.281 445.823L162.009 445.986ZM80.8174 430.453L161.792 443.216C170.047 440.392 174.12 434.255 173.903 424.968C173.74 418.723 168.526 413.618 162.227 413.618H112.968C93.9601 413.4 83.8587 425.891 80.8174 430.453Z" fill="#2D2D2D"/>
<path d="M231.298 513.22H152.767C148.694 513.22 144.946 511.211 142.665 507.844L127.948 486.12L40.8359 472.434C40.8359 472.434 41.5963 435.395 72.0094 429.584C89.6598 426.217 122.843 426.543 143.806 430.616C148.911 431.594 159.393 433.277 162.814 440.772C163.955 443.216 164.063 446.04 163.357 448.647C161.891 453.915 158.958 471.239 172.372 498.774H228.582C228.582 498.774 236.729 487.098 242.54 468.741C242.54 468.741 250.089 422.144 222.717 387.169C222.717 387.169 211.04 365.065 248.351 364.033C249.383 363.979 250.252 364.848 250.252 365.88V388.038C250.252 389.124 249.274 389.993 248.188 389.884L245.146 389.559C245.146 389.559 271.052 427.412 273.387 449.842C273.387 449.842 307.167 447.506 313.304 469.936C313.304 469.936 280.99 464.125 261.711 481.612L242.92 507.301C240.259 510.994 235.914 513.22 231.298 513.22Z" fill="#03736D"/>
<path d="M231.302 514.578H152.771C148.263 514.578 144.082 512.351 141.529 508.604L127.137 487.369L39.4824 473.575V472.434C39.4824 472.054 40.3514 434.255 71.7421 428.281C90.0985 424.751 123.227 425.24 144.082 429.313L144.788 429.476C150.273 430.508 160.483 432.463 164.067 440.283C165.317 442.945 165.534 446.094 164.665 449.081C163.416 453.643 160.32 470.534 173.246 497.525H227.88C229.564 494.973 236.244 484.328 241.24 468.578C241.403 467.438 243.033 456.196 241.566 441.261C240.154 426.869 235.592 405.906 221.689 388.147L221.581 387.93C221.418 387.604 217.453 379.946 221.526 372.94C225.219 366.586 234.289 363.165 248.409 362.784C249.278 362.73 250.093 363.056 250.745 363.708C251.342 364.305 251.722 365.12 251.722 365.989V388.147C251.722 389.07 251.342 389.939 250.636 390.536C249.93 391.134 249.061 391.46 248.138 391.351H248.029C253.732 399.986 272.034 429.096 274.749 448.538C281.212 448.321 309.072 448.756 314.775 469.719L315.264 471.457H313.254C311.951 471.24 281.375 466.026 262.964 482.699L244.227 508.278C241.132 512.134 236.353 514.578 231.302 514.578ZM42.2522 471.294L128.712 484.871L143.756 507.083C145.765 510.07 149.132 511.863 152.717 511.863H231.248C235.429 511.863 239.394 509.853 241.892 506.486L260.792 480.689L260.9 480.581C277.573 465.428 303.479 467.275 311.408 468.253C304.185 449.299 273.88 451.145 273.554 451.145L272.251 451.254L272.088 449.95C269.807 428.118 244.336 390.645 244.064 390.265L242.381 387.821L248.355 388.527C248.572 388.527 248.681 388.473 248.735 388.418C248.789 388.364 248.898 388.255 248.898 388.038V365.88C248.898 365.717 248.844 365.609 248.735 365.554C248.681 365.5 248.572 365.446 248.355 365.391C235.429 365.717 226.903 368.758 223.753 374.189C220.657 379.512 223.427 385.594 223.862 386.409C238.145 404.711 242.815 426.163 244.227 440.935C245.748 456.956 243.956 468.47 243.847 468.959L243.793 469.176C237.982 487.424 229.944 499.046 229.618 499.535L229.238 500.132H228.532H171.453L171.073 499.372C157.659 471.891 160.266 454.458 161.949 448.267C162.601 445.877 162.438 443.433 161.515 441.315C158.528 434.798 149.187 433.006 144.19 432.083L143.484 431.92C123.227 428.01 89.9355 427.521 72.1764 430.888C60.0655 433.223 51.3762 440.826 46.2168 453.589C43.2298 461.247 42.4695 468.524 42.2522 471.294Z" fill="#2D2D2D"/>
<path d="M44.6279 467.927L41.9668 467.384C45.877 449.136 60.975 441.098 63.962 439.632C73.8462 434.907 93.7233 434.255 122.996 437.785C138.745 439.686 146.729 446.963 146.62 459.563H143.905C144.013 448.484 137.062 442.238 122.67 440.555C86.8803 436.264 71.6195 439.089 65.1567 442.184C62.3327 443.379 48.2666 450.928 44.6279 467.927Z" fill="white"/>
<path d="M100.358 462.007L81.1322 460.378C80.7521 460.323 80.4262 459.998 80.4806 459.617C80.5349 459.237 80.8608 458.911 81.241 458.966L100.466 460.595C100.846 460.649 101.172 460.975 101.118 461.355C101.118 461.79 100.738 462.061 100.358 462.007Z" fill="white"/>
<path d="M100.358 465.809L81.1322 464.179C80.7521 464.125 80.4262 463.799 80.4806 463.419C80.5349 463.039 80.8608 462.713 81.241 462.767L100.466 464.397C100.846 464.451 101.172 464.777 101.118 465.157C101.118 465.537 100.738 465.863 100.358 465.809Z" fill="white"/>
<path d="M100.358 469.61L81.1322 467.981C80.7521 467.926 80.4262 467.601 80.4806 467.22C80.5349 466.84 80.8608 466.515 81.241 466.569L100.466 468.198C100.846 468.252 101.172 468.578 101.118 468.958C101.118 469.339 100.738 469.664 100.358 469.61Z" fill="white"/>
<path d="M53.3943 440.935L51.3305 439.197C49.7555 437.839 48.6151 436.047 48.1263 434.038L44.3789 419.32L48.3435 418.288L52.0908 433.006C52.4166 434.201 53.0683 435.233 53.9916 436.047L56.0553 437.785C56.9243 438.491 57.0329 439.795 56.3269 440.664C55.5666 441.532 54.2632 441.641 53.3943 440.935Z" fill="white"/>
<path d="M54.6902 442.782C53.8755 442.782 53.1152 442.51 52.5178 441.967L50.454 440.229C48.6618 438.708 47.3585 436.699 46.8154 434.364L42.7422 418.288L49.3136 416.605L53.3868 432.68C53.604 433.603 54.1471 434.418 54.8531 435.015L56.9169 436.753C57.6229 437.351 58.0574 438.165 58.1117 439.088C58.166 440.012 57.8945 440.881 57.3514 441.587C56.754 442.293 55.9393 442.727 55.0161 442.782C54.9075 442.782 54.7988 442.782 54.6902 442.782ZM54.2557 439.903C54.4186 440.066 54.6359 440.066 54.7445 440.066C54.8532 440.066 55.0703 440.012 55.2333 439.849C55.3962 439.686 55.3962 439.469 55.3962 439.36C55.3962 439.251 55.342 439.034 55.179 438.871L53.1153 437.133C51.9748 436.156 51.1601 434.852 50.78 433.386L47.3585 419.972L46.0551 420.298L49.4766 433.712C49.9111 435.45 50.8885 436.97 52.2463 438.165L54.2557 439.903Z" fill="#2D2D2D"/>
<path d="M90.4668 431.485L88.1314 427.358C85.8505 423.339 81.6144 420.895 76.9981 420.895H9.00322C7.86273 420.895 6.93945 419.972 6.93945 418.831C6.93945 417.691 7.86273 416.767 9.00322 416.767H76.9981C83.0807 416.767 88.6745 420.026 91.6615 425.348L93.9968 429.476C94.5399 430.453 94.214 431.702 93.2364 432.246C92.2589 432.789 91.0642 432.463 90.4668 431.485Z" fill="white"/>
<path d="M92.267 433.875C91.0722 433.875 89.9317 433.277 89.28 432.137L86.9448 428.009C84.9353 424.425 81.1337 422.198 77.0062 422.198H9.01134C7.16483 422.198 5.58984 420.678 5.58984 418.777C5.58984 416.876 7.11052 415.355 9.01134 415.355H77.0062C83.5776 415.355 89.6059 418.886 92.8644 424.588L95.1997 428.715C95.6342 429.53 95.7427 430.399 95.5255 431.322C95.3083 432.191 94.7109 432.897 93.9506 433.386C93.4075 433.712 92.8644 433.875 92.267 433.875ZM91.6696 430.779C91.8326 431.105 92.267 431.214 92.5929 431.051C92.8101 430.942 92.8645 430.725 92.9188 430.616C92.9731 430.508 92.973 430.29 92.8644 430.073L90.5291 425.946C87.7593 421.112 82.6 418.071 77.0604 418.071H9.06557C8.68541 418.071 8.35952 418.397 8.35952 418.777C8.35952 419.157 8.68541 419.483 9.06557 419.483H77.0604C82.1655 419.483 86.8361 422.253 89.3343 426.652L91.6696 430.779Z" fill="#2D2D2D"/>
<path d="M232.278 372.614L219.787 374.406C217.886 374.678 216.529 376.47 216.8 378.371C217.072 380.272 218.864 381.629 220.765 381.358L233.256 379.566C235.157 379.294 236.514 377.502 236.243 375.601C235.971 373.7 234.233 372.343 232.278 372.614Z" fill="white"/>
<path d="M220.266 382.77C219.234 382.77 218.203 382.444 217.388 381.792C216.356 381.032 215.65 379.892 215.487 378.588C215.107 375.927 216.953 373.483 219.615 373.103L232.106 371.311C233.409 371.148 234.658 371.474 235.69 372.234C236.722 372.994 237.428 374.135 237.591 375.438C237.754 376.742 237.428 377.991 236.668 379.023C235.907 380.054 234.767 380.761 233.463 380.923L220.972 382.716C220.755 382.77 220.484 382.77 220.266 382.77ZM232.812 373.972C232.703 373.972 232.594 373.972 232.486 373.972L219.995 375.764C218.8 375.927 217.985 377.013 218.148 378.208C218.257 378.751 218.528 379.294 218.963 379.62C219.397 379.946 219.995 380.109 220.538 380L233.029 378.208C233.572 378.099 234.115 377.828 234.441 377.393C234.767 376.959 234.93 376.362 234.821 375.818C234.712 375.275 234.441 374.732 234.006 374.406C233.681 374.08 233.246 373.972 232.812 373.972Z" fill="#2D2D2D"/>
<path d="M231.688 505.4H166.246V502.684H230.222L240.595 486.989L242.876 488.455L231.688 505.4Z" fill="white"/>
<path d="M222.792 385.885L222.512 388.586L244.928 390.914L245.209 388.213L222.792 385.885Z" fill="white"/>
<path d="M262.92 482.101L260.748 480.526C269.709 468.144 271.555 449.896 271.555 449.733L274.271 450.005C274.162 450.765 272.37 469.176 262.92 482.101Z" fill="white"/>
<path d="M63.1151 450.276C62.735 449.733 62.9522 448.973 63.4953 448.647C65.0702 447.778 66.6995 447.126 68.3831 446.637C69.0348 446.475 69.6866 446.855 69.7952 447.506C69.9038 448.104 69.5236 448.701 68.9262 448.864C67.4055 449.244 65.9935 449.842 64.6358 450.602C64.147 450.982 63.441 450.819 63.1151 450.276Z" fill="white"/>
<path d="M53.0052 463.256C52.3535 463.039 52.0276 462.333 52.2992 461.681C53.0595 459.943 54.7431 456.522 57.7301 453.263C58.1645 452.774 58.9248 452.774 59.4136 453.263C59.848 453.698 59.848 454.404 59.4136 454.892C56.6981 457.879 55.1232 461.029 54.4172 462.604C54.1999 463.202 53.5483 463.473 53.0052 463.256Z" fill="white"/>
<path d="M81.6418 351.543V412.423C81.6418 414.758 79.741 416.659 77.4057 416.659H5.60918C3.27389 416.659 1.37305 414.758 1.37305 412.423V351.543C1.37305 349.207 3.27389 347.306 5.60918 347.306H77.4057C79.741 347.306 81.6418 349.207 81.6418 351.543Z" fill="#03736D"/>
<path d="M77.3904 418.017H5.59386C2.49824 418.017 0 415.518 0 412.423V351.542C0 348.447 2.49824 345.949 5.59386 345.949H77.3904C80.486 345.949 82.9842 348.447 82.9842 351.542V412.423C82.9842 415.518 80.486 418.017 77.3904 418.017ZM5.59386 348.664C4.01889 348.664 2.71545 349.968 2.71545 351.542V412.423C2.71545 413.998 4.01889 415.301 5.59386 415.301H77.3904C78.9653 415.301 80.2688 413.998 80.2688 412.423V351.542C80.2688 349.968 78.9653 348.664 77.3904 348.664H5.59386Z" fill="#2D2D2D"/>
<path d="M81.6418 351.543V362.459H1.37305V351.543C1.37305 349.207 3.27389 347.306 5.60918 347.306H77.4057C79.741 347.306 81.6418 349.207 81.6418 351.543Z" fill="#2D2D2D"/>
<path d="M82.9842 363.816H0V351.542C0 348.447 2.49824 345.949 5.59386 345.949H77.3904C80.486 345.949 82.9842 348.447 82.9842 351.542V363.816ZM2.71545 361.101H80.2688V351.542C80.2688 349.968 78.9653 348.664 77.3904 348.664H5.59386C4.01889 348.664 2.71545 349.968 2.71545 351.542V361.101Z" fill="#2D2D2D"/>
<path d="M218.966 381.141C220.736 381.141 222.17 379.706 222.17 377.937C222.17 376.167 220.736 374.732 218.966 374.732C217.196 374.732 215.762 376.167 215.762 377.937C215.762 379.706 217.196 381.141 218.966 381.141Z" fill="white"/>
<path d="M218.974 382.499C216.476 382.499 214.412 380.435 214.412 377.937C214.412 375.438 216.476 373.375 218.974 373.375C221.472 373.375 223.536 375.438 223.536 377.937C223.536 380.435 221.527 382.499 218.974 382.499ZM218.974 376.09C217.942 376.09 217.128 376.905 217.128 377.937C217.128 378.968 217.942 379.783 218.974 379.783C220.006 379.783 220.821 378.968 220.821 377.937C220.821 376.905 220.006 376.09 218.974 376.09Z" fill="#2D2D2D"/>
<path d="M248.026 364.631H245.311V389.396H248.026V364.631Z" fill="white"/>
<path d="M307.279 465.428C303.423 461.627 298.915 459.183 295.494 457.716C295.005 457.499 294.733 456.902 294.951 456.413C295.168 455.87 295.765 455.653 296.308 455.87C299.893 457.391 304.672 459.997 308.745 464.016C309.18 464.396 309.18 465.103 308.745 465.483C308.311 465.863 307.659 465.863 307.279 465.428Z" fill="white"/>
<path d="M290.665 455.979C290.067 455.816 289.524 455.653 289.09 455.544C288.547 455.436 288.221 454.892 288.329 454.349C288.438 453.752 288.981 453.426 289.579 453.535C290.013 453.643 290.556 453.806 291.208 453.969C291.751 454.132 292.077 454.73 291.914 455.273C291.751 455.87 291.208 456.142 290.665 455.979Z" fill="white"/>
<path d="M324.22 61.0976H301.41V58.3822H323.188C323.731 56.7529 325.143 53.603 328.13 51.7565C330.248 50.4531 332.746 50.0186 335.57 50.5074C336.548 45.7825 340.187 38.8309 349.202 38.8309C352.732 38.8309 358.869 40.6231 360.987 46.9773C362.997 46.217 366.69 45.2937 370.328 46.76C373.478 48.0635 375.868 50.8332 377.334 55.0693H388.848V57.7848H375.379L375.107 56.8072C373.913 52.8426 371.958 50.2901 369.351 49.2582C365.278 47.5747 360.824 49.9643 360.77 50.0186L359.141 50.8875L358.761 49.0954C357.566 43.1214 352.189 41.4921 349.256 41.4921C339.209 41.4921 338.177 51.7565 338.123 52.1909L337.96 53.7659L336.385 53.3314C333.724 52.6254 331.443 52.8427 329.596 53.9289C326.501 55.8297 325.578 59.8486 325.578 59.9029L325.36 60.989L324.22 61.0976Z" fill="#2D2D2D"/>
<path d="M608.527 69.5155C627.723 69.5155 643.285 53.954 643.285 34.7578C643.285 15.5616 627.723 0 608.527 0C589.331 0 573.77 15.5616 573.77 34.7578C573.77 53.954 589.331 69.5155 608.527 69.5155Z" fill="#FFC700"/>
<path d="M511.869 58.1107H644.926C644.926 58.1107 640.582 41.2749 626.461 46.7058C626.461 46.7058 621.03 27.6977 600.936 36.9302C600.936 36.9302 572.695 -1.62922 539.024 47.2489C539.024 47.2489 523.274 35.844 511.869 58.1107Z" fill="white"/>
<path d="M646.664 59.4684H509.643L510.674 57.5133C514.748 49.5842 519.798 44.8593 525.772 43.4472C531.584 42.0352 536.526 44.2075 538.698 45.4567C549.94 29.4898 561.834 21.3435 574.053 21.1805C574.162 21.1805 574.325 21.1805 574.433 21.1805C588.717 21.1805 598.709 32.0967 601.37 35.3009C607.67 32.6397 613.21 32.3682 617.935 34.5405C623.583 37.1474 626.298 42.524 627.33 45.0222C631.023 43.8817 634.391 44.0989 637.432 45.6739C643.949 49.0411 646.176 57.459 646.284 57.8391L646.664 59.4684ZM514.15 56.753H643.026C642.102 54.3634 639.93 49.9643 636.128 48.0092C633.467 46.6515 630.426 46.6515 626.95 47.9549L625.538 48.498L625.104 47.0859C625.104 47.0316 622.931 39.8085 616.686 36.9302C612.504 35.0293 607.399 35.4095 601.425 38.1793L600.393 38.668L599.741 37.7991C599.633 37.6362 589.151 23.6788 573.944 23.896C562.377 24.0589 550.972 32.2053 540.056 48.0635L539.241 49.204L538.1 48.3894C538.046 48.335 532.615 44.5334 526.207 46.1084C521.699 47.1946 517.626 50.779 514.15 56.753Z" fill="#2D2D2D"/>
<path d="M470.856 118.122H443.701V115.407H468.738C469.389 113.343 471.29 108.89 475.309 107.26C477.97 106.174 481.011 106.5 484.324 108.292C485.845 105.305 489.538 101.721 496.109 102.97L495.621 105.631C488.235 104.273 486.388 110.356 486.334 110.627L485.845 112.365L484.324 111.388C481.229 109.433 478.568 108.89 476.395 109.759C472.485 111.334 471.182 116.982 471.127 117.036L470.856 118.122Z" fill="#2D2D2D"/>
<path d="M788.851 529.785H6.80078V532.5H788.851V529.785Z" fill="#2D2D2D"/>
<path d="M11.3918 392.667H71.759C71.7613 392.684 71.7631 392.701 71.7654 392.717C71.4664 392.751 71.1674 392.786 70.8684 392.82C70.8684 392.828 70.8684 392.835 70.869 392.843H71.49C71.4905 392.857 71.4911 392.87 71.4917 392.885C70.8725 392.952 70.2532 393.021 69.634 393.085C68.1213 393.241 66.6086 393.396 65.0953 393.549C64.0202 393.657 62.9439 393.758 61.8687 393.868C60.5745 394 59.2814 394.141 57.9872 394.272C56.8925 394.382 55.7966 394.48 54.7019 394.586C53.5215 394.699 52.3411 394.822 51.1602 394.928C50.112 395.023 49.0627 395.102 48.0135 395.183C46.7647 395.28 45.5159 395.376 44.2665 395.462C43.4552 395.518 42.6422 395.559 41.8298 395.598C40.1665 395.678 38.5032 395.752 36.8398 395.828C36.3143 395.852 35.7882 395.883 35.2621 395.889C31.9199 395.932 28.5777 395.987 25.2355 395.999C23.5797 396.005 21.9215 395.968 20.2679 395.881C18.5879 395.793 16.9096 395.646 15.2365 395.47C14.2476 395.366 13.2684 395.157 12.3744 394.658C11.6655 394.262 11.2406 393.417 11.3918 392.667Z" fill="white"/>
<path d="M59.0065 388.62C59.0178 388.505 59.1188 388.419 59.2347 388.424C62.4874 388.571 64.4009 388.566 67.6557 388.423C67.7685 388.418 67.8677 388.5 67.8821 388.612C68.0111 389.612 68.0124 390.249 67.8797 391.255C67.8662 391.357 67.7812 391.435 67.6784 391.442C64.4359 391.668 62.5219 391.682 59.2057 391.443C59.1023 391.436 59.0172 391.356 59.0049 391.253C58.8845 390.251 58.9094 389.615 59.0065 388.62Z" fill="white"/>
<path d="M59.0347 381.921C59.0432 381.804 59.1449 381.714 59.2627 381.72C62.4921 381.865 64.3958 381.861 67.6245 381.719C67.7433 381.714 67.8454 381.805 67.852 381.924C67.9116 382.985 67.9171 383.622 67.8536 384.523C67.846 384.632 67.7579 384.717 67.6494 384.724C64.4319 384.913 62.526 384.919 59.2322 384.723C59.1273 384.717 59.0407 384.636 59.0294 384.532C58.9248 383.562 58.9626 382.923 59.0347 381.921Z" fill="white"/>
<path d="M58.703 383.888C58.9596 383.848 59.1158 383.837 59.2451 383.941L59.6514 384.34C59.8017 384.488 59.7218 384.737 59.511 384.736C59.3077 384.734 59.0576 384.712 58.696 384.664C58.6079 384.653 58.53 384.597 58.4995 384.513C58.429 384.32 58.4334 384.18 58.5341 384.001C58.5689 383.939 58.6329 383.9 58.703 383.888Z" fill="white"/>
<path d="M68.1803 383.888C67.9473 383.851 67.7983 383.84 67.6567 383.928C67.6439 383.936 67.6323 383.946 67.6216 383.956L67.2231 384.349C67.0744 384.495 67.1513 384.739 67.3598 384.737C67.5587 384.735 67.8121 384.712 68.1858 384.664C68.2744 384.653 68.3529 384.597 68.3834 384.513C68.4538 384.319 68.4492 384.179 68.3484 384C68.3137 383.939 68.2501 383.899 68.1803 383.888Z" fill="white"/>
<path d="M59.0199 378.811C59.0366 378.573 59.2329 378.386 59.4717 378.38C62.2762 378.31 64.1439 378.299 67.4123 378.38C67.6535 378.386 67.851 378.576 67.8635 378.817C67.9078 379.673 67.9123 380.256 67.8678 380.989C67.8537 381.221 67.6663 381.404 67.4346 381.417C64.4118 381.59 62.5338 381.596 59.4374 381.416C59.2134 381.403 59.0294 381.231 59.0089 381.008C58.9365 380.215 58.9628 379.628 59.0199 378.811Z" fill="white"/>
<path d="M58.703 380.569C58.9596 380.529 59.1158 380.518 59.2451 380.622L59.6514 381.021C59.8017 381.169 59.7218 381.418 59.511 381.417C59.3077 381.415 59.0576 381.393 58.696 381.345C58.6079 381.334 58.53 381.278 58.4995 381.194C58.429 381.001 58.4334 380.861 58.5341 380.682C58.5689 380.62 58.6329 380.581 58.703 380.569Z" fill="white"/>
<path d="M68.1803 380.569C67.9473 380.532 67.7983 380.521 67.6567 380.609C67.6439 380.617 67.6323 380.627 67.6216 380.638L67.2231 381.03C67.0744 381.176 67.1513 381.42 67.3598 381.418C67.5587 381.416 67.8121 381.393 68.1858 381.345C68.2744 381.334 68.3529 381.278 68.3834 381.194C68.4538 381 68.4492 380.86 68.3484 380.681C68.3137 380.62 68.2501 380.581 68.1803 380.569Z" fill="white"/>
<path d="M59.0347 385.241C59.0432 385.123 59.1449 385.033 59.2627 385.039C62.4921 385.184 64.3958 385.18 67.6245 385.039C67.7433 385.033 67.8454 385.125 67.852 385.243C67.9116 386.304 67.9171 386.941 67.8536 387.842C67.846 387.951 67.7579 388.036 67.6494 388.043C64.4319 388.232 62.526 388.238 59.2322 388.042C59.1273 388.036 59.0407 387.955 59.0294 387.851C58.9248 386.881 58.9626 386.242 59.0347 385.241Z" fill="white"/>
<path d="M58.703 387.208C58.9596 387.167 59.1158 387.156 59.2451 387.26L59.6514 387.659C59.8017 387.807 59.7218 388.056 59.511 388.055C59.3077 388.053 59.0576 388.031 58.696 387.983C58.6079 387.972 58.53 387.916 58.4995 387.832C58.429 387.639 58.4334 387.499 58.5341 387.32C58.5689 387.258 58.6329 387.219 58.703 387.208Z" fill="white"/>
<path d="M58.8359 390.622C59.0924 390.581 59.2486 390.57 59.3779 390.674L59.7842 391.074C59.9345 391.222 59.8546 391.471 59.6438 391.469C59.4405 391.468 59.1904 391.446 58.8289 391.398C58.7407 391.386 58.6628 391.331 58.6324 391.247C58.5618 391.053 58.5662 390.913 58.6669 390.734C58.7018 390.672 58.7657 390.633 58.8359 390.622Z" fill="white"/>
<path d="M68.1803 387.207C67.9473 387.17 67.7983 387.159 67.6567 387.247C67.6439 387.255 67.6323 387.265 67.6216 387.276L67.2231 387.668C67.0744 387.814 67.1513 388.058 67.3598 388.056C67.5587 388.054 67.8121 388.031 68.1858 387.983C68.2744 387.972 68.3529 387.916 68.3834 387.832C68.4538 387.638 68.4492 387.498 68.3484 387.319C68.3137 387.258 68.2501 387.219 68.1803 387.207Z" fill="white"/>
<path d="M68.1393 390.62C67.9063 390.582 67.7573 390.572 67.6157 390.66C67.6029 390.668 67.5913 390.678 67.5805 390.688L67.1821 391.08C67.0334 391.227 67.1103 391.471 67.3188 391.469C67.5177 391.467 67.7711 391.444 68.1448 391.396C68.2334 391.384 68.3119 391.329 68.3424 391.245C68.4128 391.051 68.4081 390.911 68.3073 390.732C68.2726 390.67 68.2091 390.631 68.1393 390.62Z" fill="white"/>
<path fill-rule="evenodd" clip-rule="evenodd" d="M65.8653 380.182H60.9531V377.593C60.9531 376.713 61.6664 376 62.5463 376H64.2722C65.152 376 65.8653 376.713 65.8653 377.593V380.182ZM62.5463 376.73C62.0697 376.73 61.6833 377.117 61.6833 377.593V379.452H65.1351V377.593C65.1351 377.117 64.7487 376.73 64.2722 376.73H62.5463Z" fill="white"/>
<g style="mix-blend-mode:darken">
<rect x="66.2637" y="378.323" width="1.06209" height="13.2761" fill="#D9D9D9"/>
</g>
<g style="mix-blend-mode:darken">
<rect x="65.8652" y="378.323" width="0.265522" height="13.2761" fill="#D9D9D9"/>
</g>
<g style="mix-blend-mode:darken">
<rect x="64.9453" y="378.356" width="0.132761" height="13.2761" fill="#D9D9D9"/>
</g>
<path d="M17.1505 389.979C16.483 389.979 15.8388 389.898 15.2179 389.735C14.6047 389.564 14.1041 389.347 13.716 389.083L14.4728 387.383C14.8376 387.616 15.2567 387.81 15.7301 387.965C16.2114 388.112 16.6887 388.186 17.1622 388.186C17.4804 388.186 17.7365 388.159 17.9306 388.105C18.1246 388.043 18.2643 387.965 18.3497 387.872C18.4428 387.771 18.4894 387.655 18.4894 387.523C18.4894 387.336 18.404 387.189 18.2333 387.08C18.0625 386.972 17.8413 386.882 17.5696 386.812C17.298 386.743 16.9953 386.673 16.6615 386.603C16.3355 386.533 16.0057 386.444 15.6719 386.335C15.3459 386.226 15.0471 386.087 14.7755 385.916C14.5038 385.737 14.2826 385.508 14.1118 385.229C13.9411 384.942 13.8557 384.581 13.8557 384.146C13.8557 383.657 13.9877 383.215 14.2516 382.819C14.5232 382.423 14.9268 382.105 15.4624 381.864C15.9979 381.624 16.6654 381.503 17.4649 381.503C18.0004 381.503 18.5243 381.566 19.0366 381.69C19.5566 381.806 20.0184 381.981 20.422 382.214L19.7119 383.925C19.3238 383.716 18.9396 383.56 18.5593 383.459C18.1789 383.351 17.8103 383.296 17.4532 383.296C17.135 383.296 16.8789 383.331 16.6848 383.401C16.4908 383.463 16.3511 383.549 16.2657 383.657C16.1803 383.766 16.1376 383.89 16.1376 384.03C16.1376 384.208 16.2191 384.352 16.3821 384.461C16.5529 384.562 16.7741 384.647 17.0457 384.717C17.3252 384.779 17.6279 384.845 17.9538 384.915C18.2876 384.985 18.6175 385.074 18.9435 385.182C19.2772 385.283 19.5799 385.423 19.8516 385.602C20.1232 385.772 20.3405 386.001 20.5035 386.289C20.6743 386.568 20.7597 386.921 20.7597 387.348C20.7597 387.821 20.6238 388.26 20.3522 388.664C20.0883 389.059 19.6886 389.378 19.153 389.618C18.6252 389.859 17.9577 389.979 17.1505 389.979ZM24.5372 389.921C23.73 389.921 23.1013 389.723 22.6511 389.327C22.2009 388.924 21.9758 388.318 21.9758 387.511V382.097H24.1879V387.488C24.1879 387.713 24.25 387.891 24.3742 388.023C24.4984 388.147 24.6575 388.21 24.8515 388.21C25.1154 388.21 25.3405 388.144 25.5268 388.012L26.074 389.56C25.8877 389.684 25.6587 389.773 25.3871 389.828C25.1154 389.89 24.8321 389.921 24.5372 389.921ZM21.0561 385.392V383.739H25.6316V385.392H21.0561ZM29.5814 389.921C29.0692 389.921 28.6074 389.82 28.196 389.618C27.7924 389.416 27.4742 389.102 27.2413 388.675C27.0162 388.241 26.9037 387.693 26.9037 387.034V383.506H29.1157V386.673C29.1157 387.162 29.205 387.511 29.3835 387.721C29.5698 387.93 29.8298 388.035 30.1636 388.035C30.3809 388.035 30.5788 387.984 30.7573 387.884C30.9358 387.783 31.0794 387.624 31.1881 387.406C31.2968 387.181 31.3511 386.894 31.3511 386.545V383.506H33.5631V389.816H31.4559V388.035L31.8634 388.535C31.646 389.001 31.3317 389.35 30.9203 389.583C30.509 389.808 30.0627 389.921 29.5814 389.921ZM35.2441 389.816V383.576C35.2441 382.815 35.4692 382.21 35.9194 381.76C36.3773 381.302 37.0293 381.073 37.8753 381.073C38.147 381.073 38.4147 381.1 38.6786 381.154C38.9425 381.209 39.1637 381.29 39.3422 381.399L38.795 382.959C38.7019 382.904 38.5971 382.862 38.4807 382.831C38.3643 382.792 38.2479 382.772 38.1314 382.772C37.8986 382.772 37.7162 382.842 37.5842 382.982C37.4601 383.114 37.398 383.32 37.398 383.599V384.053L37.4562 384.973V389.816H35.2441ZM34.3244 385.392V383.739H38.8998V385.392H34.3244ZM39.9738 389.816V383.576C39.9738 382.815 40.1989 382.21 40.6491 381.76C41.107 381.302 41.759 381.073 42.605 381.073C42.8767 381.073 43.1445 381.1 43.4084 381.154C43.6723 381.209 43.8935 381.29 44.072 381.399L43.5248 382.959C43.4316 382.904 43.3269 382.862 43.2104 382.831C43.094 382.792 42.9776 382.772 42.8612 382.772C42.6283 382.772 42.4459 382.842 42.314 382.982C42.1898 383.114 42.1277 383.32 42.1277 383.599V384.053L42.1859 384.973V389.816H39.9738ZM39.0541 385.392V383.739H43.6296V385.392H39.0541ZM44.6425 389.816V383.506H46.8545V389.816H44.6425ZM45.7485 382.807C45.3449 382.807 45.0189 382.695 44.7705 382.47C44.5221 382.245 44.398 381.965 44.398 381.632C44.398 381.298 44.5221 381.018 44.7705 380.793C45.0189 380.568 45.3449 380.456 45.7485 380.456C46.1521 380.456 46.4781 380.564 46.7264 380.782C46.9748 380.991 47.099 381.263 47.099 381.597C47.099 381.946 46.9748 382.237 46.7264 382.47C46.4858 382.695 46.1598 382.807 45.7485 382.807ZM52.4001 383.401C52.8891 383.401 53.3315 383.502 53.7274 383.704C54.1232 383.898 54.4337 384.201 54.6588 384.612C54.8916 385.023 55.008 385.555 55.008 386.207V389.816H52.796V386.568C52.796 386.118 52.7028 385.792 52.5165 385.59C52.338 385.38 52.0858 385.276 51.7598 385.276C51.5269 385.276 51.3135 385.33 51.1195 385.439C50.9254 385.54 50.7741 385.699 50.6654 385.916C50.5567 386.133 50.5024 386.417 50.5024 386.766V389.816H48.2903V383.506H50.3976V385.299L49.9901 384.775C50.2308 384.317 50.5606 383.976 50.9797 383.75C51.3989 383.518 51.8723 383.401 52.4001 383.401Z" fill="white"/>
<path d="M619.128 373.501H718.734C718.738 373.529 718.741 373.556 718.745 373.584C718.251 373.64 717.758 373.697 717.265 373.753C717.265 373.766 717.265 373.778 717.266 373.791H718.29C718.291 373.814 718.292 373.836 718.293 373.86C717.272 373.971 716.25 374.085 715.228 374.19C712.732 374.448 710.236 374.704 707.739 374.956C705.965 375.134 704.189 375.301 702.415 375.482C700.28 375.7 698.146 375.933 696.011 376.148C694.205 376.33 692.396 376.492 690.59 376.666C688.642 376.854 686.695 377.057 684.746 377.232C683.017 377.387 681.285 377.519 679.554 377.653C677.494 377.812 675.433 377.971 673.372 378.112C672.033 378.204 670.692 378.273 669.351 378.337C666.607 378.469 663.862 378.592 661.118 378.716C660.251 378.756 659.383 378.807 658.514 378.818C653 378.888 647.485 378.978 641.971 378.999C639.238 379.009 636.502 378.948 633.774 378.804C631.002 378.658 628.233 378.416 625.472 378.126C623.84 377.955 622.225 377.609 620.75 376.786C619.58 376.133 618.879 374.738 619.128 373.501Z" fill="white"/>
<path d="M697.691 366.823C697.71 366.632 697.876 366.49 698.068 366.499C703.435 366.741 706.592 366.733 711.962 366.498C712.148 366.49 712.312 366.625 712.336 366.809C712.549 368.46 712.551 369.51 712.332 371.17C712.31 371.338 712.169 371.468 712 371.48C706.65 371.853 703.492 371.875 698.02 371.481C697.849 371.468 697.709 371.337 697.688 371.167C697.49 369.513 697.531 368.465 697.691 366.823Z" fill="white"/>
<path d="M697.738 355.77C697.752 355.576 697.92 355.428 698.115 355.437C703.443 355.677 706.584 355.67 711.911 355.437C712.108 355.428 712.276 355.579 712.287 355.775C712.385 357.525 712.394 358.576 712.29 360.063C712.277 360.242 712.132 360.383 711.953 360.394C706.644 360.705 703.499 360.717 698.064 360.393C697.891 360.383 697.748 360.25 697.73 360.077C697.557 358.477 697.619 357.422 697.738 355.77Z" fill="white"/>
<path d="M697.191 359.016C697.615 358.949 697.872 358.931 698.086 359.102L698.756 359.761C699.004 360.005 698.872 360.416 698.524 360.414C698.189 360.412 697.776 360.375 697.18 360.296C697.034 360.277 696.906 360.185 696.856 360.047C696.739 359.727 696.747 359.496 696.913 359.201C696.97 359.098 697.076 359.034 697.191 359.016Z" fill="white"/>
<path d="M712.829 359.015C712.445 358.953 712.199 358.935 711.965 359.081C711.944 359.094 711.925 359.11 711.907 359.128L711.25 359.775C711.004 360.016 711.131 360.419 711.475 360.416C711.803 360.412 712.222 360.375 712.838 360.295C712.984 360.276 713.114 360.184 713.164 360.046C713.28 359.726 713.273 359.495 713.106 359.2C713.049 359.098 712.944 359.034 712.829 359.015Z" fill="white"/>
<path d="M697.714 350.638C697.741 350.245 698.065 349.937 698.459 349.927C703.087 349.811 706.169 349.794 711.561 349.927C711.959 349.937 712.285 350.251 712.306 350.648C712.379 352.06 712.386 353.022 712.313 354.232C712.29 354.615 711.98 354.916 711.598 354.938C706.611 355.223 703.512 355.233 698.403 354.937C698.033 354.916 697.73 354.632 697.696 354.263C697.576 352.955 697.62 351.986 697.714 350.638Z" fill="white"/>
<path d="M697.191 353.539C697.615 353.472 697.872 353.454 698.086 353.625L698.756 354.285C699.004 354.529 698.872 354.94 698.524 354.938C698.189 354.935 697.776 354.899 697.18 354.82C697.034 354.8 696.906 354.709 696.856 354.571C696.739 354.251 696.747 354.02 696.913 353.724C696.97 353.622 697.076 353.558 697.191 353.539Z" fill="white"/>
<path d="M712.829 353.539C712.445 353.477 712.199 353.459 711.965 353.605C711.944 353.618 711.925 353.634 711.907 353.652L711.25 354.299C711.004 354.54 711.131 354.943 711.475 354.94C711.803 354.936 712.222 354.899 712.838 354.819C712.984 354.8 713.114 354.708 713.164 354.57C713.28 354.251 713.273 354.019 713.106 353.724C713.049 353.622 712.944 353.558 712.829 353.539Z" fill="white"/>
<path d="M697.738 361.247C697.752 361.053 697.92 360.905 698.115 360.914C703.443 361.154 706.584 361.147 711.911 360.913C712.108 360.905 712.276 361.055 712.287 361.251C712.385 363.002 712.394 364.052 712.29 365.54C712.277 365.718 712.132 365.86 711.953 365.87C706.644 366.182 703.499 366.193 698.064 365.87C697.891 365.859 697.748 365.726 697.73 365.554C697.557 363.954 697.619 362.899 697.738 361.247Z" fill="white"/>
<path d="M697.191 364.492C697.615 364.425 697.872 364.407 698.086 364.578L698.756 365.238C699.004 365.482 698.872 365.893 698.524 365.89C698.189 365.888 697.776 365.852 697.18 365.773C697.034 365.753 696.906 365.661 696.856 365.523C696.739 365.204 696.747 364.973 696.913 364.677C696.97 364.575 697.076 364.511 697.191 364.492Z" fill="white"/>
<path d="M697.41 370.126C697.833 370.059 698.091 370.041 698.304 370.212L698.975 370.872C699.223 371.116 699.091 371.527 698.743 371.525C698.408 371.522 697.995 371.486 697.399 371.407C697.253 371.387 697.125 371.295 697.074 371.158C696.958 370.838 696.965 370.607 697.131 370.311C697.189 370.209 697.294 370.145 697.41 370.126Z" fill="white"/>
<path d="M712.829 364.492C712.445 364.43 712.199 364.412 711.965 364.558C711.944 364.571 711.925 364.587 711.907 364.604L711.25 365.251C711.004 365.493 711.131 365.896 711.475 365.892C711.803 365.889 712.222 365.852 712.838 365.772C712.984 365.753 713.114 365.661 713.164 365.522C713.28 365.203 713.273 364.972 713.106 364.676C713.049 364.575 712.944 364.51 712.829 364.492Z" fill="white"/>
<path d="M712.761 370.123C712.376 370.061 712.13 370.043 711.897 370.189C711.876 370.202 711.857 370.218 711.839 370.236L711.181 370.883C710.936 371.124 711.063 371.527 711.407 371.524C711.735 371.52 712.153 371.483 712.77 371.403C712.916 371.384 713.045 371.292 713.096 371.153C713.212 370.834 713.204 370.603 713.038 370.308C712.981 370.206 712.876 370.142 712.761 370.123Z" fill="white"/>
<path fill-rule="evenodd" clip-rule="evenodd" d="M709.009 352.9H700.904V348.629C700.904 347.177 702.081 346 703.533 346H706.381C707.832 346 709.009 347.177 709.009 348.629V352.9ZM703.533 347.205C702.747 347.205 702.109 347.842 702.109 348.629V351.695H707.805V348.629C707.805 347.842 707.167 347.205 706.381 347.205H703.533Z" fill="white"/>
<g style="mix-blend-mode:darken">
<rect x="709.666" y="349.833" width="1.75245" height="21.9056" fill="#D9D9D9"/>
</g>
<g style="mix-blend-mode:darken">
<rect x="709.008" y="349.833" width="0.438112" height="21.9056" fill="#D9D9D9"/>
</g>
<g style="mix-blend-mode:darken">
<rect x="707.49" y="349.888" width="0.219056" height="21.9056" fill="#D9D9D9"/>
</g>
<path d="M628.629 369.916C627.527 369.916 626.464 369.781 625.44 369.512C624.428 369.231 623.602 368.872 622.962 368.436L624.21 365.632C624.812 366.016 625.504 366.336 626.285 366.592C627.079 366.836 627.867 366.957 628.648 366.957C629.173 366.957 629.596 366.913 629.916 366.823C630.236 366.72 630.466 366.592 630.607 366.439C630.761 366.272 630.838 366.08 630.838 365.862C630.838 365.555 630.697 365.312 630.415 365.132C630.133 364.953 629.768 364.806 629.32 364.691C628.872 364.575 628.372 364.46 627.822 364.345C627.284 364.23 626.74 364.082 626.189 363.903C625.651 363.724 625.158 363.493 624.71 363.211C624.262 362.917 623.897 362.539 623.615 362.078C623.333 361.604 623.192 361.009 623.192 360.291C623.192 359.485 623.41 358.755 623.845 358.102C624.294 357.448 624.96 356.923 625.843 356.526C626.727 356.129 627.828 355.931 629.147 355.931C630.031 355.931 630.895 356.033 631.741 356.238C632.599 356.43 633.361 356.718 634.027 357.103L632.855 359.926C632.214 359.581 631.581 359.325 630.953 359.158C630.326 358.979 629.717 358.889 629.128 358.889C628.603 358.889 628.18 358.947 627.86 359.062C627.54 359.164 627.31 359.305 627.169 359.485C627.028 359.664 626.957 359.869 626.957 360.099C626.957 360.394 627.092 360.631 627.361 360.81C627.643 360.977 628.008 361.117 628.456 361.233C628.917 361.335 629.416 361.444 629.954 361.559C630.505 361.675 631.049 361.822 631.587 362.001C632.138 362.168 632.637 362.398 633.085 362.693C633.534 362.974 633.892 363.352 634.161 363.826C634.443 364.287 634.584 364.87 634.584 365.574C634.584 366.355 634.36 367.079 633.911 367.745C633.476 368.398 632.816 368.923 631.933 369.32C631.062 369.717 629.961 369.916 628.629 369.916ZM640.817 369.82C639.485 369.82 638.447 369.493 637.705 368.84C636.962 368.174 636.59 367.175 636.59 365.843V356.911H640.24V365.805C640.24 366.176 640.343 366.471 640.548 366.688C640.753 366.893 641.015 366.996 641.335 366.996C641.771 366.996 642.142 366.887 642.449 366.669L643.352 369.224C643.045 369.429 642.667 369.576 642.219 369.666C641.771 369.768 641.303 369.82 640.817 369.82ZM635.073 362.347V359.619H642.622V362.347H635.073ZM649.14 369.82C648.294 369.82 647.532 369.653 646.854 369.32C646.188 368.987 645.663 368.469 645.278 367.764C644.907 367.047 644.721 366.144 644.721 365.056V359.235H648.371V364.46C648.371 365.267 648.519 365.843 648.813 366.189C649.12 366.535 649.549 366.708 650.1 366.708C650.459 366.708 650.785 366.624 651.08 366.458C651.374 366.291 651.611 366.029 651.791 365.67C651.97 365.299 652.06 364.825 652.06 364.249V359.235H655.709V369.647H652.232V366.708L652.905 367.534C652.546 368.302 652.028 368.878 651.349 369.263C650.67 369.634 649.934 369.82 649.14 369.82ZM658.483 369.647V359.35C658.483 358.095 658.854 357.096 659.597 356.353C660.353 355.598 661.429 355.22 662.825 355.22C663.273 355.22 663.715 355.265 664.15 355.354C664.585 355.444 664.95 355.579 665.245 355.758L664.342 358.332C664.188 358.242 664.016 358.172 663.823 358.121C663.631 358.057 663.439 358.025 663.247 358.025C662.863 358.025 662.562 358.14 662.344 358.37C662.139 358.588 662.037 358.928 662.037 359.389V360.138L662.133 361.655V369.647H658.483ZM656.965 362.347V359.619H664.515V362.347H656.965ZM666.287 369.647V359.35C666.287 358.095 666.659 357.096 667.401 356.353C668.157 355.598 669.233 355.22 670.629 355.22C671.077 355.22 671.519 355.265 671.954 355.354C672.389 355.444 672.754 355.579 673.049 355.758L672.146 358.332C671.992 358.242 671.82 358.172 671.627 358.121C671.435 358.057 671.243 358.025 671.051 358.025C670.667 358.025 670.366 358.14 670.148 358.37C669.943 358.588 669.841 358.928 669.841 359.389V360.138L669.937 361.655V369.647H666.287ZM664.77 362.347V359.619H672.319V362.347H664.77ZM673.99 369.647V359.235H677.64V369.647H673.99ZM675.815 358.082C675.149 358.082 674.611 357.897 674.202 357.525C673.792 357.154 673.587 356.693 673.587 356.142C673.587 355.591 673.792 355.13 674.202 354.759C674.611 354.388 675.149 354.202 675.815 354.202C676.481 354.202 677.019 354.381 677.429 354.74C677.839 355.086 678.044 355.534 678.044 356.084C678.044 356.661 677.839 357.141 677.429 357.525C677.032 357.897 676.494 358.082 675.815 358.082ZM686.79 359.062C687.597 359.062 688.327 359.229 688.98 359.561C689.634 359.882 690.146 360.381 690.517 361.06C690.901 361.739 691.094 362.616 691.094 363.692V369.647H687.444V364.287C687.444 363.544 687.29 363.006 686.983 362.674C686.688 362.328 686.272 362.155 685.734 362.155C685.35 362.155 684.998 362.244 684.677 362.424C684.357 362.59 684.107 362.853 683.928 363.211C683.749 363.57 683.659 364.037 683.659 364.614V369.647H680.009V359.235H683.486V362.193L682.814 361.329C683.211 360.573 683.755 360.01 684.447 359.638C685.138 359.254 685.92 359.062 686.79 359.062Z" fill="white"/>
</svg>
