<svg width="601" height="550" viewBox="0 0 601 550" fill="none" xmlns="http://www.w3.org/2000/svg">
<path fill-rule="evenodd" clip-rule="evenodd" d="M18.5139 232.029C-40.5601 380.331 44.5435 548.622 233.706 549.97C422.869 551.319 639.224 507.252 595.24 353.273C551.257 199.294 386.015 352.421 297.138 229.603C208.261 106.786 77.5879 83.7281 18.5139 232.029Z" fill="#C6E5E3"/>
<path fill-rule="evenodd" clip-rule="evenodd" d="M372.699 166.048C392.563 218.972 506.704 240.258 524.118 205.139C541.532 170.02 488.596 164.462 458.623 116.411C428.649 68.3588 352.836 113.124 372.699 166.048Z" fill="#C6E5E3"/>
<path d="M464.602 144.585L451.291 130.168L419.36 159.651L432.671 174.068L464.602 144.585Z" fill="white"/>
<path d="M418.817 159.633L451.273 129.678L465.057 144.607L432.602 174.562L418.817 159.633ZM451.223 130.662L419.797 159.669L432.634 173.569L464.06 144.562L451.223 130.662Z" fill="#0FA64C"/>
<path d="M462.924 144.46L451.266 131.834L421.012 159.768L432.67 172.394L462.924 144.46Z" fill="#0FA64C"/>
<path d="M435.624 168.038L458.293 147.114C458.289 147.1 458.276 147.105 458.271 147.092C456.697 145.394 456.804 142.738 458.502 141.164L454.129 136.421C452.439 137.977 449.806 137.892 448.224 136.211L425.555 157.135C427.097 158.83 426.99 161.442 425.318 163.006L429.736 167.793C431.435 166.263 434.06 166.366 435.624 168.038Z" fill="white"/>
<path d="M438.042 155.745C440.472 158.376 444.21 158.876 446.393 156.861C448.575 154.846 448.375 151.079 445.945 148.448C443.515 145.817 439.777 145.317 437.594 147.332C435.412 149.347 435.612 153.114 438.042 155.745Z" fill="white"/>
<path d="M436.121 153.283C435.31 151.014 435.687 148.574 437.334 147.064C439.649 144.927 443.62 145.426 446.174 148.202C448.723 150.965 448.92 154.969 446.605 157.106C444.29 159.242 440.319 158.743 437.765 155.967C436.999 155.156 436.461 154.232 436.121 153.283ZM447.145 151.127C446.839 150.27 446.342 149.421 445.644 148.674C443.344 146.194 439.834 145.694 437.801 147.581C435.764 149.454 435.978 153.007 438.264 155.491C440.564 157.971 444.074 158.472 446.107 156.585C447.545 155.283 447.867 153.145 447.145 151.127Z" fill="#0FA64C"/>
<path d="M448.801 145.811C449.514 146.584 450.72 146.632 451.493 145.919C452.265 145.205 452.313 144 451.6 143.227C450.886 142.454 449.681 142.406 448.908 143.12C448.135 143.833 448.087 145.038 448.801 145.811Z" fill="white"/>
<path d="M448.029 145.278C447.732 144.447 447.942 143.495 448.624 142.864C449.54 142.016 450.972 142.069 451.807 142.991C452.655 143.907 452.602 145.339 451.681 146.174C450.764 147.022 449.332 146.969 448.497 146.048C448.297 145.822 448.128 145.555 448.029 145.278ZM451.629 143.991C451.563 143.806 451.453 143.623 451.308 143.466C450.727 142.841 449.743 142.791 449.104 143.377C448.479 143.957 448.429 144.942 449.014 145.58C449.595 146.206 450.579 146.255 451.218 145.67C451.682 145.222 451.832 144.558 451.629 143.991Z" fill="#0FA64C"/>
<path d="M432.343 161.009C433.056 161.782 434.262 161.83 435.035 161.117C435.807 160.403 435.855 159.198 435.142 158.425C434.428 157.652 433.223 157.604 432.45 158.318C431.677 159.031 431.629 160.236 432.343 161.009Z" fill="white"/>
<path d="M431.582 160.475C431.487 160.211 431.441 159.915 431.457 159.627C431.48 159.024 431.742 158.469 432.176 158.061C432.624 157.648 433.191 157.445 433.794 157.468C434.397 157.49 434.952 157.753 435.36 158.187C435.773 158.635 435.975 159.202 435.953 159.805C435.931 160.408 435.668 160.963 435.234 161.371C434.799 161.779 434.219 161.986 433.616 161.964C433.013 161.941 432.458 161.679 432.05 161.244C431.85 161.018 431.681 160.752 431.582 160.475ZM435.182 159.188C435.111 158.99 435.001 158.806 434.861 158.663C434.575 158.364 434.199 158.186 433.773 158.159C433.352 158.146 432.957 158.288 432.657 158.573C432.358 158.859 432.18 159.235 432.153 159.661C432.14 160.082 432.282 160.477 432.567 160.777C432.853 161.076 433.229 161.254 433.655 161.281C434.076 161.294 434.471 161.152 434.771 160.867C435.07 160.581 435.248 160.205 435.275 159.779C435.275 159.571 435.248 159.372 435.182 159.188Z" fill="#0FA64C"/>
<path d="M438.193 151.383C438.23 150.82 438.509 150.229 439.037 149.624L438.239 148.764L438.864 148.184L439.644 149.035C440.049 148.712 440.473 148.441 440.912 148.255C441.36 148.05 441.756 147.953 442.124 147.941L442.502 149.04C442.165 149.056 441.826 149.147 441.449 149.297C441.084 149.443 440.738 149.64 440.425 149.886L441.835 151.42C442.282 151.171 442.677 150.985 443.006 150.867C443.349 150.745 443.694 150.711 444.041 150.765C444.388 150.82 444.724 151.012 445.032 151.333C445.417 151.746 445.592 152.234 445.56 152.81C445.528 153.387 445.257 153.96 444.725 154.552L445.528 155.425L444.902 156.005L444.122 155.154C443.826 155.408 443.498 155.615 443.143 155.786C442.788 155.958 442.459 156.076 442.118 156.123L441.723 155.059C442.314 154.923 442.867 154.68 443.351 154.329L441.918 152.774C441.471 153.023 441.077 153.208 440.738 153.344C440.396 153.467 440.051 153.501 439.704 153.446C439.344 153.396 439.021 153.199 438.713 152.878C438.323 152.452 438.157 151.947 438.193 151.383ZM443.511 152.07C443.281 152.093 443.012 152.174 442.702 152.345L443.962 153.709C444.187 153.42 444.305 153.17 444.322 152.926C444.339 152.682 444.264 152.471 444.096 152.293C443.933 152.128 443.741 152.048 443.511 152.07ZM439.413 151.259C439.396 151.503 439.467 151.701 439.622 151.884C439.789 152.062 439.977 152.129 440.211 152.119C440.441 152.097 440.723 152.011 441.047 151.836L439.786 150.472C439.575 150.755 439.448 151.024 439.413 151.259Z" fill="#0FA64C"/>
<path d="M344.754 433.634L316.397 447.429L344.754 433.634Z" fill="#95B2EE"/>
<path d="M340.31 434.554L316.244 446.356L340.31 434.554Z" fill="#A7C3FF"/>
<path d="M427.373 431.794H247.728C240.37 431.794 234.392 437.772 234.392 445.13V467.049H440.709V445.13C440.862 437.772 434.731 431.794 427.373 431.794Z" fill="#1FBA66"/>
<path d="M437.488 443.229H432.584C431.817 443.229 431.357 443.842 431.357 444.455V461.01C431.357 461.776 431.97 462.236 432.584 462.236H437.488C438.255 462.236 438.715 461.623 438.715 461.01V444.609C438.715 443.842 438.101 443.229 437.488 443.229Z" fill="#03736D"/>
<path d="M436.569 444.149V461.317H446.993C448.679 461.317 450.059 459.937 450.059 458.251V447.368C450.059 445.682 448.679 444.302 446.993 444.302L436.569 444.149Z" fill="#03736D"/>
<path d="M432.89 444.149V461.317H443.313C444.999 461.317 446.379 459.937 446.379 458.251V447.368C446.379 445.682 444.999 444.302 443.313 444.302L432.89 444.149Z" fill="#EAFFF7"/>
<path d="M433.503 453.039L435.189 452.119V452.886H440.861L440.094 451.046C439.941 450.893 439.787 450.893 439.634 450.893C438.868 450.893 438.408 450.893 438.255 450.893C438.102 451.2 437.795 451.506 437.488 451.506C437.029 451.506 436.722 451.046 436.722 450.74C436.722 450.28 437.182 449.973 437.488 449.973C437.948 449.973 438.255 450.127 438.255 450.587H439.634C440.094 450.587 440.401 450.74 440.554 451.046L441.32 452.886C441.474 453.039 441.627 453.039 441.781 453.039H442.24C442.394 452.426 443.007 451.966 443.62 451.966C444.386 451.966 444.999 452.579 444.999 453.346C444.999 454.112 444.386 454.725 443.62 454.725C442.853 454.725 442.394 454.265 442.24 453.652H441.781H440.554C440.401 453.652 440.094 453.805 440.094 453.805L439.328 455.645C439.175 455.798 438.715 456.105 438.408 456.105H437.182V456.718H435.496V455.032H437.029V455.645C437.029 455.645 437.488 455.645 438.255 455.645C438.408 455.645 438.715 455.492 438.715 455.492L439.481 453.652H434.883V454.419L433.503 453.039Z" fill="#95B2EE"/>
<path d="M448.832 451.506C448.065 451.506 447.606 451.966 447.606 452.733C447.606 453.346 448.066 453.806 448.679 453.959H448.832L461.708 454.112C467.686 454.266 473.357 456.871 477.495 461.163L477.649 461.623C482.094 466.528 488.225 466.681 494.969 466.835H495.43H520.874C521.64 466.835 522.101 466.375 522.101 465.608C522.101 464.995 521.64 464.535 521.027 464.382H520.874H495.43C489.452 464.382 483.78 464.842 479.795 460.244L479.488 459.937C475.043 455.032 468.912 451.966 462.167 451.813H461.708L448.832 451.506Z" fill="#03736D"/>
<path d="M414.957 431.794H230.559C223.201 431.794 217.224 437.772 217.224 445.13V467.049H428.292V445.13C428.292 437.772 422.314 431.794 414.957 431.794Z" fill="#EAFFF7"/>
<path d="M312.871 449.268C312.871 450.495 314.098 451.568 315.171 451.568C316.397 451.568 317.47 450.341 317.47 449.268C317.47 448.042 316.243 446.969 315.171 446.969C314.098 446.969 312.871 448.195 312.871 449.268Z" fill="#03736D"/>
<path d="M322.528 449.268C322.528 450.495 323.754 451.568 324.827 451.568C326.053 451.568 327.126 450.341 327.126 449.268C327.126 448.042 325.9 446.969 324.827 446.969C323.754 446.969 322.528 448.195 322.528 449.268Z" fill="#A7FFDA"/>
<path d="M332.031 449.268C332.031 450.495 333.258 451.568 334.331 451.568C335.557 451.568 336.63 450.341 336.63 449.268C336.63 448.042 335.404 446.969 334.331 446.969C333.258 446.969 332.031 448.195 332.031 449.268Z" fill="#A7FFDA"/>
<path d="M237.458 409.721C237.458 418.305 243.283 425.05 250.334 425.05H418.484C425.688 425.05 431.359 418.458 431.359 409.721V80.166C431.359 71.5823 425.535 64.8379 418.484 64.8379H250.334C243.129 64.8379 237.458 71.429 237.458 80.166V409.721Z" fill="#1FBA66"/>
<path d="M227.956 409.721C227.956 418.305 233.781 425.05 240.832 425.05H408.981C416.185 425.05 421.857 418.458 421.857 409.721V80.166C421.857 71.5823 416.032 64.8379 408.981 64.8379H240.832C233.628 64.8379 227.956 71.429 227.956 80.166V409.721Z" fill="#03736D"/>
<path d="M403.156 72.6553H357.938C355.179 72.6553 353.186 74.8014 353.186 77.4072V79.8596C353.186 83.8449 349.968 87.0638 345.983 87.0638H302.757C298.772 87.0638 295.552 83.8449 295.552 79.8596V77.4072C295.552 74.6481 293.407 72.6553 290.801 72.6553H246.502C241.291 72.6553 236.999 76.9473 236.999 82.1588V401.138C236.999 406.349 241.291 410.641 246.502 410.641H403.156C408.368 410.641 412.66 406.349 412.66 401.138V82.1588C412.66 76.9473 408.521 72.6553 403.156 72.6553Z" fill="#EAFFF7"/>
<path d="M285.741 404.817H361.156C362.075 404.817 362.535 403.897 362.535 403.437C362.535 402.517 362.075 402.057 361.156 402.057H285.741C284.821 402.057 284.362 402.517 284.362 403.437C284.362 404.203 284.821 404.817 285.741 404.817Z" fill="#1FBA66"/>
<path d="M312.873 79.8595C312.873 80.7792 313.333 81.2391 314.253 81.2391H341.843C342.763 81.2391 343.223 80.3193 343.223 79.8595C343.223 78.9398 342.763 78.4799 341.843 78.4799H314.253C313.486 78.3266 312.873 78.7865 312.873 79.8595Z" fill="#1FBA66"/>
<path d="M301.07 79.8592C301.07 81.2387 302.45 82.7716 303.983 82.7716C305.362 82.7716 306.896 81.392 306.896 79.8592C306.896 78.4796 305.515 76.9468 303.983 76.9468C302.45 76.9468 301.07 78.3263 301.07 79.8592Z" fill="#1FBA66"/>
<path d="M522.633 79.8838L520.823 88.2702L529.148 81.3831L522.633 79.8838Z" fill="#E09D00"/>
<path d="M544.372 64.9999L530.11 84.2681L522.632 79.8839L520.822 88.2703L516.268 76.1334L510.344 72.6168L544.372 64.9999Z" fill="#FFBF29"/>
<path d="M544.372 64.9999L522.633 79.884L520.823 88.2704L516.268 76.1335L544.372 64.9999Z" fill="#F5AC00"/>
<path d="M86.819 57.2461L97.6564 64.4402L81.232 65.8363L86.819 57.2461Z" fill="#E09D00"/>
<path d="M47.0004 63.9826L83.1162 70.1307L86.8192 57.2461L97.6565 64.4402L89.7179 46.4217L92.5045 36.2369L47.0004 63.9826Z" fill="#FFBF29"/>
<path d="M47.0003 63.9828L86.819 57.2463L97.6564 64.4404L89.7178 46.4219L47.0003 63.9828Z" fill="#F5AC00"/>
<path d="M251.156 106.234H406.036C407.158 106.234 408.068 107.143 408.068 108.265V233.693C408.068 234.814 407.158 235.724 406.036 235.724H251.156C250.034 235.724 249.125 234.814 249.125 233.693V108.265C249.125 107.143 250.034 106.234 251.156 106.234Z" fill="#C4FFDF"/>
<path d="M244.555 99.6328H399.435C400.557 99.6328 401.466 100.542 401.466 101.664V227.092C401.466 228.213 400.557 229.123 399.435 229.123H244.555C243.433 229.123 242.523 228.213 242.523 227.092V101.664C242.523 100.542 243.433 99.6328 244.555 99.6328Z" fill="white" stroke="#03736D" stroke-width="1.01561"/>
<path d="M266.898 152.445H277.054C278.176 152.445 279.086 153.354 279.086 154.476V196.624C279.086 197.745 278.176 198.655 277.054 198.655H266.898C265.777 198.655 264.867 197.745 264.867 196.624V154.476C264.867 153.354 265.777 152.445 266.898 152.445Z" fill="#DFFFE4"/>
<path d="M292.287 152.445H302.443C303.565 152.445 304.474 153.354 304.474 154.476V196.624C304.474 197.745 303.565 198.655 302.443 198.655H292.287C291.165 198.655 290.256 197.745 290.256 196.624V154.476C290.256 153.354 291.165 152.445 292.287 152.445Z" fill="#DFFFE4"/>
<path d="M317.678 152.445H327.834C328.956 152.445 329.865 153.354 329.865 154.476V196.624C329.865 197.745 328.956 198.655 327.834 198.655H317.678C316.556 198.655 315.646 197.745 315.646 196.624V154.476C315.646 153.354 316.556 152.445 317.678 152.445Z" fill="#DFFFE4"/>
<path d="M343.068 152.445H353.224C354.346 152.445 355.256 153.354 355.256 154.476V196.624C355.256 197.745 354.346 198.655 353.224 198.655H343.068C341.947 198.655 341.037 197.745 341.037 196.624V154.476C341.037 153.354 341.947 152.445 343.068 152.445Z" fill="#DFFFE4"/>
<path d="M368.458 152.445H378.614C379.736 152.445 380.645 153.354 380.645 154.476V196.624C380.645 197.745 379.736 198.655 378.614 198.655H368.458C367.336 198.655 366.427 197.745 366.427 196.624V154.476C366.427 153.354 367.336 152.445 368.458 152.445Z" fill="#DFFFE4"/>
<path fill-rule="evenodd" clip-rule="evenodd" d="M298.891 113.344H379.124C380.245 113.344 381.155 114.253 381.155 115.375V115.883C381.155 117.005 380.245 117.914 379.124 117.914H298.891C297.769 117.914 296.859 117.005 296.859 115.883V115.375C296.859 114.253 297.769 113.344 298.891 113.344Z" fill="#03736D"/>
<path d="M298.891 127.054H338.499C339.621 127.054 340.531 127.964 340.531 129.085V129.593C340.531 130.715 339.621 131.624 338.499 131.624H298.891C297.769 131.624 296.859 130.715 296.859 129.593V129.085C296.859 127.964 297.769 127.054 298.891 127.054Z" fill="#DFFFE4"/>
<path d="M264.358 211.35H324.279C325.401 211.35 326.31 212.259 326.31 213.381V213.889C326.31 215.011 325.401 215.92 324.279 215.92H264.358C263.237 215.92 262.327 215.011 262.327 213.889V213.381C262.327 212.259 263.237 211.35 264.358 211.35Z" fill="#DFFFE4"/>
<path fill-rule="evenodd" clip-rule="evenodd" d="M263.344 112.328H287.211C288.332 112.328 289.242 113.238 289.242 114.359V138.226C289.242 139.348 288.332 140.257 287.211 140.257H263.344C262.222 140.257 261.312 139.348 261.312 138.226V114.359C261.312 113.238 262.222 112.328 263.344 112.328Z" fill="#03736D"/>
<path fill-rule="evenodd" clip-rule="evenodd" d="M321.997 180.661C322.809 180.823 323.654 180.686 324.373 180.274L349.259 160.936L374.271 159.511C375.832 159.105 376.768 157.511 376.362 155.95C375.957 154.389 374.362 153.453 372.802 153.859L347.477 155.365C347.183 155.442 346.9 155.557 346.636 155.708L322.255 174.757L298.178 169.942C297.156 169.737 296.096 170.009 295.299 170.68L270.095 191.894C268.862 192.932 268.703 194.774 269.742 196.008C270.78 197.242 272.622 197.4 273.856 196.362L298.171 175.896L321.997 180.661Z" fill="#03736D"/>
<path d="M131.54 55.7935C129.394 55.7935 127.707 57.6328 127.707 59.6255V96.4131C127.707 98.559 129.547 100.245 131.54 100.245H167.868L183.349 112.354V100.245H187.487C189.633 100.245 191.319 98.4057 191.319 96.4131V59.6255C191.319 57.4796 189.48 55.7935 187.487 55.7935H131.54Z" fill="#DEE9FF"/>
<path d="M177.677 73.5748H141.196C140.277 73.5748 139.357 72.8083 139.357 71.7353C139.357 70.8156 140.123 69.896 141.196 69.896H177.677C178.597 69.896 179.517 70.6623 179.517 71.7353C179.363 72.8083 178.597 73.5748 177.677 73.5748Z" fill="white"/>
<path d="M177.677 85.5304H153.152C152.232 85.5304 151.313 84.764 151.313 83.6911C151.313 82.7714 152.079 81.8516 153.152 81.8516H177.677C178.597 81.8516 179.517 82.6181 179.517 83.6911C179.363 84.764 178.597 85.5304 177.677 85.5304Z" fill="white"/>
<path d="M186.809 436.226H173.626L171.02 458.298H183.13L186.809 436.226Z" fill="#616988"/>
<path d="M184.815 466.882L175.925 467.495L175.005 464.736C168.567 467.188 162.896 468.568 157.684 468.874C152.473 469.334 148.181 468.261 144.655 465.962C144.809 464.123 146.341 462.437 148.181 462.283L157.531 461.21L170.56 451.094C172.093 453.853 174.392 455.232 177.457 454.926C180.37 454.619 182.975 454.006 184.815 452.473L185.581 463.203L184.815 466.882Z" fill="#1F1E1E"/>
<path d="M221.344 250.602L195.899 352.994C196.819 363.264 197.279 372.001 197.279 379.205C197.279 386.41 193.907 408.329 187.162 444.657H169.841L179.652 250.602C179.805 250.602 221.344 250.602 221.344 250.602Z" fill="#2E2B2B"/>
<path d="M247.951 436.226H234.615L237.988 458.298H250.097L247.951 436.226Z" fill="#616988"/>
<path d="M251.017 466.575L242.126 467.648L241.054 464.889C234.769 467.648 229.097 469.334 224.039 469.794C218.981 470.407 214.536 469.641 210.857 467.648C211.01 465.809 212.39 464.123 214.229 463.816L223.579 462.284L236.148 451.4C237.834 454.159 240.287 455.386 243.199 454.926C246.112 454.466 248.717 453.7 250.403 452.014L251.63 462.59L251.017 466.575Z" fill="#2E2C2C"/>
<path d="M239.853 250.862L242.612 349.575C245.984 360.458 247.67 369.655 247.67 376.86C247.67 384.064 248.283 406.749 249.356 444.916H235.101L198.927 250.862H239.853Z" fill="#454141"/>
<path d="M212.11 254.541L223.453 270.482L221.767 254.541H212.11Z" fill="#6B6B6B"/>
<path d="M221.46 253.468L232.956 353.101C235.102 361.378 236.789 369.962 238.015 379.159C239.241 388.356 240.927 410.275 243.38 445.223" stroke="#6B6B6B" stroke-width="0.849793"/>
<path d="M171.729 193.034L163.298 213.574L159.313 184.757C158.853 181.231 158.546 179.085 158.393 178.626C158.086 177.093 159.926 173.721 160.233 170.348V169.889C160.386 166.67 161.612 162.684 161.459 161.458C161.305 160.232 159.772 160.998 158.852 161.765C156.707 163.451 157.014 165.597 155.634 168.356C155.174 169.275 150.729 159.465 149.043 159.465C147.203 159.465 141.839 167.896 141.839 170.502C141.839 172.341 144.597 175.867 149.809 181.231L151.802 226.909C151.955 232.581 156.86 237.026 162.532 236.719C166.364 236.566 169.736 234.267 171.268 230.895L186.75 199.778L171.729 193.034Z" fill="#FFC4A7"/>
<path d="M161.276 143.165L131.846 137.187L131.539 163.398L161.123 158.493L161.276 143.165Z" fill="#FF5D8E"/>
<path d="M156.83 157.267L151.465 171.829C151.005 172.749 149.933 173.362 148.86 173.055C148.707 172.902 148.4 172.902 148.4 172.748C147.173 171.829 146.561 169.989 147.174 168.457L150.852 158.34L156.83 157.267Z" fill="#FF326F"/>
<path d="M162.503 141.019H160.357C158.517 141.019 157.138 142.399 156.984 144.238L156.831 157.42C156.831 159.259 158.211 160.639 160.05 160.792H162.196C164.035 160.792 165.415 159.413 165.568 157.573L165.722 144.391C165.722 142.552 164.342 141.019 162.503 141.019Z" fill="#FF326F"/>
<path d="M130.62 145.924L124.948 146.69C124.489 146.844 124.029 147.15 124.029 147.763L123.875 152.515C123.875 152.975 124.335 153.435 124.795 153.588L130.467 154.508L130.62 145.924Z" fill="#FF5D8E"/>
<path d="M133.073 131.822H130.927C129.088 131.822 127.709 133.202 127.555 135.041L127.095 164.624C127.095 166.464 128.475 167.843 130.314 167.997H132.46C134.299 167.997 135.679 166.617 135.832 164.778L136.445 135.194C136.292 133.202 134.912 131.822 133.073 131.822Z" fill="#FF326F"/>
<path d="M191.656 168.356L193.495 169.276C198.247 171.575 200.239 177.4 197.94 181.998C197.94 181.998 197.94 181.998 197.94 182.151L173.722 230.741C170.809 236.719 163.452 239.172 157.474 236.26C153.948 234.574 151.649 231.355 150.883 227.523L149.963 221.698L162.532 205.144L164.065 207.903L178.627 173.261C180.773 168.356 186.291 166.057 191.196 168.203C191.349 168.356 191.503 168.356 191.656 168.356Z" fill="#E3E9FF"/>
<path d="M231.213 166.646L208.68 163.887L191.972 166.646C188.294 167.26 185.535 170.172 185.228 173.851L178.483 252.791H238.263V174.617C238.416 170.632 235.351 167.106 231.213 166.646Z" fill="#E3E9FF"/>
<path d="M207.302 183.507C204.083 189.945 200.864 196.69 197.338 204.047C195.192 191.785 194.119 183.354 194.119 178.756C194.119 174.924 194.579 170.478 195.345 165.573L187.528 166.646C183.696 167.106 180.784 170.478 180.631 174.31L177.258 256.623H240.87V174.924C240.87 170.785 237.804 167.413 233.666 166.8L218.185 165.114C213.74 171.858 210.061 177.989 207.302 183.507Z" fill="#544F4F"/>
<path d="M228.454 189.332L240.87 232.098V206.96L228.454 189.332Z" fill="#080708" fill-opacity="0.3402"/>
<path d="M191.159 217.202L177.043 220.829C175.875 221.234 174.867 222.388 175.154 223.738L180.285 247.877C180.571 249.226 181.844 250.053 183.194 249.766L183.344 249.734L197.46 246.107C198.627 245.702 199.636 244.547 199.349 243.198L194.218 219.059C193.931 217.709 192.658 216.883 191.159 217.202Z" fill="#1075F0"/>
<path d="M189.382 216.953L174.976 221.425L164.675 222.361C163.294 222.498 162.286 223.652 162.423 225.034C162.455 225.183 162.455 225.183 162.487 225.333L167.586 249.322C167.841 250.522 168.963 251.38 170.195 251.275L180.827 250.426L195.683 245.858C196.851 245.453 197.527 244.212 197.272 243.012L192.173 219.023C192.154 217.46 190.882 216.634 189.382 216.953Z" fill="#467FFF"/>
<path d="M188.44 223.578L181.522 225.675C180.804 225.985 180.182 226.744 180.341 227.493L181.01 230.642C181.201 231.542 182.079 231.982 182.828 231.823L182.978 231.791L189.897 229.693C190.615 229.384 191.237 228.625 191.078 227.875L190.409 224.727C190.217 223.827 189.34 223.387 188.591 223.546C188.591 223.546 188.59 223.546 188.44 223.578Z" fill="#EAEFFF"/>
<path d="M175.125 221.393L174.376 221.553C173.926 221.648 173.722 222.162 173.785 222.462L179.586 249.749C179.681 250.199 180.195 250.403 180.495 250.34L181.244 250.18C181.694 250.085 181.898 249.571 181.835 249.271L176.034 221.984C175.939 221.534 175.575 221.298 175.125 221.393Z" fill="#EAEFFF"/>
<path d="M174.375 221.553L173.626 221.712C173.176 221.808 172.972 222.321 173.035 222.621L178.836 249.909C178.931 250.358 179.445 250.563 179.745 250.499L180.494 250.34C180.944 250.244 181.148 249.73 181.085 249.431L175.284 222.143C175.189 221.693 174.825 221.457 174.375 221.553Z" fill="#1075F0"/>
<path d="M240.676 204.529L248.493 219.091C228.107 226.908 214.618 231.813 208.027 233.653C204.655 234.572 200.209 225.988 195.304 227.215C193.465 227.675 200.976 234.572 197.297 235.339C189.174 236.718 183.042 238.098 182.429 239.784C181.662 241.93 190.553 246.988 194.538 247.601C196.684 247.908 202.968 245.762 210.633 243.616C215.384 242.39 229.946 239.017 254.318 233.806C261.522 232.273 266.121 225.222 264.434 218.018C264.281 216.945 263.821 215.872 263.361 214.799L254.164 196.558L240.676 204.529Z" fill="#FFC4A7"/>
<path d="M229.027 168.202L227.188 169.275C222.743 172.034 221.21 177.859 223.969 182.304L244.815 217.558L241.289 220.164L251.099 238.098L261.982 232.12C267.041 229.361 268.88 222.923 266.427 217.865L242.669 171.88C240.216 167.129 234.545 165.289 229.793 167.742C229.487 168.049 229.333 168.048 229.027 168.202Z" fill="#E3E9FF"/>
<path d="M205.726 173.362C202.201 173.362 199.289 170.449 199.289 166.924C199.289 166.771 199.289 166.464 199.289 166.158L199.902 160.486C194.077 160.946 190.398 159.72 188.406 156.961C186.413 154.202 185.646 144.392 185.953 127.377H213.084C213.084 133.509 213.084 137.034 213.084 138.26C221.361 138.26 221.361 148.224 213.084 148.224C213.084 154.048 213.084 160.026 213.084 166.004C213.084 170.143 209.865 173.362 205.726 173.362Z" fill="#FFC4A7"/>
<path d="M200.361 157.267C202.047 157.114 203.58 156.654 204.806 156.348C206.032 156.041 207.566 155.428 209.252 154.508C206.953 156.654 205.266 158.34 204.04 159.26C202.814 160.179 201.434 161.099 199.748 162.019L200.361 157.267Z" fill="#F19B93"/>
<path d="M197.578 150.911L190.987 149.838C190.834 149.838 190.834 149.838 190.68 149.838L187.002 150.758C186.849 150.758 186.695 150.911 186.695 151.218L186.848 151.984C187.002 152.444 187.308 152.75 187.615 152.597C188.841 152.444 189.914 152.137 190.834 151.371C192.367 152.291 194.666 152.597 197.272 152.597L197.578 150.911Z" fill="#0A2650"/>
<path d="M209.687 137.423L209.227 143.86C208.921 148.152 205.395 151.371 201.104 151.065L197.424 150.911L194.665 157.196C194.512 157.502 194.206 157.656 193.899 157.656H189.454C189.147 157.656 188.841 157.502 188.688 157.196L186.848 151.371H186.542L187.614 159.955C187.768 161.794 189.454 163.174 191.14 163.174H193.439C194.053 163.174 194.512 163.021 194.972 162.867L206.621 157.809C208.46 157.043 209.687 155.356 209.84 153.364L211.526 136.196L209.687 137.423Z" fill="#0A2650"/>
<path d="M191.625 140.56V147.764H187.486C187.333 147.764 187.027 147.611 187.027 147.304V147.151C187.793 145.158 188.559 143.779 189.172 142.859C190.245 141.939 191.012 141.173 191.625 140.56Z" fill="#F19B93"/>
<path d="M220.441 129.063C220.441 127.991 208.485 118.487 202.661 117.874C197.909 117.414 191.318 121.399 188.406 121.399C185.953 121.399 183.807 120.633 181.968 118.947C179.209 124.159 178.596 127.837 179.975 129.983C182.121 133.049 186.413 135.501 189.785 134.735C193.311 133.815 199.135 131.056 202.661 131.056C207.106 131.056 209.559 133.509 209.865 138.414C210.785 138.414 212.011 138.414 213.237 138.414C214.77 138.414 216.15 138.874 217.683 139.64C219.369 133.355 220.441 129.83 220.441 129.063Z" fill="#0A2650"/>
<path d="M116.524 197.421L98.4678 205.103L115.482 245.095L133.538 237.413L116.524 197.421Z" fill="white"/>
<path d="M115.283 245.6L98 204.955L116.698 197L133.981 237.644L115.283 245.6ZM98.9104 205.333L115.647 244.689L133.056 237.28L116.319 197.924L98.9104 205.333Z" fill="#0FA64C"/>
<path d="M115.842 198.96L100.028 205.688L116.149 243.579L131.963 236.851L115.842 198.96Z" fill="#0FA64C"/>
<path d="M128.854 232.602L116.782 204.213C116.768 204.213 116.768 204.227 116.754 204.227C114.625 205.137 112.16 204.143 111.249 202.014L105.311 204.535C106.207 206.65 105.241 209.101 103.126 210.025L115.199 238.415C117.314 237.532 119.737 238.513 120.647 240.614L126.641 238.065C125.773 235.95 126.754 233.513 128.854 232.602Z" fill="white"/>
<path d="M118.092 226.188C121.388 224.786 123.117 221.434 121.954 218.7C120.791 215.967 117.177 214.888 113.881 216.29C110.586 217.692 108.857 221.045 110.02 223.778C111.182 226.511 114.797 227.59 118.092 226.188Z" fill="white"/>
<path d="M115.127 227.168C112.718 227.168 110.548 225.992 109.679 223.933C108.447 221.034 110.253 217.462 113.727 215.992C117.186 214.521 121.024 215.683 122.256 218.583C123.489 221.482 121.682 225.053 118.209 226.524C117.186 226.972 116.136 227.168 115.127 227.168ZM116.808 216.062C115.898 216.062 114.931 216.244 113.993 216.65C110.884 217.98 109.231 221.118 110.323 223.667C111.402 226.216 114.819 227.21 117.928 225.894C121.038 224.563 122.69 221.426 121.598 218.877C120.856 217.084 118.951 216.062 116.808 216.062Z" fill="#0FA64C"/>
<path d="M112.359 212.713C113.327 212.302 113.778 211.183 113.367 210.215C112.955 209.247 111.836 208.796 110.868 209.208C109.9 209.62 109.449 210.738 109.861 211.706C110.273 212.674 111.391 213.125 112.359 212.713Z" fill="white"/>
<path d="M111.598 213.261C110.716 213.261 109.889 212.742 109.525 211.888C109.035 210.74 109.567 209.409 110.716 208.933C111.864 208.443 113.195 208.975 113.671 210.123C114.161 211.272 113.629 212.602 112.48 213.078C112.2 213.191 111.892 213.261 111.598 213.261ZM111.598 209.437C111.402 209.437 111.192 209.479 110.996 209.563C110.211 209.899 109.833 210.81 110.169 211.608C110.505 212.392 111.416 212.77 112.214 212.434C112.998 212.098 113.377 211.188 113.041 210.389C112.774 209.801 112.2 209.437 111.598 209.437Z" fill="#0FA64C"/>
<path d="M121.132 233.327C122.1 232.915 122.551 231.796 122.139 230.828C121.727 229.86 120.609 229.41 119.64 229.821C118.672 230.233 118.222 231.352 118.633 232.32C119.045 233.288 120.164 233.739 121.132 233.327Z" fill="white"/>
<path d="M120.372 233.864C120.092 233.864 119.798 233.808 119.532 233.696C118.972 233.472 118.538 233.037 118.3 232.491C118.061 231.931 118.061 231.329 118.285 230.769C118.51 230.208 118.944 229.774 119.49 229.536C120.05 229.298 120.652 229.298 121.213 229.522C121.773 229.746 122.207 230.18 122.445 230.727C122.683 231.273 122.683 231.889 122.459 232.449C122.235 233.009 121.801 233.444 121.255 233.682C120.975 233.794 120.666 233.864 120.372 233.864ZM120.372 230.04C120.162 230.04 119.952 230.082 119.77 230.166C119.392 230.334 119.098 230.629 118.93 231.021C118.776 231.413 118.776 231.833 118.944 232.211C119.112 232.589 119.406 232.883 119.798 233.051C120.19 233.206 120.61 233.206 120.989 233.037C121.367 232.869 121.661 232.575 121.829 232.183C121.983 231.791 121.983 231.371 121.815 230.993C121.647 230.615 121.353 230.32 120.961 230.152C120.765 230.082 120.568 230.04 120.372 230.04Z" fill="#0FA64C"/>
<path d="M114.036 224.577C113.518 224.353 113.056 223.891 112.664 223.191L111.585 223.653L111.249 222.868L112.313 222.42C112.145 221.93 112.033 221.44 112.005 220.964C111.963 220.473 112.005 220.067 112.117 219.717L113.28 219.731C113.182 220.053 113.154 220.403 113.168 220.81C113.182 221.202 113.252 221.594 113.378 221.972L115.297 221.16C115.213 220.655 115.171 220.221 115.171 219.871C115.171 219.507 115.255 219.171 115.423 218.863C115.591 218.555 115.885 218.303 116.291 218.12C116.809 217.896 117.328 217.896 117.86 218.12C118.392 218.345 118.84 218.793 119.218 219.493L120.311 219.031L120.647 219.815L119.582 220.263C119.722 220.627 119.806 221.006 119.848 221.398C119.891 221.79 119.891 222.14 119.821 222.476L118.686 222.49C118.756 221.888 118.714 221.286 118.546 220.712L116.599 221.538C116.683 222.042 116.725 222.476 116.739 222.84C116.739 223.205 116.655 223.541 116.487 223.849C116.319 224.171 116.025 224.409 115.619 224.591C115.087 224.815 114.554 224.801 114.036 224.577ZM116.473 219.801C116.417 220.025 116.403 220.305 116.459 220.655L118.168 219.927C117.972 219.619 117.776 219.423 117.552 219.325C117.327 219.227 117.103 219.227 116.879 219.325C116.669 219.423 116.529 219.577 116.473 219.801ZM114.33 223.387C114.554 223.485 114.764 223.485 114.989 223.401C115.213 223.303 115.339 223.148 115.409 222.924C115.465 222.7 115.479 222.406 115.423 222.042L113.714 222.77C113.91 223.064 114.12 223.275 114.33 223.387Z" fill="#0FA64C"/>
<path d="M181.363 20.104C189.951 18.5023 198.496 17.3184 206.999 16.5524C215.817 15.7579 224.681 15.4047 233.589 15.4926C234.721 15.5038 235.632 16.4244 235.632 17.5562V62.1303C235.632 63.1982 234.818 64.0898 233.754 64.1856L182.552 68.7984C181.417 68.9006 180.414 68.0633 180.312 66.9282C180.271 66.4733 180.382 66.0177 180.627 65.6327L193.489 45.4827C193.705 45.1442 193.705 44.711 193.489 44.3724L180.002 23.243C179.389 22.2823 179.671 21.0064 180.631 20.3932C180.854 20.2507 181.103 20.1525 181.363 20.104Z" fill="#A1F2DA"/>
<path d="M233.568 15.5205C234.708 15.5205 235.631 16.4444 235.631 17.5842V61.9527C235.631 62.5136 235.408 63.0223 235.044 63.3943L234.772 63.4217L225.404 52.7439L224.977 15.5205H233.568Z" fill="#91A0DA"/>
<path d="M480.275 20.1033C471.729 18.5062 463.184 17.3227 454.638 16.5528C445.774 15.7543 436.911 15.4007 428.047 15.4921C426.916 15.5037 426.005 16.4242 426.005 17.5556V62.1307C426.005 63.1987 426.819 64.0902 427.883 64.1861L479.085 68.7988C480.22 68.9011 481.223 68.0638 481.325 66.9287C481.366 66.4738 481.255 66.0182 481.01 65.6332L468.148 45.4832C467.932 45.1447 467.932 44.7115 468.148 44.3729L481.636 23.2422C482.249 22.2815 481.967 21.0056 481.006 20.3924C480.783 20.2501 480.535 20.1519 480.275 20.1033Z" fill="#A1F2DA"/>
<path d="M428.068 15.5205C426.928 15.5205 426.004 16.4444 426.004 17.5842V61.9527C426.004 62.5136 426.228 63.0223 426.591 63.3943L426.863 63.4217L436.232 52.7439L436.659 15.5205H428.068Z" fill="#91A0DA"/>
<path d="M226.664 4.979C261.382 1.65967 296.099 0 330.817 0C365.535 0 400.252 1.65967 434.97 4.979C436.029 5.08023 436.837 5.96964 436.837 7.03329V51.383C436.837 52.5228 435.913 53.4467 434.773 53.4467C434.708 53.4467 434.643 53.4436 434.578 53.4374C399.991 50.143 365.404 48.4958 330.817 48.4958C296.23 48.4958 261.643 50.143 227.056 53.4374C225.922 53.5455 224.914 52.7133 224.806 51.5787C224.8 51.5137 224.797 51.4484 224.797 51.3831V7.03329C224.797 5.96965 225.605 5.08024 226.664 4.979Z" fill="#C4FFED"/>
<path d="M277.641 17.8455C277.484 18.0972 277.319 18.2861 277.146 18.4119C276.973 18.5378 276.75 18.6008 276.477 18.6008C276.236 18.6008 275.976 18.5247 275.698 18.3726L274.96 17.9723C274.893 17.936 274.824 17.899 274.754 17.8612C274.402 17.6724 274.001 17.5019 273.55 17.3498C273.099 17.1977 272.585 17.1216 272.008 17.1216C271.012 17.1216 270.269 17.3341 269.782 17.7589C269.294 18.1838 269.05 18.7581 269.05 19.4819C269.05 19.9435 269.197 20.3264 269.49 20.6306C269.784 20.9348 270.17 21.1971 270.647 21.4174C271.056 21.6062 271.515 21.7815 272.025 21.9434L272.283 22.0232C272.897 22.2068 273.524 22.4113 274.164 22.6369C274.804 22.8624 275.431 23.1273 276.044 23.4315C276.658 23.7357 277.203 24.1239 277.681 24.5959C278.158 25.068 278.543 25.6423 278.837 26.3189C279.131 26.9956 279.278 27.8112 279.278 28.7658C279.278 29.8253 279.094 30.8166 278.727 31.7398C278.36 32.6629 277.828 33.468 277.13 34.1551C276.432 34.8423 275.572 35.3825 274.549 35.7759C273.527 36.1693 272.365 36.366 271.064 36.366C270.351 36.366 269.624 36.2925 268.885 36.1457C268.145 35.9988 267.429 35.7916 266.737 35.5241C266.044 35.2566 265.394 34.9393 264.786 34.5721C264.177 34.205 263.647 33.7959 263.196 33.3448L264.77 30.8586C264.885 30.6698 265.048 30.5177 265.258 30.4023C265.467 30.2869 265.693 30.2292 265.934 30.2292C266.249 30.2292 266.566 30.3288 266.886 30.5282L267.22 30.7345C267.452 30.8767 267.703 31.0282 267.972 31.189C268.376 31.4303 268.84 31.6506 269.365 31.8499C269.889 32.0492 270.508 32.1489 271.221 32.1489C272.186 32.1489 272.936 31.9365 273.471 31.5116C274.006 31.0868 274.274 30.4128 274.274 29.4896C274.274 28.9546 274.127 28.5193 273.833 28.1836C273.54 27.8479 273.154 27.5699 272.677 27.3496C272.2 27.1293 271.657 26.9352 271.048 26.7674C270.44 26.5996 269.816 26.4134 269.176 26.2088C268.536 26.0042 267.912 25.7525 267.303 25.4535C266.695 25.1545 266.152 24.7612 265.675 24.2734C265.197 23.7856 264.812 23.1771 264.518 22.4481C264.224 21.719 264.077 20.8194 264.077 19.7494C264.077 18.8892 264.251 18.05 264.597 17.2318C264.943 16.4135 265.452 15.6845 266.123 15.0446C266.794 14.4047 267.618 13.8933 268.594 13.5104C269.569 13.1275 270.686 12.936 271.945 12.936C272.648 12.936 273.332 12.9911 273.999 13.1013C274.665 13.2114 275.297 13.374 275.895 13.5891C276.493 13.8041 277.051 14.0611 277.571 14.3601C278.09 14.6591 278.554 14.9974 278.963 15.375L277.641 17.8455ZM291.772 31.9129C292.485 31.9129 293.122 31.7948 293.684 31.5588C294.245 31.3228 294.719 30.9845 295.108 30.5439C295.496 30.1033 295.792 29.5657 295.997 28.931C296.201 28.2964 296.303 27.5752 296.303 26.7674V13.1878H301.622V26.7674C301.622 28.1731 301.394 29.4634 300.938 30.6383C300.481 31.8132 299.828 32.8255 298.978 33.6752C298.129 34.5249 297.095 35.1858 295.879 35.6579C294.662 36.1299 293.293 36.366 291.772 36.366C290.24 36.366 288.866 36.1299 287.649 35.6579C286.432 35.1858 285.399 34.5249 284.549 33.6752C283.699 32.8255 283.049 31.8132 282.598 30.6383C282.147 29.4634 281.921 28.1731 281.921 26.7674V13.1878H287.24V26.7517C287.24 27.5594 287.342 28.2806 287.547 28.9153C287.751 29.5499 288.048 30.0902 288.436 30.536C288.824 30.9819 289.299 31.3228 289.86 31.5588C290.421 31.7948 291.058 31.9129 291.772 31.9129ZM320.803 30.182C320.929 30.182 321.055 30.2056 321.181 30.2528C321.307 30.3 321.428 30.3813 321.543 30.4967L323.651 32.7154C322.728 33.9217 321.572 34.8318 320.182 35.4454C318.792 36.0591 317.148 36.366 315.249 36.366C313.507 36.366 311.947 36.0696 310.568 35.4769C309.188 34.8842 308.018 34.066 307.059 33.0222C306.099 31.9784 305.362 30.7406 304.848 29.3087C304.334 27.8767 304.077 26.3216 304.077 24.6431C304.077 22.9332 304.37 21.3623 304.958 19.9304C305.545 18.4985 306.366 17.2633 307.42 16.2247C308.475 15.1862 309.736 14.3784 311.205 13.8015C312.673 13.2245 314.294 12.936 316.067 12.936C316.927 12.936 317.738 13.0121 318.498 13.1642C319.259 13.3163 319.969 13.5261 320.63 13.7936C321.291 14.0611 321.9 14.3811 322.456 14.7535C323.012 15.1259 323.505 15.5376 323.935 15.9887L322.141 18.3962C322.026 18.5431 321.889 18.6768 321.732 18.7975C321.574 18.9181 321.354 18.9784 321.071 18.9784C320.882 18.9784 320.704 18.9364 320.536 18.8525C320.41 18.7896 320.278 18.7163 320.141 18.6327L319.379 18.1523C319.154 18.0107 318.886 17.8796 318.577 17.7589C318.267 17.6383 317.905 17.536 317.491 17.4521C317.077 17.3682 316.592 17.3262 316.036 17.3262C315.07 17.3262 314.189 17.4967 313.392 17.8376C312.595 18.1785 311.91 18.6663 311.339 19.301C310.767 19.9356 310.321 20.704 310.001 21.6062C309.681 22.5084 309.521 23.5207 309.521 24.6431C309.521 25.818 309.681 26.8618 310.001 27.7745C310.321 28.6871 310.756 29.4555 311.307 30.0797C311.858 30.7039 312.5 31.1785 313.235 31.5037C313.969 31.8289 314.756 31.9915 315.595 31.9915C316.078 31.9915 316.518 31.9679 316.917 31.9207C317.315 31.8735 317.685 31.7922 318.026 31.6768C318.367 31.5614 318.692 31.412 319.002 31.2284C319.311 31.0448 319.623 30.8166 319.938 30.5439C320.064 30.439 320.2 30.3524 320.347 30.2843C320.494 30.2161 320.646 30.182 320.803 30.182ZM341.794 30.182C341.92 30.182 342.046 30.2056 342.172 30.2528C342.298 30.3 342.419 30.3813 342.534 30.4967L344.642 32.7154C343.719 33.9217 342.563 34.8318 341.173 35.4454C339.783 36.0591 338.139 36.366 336.24 36.366C334.498 36.366 332.938 36.0696 331.559 35.4769C330.179 34.8842 329.009 34.066 328.05 33.0222C327.09 31.9784 326.353 30.7406 325.839 29.3087C325.325 27.8767 325.068 26.3216 325.068 24.6431C325.068 22.9332 325.361 21.3623 325.949 19.9304C326.536 18.4985 327.357 17.2633 328.411 16.2247C329.466 15.1862 330.727 14.3784 332.196 13.8015C333.664 13.2245 335.285 12.936 337.058 12.936C337.918 12.936 338.729 13.0121 339.489 13.1642C340.25 13.3163 340.96 13.5261 341.621 13.7936C342.282 14.0611 342.891 14.3811 343.447 14.7535C344.003 15.1259 344.496 15.5376 344.926 15.9887L343.132 18.3962C343.016 18.5431 342.88 18.6768 342.723 18.7975C342.565 18.9181 342.345 18.9784 342.062 18.9784C341.873 18.9784 341.695 18.9364 341.527 18.8525C341.401 18.7896 341.269 18.7163 341.131 18.6327L340.37 18.1523C340.145 18.0107 339.877 17.8796 339.568 17.7589C339.258 17.6383 338.896 17.536 338.482 17.4521C338.068 17.3682 337.583 17.3262 337.027 17.3262C336.061 17.3262 335.18 17.4967 334.383 17.8376C333.586 18.1785 332.901 18.6663 332.33 19.301C331.758 19.9356 331.312 20.704 330.992 21.6062C330.672 22.5084 330.512 23.5207 330.512 24.6431C330.512 25.818 330.672 26.8618 330.992 27.7745C331.312 28.6871 331.747 29.4555 332.298 30.0797C332.849 30.7039 333.491 31.1785 334.226 31.5037C334.96 31.8289 335.747 31.9915 336.586 31.9915C337.068 31.9915 337.509 31.9679 337.908 31.9207C338.306 31.8735 338.676 31.7922 339.017 31.6768C339.358 31.5614 339.683 31.412 339.993 31.2284C340.302 31.0448 340.614 30.8166 340.929 30.5439C341.055 30.439 341.191 30.3524 341.338 30.2843C341.485 30.2161 341.637 30.182 341.794 30.182ZM362.14 13.1878V17.279H352.73V22.629H359.937V26.5628H352.73V32.023H362.14V36.1142H347.38V13.1878H362.14ZM378.253 17.8455C378.096 18.0972 377.931 18.2861 377.757 18.4119C377.584 18.5378 377.361 18.6008 377.089 18.6008C376.847 18.6008 376.588 18.5247 376.31 18.3726L375.572 17.9723C375.505 17.936 375.436 17.899 375.366 17.8612C375.014 17.6724 374.613 17.5019 374.162 17.3498C373.711 17.1977 373.197 17.1216 372.62 17.1216C371.623 17.1216 370.881 17.3341 370.393 17.7589C369.906 18.1838 369.662 18.7581 369.662 19.4819C369.662 19.9435 369.809 20.3264 370.102 20.6306C370.396 20.9348 370.781 21.1971 371.259 21.4174C371.668 21.6062 372.127 21.7815 372.636 21.9434L372.895 22.0232C373.509 22.2068 374.136 22.4113 374.776 22.6369C375.416 22.8624 376.042 23.1273 376.656 23.4315C377.27 23.7357 377.815 24.1239 378.292 24.5959C378.77 25.068 379.155 25.6423 379.449 26.3189C379.743 26.9956 379.89 27.8112 379.89 28.7658C379.89 29.8253 379.706 30.8166 379.339 31.7398C378.972 32.6629 378.439 33.468 377.742 34.1551C377.044 34.8423 376.184 35.3825 375.161 35.7759C374.138 36.1693 372.977 36.366 371.676 36.366C370.962 36.366 370.236 36.2925 369.496 36.1457C368.757 35.9988 368.041 35.7916 367.349 35.5241C366.656 35.2566 366.006 34.9393 365.397 34.5721C364.789 34.205 364.259 33.7959 363.808 33.3448L365.382 30.8586C365.497 30.6698 365.66 30.5177 365.869 30.4023C366.079 30.2869 366.305 30.2292 366.546 30.2292C366.861 30.2292 367.178 30.3288 367.498 30.5282L367.832 30.7345C368.064 30.8767 368.315 31.0282 368.584 31.189C368.988 31.4303 369.452 31.6506 369.976 31.8499C370.501 32.0492 371.12 32.1489 371.833 32.1489C372.798 32.1489 373.548 31.9365 374.083 31.5116C374.618 31.0868 374.886 30.4128 374.886 29.4896C374.886 28.9546 374.739 28.5193 374.445 28.1836C374.151 27.8479 373.766 27.5699 373.289 27.3496C372.811 27.1293 372.268 26.9352 371.66 26.7674C371.052 26.5996 370.427 26.4134 369.788 26.2088C369.148 26.0042 368.523 25.7525 367.915 25.4535C367.307 25.1545 366.764 24.7612 366.286 24.2734C365.809 23.7856 365.424 23.1771 365.13 22.4481C364.836 21.719 364.689 20.8194 364.689 19.7494C364.689 18.8892 364.862 18.05 365.209 17.2318C365.555 16.4135 366.063 15.6845 366.735 15.0446C367.406 14.4047 368.23 13.8933 369.205 13.5104C370.181 13.1275 371.298 12.936 372.557 12.936C373.26 12.936 373.944 12.9911 374.61 13.1013C375.277 13.2114 375.909 13.374 376.507 13.5891C377.104 13.8041 377.663 14.0611 378.182 14.3601C378.702 14.6591 379.166 14.9974 379.575 15.375L378.253 17.8455ZM395.625 17.8455C395.468 18.0972 395.302 18.2861 395.129 18.4119C394.956 18.5378 394.733 18.6008 394.461 18.6008C394.219 18.6008 393.96 18.5247 393.682 18.3726L392.944 17.9723C392.877 17.936 392.808 17.899 392.738 17.8612C392.386 17.6724 391.985 17.5019 391.534 17.3498C391.083 17.1977 390.569 17.1216 389.992 17.1216C388.995 17.1216 388.253 17.3341 387.765 17.7589C387.277 18.1838 387.033 18.7581 387.033 19.4819C387.033 19.9435 387.18 20.3264 387.474 20.6306C387.768 20.9348 388.153 21.1971 388.631 21.4174C389.04 21.6062 389.499 21.7815 390.008 21.9434L390.267 22.0232C390.881 22.2068 391.508 22.4113 392.147 22.6369C392.787 22.8624 393.414 23.1273 394.028 23.4315C394.642 23.7357 395.187 24.1239 395.664 24.5959C396.142 25.068 396.527 25.6423 396.821 26.3189C397.115 26.9956 397.261 27.8112 397.261 28.7658C397.261 29.8253 397.078 30.8166 396.711 31.7398C396.344 32.6629 395.811 33.468 395.114 34.1551C394.416 34.8423 393.556 35.3825 392.533 35.7759C391.51 36.1693 390.348 36.366 389.048 36.366C388.334 36.366 387.608 36.2925 386.868 36.1457C386.129 35.9988 385.413 35.7916 384.72 35.5241C384.028 35.2566 383.378 34.9393 382.769 34.5721C382.161 34.205 381.631 33.7959 381.18 33.3448L382.753 30.8586C382.869 30.6698 383.031 30.5177 383.241 30.4023C383.451 30.2869 383.677 30.2292 383.918 30.2292C384.233 30.2292 384.55 30.3288 384.87 30.5282L385.204 30.7345C385.436 30.8767 385.686 31.0282 385.956 31.189C386.359 31.4303 386.824 31.6506 387.348 31.8499C387.873 32.0492 388.492 32.1489 389.205 32.1489C390.17 32.1489 390.92 31.9365 391.455 31.5116C391.99 31.0868 392.258 30.4128 392.258 29.4896C392.258 28.9546 392.111 28.5193 391.817 28.1836C391.523 27.8479 391.138 27.5699 390.66 27.3496C390.183 27.1293 389.64 26.9352 389.032 26.7674C388.423 26.5996 387.799 26.4134 387.159 26.2088C386.519 26.0042 385.895 25.7525 385.287 25.4535C384.678 25.1545 384.136 24.7612 383.658 24.2734C383.181 23.7856 382.795 23.1771 382.502 22.4481C382.208 21.719 382.061 20.8194 382.061 19.7494C382.061 18.8892 382.234 18.05 382.58 17.2318C382.927 16.4135 383.435 15.6845 384.107 15.0446C384.778 14.4047 385.602 13.8933 386.577 13.5104C387.553 13.1275 388.67 12.936 389.929 12.936C390.632 12.936 391.316 12.9911 391.982 13.1013C392.648 13.2114 393.28 13.374 393.878 13.5891C394.476 13.8041 395.035 14.0611 395.554 14.3601C396.073 14.6591 396.538 14.9974 396.947 15.375L395.625 17.8455Z" fill="#182160"/>
<path d="M277.641 17.8455C277.484 18.0972 277.319 18.2861 277.146 18.4119C276.973 18.5378 276.75 18.6008 276.477 18.6008C276.236 18.6008 275.976 18.5247 275.698 18.3726L274.96 17.9723C274.893 17.936 274.824 17.899 274.754 17.8612C274.402 17.6724 274.001 17.5019 273.55 17.3498C273.099 17.1977 272.585 17.1216 272.008 17.1216C271.012 17.1216 270.269 17.3341 269.782 17.7589C269.294 18.1838 269.05 18.7581 269.05 19.4819C269.05 19.9435 269.197 20.3264 269.49 20.6306C269.784 20.9348 270.17 21.1971 270.647 21.4174C271.056 21.6062 271.515 21.7815 272.025 21.9434L272.283 22.0232C272.897 22.2068 273.524 22.4113 274.164 22.6369C274.804 22.8624 275.431 23.1273 276.044 23.4315C276.658 23.7357 277.203 24.1239 277.681 24.5959C278.158 25.068 278.543 25.6423 278.837 26.3189C279.131 26.9956 279.278 27.8112 279.278 28.7658C279.278 29.8253 279.094 30.8166 278.727 31.7398C278.36 32.6629 277.828 33.468 277.13 34.1551C276.432 34.8423 275.572 35.3825 274.549 35.7759C273.527 36.1693 272.365 36.366 271.064 36.366C270.351 36.366 269.624 36.2925 268.885 36.1457C268.145 35.9988 267.429 35.7916 266.737 35.5241C266.044 35.2566 265.394 34.9393 264.786 34.5721C264.177 34.205 263.647 33.7959 263.196 33.3448L264.77 30.8586C264.885 30.6698 265.048 30.5177 265.258 30.4023C265.467 30.2869 265.693 30.2292 265.934 30.2292C266.249 30.2292 266.566 30.3288 266.886 30.5282L267.22 30.7345C267.452 30.8767 267.703 31.0282 267.972 31.189C268.376 31.4303 268.84 31.6506 269.365 31.8499C269.889 32.0492 270.508 32.1489 271.221 32.1489C272.186 32.1489 272.936 31.9365 273.471 31.5116C274.006 31.0868 274.274 30.4128 274.274 29.4896C274.274 28.9546 274.127 28.5193 273.833 28.1836C273.54 27.8479 273.154 27.5699 272.677 27.3496C272.2 27.1293 271.657 26.9352 271.048 26.7674C270.44 26.5996 269.816 26.4134 269.176 26.2088C268.536 26.0042 267.912 25.7525 267.303 25.4535C266.695 25.1545 266.152 24.7612 265.675 24.2734C265.197 23.7856 264.812 23.1771 264.518 22.4481C264.224 21.719 264.077 20.8194 264.077 19.7494C264.077 18.8892 264.251 18.05 264.597 17.2318C264.943 16.4135 265.452 15.6845 266.123 15.0446C266.794 14.4047 267.618 13.8933 268.594 13.5104C269.569 13.1275 270.686 12.936 271.945 12.936C272.648 12.936 273.332 12.9911 273.999 13.1013C274.665 13.2114 275.297 13.374 275.895 13.5891C276.493 13.8041 277.051 14.0611 277.571 14.3601C278.09 14.6591 278.554 14.9974 278.963 15.375L277.641 17.8455ZM291.772 31.9129C292.485 31.9129 293.122 31.7948 293.684 31.5588C294.245 31.3228 294.719 30.9845 295.108 30.5439C295.496 30.1033 295.792 29.5657 295.997 28.931C296.201 28.2964 296.303 27.5752 296.303 26.7674V13.1878H301.622V26.7674C301.622 28.1731 301.394 29.4634 300.938 30.6383C300.481 31.8132 299.828 32.8255 298.978 33.6752C298.129 34.5249 297.095 35.1858 295.879 35.6579C294.662 36.1299 293.293 36.366 291.772 36.366C290.24 36.366 288.866 36.1299 287.649 35.6579C286.432 35.1858 285.399 34.5249 284.549 33.6752C283.699 32.8255 283.049 31.8132 282.598 30.6383C282.147 29.4634 281.921 28.1731 281.921 26.7674V13.1878H287.24V26.7517C287.24 27.5594 287.342 28.2806 287.547 28.9153C287.751 29.5499 288.048 30.0902 288.436 30.536C288.824 30.9819 289.299 31.3228 289.86 31.5588C290.421 31.7948 291.058 31.9129 291.772 31.9129ZM320.803 30.182C320.929 30.182 321.055 30.2056 321.181 30.2528C321.307 30.3 321.428 30.3813 321.543 30.4967L323.651 32.7154C322.728 33.9217 321.572 34.8318 320.182 35.4454C318.792 36.0591 317.148 36.366 315.249 36.366C313.507 36.366 311.947 36.0696 310.568 35.4769C309.188 34.8842 308.018 34.066 307.059 33.0222C306.099 31.9784 305.362 30.7406 304.848 29.3087C304.334 27.8767 304.077 26.3216 304.077 24.6431C304.077 22.9332 304.37 21.3623 304.958 19.9304C305.545 18.4985 306.366 17.2633 307.42 16.2247C308.475 15.1862 309.736 14.3784 311.205 13.8015C312.673 13.2245 314.294 12.936 316.067 12.936C316.927 12.936 317.738 13.0121 318.498 13.1642C319.259 13.3163 319.969 13.5261 320.63 13.7936C321.291 14.0611 321.9 14.3811 322.456 14.7535C323.012 15.1259 323.505 15.5376 323.935 15.9887L322.141 18.3962C322.026 18.5431 321.889 18.6768 321.732 18.7975C321.574 18.9181 321.354 18.9784 321.071 18.9784C320.882 18.9784 320.704 18.9364 320.536 18.8525C320.41 18.7896 320.278 18.7163 320.141 18.6327L319.379 18.1523C319.154 18.0107 318.886 17.8796 318.577 17.7589C318.267 17.6383 317.905 17.536 317.491 17.4521C317.077 17.3682 316.592 17.3262 316.036 17.3262C315.07 17.3262 314.189 17.4967 313.392 17.8376C312.595 18.1785 311.91 18.6663 311.339 19.301C310.767 19.9356 310.321 20.704 310.001 21.6062C309.681 22.5084 309.521 23.5207 309.521 24.6431C309.521 25.818 309.681 26.8618 310.001 27.7745C310.321 28.6871 310.756 29.4555 311.307 30.0797C311.858 30.7039 312.5 31.1785 313.235 31.5037C313.969 31.8289 314.756 31.9915 315.595 31.9915C316.078 31.9915 316.518 31.9679 316.917 31.9207C317.315 31.8735 317.685 31.7922 318.026 31.6768C318.367 31.5614 318.692 31.412 319.002 31.2284C319.311 31.0448 319.623 30.8166 319.938 30.5439C320.064 30.439 320.2 30.3524 320.347 30.2843C320.494 30.2161 320.646 30.182 320.803 30.182ZM341.794 30.182C341.92 30.182 342.046 30.2056 342.172 30.2528C342.298 30.3 342.419 30.3813 342.534 30.4967L344.642 32.7154C343.719 33.9217 342.563 34.8318 341.173 35.4454C339.783 36.0591 338.139 36.366 336.24 36.366C334.498 36.366 332.938 36.0696 331.559 35.4769C330.179 34.8842 329.009 34.066 328.05 33.0222C327.09 31.9784 326.353 30.7406 325.839 29.3087C325.325 27.8767 325.068 26.3216 325.068 24.6431C325.068 22.9332 325.361 21.3623 325.949 19.9304C326.536 18.4985 327.357 17.2633 328.411 16.2247C329.466 15.1862 330.727 14.3784 332.196 13.8015C333.664 13.2245 335.285 12.936 337.058 12.936C337.918 12.936 338.729 13.0121 339.489 13.1642C340.25 13.3163 340.96 13.5261 341.621 13.7936C342.282 14.0611 342.891 14.3811 343.447 14.7535C344.003 15.1259 344.496 15.5376 344.926 15.9887L343.132 18.3962C343.016 18.5431 342.88 18.6768 342.723 18.7975C342.565 18.9181 342.345 18.9784 342.062 18.9784C341.873 18.9784 341.695 18.9364 341.527 18.8525C341.401 18.7896 341.269 18.7163 341.131 18.6327L340.37 18.1523C340.145 18.0107 339.877 17.8796 339.568 17.7589C339.258 17.6383 338.896 17.536 338.482 17.4521C338.068 17.3682 337.583 17.3262 337.027 17.3262C336.061 17.3262 335.18 17.4967 334.383 17.8376C333.586 18.1785 332.901 18.6663 332.33 19.301C331.758 19.9356 331.312 20.704 330.992 21.6062C330.672 22.5084 330.512 23.5207 330.512 24.6431C330.512 25.818 330.672 26.8618 330.992 27.7745C331.312 28.6871 331.747 29.4555 332.298 30.0797C332.849 30.7039 333.491 31.1785 334.226 31.5037C334.96 31.8289 335.747 31.9915 336.586 31.9915C337.068 31.9915 337.509 31.9679 337.908 31.9207C338.306 31.8735 338.676 31.7922 339.017 31.6768C339.358 31.5614 339.683 31.412 339.993 31.2284C340.302 31.0448 340.614 30.8166 340.929 30.5439C341.055 30.439 341.191 30.3524 341.338 30.2843C341.485 30.2161 341.637 30.182 341.794 30.182ZM362.14 13.1878V17.279H352.73V22.629H359.937V26.5628H352.73V32.023H362.14V36.1142H347.38V13.1878H362.14ZM378.253 17.8455C378.096 18.0972 377.931 18.2861 377.757 18.4119C377.584 18.5378 377.361 18.6008 377.089 18.6008C376.847 18.6008 376.588 18.5247 376.31 18.3726L375.572 17.9723C375.505 17.936 375.436 17.899 375.366 17.8612C375.014 17.6724 374.613 17.5019 374.162 17.3498C373.711 17.1977 373.197 17.1216 372.62 17.1216C371.623 17.1216 370.881 17.3341 370.393 17.7589C369.906 18.1838 369.662 18.7581 369.662 19.4819C369.662 19.9435 369.809 20.3264 370.102 20.6306C370.396 20.9348 370.781 21.1971 371.259 21.4174C371.668 21.6062 372.127 21.7815 372.636 21.9434L372.895 22.0232C373.509 22.2068 374.136 22.4113 374.776 22.6369C375.416 22.8624 376.042 23.1273 376.656 23.4315C377.27 23.7357 377.815 24.1239 378.292 24.5959C378.77 25.068 379.155 25.6423 379.449 26.3189C379.743 26.9956 379.89 27.8112 379.89 28.7658C379.89 29.8253 379.706 30.8166 379.339 31.7398C378.972 32.6629 378.439 33.468 377.742 34.1551C377.044 34.8423 376.184 35.3825 375.161 35.7759C374.138 36.1693 372.977 36.366 371.676 36.366C370.962 36.366 370.236 36.2925 369.496 36.1457C368.757 35.9988 368.041 35.7916 367.349 35.5241C366.656 35.2566 366.006 34.9393 365.397 34.5721C364.789 34.205 364.259 33.7959 363.808 33.3448L365.382 30.8586C365.497 30.6698 365.66 30.5177 365.869 30.4023C366.079 30.2869 366.305 30.2292 366.546 30.2292C366.861 30.2292 367.178 30.3288 367.498 30.5282L367.832 30.7345C368.064 30.8767 368.315 31.0282 368.584 31.189C368.988 31.4303 369.452 31.6506 369.976 31.8499C370.501 32.0492 371.12 32.1489 371.833 32.1489C372.798 32.1489 373.548 31.9365 374.083 31.5116C374.618 31.0868 374.886 30.4128 374.886 29.4896C374.886 28.9546 374.739 28.5193 374.445 28.1836C374.151 27.8479 373.766 27.5699 373.289 27.3496C372.811 27.1293 372.268 26.9352 371.66 26.7674C371.052 26.5996 370.427 26.4134 369.788 26.2088C369.148 26.0042 368.523 25.7525 367.915 25.4535C367.307 25.1545 366.764 24.7612 366.286 24.2734C365.809 23.7856 365.424 23.1771 365.13 22.4481C364.836 21.719 364.689 20.8194 364.689 19.7494C364.689 18.8892 364.862 18.05 365.209 17.2318C365.555 16.4135 366.063 15.6845 366.735 15.0446C367.406 14.4047 368.23 13.8933 369.205 13.5104C370.181 13.1275 371.298 12.936 372.557 12.936C373.26 12.936 373.944 12.9911 374.61 13.1013C375.277 13.2114 375.909 13.374 376.507 13.5891C377.104 13.8041 377.663 14.0611 378.182 14.3601C378.702 14.6591 379.166 14.9974 379.575 15.375L378.253 17.8455ZM395.625 17.8455C395.468 18.0972 395.302 18.2861 395.129 18.4119C394.956 18.5378 394.733 18.6008 394.461 18.6008C394.219 18.6008 393.96 18.5247 393.682 18.3726L392.944 17.9723C392.877 17.936 392.808 17.899 392.738 17.8612C392.386 17.6724 391.985 17.5019 391.534 17.3498C391.083 17.1977 390.569 17.1216 389.992 17.1216C388.995 17.1216 388.253 17.3341 387.765 17.7589C387.277 18.1838 387.033 18.7581 387.033 19.4819C387.033 19.9435 387.18 20.3264 387.474 20.6306C387.768 20.9348 388.153 21.1971 388.631 21.4174C389.04 21.6062 389.499 21.7815 390.008 21.9434L390.267 22.0232C390.881 22.2068 391.508 22.4113 392.147 22.6369C392.787 22.8624 393.414 23.1273 394.028 23.4315C394.642 23.7357 395.187 24.1239 395.664 24.5959C396.142 25.068 396.527 25.6423 396.821 26.3189C397.115 26.9956 397.261 27.8112 397.261 28.7658C397.261 29.8253 397.078 30.8166 396.711 31.7398C396.344 32.6629 395.811 33.468 395.114 34.1551C394.416 34.8423 393.556 35.3825 392.533 35.7759C391.51 36.1693 390.348 36.366 389.048 36.366C388.334 36.366 387.608 36.2925 386.868 36.1457C386.129 35.9988 385.413 35.7916 384.72 35.5241C384.028 35.2566 383.378 34.9393 382.769 34.5721C382.161 34.205 381.631 33.7959 381.18 33.3448L382.753 30.8586C382.869 30.6698 383.031 30.5177 383.241 30.4023C383.451 30.2869 383.677 30.2292 383.918 30.2292C384.233 30.2292 384.55 30.3288 384.87 30.5282L385.204 30.7345C385.436 30.8767 385.686 31.0282 385.956 31.189C386.359 31.4303 386.824 31.6506 387.348 31.8499C387.873 32.0492 388.492 32.1489 389.205 32.1489C390.17 32.1489 390.92 31.9365 391.455 31.5116C391.99 31.0868 392.258 30.4128 392.258 29.4896C392.258 28.9546 392.111 28.5193 391.817 28.1836C391.523 27.8479 391.138 27.5699 390.66 27.3496C390.183 27.1293 389.64 26.9352 389.032 26.7674C388.423 26.5996 387.799 26.4134 387.159 26.2088C386.519 26.0042 385.895 25.7525 385.287 25.4535C384.678 25.1545 384.136 24.7612 383.658 24.2734C383.181 23.7856 382.795 23.1771 382.502 22.4481C382.208 21.719 382.061 20.8194 382.061 19.7494C382.061 18.8892 382.234 18.05 382.58 17.2318C382.927 16.4135 383.435 15.6845 384.107 15.0446C384.778 14.4047 385.602 13.8933 386.577 13.5104C387.553 13.1275 388.67 12.936 389.929 12.936C390.632 12.936 391.316 12.9911 391.982 13.1013C392.648 13.2114 393.28 13.374 393.878 13.5891C394.476 13.8041 395.035 14.0611 395.554 14.3601C396.073 14.6591 396.538 14.9974 396.947 15.375L395.625 17.8455Z" fill="#186060"/>
</svg>
