<svg width="80" height="100" viewBox="0 0 80 100" fill="none" xmlns="http://www.w3.org/2000/svg">
<path d="M61.0275 64.7775L76.205 79.955C76.6155 80.3653 76.9412 80.8525 77.1634 81.3887C77.3856 81.9249 77.5 82.4996 77.5 83.08C77.5 84.2523 77.0343 85.3765 76.2054 86.2054C75.3765 87.0344 74.2523 87.5 73.08 87.5C72.4996 87.5 71.9249 87.3856 71.3887 87.1634C70.8525 86.9412 70.3653 86.6155 69.955 86.205L55 71.25" fill="#5A5B5D"/>
<path d="M61.0274 64.7775L58.0137 68.015L72.4549 82.455C73.0978 83.1045 73.9282 83.536 74.8292 83.6887C75.7302 83.8414 76.6564 83.7077 77.4774 83.3063C77.4774 83.23 77.4999 83.1575 77.4999 83.08C77.4999 82.4996 77.3855 81.9249 77.1633 81.3887C76.9411 80.8525 76.6154 80.3653 76.2049 79.955L61.0274 64.7775Z" fill="#77787C"/>
<path d="M76.205 79.955L65 68.75L58.75 75L69.955 86.205C70.3629 86.6264 70.8506 86.9624 71.3897 87.1934C71.9288 87.4244 72.5084 87.5458 73.0949 87.5506C73.6813 87.5554 74.2629 87.4434 74.8056 87.2211C75.3484 86.9989 75.8414 86.6709 76.2562 86.2562C76.6709 85.8414 76.9989 85.3484 77.2211 84.8056C77.4434 84.2629 77.5554 83.6813 77.5506 83.0949C77.5458 82.5084 77.4244 81.9288 77.1934 81.3897C76.9624 80.8506 76.6264 80.3629 76.205 79.955Z" fill="#77787C"/>
<path d="M22 37.0613C22.654 36.7611 23.2321 36.3178 23.6916 35.7641C24.1512 35.2104 24.4804 34.5606 24.655 33.8625L25 32.5C24.337 32.5 23.7011 32.2366 23.2322 31.7678C22.7634 31.2989 22.5 30.663 22.5 30V21.25C22.5 18.9294 21.5781 16.7038 19.9372 15.0628C18.2962 13.4219 16.0706 12.5 13.75 12.5C11.4294 12.5 9.20376 13.4219 7.56282 15.0628C5.92187 16.7038 5 18.9294 5 21.25V30C5 30.663 4.73661 31.2989 4.26777 31.7678C3.79893 32.2366 3.16304 32.5 2.5 32.5L2.84 33.8625C3.0151 34.561 3.3451 35.2112 3.80555 35.7649C4.266 36.3187 4.84511 36.7617 5.5 37.0613H22Z" fill="#936C42"/>
<path d="M22.5 30V21.25C22.4993 19.2557 21.8173 17.3213 20.567 15.7675C19.3167 14.2137 17.5731 13.1337 15.625 12.7063C13.6769 13.1337 11.9333 14.2137 10.683 15.7675C9.43267 17.3213 8.75068 19.2557 8.75 21.25V30C8.75 30.6631 8.48661 31.299 8.01777 31.7678C7.54893 32.2367 6.91304 32.5001 6.25 32.5001L6.59 33.8626C6.7651 34.5611 7.0951 35.2113 7.55555 35.765C8.016 36.3187 8.59511 36.7617 9.25 37.0613H22C22.654 36.7611 23.2321 36.3178 23.6916 35.7642C24.1512 35.2105 24.4804 34.5606 24.655 33.8626L25 32.5001C24.337 32.5001 23.7011 32.2367 23.2322 31.7678C22.7634 31.299 22.5 30.6631 22.5 30Z" fill="#CEAE84"/>
<path d="M7.5 23.75H6.25C5.58696 23.75 4.95107 24.0134 4.48223 24.4822C4.01339 24.9511 3.75 25.587 3.75 26.25C3.75 26.913 4.01339 27.5489 4.48223 28.0178C4.95107 28.4866 5.58696 28.75 6.25 28.75H8.02" fill="#ECB8AD"/>
<path d="M20.0005 23.75H21.2505C21.9135 23.75 22.5494 24.0134 23.0182 24.4822C23.4871 24.9511 23.7505 25.587 23.7505 26.25C23.7505 26.913 23.4871 27.5489 23.0182 28.0178C22.5494 28.4866 21.9135 28.75 21.2505 28.75H19.4805" fill="#ECB8AD"/>
<path d="M11.25 31.9788V35L8.6825 35.4275C7.30429 35.6574 6.05227 36.3686 5.14911 37.4347C4.24595 38.5009 3.75019 39.8528 3.75 41.25V50H23.75V41.25C23.7498 39.8528 23.2541 38.5009 22.3509 37.4347C21.4477 36.3686 20.1957 35.6574 18.8175 35.4275L16.25 35V31.9788H11.25Z" fill="#4F61A6"/>
<path d="M18.8175 35.4275L16.25 35V31.9788H13.75V35L11.1825 35.4275C9.80429 35.6574 8.55227 36.3686 7.64911 37.4347C6.74595 38.5009 6.25019 39.8528 6.25 41.25V50H23.75V41.25C23.7498 39.8528 23.2541 38.5009 22.3509 37.4347C21.4477 36.3686 20.1957 35.6574 18.8175 35.4275Z" fill="#7383BC"/>
<path d="M20 22.5V26.25C20 27.9076 19.3415 29.4973 18.1694 30.6694C16.9973 31.8415 15.4076 32.5 13.75 32.5C12.0924 32.5 10.5027 31.8415 9.33058 30.6694C8.15848 29.4973 7.5 27.9076 7.5 26.25V22.5H9.7975C10.9485 22.5 12.0704 22.1378 13.0041 21.4648C13.9378 20.7918 14.6361 19.842 15 18.75L20 22.5Z" fill="#ECB8AD"/>
<path d="M16.25 31.975V35L13.75 40L11.25 35V31.975H16.25Z" fill="#ECB8AD"/>
<path d="M11.25 33.23V35L13.75 40L16.25 35V33.23C15.4612 33.573 14.6102 33.7499 13.75 33.7499C12.8898 33.7499 12.0388 33.573 11.25 33.23Z" fill="#FDE1D5"/>
<path d="M7.77344 35.6562L8.75094 41.25L13.7509 40L11.2509 35L7.77344 35.6562Z" fill="#223584"/>
<path d="M19.7275 35.6562L18.75 41.25L13.75 40L16.25 35L19.7275 35.6562Z" fill="#223584"/>
<path d="M17.5 45H20V50H17.5V45Z" fill="#17256B"/>
<path d="M7.5 45H10V50H7.5V45Z" fill="#17256B"/>
<path d="M9.7975 22.5H8.75V26.25C8.75324 27.7953 9.33067 29.2843 10.3702 30.4277C11.4096 31.5711 12.837 32.2874 14.375 32.4375C15.913 32.2874 17.3404 31.5711 18.3798 30.4277C19.4193 29.2843 19.9968 27.7953 20 26.25V22.5L15 18.75C14.6361 19.842 13.9378 20.7918 13.0041 21.4648C12.0704 22.1378 10.9485 22.5 9.7975 22.5Z" fill="#FDE1D5"/>
<path d="M67.5 31.98V35L71.2988 35.475C73.0109 35.6891 74.5859 36.5212 75.7278 37.8148C76.8697 39.1084 77.4999 40.7745 77.5 42.5V50H52.5V42.5C52.5001 40.7745 53.1303 39.1084 54.2722 37.8148C55.4141 36.5212 56.9891 35.6891 58.7012 35.475L62.5 35V31.98H67.5Z" fill="#B4B5B9"/>
<path d="M71.2988 35.475L67.5 35V31.98H65V35L61.2012 35.475C59.4891 35.6891 57.9141 36.5212 56.7722 37.8148C55.6303 39.1084 55.0001 40.7745 55 42.5V50H77.5V42.5C77.4999 40.7745 76.8697 39.1084 75.7278 37.8148C74.5859 36.5212 73.0109 35.6891 71.2988 35.475Z" fill="#DCDDDF"/>
<path d="M71.6138 35.5225L70 38.75V41.25L65 40L67.5 35L71.6138 35.5225Z" fill="#77787C"/>
<path d="M58.3867 35.5225L60.0005 38.75V41.25L65.0005 40L62.5005 35L58.3867 35.5225Z" fill="#77787C"/>
<path d="M56.25 45H58.75V50H56.25V45Z" fill="#5A5B5D"/>
<path d="M40 76.25C53.8071 76.25 65 65.0571 65 51.25C65 37.4429 53.8071 26.25 40 26.25C26.1929 26.25 15 37.4429 15 51.25C15 65.0571 26.1929 76.25 40 76.25Z" fill="#9A9B9F"/>
<path d="M40.0007 26.25C33.9826 26.247 28.1676 28.4257 23.6332 32.3825C19.4822 37.1536 17.2957 43.3217 17.515 49.6419C17.7344 55.9622 20.3432 61.9639 24.815 66.4357C29.2868 70.9074 35.2885 73.5163 41.6088 73.7356C47.929 73.955 54.0971 71.7685 58.8682 67.6175C62.0149 64.0006 64.054 59.5544 64.7421 54.8098C65.4303 50.0653 64.7383 45.223 62.7489 40.8611C60.7595 36.4992 57.5566 32.8021 53.5228 30.2112C49.4891 27.6203 44.7948 26.2452 40.0007 26.25Z" fill="#B4B5B9"/>
<path d="M40 71.25C51.0457 71.25 60 62.2957 60 51.25C60 40.2043 51.0457 31.25 40 31.25C28.9543 31.25 20 40.2043 20 51.25C20 62.2957 28.9543 71.25 40 71.25Z" fill="white"/>
<path d="M46.2988 59.225L42.5 58.75V55.73H37.5V58.75L33.7013 59.225C31.9891 59.4391 30.4141 60.2712 29.2722 61.5648C28.1303 62.8584 27.5001 64.5245 27.5 66.25V66.8487C31.0435 69.6972 35.4536 71.25 40 71.25C44.5464 71.25 48.9565 69.6972 52.5 66.8487V66.25C52.4999 64.5245 51.8697 62.8584 50.7278 61.5648C49.5859 60.2712 48.0109 59.4391 46.2988 59.225Z" fill="#50BAE3"/>
<path d="M46.2988 59.225L42.5 58.75V55.73H40V58.75L36.2013 59.225C34.4891 59.4391 32.9141 60.2712 31.7722 61.5648C30.6303 62.8584 30.0001 64.5245 30 66.25V68.5525C33.4829 70.5765 37.4976 71.4972 41.5145 71.1931C45.5313 70.8889 49.3616 69.3742 52.5 66.8487V66.25C52.4999 64.5245 51.8697 62.8584 50.7278 61.5648C49.5859 60.2712 48.0109 59.4391 46.2988 59.225Z" fill="#B5DEEB"/>
<path d="M71.25 45H73.75V50H71.25V45Z" fill="#5A5B5D"/>
<path d="M42.5 55.7251V58.7501L40 63.7501L37.5 58.7501V55.7251H42.5Z" fill="#ECB8AD"/>
<path d="M37.5 56.98V58.75L40 63.75L42.5 58.75V56.98C41.7112 57.323 40.8602 57.4999 40 57.4999C39.1398 57.4999 38.2888 57.323 37.5 56.98Z" fill="#FDE1D5"/>
<path d="M31.25 47.8363V42.5C31.25 40.8424 31.9085 39.2527 33.0806 38.0806C34.2527 36.9085 35.8424 36.25 37.5 36.25H41.25C42.2446 36.25 43.1984 36.6451 43.9016 37.3483C44.6049 38.0516 45 39.0054 45 40C45.9946 40 46.9484 40.3951 47.6516 41.0983C48.3549 41.8016 48.75 42.7554 48.75 43.75V47.8375" fill="#5A5B5D"/>
<path d="M35 42.5V47.8362H48.75V43.75C48.75 42.7554 48.3549 41.8016 47.6516 41.0983C46.9484 40.3951 45.9946 40 45 40C45 39.0054 44.6049 38.0516 43.9016 37.3483C43.1984 36.6451 42.2446 36.25 41.25 36.25C39.5924 36.25 38.0027 36.9085 36.8306 38.0806C35.6585 39.2527 35 40.8424 35 42.5Z" fill="#77787C"/>
<path d="M33.75 47.5H32.5C31.837 47.5 31.2011 47.7634 30.7322 48.2322C30.2634 48.7011 30 49.337 30 50C30 50.663 30.2634 51.2989 30.7322 51.7678C31.2011 52.2366 31.837 52.5 32.5 52.5H34.27" fill="#ECB8AD"/>
<path d="M46.2505 47.5H47.5005C48.1635 47.5 48.7994 47.7634 49.2682 48.2322C49.7371 48.7011 50.0005 49.337 50.0005 50C50.0005 50.663 49.7371 51.2989 49.2682 51.7678C48.7994 52.2366 48.1635 52.5 47.5005 52.5H45.7305" fill="#ECB8AD"/>
<path d="M46.25 46.25V50C46.25 51.6576 45.5915 53.2473 44.4194 54.4194C43.2473 55.5915 41.6576 56.25 40 56.25C38.3424 56.25 36.7527 55.5915 35.5806 54.4194C34.4085 53.2473 33.75 51.6576 33.75 50V46.25H36.0475C37.1985 46.25 38.3204 45.8878 39.2541 45.2148C40.1878 44.5418 40.8861 43.592 41.25 42.5L46.25 46.25Z" fill="#ECB8AD"/>
<path d="M36.0475 46.25H35V50C35.0032 51.5453 35.5807 53.0343 36.6202 54.1777C37.6596 55.3211 39.087 56.0374 40.625 56.1875C42.163 56.0374 43.5904 55.3211 44.6298 54.1777C45.6693 53.0343 46.2468 51.5453 46.25 50V46.25L41.25 42.5C40.8861 43.592 40.1878 44.5418 39.2541 45.2148C38.3204 45.8878 37.1985 46.25 36.0475 46.25Z" fill="#FDE1D5"/>
<path d="M46.6138 59.2725L45 62.5V65L40 63.75L42.5 58.75L46.6138 59.2725Z" fill="#4197CD"/>
<path d="M33.3867 59.2725L35.0005 62.5V65L40.0005 63.75L37.5005 58.75L33.3867 59.2725Z" fill="#4197CD"/>
<path d="M56.25 24.085V21.25C56.25 18.9294 57.1719 16.7038 58.8128 15.0628C60.4538 13.4219 62.6794 12.5 65 12.5C66.1491 12.5 67.2869 12.7263 68.3485 13.1661C69.4101 13.6058 70.3747 14.2503 71.1872 15.0628C71.9997 15.8753 72.6442 16.8399 73.0839 17.9015C73.5237 18.9631 73.75 20.1009 73.75 21.25V24.0887L56.25 24.085Z" fill="#5A5B5D"/>
<path d="M73.75 21.25C73.7493 19.2557 73.0673 17.3213 71.817 15.7675C70.5667 14.2137 68.8231 13.1337 66.875 12.7063C64.9269 13.1337 63.1833 14.2137 61.933 15.7675C60.6827 17.3213 60.0007 19.2557 60 21.25V24.085H73.75V21.25Z" fill="#77787C"/>
<path d="M67.5 31.975V35L65 40L62.5 35V31.975H67.5Z" fill="#ECB8AD"/>
<path d="M62.5 33.23V35L65 40L67.5 35V33.23C66.7112 33.573 65.8602 33.7499 65 33.7499C64.1398 33.7499 63.2888 33.573 62.5 33.23Z" fill="#FDE1D5"/>
<path d="M58.75 23.75H57.5C56.837 23.75 56.2011 24.0134 55.7322 24.4822C55.2634 24.9511 55 25.587 55 26.25C55 26.913 55.2634 27.5489 55.7322 28.0178C56.2011 28.4866 56.837 28.75 57.5 28.75H59.27" fill="#ECB8AD"/>
<path d="M71.2505 23.75H72.5005C73.1635 23.75 73.7994 24.0134 74.2682 24.4822C74.7371 24.9511 75.0005 25.587 75.0005 26.25C75.0005 26.913 74.7371 27.5489 74.2682 28.0178C73.7994 28.4866 73.1635 28.75 72.5005 28.75H70.7305" fill="#ECB8AD"/>
<path d="M58.75 24.045C58.7498 23.0287 58.9865 22.0264 59.4413 21.1175C59.6092 20.7816 59.8673 20.4991 60.1868 20.3017C60.5063 20.1043 60.8745 19.9999 61.25 20C61.6255 19.9999 61.9937 20.1043 62.3132 20.3017C62.6327 20.4991 62.8908 20.7816 63.0587 21.1175L63.1913 21.3825C63.3592 21.7184 63.6173 22.0009 63.9368 22.1983C64.2563 22.3957 64.6245 22.5001 65 22.5C65.3755 22.5001 65.7437 22.3957 66.0632 22.1983C66.3827 22.0009 66.6408 21.7184 66.8087 21.3825L66.9413 21.1175C67.1092 20.7816 67.3673 20.4991 67.6868 20.3017C68.0063 20.1043 68.3745 19.9999 68.75 20C69.1255 19.9999 69.4937 20.1043 69.8132 20.3017C70.1327 20.4991 70.3908 20.7816 70.5587 21.1175C71.0135 22.0264 71.2502 23.0287 71.25 24.045V26.25C71.25 27.9076 70.5915 29.4973 69.4194 30.6694C68.2473 31.8415 66.6576 32.5 65 32.5C63.3424 32.5 61.7527 31.8415 60.5806 30.6694C59.4085 29.4973 58.75 27.9076 58.75 26.25V24.045Z" fill="#ECB8AD"/>
<path d="M65.625 32.4376C67.163 32.2875 68.5904 31.5712 69.6298 30.4277C70.6693 29.2843 71.2468 27.7954 71.25 26.2501V24.0451C71.2502 23.0288 71.0135 22.0264 70.5587 21.1176C70.3907 20.7817 70.1325 20.4993 69.8131 20.3019C69.4936 20.1045 69.1255 20 68.75 20C68.3745 20 68.0064 20.1045 67.6869 20.3019C67.3675 20.4993 67.1093 20.7817 66.9413 21.1176L66.8087 21.3826C66.6407 21.7184 66.3825 22.0008 66.0631 22.1982C65.7436 22.3956 65.3755 22.5001 65 22.5001C64.6245 22.5001 64.2564 22.3956 63.9369 22.1982C63.6175 22.0008 63.3593 21.7184 63.1913 21.3826L63.0587 21.1176C62.9265 20.8469 62.7345 20.6099 62.4974 20.4241C62.2603 20.2384 61.9841 20.1088 61.6897 20.0452C61.3953 19.9815 61.0903 19.9854 60.7976 20.0567C60.505 20.1279 60.2323 20.2645 60 20.4563V26.2501C60.0032 27.7954 60.5807 29.2843 61.6202 30.4277C62.6596 31.5712 64.087 32.2875 65.625 32.4376Z" fill="#FDE1D5"/>
<path d="M31.25 69.2137C32.059 69.6124 32.8943 69.9553 33.75 70.24V68.75H31.25V69.2137Z" fill="#29678C"/>
<path d="M46.25 70.24C47.1057 69.9553 47.941 69.6124 48.75 69.2137V68.75H46.25V70.24Z" fill="#29678C"/>
<path d="M72.455 82.455C73.0979 83.1045 73.9283 83.536 74.8293 83.6887C75.7303 83.8414 76.6565 83.7077 77.4775 83.3063C77.4775 83.23 77.5 83.1575 77.5 83.08C77.5 82.4996 77.3856 81.9249 77.1634 81.3887C76.9412 80.8525 76.6155 80.3653 76.205 79.955L65 68.75L61.875 71.875L72.455 82.455Z" fill="#9A9B9F"/>
</svg>
