<svg width="531" height="511" viewBox="0 0 531 511" fill="none" xmlns="http://www.w3.org/2000/svg">
<path fill-rule="evenodd" clip-rule="evenodd" d="M190.326 34.8091L171.859 30.7869L173.979 21.0544C174.699 17.7466 177.965 15.6492 181.272 16.3697L187.761 17.7829C191.069 18.5034 193.166 21.7689 192.445 25.0766L190.326 34.8091ZM180.675 19.1148C178.883 18.7245 177.114 19.8606 176.724 21.6523L175.202 28.6397L188.179 31.4662L189.7 24.4787C190.091 22.687 188.955 20.9182 187.163 20.528L180.675 19.1148Z" fill="url(#paint0_linear_548_4469)"/>
<path d="M157.635 60.9162C157.772 60.4913 158.222 60.2501 158.653 60.3647C170.762 63.5802 177.959 65.1291 190.312 67.2577C190.74 67.3315 191.046 67.72 191.009 68.1526C190.674 72.0198 190.158 74.4124 188.836 78.0856C188.701 78.4587 188.317 78.6844 187.925 78.6271C175.55 76.8215 168.343 75.3059 156.072 71.6915C155.69 71.5788 155.435 71.21 155.473 70.8131C155.841 66.9464 156.455 64.5783 157.635 60.9162Z" fill="#00BCA6"/>
<path d="M163.225 35.7562C163.354 35.3208 163.809 35.0678 164.248 35.1843C176.269 38.3762 183.429 39.9179 195.683 42.0304C196.134 42.1081 196.443 42.5345 196.371 42.9863C195.726 47.0236 195.225 49.4219 194.249 52.7584C194.131 53.1596 193.73 53.4095 193.317 53.3446C181.066 51.4203 173.896 49.8853 161.673 46.4511C161.284 46.3417 161.025 45.9673 161.068 45.5654C161.469 41.8343 162.134 39.4619 163.225 35.7562Z" fill="#00BCA6"/>
<path d="M160.367 42.8793C161.365 42.9364 161.961 43.0232 162.362 43.5189L163.562 45.3544C164.006 46.0333 163.502 46.9045 162.711 46.7264C161.948 46.5546 161.025 46.267 159.706 45.7906C159.384 45.6744 159.137 45.4011 159.09 45.062C158.984 44.2763 159.115 43.753 159.64 43.1624C159.822 42.9581 160.094 42.8637 160.367 42.8793Z" fill="#00BCA6"/>
<path d="M195.999 50.6393C195.154 50.3073 194.603 50.1445 193.998 50.3605C193.943 50.38 193.892 50.4074 193.843 50.4384L192.024 51.586C191.345 52.014 191.434 52.996 192.219 53.1584C192.969 53.3134 193.94 53.436 195.384 53.5602C195.727 53.5897 196.068 53.444 196.251 53.1534C196.674 52.4837 196.772 51.9532 196.539 51.1976C196.459 50.9375 196.252 50.7388 195.999 50.6393Z" fill="#00BCA6"/>
<path d="M165.717 24.05C165.974 23.1676 166.865 22.6273 167.768 22.8004C178.369 24.8325 185.399 26.3225 197.62 29.3022C198.522 29.5221 199.108 30.3984 198.958 31.3144C198.424 34.5672 197.964 36.7622 197.195 39.4842C196.953 40.3435 196.099 40.8776 195.217 40.7377C183.711 38.9126 176.646 37.3967 165.153 34.1867C164.321 33.9544 163.77 33.1572 163.876 32.3005C164.253 29.2598 164.833 27.0739 165.717 24.05Z" fill="#00BCA6"/>
<path d="M163.085 30.4015C164.083 30.4586 164.679 30.5454 165.08 31.0411L166.28 32.8766C166.724 33.5555 166.22 34.4267 165.429 34.2486C164.665 34.0769 163.743 33.7892 162.423 33.3128C162.101 33.1966 161.854 32.9233 161.808 32.5842C161.702 31.7985 161.833 31.2752 162.358 30.6846C162.54 30.4803 162.812 30.3859 163.085 30.4015Z" fill="#00BCA6"/>
<path d="M198.717 38.1618C197.871 37.8298 197.32 37.667 196.716 37.8829C196.661 37.9025 196.609 37.9298 196.56 37.9608L194.741 39.1084C194.063 39.5365 194.151 40.5185 194.937 40.6808C195.687 40.8358 196.658 40.9585 198.102 41.0827C198.444 41.1121 198.785 40.9665 198.969 40.6758C199.392 40.0062 199.489 39.4757 199.257 38.72C199.177 38.4599 198.97 38.2613 198.717 38.1618Z" fill="#00BCA6"/>
<path d="M160.508 48.2337C160.636 47.7983 161.091 47.5454 161.53 47.6618C173.551 50.8538 180.712 52.3954 192.965 54.508C193.416 54.5857 193.725 55.0121 193.653 55.4639C193.008 59.5012 192.508 61.8995 191.531 65.236C191.414 65.6372 191.012 65.887 190.599 65.8221C178.348 63.8979 171.178 62.3629 158.956 58.9286C158.566 58.8193 158.307 58.4449 158.35 58.043C158.751 54.3118 159.416 51.9394 160.508 48.2337Z" fill="#00BCA6"/>
<path d="M157.649 55.3568C158.647 55.414 159.243 55.5007 159.644 55.9965L160.845 57.8319C161.289 58.5109 160.784 59.382 159.993 59.2039C159.23 59.0322 158.308 58.7445 156.988 58.2681C156.666 58.1519 156.419 57.8786 156.373 57.5395C156.266 56.7538 156.397 56.2305 156.923 55.6399C157.104 55.4357 157.377 55.3412 157.649 55.3568Z" fill="#00BCA6"/>
<path d="M155.352 68.3021C156.35 68.3593 156.946 68.446 157.347 68.9418L158.548 70.7772C158.992 71.4562 158.487 72.3273 157.696 72.1492C156.933 71.9775 156.011 71.6898 154.691 71.2134C154.369 71.0972 154.122 70.824 154.076 70.4848C153.969 69.6991 154.1 69.1758 154.625 68.5852C154.807 68.381 155.079 68.2865 155.352 68.3021Z" fill="#00BCA6"/>
<path d="M193.282 63.1169C192.436 62.7849 191.885 62.622 191.281 62.838C191.226 62.8576 191.174 62.8849 191.125 62.9159L189.306 64.0635C188.627 64.4915 188.716 65.4735 189.502 65.6359C190.252 65.7909 191.222 65.9135 192.667 66.0377C193.009 66.0672 193.35 65.9216 193.534 65.6309C193.957 64.9613 194.054 64.4308 193.822 63.6751C193.742 63.415 193.535 63.2163 193.282 63.1169Z" fill="#00BCA6"/>
<path d="M190.331 75.9125C189.486 75.5805 188.934 75.4177 188.33 75.6337C188.275 75.6532 188.224 75.6806 188.174 75.7116L186.355 76.8592C185.677 77.2872 185.765 78.2692 186.551 78.4316C187.301 78.5866 188.272 78.7092 189.716 78.8334C190.059 78.8629 190.4 78.7172 190.583 78.4266C191.006 77.7569 191.103 77.2264 190.871 76.4708C190.791 76.2107 190.584 76.012 190.331 75.9125Z" fill="#00BCA6"/>
<mask id="mask0_548_4469" style="mask-type:alpha" maskUnits="userSpaceOnUse" x="154" y="22" width="46" height="57">
<path d="M157.635 60.9162C157.772 60.4913 158.222 60.2501 158.653 60.3647C170.762 63.5802 177.959 65.1291 190.312 67.2577C190.74 67.3315 191.046 67.72 191.009 68.1526C190.674 72.0198 190.158 74.4124 188.836 78.0856C188.701 78.4587 188.317 78.6844 187.925 78.6271C175.55 76.8215 168.343 75.3059 156.072 71.6915C155.69 71.5788 155.435 71.21 155.473 70.8131C155.841 66.9464 156.455 64.5783 157.635 60.9162Z" fill="#00BCA6"/>
<path d="M163.225 35.7562C163.354 35.3208 163.809 35.0678 164.248 35.1843C176.269 38.3762 183.429 39.9179 195.683 42.0304C196.134 42.1081 196.443 42.5345 196.371 42.9863C195.726 47.0236 195.225 49.4219 194.249 52.7584C194.131 53.1596 193.73 53.4095 193.317 53.3446C181.066 51.4203 173.896 49.8853 161.673 46.4511C161.284 46.3417 161.025 45.9673 161.068 45.5654C161.469 41.8343 162.134 39.4619 163.225 35.7562Z" fill="#00BCA6"/>
<path d="M160.367 42.8793C161.365 42.9364 161.961 43.0232 162.362 43.5189L163.562 45.3544C164.006 46.0333 163.502 46.9045 162.711 46.7264C161.948 46.5546 161.025 46.267 159.706 45.7906C159.384 45.6744 159.137 45.4011 159.09 45.062C158.984 44.2763 159.115 43.753 159.64 43.1624C159.822 42.9581 160.094 42.8637 160.367 42.8793Z" fill="#00BCA6"/>
<path d="M195.999 50.6393C195.154 50.3073 194.603 50.1445 193.998 50.3605C193.943 50.38 193.892 50.4074 193.843 50.4384L192.024 51.586C191.345 52.014 191.434 52.996 192.219 53.1584C192.969 53.3134 193.94 53.436 195.384 53.5602C195.727 53.5897 196.068 53.444 196.251 53.1534C196.674 52.4837 196.772 51.9532 196.539 51.1976C196.459 50.9375 196.252 50.7388 195.999 50.6393Z" fill="#00BCA6"/>
<path d="M165.717 24.05C165.974 23.1676 166.865 22.6273 167.768 22.8004C178.369 24.8325 185.399 26.3225 197.62 29.3022C198.522 29.5221 199.108 30.3984 198.958 31.3144C198.424 34.5672 197.964 36.7622 197.195 39.4842C196.953 40.3435 196.099 40.8776 195.217 40.7377C183.711 38.9126 176.646 37.3967 165.153 34.1867C164.321 33.9544 163.77 33.1572 163.876 32.3005C164.253 29.2598 164.833 27.0739 165.717 24.05Z" fill="#00BCA6"/>
<path d="M163.085 30.4015C164.083 30.4586 164.679 30.5454 165.08 31.0411L166.28 32.8766C166.724 33.5555 166.22 34.4267 165.429 34.2486C164.665 34.0769 163.743 33.7892 162.423 33.3128C162.101 33.1966 161.854 32.9233 161.808 32.5842C161.702 31.7985 161.833 31.2752 162.358 30.6846C162.54 30.4803 162.812 30.3859 163.085 30.4015Z" fill="#00BCA6"/>
<path d="M198.717 38.1618C197.871 37.8298 197.32 37.667 196.716 37.8829C196.661 37.9025 196.609 37.9298 196.56 37.9608L194.741 39.1084C194.063 39.5365 194.151 40.5185 194.937 40.6808C195.687 40.8358 196.658 40.9585 198.102 41.0827C198.444 41.1121 198.785 40.9665 198.969 40.6758C199.392 40.0062 199.489 39.4757 199.257 38.72C199.177 38.4599 198.97 38.2613 198.717 38.1618Z" fill="#00BCA6"/>
<path d="M160.508 48.2337C160.636 47.7983 161.091 47.5454 161.53 47.6618C173.551 50.8538 180.712 52.3954 192.965 54.508C193.416 54.5857 193.725 55.0121 193.653 55.4639C193.008 59.5012 192.508 61.8995 191.531 65.236C191.414 65.6372 191.012 65.887 190.599 65.8221C178.348 63.8979 171.178 62.3629 158.956 58.9286C158.566 58.8193 158.307 58.4449 158.35 58.043C158.751 54.3118 159.416 51.9394 160.508 48.2337Z" fill="#00BCA6"/>
<path d="M157.649 55.3568C158.647 55.414 159.243 55.5007 159.644 55.9965L160.845 57.8319C161.289 58.5109 160.784 59.382 159.993 59.2039C159.23 59.0322 158.308 58.7445 156.988 58.2681C156.666 58.1519 156.419 57.8786 156.373 57.5395C156.266 56.7538 156.397 56.2305 156.923 55.6399C157.104 55.4357 157.377 55.3412 157.649 55.3568Z" fill="#00BCA6"/>
<path d="M155.352 68.3021C156.35 68.3593 156.946 68.446 157.347 68.9418L158.548 70.7772C158.992 71.4562 158.487 72.3273 157.696 72.1492C156.933 71.9775 156.011 71.6898 154.691 71.2134C154.369 71.0972 154.122 70.824 154.076 70.4848C153.969 69.6991 154.1 69.1758 154.625 68.5852C154.807 68.381 155.079 68.2865 155.352 68.3021Z" fill="#00BCA6"/>
<path d="M193.282 63.1169C192.436 62.7849 191.885 62.622 191.281 62.838C191.226 62.8576 191.174 62.8849 191.125 62.9159L189.306 64.0635C188.627 64.4915 188.716 65.4735 189.502 65.6359C190.252 65.7909 191.222 65.9135 192.667 66.0377C193.009 66.0672 193.35 65.9216 193.534 65.6309C193.957 64.9613 194.054 64.4308 193.822 63.6751C193.742 63.415 193.535 63.2163 193.282 63.1169Z" fill="#00BCA6"/>
<path d="M190.331 75.9125C189.486 75.5805 188.934 75.4177 188.33 75.6337C188.275 75.6532 188.224 75.6806 188.174 75.7116L186.355 76.8592C185.677 77.2872 185.765 78.2692 186.551 78.4316C187.301 78.5866 188.272 78.7092 189.716 78.8334C190.059 78.8629 190.4 78.7172 190.583 78.4266C191.006 77.7569 191.103 77.2264 190.871 76.4708C190.791 76.2107 190.584 76.012 190.331 75.9125Z" fill="#00BCA6"/>
</mask>
<g mask="url(#mask0_548_4469)">
<rect x="165.957" y="12.7869" width="39.5897" height="59.4526" transform="rotate(12.29 165.957 12.7869)" fill="#00BCA6"/>
<rect x="165.957" y="12.7869" width="39.5897" height="59.4526" transform="rotate(12.29 165.957 12.7869)" fill="url(#paint1_linear_548_4469)"/>
</g>
<mask id="mask1_548_4469" style="mask-type:alpha" maskUnits="userSpaceOnUse" x="154" y="22" width="46" height="57">
<path d="M157.635 60.9162C157.772 60.4913 158.222 60.2501 158.654 60.3647C170.762 63.5802 177.959 65.1291 190.312 67.2577C190.74 67.3315 191.046 67.72 191.009 68.1526C190.674 72.0198 190.159 74.4124 188.836 78.0856C188.701 78.4587 188.318 78.6844 187.925 78.6271C175.551 76.8215 168.344 75.3059 156.073 71.6915C155.69 71.5788 155.435 71.21 155.473 70.8131C155.841 66.9464 156.455 64.5783 157.635 60.9162Z" fill="#00BCA6"/>
<path d="M163.226 35.7562C163.354 35.3208 163.809 35.0678 164.248 35.1843C176.269 38.3762 183.43 39.9179 195.683 42.0304C196.134 42.1081 196.443 42.5345 196.371 42.9863C195.726 47.0236 195.226 49.4219 194.249 52.7584C194.132 53.1596 193.73 53.4095 193.317 53.3446C181.066 51.4203 173.896 49.8853 161.674 46.4511C161.284 46.3417 161.025 45.9673 161.068 45.5654C161.469 41.8343 162.134 39.4619 163.226 35.7562Z" fill="#00BCA6"/>
<path d="M160.367 42.8793C161.365 42.9364 161.961 43.0232 162.362 43.5189L163.563 45.3544C164.007 46.0333 163.502 46.9045 162.711 46.7264C161.948 46.5546 161.026 46.267 159.706 45.7906C159.384 45.6744 159.137 45.4011 159.091 45.062C158.984 44.2763 159.116 43.753 159.641 43.1624C159.822 42.9581 160.095 42.8637 160.367 42.8793Z" fill="#00BCA6"/>
<path d="M195.999 50.6393C195.154 50.3073 194.603 50.1445 193.998 50.3605C193.944 50.38 193.892 50.4074 193.843 50.4384L192.024 51.586C191.345 52.014 191.434 52.996 192.22 53.1584C192.969 53.3134 193.94 53.436 195.385 53.5602C195.727 53.5897 196.068 53.444 196.252 53.1534C196.674 52.4837 196.772 51.9532 196.539 51.1976C196.459 50.9375 196.253 50.7388 195.999 50.6393Z" fill="#00BCA6"/>
<path d="M165.717 24.05C165.975 23.1676 166.865 22.6273 167.768 22.8004C178.369 24.8325 185.399 26.3225 197.62 29.3022C198.522 29.5221 199.109 30.3984 198.958 31.3144C198.424 34.5672 197.964 36.7622 197.196 39.4842C196.953 40.3435 196.099 40.8776 195.217 40.7377C183.712 38.9126 176.647 37.3967 165.153 34.1867C164.321 33.9544 163.77 33.1572 163.877 32.3005C164.253 29.2598 164.833 27.0739 165.717 24.05Z" fill="#00BCA6"/>
<path d="M163.085 30.4015C164.083 30.4586 164.679 30.5454 165.08 31.0411L166.28 32.8766C166.724 33.5555 166.22 34.4267 165.429 34.2486C164.666 34.0769 163.743 33.7892 162.424 33.3128C162.102 33.1966 161.855 32.9233 161.808 32.5842C161.702 31.7985 161.833 31.2752 162.358 30.6846C162.54 30.4803 162.812 30.3859 163.085 30.4015Z" fill="#00BCA6"/>
<path d="M198.717 38.1618C197.872 37.8298 197.32 37.667 196.716 37.8829C196.661 37.9025 196.61 37.9298 196.56 37.9608L194.741 39.1084C194.063 39.5365 194.151 40.5185 194.937 40.6808C195.687 40.8358 196.658 40.9585 198.102 41.0827C198.445 41.1121 198.786 40.9665 198.969 40.6758C199.392 40.0062 199.489 39.4757 199.257 38.72C199.177 38.4599 198.97 38.2613 198.717 38.1618Z" fill="#00BCA6"/>
<path d="M160.508 48.2337C160.636 47.7983 161.092 47.5454 161.53 47.6618C173.551 50.8538 180.712 52.3954 192.966 54.508C193.416 54.5857 193.725 55.0121 193.653 55.4639C193.009 59.5012 192.508 61.8995 191.531 65.236C191.414 65.6372 191.012 65.887 190.599 65.8221C178.349 63.8979 171.178 62.3629 158.956 58.9286C158.567 58.8193 158.307 58.4449 158.35 58.043C158.751 54.3118 159.417 51.9394 160.508 48.2337Z" fill="#00BCA6"/>
<path d="M157.65 55.3568C158.647 55.414 159.244 55.5007 159.645 55.9965L160.845 57.8319C161.289 58.5109 160.785 59.382 159.993 59.2039C159.23 59.0322 158.308 58.7445 156.988 58.2681C156.666 58.1519 156.419 57.8786 156.373 57.5395C156.266 56.7538 156.398 56.2305 156.923 55.6399C157.104 55.4357 157.377 55.3412 157.65 55.3568Z" fill="#00BCA6"/>
<path d="M155.353 68.3021C156.35 68.3593 156.946 68.446 157.348 68.9418L158.548 70.7772C158.992 71.4562 158.488 72.3273 157.696 72.1492C156.933 71.9775 156.011 71.6898 154.691 71.2134C154.369 71.0972 154.122 70.824 154.076 70.4848C153.969 69.6991 154.101 69.1758 154.626 68.5852C154.807 68.381 155.08 68.2865 155.353 68.3021Z" fill="#00BCA6"/>
<path d="M193.282 63.1169C192.437 62.7849 191.885 62.622 191.281 62.838C191.226 62.8576 191.174 62.8849 191.125 62.9159L189.306 64.0635C188.628 64.4915 188.716 65.4735 189.502 65.6359C190.252 65.7909 191.223 65.9135 192.667 66.0377C193.01 66.0672 193.35 65.9216 193.534 65.6309C193.957 64.9613 194.054 64.4308 193.822 63.6751C193.742 63.415 193.535 63.2163 193.282 63.1169Z" fill="#00BCA6"/>
<path d="M190.331 75.9125C189.486 75.5805 188.935 75.4177 188.33 75.6337C188.275 75.6532 188.224 75.6806 188.175 75.7116L186.356 76.8592C185.677 77.2872 185.766 78.2692 186.551 78.4316C187.301 78.5866 188.272 78.7092 189.716 78.8334C190.059 78.8629 190.4 78.7172 190.583 78.4266C191.006 77.7569 191.104 77.2264 190.871 76.4708C190.791 76.2107 190.584 76.012 190.331 75.9125Z" fill="#00BCA6"/>
</mask>
<g mask="url(#mask1_548_4469)">
<g style="mix-blend-mode:darken">
<rect x="192.871" y="28" width="4.08643" height="51.0804" transform="rotate(12.2876 192.871 28)" fill="#03736D"/>
</g>
<g style="mix-blend-mode:darken">
<rect x="190.848" y="27.8215" width="1.02161" height="51.0804" transform="rotate(12.2876 190.848 27.8215)" fill="#03736D"/>
</g>
<g style="mix-blend-mode:darken">
<rect x="188.368" y="27.1946" width="0.510804" height="51.0804" transform="rotate(12.2876 188.368 27.1946)" fill="#03736D"/>
</g>
</g>
<path d="M505.286 250.927C487.973 282.47 469.67 299.903 450.449 310.15L449.818 310.483C446.051 312.454 442.179 314.201 438.22 315.714L437.614 315.942C379.182 338.005 312.718 309.615 240.083 412.229C187.253 486.86 62.7528 495.832 20.9186 433.424C-18.1498 375.156 -6.86415 287.005 92.211 250.927C191.286 214.849 187.127 130.702 210.107 92.617C328.516 -103.532 618.434 44.8941 505.286 250.927Z" fill="#03736D" fill-opacity="0.3"/>
<path d="M466.353 123.898H421.673V1.62671H466.353V123.898Z" fill="url(#paint2_linear_548_4469)"/>
<path d="M444.021 31.8121C441.64 31.8121 439.312 31.0773 437.333 29.7005C435.353 28.3237 433.81 26.3668 432.898 24.0772C431.987 21.7877 431.749 19.2684 432.213 16.8378C432.678 14.4073 433.824 12.1747 435.508 10.4224C437.192 8.67002 439.337 7.47667 441.672 6.9932C444.008 6.50974 446.428 6.75787 448.628 7.70622C450.828 8.65458 452.708 10.2606 454.031 12.3211C455.354 14.3816 456.06 16.8041 456.06 19.2823C456.057 22.6043 454.788 25.7893 452.53 28.1384C450.273 30.4874 447.213 31.8086 444.021 31.8121Z" fill="url(#paint3_linear_548_4469)"/>
<path d="M444.021 68.6659C441.64 68.6659 439.312 67.931 437.333 66.5542C435.353 65.1774 433.81 63.2205 432.898 60.931C431.987 58.6415 431.749 56.1221 432.213 53.6916C432.678 51.261 433.824 49.0284 435.508 47.2761C437.192 45.5238 439.337 44.3304 441.672 43.847C444.008 43.3635 446.428 43.6116 448.628 44.56C450.828 45.5083 452.708 47.1143 454.031 49.1748C455.354 51.2354 456.06 53.6579 456.06 56.1361C456.057 59.4581 454.788 62.6431 452.53 64.9921C450.273 67.3412 447.213 68.6624 444.021 68.6659Z" fill="url(#paint4_linear_548_4469)"/>
<path d="M444.021 105.515C441.64 105.515 439.312 104.78 437.333 103.403C435.353 102.027 433.81 100.07 432.898 97.7801C431.987 95.4906 431.749 92.9713 432.213 90.5407C432.678 88.1102 433.824 85.8776 435.508 84.1252C437.192 82.3729 439.337 81.1796 441.672 80.6961C444.008 80.2126 446.428 80.4608 448.628 81.4091C450.828 82.3575 452.708 83.9634 454.031 86.024C455.354 88.0845 456.06 90.507 456.06 92.9852C456.057 96.3072 454.788 99.4922 452.53 101.841C450.273 104.19 447.213 105.512 444.021 105.515Z" fill="url(#paint5_linear_548_4469)"/>
<path d="M88.6328 375.739C88.5191 377.929 90.8806 381.912 99.3502 391.743C107.82 401.574 117.476 406.713 118.423 405.412C119.371 404.111 119.35 397.789 119.35 397.789C119.35 397.789 98.8829 369.277 88.6328 375.739Z" fill="url(#paint6_linear_548_4469)"/>
<path d="M396.5 393.754C397.54 394.985 406.485 386.052 409.882 382.516C413.279 378.981 421.21 370.977 421.025 368.812C421.025 368.812 419.223 365.47 414.159 368.374C409.095 371.279 392.105 388.475 396.5 393.754Z" fill="url(#paint7_linear_548_4469)"/>
<path d="M242.44 113.545L274.142 112.428L300.873 236.5L221.195 231.059L242.44 113.545Z" fill="url(#paint8_linear_548_4469)"/>
<path opacity="0.25" d="M242.44 113.545L274.142 112.428L300.873 236.5L221.195 231.059L242.44 113.545Z" fill="#52BEB8"/>
<path d="M250.32 122.04C250.32 122.04 250.253 125.361 249.272 131.933C248.009 140.428 245.391 150.951 242.684 161.246C240.259 170.482 237.751 179.533 236.05 186.779C232.455 202.113 229.946 234.248 229.946 234.248L197.748 242.042C192.355 223.974 207.657 194.288 212.203 178.302C214.884 168.874 215.347 159.297 215.276 153.027C215.23 148.646 214.922 145.899 214.922 145.899L214.754 146.075C214.413 146.434 213.558 147.31 212.308 148.48C207.476 153.001 196.691 161.908 186.58 162.131C173.37 162.429 167.696 149.036 167.696 144.87C167.696 140.704 167.772 110.194 168.146 104.345C168.521 98.4964 172.718 95.6092 175.866 95.0616C179.015 94.514 185.548 93.112 191.98 96.2314C198.413 99.3507 197.975 113.545 197.975 113.545C207.042 104.888 212.586 99.1185 218.732 98.5708C220.226 98.4394 222.23 98.4 224.406 98.4131C231.163 98.4569 239.561 99.0396 239.561 99.0396L250.32 122.04Z" fill="url(#paint9_linear_548_4469)"/>
<path d="M214.304 140.874C214.669 142.58 214.821 144.328 214.754 146.075C214.413 146.434 213.558 147.31 212.308 148.48C207.476 153.001 196.691 161.908 186.58 162.131C173.37 162.429 167.696 149.036 167.696 144.87C167.696 140.704 167.772 110.194 168.146 104.345C168.521 98.4964 172.718 95.6092 175.866 95.0616C179.015 94.514 185.548 93.112 191.98 96.2314C198.413 99.3507 197.975 113.545 197.975 113.545C207.042 104.888 212.586 99.1185 218.732 98.5708C220.226 98.4394 222.23 98.4 224.406 98.4131C218.947 106.4 210.721 123.959 214.304 140.874Z" fill="url(#paint10_linear_548_4469)"/>
<path d="M174.667 88.236C174.667 88.236 174.633 96.7572 175.016 97.8743C175.399 98.9915 178.523 101.861 184.248 101.625C189.973 101.388 192.843 98.5841 192.995 96.8404C193.147 95.0967 193.176 86.2996 193.176 86.2996L174.667 88.236Z" fill="url(#paint11_linear_548_4469)"/>
<path d="M359.431 178.302C356.4 186.941 343.599 192.641 343.599 192.641L309.46 192.396C308.416 185.539 325.948 171.73 325.948 171.73L309.599 152.419L307.915 150.434L307.89 150.916C307.814 152.134 307.747 153.374 307.692 154.622C307.271 163.678 307.22 173.364 307.473 181.969C307.839 194.547 308.845 204.825 310.243 207.471C312.739 212.181 313.766 221.285 314.12 230.292C314.612 242.857 313.787 255.229 313.787 255.229L291.401 235.83C291.373 231.767 291.014 227.715 290.328 223.716C288.989 215.278 286.783 207.177 286.034 203.778C285.709 202.092 285.531 200.38 285.503 198.661C285.348 194.31 285.583 189.539 284.514 186.779C280.945 177.553 278.12 169.785 275.859 163.148C268.556 141.681 267.188 132.069 265.875 123.131L280.002 98.4702C280.002 98.4702 297.799 97.3005 307.486 101.073C307.747 101.169 307.999 101.274 308.247 101.384C313.08 103.495 325.713 118.141 336.237 131.276C340.577 136.695 344.559 141.852 347.484 145.768C355.196 156.09 363.043 167.971 359.431 178.302Z" fill="url(#paint12_linear_548_4469)"/>
<path d="M359.431 178.302C356.4 186.941 343.599 192.641 343.599 192.641L309.46 192.396C308.416 185.539 325.948 171.73 325.948 171.73L325.843 171.607L309.598 152.418L307.915 150.434C308.563 141.233 310.019 111.907 307.494 101.072C307.755 101.169 308.007 101.274 308.256 101.383C313.088 103.495 325.721 118.141 336.245 131.275C340.585 136.695 344.567 141.851 347.492 145.768C349.256 148.134 351.033 150.587 352.67 153.071C358.189 161.456 362.213 170.354 359.431 178.302Z" fill="url(#paint13_linear_548_4469)"/>
<path d="M359.431 178.302C356.4 186.942 343.599 192.641 343.599 192.641L309.459 192.396C308.415 185.54 325.948 171.73 325.948 171.73L325.843 171.608C326.338 171.341 326.812 171.035 327.261 170.692C328.89 169.378 342.083 156.274 352.666 153.072C358.189 161.457 362.213 170.355 359.431 178.302Z" fill="url(#paint14_linear_548_4469)"/>
<path d="M345.009 150.447L343.974 148.541L300.077 174.319C299.756 174.383 299.467 174.56 299.258 174.822C299.05 175.083 298.936 175.412 298.936 175.752V180.852C298.936 181.239 299.084 181.611 299.347 181.885C299.611 182.159 299.968 182.313 300.34 182.313C300.712 182.313 301.069 182.159 301.333 181.885C301.596 181.611 301.744 181.239 301.744 180.852V175.857L345.009 150.447Z" fill="url(#paint15_linear_548_4469)"/>
<path d="M196.388 174.319L152.483 148.528L151.447 150.447L194.717 175.857V180.852C194.717 181.239 194.865 181.611 195.128 181.885C195.391 182.159 195.748 182.313 196.121 182.313C196.493 182.313 196.85 182.159 197.113 181.885C197.377 181.611 197.525 181.239 197.525 180.852V175.752C197.525 175.413 197.411 175.084 197.204 174.823C196.996 174.562 196.708 174.384 196.388 174.319Z" fill="url(#paint16_linear_548_4469)"/>
<path d="M305.238 183.608C305.149 181.369 303.79 179.489 301.639 179.371H299.033C296.882 179.489 295.526 181.369 295.434 183.608L295.282 187.353H305.385L305.238 183.608Z" fill="url(#paint17_linear_548_4469)"/>
<path d="M201.023 183.608C200.934 181.369 199.575 179.489 197.424 179.371H194.839C192.688 179.489 191.333 181.369 191.24 183.608L191.088 187.353H201.191L201.023 183.608Z" fill="url(#paint18_linear_548_4469)"/>
<path d="M312.772 193.381C312.924 188.676 315.479 182.547 324.593 183.103C332.511 183.585 336.333 189.263 334.447 196.588C334.409 196.742 312.772 193.381 312.772 193.381Z" fill="url(#paint19_linear_548_4469)"/>
<path d="M155.795 202.726H186.293C188.409 202.726 190.124 200.941 190.124 198.74V196.115C190.124 193.913 188.409 192.129 186.293 192.129H155.795C153.68 192.129 151.965 193.913 151.965 196.115V198.74C151.965 200.941 153.68 202.726 155.795 202.726Z" fill="url(#paint20_linear_548_4469)"/>
<path d="M340.661 192.128H310.163C308.047 192.128 306.332 193.913 306.332 196.115V198.739C306.332 200.941 308.047 202.726 310.163 202.726H340.661C342.776 202.726 344.491 200.941 344.491 198.739V196.115C344.491 193.913 342.776 192.128 340.661 192.128Z" fill="url(#paint21_linear_548_4469)"/>
<path d="M312.369 191.235C315.736 187.292 320.485 186.854 324.454 186.779C328.424 186.705 334.755 189.469 335.041 193.11C335.327 196.75 335.799 200.584 335.041 202.358C334.283 204.132 331.252 207.672 328.521 205.604C328.521 205.604 326.795 208.075 324.597 205.972C324.231 207.541 321.625 208.43 320.203 207.028C320.203 207.028 319.083 209.188 317.176 209.188C314.452 209.188 314.419 198.958 314.229 192.133H311.813L312.369 191.235Z" fill="#C39873"/>
<path d="M189.569 189.833H183.675C181.785 189.833 180.253 193.631 180.253 197.644C180.253 201.657 181.322 205.022 182.412 205.131C183.503 205.241 188.706 205.131 188.706 205.131L189.569 189.833Z" fill="url(#paint22_linear_548_4469)"/>
<path d="M306.888 189.833H312.781C314.671 189.833 316.203 193.631 316.203 197.644C316.203 201.657 315.134 205.022 314.044 205.131C312.954 205.241 307.751 205.131 307.751 205.131L306.888 189.833Z" fill="url(#paint23_linear_548_4469)"/>
<path d="M192.92 188.536H187.026C185.136 188.536 183.604 192.974 183.604 197.666C183.604 202.358 184.673 206.288 185.763 206.428C186.854 206.568 192.057 206.428 192.057 206.428L192.92 188.536Z" fill="url(#paint24_linear_548_4469)"/>
<path d="M303.537 188.536H309.43C311.321 188.536 312.853 192.974 312.853 197.666C312.853 202.358 311.784 206.288 310.693 206.428C309.603 206.568 304.4 206.428 304.4 206.428L303.537 188.536Z" fill="url(#paint25_linear_548_4469)"/>
<path d="M240.087 115.14C245.673 120.932 267.567 124.778 276.63 113.02L270.555 97.4361L245.075 95.5522L240.087 115.14Z" fill="#C39873"/>
<path d="M250.32 122.04C250.32 122.04 250.253 125.361 249.272 131.933C248.009 140.428 245.391 150.951 242.684 161.246C226.688 160.462 218.745 155.915 215.276 153.028C215.23 148.647 214.923 145.9 214.923 145.9L214.754 146.075C214.413 146.434 213.559 147.31 212.308 148.48C207.56 134.15 197.996 129.931 197.996 129.931V113.545C207.063 104.888 212.607 99.1186 218.753 98.571C220.248 98.4396 222.251 98.4001 224.428 98.4133C231.184 98.4571 239.582 99.0398 239.582 99.0398L250.32 122.04Z" fill="url(#paint26_linear_548_4469)"/>
<path d="M250.32 122.04C251.015 118.444 251.537 111.316 250.889 109.944C248.872 105.664 240.87 90.085 240.87 90.085C239.234 90.6602 237.803 91.7363 236.764 93.1723C235.725 94.6083 235.127 96.3373 235.048 98.133C234.636 104.569 239.548 123.644 250.32 122.04Z" fill="url(#paint27_linear_548_4469)"/>
<path d="M336.236 131.276C325.367 133.865 316.969 143.451 309.594 152.419L308.938 153.216C308.536 153.707 308.115 154.175 307.675 154.622C299.971 162.657 287.785 164.318 275.842 163.148C268.539 141.681 267.171 132.069 265.857 123.131L279.985 98.4702C279.985 98.4702 297.782 97.3005 307.469 101.073L307.662 101.147C307.856 101.223 308.045 101.302 308.23 101.384C313.08 103.495 325.713 118.141 336.236 131.276Z" fill="url(#paint28_linear_548_4469)"/>
<path d="M336.237 131.275C325.368 133.865 316.97 143.45 309.595 152.418L307.911 150.434C308.559 141.233 310.015 111.907 307.49 101.072L307.683 101.147C307.877 101.223 308.066 101.302 308.252 101.383C313.08 103.495 325.713 118.141 336.237 131.275Z" fill="url(#paint29_linear_548_4469)"/>
<path d="M243.669 96.8139C251.537 108.467 256.664 111.061 271.915 108.108L266.898 88.2839L243.669 96.8139Z" fill="#9E7150"/>
<path d="M265.874 123.126C276.47 121.076 284.148 105.335 281.029 93.3353L272.42 89.4624C272.42 89.4624 271.023 95.4864 268.463 98.2859C265.904 101.085 262.376 107.136 265.874 123.126Z" fill="url(#paint30_linear_548_4469)"/>
<path d="M235.022 59.8952C234.879 60.1055 235.915 97.7739 249.756 103.338C264.152 109.116 271.157 95.9557 276.617 85.0951C282.076 74.2344 279.744 51.4617 279.744 51.4617C279.744 51.4617 239.724 41.0216 235.022 59.8952Z" fill="#C39873"/>
<path d="M237.704 65.1215C237.564 65.1223 237.427 65.074 237.315 64.9844C237.204 64.8948 237.124 64.769 237.089 64.627C237.055 64.485 237.066 64.3349 237.123 64.2007C237.179 64.0664 237.277 63.9557 237.401 63.8861C241.948 61.2881 247.037 62.3571 248.46 62.9354C248.607 63.0051 248.722 63.1307 248.783 63.2864C248.843 63.442 248.845 63.6159 248.786 63.7724C248.727 63.9288 248.613 64.056 248.467 64.1276C248.321 64.1993 248.154 64.2101 248.001 64.1577C246.389 63.5049 241.826 62.8434 238.008 65.0339C237.915 65.0893 237.811 65.1194 237.704 65.1215Z" fill="#654B1E"/>
<path d="M286.21 89.4759C283.436 96.8842 279.433 101.147 274.331 98.7593C269.229 96.3716 269.877 91.5393 270.542 87.9118C271.208 84.2843 275.973 78.3129 276.916 74.8869C277.859 71.4609 275.771 63.4524 274.028 61.6386C272.992 60.5609 266.451 57.5379 256.723 57.2575C245.487 56.9465 239.043 59.2728 239.043 59.2728C238.622 85.8264 240.512 91.627 243.126 97.0244C230.649 95.2194 230.194 77.8354 232.135 62.0942C232.588 58.1287 233.551 54.2445 234.997 50.5458C239.476 39.4222 248.253 33.2668 260.027 33.2668C274.268 33.2668 286.097 43.2732 289.191 56.631C289.683 58.7509 289.949 60.9211 289.982 63.1019C290.214 79.579 288.989 82.0631 286.21 89.4759Z" fill="url(#paint31_linear_548_4469)"/>
<path d="M190.777 90.2861C188.592 92.516 181.937 92.9892 179.222 91.6004C179.108 91.5434 179.003 91.4821 178.906 91.4208C176.46 89.8436 158.077 78.0103 150.795 74.1156C147.482 72.3412 151.704 69.5855 153.544 70.3391C154.175 66.5626 157.951 67.1584 163.529 71.4081C162.337 69.016 164.69 66.3479 166.976 67.9602C169.009 69.3972 178.99 78.317 178.99 78.317C172.562 70.5538 176.536 70.4749 177.845 71.3555C180.005 72.8013 183.12 76.7179 183.12 76.7179C186.146 77.2875 188.55 78.2294 190.276 79.421C194.283 82.2118 194.654 86.3343 190.777 90.2861Z" fill="#C39873"/>
<path d="M162.931 81.7694C162.855 81.7694 162.781 81.7482 162.716 81.7081C157.176 78.2777 153.102 75.8637 150.601 74.5231C148.804 73.5593 149.09 72.3326 149.296 71.8682C149.856 70.5758 151.822 69.6119 153.224 69.8222C153.311 69.3417 153.51 68.8908 153.804 68.5089C154.097 68.127 154.476 67.8258 154.908 67.6317C156.591 66.922 159.307 67.8595 162.796 70.3392C162.755 69.8563 162.823 69.3702 162.994 68.9193C163.165 68.4683 163.435 68.065 163.781 67.7412C164.248 67.3074 164.845 67.0561 165.47 67.0305C166.096 67.0049 166.71 67.2066 167.208 67.601C169.237 69.0336 178.851 77.6249 179.26 77.9885C179.302 78.0259 179.336 78.0716 179.361 78.1229C179.386 78.1741 179.401 78.2301 179.406 78.2874C179.41 78.3448 179.403 78.4025 179.386 78.4572C179.369 78.5119 179.342 78.5625 179.306 78.6063C179.27 78.65 179.226 78.6859 179.177 78.712C179.128 78.7381 179.074 78.7538 179.019 78.7583C178.964 78.7628 178.908 78.7559 178.856 78.7381C178.803 78.7203 178.754 78.6919 178.712 78.6545C178.611 78.5668 168.723 69.7302 166.736 68.3283C166.393 68.0444 165.965 67.8958 165.526 67.9086C165.088 67.9215 164.668 68.0949 164.341 68.3984C163.977 68.749 163.736 69.2161 163.656 69.7256C163.575 70.2352 163.661 70.758 163.899 71.211C163.944 71.2989 163.958 71.3998 163.94 71.4974C163.922 71.595 163.873 71.6833 163.801 71.748C163.729 71.8126 163.637 71.8498 163.542 71.8533C163.446 71.8569 163.353 71.8266 163.276 71.7674C159.618 68.9811 156.76 67.7982 155.227 68.4466C154.546 68.7313 154.133 69.3797 153.965 70.4181C153.954 70.4821 153.93 70.5428 153.894 70.5959C153.858 70.6489 153.811 70.693 153.756 70.7249C153.702 70.7567 153.641 70.7756 153.579 70.7801C153.517 70.7847 153.454 70.7747 153.396 70.751C152.437 70.3567 150.509 71.1891 150.071 72.2143C149.831 72.7663 150.142 73.2745 150.993 73.7301C153.518 75.0751 157.597 77.5022 163.154 80.9414C163.233 80.9904 163.295 81.0651 163.33 81.1541C163.364 81.2431 163.37 81.3414 163.345 81.434C163.321 81.5266 163.268 81.6082 163.195 81.6665C163.121 81.7247 163.032 81.7562 162.939 81.7562L162.931 81.7694Z" fill="#875D3E"/>
<path d="M321.966 208.163C321.204 208.177 320.466 207.883 319.908 207.344C319.868 207.304 319.835 207.256 319.813 207.204C319.791 207.151 319.778 207.094 319.777 207.037C319.776 206.979 319.785 206.922 319.805 206.868C319.825 206.815 319.855 206.765 319.893 206.724C319.931 206.682 319.977 206.648 320.027 206.625C320.078 206.602 320.132 206.589 320.188 206.588C320.243 206.586 320.298 206.596 320.35 206.617C320.401 206.638 320.449 206.669 320.489 206.708C320.796 206.983 321.168 207.168 321.567 207.245C321.965 207.321 322.376 207.288 322.758 207.146C323.083 207.071 323.385 206.911 323.636 206.681C323.886 206.451 324.076 206.159 324.189 205.832C324.206 205.758 324.242 205.69 324.292 205.634C324.342 205.579 324.406 205.538 324.476 205.516C324.546 205.494 324.621 205.491 324.692 205.508C324.763 205.525 324.829 205.561 324.883 205.613C325.098 205.852 325.359 206.04 325.65 206.165C325.94 206.29 326.253 206.348 326.567 206.336C327.21 206.214 327.786 205.847 328.184 205.306C328.249 205.213 328.348 205.151 328.457 205.133C328.567 205.115 328.679 205.143 328.769 205.21C329.085 205.461 329.454 205.631 329.845 205.708C330.236 205.784 330.639 205.763 331.021 205.648C332.679 205.184 334.17 203.278 334.658 202.143C334.68 202.091 334.712 202.043 334.752 202.003C334.792 201.964 334.84 201.933 334.891 201.912C334.943 201.891 334.998 201.881 335.053 201.882C335.108 201.884 335.163 201.897 335.213 201.92C335.264 201.943 335.31 201.977 335.348 202.018C335.386 202.06 335.416 202.109 335.436 202.163C335.456 202.216 335.465 202.274 335.464 202.331C335.463 202.389 335.451 202.445 335.428 202.498C334.86 203.812 333.185 205.955 331.24 206.498C330.799 206.632 330.337 206.669 329.882 206.608C329.427 206.547 328.989 206.389 328.596 206.143C328.086 206.722 327.399 207.098 326.651 207.208C325.977 207.266 325.305 207.063 324.766 206.638C324.352 207.288 323.722 207.756 322.997 207.953C322.665 208.074 322.318 208.145 321.966 208.163Z" fill="#875D3E"/>
<path d="M320.198 207.462C320.117 207.462 320.038 207.437 319.971 207.392C319.878 207.329 319.813 207.231 319.79 207.119C319.766 207.006 319.786 206.889 319.844 206.792C320.227 206.021 320.097 198.441 319.781 191.694C319.776 191.578 319.815 191.465 319.89 191.378C319.965 191.292 320.07 191.24 320.181 191.234C320.293 191.229 320.402 191.269 320.485 191.347C320.568 191.425 320.618 191.534 320.623 191.651C320.783 195.033 321.25 206.152 320.556 207.265C320.517 207.326 320.464 207.377 320.401 207.411C320.339 207.446 320.269 207.463 320.198 207.462Z" fill="#875D3E"/>
<path d="M324.593 206.406C324.525 206.407 324.459 206.39 324.399 206.358C324.339 206.326 324.287 206.28 324.248 206.223C324.209 206.166 324.183 206.1 324.174 206.03C324.164 205.961 324.171 205.89 324.193 205.824C324.862 203.808 325.304 195.261 324.955 191.068C324.945 190.952 324.981 190.837 325.053 190.748C325.125 190.658 325.228 190.603 325.34 190.593C325.452 190.583 325.563 190.62 325.648 190.695C325.734 190.77 325.787 190.878 325.797 190.994C326.155 195.261 325.687 204.019 324.993 206.108C324.965 206.195 324.911 206.271 324.839 206.324C324.767 206.378 324.681 206.407 324.593 206.406Z" fill="#875D3E"/>
<path d="M328.516 206.038C328.434 206.039 328.353 206.014 328.284 205.968C328.216 205.921 328.161 205.855 328.128 205.777C328.095 205.698 328.084 205.612 328.098 205.527C328.112 205.443 328.149 205.365 328.205 205.302C329.141 204.172 329.855 202.862 330.309 201.447C330.452 200.952 330.465 196.277 330.402 192.133C330.402 192.016 330.446 191.905 330.525 191.823C330.604 191.741 330.711 191.695 330.823 191.695C330.935 191.695 331.042 191.741 331.121 191.823C331.199 191.905 331.244 192.016 331.244 192.133C331.273 194.205 331.358 201.017 331.105 201.771C330.61 203.298 329.832 204.709 328.815 205.924C328.734 206.001 328.626 206.042 328.516 206.038Z" fill="#875D3E"/>
<path d="M115.932 389.797C115.78 389.85 110.485 395.524 104.941 401.504C98.7317 408.194 92.2111 415.26 92.2111 415.26L85.0802 420.439L78.6565 410.721L78.1177 397.626L92.9857 380.54L97.6793 375.143C97.6793 375.143 116.256 389.684 115.932 389.797Z" fill="#C39873"/>
<path d="M92.2106 415.26C90.5521 419.457 89.9332 420.855 87.6559 423.549C86.6414 424.75 84.3388 427.61 81.9731 430.449C79.9693 432.85 77.9277 435.229 76.5891 436.583C76.2105 437.029 75.7551 437.398 75.2463 437.669C73.8992 437.994 64.592 430.66 61.3843 424.088C58.1767 417.516 55.912 413.096 52.9022 409.985C40.4125 397.109 39.1412 392.864 38.2362 388.426C37.3312 383.988 37.4027 377.386 38.2446 376.072C38.4523 375.746 38.6816 375.435 38.9308 375.143C40.0421 373.829 42.231 371.818 45.0261 371.914C46.4405 371.958 48.0107 372.536 49.6566 373.999C55.5499 379.187 55.9119 382.963 58.3619 383.813C60.8118 384.663 78.0371 389.285 80.3019 389.946C82.5666 390.608 83.9305 394.766 83.2948 397.683C82.6592 400.601 84.886 413.311 92.2106 415.26Z" fill="url(#paint32_linear_548_4469)"/>
<path d="M81.9731 430.449C79.9693 432.85 77.9277 435.229 76.5891 436.583C76.2105 437.029 75.7551 437.398 75.2463 437.669C73.8992 437.994 64.592 430.66 61.3843 424.088C58.1767 417.516 55.912 413.096 52.9022 409.985C40.4125 397.109 39.1412 392.864 38.2362 388.426C37.3312 383.988 37.4027 377.386 38.2446 376.072C38.4523 375.746 38.6816 375.435 38.9308 375.143C40.0421 373.829 42.231 371.818 45.0261 371.914C48.6211 378.924 51.5846 386.888 55.4994 394.056C64.4615 410.494 76.1766 421.306 81.9731 430.449Z" fill="url(#paint33_linear_548_4469)"/>
<path opacity="0.15" d="M81.9731 430.449C79.9693 432.85 77.9277 435.229 76.5891 436.583C76.2105 437.029 75.7551 437.398 75.2463 437.669C73.8992 437.994 64.592 430.66 61.3843 424.088C58.1767 417.516 55.912 413.096 52.9022 409.985C40.4125 397.109 39.1412 392.864 38.2362 388.426C37.3312 383.988 37.4027 377.386 38.2446 376.072C38.4523 375.746 38.6816 375.435 38.9308 375.143C40.0421 373.829 42.231 371.818 45.0261 371.914C48.6211 378.924 51.5846 386.888 55.4994 394.056C64.4615 410.494 76.1766 421.306 81.9731 430.449Z" fill="url(#paint34_linear_548_4469)"/>
<path d="M115.931 389.797C115.78 389.85 110.484 395.524 104.94 401.504C103.379 391.191 96.2434 383.541 92.9727 380.54L97.6662 375.143C97.6662 375.143 116.255 389.684 115.931 389.797Z" fill="#9E7150"/>
<path d="M88.6328 375.739C88.6328 376.313 93.2928 374.425 107.395 389.141C116.761 398.902 119.181 404.518 118.424 405.412C126.683 394.761 147.692 366.534 180.884 319.775L187.169 243.256C187.169 243.256 147.882 285.41 145.621 289.06C117.531 334.452 88.6076 372.523 88.6328 375.739Z" fill="url(#paint35_linear_548_4469)"/>
<path d="M428.816 380.015C427.554 406.481 414.925 399.046 414.925 399.046L407.891 390.897L399.51 381.189L413.7 366.486L418.865 371.104L428.816 380.015Z" fill="#C39873"/>
<path d="M418.852 371.125C415.312 375.252 410.551 382.017 407.878 390.919L399.497 381.211L413.687 366.508L418.852 371.125Z" fill="#9E7150"/>
<path d="M468.322 373.211C468.276 373.465 468.23 373.719 468.184 373.982C467.936 375.227 467.53 376.432 466.975 377.566C463.469 385.014 454.347 392.729 452.663 394.915C450.668 397.469 450.672 398.647 447.553 405.293C444.433 411.939 435.652 421.42 432.255 421.429C431.986 421.429 431.561 421.166 431.014 420.697C429.612 419.501 427.44 416.991 425.301 414.389C422.199 410.595 419.164 406.599 418.671 406.135C417.707 405.228 416.297 402.235 414.979 399.151C422.22 397.486 424.266 386.306 423.992 382.941C423.718 379.577 424.337 375.695 427.044 374.683C429.751 373.671 448.811 368.217 449.422 368.028C450.032 367.84 454.629 360.287 457.239 357.825C458.325 356.799 460.185 356.572 462.084 356.799C464.732 357.115 467.438 358.307 468.154 359.428L468.209 359.516C469.324 361.417 469.678 365.474 468.322 373.211Z" fill="url(#paint36_linear_548_4469)"/>
<path d="M468.323 373.211C468.277 373.465 468.23 373.719 468.184 373.982C467.936 375.227 467.53 376.432 466.976 377.566C463.469 385.013 454.347 392.728 452.664 394.915C450.668 397.469 450.672 398.647 447.553 405.293C444.434 411.939 435.653 421.42 432.256 421.429C431.986 421.429 431.561 421.166 431.014 420.697C429.612 419.501 427.44 416.991 425.302 414.388C430.66 404.18 437.438 398.656 443.07 391.681C454.272 377.815 457.324 362.587 462.084 356.808C464.732 357.124 467.439 358.315 468.155 359.437L468.209 359.524C469.325 361.417 469.678 365.474 468.323 373.211Z" fill="url(#paint37_linear_548_4469)"/>
<path opacity="0.15" d="M468.323 373.211C468.277 373.465 468.23 373.719 468.184 373.982C467.936 375.227 467.53 376.432 466.976 377.566C463.469 385.013 454.347 392.728 452.664 394.915C450.668 397.469 450.672 398.647 447.553 405.293C444.434 411.939 435.653 421.42 432.256 421.429C431.986 421.429 431.561 421.166 431.014 420.697C429.612 419.501 427.44 416.991 425.302 414.388C430.66 404.18 437.438 398.656 443.07 391.681C454.272 377.815 457.324 362.587 462.084 356.808C464.732 357.124 467.439 358.315 468.155 359.437L468.209 359.524C469.325 361.417 469.678 365.474 468.323 373.211Z" fill="url(#paint38_linear_548_4469)"/>
<path d="M468.323 373.211C467.902 374.591 467.481 376.054 466.976 377.566C463.469 385.013 454.347 392.728 452.663 394.915C450.668 397.469 450.672 398.647 447.553 405.293C444.434 411.939 435.653 421.42 432.255 421.429C431.986 421.429 431.561 421.166 431.014 420.697C434.099 412.373 444.215 403.449 445.941 399.992C447.477 396.926 457.134 384.19 460.169 374.21C462.854 365.382 464.315 358.639 468.209 359.516C469.324 361.417 469.678 365.474 468.323 373.211Z" fill="url(#paint39_linear_548_4469)"/>
<path d="M396.5 393.754C397.43 387.62 405.79 379.962 410.741 374.915C415.691 369.868 419.842 367.441 421.02 368.782C421.02 368.782 420.216 367.686 416.39 363.432C412.563 359.178 371.929 306.847 365.114 299.627C358.298 292.407 308.02 242.007 308.02 242.007L316.595 311.061C316.595 311.061 362.798 356.83 396.5 393.754Z" fill="url(#paint40_linear_548_4469)"/>
<path d="M319.984 383.27C318.115 411.159 318.674 432.968 299.029 437.643C292.066 439.299 283.656 441.008 275.695 442.519C257.534 445.967 238.923 445.967 220.761 442.519C212.805 441.008 204.395 439.299 197.428 437.643C177.782 432.968 178.342 411.159 176.473 383.27C174.604 355.38 176.098 300.161 179.091 273.485C182.084 246.808 182.274 238.822 191.252 232.202C201.048 224.982 216.998 221.635 231.554 220.303C237.519 219.755 243.253 219.545 248.228 219.545C256.744 219.545 267.478 220.158 277.813 222.029C288.244 223.917 298.267 227.085 305.204 232.202C314.183 238.822 314.372 246.808 317.365 273.485C320.358 300.161 321.857 355.375 319.984 383.27Z" fill="url(#paint41_linear_548_4469)"/>
<path d="M272.315 421.823C272.284 421.505 272.255 421.189 272.227 420.877H224.238C224.207 421.186 224.178 421.502 224.15 421.823C223.018 432.029 222.47 442.296 222.508 452.569C222.508 453.533 222.508 454.493 222.508 455.448V455.531C222.765 483.202 226.629 505.712 231.592 509.549C232.1 509.772 232.618 509.967 233.146 510.132C234.672 510.609 236.258 510.85 237.852 510.846H258.617C260.211 510.85 261.797 510.609 263.324 510.132C263.847 509.969 264.361 509.778 264.864 509.558C269.827 505.72 273.704 483.21 273.949 455.54V455.456C273.949 454.501 273.949 453.542 273.949 452.578C273.99 442.302 273.445 432.032 272.315 421.823Z" fill="url(#paint42_linear_548_4469)"/>
<path d="M243.719 452.569C243.719 484.306 238.984 510.036 233.141 510.123C232.618 509.96 232.104 509.769 231.6 509.549C226.637 505.712 222.76 483.202 222.516 455.531V455.448C222.516 454.493 222.516 453.533 222.516 452.569C222.478 442.296 223.026 432.029 224.158 421.823C224.191 421.508 224.234 421.192 224.267 420.877H241.985C243.188 431.394 243.767 441.978 243.719 452.569Z" fill="url(#paint43_linear_548_4469)"/>
<path d="M233.175 489.138C236.897 489.138 239.914 472.766 239.914 452.569C239.914 432.373 236.897 416.001 233.175 416.001C229.453 416.001 226.436 432.373 226.436 452.569C226.436 472.766 229.453 489.138 233.175 489.138Z" fill="url(#paint44_linear_548_4469)"/>
<path d="M283.163 346.504H213.285C211.834 346.504 210.442 347.104 209.415 348.172C208.389 349.24 207.812 350.689 207.812 352.199V371.253C207.815 372.686 208.336 374.065 209.272 375.116C210.209 376.167 211.491 376.811 212.864 376.922L248.224 379.8L283.584 376.922C284.957 376.811 286.239 376.167 287.175 375.116C288.112 374.065 288.633 372.686 288.635 371.253V352.208C288.636 351.459 288.496 350.718 288.221 350.026C287.947 349.334 287.544 348.705 287.035 348.175C286.527 347.645 285.923 347.225 285.259 346.938C284.594 346.652 283.882 346.504 283.163 346.504Z" fill="url(#paint45_linear_548_4469)"/>
<path d="M299.374 184.545C290.21 184.365 285.823 185.78 279.93 181.522C271.553 175.463 265.618 161.023 248.666 160.541V160.524H248.245H247.824C230.881 161.01 224.937 175.45 216.56 181.505C210.667 185.763 206.284 184.352 197.116 184.528C191.156 184.641 186.984 188.317 187.013 197.373C187.043 206.428 189.089 209.999 193.749 209.999C197.415 209.999 224.806 209.175 224.806 209.175C224.806 209.175 227.429 270.624 228.086 282.23C228.742 293.835 231.529 304.407 248.207 304.42H248.237C264.919 304.42 267.706 293.831 268.358 282.23C269.01 270.629 271.637 209.175 271.637 209.175C271.637 209.175 299.024 209.999 302.695 209.999C307.372 209.999 309.397 206.428 309.43 197.373C309.464 188.317 305.33 184.659 299.374 184.545Z" fill="url(#paint46_linear_548_4469)"/>
<path d="M444.021 35.3129C441.64 35.3129 439.312 34.578 437.333 33.2012C435.353 31.8244 433.81 29.8675 432.898 27.578C431.987 25.2884 431.749 22.7691 432.213 20.3386C432.678 17.908 433.824 15.6754 435.508 13.9231C437.192 12.1708 439.337 10.9774 441.672 10.4939C444.008 10.0105 446.428 10.2586 448.628 11.207C450.828 12.1553 452.708 13.7613 454.031 15.8218C455.354 17.8823 456.06 20.3049 456.06 22.783C456.057 26.1051 454.788 29.2901 452.53 31.6391C450.273 33.9882 447.213 35.3094 444.021 35.3129Z" fill="url(#paint47_linear_548_4469)"/>
<path d="M444.021 72.1664C441.64 72.1664 439.312 71.4315 437.333 70.0547C435.353 68.6779 433.81 66.721 432.898 64.4315C431.987 62.142 431.749 59.6226 432.213 57.1921C432.678 54.7615 433.824 52.5289 435.508 50.7766C437.192 49.0243 439.337 47.8309 441.672 47.3475C444.008 46.864 446.428 47.1121 448.628 48.0605C450.828 49.0088 452.708 50.6148 454.031 52.6753C455.354 54.7358 456.06 57.1584 456.06 59.6365C456.057 62.9586 454.788 66.1436 452.53 68.4926C450.273 70.8417 447.213 72.1629 444.021 72.1664Z" fill="url(#paint48_linear_548_4469)"/>
<path d="M444.021 109.016C441.64 109.016 439.312 108.281 437.333 106.904C435.353 105.527 433.81 103.57 432.898 101.281C431.987 98.9913 431.749 96.472 432.213 94.0415C432.678 91.6109 433.824 89.3783 435.508 87.626C437.192 85.8736 439.337 84.6803 441.672 84.1968C444.008 83.7134 446.428 83.9615 448.628 84.9098C450.828 85.8582 452.708 87.4642 454.031 89.5247C455.354 91.5852 456.06 94.0077 456.06 96.4859C456.057 99.8079 454.788 102.993 452.53 105.342C450.273 107.691 447.213 109.012 444.021 109.016Z" fill="url(#paint49_linear_548_4469)"/>
<path d="M76.5891 436.561C76.2105 437.007 75.7551 437.376 75.2463 437.647C73.8992 437.972 64.592 430.638 61.3843 424.066C58.1767 417.495 55.912 413.074 52.9022 409.963C40.4125 397.088 39.1412 392.842 38.2362 388.404C37.3312 383.966 37.4027 377.386 38.2446 376.072C38.4523 375.746 38.6816 375.435 38.9308 375.143C41.1744 375.818 42.6899 377.439 43.7633 381.246C45.4471 387.195 47.3119 396.233 53.9124 404.789C60.5129 413.346 63.0765 419.396 69.7781 426.16C73.7477 430.169 75.6756 434.064 76.5891 436.561Z" fill="url(#paint50_linear_548_4469)"/>
<path d="M308.496 274.799C310.049 275.631 310.575 278.79 310.575 283.035C310.575 287.281 311.085 310.851 310.575 312.126C310.066 313.401 301.087 314.886 300.27 312.976C299.454 311.065 300.371 292.91 301.495 285.585C302.619 278.26 305.726 273.309 308.496 274.799Z" fill="url(#paint51_linear_548_4469)"/>
<path d="M187.961 274.799C186.407 275.631 185.881 278.79 185.881 283.035C185.881 287.281 185.372 310.851 185.881 312.126C186.391 313.401 195.369 314.886 196.186 312.976C197.003 311.065 196.085 292.91 194.961 285.585C193.837 278.26 190.735 273.309 187.961 274.799Z" fill="url(#paint52_linear_548_4469)"/>
<path d="M248.228 296.713C254.963 296.713 260.423 291.031 260.423 284.021C260.423 277.012 254.963 271.329 248.228 271.329C241.493 271.329 236.033 277.012 236.033 284.021C236.033 291.031 241.493 296.713 248.228 296.713Z" fill="url(#paint53_linear_548_4469)"/>
<path d="M248.228 210.586C260.559 210.586 270.555 200.182 270.555 187.349C270.555 174.515 260.559 164.112 248.228 164.112C235.897 164.112 225.9 174.515 225.9 187.349C225.9 200.182 235.897 210.586 248.228 210.586Z" fill="url(#paint54_linear_548_4469)"/>
<path d="M261.391 177.307C261.095 177.307 260.802 177.242 260.531 177.116C260.261 176.99 260.019 176.806 259.821 176.576C258.413 174.934 256.697 173.609 254.78 172.681C252.862 171.754 250.783 171.243 248.669 171.181C246.555 171.118 244.452 171.506 242.487 172.319C240.522 173.132 238.737 174.354 237.241 175.91C236.844 176.309 236.313 176.53 235.761 176.525C235.209 176.52 234.681 176.289 234.291 175.883C233.901 175.477 233.679 174.927 233.674 174.353C233.67 173.779 233.882 173.225 234.265 172.812C236.165 170.835 238.433 169.281 240.931 168.247C243.428 167.214 246.101 166.721 248.787 166.8C251.474 166.878 254.116 167.527 256.554 168.705C258.991 169.884 261.171 171.568 262.961 173.653C263.232 173.969 263.409 174.359 263.471 174.777C263.534 175.194 263.478 175.622 263.312 176.008C263.146 176.393 262.877 176.721 262.536 176.951C262.195 177.181 261.797 177.303 261.391 177.303V177.307Z" fill="url(#paint55_linear_548_4469)"/>
<path d="M248.228 207.904C244.982 207.907 241.786 207.077 238.922 205.486C236.059 203.896 233.616 201.595 231.811 198.787C231.647 198.549 231.531 198.279 231.47 197.993C231.408 197.707 231.403 197.411 231.453 197.123C231.503 196.834 231.609 196.559 231.763 196.314C231.917 196.069 232.117 195.859 232.351 195.695C232.585 195.532 232.848 195.419 233.124 195.364C233.4 195.308 233.685 195.311 233.96 195.371C234.236 195.432 234.497 195.55 234.728 195.717C234.959 195.885 235.155 196.099 235.305 196.347C236.68 198.482 238.525 200.246 240.686 201.491C242.847 202.737 245.261 203.428 247.73 203.509C250.199 203.589 252.651 203.056 254.882 201.954C257.114 200.852 259.061 199.212 260.562 197.171C260.901 196.71 261.403 196.407 261.956 196.331C262.51 196.255 263.07 196.41 263.513 196.763C263.956 197.117 264.246 197.639 264.32 198.215C264.393 198.791 264.244 199.373 263.904 199.835C262.069 202.35 259.698 204.388 256.978 205.788C254.258 207.188 251.263 207.913 248.228 207.904Z" fill="url(#paint56_linear_548_4469)"/>
<path d="M354.969 161.36C363.719 161.36 370.813 153.977 370.813 144.87C370.813 135.763 363.719 128.38 354.969 128.38C346.218 128.38 339.124 135.763 339.124 144.87C339.124 153.977 346.218 161.36 354.969 161.36Z" fill="url(#paint57_linear_548_4469)"/>
<path d="M141.492 161.36C150.243 161.36 157.337 153.977 157.337 144.87C157.337 135.763 150.243 128.38 141.492 128.38C132.741 128.38 125.647 135.763 125.647 144.87C125.647 153.977 132.741 161.36 141.492 161.36Z" fill="url(#paint58_linear_548_4469)"/>
<path d="M268.989 210.555C268.851 210.556 268.716 210.509 268.606 210.422C268.495 210.334 268.416 210.212 268.379 210.073C268.342 209.934 268.35 209.786 268.402 209.653C268.453 209.519 268.546 209.407 268.665 209.333C269.582 208.764 270.638 208.487 271.704 208.536C271.872 208.551 272.027 208.636 272.134 208.77C272.242 208.904 272.294 209.078 272.279 209.252C272.264 209.426 272.183 209.587 272.054 209.699C271.925 209.811 271.758 209.866 271.591 209.85C270.791 209.827 270.002 210.04 269.313 210.463C269.215 210.524 269.103 210.556 268.989 210.555Z" fill="#308B85"/>
<path d="M248.215 215.431C248.048 215.431 247.887 215.362 247.769 215.239C247.651 215.115 247.584 214.948 247.584 214.774C247.584 214.6 247.651 214.433 247.769 214.309C247.887 214.186 248.048 214.117 248.215 214.117C253.595 214.117 261.185 213 272.21 204.299C272.275 204.243 272.351 204.202 272.433 204.177C272.514 204.152 272.6 204.145 272.684 204.156C272.768 204.166 272.849 204.194 272.923 204.238C272.997 204.282 273.061 204.341 273.112 204.411C273.163 204.482 273.2 204.562 273.221 204.648C273.242 204.733 273.246 204.822 273.233 204.91C273.22 204.997 273.19 205.081 273.145 205.155C273.1 205.23 273.041 205.295 272.972 205.346C261.648 214.283 253.772 215.431 248.215 215.431Z" fill="#308B85"/>
<path d="M227.467 210.555C227.353 210.556 227.24 210.524 227.142 210.463C226.454 210.04 225.665 209.827 224.865 209.85C224.698 209.866 224.531 209.811 224.402 209.699C224.273 209.587 224.192 209.426 224.177 209.252C224.162 209.078 224.214 208.904 224.322 208.77C224.429 208.636 224.584 208.551 224.752 208.536C225.818 208.487 226.874 208.764 227.791 209.333C227.91 209.407 228.002 209.519 228.054 209.653C228.106 209.786 228.114 209.934 228.077 210.073C228.04 210.212 227.961 210.334 227.85 210.422C227.74 210.509 227.605 210.556 227.467 210.555Z" fill="#308B85"/>
<path d="M248.245 215.431C242.668 215.431 234.813 214.283 223.481 205.355C223.411 205.304 223.352 205.239 223.307 205.164C223.263 205.089 223.233 205.006 223.22 204.918C223.206 204.831 223.21 204.742 223.231 204.657C223.252 204.571 223.289 204.49 223.34 204.42C223.391 204.35 223.456 204.291 223.529 204.247C223.603 204.203 223.684 204.175 223.768 204.164C223.853 204.154 223.938 204.161 224.019 204.186C224.101 204.21 224.177 204.252 224.243 204.308C235.271 213.013 242.861 214.126 248.237 214.126C248.404 214.126 248.565 214.195 248.683 214.318C248.802 214.441 248.868 214.608 248.868 214.783C248.868 214.957 248.802 215.124 248.683 215.247C248.565 215.371 248.404 215.44 248.237 215.44L248.245 215.431Z" fill="#308B85"/>
<path d="M214.923 146.552C214.767 146.552 214.617 146.492 214.501 146.384C214.386 146.275 214.312 146.126 214.296 145.965C214.296 145.886 213.454 137.922 211.871 130.062C211.836 129.891 211.868 129.713 211.96 129.567C212.052 129.421 212.195 129.318 212.359 129.282C212.523 129.246 212.695 129.28 212.835 129.375C212.976 129.47 213.074 129.62 213.109 129.79C214.7 137.716 215.546 145.742 215.554 145.821C215.572 145.994 215.523 146.167 215.418 146.303C215.313 146.438 215.161 146.525 214.994 146.544L214.923 146.552Z" fill="#51823B"/>
<path d="M198.796 141.532C198.688 141.532 198.583 141.503 198.489 141.448C197.399 140.809 197.167 136.581 197.31 119.894C197.31 117.602 197.348 115.425 197.348 113.55C197.348 113.375 197.415 113.208 197.533 113.085C197.651 112.962 197.812 112.893 197.979 112.893C198.147 112.893 198.307 112.962 198.426 113.085C198.544 113.208 198.611 113.375 198.611 113.55C198.611 115.425 198.611 117.607 198.573 119.907C198.51 127.538 198.413 139.047 199.183 140.357C199.288 140.441 199.365 140.557 199.403 140.689C199.442 140.82 199.439 140.961 199.396 141.091C199.354 141.222 199.273 141.335 199.165 141.414C199.057 141.494 198.928 141.537 198.796 141.536V141.532Z" fill="#51823B"/>
<path d="M307.679 155.595H307.654C307.571 155.59 307.49 155.569 307.415 155.532C307.34 155.494 307.273 155.442 307.217 155.378C307.161 155.313 307.119 155.238 307.091 155.157C307.063 155.075 307.052 154.989 307.056 154.903C307.077 154.464 307.111 153.947 307.145 153.417C307.212 152.362 307.279 151.266 307.292 150.425C307.372 143.889 309.527 139.521 310.954 138.18C311.101 138.013 311.28 137.88 311.479 137.788C311.679 137.697 311.894 137.65 312.112 137.65C312.279 137.657 312.437 137.734 312.55 137.863C312.664 137.991 312.723 138.161 312.716 138.336C312.709 138.51 312.635 138.674 312.512 138.792C312.388 138.91 312.224 138.972 312.057 138.964C311.442 139.214 308.652 142.933 308.555 150.443C308.555 151.319 308.475 152.432 308.403 153.509C308.37 154.031 308.336 154.535 308.315 154.977C308.305 155.145 308.234 155.303 308.115 155.418C307.997 155.533 307.841 155.596 307.679 155.595Z" fill="#51823B"/>
<path d="M325.944 172.387C325.811 172.388 325.681 172.344 325.573 172.263C325.465 172.182 325.385 172.067 325.343 171.935C325.301 171.803 325.301 171.661 325.342 171.529C325.382 171.397 325.462 171.282 325.57 171.2C328.331 169.071 335.445 163.038 335.517 162.977C335.581 162.919 335.655 162.875 335.735 162.848C335.815 162.821 335.9 162.811 335.984 162.818C336.068 162.825 336.15 162.85 336.225 162.891C336.3 162.932 336.366 162.988 336.419 163.056C336.473 163.124 336.513 163.203 336.537 163.287C336.561 163.372 336.568 163.46 336.558 163.547C336.549 163.635 336.522 163.719 336.481 163.796C336.439 163.872 336.384 163.939 336.317 163.993C336.245 164.054 329.11 170.127 326.327 172.256C326.217 172.342 326.083 172.389 325.944 172.387Z" fill="#51823B"/>
<path d="M289.165 56.644C282.746 56.644 274.596 54.2782 264.405 50.1732C253.039 45.5993 243.139 46.4186 234.972 50.5587C239.451 39.4352 248.228 33.2798 260.002 33.2798C274.243 33.2798 286.071 43.2861 289.165 56.644Z" fill="url(#paint59_linear_548_4469)"/>
<path d="M268.505 68.6216C268.387 68.6218 268.271 68.5875 268.171 68.5224C268.07 68.4573 267.989 68.3642 267.937 68.2536C266.161 64.4771 261.492 62.8517 256.571 64.3106C256.41 64.3583 256.237 64.3372 256.091 64.2522C255.944 64.1672 255.836 64.0251 255.791 63.8572C255.745 63.6893 255.765 63.5093 255.847 63.3569C255.928 63.2045 256.065 63.0921 256.226 63.0445C261.728 61.4147 267.003 63.3205 269.057 67.6796C269.104 67.7799 269.126 67.8911 269.12 68.0026C269.115 68.1142 269.082 68.2224 269.025 68.3171C268.968 68.4118 268.889 68.4899 268.795 68.5439C268.701 68.598 268.596 68.6262 268.489 68.626L268.505 68.6216Z" fill="#654B1E"/>
<path d="M250.32 83.8158H250.287C249.85 83.8085 249.423 83.6836 249.047 83.4533C248.67 83.2229 248.358 82.895 248.14 82.5015C246.772 79.9912 248.948 74.804 249.946 72.6879C250.611 71.2772 250.834 70.2827 250.611 69.7395C250.434 69.3014 249.933 69.148 249.403 68.9772L249.104 68.8764C248.998 68.8398 248.91 68.7609 248.86 68.6569C248.81 68.553 248.801 68.4326 248.836 68.3222C248.872 68.2118 248.947 68.1205 249.047 68.0683C249.147 68.0162 249.263 68.0074 249.369 68.044L249.651 68.136C250.274 68.3375 251.053 68.5741 251.385 69.3846C251.718 70.1951 251.507 71.3692 250.703 73.0647C249.192 76.2629 247.921 80.3022 248.876 82.059C249.03 82.3267 249.247 82.5482 249.508 82.7018C249.768 82.8555 250.063 82.9359 250.362 82.9352C250.474 82.9399 250.579 82.9905 250.655 83.076C250.731 83.1614 250.771 83.2747 250.766 83.3909C250.762 83.5071 250.713 83.6166 250.631 83.6955C250.549 83.7744 250.44 83.8161 250.329 83.8114L250.32 83.8158Z" fill="#875D3E"/>
<path d="M254.29 90.7637C254.11 90.7637 253.932 90.755 253.755 90.7375C253.588 90.7206 253.433 90.6352 253.326 90.5001C253.219 90.3649 253.168 90.1911 253.185 90.0168C253.201 89.8425 253.283 89.682 253.413 89.5707C253.543 89.4594 253.71 89.4063 253.877 89.4231C256.963 89.7386 260.76 86.5404 261.799 84.7004C261.841 84.6259 261.897 84.5607 261.963 84.5086C262.03 84.4565 262.105 84.4185 262.185 84.3967C262.266 84.375 262.349 84.3699 262.431 84.3817C262.514 84.3936 262.593 84.4222 262.664 84.466C262.736 84.5097 262.799 84.5677 262.849 84.6366C262.899 84.7055 262.935 84.784 262.956 84.8676C262.977 84.9512 262.982 85.0383 262.971 85.1238C262.959 85.2094 262.932 85.2918 262.89 85.3663C261.589 87.6707 257.699 90.7637 254.29 90.7637Z" fill="#875D3E"/>
<path d="M261.132 72.3941C261.446 71.149 261.05 69.9619 260.247 69.7427C259.444 69.5236 258.539 70.3552 258.225 71.6003C257.911 72.8454 258.308 74.0324 259.11 74.2516C259.913 74.4708 260.818 73.6392 261.132 72.3941Z" fill="#654B1E"/>
<path d="M245.818 71.4778C246.132 70.2328 245.735 69.0457 244.932 68.8265C244.13 68.6073 243.224 69.439 242.911 70.6841C242.597 71.9292 242.993 73.1162 243.796 73.3354C244.599 73.5546 245.504 72.7229 245.818 71.4778Z" fill="#654B1E"/>
<path d="M171.783 79.0663C171.692 79.0663 171.603 79.0356 171.531 78.9787C171.493 78.9524 167.856 76.1047 163.246 71.7543C163.202 71.7169 163.165 71.6704 163.138 71.6176C163.111 71.5648 163.095 71.5069 163.09 71.4474C163.086 71.3878 163.093 71.328 163.111 71.2715C163.13 71.2149 163.159 71.1629 163.198 71.1187C163.236 71.0744 163.283 71.0388 163.335 71.014C163.388 70.9893 163.444 70.9759 163.501 70.9747C163.559 70.9735 163.616 70.9845 163.669 71.0071C163.722 71.0297 163.77 71.0633 163.81 71.1059C168.39 75.4256 171.998 78.2514 172.036 78.2777C172.106 78.3329 172.159 78.4098 172.185 78.4976C172.211 78.5853 172.21 78.6795 172.182 78.7667C172.155 78.854 172.101 78.9298 172.029 78.9836C171.958 79.0374 171.871 79.0663 171.783 79.0663Z" fill="#875D3E"/>
<path d="M167.056 79.4737C166.974 79.4743 166.893 79.4499 166.824 79.4036C166.749 79.351 159.062 74.1463 153.354 70.7641C153.306 70.7354 153.264 70.697 153.23 70.6513C153.196 70.6056 153.171 70.5533 153.157 70.4976C153.142 70.4419 153.138 70.3837 153.146 70.3265C153.153 70.2692 153.171 70.214 153.198 70.1639C153.226 70.1139 153.263 70.07 153.307 70.0347C153.351 69.9995 153.401 69.9736 153.454 69.9586C153.508 69.9435 153.564 69.9396 153.619 69.947C153.674 69.9544 153.727 69.9731 153.775 70.0018C159.513 73.3928 167.22 78.6194 167.296 78.672C167.371 78.7246 167.428 78.8011 167.458 78.8901C167.488 78.9791 167.49 79.0758 167.463 79.1659C167.436 79.256 167.382 79.3346 167.309 79.3901C167.235 79.4455 167.147 79.4748 167.056 79.4737Z" fill="#875D3E"/>
<path d="M179.828 79.6181C179.726 79.618 179.627 79.579 179.55 79.5086L176.288 76.512C176.244 76.4749 176.207 76.4288 176.18 76.3766C176.154 76.3244 176.137 76.2671 176.132 76.2082C176.128 76.1493 176.134 76.0899 176.152 76.0338C176.17 75.9776 176.198 75.9257 176.236 75.8813C176.273 75.8369 176.319 75.8009 176.37 75.7754C176.422 75.7499 176.477 75.7355 176.534 75.7331C176.591 75.7306 176.648 75.7401 176.701 75.761C176.754 75.7819 176.802 75.8138 176.843 75.8548L180.106 78.8514C180.17 78.9103 180.215 78.988 180.236 79.0743C180.256 79.1606 180.251 79.2514 180.221 79.3346C180.191 79.4178 180.137 79.4895 180.067 79.5402C179.997 79.5908 179.913 79.618 179.828 79.6181Z" fill="#875D3E"/>
<path d="M237.221 186.372C237.831 182.779 242.474 182.179 245.724 185.736C248.532 188.803 251.903 186.385 253.655 184.829C256.227 182.547 262.916 186.262 258.597 192.799C253.431 200.601 235.057 199.077 237.221 186.372Z" fill="url(#paint60_linear_548_4469)"/>
<path d="M286.4 410.244C277.943 368.746 256.129 363.923 249.356 363.441H249.166C249.166 363.441 248.834 363.41 248.236 363.415C247.638 363.419 247.306 363.441 247.306 363.441H247.116C240.343 363.923 218.546 368.742 210.073 410.178V410.244C209.655 413.35 210.025 416.516 211.145 419.428C212.265 422.339 214.097 424.896 216.458 426.844C218.858 428.828 221.405 430.725 222.971 431.299C226.612 432.614 240.103 433.976 248.228 433.976C256.352 433.976 269.86 432.636 273.485 431.299C275.046 430.725 277.597 428.828 279.997 426.844C282.362 424.898 284.197 422.342 285.32 419.43C286.443 416.518 286.815 413.352 286.4 410.244Z" fill="url(#paint61_linear_548_4469)"/>
<path d="M214.304 140.875C214.669 142.58 214.821 144.328 214.754 146.075C214.413 146.434 213.559 147.31 212.308 148.48C207.56 134.15 197.996 129.931 197.996 129.931V113.545C207.063 104.888 212.607 99.1186 218.753 98.571C220.248 98.4396 222.251 98.4001 224.428 98.4133C218.947 106.4 210.721 123.959 214.304 140.875Z" fill="url(#paint62_linear_548_4469)"/>
<path d="M449.817 123.902H438.22C438.053 123.902 437.892 123.971 437.774 124.095C437.655 124.218 437.589 124.385 437.589 124.559V315.714C437.582 315.762 437.582 315.81 437.589 315.858V315.942L438.195 315.714C442.153 314.201 446.025 312.454 449.792 310.483L450.423 310.15V124.559C450.424 124.389 450.36 124.226 450.247 124.104C450.134 123.981 449.98 123.909 449.817 123.902Z" fill="url(#paint63_linear_548_4469)"/>
<path d="M450.449 124.559V128.143C448.472 129.247 446.263 129.825 444.019 129.825C441.775 129.825 439.566 129.247 437.589 128.143V124.559C437.589 124.385 437.655 124.218 437.774 124.095C437.892 123.971 438.053 123.902 438.22 123.902H449.817C449.985 123.902 450.146 123.971 450.264 124.095C450.382 124.218 450.449 124.385 450.449 124.559Z" fill="url(#paint64_linear_548_4469)"/>
<path d="M279.304 140.079C278.98 140.079 278.668 140.039 278.368 139.961C278.071 139.878 277.828 139.773 277.64 139.645L278.007 138.821C278.183 138.934 278.386 139.028 278.616 139.103C278.849 139.175 279.08 139.21 279.309 139.21C279.464 139.21 279.588 139.197 279.682 139.171C279.776 139.141 279.843 139.103 279.885 139.058C279.93 139.009 279.952 138.953 279.952 138.889C279.952 138.799 279.911 138.727 279.828 138.675C279.746 138.622 279.638 138.579 279.507 138.545C279.375 138.511 279.229 138.477 279.067 138.443C278.909 138.41 278.749 138.366 278.588 138.314C278.43 138.261 278.285 138.193 278.153 138.111C278.022 138.024 277.915 137.913 277.832 137.778C277.749 137.639 277.708 137.464 277.708 137.254C277.708 137.017 277.772 136.802 277.9 136.611C278.031 136.419 278.227 136.265 278.486 136.148C278.745 136.032 279.069 135.973 279.456 135.973C279.715 135.973 279.969 136.003 280.217 136.064C280.469 136.12 280.693 136.205 280.889 136.317L280.544 137.146C280.357 137.045 280.17 136.97 279.986 136.921C279.802 136.868 279.623 136.842 279.45 136.842C279.296 136.842 279.172 136.859 279.078 136.893C278.984 136.923 278.917 136.964 278.875 137.017C278.834 137.069 278.813 137.129 278.813 137.197C278.813 137.284 278.853 137.353 278.932 137.406C279.014 137.455 279.121 137.496 279.253 137.53C279.388 137.56 279.535 137.592 279.693 137.626C279.855 137.66 280.014 137.703 280.172 137.755C280.334 137.804 280.481 137.872 280.612 137.958C280.744 138.041 280.849 138.152 280.928 138.291C281.011 138.427 281.052 138.598 281.052 138.804C281.052 139.034 280.986 139.246 280.855 139.442C280.727 139.633 280.533 139.788 280.274 139.904C280.018 140.021 279.695 140.079 279.304 140.079ZM282.882 140.051C282.491 140.051 282.186 139.955 281.968 139.763C281.75 139.568 281.641 139.274 281.641 138.883V136.261H282.713V138.872C282.713 138.981 282.743 139.068 282.803 139.132C282.863 139.192 282.94 139.222 283.034 139.222C283.162 139.222 283.271 139.19 283.361 139.126L283.626 139.876C283.536 139.936 283.425 139.979 283.294 140.006C283.162 140.036 283.025 140.051 282.882 140.051ZM281.196 137.857V137.056H283.412V137.857H281.196ZM285.325 140.051C285.077 140.051 284.853 140.002 284.654 139.904C284.459 139.806 284.305 139.654 284.192 139.447C284.083 139.237 284.028 138.972 284.028 138.652V136.943H285.1V138.477C285.1 138.714 285.143 138.883 285.229 138.985C285.32 139.086 285.446 139.137 285.607 139.137C285.713 139.137 285.808 139.113 285.895 139.064C285.981 139.015 286.051 138.938 286.104 138.833C286.156 138.724 286.182 138.584 286.182 138.415V136.943H287.254V140H286.233V139.137L286.431 139.38C286.325 139.605 286.173 139.774 285.974 139.887C285.775 139.996 285.558 140.051 285.325 140.051ZM288.068 140V136.977C288.068 136.609 288.177 136.315 288.395 136.097C288.617 135.876 288.933 135.765 289.343 135.765C289.474 135.765 289.604 135.778 289.732 135.804C289.86 135.83 289.967 135.87 290.053 135.923L289.788 136.678C289.743 136.652 289.692 136.631 289.636 136.616C289.58 136.597 289.523 136.588 289.467 136.588C289.354 136.588 289.266 136.622 289.202 136.69C289.142 136.754 289.112 136.853 289.112 136.988V137.208L289.14 137.654V140H288.068ZM287.623 137.857V137.056H289.839V137.857H287.623ZM290.359 140V136.977C290.359 136.609 290.468 136.315 290.686 136.097C290.908 135.876 291.224 135.765 291.634 135.765C291.765 135.765 291.895 135.778 292.023 135.804C292.151 135.83 292.258 135.87 292.344 135.923L292.079 136.678C292.034 136.652 291.984 136.631 291.927 136.616C291.871 136.597 291.814 136.588 291.758 136.588C291.645 136.588 291.557 136.622 291.493 136.69C291.433 136.754 291.403 136.853 291.403 136.988V137.208L291.431 137.654V140H290.359ZM289.914 137.857V137.056H292.13V137.857H289.914ZM292.621 140V136.943H293.692V140H292.621ZM293.157 136.605C292.961 136.605 292.803 136.55 292.683 136.441C292.563 136.332 292.502 136.197 292.502 136.035C292.502 135.874 292.563 135.738 292.683 135.629C292.803 135.52 292.961 135.466 293.157 135.466C293.352 135.466 293.51 135.518 293.63 135.624C293.751 135.725 293.811 135.857 293.811 136.018C293.811 136.188 293.751 136.329 293.63 136.441C293.514 136.55 293.356 136.605 293.157 136.605ZM296.379 136.893C296.615 136.893 296.83 136.941 297.021 137.039C297.213 137.133 297.364 137.28 297.473 137.479C297.585 137.678 297.642 137.936 297.642 138.252V140H296.57V138.427C296.57 138.209 296.525 138.051 296.435 137.953C296.348 137.851 296.226 137.801 296.068 137.801C295.956 137.801 295.852 137.827 295.758 137.88C295.664 137.928 295.591 138.005 295.538 138.111C295.486 138.216 295.459 138.353 295.459 138.522V140H294.388V136.943H295.409V137.812L295.211 137.558C295.328 137.336 295.488 137.171 295.691 137.062C295.894 136.949 296.123 136.893 296.379 136.893Z" fill="white"/>
<defs>
<linearGradient id="paint0_linear_548_4469" x1="173" y1="17.9998" x2="193" y2="45.9998" gradientUnits="userSpaceOnUse">
<stop stop-color="#52BEB8"/>
<stop offset="1" stop-color="#03736D"/>
</linearGradient>
<linearGradient id="paint1_linear_548_4469" x1="179.474" y1="30.6901" x2="200.515" y2="72.2067" gradientUnits="userSpaceOnUse">
<stop stop-color="#52BEB8"/>
<stop offset="1" stop-color="#308B85"/>
</linearGradient>
<linearGradient id="paint2_linear_548_4469" x1="426.038" y1="49.411" x2="473.634" y2="82.0348" gradientUnits="userSpaceOnUse">
<stop stop-color="#E8E8EB"/>
<stop offset="1" stop-color="#D3D3D3"/>
</linearGradient>
<linearGradient id="paint3_linear_548_4469" x1="338.901" y1="19.2823" x2="377.667" y2="19.2823" gradientUnits="userSpaceOnUse">
<stop stop-color="#E8E8EB"/>
<stop offset="1" stop-color="#D3D3D3"/>
</linearGradient>
<linearGradient id="paint4_linear_548_4469" x1="338.901" y1="56.136" x2="377.667" y2="56.136" gradientUnits="userSpaceOnUse">
<stop stop-color="#E8E8EB"/>
<stop offset="1" stop-color="#D3D3D3"/>
</linearGradient>
<linearGradient id="paint5_linear_548_4469" x1="338.901" y1="92.9852" x2="377.667" y2="92.9852" gradientUnits="userSpaceOnUse">
<stop stop-color="#E8E8EB"/>
<stop offset="1" stop-color="#D3D3D3"/>
</linearGradient>
<linearGradient id="paint6_linear_548_4469" x1="103.989" y1="324.901" x2="103.989" y2="189.491" gradientUnits="userSpaceOnUse">
<stop stop-color="#C98348"/>
<stop offset="1" stop-color="#DD9127"/>
</linearGradient>
<linearGradient id="paint7_linear_548_4469" x1="413.245" y1="363.297" x2="424.461" y2="327.818" gradientUnits="userSpaceOnUse">
<stop stop-color="#C98348"/>
<stop offset="1" stop-color="#DD9127"/>
</linearGradient>
<linearGradient id="paint8_linear_548_4469" x1="261.034" y1="126.11" x2="261.034" y2="171.485" gradientUnits="userSpaceOnUse">
<stop stop-color="white"/>
<stop offset="1" stop-color="#DDF1F3"/>
</linearGradient>
<linearGradient id="paint9_linear_548_4469" x1="210.725" y1="140.712" x2="230.037" y2="211.385" gradientUnits="userSpaceOnUse">
<stop stop-color="#AAC76F"/>
<stop offset="1" stop-color="#51823B"/>
</linearGradient>
<linearGradient id="paint10_linear_548_4469" x1="207.455" y1="108.179" x2="173.356" y2="137.858" gradientUnits="userSpaceOnUse">
<stop stop-color="#AAC76F"/>
<stop offset="1" stop-color="#51823B"/>
</linearGradient>
<linearGradient id="paint11_linear_548_4469" x1="179.933" y1="77.4892" x2="186.369" y2="98.3431" gradientUnits="userSpaceOnUse">
<stop stop-color="#AAC76F"/>
<stop offset="1" stop-color="#51823B"/>
</linearGradient>
<linearGradient id="paint12_linear_548_4469" x1="302.535" y1="76.9767" x2="323.231" y2="204.051" gradientUnits="userSpaceOnUse">
<stop stop-color="#AAC76F"/>
<stop offset="1" stop-color="#51823B"/>
</linearGradient>
<linearGradient id="paint13_linear_548_4469" x1="339.402" y1="138.267" x2="313.474" y2="153.464" gradientUnits="userSpaceOnUse">
<stop stop-color="#AAC76F"/>
<stop offset="1" stop-color="#51823B"/>
</linearGradient>
<linearGradient id="paint14_linear_548_4469" x1="327.569" y1="151.871" x2="338.069" y2="190.896" gradientUnits="userSpaceOnUse">
<stop stop-color="#AAC76F"/>
<stop offset="1" stop-color="#51823B"/>
</linearGradient>
<linearGradient id="paint15_linear_548_4469" x1="229.391" y1="92.9325" x2="247.64" y2="106.129" gradientUnits="userSpaceOnUse">
<stop offset="0.04" stop-color="#654B1E"/>
<stop offset="1" stop-color="#2E1D12"/>
</linearGradient>
<linearGradient id="paint16_linear_548_4469" x1="177.311" y1="164.94" x2="195.556" y2="178.14" gradientUnits="userSpaceOnUse">
<stop offset="0.04" stop-color="#654B1E"/>
<stop offset="1" stop-color="#2E1D12"/>
</linearGradient>
<linearGradient id="paint17_linear_548_4469" x1="302.708" y1="181.137" x2="300.705" y2="184.095" gradientUnits="userSpaceOnUse">
<stop stop-color="#E8E8EB"/>
<stop offset="1" stop-color="#D3D3D3"/>
</linearGradient>
<linearGradient id="paint18_linear_548_4469" x1="229.45" y1="131.574" x2="227.447" y2="134.537" gradientUnits="userSpaceOnUse">
<stop stop-color="#E8E8EB"/>
<stop offset="1" stop-color="#D3D3D3"/>
</linearGradient>
<linearGradient id="paint19_linear_548_4469" x1="328.651" y1="213.547" x2="324.938" y2="198.565" gradientUnits="userSpaceOnUse">
<stop stop-color="#AAC76F"/>
<stop offset="1" stop-color="#51823B"/>
</linearGradient>
<linearGradient id="paint20_linear_548_4469" x1="171.047" y1="192.917" x2="171.047" y2="203.427" gradientUnits="userSpaceOnUse">
<stop offset="0.04" stop-color="#654B1E"/>
<stop offset="1" stop-color="#2E1D12"/>
</linearGradient>
<linearGradient id="paint21_linear_548_4469" x1="325.414" y1="192.917" x2="325.414" y2="203.427" gradientUnits="userSpaceOnUse">
<stop offset="0.04" stop-color="#654B1E"/>
<stop offset="1" stop-color="#2E1D12"/>
</linearGradient>
<linearGradient id="paint22_linear_548_4469" x1="184.904" y1="189.951" x2="184.904" y2="202.95" gradientUnits="userSpaceOnUse">
<stop offset="0.04" stop-color="#654B1E"/>
<stop offset="1" stop-color="#2E1D12"/>
</linearGradient>
<linearGradient id="paint23_linear_548_4469" x1="311.552" y1="189.951" x2="311.552" y2="202.95" gradientUnits="userSpaceOnUse">
<stop offset="0.04" stop-color="#654B1E"/>
<stop offset="1" stop-color="#2E1D12"/>
</linearGradient>
<linearGradient id="paint24_linear_548_4469" x1="188.256" y1="194.507" x2="188.256" y2="206.257" gradientUnits="userSpaceOnUse">
<stop stop-color="#E8E8EB"/>
<stop offset="1" stop-color="#D3D3D3"/>
</linearGradient>
<linearGradient id="paint25_linear_548_4469" x1="308.201" y1="194.507" x2="308.201" y2="206.257" gradientUnits="userSpaceOnUse">
<stop stop-color="#E8E8EB"/>
<stop offset="1" stop-color="#D3D3D3"/>
</linearGradient>
<linearGradient id="paint26_linear_548_4469" x1="217.937" y1="99.2194" x2="234.853" y2="166.524" gradientUnits="userSpaceOnUse">
<stop stop-color="#DBE8C4"/>
<stop offset="1" stop-color="#AAC76F"/>
</linearGradient>
<linearGradient id="paint27_linear_548_4469" x1="235.006" y1="95.6971" x2="255.016" y2="120.703" gradientUnits="userSpaceOnUse">
<stop stop-color="#AAC76F"/>
<stop offset="1" stop-color="#51823B"/>
</linearGradient>
<linearGradient id="paint28_linear_548_4469" x1="310.424" y1="107.587" x2="284.097" y2="158.48" gradientUnits="userSpaceOnUse">
<stop stop-color="#DBE8C4"/>
<stop offset="1" stop-color="#AAC76F"/>
</linearGradient>
<linearGradient id="paint29_linear_548_4469" x1="322.934" y1="113.278" x2="312.072" y2="140.351" gradientUnits="userSpaceOnUse">
<stop stop-color="#DBE8C4"/>
<stop offset="1" stop-color="#AAC76F"/>
</linearGradient>
<linearGradient id="paint30_linear_548_4469" x1="265.588" y1="96.6561" x2="280.749" y2="117.29" gradientUnits="userSpaceOnUse">
<stop stop-color="#AAC76F"/>
<stop offset="1" stop-color="#51823B"/>
</linearGradient>
<linearGradient id="paint31_linear_548_4469" x1="249.996" y1="23.0195" x2="265.537" y2="87.0545" gradientUnits="userSpaceOnUse">
<stop stop-color="#AAC76F"/>
<stop offset="1" stop-color="#51823B"/>
</linearGradient>
<linearGradient id="paint32_linear_548_4469" x1="64.4909" y1="394.095" x2="68.3415" y2="437.591" gradientUnits="userSpaceOnUse">
<stop stop-color="#52BEB8"/>
<stop offset="1" stop-color="#308B85"/>
</linearGradient>
<linearGradient id="paint33_linear_548_4469" x1="56.9222" y1="385.592" x2="61.7343" y2="419.186" gradientUnits="userSpaceOnUse">
<stop stop-color="white"/>
<stop offset="1" stop-color="#DDF1F3"/>
</linearGradient>
<linearGradient id="paint34_linear_548_4469" x1="61.7758" y1="418.436" x2="54.1204" y2="380.387" gradientUnits="userSpaceOnUse">
<stop stop-color="#53BEB8"/>
<stop offset="1" stop-color="#53BEB8" stop-opacity="0"/>
</linearGradient>
<linearGradient id="paint35_linear_548_4469" x1="140.574" y1="313.046" x2="174.349" y2="341.848" gradientUnits="userSpaceOnUse">
<stop stop-color="#F3CE63"/>
<stop offset="1" stop-color="#D2A651"/>
</linearGradient>
<linearGradient id="paint36_linear_548_4469" x1="442.333" y1="374.113" x2="441.344" y2="402.675" gradientUnits="userSpaceOnUse">
<stop stop-color="#52BEB8"/>
<stop offset="1" stop-color="#308B85"/>
</linearGradient>
<linearGradient id="paint37_linear_548_4469" x1="447.579" y1="370.438" x2="446.835" y2="409.472" gradientUnits="userSpaceOnUse">
<stop stop-color="white"/>
<stop offset="1" stop-color="#DDF1F3"/>
</linearGradient>
<linearGradient id="paint38_linear_548_4469" x1="448.004" y1="405.14" x2="446.682" y2="379.998" gradientUnits="userSpaceOnUse">
<stop stop-color="#53BEB8"/>
<stop offset="1" stop-color="#53BEB8" stop-opacity="0"/>
</linearGradient>
<linearGradient id="paint39_linear_548_4469" x1="449.603" y1="367.603" x2="450.296" y2="400.412" gradientUnits="userSpaceOnUse">
<stop stop-color="#E8E8EB"/>
<stop offset="1" stop-color="#D3D3D3"/>
</linearGradient>
<linearGradient id="paint40_linear_548_4469" x1="361.283" y1="308.717" x2="333.668" y2="334.654" gradientUnits="userSpaceOnUse">
<stop stop-color="#F3CE63"/>
<stop offset="1" stop-color="#D2A651"/>
</linearGradient>
<linearGradient id="paint41_linear_548_4469" x1="225.211" y1="287.469" x2="306.637" y2="442.739" gradientUnits="userSpaceOnUse">
<stop stop-color="#52BEB8"/>
<stop offset="1" stop-color="#308B85"/>
</linearGradient>
<linearGradient id="paint42_linear_548_4469" x1="246.532" y1="458.164" x2="295.9" y2="519.107" gradientUnits="userSpaceOnUse">
<stop offset="0.04" stop-color="#654B1E"/>
<stop offset="1" stop-color="#2E1D12"/>
</linearGradient>
<linearGradient id="paint43_linear_548_4469" x1="217.107" y1="452.771" x2="276.237" y2="487.287" gradientUnits="userSpaceOnUse">
<stop offset="0.04" stop-color="#654B1E"/>
<stop offset="1" stop-color="#2E1D12"/>
</linearGradient>
<linearGradient id="paint44_linear_548_4469" x1="217.541" y1="434.213" x2="242.912" y2="461.718" gradientUnits="userSpaceOnUse">
<stop offset="0.04" stop-color="#654B1E"/>
<stop offset="1" stop-color="#2E1D12"/>
</linearGradient>
<linearGradient id="paint45_linear_548_4469" x1="242.234" y1="346.574" x2="256.299" y2="379.365" gradientUnits="userSpaceOnUse">
<stop offset="0.04" stop-color="#654B1E"/>
<stop offset="1" stop-color="#2E1D12"/>
</linearGradient>
<linearGradient id="paint46_linear_548_4469" x1="222.925" y1="224.925" x2="334.253" y2="256.095" gradientUnits="userSpaceOnUse">
<stop stop-color="#52BEB8"/>
<stop offset="1" stop-color="#308B85"/>
</linearGradient>
<linearGradient id="paint47_linear_548_4469" x1="441.138" y1="16.1851" x2="448.025" y2="30.742" gradientUnits="userSpaceOnUse">
<stop stop-color="#E94E4E"/>
<stop offset="1" stop-color="#D33332"/>
</linearGradient>
<linearGradient id="paint48_linear_548_4469" x1="440.258" y1="52.5085" x2="447.008" y2="64.3157" gradientUnits="userSpaceOnUse">
<stop stop-color="#ECDE74"/>
<stop offset="1" stop-color="#EDC34D"/>
</linearGradient>
<linearGradient id="paint49_linear_548_4469" x1="439.168" y1="87.68" x2="452.414" y2="109.882" gradientUnits="userSpaceOnUse">
<stop stop-color="#AAC76F"/>
<stop offset="1" stop-color="#51823B"/>
</linearGradient>
<linearGradient id="paint50_linear_548_4469" x1="60.6687" y1="346.158" x2="54.5698" y2="444.076" gradientUnits="userSpaceOnUse">
<stop stop-color="#E8E8EB"/>
<stop offset="1" stop-color="#D3D3D3"/>
</linearGradient>
<linearGradient id="paint51_linear_548_4469" x1="297.921" y1="261.84" x2="307.658" y2="303.266" gradientUnits="userSpaceOnUse">
<stop stop-color="#E8E8EB"/>
<stop offset="1" stop-color="#D3D3D3"/>
</linearGradient>
<linearGradient id="paint52_linear_548_4469" x1="188.024" y1="287.666" x2="197.76" y2="329.093" gradientUnits="userSpaceOnUse">
<stop stop-color="#E8E8EB"/>
<stop offset="1" stop-color="#D3D3D3"/>
</linearGradient>
<linearGradient id="paint53_linear_548_4469" x1="237.995" y1="271.566" x2="252.13" y2="287.45" gradientUnits="userSpaceOnUse">
<stop stop-color="#52BEB8"/>
<stop offset="1" stop-color="#308B85"/>
</linearGradient>
<linearGradient id="paint54_linear_548_4469" x1="237.506" y1="193.167" x2="293.348" y2="165.192" gradientUnits="userSpaceOnUse">
<stop stop-color="#E8E8EB"/>
<stop offset="1" stop-color="#D3D3D3"/>
</linearGradient>
<linearGradient id="paint55_linear_548_4469" x1="246.953" y1="178.442" x2="261.064" y2="148.616" gradientUnits="userSpaceOnUse">
<stop stop-color="white"/>
<stop offset="1" stop-color="#DDF1F3"/>
</linearGradient>
<linearGradient id="paint56_linear_548_4469" x1="264.287" y1="167.161" x2="288.395" y2="125.212" gradientUnits="userSpaceOnUse">
<stop stop-color="#D3D3D3"/>
<stop offset="1" stop-color="#E8E8EB"/>
</linearGradient>
<linearGradient id="paint57_linear_548_4469" x1="357.297" y1="137.54" x2="348.564" y2="162.905" gradientUnits="userSpaceOnUse">
<stop stop-color="#52BEB8"/>
<stop offset="1" stop-color="#308B85"/>
</linearGradient>
<linearGradient id="paint58_linear_548_4469" x1="137.607" y1="139.113" x2="150.72" y2="157.047" gradientUnits="userSpaceOnUse">
<stop stop-color="#52BEB8"/>
<stop offset="1" stop-color="#308B85"/>
</linearGradient>
<linearGradient id="paint59_linear_548_4469" x1="253.789" y1="29.7311" x2="263.402" y2="55.0164" gradientUnits="userSpaceOnUse">
<stop stop-color="#DBE8C4"/>
<stop offset="1" stop-color="#AAC76F"/>
</linearGradient>
<linearGradient id="paint60_linear_548_4469" x1="253.541" y1="207.926" x2="242.058" y2="167.596" gradientUnits="userSpaceOnUse">
<stop stop-color="#D3D3D3"/>
<stop offset="1" stop-color="#E8E8EB"/>
</linearGradient>
<linearGradient id="paint61_linear_548_4469" x1="241.067" y1="378.608" x2="261.795" y2="470.131" gradientUnits="userSpaceOnUse">
<stop stop-color="#52BEB8"/>
<stop offset="1" stop-color="#308B85"/>
</linearGradient>
<linearGradient id="paint62_linear_548_4469" x1="226.932" y1="118.382" x2="201.792" y2="128.225" gradientUnits="userSpaceOnUse">
<stop stop-color="#DBE8C4"/>
<stop offset="1" stop-color="#AAC76F"/>
</linearGradient>
<linearGradient id="paint63_linear_548_4469" x1="368.755" y1="162.67" x2="494.511" y2="251.213" gradientUnits="userSpaceOnUse">
<stop stop-color="#E8E8EB"/>
<stop offset="1" stop-color="#D3D3D3"/>
</linearGradient>
<linearGradient id="paint64_linear_548_4469" x1="368.852" y1="126.864" x2="403.622" y2="126.864" gradientUnits="userSpaceOnUse">
<stop stop-color="#E8E8EB"/>
<stop offset="1" stop-color="#D3D3D3"/>
</linearGradient>
</defs>
</svg>
