<svg width="669" height="640" viewBox="0 0 669 640" fill="none" xmlns="http://www.w3.org/2000/svg">
<path d="M579.296 563.462V575.079H492.34V563.462H579.296Z" fill="#E0E0E0"/>
<path d="M567.425 563.943C567.124 563.943 566.878 566.381 566.878 569.385C566.878 572.39 567.124 574.827 567.425 574.827C567.728 574.827 567.972 572.39 567.972 569.385C567.972 566.381 567.726 563.943 567.425 563.943Z" fill="#FAFAFA"/>
<path d="M569.319 563.707C569.017 563.707 568.773 566.144 568.773 569.15C568.773 572.156 569.017 574.593 569.319 574.593C569.621 574.593 569.866 572.156 569.866 569.15C569.866 566.144 569.621 563.707 569.319 563.707Z" fill="#FAFAFA"/>
<path d="M499.063 563.944C498.76 563.944 498.516 566.381 498.516 569.386C498.516 572.391 498.76 574.828 499.063 574.828C499.364 574.828 499.609 572.391 499.609 569.386C499.608 566.381 499.364 563.944 499.063 563.944Z" fill="#FAFAFA"/>
<path d="M500.95 563.707C500.649 563.707 500.404 566.144 500.404 569.15C500.404 572.155 500.649 574.593 500.95 574.593C501.252 574.593 501.497 572.155 501.497 569.15C501.497 566.144 501.253 563.707 500.95 563.707Z" fill="#FAFAFA"/>
<path d="M512.307 569.622C512.307 569.925 522.268 570.169 534.549 570.169C546.836 570.169 556.793 569.923 556.793 569.622C556.793 569.321 546.836 569.075 534.549 569.075C522.268 569.075 512.307 569.321 512.307 569.622Z" fill="#FAFAFA"/>
<path d="M579.665 615.766V639H492.709V615.766H579.665Z" fill="#E0E0E0"/>
<path d="M491.579 632.465C491.572 632.482 491.731 632.573 492.052 632.735C492.37 632.9 492.855 633.124 493.501 633.398C494.793 633.926 496.744 634.675 499.396 635.084C502.003 635.455 505.501 635.56 508.963 633.727C510.661 632.818 512.277 631.439 513.506 629.609C514.708 627.783 515.48 625.397 515.088 622.917C514.879 621.683 514.364 620.464 513.489 619.457C512.64 618.449 511.276 617.706 509.823 617.792C508.366 617.857 507.05 618.693 506.138 619.78C505.217 620.87 504.585 622.267 504.456 623.743C504.111 626.688 505.352 629.743 507.454 631.977C509.522 634.29 512.614 635.7 515.809 636.062C519.026 636.443 522.353 635.934 525.51 634.857C528.665 633.768 531.784 631.998 533.985 629.161C535.064 627.751 535.844 626.001 535.96 624.145C536.121 622.294 535.531 620.305 534.108 618.926C533.401 618.239 532.412 617.777 531.388 617.733C530.363 617.684 529.373 618.018 528.545 618.534C526.868 619.575 525.796 621.357 525.345 623.221C524.528 627.02 526.031 630.977 528.774 633.455C531.524 635.957 535.126 637.067 538.564 637.44C542.025 637.787 545.507 637.529 548.713 636.44C551.907 635.378 554.78 633.276 556.434 630.438C558.116 627.666 558.667 624.155 557.401 621.209C556.806 619.749 555.462 618.455 553.853 618.208C552.285 617.914 550.682 618.348 549.473 619.264C547.019 621.212 546.609 624.551 547.402 627.091C548.206 629.705 549.964 631.708 551.785 633.265C555.502 636.403 559.903 637.761 563.71 637.897C567.557 638.033 570.791 636.972 573.157 635.75C575.541 634.51 577.11 633.103 578.084 632.099C578.563 631.586 578.914 631.181 579.125 630.891C579.343 630.605 579.447 630.454 579.431 630.441C579.32 630.29 577.69 632.978 572.966 635.37C570.621 636.508 567.454 637.475 563.736 637.285C560.054 637.097 555.821 635.725 552.287 632.676C550.549 631.164 548.915 629.232 548.209 626.851C547.499 624.548 547.961 621.567 550.018 619.985C551.023 619.227 552.406 618.872 553.674 619.123C554.963 619.338 555.986 620.319 556.517 621.592C557.614 624.172 557.133 627.37 555.567 629.918C554.031 632.523 551.396 634.448 548.372 635.45C545.351 636.468 541.99 636.714 538.677 636.372C535.386 636.011 532.009 634.939 529.504 632.649C527.031 630.431 525.682 626.79 526.409 623.465C526.803 621.839 527.736 620.314 529.121 619.459C530.479 618.56 532.253 618.588 533.361 619.717C534.484 620.801 535.027 622.484 534.879 624.07C534.78 625.684 534.108 627.226 533.127 628.514C531.134 631.106 528.174 632.828 525.17 633.867C522.132 634.914 518.951 635.405 515.925 635.059C512.906 634.724 510.081 633.449 508.152 631.319C506.192 629.261 505.06 626.471 505.352 623.839C505.563 621.283 507.512 618.791 509.861 618.634C511.02 618.557 512.129 619.127 512.879 619.993C513.644 620.855 514.127 621.948 514.32 623.045C514.699 625.288 514.027 627.498 512.918 629.229C511.786 630.963 510.266 632.303 508.663 633.191C505.418 634.982 502.008 634.968 499.448 634.663C496.84 634.326 494.883 633.651 493.575 633.192C492.271 632.715 491.598 632.423 491.579 632.465Z" fill="#FAFAFA"/>
<path d="M571.884 575.416V615.725H492.694V575.416H571.884Z" fill="#EBEBEB"/>
<path d="M558.734 576.798C558.431 576.798 558.187 585.533 558.187 596.306C558.187 607.084 558.431 615.818 558.734 615.818C559.036 615.818 559.28 607.084 559.28 596.306C559.28 585.533 559.036 576.798 558.734 576.798Z" fill="#E0E0E0"/>
<path d="M552.733 576.298C552.43 576.298 552.186 584.922 552.186 595.556C552.186 606.195 552.431 614.816 552.733 614.816C553.034 614.816 553.279 606.195 553.279 595.556C553.279 584.922 553.034 576.298 552.733 576.298Z" fill="#E0E0E0"/>
<path d="M501.634 575.003C501.331 575.003 501.087 584.085 501.087 595.286C501.087 606.489 501.331 615.568 501.634 615.568C501.935 615.568 502.181 606.488 502.181 595.286C502.181 584.085 501.935 575.003 501.634 575.003Z" fill="#E0E0E0"/>
<path d="M508.702 575.547C508.401 575.547 508.156 584.394 508.156 595.306C508.156 606.221 508.401 615.066 508.702 615.066C509.003 615.066 509.249 606.221 509.249 595.306C509.249 584.395 509.005 575.547 508.702 575.547Z" fill="#E0E0E0"/>
<path d="M82.4532 487.419C74.2443 483.184 64.5774 482.632 55.4634 484.138C50.5674 484.947 45.4629 486.413 42.1314 490.091C38.8 493.768 38.1683 500.241 41.994 503.401C44.2721 505.282 47.4475 505.568 50.4006 505.534C57.5346 505.45 65.4516 504.195 71.1507 508.487C74.4034 510.937 76.5672 515.008 80.4562 516.212C84.2603 517.391 88.5524 515.147 90.5695 511.713C92.5866 508.28 92.653 503.989 91.714 500.119C91.714 500.119 90.7224 491.685 82.4532 487.419Z" fill="#EBEBEB"/>
<path d="M101.254 451.112C96.2346 458.282 86.4781 455.908 81.9543 451.532C77.4305 447.155 75.5184 440.813 73.7778 434.765C69.8008 420.945 65.7913 406.449 68.749 392.375C69.6324 388.168 71.2063 383.972 74.1624 380.851C77.1185 377.729 81.6655 375.873 85.8217 376.971C90.7409 378.271 93.7989 383.088 96.0076 387.672C102.502 401.145 105.942 416.08 105.993 431.035C106.017 438.021 105.194 445.345 101.254 451.112Z" fill="#EBEBEB"/>
<path d="M115.05 461.398C109.6 454.93 108.566 445.495 110.991 437.393C113.416 429.289 118.896 422.396 125.21 416.767C132.614 410.169 141.316 405.034 150.672 401.744C154.354 400.45 158.237 399.429 162.123 399.8C166.009 400.171 169.921 402.157 171.733 405.613C174.412 410.724 171.844 416.922 169.064 421.98C164.168 430.89 158.57 439.413 152.34 447.446C147.327 453.908 141.586 460.282 133.947 463.202C126.308 466.123 118.372 465.78 114.323 460.481" fill="#EBEBEB"/>
<path d="M101.603 559.259C101.509 559.265 101.356 558.103 101.149 556.001C100.919 553.631 100.629 550.653 100.284 547.111C99.8705 543.371 99.3238 538.918 98.2844 534.07C97.248 529.234 95.6263 523.994 93.5443 518.678C91.3882 513.394 88.758 508.592 85.6844 504.751C82.6325 500.893 79.0849 498.1 75.7488 496.491C72.4235 494.848 69.4411 494.182 67.3808 493.885C65.3019 493.672 64.1374 493.509 64.1374 493.416C64.1358 493.323 65.3034 493.308 67.4379 493.365C69.5539 493.506 72.6583 494.041 76.1642 495.635C79.6795 497.195 83.445 500.029 86.6451 503.968C89.8715 507.889 92.5975 512.798 94.7923 518.176C96.9113 523.584 98.5083 528.879 99.4983 533.82C100.485 538.753 100.936 543.253 101.231 547.025C101.514 550.8 101.62 553.858 101.671 555.971C101.719 558.083 101.695 559.254 101.603 559.259Z" fill="#E0E0E0"/>
<path d="M100.985 552.419C100.939 552.418 100.91 551.895 100.897 550.907C100.9 549.772 100.904 548.34 100.908 546.584C100.919 542.832 100.916 537.404 100.715 530.701C100.383 517.293 99.2294 502.863 96.9991 482.52C94.8878 463.39 92.0537 441.128 89.062 426.655C88.4211 423.364 87.7755 420.4 87.167 417.807C86.5878 415.206 86.092 412.965 85.6147 411.152C85.2039 409.445 84.8703 408.053 84.6047 406.951C84.3884 405.985 84.2958 405.471 84.3406 405.459C84.3854 405.445 84.5645 405.933 84.8657 406.876C85.1947 407.964 85.6101 409.335 86.1213 411.019C86.6774 412.816 87.2488 415.042 87.899 417.632C88.5786 420.215 89.2906 423.171 89.9933 426.457C92.9526 439.573 96.0863 457.903 98.3366 478.295C100.572 498.68 101.577 517.242 101.667 530.684C101.747 537.404 101.603 542.845 101.432 546.598C101.325 548.354 101.237 549.784 101.168 550.918C101.094 551.905 101.032 552.422 100.985 552.419Z" fill="#E0E0E0"/>
<path d="M100.881 516.618C100.787 516.615 100.804 515.01 100.912 512.102C101.079 509.2 101.478 505.006 102.295 499.868C103.161 494.742 104.372 488.657 106.273 482.043C107.096 479.021 109.035 471.775 113.727 460.952C119.909 446.285 128.308 434.295 135.617 426.868C137.33 424.897 139.239 423.475 140.766 422.082C141.557 421.414 142.255 420.747 142.965 420.221C143.681 419.728 144.346 419.269 144.963 418.843C147.367 417.198 148.714 416.332 148.763 416.409C148.98 416.702 143.376 420 136.303 427.526C129.257 435.037 121.093 446.945 114.959 461.488C111.54 469.375 109.155 476.412 107.462 482.384C105.507 488.933 104.21 494.958 103.229 500.032C102.296 505.118 101.757 509.269 101.431 512.145C101.167 515.025 100.974 516.622 100.881 516.618Z" fill="#E0E0E0"/>
<path d="M137.896 574.334L134.309 623.481H71.1717L67.5839 574.334H137.896Z" fill="#EBEBEB"/>
<path d="M60.0519 554.962H143.996V574.333H60.0519V554.962Z" fill="#EBEBEB"/>
<path d="M143.996 621.599V626.97H140.051H61.4388V621.599H143.996Z" fill="#E0E0E0"/>
<path d="M136.189 635.826L140.055 626.375H64.4492L68.9591 635.826H136.189Z" fill="#E0E0E0"/>
<path d="M68.7495 590.396C68.7356 590.409 68.836 590.562 69.0445 590.847C69.2947 591.179 69.6052 591.592 69.9882 592.098C70.8856 593.246 72.1165 594.823 73.6656 596.806L73.8293 597.016L73.9884 596.797C76.3005 593.6 79.3895 589.328 83.0252 584.299H82.5047C85.1921 588.104 88.1868 592.344 91.4009 596.896L91.6805 597.291L91.9924 596.919C95.276 593.013 98.8422 588.77 102.543 584.365L101.934 584.357C102.118 584.588 102.316 584.836 102.515 585.086C105.788 589.189 108.954 593.159 111.949 596.914L112.264 597.308L112.554 596.897C115.757 592.366 118.749 588.132 121.455 584.303L120.938 584.328C125.324 589.326 129.045 593.564 131.9 596.817L132.095 597.039L132.243 596.789C133.687 594.361 134.841 592.426 135.675 591.022C136.033 590.396 136.324 589.89 136.555 589.487C136.75 589.136 136.841 588.949 136.824 588.938C136.807 588.928 136.682 589.094 136.457 589.425C136.2 589.813 135.879 590.301 135.482 590.903C134.605 592.281 133.395 594.18 131.879 596.565L132.222 596.537C129.412 593.244 125.752 588.954 121.435 583.896L121.163 583.576L120.918 583.92C118.188 587.731 115.169 591.946 111.936 596.457L112.54 596.44C109.552 592.679 106.393 588.704 103.128 584.595C102.929 584.345 102.731 584.096 102.547 583.866L102.248 583.49L101.939 583.859C98.2476 588.271 94.6922 592.522 91.4179 596.437L92.0079 596.46C88.7614 591.932 85.7373 587.714 83.0236 583.927L82.7595 583.559L82.5032 583.927C78.9431 589.009 75.9205 593.328 73.6579 596.56L73.9791 596.551C72.3667 594.619 71.0863 593.082 70.1535 591.964C69.738 591.484 69.4013 591.093 69.1295 590.778C68.8932 590.515 68.765 590.384 68.7495 590.396Z" fill="#F5F5F5"/>
<path d="M66.6946 574.009C66.6946 574.227 82.5148 574.402 102.025 574.402C121.542 574.402 137.359 574.225 137.359 574.009C137.359 573.793 121.542 573.617 102.025 573.617C82.5163 573.617 66.6946 573.793 66.6946 574.009Z" fill="#F5F5F5"/>
<path d="M426.655 62.049C426.661 62.0629 426.783 62.0243 427.015 61.9378C427.293 61.8282 427.628 61.6969 428.037 61.5363C428.996 61.1378 430.297 60.5957 431.935 59.9145C435.378 58.4396 440.237 56.3607 446.21 53.803C458.292 48.5394 474.864 41.319 493.173 33.3433C493.73 33.0993 494.286 32.8552 494.801 32.6297L494.462 32.6313C512.462 40.329 528.677 47.2622 540.479 52.308C546.309 54.7575 551.046 56.7484 554.402 58.1585C555.998 58.8102 557.264 59.3261 558.199 59.7076C559.07 60.0536 559.533 60.2219 559.544 60.1941C559.555 60.1678 559.114 59.947 558.265 59.5516C557.344 59.1346 556.101 58.5693 554.53 57.8573C551.199 56.3885 546.499 54.3143 540.712 51.7612C528.937 46.6552 512.757 39.6386 494.796 31.8498L494.626 31.7756L494.456 31.8498C493.942 32.0753 493.386 32.3193 492.828 32.5633C474.559 40.6271 458.02 47.9278 445.964 53.2501C440.036 55.9113 435.216 58.0751 431.798 59.6103C430.186 60.3547 428.907 60.9432 427.963 61.3787C427.568 61.5702 427.243 61.7278 426.975 61.859C426.758 61.9718 426.649 62.0367 426.655 62.049Z" fill="#E0E0E0"/>
<path d="M353.39 55.3059H655.02V281.151H353.39V55.3059Z" fill="#E0E0E0"/>
<path d="M362.8 65.8069H644.474V271.87H362.8V65.8069Z" fill="#FAFAFA"/>
<path d="M582.26 155.838C582.26 155.838 581.966 190.429 580.207 200.983L536.821 198.93C536.821 198.93 540.631 164.925 539.166 155.838H582.26Z" fill="#E0E0E0"/>
<path d="M560.895 160.729C560.895 160.725 560.841 160.719 560.736 160.712C560.614 160.708 560.459 160.702 560.268 160.694C559.855 160.664 559.245 160.694 558.462 160.783C557.685 160.907 556.729 161.117 555.704 161.604C554.681 162.088 553.623 162.879 552.701 163.979C551.813 165.097 550.999 166.486 550.621 168.157C550.264 169.829 550.445 171.708 551.076 173.518C551.384 174.427 551.802 175.322 552.295 176.197C552.785 177.072 553.276 177.95 553.685 178.903C554.504 180.797 555.154 182.88 555.44 185.06L555.458 185.203L555.599 185.206C556.969 185.228 558.416 185.251 559.883 185.276C561.423 185.301 562.94 185.324 564.376 185.345L564.535 185.348L564.541 185.186C564.615 183.004 565.596 181.016 566.625 179.257C567.145 178.367 567.715 177.535 568.25 176.692C568.772 175.864 569.358 175.071 569.774 174.207C570.63 172.48 570.776 170.569 570.454 168.923C570.143 167.273 569.596 165.777 568.779 164.6C567.967 163.421 566.932 162.601 565.956 162.058C564.974 161.511 564.05 161.214 563.292 161.027C562.53 160.844 561.928 160.771 561.52 160.739C561.316 160.728 561.16 160.719 561.055 160.722C560.949 160.719 560.895 160.725 560.895 160.729C560.895 160.736 560.949 160.739 561.052 160.749C561.173 160.762 561.324 160.777 561.513 160.797C561.916 160.848 562.512 160.939 563.261 161.14C564.007 161.343 564.913 161.651 565.869 162.204C566.821 162.753 567.82 163.567 568.599 164.722C569.379 165.869 569.905 167.347 570.197 168.965C570.5 170.579 570.345 172.413 569.511 174.078C569.105 174.917 568.531 175.686 567.992 176.531C567.462 177.36 566.883 178.202 566.354 179.096C565.312 180.874 564.297 182.89 564.214 185.18L564.379 185.021C562.941 184.998 561.424 184.973 559.886 184.948C558.419 184.925 556.972 184.904 555.602 184.882L555.761 185.029C555.464 182.789 554.805 180.7 553.969 178.778C553.555 177.818 553.046 176.914 552.558 176.049C552.07 175.189 551.654 174.312 551.35 173.423C550.723 171.653 550.539 169.831 550.873 168.211C551.223 166.598 552.014 165.215 552.87 164.118C553.759 163.034 554.783 162.249 555.778 161.76C556.776 161.267 557.713 161.043 558.479 160.902C559.251 160.796 559.857 160.748 560.268 160.757C560.459 160.753 560.612 160.748 560.734 160.745C560.841 160.739 560.895 160.734 560.895 160.729Z" fill="white"/>
<path d="M558.672 184.828C558.672 184.828 558.683 184.782 558.698 184.692C558.713 184.596 558.735 184.462 558.764 184.291C558.82 183.931 558.899 183.41 559.001 182.741C559.195 181.395 559.484 179.446 559.679 177.019C559.725 176.412 559.767 175.776 559.792 175.112C559.813 174.448 559.843 173.756 559.804 173.037C559.764 172.322 559.646 171.569 559.316 170.867C558.984 170.177 558.431 169.527 557.662 169.21C556.899 168.881 555.927 169.053 555.3 169.66C554.991 169.964 554.784 170.398 554.794 170.847C554.795 171.295 554.968 171.732 555.237 172.091C555.504 172.455 555.876 172.735 556.281 172.934C556.687 173.138 557.126 173.265 557.571 173.362C558.46 173.549 559.378 173.652 560.309 173.68C561.24 173.702 562.162 173.685 563.064 173.547C563.514 173.473 563.957 173.357 564.369 173.17C564.783 172.985 565.159 172.721 565.463 172.393C565.766 172.066 565.997 171.668 566.093 171.234C566.193 170.8 566.127 170.339 565.939 169.948C565.752 169.559 565.435 169.224 565.032 169.065C564.629 168.901 564.172 168.948 563.798 169.122C563.42 169.297 563.108 169.578 562.877 169.905C562.646 170.237 562.508 170.613 562.417 170.986C562.24 171.74 562.244 172.488 562.198 173.2C562.124 174.628 562.054 175.958 561.991 177.174C561.869 179.598 561.77 181.563 561.701 182.927C561.67 183.602 561.645 184.128 561.628 184.491C561.622 184.666 561.617 184.802 561.612 184.899C561.609 184.99 561.611 185.038 561.611 185.038C561.611 185.038 561.619 184.992 561.625 184.901C561.633 184.803 561.642 184.669 561.654 184.494C561.677 184.131 561.71 183.605 561.751 182.931C561.83 181.568 561.945 179.605 562.085 177.18C562.153 175.964 562.229 174.634 562.309 173.207C562.357 172.495 562.357 171.749 562.531 171.016C562.621 170.653 562.757 170.29 562.976 169.978C563.196 169.666 563.495 169.4 563.849 169.238C564.2 169.076 564.62 169.036 564.986 169.186C565.353 169.331 565.648 169.641 565.823 170.007C565.999 170.373 566.061 170.803 565.966 171.207C565.877 171.615 565.657 171.993 565.367 172.307C564.783 172.946 563.923 173.282 563.043 173.419C562.156 173.553 561.236 173.57 560.314 173.55C559.39 173.522 558.479 173.42 557.6 173.235C557.163 173.139 556.733 173.014 556.341 172.82C555.949 172.627 555.597 172.361 555.343 172.017C555.089 171.677 554.926 171.266 554.925 170.852C554.916 170.437 555.104 170.041 555.391 169.757C555.978 169.189 556.896 169.02 557.615 169.331C558.347 169.629 558.886 170.253 559.209 170.923C559.534 171.603 559.651 172.341 559.693 173.048C559.733 173.759 559.707 174.449 559.688 175.112C559.666 175.774 559.628 176.411 559.585 177.016C559.402 179.439 559.127 181.39 558.95 182.738C558.859 183.409 558.788 183.929 558.738 184.291C558.715 184.464 558.698 184.598 558.686 184.695C558.675 184.78 558.672 184.828 558.672 184.828Z" fill="white"/>
<path d="M564.382 185.056C564.36 185.076 564.325 185.595 564.269 186.499C564.215 187.546 564.15 188.797 564.076 190.258L564.112 190.167C563.239 191.172 562.255 192.307 561.191 193.532L561.341 193.467C560.278 193.407 559.143 193.344 557.964 193.277L558.107 193.348C557.564 192.686 557.001 191.998 556.425 191.296C556.14 190.95 555.858 190.607 555.581 190.269L555.626 190.4C555.671 188.42 555.714 186.546 555.754 184.838L555.571 185.013C558.031 185.041 560.164 185.064 561.878 185.082C562.562 185.082 563.163 185.081 563.701 185.081C564.132 185.076 564.368 185.07 564.382 185.056C564.396 185.042 564.186 185.024 563.781 184.999C563.256 184.971 562.669 184.94 562.002 184.906C560.256 184.838 558.085 184.752 555.581 184.654L555.402 184.647L555.396 184.829C555.345 186.537 555.288 188.411 555.229 190.389L555.226 190.463L555.274 190.522C555.55 190.86 555.832 191.203 556.116 191.549C556.693 192.25 557.259 192.938 557.802 193.599L557.858 193.667L557.944 193.671C559.123 193.728 560.258 193.784 561.322 193.836L561.415 193.841L561.474 193.772C562.518 192.528 563.483 191.378 564.339 190.358L564.374 190.317V190.266C564.388 188.769 564.4 187.484 564.411 186.411C564.41 185.515 564.403 185.036 564.382 185.056Z" fill="white"/>
<path d="M555.659 189.943C555.664 189.953 555.776 189.9 555.979 189.807C556.181 189.715 556.479 189.59 556.855 189.46C557.604 189.201 558.691 188.958 559.903 188.995C561.116 189.031 562.188 189.34 562.92 189.645C563.287 189.797 563.576 189.94 563.774 190.045C563.971 190.149 564.08 190.209 564.086 190.2C564.09 190.192 563.99 190.118 563.8 189.999C563.61 189.88 563.324 189.723 562.958 189.557C562.228 189.227 561.142 188.898 559.91 188.861C558.677 188.822 557.573 189.085 556.824 189.37C556.448 189.512 556.153 189.653 555.956 189.76C555.758 189.868 555.654 189.936 555.659 189.943Z" fill="white"/>
<path d="M555.659 188.592C555.664 188.601 555.776 188.549 555.979 188.456C556.181 188.363 556.479 188.238 556.855 188.108C557.604 187.849 558.691 187.606 559.905 187.644C561.117 187.681 562.189 187.988 562.921 188.294C563.289 188.445 563.578 188.589 563.774 188.694C563.971 188.797 564.08 188.857 564.086 188.848C564.09 188.84 563.992 188.766 563.8 188.647C563.61 188.529 563.324 188.371 562.958 188.206C562.228 187.875 561.142 187.546 559.91 187.509C558.677 187.471 557.573 187.733 556.824 188.019C556.447 188.161 556.153 188.301 555.956 188.408C555.759 188.516 555.656 188.584 555.659 188.592Z" fill="white"/>
<path d="M555.744 187.307C555.749 187.316 555.861 187.264 556.064 187.171C556.268 187.078 556.564 186.953 556.939 186.823C557.689 186.564 558.776 186.321 559.988 186.358C561.201 186.396 562.273 186.703 563.005 187.007C563.372 187.158 563.661 187.302 563.859 187.407C564.056 187.511 564.165 187.571 564.171 187.562C564.175 187.554 564.075 187.48 563.885 187.361C563.695 187.242 563.409 187.084 563.043 186.919C562.313 186.589 561.227 186.26 559.994 186.223C558.76 186.184 557.658 186.446 556.909 186.732C556.532 186.874 556.238 187.015 556.041 187.121C555.844 187.231 555.741 187.301 555.744 187.307Z" fill="white"/>
<path d="M630.575 99.2866C630.575 99.2866 630.282 133.878 628.523 144.432L585.137 142.379C585.137 142.379 588.948 108.374 587.483 99.2866H630.575Z" fill="#EBEBEB"/>
<path d="M594.024 113.818C594.01 114.053 600.517 114.635 608.555 115.118C616.595 115.602 623.124 115.804 623.138 115.569C623.152 115.334 616.646 114.752 608.606 114.269C600.568 113.785 594.04 113.583 594.024 113.818Z" fill="white"/>
<path d="M594.007 121.144C593.993 121.379 600.5 121.961 608.537 122.445C616.579 122.928 623.106 123.13 623.12 122.896C623.134 122.661 616.629 122.079 608.588 121.595C600.551 121.112 594.02 120.909 594.007 121.144Z" fill="white"/>
<path d="M601.386 128.338C601.372 128.573 605.074 128.987 609.653 129.262C614.234 129.537 617.96 129.571 617.974 129.336C617.987 129.101 614.287 128.689 609.704 128.412C605.125 128.136 601.4 128.103 601.386 128.338Z" fill="white"/>
<path d="M632.642 201.059C632.642 201.059 632.348 235.651 630.589 246.204L587.203 244.152C587.203 244.152 591.015 210.145 589.547 201.058H632.642V201.059Z" fill="#EBEBEB"/>
<path d="M596.081 215.588C596.067 215.823 602.574 216.405 610.611 216.889C618.652 217.372 625.18 217.574 625.194 217.34C625.208 217.105 618.703 216.523 610.662 216.039C602.625 215.556 596.095 215.355 596.081 215.588Z" fill="white"/>
<path d="M596.078 222.915C596.064 223.15 602.571 223.732 610.608 224.215C618.649 224.699 625.177 224.901 625.191 224.666C625.205 224.431 618.7 223.849 610.659 223.366C602.62 222.882 596.092 222.682 596.078 222.915Z" fill="white"/>
<path d="M603.456 230.109C603.442 230.344 607.144 230.758 611.724 231.032C616.305 231.307 620.03 231.341 620.044 231.107C620.058 230.872 616.357 230.459 611.775 230.183C607.194 229.908 603.47 229.874 603.456 230.109Z" fill="white"/>
<path d="M514.066 108.456L509.768 208.228L385.216 209.731L390.807 109.773L514.066 108.456Z" fill="#EBEBEB"/>
<path d="M391.791 107.741H515.515V201.166H391.791V107.741Z" fill="#F5F5F5"/>
<path d="M391.794 201.166C391.794 201.166 391.819 200.563 391.833 199.433C391.842 198.278 391.855 196.613 391.873 194.447C391.895 190.067 391.924 183.685 391.963 175.543C392.006 159.253 392.069 135.942 392.145 107.742L391.796 108.091C426.772 108.112 469.466 108.139 515.509 108.166H515.52L515.095 107.742C515.11 141.342 515.124 173.155 515.137 201.164L515.52 200.781C478.912 200.86 448.032 200.926 426.275 200.973C415.394 201.016 406.8 201.051 400.893 201.075C397.963 201.095 395.705 201.11 394.147 201.121C393.396 201.13 392.82 201.138 392.401 201.143C392.006 201.15 391.794 201.166 391.794 201.166C391.794 201.166 391.977 201.181 392.356 201.187C392.764 201.192 393.328 201.2 394.058 201.209C395.6 201.22 397.832 201.235 400.729 201.255C406.617 201.28 415.181 201.314 426.023 201.357C447.84 201.404 478.807 201.47 515.517 201.549L515.9 201.55V201.166C515.912 173.155 515.926 141.342 515.941 107.743V107.317H515.515H515.504C469.462 107.345 426.768 107.371 391.791 107.393H391.441L391.442 107.742C391.518 136.033 391.58 159.42 391.624 175.762C391.663 183.871 391.694 190.226 391.714 194.588C391.731 196.724 391.745 198.367 391.754 199.507C391.768 200.614 391.794 201.166 391.794 201.166Z" fill="#E0E0E0"/>
<path d="M450.435 127.532H500.589V190.654H450.435V127.532Z" fill="#F5F5F5"/>
<path d="M450.437 190.653C450.445 190.646 450.452 190.539 450.458 190.335C450.465 190.096 450.471 189.804 450.48 189.438C450.491 188.607 450.506 187.456 450.525 185.986C450.55 182.936 450.584 178.56 450.627 173.036C450.673 161.925 450.74 146.202 450.817 127.534L450.435 127.915C465.381 127.927 482.486 127.943 500.585 127.96C500.685 128.049 499.785 127.161 500.165 127.546V127.563V127.597V127.665V127.802V128.076V128.622V129.714V131.891C500.165 133.338 500.165 134.779 500.166 136.212C500.168 139.079 500.169 141.916 500.169 144.717C500.174 150.322 500.178 155.793 500.183 161.097C500.202 171.698 500.22 181.634 500.237 190.653L500.591 190.3C485.543 190.375 473.057 190.439 464.277 190.482C459.922 190.521 456.488 190.551 454.088 190.573C452.942 190.59 452.046 190.604 451.387 190.613C450.774 190.627 450.437 190.653 450.437 190.653C450.425 190.666 450.721 190.68 451.313 190.692C451.955 190.701 452.829 190.715 453.946 190.732C456.328 190.754 459.733 190.785 464.055 190.823C472.889 190.868 485.45 190.931 500.589 191.006L500.941 191.007V190.652C500.958 181.632 500.975 171.696 500.994 161.095C500.999 155.791 501.003 150.322 501.008 144.716C501.009 141.913 501.011 139.077 501.011 136.21C501.011 134.777 501.011 133.336 501.013 131.889V129.713V128.621V128.074V127.801V127.663V127.595V127.561V127.544C501.391 127.92 500.498 127.013 500.582 127.107C482.483 127.123 465.378 127.138 450.432 127.152H450.049L450.051 127.534C450.13 146.305 450.194 162.111 450.241 173.283C450.284 178.77 450.318 183.116 450.341 186.147C450.36 187.586 450.375 188.71 450.386 189.523C450.395 189.872 450.401 190.151 450.408 190.378C450.421 190.568 450.429 190.661 450.437 190.653Z" fill="#E0E0E0"/>
<path d="M402.544 113.09H498.663V122.186H402.544V113.09Z" fill="#F5F5F5"/>
<path d="M402.548 122.184C402.558 122.173 402.569 121.962 402.582 121.562C402.592 121.118 402.605 120.536 402.622 119.798C402.645 118.218 402.677 115.972 402.719 113.09L402.548 113.262C418.757 113.411 455.706 113.515 498.661 113.515H498.665C497.816 112.665 498.431 113.28 498.241 113.092V113.095V113.104V113.123V113.16V113.232V113.377V113.669V114.253V115.416C498.241 116.188 498.241 116.958 498.241 117.719C498.241 119.242 498.242 120.737 498.242 122.186L498.665 121.762C471.785 121.833 447.832 121.897 430.534 121.943C421.911 121.996 414.95 122.039 410.085 122.07C407.708 122.095 405.845 122.115 404.52 122.128C403.916 122.141 403.434 122.15 403.062 122.158C402.731 122.166 402.557 122.175 402.548 122.184C402.538 122.193 402.693 122.204 403.006 122.213C403.365 122.221 403.828 122.23 404.41 122.243C405.712 122.257 407.542 122.277 409.878 122.301C414.72 122.331 421.647 122.374 430.228 122.427C447.603 122.473 471.665 122.536 498.667 122.607L499.09 122.609V122.184C499.09 120.735 499.09 119.24 499.092 117.717C499.092 116.956 499.092 116.187 499.092 115.415V114.252V113.668V113.376V113.231V113.158V113.121V113.103V113.093V113.09C498.902 112.9 499.516 113.513 498.665 112.662H498.661C455.706 112.662 418.757 112.766 402.548 112.916L402.373 112.917L402.376 113.089C402.418 116.014 402.452 118.292 402.473 119.897C402.49 120.62 402.504 121.189 402.514 121.622C402.526 122.006 402.537 122.195 402.548 122.184Z" fill="#E0E0E0"/>
<path d="M402.548 127.532H444.292V165.575H402.548V127.532Z" fill="#F5F5F5"/>
<path d="M402.549 165.577C402.563 165.563 402.575 165.312 402.589 164.841C402.6 164.315 402.614 163.632 402.631 162.776C402.654 160.917 402.685 158.31 402.725 155.022C402.77 148.328 402.835 138.879 402.91 127.534L402.549 127.896C414.605 127.914 428.941 127.936 444.29 127.959C444.388 128.05 443.489 127.156 443.869 127.541V127.551V127.571V127.612V127.692V127.854V128.178V128.826V130.117C443.869 130.976 443.869 131.833 443.869 132.684C443.87 134.387 443.87 136.077 443.872 137.75C443.875 141.093 443.879 144.371 443.883 147.563C443.896 153.945 443.909 159.99 443.921 165.573L444.295 165.2C431.914 165.277 421.542 165.342 414.184 165.388C410.562 165.43 407.688 165.464 405.641 165.487C404.693 165.505 403.939 165.519 403.361 165.53C402.839 165.547 402.563 165.561 402.549 165.577C402.535 165.59 402.784 165.604 403.278 165.618C403.837 165.629 404.566 165.643 405.485 165.661C407.51 165.685 410.358 165.719 413.944 165.76C421.359 165.807 431.817 165.872 444.295 165.949L444.667 165.952L444.669 165.577C444.681 159.993 444.693 153.948 444.707 147.566C444.71 144.374 444.713 141.096 444.718 137.753C444.718 136.08 444.72 134.39 444.721 132.687C444.721 131.834 444.721 130.979 444.721 130.12V128.829V128.182V127.857V127.695V127.615V127.575V127.554V127.544C445.101 127.921 444.204 127.019 444.292 127.111C428.944 127.134 414.608 127.156 402.551 127.175H402.186L402.189 127.536C402.266 138.974 402.33 148.504 402.375 155.253C402.415 158.506 402.446 161.087 402.469 162.926C402.486 163.752 402.5 164.412 402.51 164.922C402.521 165.366 402.535 165.589 402.549 165.577Z" fill="#E0E0E0"/>
<path d="M402.544 171.539H444.288V190.654H402.544V171.539Z" fill="#F5F5F5"/>
<path d="M402.548 190.654C402.57 190.632 402.592 190.155 402.615 189.268C402.633 188.308 402.659 187.03 402.692 185.43C402.732 182.057 402.789 177.336 402.859 171.539L402.55 171.848C413.437 171.879 428.125 171.919 444.291 171.964C444.673 172.344 443.777 171.447 443.869 171.541V171.546V171.555V171.575V171.613V171.692V171.85V172.165V172.792V174.043C443.869 174.874 443.871 175.702 443.871 176.523C443.872 178.167 443.874 179.792 443.876 181.39C443.882 184.587 443.886 187.685 443.893 190.651L444.296 190.248C432.256 190.325 421.898 190.393 414.444 190.441C410.794 190.487 407.861 190.526 405.745 190.552C404.782 190.572 404.005 190.589 403.396 190.603C402.853 190.621 402.564 190.637 402.548 190.654C402.531 190.671 402.788 190.686 403.297 190.703C403.884 190.716 404.633 190.733 405.563 190.754C407.657 190.782 410.56 190.819 414.171 190.865C421.691 190.913 432.144 190.98 444.294 191.058L444.697 191.062V190.655C444.702 187.69 444.708 184.592 444.713 181.395C444.714 179.796 444.716 178.171 444.717 176.528C444.717 175.706 444.719 174.879 444.719 174.048V172.797V172.169V171.854V171.697V171.618V171.579V171.559V171.55V171.546C444.812 171.635 443.913 170.738 444.291 171.118C428.125 171.162 413.435 171.204 402.55 171.234L402.238 171.235L402.241 171.544C402.31 177.418 402.366 182.204 402.406 185.622C402.439 187.193 402.465 188.447 402.483 189.39C402.505 190.24 402.527 190.675 402.548 190.654Z" fill="#E0E0E0"/>
<path d="M451.675 127.642C467.2 149.088 485.064 169.207 500.589 190.653L451.675 127.642Z" fill="white"/>
<path d="M500.587 190.654C500.611 190.637 500.47 190.395 500.178 189.95C499.823 189.429 499.39 188.795 498.868 188.027C497.721 186.364 496.005 183.999 493.847 181.103C489.538 175.307 483.371 167.462 476.464 158.883C469.556 150.3 463.321 142.524 458.894 136.828C456.746 134.054 454.977 131.771 453.661 130.072C453.087 129.343 452.613 128.741 452.223 128.245C451.887 127.832 451.698 127.624 451.675 127.642C451.652 127.659 451.794 127.902 452.084 128.347C452.44 128.867 452.872 129.502 453.394 130.268C454.542 131.93 456.258 134.296 458.415 137.192C462.724 142.988 468.893 150.834 475.802 159.416C482.707 167.994 488.942 175.77 493.368 181.468C495.517 184.242 497.285 186.524 498.601 188.223C499.176 188.952 499.65 189.555 500.039 190.05C500.376 190.463 500.564 190.671 500.587 190.654Z" fill="#E0E0E0"/>
<path d="M450.432 190.654C450.616 190.801 461.994 176.787 475.842 159.36C489.694 141.925 500.771 127.679 500.588 127.532C500.404 127.386 489.029 141.396 475.176 158.83C461.327 176.258 450.248 190.507 450.432 190.654Z" fill="#E0E0E0"/>
<path d="M509.768 127.666C509.768 132 513.282 135.512 517.614 135.512C521.948 135.512 525.46 132 525.46 127.666C525.46 123.332 521.948 119.82 517.614 119.82C513.28 119.82 509.768 123.334 509.768 127.666Z" fill="#E0E0E0"/>
<path d="M381.446 108.621C381.446 112.955 384.959 116.467 389.292 116.467C393.626 116.467 397.138 112.955 397.138 108.621C397.138 104.288 393.624 100.775 389.292 100.775C384.958 100.775 381.446 104.288 381.446 108.621Z" fill="#E0E0E0"/>
<path d="M74.5227 163.272H164.941V294.331H74.5227V163.272Z" fill="#E0E0E0"/>
<path d="M79.0569 163.273H169.476V294.331H79.0569V163.273Z" fill="#F5F5F5"/>
<path d="M90.2901 177.468H158.241V280.137H90.2901V177.468Z" fill="white"/>
<path d="M90.2946 280.137C90.2946 280.137 90.3038 279.963 90.3085 279.635C90.3116 279.297 90.3162 278.812 90.3208 278.179C90.327 276.889 90.3363 275 90.3486 272.548C90.3625 267.627 90.3826 260.456 90.4089 251.399C90.4367 233.295 90.4737 207.658 90.5201 177.468L90.2946 177.693C111.056 177.7 134.059 177.706 158.238 177.714H158.246L158 177.468C158.019 216.199 158.036 251.91 158.049 280.137L158.246 279.941C137.553 279.985 120.59 280.02 108.787 280.045C102.882 280.066 98.2718 280.083 95.1226 280.094C93.5581 280.103 92.358 280.111 91.5363 280.116C90.7224 280.124 90.2946 280.137 90.2946 280.137C90.2946 280.137 90.6946 280.151 91.4931 280.159C92.307 280.164 93.4947 280.171 95.0438 280.181C98.1838 280.191 102.78 280.208 108.665 280.23C120.497 280.255 137.502 280.29 158.246 280.334H158.442V280.137C158.456 251.909 158.473 216.199 158.491 177.468V177.222H158.246H158.238C134.059 177.23 111.056 177.236 90.2946 177.242H90.0691V177.468C90.1139 207.718 90.1525 233.406 90.1803 251.548C90.2065 260.584 90.2266 267.737 90.2405 272.647C90.2529 275.079 90.2621 276.953 90.2683 278.233C90.2745 278.855 90.2791 279.33 90.2822 279.663C90.2853 279.981 90.2946 280.137 90.2946 280.137Z" fill="#E0E0E0"/>
<path d="M78.7763 163.274C78.7238 163.316 79.3369 164.212 80.3872 165.616C81.4374 167.019 82.9279 168.93 84.6299 170.996C86.3319 173.063 87.9227 174.892 89.0996 176.192C90.2765 177.493 91.0379 178.266 91.0889 178.222C91.1414 178.177 90.4727 177.321 89.3637 175.965C88.1513 174.495 86.6593 172.685 85.0098 170.683C83.3619 168.681 81.8714 166.871 80.6605 165.399C79.5408 164.051 78.8303 163.231 78.7763 163.274Z" fill="#E0E0E0"/>
<path d="M89.9424 279.805C86.5677 285.172 82.5829 290.155 78.09 294.628L89.9424 279.805Z" fill="white"/>
<path d="M78.0597 294.626C78.1045 294.671 78.9107 293.971 80.1262 292.747C81.3417 291.522 82.9511 289.761 84.5975 287.704C86.2424 285.645 87.6062 283.687 88.5328 282.232C89.4611 280.777 89.9661 279.836 89.9121 279.802C89.8503 279.764 89.2418 280.638 88.2456 282.037C87.2494 283.436 85.8486 285.35 84.2145 287.396C82.5789 289.44 81.0205 291.227 79.8745 292.507C78.7269 293.789 78.0087 294.575 78.0597 294.626Z" fill="#E0E0E0"/>
<path d="M169.459 294.229C165.511 289.357 161.564 284.488 157.616 279.616L169.459 294.229Z" fill="white"/>
<path d="M157.614 279.614C157.509 279.699 160.074 283.04 163.344 287.076C166.615 291.112 169.352 294.313 169.457 294.228C169.562 294.143 166.996 290.803 163.725 286.767C160.456 282.731 157.719 279.529 157.614 279.614Z" fill="#E0E0E0"/>
<path d="M169.451 163.274C169.344 163.189 166.769 166.267 163.702 170.145C160.633 174.026 158.233 177.239 158.34 177.322C158.446 177.407 161.019 174.331 164.088 170.449C167.157 166.571 169.557 163.357 169.451 163.274Z" fill="#E0E0E0"/>
<path d="M111.459 198.313H134.212V262.914H111.459V198.313Z" fill="#E0E0E0"/>
<path d="M95.3648 24.0168L108.308 24.0867L107.96 88.4916L95.0171 88.4217L95.3648 24.0168Z" fill="#E0E0E0"/>
<path d="M186.906 24.1864L220.425 24.3674L220.233 59.9229L186.714 59.7419L186.906 24.1864Z" fill="#EBEBEB"/>
<path d="M153.553 24.007L187.071 24.188L186.879 59.7435L153.361 59.5625L153.553 24.007Z" fill="#F5F5F5"/>
<path d="M220.393 34.2084C198.118 34.3922 175.788 34.2625 153.516 33.9011C153.058 33.8949 153.061 33.1921 153.521 33.1891C175.796 33.0655 198.126 33.1752 220.397 33.5983C220.788 33.6061 220.785 34.2053 220.393 34.2084Z" fill="#E0E0E0"/>
<path d="M180.419 59.1519L241.316 59.4807L241.16 88.4552L180.262 88.1263L180.419 59.1519Z" fill="#EBEBEB"/>
<path d="M119.813 58.8218L180.711 59.1506L180.554 88.1251L119.657 87.7963L119.813 58.8218Z" fill="#F5F5F5"/>
<path d="M241.294 67.5566C200.839 68.0153 160.242 67.6045 119.789 66.9574C119.33 66.9497 119.334 66.2469 119.792 66.2454C160.25 66.0322 200.848 66.0554 241.295 66.9466C241.689 66.9543 241.688 67.552 241.294 67.5566Z" fill="#E0E0E0"/>
<path d="M28.1348 88.4739H264.065V98.8543H28.1348V88.4739Z" fill="#E0E0E0"/>
<path d="M215.864 93.4639H225.441V128.885H215.864V93.4639Z" fill="#E0E0E0"/>
<path d="M72.8865 93.4644H82.4639V128.885H72.8865V93.4644Z" fill="#E0E0E0"/>
<path d="M82.7232 -6.67203e-05L95.666 0.0698242L95.1877 88.6489L82.2449 88.579L82.7232 -6.67203e-05Z" fill="#EBEBEB"/>
<path d="M62.4991 16.4883L82.6113 16.5969L82.2237 88.3798L62.1114 88.2712L62.4991 16.4883Z" fill="#F5F5F5"/>
<path d="M62.651 30.3442C62.651 30.5372 67.1532 30.6932 72.7056 30.6932C78.2611 30.6932 82.7617 30.5372 82.7617 30.3442C82.7617 30.1511 78.2596 29.9951 72.7056 29.9951C67.1532 29.9951 62.651 30.1511 62.651 30.3442Z" fill="#E0E0E0"/>
<path d="M62.651 27.3276C62.651 27.5206 67.1532 27.6766 72.7056 27.6766C78.2611 27.6766 82.7617 27.5206 82.7617 27.3276C82.7617 27.1345 78.2596 26.9785 72.7056 26.9785C67.1532 26.9801 62.651 27.136 62.651 27.3276Z" fill="#E0E0E0"/>
<path d="M62.651 77.4968C62.651 77.6898 67.1532 77.8458 72.7056 77.8458C78.2611 77.8458 82.7617 77.6898 82.7617 77.4968C82.7617 77.3037 78.2596 77.1477 72.7056 77.1477C67.1532 77.1477 62.651 77.3037 62.651 77.4968Z" fill="#E0E0E0"/>
<path d="M62.651 74.4806C62.651 74.6737 67.1532 74.8297 72.7056 74.8297C78.2611 74.8297 82.7617 74.6737 82.7617 74.4806C82.7617 74.2876 78.2596 74.1316 72.7056 74.1316C67.1532 74.1331 62.651 74.2891 62.651 74.4806Z" fill="#E0E0E0"/>
<path d="M72.3912 67.9009C72.5842 67.9009 72.7402 60.6589 72.7402 51.7271C72.7402 42.7923 72.5842 35.5518 72.3912 35.5518C72.1981 35.5518 72.0421 42.7923 72.0421 51.7271C72.0421 60.6589 72.1981 67.9009 72.3912 67.9009Z" fill="#E0E0E0"/>
<path d="M40.5382 34.1421H62.4297V88.3241H40.5382V34.1421Z" fill="#EBEBEB"/>
<path d="M50.8655 74.2723C53.7444 74.2723 55.7568 72.2227 55.7568 69.3994C55.7568 67.8673 55.1653 66.5391 53.9853 65.7437L53.488 66.4279C54.4657 67.1291 54.9275 68.1994 54.9275 69.3994C54.9275 71.6714 53.3027 73.3317 50.8655 73.3317C48.4283 73.3317 46.8035 71.6698 46.8035 69.3994C46.8035 68.1994 47.2653 67.1291 48.2445 66.4279L47.7456 65.7437C46.5826 66.5375 45.9741 67.8673 45.9741 69.3994C45.9726 72.2227 48.0035 74.2723 50.8655 74.2723Z" fill="#FAFAFA"/>
<path d="M47.2097 64.3984L47.9479 63.9737C47.3209 63.2354 46.7849 61.9242 46.7849 60.5032C46.7849 58.4723 47.5047 57.6614 48.5951 57.6614C51.4014 57.6614 49.3334 64.0478 53.1173 64.0478C54.5753 64.0478 55.7568 62.8292 55.7568 60.392C55.7568 59.1734 55.3877 57.8452 54.8162 57.0884L54.078 57.5131C54.6695 58.324 54.946 59.3773 54.946 60.4106C54.946 62.2933 54.1707 63.1258 53.1374 63.1258C50.24 63.1258 52.2879 56.7378 48.6152 56.7378C47.046 56.7378 45.9756 58.0846 45.9756 60.5403C45.9725 62.128 46.5085 63.6416 47.2097 64.3984Z" fill="#FAFAFA"/>
<path d="M47.2097 55.5764L47.9479 55.1517C47.3209 54.4134 46.7849 53.1021 46.7849 51.6797C46.7849 49.6502 47.5047 48.8378 48.5951 48.8378C51.4014 48.8378 49.3334 55.2243 53.1173 55.2243C54.5753 55.2243 55.7568 54.0057 55.7568 51.57C55.7568 50.3499 55.3877 49.0216 54.8162 48.2648L54.078 48.6896C54.6695 49.502 54.946 50.5553 54.946 51.5885C54.946 53.4697 54.1707 54.3022 53.1374 54.3022C50.24 54.3022 52.2879 47.9158 48.6152 47.9158C47.046 47.9158 45.9756 49.2626 45.9756 51.7183C45.9725 53.306 46.5085 54.8196 47.2097 55.5764Z" fill="#FAFAFA"/>
<path d="M89.3936 18.8703C87.3387 18.8703 85.6729 17.2045 85.6729 15.1496C85.6729 13.0948 87.3387 11.429 89.3936 11.429C91.4485 11.429 93.1143 13.0948 93.1143 15.1496C93.1143 17.2045 91.4485 18.8703 89.3936 18.8703Z" fill="#E0E0E0"/>
<path d="M88.2472 25.3799H90.5469V78.0745H88.2472V25.3799Z" fill="#E0E0E0"/>
<path d="M0.995544 638.414C0.995544 638.636 150.174 638.815 334.153 638.815C518.195 638.815 667.343 638.635 667.343 638.414C667.343 638.191 518.197 638.012 334.153 638.012C150.174 638.012 0.995544 638.191 0.995544 638.414Z" fill="#263238"/>
<path d="M486.92 107.45C511.706 146.436 510.083 200.488 483.003 237.915C464.951 262.866 437.87 279.591 416.366 301.637C394.863 323.685 378.531 356.175 389.88 384.805C401.433 413.951 435.269 425.807 460.61 444.269C488.211 464.378 507.597 495.439 513.536 529.068C519.475 562.698 511.9 598.519 492.857 626.867H229.64C229.64 626.867 183.403 538.746 242.85 471.592C302.297 404.438 334.223 403.337 332.022 359.302C329.82 315.267 298.995 300.955 281.382 284.443C263.768 267.931 177.898 229.399 228.539 107.451L486.92 107.45Z" fill="#FAFAFA"/>
<path d="M486.91 107.45C486.91 107.45 485.383 107.425 482.379 107.412C479.366 107.405 474.896 107.392 469.036 107.377C457.289 107.36 439.975 107.335 417.673 107.303C373.023 107.27 308.411 107.223 228.529 107.164H228.336L228.267 107.34C224.67 116.474 221.035 125.875 218.459 135.842C215.809 145.764 213.636 156.101 212.867 166.813C212.06 177.504 212.406 188.544 214.536 199.508C216.734 210.442 220.651 221.272 226.433 231.289C229.309 236.309 232.692 241.075 236.347 245.674C240.045 250.246 244.139 254.544 248.472 258.647C252.812 262.744 257.434 266.604 262.234 270.297C267.024 274.002 272.023 277.505 276.905 281.202C279.35 283.046 281.584 285.114 283.913 287.187C286.254 289.22 288.665 291.181 291.098 293.124C295.961 297.015 300.874 300.904 305.512 305.162C314.874 313.537 322.781 323.995 327.131 336.167C329.24 342.242 330.752 348.606 331.247 355.121C331.378 356.747 331.596 358.372 331.656 360.006C331.688 361.642 331.781 363.282 331.704 364.921C331.682 368.203 331.313 371.48 330.717 374.714C329.48 381.18 326.765 387.375 322.817 392.745C318.926 398.164 314.129 402.935 309.165 407.525C299.171 416.663 288.573 425.384 278.419 434.801C268.216 444.165 258.31 454.051 248.767 464.441C244.031 469.654 239.217 474.899 235.078 480.717C230.796 486.425 227.202 492.662 224.044 499.116C217.818 512.084 213.969 526.31 212.709 540.856C211.353 555.403 212.389 570.227 215.273 584.735C216.7 591.995 218.594 599.186 220.92 606.26C223.247 613.335 225.933 620.312 229.277 627.05L229.383 627.266H229.632C231.768 627.266 234.088 627.266 236.409 627.266C326.261 627.26 412.957 627.254 492.847 627.248H493.053L493.166 627.078C505.707 608.251 513.153 586.622 515.207 564.947C517.389 543.268 514.053 521.528 506.101 502.233C498.252 482.868 486.05 465.884 471.306 452.535C463.956 445.807 455.761 440.302 447.552 435.209C439.334 430.107 431.046 425.389 423.211 420.226C415.41 415.052 407.892 409.541 401.788 402.798C395.662 396.112 390.981 388.258 388.53 379.816C386.068 371.366 386.045 362.505 387.484 354.162C388.944 345.789 391.891 337.872 395.619 330.579C399.358 323.277 403.893 316.572 408.868 310.455C413.83 304.317 419.347 298.87 424.899 293.728C436.043 283.471 447.444 274.499 457.709 265.28C462.849 260.681 467.72 256.038 472.204 251.267C476.655 246.47 480.725 241.551 484.22 236.455C491.269 226.29 496.103 215.579 499.28 205.24C502.462 194.889 504.043 184.882 504.406 175.675C504.623 173.377 504.538 171.122 504.535 168.921C504.505 166.721 504.572 164.569 504.343 162.483C504.182 160.393 504.025 158.356 503.872 156.371C503.634 154.397 503.308 152.485 503.043 150.622C500.726 135.712 496.227 124.817 492.719 117.844C491.879 116.072 491.139 114.514 490.338 113.252C489.585 111.972 488.955 110.897 488.449 110.03C487.432 108.311 486.91 107.45 486.91 107.45C487.019 107.64 487.448 108.398 488.402 110.084C488.9 110.952 489.517 112.029 490.254 113.312C491.037 114.568 491.769 116.13 492.599 117.904C496.063 124.888 500.514 135.78 502.786 150.664C503.046 152.524 503.367 154.431 503.599 156.402C503.745 158.382 503.898 160.414 504.053 162.5C504.275 164.581 504.204 166.728 504.229 168.923C504.227 171.118 504.307 173.368 504.087 175.658C503.705 184.84 502.11 194.816 498.92 205.129C495.737 215.429 490.903 226.094 483.866 236.208C480.377 241.279 476.315 246.176 471.87 250.954C467.394 255.706 462.526 260.333 457.388 264.919C447.126 274.113 435.714 283.071 424.54 293.336C418.973 298.479 413.43 303.942 408.438 310.104C403.436 316.245 398.873 322.976 395.106 330.315C391.35 337.647 388.375 345.613 386.896 354.058C385.436 362.473 385.45 371.431 387.935 379.984C390.408 388.53 395.142 396.478 401.318 403.227C407.473 410.035 415.03 415.578 422.851 420.774C430.708 425.957 438.997 430.683 447.199 435.78C455.394 440.872 463.539 446.352 470.846 453.047C485.503 466.335 497.637 483.239 505.435 502.505C513.337 521.701 516.643 543.315 514.466 564.876C512.416 586.43 505.001 607.939 492.531 626.65L492.849 626.48C412.959 626.474 326.264 626.47 236.411 626.463C234.089 626.463 231.771 626.463 229.633 626.463L229.989 626.678C226.687 620.02 223.998 613.046 221.684 606.011C219.367 598.969 217.482 591.807 216.061 584.58C213.189 570.138 212.159 555.391 213.506 540.93C214.757 526.471 218.58 512.34 224.761 499.461C227.897 493.051 231.465 486.856 235.719 481.183C239.827 475.407 244.613 470.19 249.349 464.975C258.875 454.6 268.763 444.727 278.949 435.375C289.088 425.966 299.667 417.257 309.69 408.089C314.668 403.483 319.498 398.682 323.439 393.189C327.439 387.748 330.21 381.427 331.461 374.86C332.067 371.576 332.439 368.254 332.459 364.938C332.536 363.279 332.444 361.628 332.41 359.977C332.348 358.327 332.128 356.69 331.996 355.05C331.495 348.483 329.966 342.055 327.832 335.917C323.433 323.615 315.423 313.043 306.007 304.629C301.342 300.349 296.411 296.451 291.55 292.566C289.118 290.627 286.713 288.671 284.385 286.651C282.096 284.617 279.801 282.495 277.341 280.642C272.434 276.929 267.446 273.438 262.665 269.744C257.877 266.063 253.27 262.222 248.947 258.145C244.632 254.063 240.556 249.791 236.877 245.247C233.241 240.675 229.874 235.941 227.014 230.954C221.261 221.003 217.364 210.249 215.171 199.382C213.047 188.485 212.694 177.503 213.487 166.858C214.244 156.192 216.402 145.889 219.037 135.995C221.596 126.057 225.215 116.673 228.795 107.555L228.532 107.731C308.367 107.672 372.94 107.624 417.562 107.592C439.881 107.559 457.208 107.534 468.965 107.517C474.84 107.502 479.322 107.49 482.342 107.482C485.355 107.474 486.91 107.45 486.91 107.45Z" fill="#263238"/>
<path d="M239.042 178.952C200.274 185.325 261.4 253.986 295.998 281.079C316.031 296.768 337.547 313.781 347.061 337.38C357.856 364.155 349.855 394.25 355.086 421.184C355.954 425.655 362.565 424.952 362.498 420.398C362.241 402.72 362.712 385.049 365.641 367.643C369.796 342.957 379.287 318.536 396.588 300.444C410.711 285.677 429.229 275.864 444.294 262.057C466.289 241.902 488.882 215.905 491.086 186.154C491.086 186.154 448.857 152.138 425.416 156.432C398.022 161.45 371.053 203.721 328.605 198.88C298.966 195.5 284.009 171.562 239.042 178.952Z" fill="#03736D"/>
<path d="M235.596 546.455C236.575 536.761 239.161 525.789 247.765 521.215C252.978 518.445 259.324 518.754 265.032 520.255C270.741 521.756 276.105 524.352 281.764 526.033C292.898 529.339 305.095 528.953 315.997 524.948C326.515 521.084 335.544 514.1 345.311 508.609C355.079 503.119 366.511 499.026 377.384 501.732C396.134 506.398 405.892 528.97 424.429 534.421C432.669 536.843 441.516 535.483 449.892 533.585C458.267 531.687 466.675 529.251 475.257 529.573C481.981 529.824 488.978 532.149 493.692 536.758L493.642 536.693C493.69 536.741 493.73 536.792 493.778 536.841C494.553 537.609 495.265 538.438 495.903 539.332C501.653 546.997 502.572 557.304 500.804 566.663C498.824 577.143 493.928 586.83 488.674 596.11C482.485 607.042 475.456 617.928 465.224 625.216C452.601 634.208 436.726 628.002 421.277 629.221C385.239 632.064 346.468 634.006 310.426 631.212C291.389 629.735 273.544 631.799 258.437 620.119C247.808 611.903 240.897 599.518 237.564 586.502C234.231 573.487 234.246 559.821 235.596 546.455Z" fill="#03736D"/>
<g opacity="0.24">
<path d="M303.61 527.886C305.646 531.001 306.512 535.174 304.551 538.337C302.589 541.5 299.937 544.375 299.086 547.998C297.75 553.688 301.176 559.253 303.731 564.51C308.301 573.914 310.38 584.642 308.838 594.984C307.297 605.326 301.991 615.206 293.715 621.594C290.054 624.419 285.299 626.609 280.888 625.227C276.735 623.925 274.049 619.71 273.224 615.436C272.399 611.163 273.08 606.761 273.622 602.443C276.14 582.4 275.624 561.979 272.098 542.089C271.508 538.764 270.944 534.967 273.052 532.328C274.398 530.643 276.545 529.85 278.591 529.168C286.624 526.494 295.293 529.466 303.61 527.886Z" fill="black"/>
</g>
<path d="M512.174 638.817C512.174 638.817 512.898 626.736 497.143 620.011H220.291C220.291 620.011 205.855 627.318 204.077 638.566L512.174 638.817Z" fill="#263238"/>
<path d="M226.159 108.922C226.303 108.99 226.45 109.058 226.598 109.126L486.922 107.45C486.922 107.45 487.846 106.859 489.231 105.776C496.648 99.9749 492.485 88.0592 483.07 88.1349L230.405 90.1751C219.975 90.2601 216.729 104.466 226.159 108.922Z" fill="#263238"/>
<g opacity="0.24">
<path d="M267.819 208.226C267.296 209.23 269.248 211.4 272.981 214.713C276.725 218.029 282.191 222.577 289.138 228.177C296.123 233.731 304.586 240.428 315.366 246.677C320.766 249.797 326.777 252.628 333.35 254.931C336.655 256.04 340.081 257.07 343.684 257.788C347.266 258.556 351.005 259.066 354.849 259.242C362.516 259.682 370.314 258.559 377.292 256.174C384.231 253.766 390.15 250.373 395.325 246.969C400.515 243.528 404.989 240.132 409.206 236.881C413.405 233.622 417.232 230.48 420.653 227.526C434.328 215.678 441.519 206.965 440.132 205.284C438.699 203.535 429.02 209.077 413.933 218.347C410.163 220.662 406.038 223.195 401.611 225.912C397.19 228.605 392.433 231.578 387.583 234.328C382.718 237.077 377.641 239.577 372.376 241.199C367.146 242.762 361.569 243.505 355.637 243.173C343.78 242.567 332.273 238.39 322.304 233.578C312.283 228.675 303.324 223.127 295.507 218.751C287.701 214.326 281.024 211.057 276.165 209.319C271.299 207.576 268.323 207.26 267.819 208.226Z" fill="black"/>
</g>
<path d="M362.303 453.451C359.446 452.446 356.031 455.32 356.535 458.307C357.038 461.294 361.208 462.89 363.578 461.002C365.947 459.115 365.324 454.695 362.526 453.536" fill="#03736D"/>
<path d="M455.418 251.308C455.438 251.326 455.754 251.007 456.337 250.381C456.962 249.695 457.802 248.775 458.859 247.617C459.925 246.39 461.327 244.972 462.76 243.161C464.215 241.351 465.862 239.301 467.676 237.043C469.355 234.669 471.261 232.112 473.176 229.277C474.088 227.827 475.028 226.329 475.998 224.786C476.475 224.009 476.993 223.242 477.454 222.425C477.902 221.6 478.355 220.764 478.814 219.918C482.615 213.226 485.999 205.389 488.405 196.828C490.813 188.262 491.942 179.794 492.044 172.085C492.05 170.159 491.945 168.281 491.902 166.457C491.858 165.546 491.875 164.644 491.784 163.764C491.69 162.883 491.597 162.017 491.506 161.166C491.312 159.464 491.176 157.814 490.947 156.242C490.664 154.681 490.393 153.179 490.133 151.744C489.691 148.864 488.93 146.336 488.385 144.092C488.088 142.975 487.857 141.925 487.562 140.979C487.256 140.045 486.975 139.188 486.72 138.408C486.221 136.922 485.826 135.739 485.531 134.859C485.25 134.051 485.09 133.631 485.064 133.64C485.038 133.649 485.146 134.086 485.376 134.91C485.636 135.799 485.983 136.995 486.42 138.497C486.655 139.282 486.911 140.144 487.192 141.083C487.464 142.031 487.674 143.085 487.949 144.201C488.451 146.448 489.171 148.974 489.574 151.846C489.817 153.275 490.07 154.772 490.334 156.327C490.544 157.891 490.663 159.533 490.844 161.226C490.927 162.072 491.012 162.934 491.098 163.808C491.182 164.684 491.159 165.578 491.196 166.483C491.227 168.295 491.321 170.159 491.304 172.071C491.16 179.721 490.019 188.111 487.631 196.605C485.245 205.097 481.909 212.884 478.163 219.558C477.712 220.401 477.266 221.235 476.827 222.057C476.373 222.871 475.862 223.639 475.394 224.415C474.441 225.958 473.516 227.456 472.62 228.907C470.738 231.744 468.866 234.309 467.222 236.697C465.448 238.977 463.837 241.043 462.413 242.87C461.017 244.704 459.65 246.149 458.623 247.405C457.614 248.604 456.814 249.558 456.216 250.267C455.673 250.934 455.398 251.289 455.418 251.308Z" fill="#263238"/>
<path d="M470.07 480.759C470.083 480.753 469.984 480.58 469.781 480.251C469.553 479.889 469.249 479.409 468.862 478.799C468.444 478.15 467.937 477.367 467.344 476.45C467.042 475.985 466.716 475.484 466.37 474.953C465.99 474.444 465.545 473.929 465.095 473.37C464.183 472.255 463.17 471.018 462.065 469.668C460.876 468.388 459.514 467.061 458.085 465.601C455.152 462.766 451.606 459.738 447.482 456.679C439.284 450.465 428.707 444.291 417.243 437.086C411.553 433.424 405.565 429.566 399.903 424.869C394.233 420.209 388.767 414.836 384.342 408.426C375.616 395.453 372.071 380.422 371.762 366.988C371.41 353.45 374.289 341.394 377.682 331.783C381.116 322.138 385.054 314.795 387.913 309.843C389.343 307.362 390.519 305.471 391.326 304.198C391.709 303.585 392.009 303.103 392.236 302.742C392.437 302.411 392.534 302.238 392.523 302.231C392.512 302.223 392.392 302.381 392.168 302.697C391.926 303.049 391.603 303.516 391.192 304.11C390.338 305.357 389.119 307.222 387.644 309.686C384.696 314.599 380.666 321.924 377.146 331.593C373.668 341.226 370.707 353.352 371.021 367.006C371.078 370.41 371.353 373.896 371.874 377.422C372.362 380.953 373.108 384.527 374.135 388.09C376.121 395.233 379.309 402.326 383.677 408.879C388.16 415.376 393.689 420.798 399.406 425.482C405.117 430.203 411.134 434.062 416.847 437.714C428.355 444.899 438.937 451.008 447.144 457.139C451.274 460.159 454.828 463.139 457.775 465.93C459.209 467.367 460.582 468.672 461.781 469.931C462.901 471.257 463.925 472.473 464.85 473.569C465.307 474.119 465.76 474.623 466.147 475.125C466.502 475.647 466.836 476.136 467.148 476.593C467.764 477.492 468.291 478.258 468.725 478.893C469.139 479.485 469.465 479.951 469.71 480.3C469.937 480.608 470.059 480.767 470.07 480.759Z" fill="#263238"/>
<path d="M484.447 508.05C484.423 508.066 484.541 508.311 484.785 508.767C485.081 509.296 485.444 509.945 485.884 510.733C486.382 511.573 486.972 512.612 487.568 513.867C488.176 515.113 488.946 516.492 489.597 518.114C489.945 518.917 490.308 519.754 490.685 520.625C491.057 521.501 491.361 522.445 491.724 523.402C492.479 525.31 493.065 527.421 493.732 529.625C494.921 534.075 495.914 539.051 496.429 544.344C496.886 549.645 496.815 554.721 496.455 559.311C496.199 561.6 496.009 563.784 495.613 565.797C495.431 566.805 495.304 567.789 495.097 568.717C494.886 569.642 494.68 570.532 494.486 571.385C494.141 573.097 493.635 574.594 493.264 575.93C492.906 577.271 492.515 578.4 492.18 579.317C491.889 580.171 491.652 580.874 491.455 581.45C491.298 581.941 491.228 582.205 491.253 582.216C491.279 582.227 491.4 581.984 491.605 581.512C491.838 580.95 492.126 580.261 492.472 579.427C492.855 578.522 493.29 577.403 493.692 576.068C494.107 574.736 494.654 573.241 495.037 571.525C495.25 570.67 495.473 569.777 495.704 568.85C495.93 567.917 496.073 566.929 496.271 565.916C496.697 563.891 496.917 561.691 497.195 559.382C497.599 554.752 497.694 549.624 497.232 544.273C496.713 538.929 495.687 533.905 494.447 529.426C493.754 527.206 493.139 525.084 492.351 523.171C491.973 522.21 491.652 521.263 491.261 520.387C490.864 519.518 490.484 518.681 490.118 517.878C489.429 516.261 488.618 514.889 487.968 513.657C487.33 512.416 486.698 511.395 486.156 510.575C485.664 509.817 485.256 509.193 484.924 508.683C484.633 508.252 484.471 508.035 484.447 508.05Z" fill="#263238"/>
<path d="M293.488 545.169C293.48 545.181 293.587 545.257 293.801 545.397C294.059 545.558 294.374 545.756 294.765 546C295.678 546.548 296.929 547.3 298.512 548.252C299.335 548.74 300.242 549.277 301.232 549.862C302.243 550.42 303.383 550.95 304.586 551.558C307.016 552.73 309.712 554.222 312.896 555.426C314.469 556.071 316.116 556.746 317.83 557.45C319.552 558.141 321.41 558.674 323.298 559.327C327.057 560.7 331.219 561.678 335.569 562.813C344.34 564.765 354.153 566.195 364.532 566.527C374.917 566.737 384.796 565.82 393.658 564.33C398.062 563.425 402.269 562.665 406.096 561.489C408.016 560.936 409.9 560.499 411.655 559.9C413.404 559.287 415.083 558.698 416.69 558.136C419.93 557.101 422.702 555.753 425.189 554.709C426.423 554.164 427.587 553.693 428.627 553.189C429.645 552.656 430.579 552.165 431.427 551.722C433.058 550.854 434.346 550.17 435.287 549.669C435.688 549.447 436.014 549.265 436.28 549.118C436.501 548.99 436.612 548.919 436.604 548.906C436.598 548.894 436.474 548.942 436.24 549.047C435.965 549.175 435.626 549.333 435.209 549.527C434.255 549.994 432.945 550.633 431.288 551.442C430.434 551.866 429.492 552.334 428.465 552.842C427.419 553.324 426.248 553.771 425.01 554.295C422.514 555.296 419.738 556.604 416.498 557.599C414.895 558.144 413.216 558.712 411.469 559.305C409.716 559.886 407.837 560.305 405.923 560.842C402.107 561.985 397.915 562.716 393.532 563.597C384.708 565.042 374.883 565.93 364.556 565.721C354.234 565.391 344.473 563.99 335.737 562.087C331.406 560.978 327.258 560.03 323.508 558.689C321.625 558.053 319.769 557.537 318.05 556.865C316.335 556.181 314.69 555.524 313.116 554.897C309.933 553.734 307.229 552.284 304.789 551.154C303.579 550.565 302.433 550.057 301.414 549.521C300.415 548.959 299.499 548.443 298.668 547.975C297.055 547.081 295.78 546.373 294.851 545.858C294.445 545.641 294.115 545.467 293.848 545.323C293.616 545.21 293.495 545.156 293.488 545.169Z" fill="#263238"/>
<path d="M277.375 218.294C277.367 218.305 277.479 218.408 277.704 218.6C277.967 218.816 278.3 219.091 278.717 219.434C279.664 220.189 280.983 221.243 282.66 222.582C286.097 225.298 291.064 229.238 297.342 233.932C303.633 238.599 311.253 244.036 320.315 249.119C324.89 251.562 329.761 254.06 335.114 255.929C340.449 257.81 346.183 259.252 352.191 259.726C364.258 260.543 375.697 257.485 385.004 252.901C389.658 250.569 393.855 247.956 397.676 245.364C401.448 242.703 404.891 240.128 407.936 237.66C414.051 232.754 418.842 228.6 422.17 225.754C423.794 224.352 425.069 223.247 425.987 222.455C426.39 222.097 426.711 221.809 426.966 221.582C427.184 221.382 427.292 221.275 427.283 221.264C427.273 221.253 427.148 221.34 426.914 221.519C426.645 221.731 426.307 221.998 425.882 222.331C424.943 223.096 423.633 224.16 421.968 225.515C418.578 228.289 413.731 232.375 407.583 237.216C404.52 239.651 401.068 242.189 397.298 244.814C393.48 247.369 389.296 249.944 384.677 252.236C375.442 256.738 364.143 259.726 352.249 258.923C346.33 258.455 340.663 257.039 335.378 255.186C330.074 253.346 325.228 250.881 320.67 248.469C311.638 243.449 304.002 238.076 297.677 233.473C291.365 228.846 286.345 224.974 282.85 222.333C281.134 221.045 279.784 220.032 278.815 219.306C278.379 218.989 278.028 218.734 277.752 218.535C277.511 218.365 277.383 218.283 277.375 218.294Z" fill="#263238"/>
<g opacity="0.24">
<path d="M416.675 558.142C409.357 552.491 399.074 553.863 390.025 555.764C380.977 557.665 371.862 560.76 362.704 559.478C355.804 558.513 349.473 555.117 342.662 553.642C335.852 552.167 327.589 553.257 323.813 559.114C353.776 568.855 386.922 568.509 416.675 558.142Z" fill="black"/>
</g>
<path d="M161.283 516.231L194.547 478.987L194.884 524.259L184.872 553.297L284.369 570.555L288.589 492.049L295.752 431.757C296.629 424.37 292.416 417.319 285.494 414.593L258.112 403.811L219.546 410.886L204.032 416.783C197.518 419.259 191.713 423.296 187.126 428.543L140.425 481.948" fill="#03736D"/>
<path d="M196.876 470.082C196.868 469.922 194.687 470.245 191.257 469.686C187.862 469.156 183.17 467.496 179.278 463.914C175.392 460.323 173.357 455.781 172.555 452.439C171.721 449.066 171.865 446.866 171.707 446.871C171.659 446.87 171.58 447.412 171.566 448.4C171.549 449.389 171.645 450.827 172 452.567C172.679 456.022 174.696 460.775 178.733 464.506C182.776 468.228 187.677 469.855 191.175 470.25C192.939 470.463 194.38 470.443 195.364 470.346C196.349 470.251 196.882 470.129 196.876 470.082Z" fill="white"/>
<path d="M193.974 522.331C193.741 522.33 193.682 506.645 193.84 487.305C193.999 467.959 194.315 452.281 194.547 452.284C194.78 452.286 194.839 467.967 194.681 487.313C194.524 506.653 194.207 522.333 193.974 522.331Z" fill="#263238"/>
<path d="M197.61 533.839L257.731 509.637C262.579 507.685 265.901 503.15 266.298 497.939L270.698 440.299C270.698 440.299 270.178 415.785 285.49 414.591L294.201 418.022C305.459 424 308.248 440.392 306.716 453.047C304.538 471.03 303.631 496.477 301.194 512.084C299.2 524.85 291.889 536.08 279.394 539.368L205.345 555.399L197.61 533.839Z" fill="#03736D"/>
<path d="M269.832 449.093C269.804 449.091 269.739 449.545 269.642 450.413C269.546 451.352 269.418 452.619 269.256 454.211C268.949 457.589 268.516 462.346 267.985 468.19C267.475 474.118 266.873 481.139 266.202 488.929C266.039 490.882 265.87 492.882 265.699 494.925C265.52 496.968 265.396 499.061 264.931 501.092C264.491 503.131 263.512 505.04 261.943 506.493C260.383 507.953 258.432 509.02 256.395 509.945C239.817 517.119 224.538 523.041 213.448 527.195C207.941 529.223 203.462 530.874 200.281 532.047C198.78 532.6 197.586 533.04 196.701 533.367C195.885 533.676 195.461 533.851 195.47 533.878C195.479 533.905 195.921 533.781 196.753 533.522C197.651 533.23 198.861 532.837 200.384 532.343C203.53 531.301 208.067 529.738 213.644 527.731C224.8 523.708 240.102 517.874 256.729 510.679C258.795 509.738 260.826 508.637 262.493 507.077C264.173 505.526 265.251 503.401 265.697 501.273C266.178 499.14 266.291 497.032 266.464 494.995C266.626 492.951 266.785 490.95 266.941 488.996C267.546 481.199 268.091 474.172 268.552 468.238C268.976 462.384 269.322 457.621 269.568 454.237C269.667 452.64 269.746 451.371 269.804 450.428C269.851 449.553 269.86 449.094 269.832 449.093Z" fill="#263238"/>
<path d="M304.276 480.427C304.248 480.425 304.209 480.692 304.157 481.2C304.103 481.801 304.038 482.536 303.958 483.426C303.779 485.48 303.538 488.245 303.244 491.605C302.915 495.054 302.497 499.161 301.897 503.699C301.28 508.229 300.549 513.227 299.182 518.3C298.535 520.863 297.625 523.229 296.248 525.261C294.87 527.311 293.339 529.15 291.756 530.78C288.578 534.031 285.185 536.414 282.136 537.997C275.984 541.194 271.513 541.24 271.576 541.454C271.578 541.481 271.846 541.474 272.358 541.435C272.869 541.4 273.626 541.341 274.582 541.148C276.498 540.81 279.255 540.057 282.392 538.502C285.524 536.958 289.015 534.581 292.283 531.299C293.909 529.654 295.482 527.788 296.899 525.701C298.337 523.609 299.313 521.077 299.956 518.513C301.343 513.363 302.049 508.348 302.631 503.793C303.192 499.234 303.553 495.115 303.809 491.652C304.063 488.189 304.197 485.383 304.268 483.443C304.287 482.549 304.304 481.812 304.316 481.208C304.319 480.697 304.304 480.427 304.276 480.427Z" fill="#263238"/>
<path d="M278.571 520.761C278.652 520.737 278.398 519.452 277.476 517.557C276.566 515.667 274.881 513.222 272.428 511.118C269.966 509.024 267.288 507.744 265.277 507.14C263.262 506.527 261.952 506.476 261.941 506.561C261.916 506.695 263.178 506.945 265.09 507.677C267.001 508.402 269.532 509.713 271.905 511.73C274.268 513.758 275.959 516.053 276.974 517.826C277.996 519.598 278.441 520.805 278.571 520.761Z" fill="#263238"/>
<path d="M266.742 476.925C266.734 476.913 266.606 476.972 266.361 477.094C266.077 477.242 265.723 477.427 265.284 477.657C264.319 478.111 262.912 478.825 260.995 479.477C257.216 480.789 251.293 482.124 244.145 480.916C237.088 479.762 228.882 475.603 223.199 467.902C220.386 464.1 218.208 459.415 217.714 454.282C217.465 451.732 217.674 449.075 218.516 446.575C219.34 444.08 220.851 441.765 222.851 439.952C224.84 438.134 227.312 436.854 229.908 436.523C232.465 436.118 235.207 436.795 236.982 438.509C237.839 439.371 238.373 440.523 238.361 441.709C238.364 442.894 237.908 444.063 237.199 445.013C235.775 446.958 233.377 447.864 231.083 448.202C226.399 448.847 221.796 447.999 217.943 446.323C214.071 444.635 210.908 442.126 208.629 439.359C206.347 436.579 204.94 433.573 204.1 430.847C203.255 428.11 202.997 425.628 202.955 423.614C202.924 421.594 203.136 420.031 203.293 418.976C203.383 418.49 203.455 418.097 203.513 417.782C203.56 417.512 203.577 417.371 203.564 417.368C203.564 417.368 202.713 419.511 202.642 423.614C202.634 425.653 202.848 428.178 203.667 430.975C204.481 433.762 205.877 436.847 208.186 439.719C210.492 442.577 213.712 445.177 217.672 446.934C221.62 448.68 226.331 449.583 231.191 448.938C233.579 448.593 236.199 447.653 237.814 445.473C238.606 444.417 239.136 443.101 239.138 441.709C239.156 440.313 238.52 438.939 237.538 437.955C235.524 436.004 232.544 435.311 229.798 435.731C227.018 436.084 224.4 437.447 222.307 439.357C220.204 441.266 218.622 443.691 217.754 446.321C216.874 448.947 216.664 451.713 216.926 454.356C217.452 459.67 219.708 464.464 222.599 468.342C228.445 476.193 236.85 480.372 244.048 481.477C251.333 482.63 257.316 481.185 261.097 479.77C264.924 478.312 266.742 476.925 266.742 476.925Z" fill="white"/>
<path d="M306.123 461.552C306.16 461.518 305.824 461.068 305.136 460.321C304.443 459.579 303.369 458.562 301.888 457.496C298.971 455.301 294.138 453.306 288.589 452.782C285.815 452.487 283.123 452.62 280.75 453.111C278.375 453.604 276.332 454.404 274.71 455.233C273.085 456.058 271.856 456.872 271.037 457.47C270.222 458.072 269.802 458.444 269.831 458.486C269.914 458.613 271.712 457.253 274.956 455.748C278.163 454.212 283.073 452.932 288.504 453.584C293.942 454.101 298.629 455.942 301.565 457.966C304.54 459.946 306.012 461.665 306.123 461.552Z" fill="white"/>
<path d="M296.504 420.335C296.381 420.2 294.96 422.167 291.638 423.872C289.996 424.725 287.874 425.438 285.444 425.689C283.024 425.945 280.289 425.669 277.69 424.618C275.107 423.525 272.976 421.787 271.444 419.894C269.901 418 268.905 415.995 268.344 414.232C267.199 410.678 267.584 408.282 267.4 408.29C267.358 408.285 267.238 408.863 267.199 409.929C267.156 410.993 267.283 412.551 267.799 414.398C268.308 416.244 269.286 418.357 270.864 420.359C272.431 422.359 274.652 424.208 277.381 425.361C280.125 426.472 283.004 426.733 285.525 426.425C288.055 426.123 290.24 425.32 291.905 424.374C293.575 423.432 294.767 422.417 295.488 421.636C296.214 420.856 296.538 420.362 296.504 420.335Z" fill="white"/>
<path d="M244.121 515.115C244.149 515.112 244.105 514.721 243.996 513.977C243.826 513.25 243.588 512.147 242.93 510.866C241.718 508.276 238.696 505.033 233.93 503.054C229.23 500.943 222.768 500.535 216.254 502.421C213.077 503.368 209.429 504.534 207.042 507.638C205.876 509.164 205.476 511.438 206.366 513.291C207.217 515.155 208.891 516.437 210.65 517.335C212.443 518.21 214.389 518.706 216.342 518.745C218.277 518.782 220.296 518.302 221.806 517.051C223.33 515.818 224.134 513.914 224.252 512.097C224.393 510.266 224.021 508.496 223.434 506.889C220.872 500.458 215.69 496.37 211.043 494.347C206.318 492.279 202.04 492.062 199.216 492.316C196.368 492.609 194.895 493.225 194.895 493.225C194.92 493.33 196.426 492.821 199.24 492.628C202.03 492.473 206.218 492.777 210.808 494.866C213.086 495.907 215.437 497.4 217.554 499.445C219.662 501.479 221.557 504.086 222.736 507.144C223.289 508.679 223.624 510.358 223.485 512.037C223.363 513.705 222.645 515.364 221.304 516.445C219.979 517.54 218.159 517.986 216.352 517.949C214.535 517.914 212.687 517.443 211.005 516.621C209.35 515.782 207.819 514.576 207.092 512.968C206.333 511.371 206.652 509.476 207.679 508.103C208.696 506.701 210.184 505.689 211.7 504.911C213.228 504.139 214.865 503.615 216.451 503.141C222.83 501.258 229.094 501.596 233.708 503.587C238.389 505.456 241.376 508.534 242.647 511.018C243.968 513.504 244.006 515.148 244.121 515.115Z" fill="white"/>
<path d="M284.14 536.82C284.165 536.669 281.848 536.473 278.375 535.235C274.923 534.026 270.322 531.547 266.556 527.383C262.791 523.216 260.788 518.388 259.932 514.833C259.05 511.253 259.089 508.93 258.934 508.938C258.887 508.938 258.831 509.514 258.85 510.559C258.865 511.605 258.999 513.12 259.378 514.959C260.107 518.617 262.079 523.629 265.96 527.922C269.842 532.214 274.628 534.679 278.194 535.773C279.986 536.334 281.481 536.619 282.519 536.741C283.557 536.866 284.136 536.869 284.14 536.82Z" fill="white"/>
<path d="M303.635 492.015C303.642 491.989 303.394 491.889 302.909 491.725C302.424 491.566 301.704 491.343 300.762 491.105C298.885 490.651 296.087 490.029 292.573 490.273C290.825 490.41 288.909 490.809 287.005 491.649C285.112 492.488 283.217 493.807 281.811 495.725C280.433 497.642 279.587 500.133 279.792 502.734C279.888 504.03 280.285 505.332 280.985 506.495C281.689 507.639 282.745 508.679 284.135 509.13C285.505 509.561 287.115 509.341 288.197 508.326C289.266 507.292 289.533 505.84 289.598 504.58C289.696 502.016 289.141 499.558 288.182 497.427C286.27 493.116 282.712 490.285 279.414 489.107C276.092 487.878 273.145 487.969 271.238 488.298C270.274 488.464 269.546 488.679 269.063 488.849C268.583 489.03 268.337 489.136 268.346 489.163C268.371 489.241 269.378 488.843 271.282 488.606C273.167 488.378 276.03 488.383 279.209 489.637C282.364 490.843 285.709 493.589 287.506 497.728C288.404 499.77 288.913 502.121 288.812 504.539C288.752 505.721 288.476 506.961 287.648 507.744C286.834 508.516 285.509 508.72 284.38 508.362C283.237 507.994 282.301 507.102 281.667 506.075C281.039 505.032 280.671 503.855 280.579 502.667C280.378 500.286 281.147 497.949 282.415 496.156C283.706 494.36 285.482 493.082 287.282 492.255C289.092 491.424 290.933 491.007 292.624 490.837C296.031 490.526 298.813 491.048 300.694 491.407C302.583 491.797 303.618 492.077 303.635 492.015Z" fill="white"/>
<g opacity="0.3">
<path d="M214.882 526.968C221.31 523.337 227.601 520.546 234.323 517.492C241.044 514.437 247.629 510.516 252.027 504.587C260.324 493.403 259.379 477.263 267.872 466.228C267.318 473.649 266.763 481.069 266.209 488.49C265.701 495.291 266.743 502.017 262.361 506.638C258.672 510.531 251.476 513.517 246.381 515.197C236.144 518.575 225.121 523.592 214.882 526.968Z" fill="black"/>
</g>
<path d="M110.41 611.685C110.41 611.685 60.1064 625.607 58.0893 626.317C55.059 627.384 55.5672 638.486 60.284 638.313C62.5142 638.231 98.9223 639.669 103.522 639.382C108.123 639.094 122 633.625 122 633.625L110.41 611.685Z" fill="#03736D"/>
<path d="M89.4678 630.879C89.2145 630.913 88.8748 628.253 87.2515 625.478C85.6669 622.679 83.537 621.048 83.6945 620.848C83.7826 620.653 86.2815 622.071 87.9805 625.058C89.7088 628.026 89.6794 630.901 89.4678 630.879Z" fill="#263238"/>
<path d="M94.6954 628.501C94.4482 628.545 93.9401 626.166 92.5995 623.539C91.2851 620.898 89.6789 619.072 89.8596 618.899C89.9986 618.734 91.9632 620.379 93.3517 623.16C94.7602 625.93 94.9116 628.487 94.6954 628.501Z" fill="#263238"/>
<path d="M99.6247 627.183C99.3714 627.167 99.5645 624.655 98.4478 621.868C97.379 619.064 95.5318 617.348 95.7079 617.164C95.8083 616.972 98.0647 618.528 99.2308 621.563C100.431 624.582 99.8286 627.256 99.6247 627.183Z" fill="#263238"/>
<path d="M98.7294 620.686C98.6398 620.709 98.1934 619.303 98.1904 616.944C98.1934 615.768 98.3294 614.361 98.7001 612.841C98.8839 612.081 99.1325 611.297 99.4491 610.506C99.6113 610.108 99.7982 609.647 100.255 609.274C100.725 608.852 101.579 608.94 101.982 609.359C102.444 609.76 102.589 610.327 102.652 610.781C102.703 611.243 102.728 611.674 102.719 612.109C102.706 612.976 102.595 613.805 102.408 614.571C102.036 616.108 101.437 617.396 100.861 618.417C99.6885 620.459 98.6723 621.501 98.6012 621.446C98.4869 621.365 99.3286 620.193 100.333 618.142C100.827 617.116 101.343 615.856 101.652 614.403C101.806 613.677 101.894 612.903 101.894 612.105C101.871 611.332 101.883 610.366 101.431 609.993C101.191 609.794 100.975 609.782 100.765 609.938C100.543 610.108 100.357 610.452 100.214 610.817C99.9016 611.569 99.6484 612.313 99.4522 613.036C99.0568 614.482 98.8653 615.828 98.7865 616.964C98.6367 619.242 98.8653 620.666 98.7294 620.686Z" fill="#263238"/>
<path d="M98.7972 620.174C98.774 620.083 99.988 619.665 102.042 619.651C103.065 619.649 104.291 619.756 105.611 620.088C106.263 620.264 106.963 620.432 107.667 620.845C108.356 621.194 109.077 622.151 108.804 623.143C108.588 624.079 107.788 624.734 106.992 624.939C106.191 625.163 105.415 625.083 104.736 624.933C103.355 624.616 102.282 623.937 101.468 623.327C99.8552 622.062 99.069 621.095 99.1293 621.024C99.2173 620.917 100.17 621.745 101.809 622.839C102.634 623.365 103.665 623.935 104.895 624.175C105.506 624.292 106.166 624.328 106.761 624.148C107.352 623.986 107.845 623.534 107.985 622.953C108.129 622.391 107.789 621.876 107.238 621.549C106.699 621.215 106.032 621.022 105.412 620.837C104.167 620.482 103.004 620.318 102.022 620.246C100.053 620.108 98.8188 620.309 98.7972 620.174Z" fill="#263238"/>
<path d="M81.7356 631.418C81.4869 631.39 81.7325 629.239 80.744 626.88C79.8019 624.502 78.123 623.137 78.2806 622.942C78.364 622.737 80.4676 623.929 81.5224 626.562C82.6082 629.183 81.9379 631.506 81.7356 631.418Z" fill="#263238"/>
<path d="M116.829 633.74C116.85 633.794 116.16 634.115 114.883 634.655C113.59 635.144 111.699 635.828 109.285 636.39C104.474 637.602 97.6152 638.29 90.0797 638.209C82.5411 638.126 75.7485 637.783 70.8215 637.585C68.4894 637.462 66.5356 637.358 64.9926 637.276C63.6165 637.185 62.8566 637.107 62.8582 637.048C62.8597 636.989 63.6227 636.957 65.0019 636.949C66.5464 636.96 68.5033 636.974 70.8385 636.991C75.9338 637.091 82.6523 637.222 90.0828 637.368C97.5843 637.446 104.36 636.859 109.153 635.809C113.962 634.821 116.77 633.584 116.829 633.74Z" fill="#263238"/>
<path d="M118.323 634.886C118.255 635.001 116.879 634.197 114.554 633.179C112.258 632.194 108.815 631.012 105.036 631.596C101.245 632.177 98.558 634.722 96.8081 636.49C95.0443 638.321 94.011 639.538 93.9091 639.451C93.8334 639.388 94.6922 638.052 96.371 636.086C97.2205 635.114 98.297 633.987 99.7071 632.967C101.1 631.943 102.895 631.072 104.904 630.765C108.959 630.144 112.532 631.499 114.806 632.638C117.113 633.82 118.374 634.804 118.323 634.886Z" fill="#263238"/>
<path d="M163.801 597.796C163.801 597.796 211.402 628.962 213.109 630.252C215.672 632.188 212.732 641.412 208.291 639.815C206.191 639.06 166.247 627.949 161.952 626.278C157.657 624.607 146.095 615.181 146.095 615.181L163.801 597.796Z" fill="#03736D"/>
<path d="M177.946 622.447C177.737 622.403 178.582 619.657 181.13 617.352C183.657 615.023 186.468 614.432 186.493 614.643C186.581 614.883 184.057 615.789 181.697 617.975C179.308 620.126 178.176 622.557 177.946 622.447Z" fill="#263238"/>
<path d="M173.671 618.589C173.47 618.51 174.391 616.119 176.573 613.908C178.74 611.679 181.112 610.709 181.194 610.908C181.315 611.128 179.23 612.379 177.176 614.496C175.1 616.594 173.892 618.705 173.671 618.589Z" fill="#263238"/>
<path d="M169.382 615.84C169.166 615.848 169.404 613.117 171.463 610.605C173.497 608.069 176.118 607.272 176.156 607.485C176.267 607.713 173.988 608.787 172.117 611.134C170.207 613.449 169.628 615.902 169.382 615.84Z" fill="#263238"/>
<path d="M172.201 609.921C172.076 609.861 172.728 608.572 173.279 606.358C173.549 605.252 173.776 603.911 173.838 602.413C173.87 601.664 173.855 600.878 173.785 600.067C173.759 599.676 173.687 599.292 173.528 599.061C173.375 598.848 173.166 598.796 172.876 598.913C172.332 599.129 172.05 600.055 171.793 600.784C171.551 601.545 171.399 602.308 171.327 603.046C171.18 604.524 171.288 605.882 171.447 607.009C171.781 609.269 172.227 610.642 172.094 610.684C172.009 610.716 171.359 609.413 170.86 607.111C170.621 605.964 170.44 604.554 170.553 602.977C170.608 602.191 170.754 601.364 171.005 600.536C171.127 600.118 171.282 599.715 171.472 599.29C171.67 598.876 171.98 598.38 172.542 598.138C173.055 597.861 173.895 598.038 174.213 598.581C174.535 599.077 174.573 599.571 174.607 600.001C174.667 600.85 174.666 601.673 174.612 602.453C174.504 604.013 174.206 605.395 173.852 606.517C173.131 608.767 172.28 609.969 172.201 609.921Z" fill="#263238"/>
<path d="M172.303 609.415C172.241 609.537 171.126 608.97 169.209 608.504C168.252 608.275 167.093 608.077 165.799 608.039C165.154 608.028 164.459 608.008 163.844 608.162C163.22 608.307 162.738 608.694 162.706 609.273C162.664 609.869 162.996 610.45 163.51 610.783C164.023 611.135 164.661 611.301 165.28 611.375C166.524 611.52 167.68 611.291 168.626 611.04C170.519 610.494 171.677 609.996 171.73 610.125C171.766 610.21 170.723 610.893 168.802 611.61C167.841 611.943 166.612 612.264 165.2 612.149C164.506 612.085 163.743 611.925 163.048 611.469C162.353 611.032 161.788 610.164 161.867 609.208C161.907 608.179 162.885 607.487 163.648 607.362C164.445 607.183 165.161 607.234 165.836 607.265C167.195 607.35 168.397 607.62 169.37 607.932C171.324 608.568 172.352 609.334 172.303 609.415Z" fill="#263238"/>
<path d="M202.23 638.076C202.175 638.151 201.429 637.595 201.065 636.232C200.666 634.902 200.917 632.858 201.956 631.066C202.453 630.162 203.023 629.379 203.552 628.689C204.072 627.997 204.611 627.372 205.167 626.955C205.717 626.525 206.293 626.332 206.688 626.318C207.087 626.301 207.289 626.399 207.283 626.448C207.282 626.579 206.432 626.516 205.552 627.41C205.105 627.835 204.661 628.433 204.179 629.146C203.691 629.854 203.159 630.624 202.694 631.471C201.731 633.149 201.443 634.885 201.647 636.112C201.82 637.344 202.341 637.995 202.23 638.076Z" fill="#263238"/>
<path d="M185.141 625.308C184.921 625.331 184.988 622.914 186.817 620.747C188.623 618.559 190.989 618.063 191.006 618.282C191.097 618.515 189.083 619.306 187.463 621.286C185.804 623.234 185.387 625.358 185.141 625.308Z" fill="#263238"/>
<path d="M150.998 616.862C151.039 616.812 151.768 617.348 153.09 618.298C154.429 619.225 156.396 620.522 158.959 621.894C161.52 623.268 164.68 624.695 168.282 626.044C171.887 627.387 175.929 628.655 180.204 629.894C188.768 632.359 196.52 634.614 202.114 636.296C204.797 637.119 207.022 637.803 208.729 638.327C210.286 638.824 211.138 639.125 211.123 639.183C211.107 639.238 210.222 639.043 208.639 638.642C206.914 638.185 204.664 637.589 201.952 636.869C196.314 635.332 188.542 633.17 179.969 630.702C175.686 629.46 171.626 628.163 168.007 626.768C164.391 625.369 161.222 623.871 158.672 622.414C156.119 620.961 154.182 619.574 152.896 618.559C151.623 617.523 150.965 616.9 150.998 616.862Z" fill="#263238"/>
<path d="M149.241 617.502C149.216 617.408 150.717 616.853 153.275 616.429C155.788 616.033 159.604 615.828 163.278 617.65C165.099 618.554 166.545 619.928 167.561 621.328C168.594 622.728 169.279 624.128 169.793 625.312C170.797 627.696 171.208 629.229 171.117 629.266C170.993 629.317 170.378 627.845 169.254 625.564C168.123 623.348 166.336 620.106 162.901 618.402C159.477 616.697 155.839 616.778 153.352 617.019C150.827 617.284 149.27 617.633 149.241 617.502Z" fill="#263238"/>
<path d="M64.8891 521.786C64.8891 521.786 50.6088 526.885 50.5501 542.898C50.4358 573.568 112.522 607.377 112.522 607.377L195.145 552.633L200.323 550.537C200.323 550.537 88.7899 508.641 64.8891 521.786Z" fill="#263238"/>
<path d="M153.292 580.283C153.256 580.33 152.492 579.808 151.14 578.824C149.786 577.843 147.854 576.385 145.489 574.557C140.758 570.901 134.322 565.717 127.398 559.776C120.475 553.828 114.378 548.249 110.049 544.126C107.884 542.065 106.153 540.376 104.977 539.185C103.8 537.997 103.169 537.321 103.209 537.279C103.249 537.237 103.956 537.833 105.203 538.947C106.553 540.166 108.321 541.763 110.454 543.688C114.883 547.696 121.034 553.196 127.947 559.136C134.861 565.07 141.228 570.318 145.86 574.09C148.087 575.908 149.932 577.414 151.341 578.564C152.631 579.629 153.327 580.237 153.292 580.283Z" fill="#455A64"/>
<path d="M88.2109 533.252C88.18 533.046 91.8651 532.685 96.1727 533.974C100.491 535.232 103.39 537.534 103.251 537.69C103.114 537.91 100.102 535.99 95.9333 534.782C91.7802 533.534 88.2078 533.509 88.2109 533.252Z" fill="#455A64"/>
<path d="M95.3346 528.417C95.4087 528.218 98.0575 529.383 100.232 532.101C102.433 534.801 103.014 537.635 102.802 537.666C102.561 537.749 101.658 535.176 99.5757 532.631C97.5293 530.061 95.2033 528.635 95.3346 528.417Z" fill="#455A64"/>
<path d="M60.3486 625.533C60.3053 625.437 61.334 625.238 62.4784 626.178C63.6028 627.077 64.5589 628.876 64.8662 630.974C65.1767 633.087 64.7071 635.028 64.1125 636.262C63.5272 637.518 62.8846 638.106 62.812 638.048C62.6993 637.969 63.1503 637.272 63.5596 636.041C63.9797 634.824 64.3164 633.031 64.0322 631.093C63.7496 629.165 62.9588 627.5 62.0784 626.62C61.2027 625.703 60.3316 625.667 60.3486 625.533Z" fill="#263238"/>
<path d="M83.8912 471.68L113.317 546.274L240.023 548.339L242.369 541.485L197.964 539.874L176.622 473.702L83.8912 471.68Z" fill="#455A64"/>
<path d="M143.063 503.974C141.437 502.872 138.433 503.314 136.97 504.624C135.508 505.935 135.034 508.204 135.778 510.022C136.521 511.84 138.395 513.114 140.356 513.219C142.44 513.33 144.613 512.026 145.195 510.023C145.776 508.02 145.128 505.03 143.063 503.974Z" fill="#EBEBEB"/>
<path d="M104.7 611.104C104.7 611.104 221.435 534.535 226.215 532.941C230.995 531.347 242.546 523.779 254.098 526.965C265.649 530.152 276.006 540.509 281.185 555.645C284.142 564.292 285.542 579.047 286.197 590.111C286.98 603.341 282.884 616.533 274.23 626.57C270.293 631.137 265.436 635.111 259.675 636.905C258.459 637.283 257.197 637.61 255.902 637.89C233.831 642.675 211.149 632.767 198.748 613.893L196.025 609.748C196.025 609.748 119.661 637.803 118.466 637.405L104.7 611.104Z" fill="#263238"/>
<path d="M249.126 590.029C249.126 590.029 248.914 590.137 248.485 590.311C248.023 590.495 247.39 590.747 246.574 591.07C244.852 591.734 242.367 592.69 239.173 593.919C232.68 596.366 223.315 599.893 211.671 604.28C199.987 608.638 185.994 613.82 170.292 619.534C154.59 625.241 137.188 631.507 118.605 637.799L118.267 637.914L118.101 637.597C115.184 632.025 112.106 626.146 108.981 620.18C107.389 617.137 105.809 614.118 104.332 611.298L104.153 610.955L104.476 610.749C139.529 588.498 170.889 568.59 193.521 554.223C204.822 547.095 213.941 541.344 220.269 537.351C223.403 535.396 225.843 533.873 227.533 532.818C228.343 532.322 228.974 531.938 229.429 531.658C229.859 531.4 230.089 531.287 230.089 531.287C230.089 531.287 229.888 531.448 229.472 531.729C229.026 532.024 228.411 532.432 227.619 532.957C225.948 534.041 223.534 535.609 220.436 537.62C214.142 541.663 205.07 547.491 193.829 554.711C171.235 569.133 139.926 589.117 104.931 611.455L105.075 610.908C106.552 613.727 108.132 616.748 109.726 619.789C112.847 625.756 115.924 631.637 118.84 637.209L118.338 637.007C136.912 630.732 154.321 624.497 170.038 618.835C185.73 613.123 199.747 608.022 211.475 603.754C223.155 599.469 232.552 596.023 239.065 593.633C242.281 592.464 244.783 591.553 246.517 590.923C247.344 590.629 247.988 590.402 248.456 590.237C248.896 590.086 249.126 590.029 249.126 590.029Z" fill="#455A64"/>
<path d="M237.006 318.116C235.016 312.735 230.616 310.398 225.041 309.048C219.465 307.698 213.261 309.297 209.031 313.172C206.201 315.763 204.127 319.345 200.633 320.93C194.878 323.538 187.505 319.727 182.052 322.914C178.824 324.802 177.237 329.097 178.467 332.629C179.696 336.161 183.604 338.546 187.307 338.021C183.557 339.793 182.858 345.436 185.44 348.681C188.023 351.926 192.795 352.805 196.786 351.676C200.775 350.547 204.09 347.762 206.908 344.721C209.727 341.68 212.195 338.305 215.246 335.497C218.297 332.689 222.105 330.428 226.248 330.274C231.858 330.065 237.034 333.835 239.979 338.614C242.924 343.393 244.022 349.059 244.843 354.612C245.663 360.166 246.282 365.831 248.424 371.02C248.676 371.629 249.036 372.305 249.68 372.44C250.611 372.634 251.294 371.603 251.668 370.727C255.887 360.839 258.137 350.116 258.252 339.366C258.318 333.123 257.619 327.279 253.742 322.385C249.865 317.49 240.923 314.444 237.006 318.116Z" fill="#263238"/>
<path d="M250.14 343.03L258.721 405.391C260.181 415.996 252.467 425.664 241.804 426.599C231.853 427.47 222.968 420.367 221.616 410.468C220.975 405.773 220.43 401.859 220.333 401.38C220.333 401.38 204.252 402.072 200.943 386.516C199.345 378.999 197.312 363.249 195.638 348.978C193.84 333.652 204.134 319.52 219.266 316.496L220.77 316.195C237.185 313.903 248.302 326.56 250.14 343.03Z" fill="#FFBE9D"/>
<path d="M220.267 401.162C220.267 401.162 230.281 399.995 239.441 391.323C239.441 391.323 236.879 403.505 221.037 405.209L220.267 401.162Z" fill="#EB996E"/>
<path d="M202.324 358.518C202.517 359.703 203.68 360.515 204.92 360.336C206.159 360.157 207.009 359.054 206.814 357.869C206.621 356.685 205.458 355.871 204.219 356.05C202.981 356.229 202.131 357.333 202.324 358.518Z" fill="#263238"/>
<path d="M200.562 355.964C200.896 356.199 202.334 354.614 204.733 354.142C207.12 353.635 209.125 354.517 209.326 354.171C209.428 354.015 209.042 353.547 208.164 353.142C207.299 352.738 205.906 352.455 204.414 352.759C202.924 353.065 201.778 353.865 201.168 354.573C200.544 355.286 200.4 355.861 200.562 355.964Z" fill="#263238"/>
<path d="M225.987 354.637C226.18 355.821 227.343 356.634 228.583 356.454C229.822 356.275 230.672 355.173 230.479 353.988C230.285 352.803 229.122 351.989 227.884 352.169C226.644 352.346 225.794 353.452 225.987 354.637Z" fill="#263238"/>
<path d="M224.248 351.705C224.583 351.939 226.023 350.355 228.418 349.882C230.806 349.375 232.811 350.257 233.013 349.911C233.115 349.755 232.732 349.287 231.852 348.884C230.987 348.48 229.594 348.197 228.103 348.501C226.613 348.809 225.467 349.609 224.857 350.314C224.233 351.026 224.088 351.603 224.248 351.705Z" fill="#263238"/>
<path d="M219.101 371.213C219.086 371.074 217.545 371.114 215.069 371.289C214.445 371.348 213.841 371.341 213.654 370.944C213.422 370.53 213.546 369.82 213.7 369.049C213.98 367.454 214.272 365.781 214.579 364.028C215.767 356.893 216.496 351.075 216.209 351.028C215.921 350.984 214.724 356.731 213.537 363.866C213.259 365.622 212.991 367.298 212.74 368.9C212.647 369.641 212.406 370.509 212.902 371.365C213.158 371.789 213.674 372.032 214.086 372.058C214.503 372.1 214.848 372.036 215.155 371.995C217.609 371.641 219.118 371.351 219.101 371.213Z" fill="#263238"/>
<path d="M226.433 371.462C226.039 371.518 226.553 374.119 224.695 376.411C222.843 378.708 220.012 378.969 220.063 379.336C220.06 379.506 220.781 379.718 221.958 379.515C223.113 379.325 224.717 378.621 225.853 377.22C226.986 375.816 227.267 374.19 227.143 373.104C227.027 371.998 226.607 371.413 226.433 371.462Z" fill="#263238"/>
<path d="M221.724 342.436C222.09 343.04 224.423 342.253 227.3 342.031C230.174 341.75 232.607 342.121 232.863 341.461C232.974 341.148 232.455 340.615 231.413 340.167C230.378 339.719 228.809 339.41 227.084 339.558C225.358 339.711 223.866 340.287 222.927 340.91C221.978 341.531 221.561 342.147 221.724 342.436Z" fill="#263238"/>
<path d="M200.056 348.854C200.586 349.314 202.124 348.42 204.104 347.995C206.069 347.503 207.843 347.629 208.117 346.982C208.231 346.672 207.857 346.179 207.02 345.811C206.194 345.442 204.899 345.265 203.543 345.578C202.187 345.893 201.105 346.624 200.525 347.319C199.935 348.018 199.817 348.625 200.056 348.854Z" fill="#263238"/>
<path d="M251.214 354.831C251.456 354.663 261.295 349.521 263.085 360.251C264.875 370.979 253.734 370.563 253.663 370.259C253.592 369.955 251.214 354.831 251.214 354.831Z" fill="#FFBE9D"/>
<path d="M256.265 365.647C256.306 365.605 256.473 365.747 256.813 365.838C257.145 365.928 257.69 365.937 258.215 365.635C259.28 365.029 259.933 363.071 259.663 361.128C259.527 360.147 259.167 359.251 258.693 358.539C258.234 357.809 257.635 357.345 257.048 357.339C256.458 357.302 256.11 357.711 256.03 358.036C255.936 358.36 256.041 358.562 255.987 358.59C255.961 358.623 255.727 358.45 255.74 357.991C255.749 357.77 255.832 357.497 256.05 357.248C256.273 356.996 256.634 356.826 257.039 356.803C257.876 356.723 258.747 357.359 259.269 358.141C259.836 358.919 260.263 359.922 260.416 361.023C260.708 363.196 259.939 365.404 258.463 366.11C257.741 366.433 257.073 366.311 256.706 366.112C256.327 365.903 256.231 365.673 256.265 365.647Z" fill="#EB996E"/>
<path d="M191.719 346.403C198.954 346.858 206.322 343.579 210.826 337.899C213.977 333.925 215.98 328.717 220.441 326.303C223.443 324.678 227.136 324.66 230.392 325.693C233.646 326.726 236.514 328.725 239.082 330.975C237.652 339.502 241.444 347.943 245.14 355.759C245.548 356.623 246.016 357.548 246.873 357.971C248.328 358.689 250.064 357.554 250.933 356.184C252.325 353.991 252.489 351.252 252.436 348.655C252.319 342.738 251.281 336.791 248.878 331.383C246.476 325.975 242.658 321.124 237.662 317.952C231.419 313.989 223.553 312.858 216.324 314.418C209.096 315.978 202.532 320.12 197.618 325.646C195.338 328.21 193.353 331.154 192.578 334.496" fill="#263238"/>
<path d="M623.967 597.994C623.981 597.986 623.889 597.765 623.696 597.342C623.48 596.882 623.191 596.263 622.821 595.476C622.078 593.829 621.111 591.331 620.249 588.007C618.547 581.366 617.954 571.217 620.468 559.163C621.636 553.127 623.519 546.652 625.819 539.789C628.083 532.913 630.713 525.617 632.861 517.73C634.985 509.863 636.662 501.322 636.34 492.368C636.014 483.398 633.359 474.443 630.437 465.53C627.522 456.603 624.507 447.875 623.604 439.099C622.583 430.337 624.458 421.736 628.449 414.689C632.315 407.566 637.178 401.474 640.819 395.165C644.516 388.876 646.828 382.409 648.254 376.395C651.017 364.268 650.048 354.051 648.725 347.317C647.29 340.547 645.69 337.048 645.69 337.048C645.674 337.054 645.736 337.284 645.869 337.73C646.02 338.217 646.224 338.869 646.484 339.699C647.02 341.429 647.712 344.013 648.37 347.386C649.579 354.106 650.433 364.254 647.614 376.247C646.161 382.194 643.838 388.576 640.154 394.779C636.523 401.014 631.638 407.081 627.695 414.286C623.619 421.412 621.659 430.293 622.699 439.192C623.607 448.117 626.645 456.902 629.553 465.819C632.474 474.724 635.098 483.585 635.43 492.406C635.76 501.221 634.126 509.681 632.035 517.51C629.922 525.357 627.323 532.655 625.086 539.551C622.816 546.436 620.957 552.962 619.824 559.041C617.376 571.185 618.075 581.436 619.899 588.098C620.821 591.435 621.849 593.927 622.651 595.557C623.055 596.329 623.374 596.936 623.611 597.389C623.834 597.796 623.953 598.002 623.967 597.994Z" fill="#263238"/>
<path d="M635.865 401.39C635.865 401.39 643.256 377.754 629.997 363.915C629.532 363.429 628.712 363.659 628.592 364.321C627.884 368.223 626.999 380.112 635.865 401.39Z" fill="#03736D"/>
<path d="M631.436 371.791C631.311 371.816 631.522 373.479 631.933 376.151C632.418 379.155 632.99 382.681 633.62 386.576C634.237 390.473 634.798 393.997 635.274 397.001C635.678 399.67 635.921 401.326 636.057 401.315C636.176 401.306 636.165 399.624 635.924 396.921C635.68 394.22 635.203 390.505 634.534 386.426C633.867 382.349 633.156 378.676 632.577 376.03C632.001 373.385 631.562 371.766 631.436 371.791Z" fill="#263238"/>
<path d="M627.192 457.136C627.192 457.136 622.672 432.788 604.481 426.755C603.841 426.543 603.225 427.129 603.429 427.771C604.627 431.552 609.406 442.475 627.192 457.136Z" fill="#03736D"/>
<path d="M609.434 433.045C609.335 433.125 610.299 434.496 611.913 436.666C613.748 439.094 615.901 441.944 618.278 445.093C620.647 448.249 622.791 451.103 624.616 453.534C626.223 455.704 627.211 457.054 627.325 456.981C627.427 456.918 626.63 455.437 625.154 453.16C623.674 450.888 621.516 447.825 619.017 444.534C616.522 441.241 614.174 438.328 612.426 436.26C610.679 434.191 609.533 432.963 609.434 433.045Z" fill="#263238"/>
<path d="M632.114 518.221C632.114 518.221 634.86 493.608 619.203 482.553C618.653 482.165 617.894 482.547 617.901 483.22C617.952 487.186 619.352 499.026 632.114 518.221Z" fill="#03736D"/>
<path d="M622.106 490.01C621.987 490.058 622.512 491.65 623.426 494.195C624.477 497.051 625.709 500.404 627.071 504.108C628.421 507.814 629.643 511.169 630.684 514.025C631.591 516.569 632.145 518.147 632.276 518.11C632.392 518.078 632.059 516.43 631.308 513.822C630.553 511.218 629.377 507.662 627.941 503.786C626.508 499.911 625.11 496.441 624.037 493.954C622.965 491.468 622.225 489.962 622.106 490.01Z" fill="#263238"/>
<path d="M618.399 579.662C618.399 579.662 620.261 554.967 604.22 544.479C603.657 544.111 602.911 544.519 602.943 545.191C603.135 549.154 604.959 560.935 618.399 579.662Z" fill="#03736D"/>
<path d="M607.399 551.828C607.282 551.88 607.864 553.452 608.868 555.964C610.02 558.781 611.372 562.086 612.865 565.739C614.346 569.395 615.689 572.703 616.831 575.52C617.829 578.03 618.438 579.587 618.567 579.546C618.682 579.511 618.291 577.875 617.446 575.296C616.598 572.72 615.295 569.209 613.721 565.387C612.15 561.564 610.627 558.148 609.467 555.701C608.311 553.253 607.517 551.774 607.399 551.828Z" fill="#263238"/>
<path d="M646.504 380.624C646.504 380.624 668.456 369.16 668.886 349.998C668.902 349.325 668.161 348.908 667.606 349.291C664.344 351.546 655.303 359.319 646.504 380.624Z" fill="#03736D"/>
<path d="M664.317 356.581C664.211 356.51 663.183 357.833 661.582 360.014C659.799 362.479 657.705 365.375 655.393 368.572C653.072 371.761 650.971 374.648 649.183 377.107C647.58 379.278 646.579 380.62 646.682 380.709C646.773 380.787 647.955 379.59 649.699 377.511C651.438 375.431 653.731 372.469 656.145 369.114C658.561 365.761 660.658 362.664 662.122 360.386C663.587 358.107 664.424 356.652 664.317 356.581Z" fill="#263238"/>
<path d="M622.919 431.384C622.919 431.384 645.528 421.274 647.12 402.175C647.176 401.504 646.461 401.043 645.886 401.39C642.493 403.444 632.997 410.652 622.919 431.384Z" fill="#03736D"/>
<path d="M642.171 408.469C642.069 408.391 640.963 409.65 639.232 411.729C637.303 414.081 635.037 416.844 632.535 419.895C630.025 422.937 627.753 425.691 625.818 428.037C624.085 430.108 623.006 431.386 623.103 431.48C623.189 431.563 624.44 430.44 626.308 428.471C628.17 426.5 630.638 423.683 633.252 420.48C635.866 417.28 638.148 414.316 639.748 412.131C641.349 409.947 642.273 408.546 642.171 408.469Z" fill="#263238"/>
<path d="M635.923 488.005C635.923 488.005 651.445 468.709 644.164 450.979C643.909 450.357 643.061 450.272 642.708 450.844C640.621 454.218 635.452 464.96 635.923 488.005Z" fill="#03736D"/>
<path d="M642.629 458.836C642.503 458.813 642.092 460.438 641.497 463.077C640.852 466.05 640.093 469.541 639.255 473.397C638.405 477.249 637.638 480.735 636.983 483.705C636.384 486.339 636.004 487.968 636.135 488.007C636.249 488.042 636.853 486.471 637.618 483.869C638.377 481.266 639.293 477.634 640.16 473.593C641.031 469.555 641.71 465.876 642.14 463.202C642.571 460.527 642.755 458.859 642.629 458.836Z" fill="#263238"/>
<path d="M620.564 554.638C620.564 554.638 642.998 544.149 644.27 525.027C644.315 524.355 643.592 523.905 643.023 524.264C639.663 526.372 630.29 533.739 620.564 554.638Z" fill="#03736D"/>
<path d="M639.425 531.4C639.321 531.325 638.237 532.602 636.541 534.709C634.652 537.093 632.433 539.894 629.983 542.986C627.524 546.07 625.299 548.861 623.404 551.239C621.706 553.338 620.648 554.634 620.747 554.727C620.835 554.809 622.068 553.666 623.901 551.666C625.73 549.664 628.151 546.805 630.711 543.56C633.271 540.317 635.502 537.314 637.065 535.104C638.628 532.892 639.528 531.476 639.425 531.4Z" fill="#263238"/>
<path d="M575.871 457.268C575.849 457.27 575.84 457.455 575.843 457.813C575.854 458.244 575.866 458.765 575.882 459.396C575.948 460.884 576.036 462.893 576.147 465.401C576.436 470.68 576.839 478.041 577.323 486.846L577.324 486.867L577.33 486.897C578.932 495.858 583.496 505.791 589.626 515.435C594.123 522.538 598.837 528.997 602.902 535.003C606.995 540.993 610.449 546.541 612.857 551.457C615.28 556.365 616.688 560.583 617.513 563.531C617.907 565.011 618.204 566.165 618.375 566.954C618.559 567.74 618.672 568.151 618.704 568.146C618.735 568.14 618.685 567.719 618.559 566.919C618.448 566.115 618.207 564.945 617.864 563.442C617.142 560.45 615.816 556.16 613.448 551.173C611.096 546.178 607.675 540.556 603.613 534.528C599.576 528.478 594.886 522.01 590.414 514.942C584.316 505.346 579.775 495.565 578.115 486.748L578.121 486.799C577.503 478.003 576.986 470.649 576.615 465.375C576.413 462.873 576.251 460.868 576.13 459.384C576.067 458.755 576.014 458.238 575.971 457.809C575.923 457.45 575.891 457.268 575.871 457.268Z" fill="#263238"/>
<path d="M589.233 513.592C589.233 513.592 579.731 490.723 591.682 475.74C592.102 475.215 592.94 475.369 593.119 476.017C594.177 479.839 596.135 491.599 589.233 513.592Z" fill="#03736D"/>
<path d="M590.967 483.713C590.841 483.699 590.549 485.353 590.213 488.04C589.877 490.728 589.501 494.45 589.206 498.571C588.908 502.693 588.771 506.437 588.772 509.149C588.779 511.862 588.918 513.538 589.038 513.537C589.174 513.535 589.265 511.864 589.427 509.169C589.63 506.136 589.867 502.574 590.132 498.637C590.407 494.7 590.655 491.137 590.867 488.102C591.035 485.401 591.095 483.727 590.967 483.713Z" fill="#263238"/>
<g opacity="0.3">
<path d="M589.233 513.592C589.233 513.592 579.731 490.723 591.682 475.74C592.102 475.215 592.94 475.369 593.119 476.017C594.177 479.839 596.135 491.599 589.233 513.592Z" fill="black"/>
</g>
<path d="M618.665 568.704C618.665 568.704 611.049 545.138 624.177 531.174C624.639 530.683 625.459 530.906 625.586 531.567C626.33 535.462 627.328 547.344 618.665 568.704Z" fill="#03736D"/>
<path d="M622.802 539.064C622.677 539.041 622.252 540.664 621.701 543.316C621.148 545.966 620.471 549.645 619.843 553.729C619.211 557.814 618.771 561.533 618.552 564.236C618.337 566.94 618.342 568.622 618.461 568.63C618.596 568.639 618.822 566.982 619.202 564.309C619.65 561.301 620.176 557.771 620.757 553.868C621.35 549.966 621.888 546.436 622.345 543.427C622.733 540.752 622.927 539.087 622.802 539.064Z" fill="#263238"/>
<g opacity="0.3">
<path d="M618.665 568.704C618.665 568.704 611.049 545.138 624.177 531.174C624.639 530.683 625.459 530.906 625.586 531.567C626.33 535.462 627.328 547.344 618.665 568.704Z" fill="black"/>
</g>
<path d="M577.127 485.642C577.127 485.642 556.839 471.439 558.887 452.383C558.959 451.714 559.748 451.396 560.247 451.846C563.191 454.505 571.153 463.38 577.127 485.642Z" fill="#03736D"/>
<g opacity="0.3">
<path d="M577.127 485.642C577.127 485.642 556.839 471.439 558.887 452.383C558.959 451.714 559.748 451.396 560.247 451.846C563.191 454.505 571.153 463.38 577.127 485.642Z" fill="black"/>
</g>
<path d="M562.556 459.498C562.442 459.555 563.083 461.106 564.241 463.554C565.4 466.002 567.079 469.344 569.042 472.981C571.002 476.62 572.894 479.853 574.35 482.14C575.81 484.426 576.827 485.765 576.928 485.7C577.042 485.626 576.224 484.168 574.914 481.807C573.457 479.138 571.748 476.004 569.857 472.541C567.978 469.072 566.276 465.931 564.825 463.256C563.519 460.888 562.671 459.443 562.556 459.498Z" fill="#263238"/>
<path d="M610.486 545.343C610.486 545.343 586.017 541.528 579.462 523.517C579.232 522.886 579.801 522.253 580.448 522.436C584.261 523.525 595.318 527.986 610.486 545.343Z" fill="#03736D"/>
<g opacity="0.3">
<path d="M610.486 545.343C610.486 545.343 586.017 541.528 579.462 523.517C579.232 522.886 579.801 522.253 580.448 522.436C584.261 523.525 595.318 527.986 610.486 545.343Z" fill="black"/>
</g>
<path d="M585.888 528.289C585.811 528.391 587.07 529.499 589.187 531.188C591.305 532.876 594.284 535.137 597.648 537.537C601.011 539.94 604.133 542.01 606.449 543.423C608.767 544.833 610.27 545.587 610.331 545.483C610.401 545.366 609.023 544.418 606.807 542.875C604.323 541.12 601.409 539.06 598.187 536.783C594.972 534.496 592.06 532.426 589.581 530.664C587.365 529.112 585.967 528.187 585.888 528.289Z" fill="#263238"/>
<path d="M633.823 590.374L640.96 638.415H596.479L602.246 590.374H633.823Z" fill="#455A64"/>
<path d="M600.46 605.259C600.46 605.515 608.492 605.722 618.396 605.722C628.304 605.722 636.334 605.515 636.334 605.259C636.334 605.003 628.304 604.796 618.396 604.796C608.492 604.797 600.46 605.004 600.46 605.259Z" fill="#263238"/>
<path d="M599.575 609.082C599.575 609.338 607.871 609.545 618.1 609.545C628.334 609.545 636.626 609.338 636.626 609.082C636.626 608.825 628.334 608.618 618.1 608.618C607.871 608.62 599.575 608.827 599.575 609.082Z" fill="#263238"/>
</svg>
