<svg width="80" height="100" viewBox="0 0 80 100" fill="none" xmlns="http://www.w3.org/2000/svg">
<path d="M72.5 12.5H7.5C4.73858 12.5 2.5 14.7386 2.5 17.5V82.5C2.5 85.2614 4.73858 87.5 7.5 87.5H72.5C75.2614 87.5 77.5 85.2614 77.5 82.5V17.5C77.5 14.7386 75.2614 12.5 72.5 12.5Z" fill="#E2E7F6"/>
<path d="M72.5 71.25V12.5H7.5C6.17392 12.5 4.90215 13.0268 3.96447 13.9645C3.02678 14.9021 2.5 16.1739 2.5 17.5V82.5H61.25C64.2337 82.5 67.0952 81.3147 69.2049 79.2049C71.3147 77.0952 72.5 74.2337 72.5 71.25Z" fill="#F2F2F2"/>
<path d="M77.5 27.5H2.5V17.5C2.5 16.1739 3.02678 14.9021 3.96447 13.9645C4.90215 13.0268 6.17392 12.5 7.5 12.5H72.5C73.8261 12.5 75.0979 13.0268 76.0355 13.9645C76.9732 14.9021 77.5 16.1739 77.5 17.5V27.5Z" fill="#3B9278"/>
<path d="M72.5 20V12.5H7.5C6.17392 12.5 4.90215 13.0268 3.96447 13.9645C3.02678 14.9021 2.5 16.1739 2.5 17.5V22.5H70C70.663 22.5 71.2989 22.2366 71.7678 21.7678C72.2366 21.2989 72.5 20.663 72.5 20Z" fill="#4CB576"/>
<path d="M41.25 70V62.5H38.75V70H28.75V72.5H51.25V70H41.25Z" fill="#4CB576"/>
<path d="M55 50V45L52.1025 44.42C51.808 43.2599 51.3474 42.1484 50.735 41.12L52.375 38.6613L48.8387 35.125L46.375 36.765C45.3469 36.152 44.2353 35.6913 43.075 35.3975L42.5 32.5H37.5L36.92 35.3975C35.7597 35.6913 34.6481 36.152 33.62 36.765L31.1613 35.125L27.625 38.6613L29.265 41.125C28.6526 42.1534 28.192 43.2649 27.8975 44.425L25 45V50L27.8975 50.58C28.192 51.7401 28.6526 52.8516 29.265 53.88L27.625 56.3387L31.1613 59.875L33.625 58.235C34.6534 58.8474 35.7649 59.308 36.925 59.6025L37.5 62.5H42.5L43.08 59.6025C44.2401 59.308 45.3516 58.8474 46.38 58.235L48.8387 59.875L52.375 56.3387L50.735 53.875C51.3474 52.8466 51.808 51.7351 52.1025 50.575L55 50Z" fill="#CCCCCC"/>
<path d="M40 55C44.1421 55 47.5 51.6421 47.5 47.5C47.5 43.3579 44.1421 40 40 40C35.8579 40 32.5 43.3579 32.5 47.5C32.5 51.6421 35.8579 55 40 55Z" fill="#5ECA9D"/>
<path d="M38.75 54.8875C42.2018 54.8875 45 51.58 45 47.5C45 43.42 42.2018 40.1125 38.75 40.1125C35.2982 40.1125 32.5 43.42 32.5 47.5C32.5 51.58 35.2982 54.8875 38.75 54.8875Z" fill="#78D497"/>
<path d="M40 55C41.8181 55.0008 43.5739 54.3376 44.9375 53.135C44.7934 51.9268 44.2112 50.8133 43.3013 50.0055C42.3914 49.1976 41.2168 48.7515 40 48.7515C38.7832 48.7515 37.6086 49.1976 36.6987 50.0055C35.7888 50.8133 35.2066 51.9268 35.0625 53.135C36.4261 54.3376 38.1819 55.0008 40 55Z" fill="#3B9278"/>
<path d="M40.0002 55C40.8371 54.9986 41.6678 54.8566 42.4577 54.58C42.4094 53.8852 42.2142 53.2086 41.885 52.5948C41.5558 51.9811 41.1001 51.4442 40.5479 51.0197C39.9958 50.5951 39.3598 50.2926 38.6821 50.1322C38.0044 49.9717 37.3003 49.9569 36.6164 50.0888C35.7554 50.8902 35.2063 51.9708 35.0664 53.1388C36.4297 54.3388 38.1839 55.0006 40.0002 55Z" fill="#4CB576"/>
<path d="M40 48.75C41.3807 48.75 42.5 47.6307 42.5 46.25C42.5 44.8693 41.3807 43.75 40 43.75C38.6193 43.75 37.5 44.8693 37.5 46.25C37.5 47.6307 38.6193 48.75 40 48.75Z" fill="#FBE1CA"/>
<path d="M61.25 82.5C67.4632 82.5 72.5 77.4632 72.5 71.25C72.5 65.0368 67.4632 60 61.25 60C55.0368 60 50 65.0368 50 71.25C50 77.4632 55.0368 82.5 61.25 82.5Z" fill="#5ECA9D"/>
<path d="M69.9999 70C70.0011 68.1554 69.5483 66.3387 68.6813 64.7105C67.8143 63.0823 66.5599 61.6925 65.0287 60.6638C62.4494 59.7515 59.6261 59.8104 57.0871 60.8294C54.5481 61.8484 52.4675 63.7577 51.2345 66.2C50.0016 68.6422 49.7009 71.4501 50.3887 74.0981C51.0764 76.7461 52.7056 79.0527 54.9712 80.5863C56.668 81.1971 58.487 81.3902 60.2742 81.1491C62.0614 80.9081 63.7643 80.24 65.2386 79.2015C66.713 78.163 67.9154 76.7845 68.7442 75.1829C69.573 73.5812 70.0037 71.8034 69.9999 70Z" fill="#78D497"/>
<path d="M63.909 74.235C63.1124 74.7352 62.1908 75.0005 61.2502 75.0005C60.3096 75.0005 59.3881 74.7352 58.5915 74.235C57.4056 74.6853 56.3531 75.4286 55.5321 76.3956C54.7112 77.3626 54.1484 78.5218 53.8965 79.765C55.9398 81.5293 58.5494 82.5001 61.249 82.5001C63.9486 82.5001 66.5582 81.5293 68.6015 79.765C68.3499 78.522 67.7876 77.363 66.967 76.396C66.1465 75.429 65.0944 74.6856 63.909 74.235Z" fill="#3B9278"/>
<path d="M61.25 75C64.0114 75 66.25 72.7614 66.25 70C66.25 67.2386 64.0114 65 61.25 65C58.4886 65 56.25 67.2386 56.25 70C56.25 72.7614 58.4886 75 61.25 75Z" fill="#FBE1CA"/>
<path d="M63.7491 76.25V74.32C62.9638 74.7793 62.0675 75.0143 61.1579 74.9993C60.2482 74.9843 59.3601 74.72 58.5904 74.235C57.5721 74.6229 56.6503 75.2276 55.889 76.0072C55.1278 76.7868 54.5452 77.7227 54.1816 78.75H61.2491C61.9122 78.75 62.5481 78.4866 63.0169 78.0178C63.4857 77.5489 63.7491 76.913 63.7491 76.25Z" fill="#4CB576"/>
<path d="M18.75 82.5C24.9632 82.5 30 77.4632 30 71.25C30 65.0368 24.9632 60 18.75 60C12.5368 60 7.5 65.0368 7.5 71.25C7.5 77.4632 12.5368 82.5 18.75 82.5Z" fill="#5ECA9D"/>
<path d="M27.4999 70C27.5011 68.1554 27.0483 66.3387 26.1813 64.7105C25.3143 63.0823 24.0599 61.6925 22.5287 60.6638C19.9494 59.7515 17.1261 59.8104 14.5871 60.8294C12.0481 61.8484 9.96747 63.7577 8.73453 66.2C7.5016 68.6422 7.20088 71.4501 7.88866 74.0981C8.57644 76.7461 10.2056 79.0527 12.4712 80.5863C14.168 81.1971 15.987 81.3902 17.7742 81.1491C19.5614 80.9081 21.2643 80.24 22.7386 79.2015C24.213 78.163 25.4154 76.7845 26.2442 75.1829C27.073 73.5812 27.5037 71.8034 27.4999 70Z" fill="#78D497"/>
<path d="M21.409 74.235C20.6124 74.7352 19.6908 75.0005 18.7502 75.0005C17.8096 75.0005 16.8881 74.7352 16.0915 74.235C14.9056 74.6853 13.8531 75.4286 13.0321 76.3956C12.2112 77.3626 11.6484 78.5218 11.3965 79.765C13.4398 81.5293 16.0494 82.5001 18.749 82.5001C21.4486 82.5001 24.0582 81.5293 26.1015 79.765C25.8499 78.522 25.2876 77.363 24.467 76.396C23.6465 75.429 22.5944 74.6856 21.409 74.235Z" fill="#3B9278"/>
<path d="M18.75 75C21.5114 75 23.75 72.7614 23.75 70C23.75 67.2386 21.5114 65 18.75 65C15.9886 65 13.75 67.2386 13.75 70C13.75 72.7614 15.9886 75 18.75 75Z" fill="#FBE1CA"/>
<path d="M21.2491 76.25V74.32C20.4638 74.7793 19.5675 75.0143 18.6579 74.9993C17.7482 74.9843 16.8601 74.72 16.0904 74.235C15.0721 74.6229 14.1503 75.2276 13.3891 76.0072C12.6278 76.7868 12.0452 77.7227 11.6816 78.75H18.7491C19.4122 78.75 20.0481 78.4866 20.5169 78.0178C20.9857 77.5489 21.2491 76.913 21.2491 76.25Z" fill="#4CB576"/>
<path d="M40 17.5H10C8.61929 17.5 7.5 18.6193 7.5 20C7.5 21.3807 8.61929 22.5 10 22.5H40C41.3807 22.5 42.5 21.3807 42.5 20C42.5 18.6193 41.3807 17.5 40 17.5Z" fill="#E2E7F6"/>
<path d="M50 22.5C51.3807 22.5 52.5 21.3807 52.5 20C52.5 18.6193 51.3807 17.5 50 17.5C48.6193 17.5 47.5 18.6193 47.5 20C47.5 21.3807 48.6193 22.5 50 22.5Z" fill="#78D497"/>
<path d="M60 22.5C61.3807 22.5 62.5 21.3807 62.5 20C62.5 18.6193 61.3807 17.5 60 17.5C58.6193 17.5 57.5 18.6193 57.5 20C57.5 21.3807 58.6193 22.5 60 22.5Z" fill="#78D497"/>
<path d="M70 22.5C71.3807 22.5 72.5 21.3807 72.5 20C72.5 18.6193 71.3807 17.5 70 17.5C68.6193 17.5 67.5 18.6193 67.5 20C67.5 21.3807 68.6193 22.5 70 22.5Z" fill="#78D497"/>
<path d="M38.75 17.5H10C9.33696 17.5 8.70107 17.7634 8.23223 18.2322C7.76339 18.7011 7.5 19.337 7.5 20H37.5C37.8315 20 38.1495 19.8683 38.3839 19.6339C38.6183 19.3995 38.75 19.0815 38.75 18.75V17.5Z" fill="#F2F2F2"/>
</svg>
