<svg width="384" height="384" viewBox="0 0 384 384" fill="none" xmlns="http://www.w3.org/2000/svg">
<path d="M50.0391 259.2C50.0391 259.2 4.18571 137.752 35.3281 88.6387C66.4705 39.5251 304.681 -0.595221 351.652 46.848C387.364 82.8979 379.112 239.512 351.652 269.065C314.715 308.813 73.1214 324.054 50.0391 259.2Z" fill="#D2FFE1"/>
<path d="M71.213 38.2771L72.5033 41.6371C72.5837 41.8452 72.707 42.0341 72.8651 42.1915C73.0232 42.3489 73.2126 42.4714 73.421 42.551L76.781 43.8451C77.0815 43.9594 77.3402 44.1624 77.5227 44.4272C77.7052 44.6919 77.8029 45.0058 77.8029 45.3273C77.8029 45.6489 77.7052 45.9628 77.5227 46.2275C77.3402 46.4922 77.0815 46.6952 76.781 46.8096L73.421 48.1037C73.2126 48.1833 73.0232 48.3057 72.8651 48.4632C72.707 48.6206 72.5837 48.8095 72.5033 49.0176L71.213 52.3776C71.0978 52.6777 70.8943 52.9359 70.6293 53.118C70.3643 53.3001 70.0504 53.3976 69.7289 53.3976C69.4073 53.3976 69.0934 53.3001 68.8284 53.118C68.5634 52.9359 68.3599 52.6777 68.2447 52.3776L66.9545 49.0176C66.8752 48.8094 66.7529 48.6203 66.5953 48.4628C66.4378 48.3053 66.2487 48.1829 66.0405 48.1037L62.6767 46.8096C62.3762 46.6952 62.1175 46.4922 61.935 46.2275C61.7525 45.9628 61.6548 45.6489 61.6548 45.3273C61.6548 45.0058 61.7525 44.6919 61.935 44.4272C62.1175 44.1624 62.3762 43.9594 62.6767 43.8451L66.0405 42.551C66.2487 42.4718 66.4378 42.3494 66.5953 42.1919C66.7529 42.0344 66.8752 41.8453 66.9545 41.6371L68.2447 38.2771C68.3599 37.9769 68.5634 37.7188 68.8284 37.5367C69.0934 37.3546 69.4073 37.2571 69.7289 37.2571C70.0504 37.2571 70.3643 37.3546 70.6293 37.5367C70.8943 37.7188 71.0978 37.9769 71.213 38.2771Z" fill="#D2FFE1"/>
<path d="M353.848 194.016L355.768 199.008C355.888 199.315 356.07 199.594 356.303 199.827C356.537 200.06 356.816 200.241 357.124 200.36L362.116 202.28C362.56 202.451 362.941 202.752 363.21 203.144C363.479 203.536 363.624 204.001 363.624 204.476C363.624 204.952 363.479 205.416 363.21 205.808C362.941 206.2 362.56 206.502 362.116 206.673L357.124 208.593C356.816 208.711 356.537 208.892 356.303 209.125C356.07 209.358 355.888 209.637 355.768 209.944L353.848 214.936C353.677 215.38 353.376 215.762 352.984 216.031C352.592 216.3 352.128 216.444 351.652 216.444C351.176 216.444 350.712 216.3 350.32 216.031C349.928 215.762 349.627 215.38 349.456 214.936L347.536 209.944C347.418 209.636 347.236 209.356 347.002 209.123C346.769 208.89 346.489 208.71 346.18 208.593L341.207 206.673C340.763 206.502 340.382 206.2 340.113 205.808C339.844 205.416 339.7 204.952 339.7 204.476C339.7 204.001 339.844 203.536 340.113 203.144C340.382 202.752 340.763 202.451 341.207 202.28L346.18 200.36C346.489 200.243 346.769 200.062 347.002 199.829C347.236 199.596 347.418 199.316 347.536 199.008L349.456 194.016C349.627 193.572 349.928 193.191 350.32 192.922C350.712 192.652 351.176 192.508 351.652 192.508C352.128 192.508 352.592 192.652 352.984 192.922C353.376 193.191 353.677 193.572 353.848 194.016Z" fill="white"/>
<path d="M324.864 50.231L325.582 52.101C325.627 52.2168 325.696 52.3218 325.784 52.4097C325.872 52.4976 325.977 52.5664 326.093 52.6118L327.963 53.3298C328.13 53.3935 328.274 53.5065 328.376 53.654C328.478 53.8014 328.532 53.9763 328.532 54.1554C328.532 54.3346 328.478 54.5095 328.376 54.6569C328.274 54.8044 328.13 54.9174 327.963 54.981L326.093 55.6991C325.977 55.7445 325.872 55.8133 325.784 55.9012C325.696 55.989 325.627 56.0941 325.582 56.2098L324.864 58.0799C324.8 58.2474 324.687 58.3915 324.54 58.4932C324.392 58.5949 324.217 58.6494 324.038 58.6494C323.859 58.6494 323.684 58.5949 323.537 58.4932C323.389 58.3915 323.276 58.2474 323.213 58.0799L322.495 56.2098C322.449 56.0941 322.381 55.989 322.293 55.9012C322.205 55.8133 322.1 55.7445 321.984 55.6991L320.114 54.981C319.946 54.9174 319.802 54.8044 319.701 54.6569C319.599 54.5095 319.544 54.3346 319.544 54.1554C319.544 53.9763 319.599 53.8014 319.701 53.654C319.802 53.5065 319.946 53.3935 320.114 53.3298L321.984 52.6118C322.1 52.5664 322.205 52.4976 322.293 52.4097C322.381 52.3218 322.449 52.2168 322.495 52.101L323.213 50.231C323.276 50.0635 323.389 49.9194 323.537 49.8177C323.684 49.716 323.859 49.6615 324.038 49.6615C324.217 49.6615 324.392 49.716 324.54 49.8177C324.687 49.9194 324.8 50.0635 324.864 50.231Z" fill="white"/>
<path d="M48.768 149.491L50.0582 152.855C50.1379 153.063 50.2604 153.252 50.4179 153.409C50.5753 153.567 50.7642 153.689 50.9722 153.769L54.336 155.059C54.6362 155.174 54.8943 155.378 55.0764 155.643C55.2585 155.908 55.356 156.222 55.356 156.543C55.356 156.865 55.2585 157.179 55.0764 157.444C54.8943 157.709 54.6362 157.912 54.336 158.027L50.9722 159.318C50.7646 159.398 50.576 159.521 50.4187 159.678C50.2613 159.835 50.1385 160.024 50.0582 160.232L48.768 163.584C48.6528 163.884 48.4493 164.142 48.1843 164.324C47.9193 164.506 47.6054 164.604 47.2838 164.604C46.9623 164.604 46.6484 164.506 46.3834 164.324C46.1184 164.142 45.9149 163.884 45.7997 163.584L44.5094 160.22C44.4292 160.012 44.3064 159.824 44.149 159.667C43.9917 159.509 43.8031 159.386 43.5955 159.306L40.2317 158.016C39.9315 157.901 39.6734 157.697 39.4913 157.432C39.3092 157.167 39.2117 156.853 39.2117 156.532C39.2117 156.21 39.3092 155.896 39.4913 155.631C39.6734 155.366 39.9315 155.163 40.2317 155.048L43.5955 153.757C43.8035 153.678 43.9923 153.555 44.1498 153.398C44.3073 153.24 44.4298 153.051 44.5094 152.843L45.7997 149.48C45.9161 149.18 46.1206 148.923 46.3863 148.741C46.652 148.56 46.9663 148.464 47.2878 148.465C47.6093 148.467 47.9229 148.565 48.1872 148.748C48.4514 148.932 48.654 149.191 48.768 149.491Z" fill="white"/>
<path d="M35.3281 88.6387C35.3281 88.6387 130.821 81.961 158.442 162.9C186.063 243.84 295.296 267.963 360.472 251.578" stroke="white" stroke-width="0.384" stroke-miterlimit="10"/>
<path d="M135.617 41.5871C135.617 41.5871 205.782 25.6243 242.98 90.5241C282.267 159.072 374.761 131.205 374.761 131.205" stroke="white" stroke-width="0.384" stroke-miterlimit="10"/>
<path d="M313.471 160.892C313.471 157.785 310.953 155.267 307.847 155.267C304.741 155.267 302.223 157.785 302.223 160.892V224.026C302.223 227.133 304.741 229.651 307.847 229.651C310.953 229.651 313.471 227.133 313.471 224.026V160.892Z" fill="#85FFC4"/>
<path d="M313.471 257.203C313.471 254.096 310.953 251.578 307.847 251.578C304.741 251.578 302.223 254.096 302.223 257.203V278.097C302.223 281.204 304.741 283.722 307.847 283.722C310.953 283.722 313.471 281.204 313.471 278.097V257.203Z" fill="#85FFC4"/>
<path d="M307.369 96.5799V289.782C302.734 291.022 297.857 292.193 292.777 293.284C237.627 305.13 158.523 307.765 105.385 294.628C100.262 293.365 95.401 291.94 90.793 290.404V96.5799C90.794 88.9128 93.8404 81.5601 99.2623 76.1389C104.684 70.7178 112.037 67.6724 119.704 67.6724H278.461C286.128 67.6724 293.481 70.718 298.902 76.1392C304.323 81.5604 307.369 88.9131 307.369 96.5799Z" fill="white"/>
<path d="M212.709 67.6763H278.465C286.132 67.6763 293.485 70.7219 298.906 76.1431C304.327 81.5643 307.373 88.917 307.373 96.5838V289.782" stroke="#03736D" stroke-width="0.768" stroke-linecap="round" stroke-linejoin="round"/>
<path d="M292.777 99.7171V293.284C237.627 305.13 158.523 307.764 105.385 294.628V99.7171C105.386 94.925 107.29 90.3296 110.679 86.9414C114.068 83.5533 118.664 81.6499 123.456 81.6499H274.71C277.083 81.6474 279.434 82.113 281.627 83.0201C283.82 83.9271 285.813 85.2578 287.491 86.936C289.169 88.6142 290.5 90.6069 291.407 92.8001C292.314 94.9933 292.78 97.3438 292.777 99.7171Z" fill="#36C196"/>
<path d="M292.777 134.277V293.284C237.627 305.13 158.523 307.765 105.385 294.628V134.277C105.386 129.485 107.29 124.89 110.679 121.502C114.068 118.113 118.664 116.21 123.456 116.21H274.71C277.083 116.207 279.434 116.673 281.627 117.58C283.82 118.487 285.813 119.818 287.491 121.496C289.169 123.174 290.5 125.167 291.407 127.36C292.314 129.553 292.78 131.904 292.777 134.277Z" fill="#03736D"/>
<path d="M275.685 90.5242H122.465C117.954 90.5242 114.298 94.1801 114.298 98.6899C114.298 103.2 117.954 106.856 122.465 106.856H275.685C280.196 106.856 283.853 103.2 283.853 98.6899C283.853 94.1801 280.196 90.5242 275.685 90.5242Z" fill="white"/>
<path d="M242.98 106.856H122.465C121.393 106.856 120.33 106.645 119.339 106.235C118.348 105.825 117.447 105.223 116.689 104.465C115.93 103.706 115.329 102.805 114.918 101.814C114.508 100.823 114.297 99.7608 114.298 98.6881C114.298 97.6155 114.509 96.5534 114.919 95.5624C115.33 94.5715 115.931 93.6711 116.69 92.9126C117.448 92.1542 118.349 91.5526 119.34 91.1421C120.331 90.7316 121.393 90.5204 122.465 90.5204H180.703" stroke="#03736D" stroke-width="0.768" stroke-linecap="round" stroke-linejoin="round"/>
<path d="M272.709 101.311C274.59 101.311 276.115 99.7859 276.115 97.9047C276.115 96.0236 274.59 94.4987 272.709 94.4987C270.828 94.4987 269.303 96.0236 269.303 97.9047C269.303 99.7859 270.828 101.311 272.709 101.311Z" stroke="#03736D" stroke-width="0.768" stroke-linecap="round" stroke-linejoin="round"/>
<path d="M277.271 102.467L275.117 100.312" stroke="#03736D" stroke-width="0.768" stroke-linecap="round" stroke-linejoin="round"/>
<path d="M272.068 131.205H126.086C122.258 131.205 119.155 134.308 119.155 138.136V168.753C119.155 172.581 122.258 175.684 126.086 175.684H272.068C275.896 175.684 278.999 172.581 278.999 168.753V138.136C278.999 134.308 275.896 131.205 272.068 131.205Z" fill="white"/>
<path d="M152.168 140.102H130.522C129.13 140.102 128.003 141.23 128.003 142.621V164.268C128.003 165.659 129.13 166.787 130.522 166.787H152.168C153.559 166.787 154.687 165.659 154.687 164.268V142.621C154.687 141.23 153.559 140.102 152.168 140.102Z" fill="#FFBA40"/>
<path d="M147.072 157.478C147.072 159.598 144.507 160.339 141.347 160.339C138.186 160.339 135.621 159.598 135.621 157.478C135.621 155.359 138.182 153.638 141.347 153.638C144.511 153.638 147.072 155.363 147.072 157.478Z" fill="#D2FFE1"/>
<path d="M141.343 159.252C146.923 159.252 151.446 157.537 151.446 155.42C151.446 153.304 146.923 151.588 141.343 151.588C135.763 151.588 131.24 153.304 131.24 155.42C131.24 157.537 135.763 159.252 141.343 159.252Z" fill="#85FFC4"/>
<path d="M141.343 157.701C144.823 157.701 147.644 156.793 147.644 155.674C147.644 154.554 144.823 153.646 141.343 153.646C137.863 153.646 135.041 154.554 135.041 155.674C135.041 156.793 137.863 157.701 141.343 157.701Z" fill="#D2FFE1"/>
<path d="M145.152 154.061L150.993 148.685C151.088 148.622 151.168 148.539 151.227 148.441C151.286 148.344 151.323 148.235 151.335 148.121C151.346 148.008 151.332 147.893 151.294 147.786C151.256 147.678 151.194 147.581 151.114 147.5C151.033 147.419 150.936 147.358 150.828 147.319C150.721 147.281 150.606 147.267 150.493 147.279C150.379 147.291 150.27 147.327 150.172 147.386C150.075 147.446 149.992 147.526 149.929 147.621L144.553 153.462C144.225 153.387 143.882 153.402 143.561 153.506C143.241 153.61 142.955 153.799 142.733 154.053C142.026 154.76 141.857 155.739 142.349 156.242C142.84 156.745 143.831 156.572 144.538 155.858C144.792 155.641 144.983 155.359 145.091 155.043C145.199 154.727 145.22 154.388 145.152 154.061Z" fill="#03736D"/>
<path d="M136.769 153.646C135.164 152.878 137.384 150.374 136.001 148.716C134.619 147.057 136.723 145.041 140.11 146.446C143.497 147.851 145.402 145.778 145.551 147.671C145.747 150.013 141.665 155.954 136.769 153.646Z" fill="white"/>
<path d="M140.705 148.662C141.205 149.291 140.859 149.906 140.233 150.405C139.607 150.904 138.931 151.1 138.428 150.47C138.208 150.167 138.113 149.79 138.164 149.418C138.215 149.047 138.407 148.709 138.701 148.476C138.995 148.242 139.367 148.131 139.74 148.166C140.114 148.201 140.46 148.378 140.705 148.662Z" fill="#FF8B00"/>
<path d="M138.536 150.056C138.444 149.886 138.396 149.697 138.396 149.505C138.396 149.312 138.444 149.123 138.536 148.953C138.766 148.608 139.043 148.953 138.92 149.218C138.797 149.483 138.401 149.595 138.536 150.056Z" fill="white"/>
<path d="M245.918 142.902H165.646C164.435 142.902 163.454 143.883 163.454 145.094C163.454 146.305 164.435 147.287 165.646 147.287H245.918C247.129 147.287 248.11 146.305 248.11 145.094C248.11 143.883 247.129 142.902 245.918 142.902Z" fill="#164D3D"/>
<path d="M246.743 153.508H164.821C164.066 153.508 163.454 154.12 163.454 154.875C163.454 155.63 164.066 156.242 164.821 156.242H246.743C247.498 156.242 248.11 155.63 248.11 154.875C248.11 154.12 247.498 153.508 246.743 153.508Z" fill="#D2FFE1"/>
<path d="M208.727 160.166H164.821C164.066 160.166 163.454 160.778 163.454 161.533C163.454 162.288 164.066 162.9 164.821 162.9H208.727C209.482 162.9 210.094 162.288 210.094 161.533C210.094 160.778 209.482 160.166 208.727 160.166Z" fill="#D2FFE1"/>
<path d="M269.023 142.902H258.47C257.578 142.902 256.854 143.626 256.854 144.518V154.625C256.854 155.518 257.578 156.242 258.47 156.242H269.023C269.916 156.242 270.639 155.518 270.639 154.625V144.518C270.639 143.626 269.916 142.902 269.023 142.902Z" fill="#36C196"/>
<path d="M264.192 149.115H265.379V149.971H264.192V151.315H263.286V149.971H262.095V149.115H263.286V147.84H264.192V149.115Z" fill="white"/>
<path d="M272.064 190.564H126.083C122.255 190.564 119.151 193.667 119.151 197.495V228.111C119.151 231.939 122.255 235.043 126.083 235.043H272.064C275.892 235.043 278.995 231.939 278.995 228.111V197.495C278.995 193.667 275.892 190.564 272.064 190.564Z" fill="white"/>
<path d="M152.164 199.461H130.518C129.127 199.461 127.999 200.589 127.999 201.98V223.626C127.999 225.017 129.127 226.145 130.518 226.145H152.164C153.555 226.145 154.683 225.017 154.683 223.626V201.98C154.683 200.589 153.555 199.461 152.164 199.461Z" fill="#FFBA40"/>
<path d="M147.072 216.841C147.072 218.957 144.507 219.698 141.347 219.698C138.186 219.698 135.621 218.957 135.621 216.841C135.621 214.725 138.182 213.001 141.347 213.001C144.511 213.001 147.072 214.721 147.072 216.841Z" fill="#D2FFE1"/>
<path d="M141.343 218.611C146.923 218.611 151.446 216.895 151.446 214.779C151.446 212.662 146.923 210.946 141.343 210.946C135.763 210.946 131.24 212.662 131.24 214.779C131.24 216.895 135.763 218.611 141.343 218.611Z" fill="#85FFC4"/>
<path d="M141.343 217.064C144.823 217.064 147.644 216.156 147.644 215.036C147.644 213.916 144.823 213.009 141.343 213.009C137.863 213.009 135.041 213.916 135.041 215.036C135.041 216.156 137.863 217.064 141.343 217.064Z" fill="#D2FFE1"/>
<path d="M145.152 213.419L150.993 208.043C151.088 207.981 151.168 207.898 151.227 207.8C151.286 207.703 151.323 207.593 151.335 207.48C151.346 207.366 151.332 207.252 151.294 207.144C151.256 207.037 151.194 206.939 151.114 206.859C151.033 206.778 150.936 206.716 150.828 206.678C150.721 206.64 150.606 206.626 150.493 206.638C150.379 206.649 150.27 206.686 150.172 206.745C150.075 206.804 149.992 206.884 149.929 206.98L144.553 212.82C144.224 212.745 143.881 212.76 143.559 212.865C143.238 212.969 142.951 213.158 142.729 213.412C142.022 214.122 141.857 215.098 142.345 215.601C142.833 216.104 143.823 215.935 144.534 215.217C144.788 215 144.98 214.718 145.088 214.402C145.197 214.086 145.219 213.747 145.152 213.419Z" fill="#03736D"/>
<path d="M136.769 213.005C135.164 212.237 137.38 209.733 136.001 208.074C134.623 206.415 136.719 204.399 140.11 205.805C143.501 207.21 145.402 205.137 145.551 207.03C145.747 209.372 141.665 215.316 136.769 213.005Z" fill="white"/>
<path d="M140.701 208.024C141.201 208.65 140.859 209.265 140.233 209.764C139.607 210.263 138.927 210.459 138.428 209.833C138.188 209.531 138.078 209.147 138.122 208.764C138.165 208.382 138.359 208.032 138.66 207.792C138.962 207.552 139.346 207.442 139.729 207.485C140.112 207.529 140.462 207.723 140.701 208.024Z" fill="#FF8B00"/>
<path d="M138.536 209.414C138.444 209.245 138.395 209.056 138.395 208.863C138.395 208.671 138.444 208.481 138.536 208.312C138.762 207.971 139.042 208.312 138.92 208.577C138.797 208.842 138.397 208.954 138.536 209.414Z" fill="white"/>
<path d="M245.917 202.26H165.646C164.435 202.26 163.453 203.242 163.453 204.453C163.453 205.664 164.435 206.646 165.646 206.646H245.917C247.128 206.646 248.11 205.664 248.11 204.453C248.11 203.242 247.128 202.26 245.917 202.26Z" fill="#164D3D"/>
<path d="M246.743 212.867H164.82C164.065 212.867 163.453 213.479 163.453 214.234C163.453 214.989 164.065 215.601 164.82 215.601H246.743C247.498 215.601 248.11 214.989 248.11 214.234C248.11 213.479 247.498 212.867 246.743 212.867Z" fill="#D2FFE1"/>
<path d="M208.727 219.529H164.82C164.065 219.529 163.453 220.141 163.453 220.896C163.453 221.651 164.065 222.263 164.82 222.263H208.727C209.482 222.263 210.094 221.651 210.094 220.896C210.094 220.141 209.482 219.529 208.727 219.529Z" fill="#D2FFE1"/>
<path d="M269.023 202.26H258.47C257.578 202.26 256.854 202.984 256.854 203.877V213.984C256.854 214.877 257.578 215.601 258.47 215.601H269.023C269.916 215.601 270.639 214.877 270.639 213.984V203.877C270.639 202.984 269.916 202.26 269.023 202.26Z" fill="#36C196"/>
<path d="M264.192 208.474H265.382V209.334H264.192V210.674H263.29V209.334H262.095V208.474H263.29V207.187H264.192V208.474Z" fill="white"/>
<path d="M272.064 249.923H126.083C122.255 249.923 119.151 253.026 119.151 256.854V287.47C119.151 291.298 122.255 294.401 126.083 294.401H272.064C275.892 294.401 278.995 291.298 278.995 287.47V256.854C278.995 253.026 275.892 249.923 272.064 249.923Z" fill="white"/>
<path d="M152.164 258.82H130.518C129.127 258.82 127.999 259.948 127.999 261.339V282.985C127.999 284.376 129.127 285.504 130.518 285.504H152.164C153.555 285.504 154.683 284.376 154.683 282.985V261.339C154.683 259.948 153.555 258.82 152.164 258.82Z" fill="#FFBA40"/>
<path d="M147.072 276.2C147.072 278.315 144.511 279.057 141.347 279.057C138.182 279.057 135.621 278.315 135.621 276.2C135.621 274.084 138.186 272.36 141.347 272.36C144.507 272.36 147.072 274.084 147.072 276.2Z" fill="#D2FFE1"/>
<path d="M141.339 277.974C146.919 277.974 151.442 276.258 151.442 274.141C151.442 272.025 146.919 270.309 141.339 270.309C135.759 270.309 131.236 272.025 131.236 274.141C131.236 276.258 135.759 277.974 141.339 277.974Z" fill="#85FFC4"/>
<path d="M141.339 276.422C144.819 276.422 147.64 275.515 147.64 274.395C147.64 273.275 144.819 272.367 141.339 272.367C137.859 272.367 135.037 273.275 135.037 274.395C135.037 275.515 137.859 276.422 141.339 276.422Z" fill="#D2FFE1"/>
<path d="M145.152 272.778L150.997 267.402C151.091 267.339 151.17 267.255 151.228 267.158C151.286 267.06 151.321 266.951 151.332 266.838C151.343 266.725 151.329 266.611 151.29 266.505C151.252 266.398 151.19 266.301 151.11 266.221C151.029 266.141 150.932 266.08 150.825 266.042C150.719 266.004 150.605 265.99 150.492 266.001C150.379 266.012 150.27 266.048 150.173 266.107C150.075 266.165 149.992 266.244 149.929 266.338L144.572 272.183C144.243 272.107 143.9 272.122 143.578 272.226C143.257 272.33 142.97 272.52 142.748 272.774C142.042 273.481 141.873 274.46 142.364 274.959C142.856 275.458 143.843 275.293 144.549 274.575C144.801 274.357 144.99 274.075 145.096 273.759C145.202 273.443 145.222 273.104 145.152 272.778Z" fill="#03736D"/>
<path d="M136.765 272.367C135.164 271.599 137.38 269.092 135.997 267.433C134.615 265.774 136.719 263.758 140.106 265.163C143.493 266.569 145.402 264.499 145.548 266.388C145.743 268.731 141.665 274.675 136.765 272.367Z" fill="white"/>
<path d="M140.701 267.383C141.201 268.009 140.859 268.623 140.229 269.123C139.599 269.622 138.927 269.818 138.428 269.192C138.188 268.89 138.078 268.506 138.122 268.123C138.165 267.74 138.359 267.391 138.66 267.151C138.962 266.911 139.346 266.801 139.729 266.844C140.112 266.888 140.462 267.082 140.701 267.383Z" fill="#FF8B00"/>
<path d="M138.532 268.773C138.438 268.605 138.389 268.416 138.389 268.224C138.389 268.032 138.438 267.843 138.532 267.675C138.762 267.329 139.039 267.675 138.916 267.936C138.793 268.197 138.398 268.316 138.532 268.773Z" fill="white"/>
<path d="M245.917 261.619H165.646C164.435 261.619 163.453 262.601 163.453 263.812C163.453 265.023 164.435 266.005 165.646 266.005H245.917C247.128 266.005 248.11 265.023 248.11 263.812C248.11 262.601 247.128 261.619 245.917 261.619Z" fill="#164D3D"/>
<path d="M246.743 272.225H164.82C164.065 272.225 163.453 272.837 163.453 273.592C163.453 274.347 164.065 274.959 164.82 274.959H246.743C247.498 274.959 248.11 274.347 248.11 273.592C248.11 272.837 247.498 272.225 246.743 272.225Z" fill="#D2FFE1"/>
<path d="M208.727 278.888H164.82C164.065 278.888 163.453 279.5 163.453 280.255C163.453 281.01 164.065 281.622 164.82 281.622H208.727C209.482 281.622 210.094 281.01 210.094 280.255C210.094 279.5 209.482 278.888 208.727 278.888Z" fill="#D2FFE1"/>
<path d="M269.023 261.619H258.47C257.578 261.619 256.854 262.343 256.854 263.236V273.343C256.854 274.236 257.578 274.959 258.47 274.959H269.023C269.916 274.959 270.639 274.236 270.639 273.343V263.236C270.639 262.343 269.916 261.619 269.023 261.619Z" fill="#36C196"/>
<path d="M264.192 267.832H265.379V268.693H264.192V270.033H263.286V268.693H262.095V267.832H263.286V266.546H264.192V267.832Z" fill="white"/>
<path d="M137.222 204.33C137.222 204.33 161.664 225.942 162.017 229.632C162.37 233.322 153.381 237.754 135.11 226.744C116.84 215.735 111.191 212.237 111.191 212.237L137.222 204.33Z" fill="#CE635B"/>
<path d="M93.9226 345.623C93.9226 345.623 105.443 296.517 123.364 286.045C134.815 279.349 143.581 279.295 157.667 262.41C171.64 245.664 173.211 250.933 178.053 247.377C182.895 243.821 176.675 230.707 157.567 238.464C137.883 246.467 134.166 242.63 139.519 232.458C144.872 222.286 166.483 187.25 175.715 174.655C184.946 162.06 188.387 144.173 178.522 145.041C175.131 145.336 132.288 196.838 132.288 196.838C132.288 196.838 127.791 190.633 121.26 187.926C114.405 185.084 110.412 188.694 108.015 186.62C105.619 184.547 99.4061 177.677 89.8061 182.957C81.4886 187.53 81.0163 184.796 74.8301 184.942C68.6438 185.088 62.6534 190.629 56.8781 202.383C50.0621 216.257 46.9325 234.171 45.7037 259.899C44.8742 277.271 34.9517 304.992 25.7549 322.81L93.9226 345.623Z" fill="#FFA397"/>
<path d="M99.4061 327.675L102.781 317.545C102.781 317.545 81.0893 295.254 38.3501 296.317L99.4061 327.675Z" fill="#164D3D"/>
<path d="M123.433 206.746L135.675 193.06" stroke="#164D3D" stroke-width="0.768" stroke-linecap="round" stroke-linejoin="round"/>
<path d="M112.335 186.732C112.335 186.732 106.091 186.221 99.479 197.311" stroke="#164D3D" stroke-width="0.768" stroke-linecap="round" stroke-linejoin="round"/>
<path d="M91.8296 182.016C91.8296 182.016 84.261 182.369 79.054 192.914" stroke="#164D3D" stroke-width="0.768" stroke-linecap="round" stroke-linejoin="round"/>
<path d="M105.391 333.061C108.276 325.629 92.2202 312.466 69.5309 303.661C46.8415 294.856 26.1101 293.742 23.2259 301.174C20.3417 308.606 36.397 321.769 59.0864 330.574C81.7757 339.379 102.507 340.493 105.391 333.061Z" fill="#03736D"/>
<path d="M23.2238 301.172L10.28 334.525L92.4455 366.412L105.389 333.058L23.2238 301.172Z" fill="#03736D"/>
<path d="M92.447 366.41C95.3312 358.978 79.2759 345.815 56.5865 337.01C33.8972 328.205 13.1657 327.092 10.2816 334.524C7.3974 341.956 23.4527 355.119 46.142 363.924C68.8314 372.729 89.5628 373.842 92.447 366.41Z" fill="#164D3D"/>
<path d="M92.447 366.41C95.3312 358.978 79.2759 345.815 56.5865 337.01C33.8972 328.205 13.1657 327.092 10.2816 334.524C7.3974 341.956 23.4527 355.119 46.142 363.924C68.8314 372.729 89.5628 373.842 92.447 366.41Z" stroke="white" stroke-width="0.768" stroke-linecap="round" stroke-linejoin="round"/>
<path d="M86.4075 342.133C90.4391 342.133 93.7073 338.864 93.7073 334.833C93.7073 330.801 90.4391 327.533 86.4075 327.533C82.3759 327.533 79.1077 330.801 79.1077 334.833C79.1077 338.864 82.3759 342.133 86.4075 342.133Z" stroke="white" stroke-width="0.768" stroke-linecap="round" stroke-linejoin="round"/>
</svg>
