<svg width="384" height="384" viewBox="0 0 384 384" fill="none" xmlns="http://www.w3.org/2000/svg">
<path d="M22.8057 102.09C35.351 54.6241 93.696 46.9249 156.756 51.6097C296.421 61.9777 374.362 86.4538 374.868 145.24C375.36 200.133 367.887 300.073 341.311 315.425C314.734 330.778 88.8038 331.208 48.4915 296.414C25.6934 276.722 6.14396 165.139 22.8057 102.09Z" fill="#D2FFE1"/>
<path d="M184.47 53.9366C184.47 53.9366 202.222 61.655 220.132 124.792C238.042 187.93 295.745 150.52 346.982 95.5622" stroke="white" stroke-width="0.384" stroke-miterlimit="10"/>
<path d="M45.481 69.2774C45.481 69.2774 131.297 48.0691 154.802 143.581C178.307 239.094 266.212 261.853 367.569 249.496" stroke="white" stroke-width="0.384" stroke-miterlimit="10"/>
<path d="M6.21313 182.016H84.7335C84.7335 182.016 85.5552 172.251 75.6749 170.231C75.6749 170.231 82.7559 159.145 71.0093 150.371C60.1651 142.272 45.7536 149.18 45.481 158.285C45.481 158.285 40.2663 153.024 31.4842 155.95C25.3402 158.008 20.9626 166.038 23.7082 172.808C23.7082 172.8 10.1683 168.576 6.21313 182.016Z" fill="white"/>
<path d="M294.113 342.816H200.797V160.224L247.453 126.467L294.113 160.224V342.816Z" fill="white"/>
<path d="M226.886 185.272H213.377C211.91 185.272 210.72 186.462 210.72 187.93V201.439C210.72 202.906 211.91 204.096 213.377 204.096H226.886C228.354 204.096 229.544 202.906 229.544 201.439V187.93C229.544 186.462 228.354 185.272 226.886 185.272Z" fill="#85FFCC"/>
<path d="M254.208 185.272H240.699C239.231 185.272 238.042 186.462 238.042 187.93V201.439C238.042 202.906 239.231 204.096 240.699 204.096H254.208C255.675 204.096 256.865 202.906 256.865 201.439V187.93C256.865 186.462 255.675 185.272 254.208 185.272Z" fill="#85FFCC"/>
<path d="M281.53 185.272H268.021C266.553 185.272 265.363 186.462 265.363 187.93V201.439C265.363 202.906 266.553 204.096 268.021 204.096H281.53C282.997 204.096 284.187 202.906 284.187 201.439V187.93C284.187 186.462 282.997 185.272 281.53 185.272Z" fill="#85FFCC"/>
<path d="M226.886 212.621H213.377C211.91 212.621 210.72 213.811 210.72 215.278V228.787C210.72 230.255 211.91 231.445 213.377 231.445H226.886C228.354 231.445 229.544 230.255 229.544 228.787V215.278C229.544 213.811 228.354 212.621 226.886 212.621Z" fill="#85FFCC"/>
<path d="M254.208 212.621H240.699C239.231 212.621 238.042 213.811 238.042 215.278V228.787C238.042 230.255 239.231 231.445 240.699 231.445H254.208C255.675 231.445 256.865 230.255 256.865 228.787V215.278C256.865 213.811 255.675 212.621 254.208 212.621Z" fill="#85FFCC"/>
<path d="M281.53 212.621H268.021C266.553 212.621 265.363 213.811 265.363 215.278V228.787C265.363 230.255 266.553 231.445 268.021 231.445H281.53C282.997 231.445 284.187 230.255 284.187 228.787V215.278C284.187 213.811 282.997 212.621 281.53 212.621Z" fill="#85FFCC"/>
<path d="M226.886 239.965H213.377C211.91 239.965 210.72 241.155 210.72 242.623V256.132C210.72 257.599 211.91 258.789 213.377 258.789H226.886C228.354 258.789 229.544 257.599 229.544 256.132V242.623C229.544 241.155 228.354 239.965 226.886 239.965Z" fill="#85FFCC"/>
<path d="M254.208 239.965H240.699C239.231 239.965 238.042 241.155 238.042 242.623V256.132C238.042 257.599 239.231 258.789 240.699 258.789H254.208C255.675 258.789 256.865 257.599 256.865 256.132V242.623C256.865 241.155 255.675 239.965 254.208 239.965Z" fill="#85FFCC"/>
<path d="M281.53 239.965H268.021C266.553 239.965 265.363 241.155 265.363 242.623V256.132C265.363 257.599 266.553 258.789 268.021 258.789H281.53C282.997 258.789 284.187 257.599 284.187 256.132V242.623C284.187 241.155 282.997 239.965 281.53 239.965Z" fill="#85FFCC"/>
<path d="M226.886 267.314H213.377C211.91 267.314 210.72 268.504 210.72 269.971V283.48C210.72 284.948 211.91 286.138 213.377 286.138H226.886C228.354 286.138 229.544 284.948 229.544 283.48V269.971C229.544 268.504 228.354 267.314 226.886 267.314Z" fill="#85FFCC"/>
<path d="M254.208 267.314H240.699C239.231 267.314 238.042 268.504 238.042 269.971V283.48C238.042 284.948 239.231 286.138 240.699 286.138H254.208C255.675 286.138 256.865 284.948 256.865 283.48V269.971C256.865 268.504 255.675 267.314 254.208 267.314Z" fill="#85FFCC"/>
<path d="M281.53 267.314H268.021C266.553 267.314 265.363 268.504 265.363 269.971V283.48C265.363 284.948 266.553 286.138 268.021 286.138H281.53C282.997 286.138 284.187 284.948 284.187 283.48V269.971C284.187 268.504 282.997 267.314 281.53 267.314Z" fill="#85FFCC"/>
<path d="M226.886 294.659H213.377C211.91 294.659 210.72 295.848 210.72 297.316V310.825C210.72 312.293 211.91 313.482 213.377 313.482H226.886C228.354 313.482 229.544 312.293 229.544 310.825V297.316C229.544 295.848 228.354 294.659 226.886 294.659Z" fill="#85FFCC"/>
<path d="M254.208 294.659H240.699C239.231 294.659 238.042 295.848 238.042 297.316V310.825C238.042 312.293 239.231 313.482 240.699 313.482H254.208C255.675 313.482 256.865 312.293 256.865 310.825V297.316C256.865 295.848 255.675 294.659 254.208 294.659Z" fill="#85FFCC"/>
<path d="M281.53 294.659H268.021C266.553 294.659 265.363 295.848 265.363 297.316V310.825C265.363 312.293 266.553 313.482 268.021 313.482H281.53C282.997 313.482 284.187 312.293 284.187 310.825V297.316C284.187 295.848 282.997 294.659 281.53 294.659Z" fill="#85FFCC"/>
<path d="M247.453 170.907C253.695 170.907 258.755 165.847 258.755 159.606C258.755 153.364 253.695 148.305 247.453 148.305C241.212 148.305 236.152 153.364 236.152 159.606C236.152 165.847 241.212 170.907 247.453 170.907Z" fill="#85FFCC"/>
<path d="M120.419 103.887H66.9619V134.074H120.419V103.887Z" fill="#85FFCC"/>
<path d="M129.101 342.816H57.0393V93.4849L129.101 134.062V342.816Z" fill="white"/>
<path d="M114.555 144.906H98.9028C98.0269 144.906 97.3169 145.616 97.3169 146.492V162.144C97.3169 163.02 98.0269 163.73 98.9028 163.73H114.555C115.431 163.73 116.141 163.02 116.141 162.144V146.492C116.141 145.616 115.431 144.906 114.555 144.906Z" fill="#85FFCC"/>
<path d="M114.555 172.251H98.9028C98.0269 172.251 97.3169 172.961 97.3169 173.837V189.489C97.3169 190.364 98.0269 191.075 98.9028 191.075H114.555C115.431 191.075 116.141 190.364 116.141 189.489V173.837C116.141 172.961 115.431 172.251 114.555 172.251Z" fill="#85FFCC"/>
<path d="M114.555 199.599H98.9028C98.0269 199.599 97.3169 200.309 97.3169 201.185V216.837C97.3169 217.713 98.0269 218.423 98.9028 218.423H114.555C115.431 218.423 116.141 217.713 116.141 216.837V201.185C116.141 200.309 115.431 199.599 114.555 199.599Z" fill="#85FFCC"/>
<path d="M114.555 226.948H98.9028C98.0269 226.948 97.3169 227.658 97.3169 228.534V244.186C97.3169 245.061 98.0269 245.771 98.9028 245.771H114.555C115.431 245.771 116.141 245.061 116.141 244.186V228.534C116.141 227.658 115.431 226.948 114.555 226.948Z" fill="#85FFCC"/>
<path d="M87.2331 144.906H71.5813C70.7054 144.906 69.9954 145.616 69.9954 146.492V271.534C69.9954 272.41 70.7054 273.12 71.5813 273.12H87.2331C88.109 273.12 88.819 272.41 88.819 271.534V146.492C88.819 145.616 88.109 144.906 87.2331 144.906Z" fill="#85FFCC"/>
<path d="M114.555 254.292H98.9028C98.0269 254.292 97.3169 255.002 97.3169 255.878V271.53C97.3169 272.406 98.0269 273.116 98.9028 273.116H114.555C115.431 273.116 116.141 272.406 116.141 271.53V255.878C116.141 255.002 115.431 254.292 114.555 254.292Z" fill="#85FFCC"/>
<path d="M358.599 217.386H302.527V342.82H358.599V217.386Z" fill="white"/>
<path d="M318.424 239.77H309.877C309.113 239.77 308.494 240.389 308.494 241.152V249.7C308.494 250.463 309.113 251.082 309.877 251.082H318.424C319.188 251.082 319.807 250.463 319.807 249.7V241.152C319.807 240.389 319.188 239.77 318.424 239.77Z" fill="#85FFCC"/>
<path d="M334.84 239.77H326.293C325.529 239.77 324.91 240.389 324.91 241.152V249.7C324.91 250.463 325.529 251.082 326.293 251.082H334.84C335.604 251.082 336.223 250.463 336.223 249.7V241.152C336.223 240.389 335.604 239.77 334.84 239.77Z" fill="#85FFCC"/>
<path d="M351.256 239.77H342.709C341.945 239.77 341.326 240.389 341.326 241.152V249.7C341.326 250.463 341.945 251.082 342.709 251.082H351.256C352.02 251.082 352.639 250.463 352.639 249.7V241.152C352.639 240.389 352.02 239.77 351.256 239.77Z" fill="#85FFCC"/>
<path d="M318.424 256.201H309.877C309.113 256.201 308.494 256.82 308.494 257.583V266.131C308.494 266.895 309.113 267.514 309.877 267.514H318.424C319.188 267.514 319.807 266.895 319.807 266.131V257.583C319.807 256.82 319.188 256.201 318.424 256.201Z" fill="#85FFCC"/>
<path d="M334.84 256.201H326.293C325.529 256.201 324.91 256.82 324.91 257.583V266.131C324.91 266.895 325.529 267.514 326.293 267.514H334.84C335.604 267.514 336.223 266.895 336.223 266.131V257.583C336.223 256.82 335.604 256.201 334.84 256.201Z" fill="#85FFCC"/>
<path d="M351.256 256.201H342.709C341.945 256.201 341.326 256.82 341.326 257.583V266.131C341.326 266.895 341.945 267.514 342.709 267.514H351.256C352.02 267.514 352.639 266.895 352.639 266.131V257.583C352.639 256.82 352.02 256.201 351.256 256.201Z" fill="#85FFCC"/>
<path d="M318.424 272.632H309.877C309.113 272.632 308.494 273.251 308.494 274.015V282.563C308.494 283.326 309.113 283.945 309.877 283.945H318.424C319.188 283.945 319.807 283.326 319.807 282.563V274.015C319.807 273.251 319.188 272.632 318.424 272.632Z" fill="#85FFCC"/>
<path d="M334.84 272.632H326.293C325.529 272.632 324.91 273.251 324.91 274.015V282.563C324.91 283.326 325.529 283.945 326.293 283.945H334.84C335.604 283.945 336.223 283.326 336.223 282.563V274.015C336.223 273.251 335.604 272.632 334.84 272.632Z" fill="#85FFCC"/>
<path d="M351.256 272.632H342.709C341.945 272.632 341.326 273.251 341.326 274.015V282.563C341.326 283.326 341.945 283.945 342.709 283.945H351.256C352.02 283.945 352.639 283.326 352.639 282.563V274.015C352.639 273.251 352.02 272.632 351.256 272.632Z" fill="#85FFCC"/>
<path d="M318.424 289.064H309.877C309.113 289.064 308.494 289.683 308.494 290.446V298.994C308.494 299.757 309.113 300.376 309.877 300.376H318.424C319.188 300.376 319.807 299.757 319.807 298.994V290.446C319.807 289.683 319.188 289.064 318.424 289.064Z" fill="#85FFCC"/>
<path d="M334.84 289.064H326.293C325.529 289.064 324.91 289.683 324.91 290.446V298.994C324.91 299.757 325.529 300.376 326.293 300.376H334.84C335.604 300.376 336.223 299.757 336.223 298.994V290.446C336.223 289.683 335.604 289.064 334.84 289.064Z" fill="#85FFCC"/>
<path d="M351.256 289.064H342.709C341.945 289.064 341.326 289.683 341.326 290.446V298.994C341.326 299.757 341.945 300.376 342.709 300.376H351.256C352.02 300.376 352.639 299.757 352.639 298.994V290.446C352.639 289.683 352.02 289.064 351.256 289.064Z" fill="#85FFCC"/>
<path d="M318.424 305.495H309.877C309.113 305.495 308.494 306.114 308.494 306.878V315.425C308.494 316.189 309.113 316.808 309.877 316.808H318.424C319.188 316.808 319.807 316.189 319.807 315.425V306.878C319.807 306.114 319.188 305.495 318.424 305.495Z" fill="#85FFCC"/>
<path d="M334.84 305.495H326.293C325.529 305.495 324.91 306.114 324.91 306.878V315.425C324.91 316.189 325.529 316.808 326.293 316.808H334.84C335.604 316.808 336.223 316.189 336.223 315.425V306.878C336.223 306.114 335.604 305.495 334.84 305.495Z" fill="#85FFCC"/>
<path d="M351.256 305.495H342.709C341.945 305.495 341.326 306.114 341.326 306.878V315.425C341.326 316.189 341.945 316.808 342.709 316.808H351.256C352.02 316.808 352.639 316.189 352.639 315.425V306.878C352.639 306.114 352.02 305.495 351.256 305.495Z" fill="#85FFCC"/>
<path d="M302.527 234.017H358.602" stroke="#EAE6FF" stroke-width="0.768" stroke-miterlimit="10"/>
<path d="M210.72 99.072H280.884C280.884 99.072 281.618 90.3475 272.79 88.5389C272.79 88.5389 279.118 78.6317 268.62 70.7943C258.931 63.5597 246.056 69.7306 245.81 77.8637C245.81 77.8637 241.152 73.1635 233.303 75.7786C227.796 77.6179 223.903 84.7911 226.353 90.8429C226.353 90.8467 214.272 87.0643 210.72 99.072Z" fill="white"/>
<path d="M19.2346 281.472L20.4096 284.544C20.4823 284.734 20.5941 284.906 20.7376 285.049C20.8812 285.193 21.0533 285.305 21.2429 285.377L24.3149 286.552C24.5834 286.66 24.8136 286.845 24.9758 287.085C25.1379 287.324 25.2246 287.607 25.2246 287.896C25.2246 288.186 25.1379 288.468 24.9758 288.708C24.8136 288.947 24.5834 289.133 24.3149 289.24L21.2429 290.419C21.0529 290.491 20.8805 290.603 20.7368 290.746C20.5932 290.89 20.4817 291.063 20.4096 291.252L19.2346 294.324C19.1288 294.598 18.943 294.832 18.7014 294.998C18.4598 295.163 18.1738 295.252 17.881 295.252C17.5881 295.252 17.3021 295.163 17.0605 294.998C16.819 294.832 16.6331 294.598 16.5274 294.324L15.3523 291.252C15.2796 291.063 15.1679 290.891 15.0243 290.747C14.8807 290.604 14.7086 290.492 14.519 290.419L11.447 289.24C11.1785 289.133 10.9483 288.947 10.7862 288.708C10.624 288.468 10.5374 288.186 10.5374 287.896C10.5374 287.607 10.624 287.324 10.7862 287.085C10.9483 286.845 11.1785 286.66 11.447 286.552L14.519 285.377C14.7097 285.305 14.883 285.193 15.0278 285.05C15.1727 284.906 15.2858 284.734 15.36 284.544L16.512 281.472C16.6149 281.194 16.8006 280.954 17.0439 280.785C17.2873 280.615 17.5767 280.524 17.8733 280.524C18.1698 280.524 18.4592 280.615 18.7026 280.785C18.946 280.954 19.1316 281.194 19.2346 281.472Z" fill="#D2FFE1"/>
<path d="M257.725 36.096L258.9 39.168C258.972 39.3579 259.084 39.5304 259.228 39.6741C259.371 39.8177 259.544 39.9292 259.734 40.0013L262.806 41.1802C263.074 41.2877 263.304 41.4732 263.467 41.7127C263.629 41.9523 263.715 42.2349 263.715 42.5242C263.715 42.8134 263.629 43.0961 263.467 43.3356C263.304 43.5752 263.074 43.7607 262.806 43.8682L259.734 45.0471C259.544 45.1191 259.371 45.2307 259.228 45.3743C259.084 45.5179 258.972 45.6904 258.9 45.8803L257.725 48.9523C257.616 49.2194 257.43 49.4479 257.191 49.6088C256.952 49.7697 256.67 49.8556 256.381 49.8556C256.093 49.8556 255.811 49.7697 255.572 49.6088C255.332 49.4479 255.146 49.2194 255.037 48.9523L253.862 45.8803C253.79 45.6904 253.679 45.5179 253.535 45.3743C253.391 45.2307 253.219 45.1191 253.029 45.0471L249.957 43.8682C249.688 43.7607 249.458 43.5752 249.296 43.3356C249.134 43.0961 249.047 42.8134 249.047 42.5242C249.047 42.2349 249.134 41.9523 249.296 41.7127C249.458 41.4732 249.688 41.2877 249.957 41.1802L253.029 40.0013C253.219 39.9292 253.391 39.8177 253.535 39.6741C253.679 39.5304 253.79 39.3579 253.862 39.168L255.037 36.096C255.146 35.829 255.332 35.6004 255.572 35.4395C255.811 35.2787 256.093 35.1927 256.381 35.1927C256.67 35.1927 256.952 35.2787 257.191 35.4395C257.43 35.6004 257.616 35.829 257.725 36.096Z" fill="#D2FFE1"/>
<path d="M348.334 164.479L349.509 167.551C349.582 167.74 349.694 167.912 349.837 168.056C349.981 168.2 350.153 168.311 350.342 168.384L353.414 169.559C353.681 169.668 353.91 169.854 354.071 170.093C354.232 170.333 354.318 170.615 354.318 170.903C354.318 171.192 354.232 171.473 354.071 171.713C353.91 171.952 353.681 172.138 353.414 172.247L350.342 173.422C350.153 173.495 349.981 173.607 349.837 173.75C349.694 173.894 349.582 174.066 349.509 174.255L348.334 177.327C348.227 177.596 348.041 177.826 347.802 177.988C347.562 178.15 347.279 178.237 346.99 178.237C346.701 178.237 346.418 178.15 346.179 177.988C345.939 177.826 345.754 177.596 345.646 177.327L344.467 174.255C344.395 174.065 344.284 173.893 344.14 173.749C343.996 173.606 343.824 173.494 343.634 173.422L340.562 172.247C340.295 172.138 340.066 171.952 339.905 171.713C339.745 171.473 339.659 171.192 339.659 170.903C339.659 170.615 339.745 170.333 339.905 170.093C340.066 169.854 340.295 169.668 340.562 169.559L343.634 168.384C343.824 168.312 343.996 168.2 344.14 168.057C344.284 167.913 344.395 167.741 344.467 167.551L345.646 164.479C345.754 164.21 345.939 163.98 346.179 163.818C346.418 163.656 346.701 163.569 346.99 163.569C347.279 163.569 347.562 163.656 347.802 163.818C348.041 163.98 348.227 164.21 348.334 164.479Z" fill="white"/>
<path d="M176.083 299.255C176.083 299.255 82.3871 281.315 75.5673 287.063C68.7475 292.811 66.0479 305.43 79.1231 309.542C92.3097 313.69 106.491 315.978 117.258 317.756C128.026 319.534 173.752 320.947 173.752 320.947L176.083 299.255Z" fill="#03736D"/>
<path d="M307.414 234.282C310.142 232.707 311.076 229.219 309.501 226.492C307.927 223.765 304.439 222.83 301.712 224.405L280.232 236.806C277.505 238.381 276.57 241.868 278.145 244.596C279.72 247.323 283.207 248.258 285.934 246.683L307.414 234.282Z" fill="#162A4D"/>
<path d="M278.68 219.302C278.68 219.302 285.454 220.5 290.2 218.999C294.946 217.498 298.894 217.908 301.755 221.303C304.616 224.698 308.64 228.914 308.029 231.59C307.419 234.267 304.189 233.065 304.189 233.065C304.189 233.065 305.875 235.626 303.268 237.101C301.179 238.276 299.689 236.402 299.689 236.402C299.689 236.402 300.591 238.932 297.811 240.28C296.275 241.021 294.167 239.512 294.167 239.512C294.167 239.512 292.289 242.853 290.208 242.17C288.127 241.486 287.8 237.208 285.197 235.53C281.998 233.476 276.399 232.147 276.399 232.147C276.399 232.147 276.783 227.075 277.06 225.619C277.851 221.249 278.68 219.302 278.68 219.302Z" fill="#FFA397"/>
<path d="M299.163 226.088L304.174 233.08" stroke="#162A4D" stroke-width="0.768" stroke-linecap="round" stroke-linejoin="round"/>
<path d="M299.673 236.417L295.83 230.561" stroke="white" stroke-width="0.768" stroke-linecap="round" stroke-linejoin="round"/>
<path d="M213.396 207.398C213.396 207.398 205.885 196.846 198.205 185.533C190.525 174.221 182.673 162.144 173.649 159.245C155.601 153.443 144.872 178.606 164.229 198.102C183.587 217.597 196.274 231.325 204.069 233.725C211.864 236.125 278.438 240.668 278.438 240.668C278.438 240.668 277.087 225.788 281.361 216.53L213.396 207.398Z" fill="#03736D"/>
<path d="M70.0107 165.005L105.684 152.095C111.94 150.317 117.277 150.881 122.653 151.196C131.101 151.688 154.713 154.268 154.713 154.268L109.194 169.033L70.0107 165.005Z" fill="#162A4D"/>
<path d="M109.194 169.033L75.7862 164.39C74.0834 164.153 72.3496 164.284 70.7015 164.773C69.0534 165.263 67.5293 166.1 66.2318 167.228C64.9343 168.356 63.8935 169.748 63.1795 171.312C62.4656 172.876 62.095 174.575 62.0928 176.294V277.67C62.092 280.372 63.0006 282.996 64.6725 285.118C66.3443 287.241 68.6819 288.739 71.3088 289.371L112.343 299.24L109.194 169.033Z" fill="#36C196"/>
<path d="M70.0107 288.987C70.4433 289.14 70.8843 289.268 71.3317 289.371L100.312 296.34V247.615C100.312 246.122 99.804 244.674 98.8716 243.509C97.9392 242.343 96.638 241.53 95.1819 241.202L75.5787 236.794C74.9107 236.643 74.2174 236.645 73.5502 236.799C72.883 236.953 72.259 237.255 71.7243 237.683C71.1896 238.11 70.758 238.653 70.4614 239.27C70.1647 239.887 70.0107 240.563 70.0107 241.248V288.987Z" fill="#FFBA40"/>
<path d="M154.71 154.276L157.424 279.694L112.366 299.255L109.194 169.033L154.71 154.276Z" fill="#FFC550"/>
<path d="M260.256 325.11C238.418 325.878 206.173 324.783 206.112 324.922C180 297.527 163.315 292.193 183.809 324.011C169.098 323.389 138.036 320.398 117.243 317.756C113.468 310.018 111.364 295.638 111.364 295.638L189.83 262.737C189.922 262.702 250.042 306.996 260.256 325.11Z" fill="#162A4D"/>
<path d="M119.808 148.608C119.808 148.608 106.959 155.904 94.6868 164.517C82.4141 173.13 85.0868 195.621 88.3469 209.929C91.6071 224.237 111.064 299.136 111.064 299.136C111.064 299.136 170.385 302.819 198.205 270.09C198.205 270.09 186.52 240.634 186.636 209.134C186.697 192.323 185.948 179.839 181.025 166.268C177.719 157.16 166.856 154.748 166.856 154.748L119.808 148.608Z" fill="#03736D"/>
<path d="M119.808 148.608C119.808 148.608 130.894 143.754 132.188 130.79L160.462 143.378C160.462 143.378 159.191 152.79 170.446 155.908C170.446 155.923 139.115 168.088 119.808 148.608Z" fill="#FFA397"/>
<path d="M136.704 138.075C136.704 138.075 145.106 155.174 163.135 151.603C163.135 151.603 160.447 148.343 159.752 145.075L136.704 138.075Z" fill="#162A4D"/>
<path d="M175.841 102.348C175.841 102.348 181.398 125.599 170.627 141.554C159.855 157.509 138.612 146.761 132.2 130.802C125.787 114.843 130.429 104.34 130.429 104.34C130.429 104.34 162.57 96.4723 175.841 102.348Z" fill="#FFA397"/>
<path d="M180.196 112.639C182.404 112.232 184.036 111.79 184.42 107.923C184.957 102.805 180.303 102.597 180.303 102.597C180.303 102.597 180.142 106.406 180.13 107.816C180.123 109.709 180.196 112.639 180.196 112.639Z" fill="#03736D"/>
<path d="M143.52 106.71C143.52 106.71 140.567 111.072 145.156 121.686C148.55 129.523 150.274 137.184 141.953 142.675C135.064 147.222 108.05 134.941 114.72 102.098C119.819 76.9882 149.111 69.0125 167.608 79.415C187.803 90.7738 177.273 105.627 181.632 118.322C184.857 127.711 181.947 135.122 172.635 137.948C172.635 137.948 178.733 122.884 175.995 106.042C175.995 106.034 163.841 98.7264 143.52 106.71Z" fill="#162A4D"/>
<path d="M156.015 120.269C156.948 120.269 157.705 119.512 157.705 118.579C157.705 117.646 156.948 116.89 156.015 116.89C155.082 116.89 154.326 117.646 154.326 118.579C154.326 119.512 155.082 120.269 156.015 120.269Z" fill="#162A4D"/>
<path d="M173.134 120.269C174.067 120.269 174.824 119.512 174.824 118.579C174.824 117.646 174.067 116.89 173.134 116.89C172.201 116.89 171.444 117.646 171.444 118.579C171.444 119.512 172.201 120.269 173.134 120.269Z" fill="#162A4D"/>
<path d="M168.668 109.755C168.668 109.755 173.848 105.358 178.176 110.976C178.176 110.976 173.422 109.586 168.668 109.755Z" fill="#162A4D"/>
<path d="M160.474 109.755C160.474 109.755 155.293 105.358 150.962 110.984C150.962 110.976 155.72 109.586 160.474 109.755Z" fill="#162A4D"/>
<path d="M165.988 120.269C165.988 120.269 167.316 123.809 168.852 127.085C170.388 130.36 168.545 131.482 165.988 131.992" stroke="#162A4D" stroke-width="0.768" stroke-linecap="round" stroke-linejoin="round"/>
<path d="M160.474 138.847C160.474 138.847 155.232 137.518 153.039 133.325" stroke="#162A4D" stroke-width="0.768" stroke-linecap="round" stroke-linejoin="round"/>
<path d="M129.473 91.5725C127.825 93.132 126.265 94.7819 124.8 96.5145C123.94 97.5077 123.473 98.7814 123.488 100.095C123.503 101.409 123.998 102.672 124.881 103.645C125.667 104.519 126.718 105.11 127.873 105.329C129.028 105.549 130.222 105.383 131.274 104.859L132.891 104.056C133.546 103.731 134.3 103.661 135.004 103.86C135.708 104.06 136.313 104.514 136.7 105.135L137.691 106.729C137.925 107.16 138.243 107.54 138.626 107.846C139.009 108.152 139.45 108.378 139.922 108.511C140.394 108.644 140.888 108.681 141.375 108.621C141.861 108.56 142.331 108.402 142.756 108.157C149.003 104.559 163.807 97.9277 181.298 103.165C187.138 104.913 183.11 111.483 183.11 111.483C183.11 111.483 187.845 109.179 186.344 104.118C184.842 99.0566 179.75 83.9155 175.707 81.0777C167.424 75.2409 146.78 76.0704 129.473 91.5725Z" fill="#03736D"/>
<path d="M167.916 78.1747C167.037 78.0288 166.121 77.9213 165.166 77.8522L159.072 102.09C160.028 101.906 161.015 101.752 162.021 101.622L167.916 78.1747Z" fill="white"/>
<path d="M149.844 104.763C151.851 103.979 153.903 103.316 155.988 102.778L162.278 77.7677C160.34 77.7924 158.407 77.9541 156.492 78.2515L149.844 104.763Z" fill="white"/>
<path d="M176.64 112.024C176.64 112.024 177.289 127.849 171.46 140.275" stroke="white" stroke-width="0.768" stroke-linecap="round" stroke-linejoin="round"/>
<path d="M128.586 102.42C129.839 102.42 130.856 101.404 130.856 100.151C130.856 98.8977 129.839 97.8816 128.586 97.8816C127.333 97.8816 126.317 98.8977 126.317 100.151C126.317 101.404 127.333 102.42 128.586 102.42Z" fill="white"/>
<path d="M152.563 162.57C152.563 162.57 163.496 244.785 171.445 289.048" stroke="white" stroke-width="0.768" stroke-linecap="round" stroke-linejoin="round"/>
<path d="M98.231 162.109C98.231 162.109 120.346 168.146 129.611 201.896C138.877 235.645 102.033 264.161 102.033 264.161L105.742 278.569C105.742 278.569 144.119 253.574 145.152 213.247C146.185 172.919 115.503 151.196 115.503 151.196C109.02 152.911 103.191 156.51 98.7532 161.537L98.231 162.109Z" fill="#162A4D"/>
<path d="M170.446 155.923C170.446 155.923 184.504 159.11 186.067 185.192C187.749 213.247 186.635 228.764 189.846 240.28C189.846 240.28 178.18 236.006 178.18 201.078C178.176 161.28 170.446 155.923 170.446 155.923Z" fill="#162A4D"/>
<path d="M319.446 320.947C309.504 323.209 268.017 326.02 239.958 325.171C242.984 285.926 255.479 276.403 269.172 269.987C302.938 254.127 308.494 282.563 319.446 320.947Z" fill="#36C196"/>
<path d="M312.415 322.061C312.415 322.061 305.273 322.883 301.77 323.14L289.813 324.023C289.813 324.023 279.687 287.313 275.632 280.412C273.973 277.72 272.052 275.197 269.898 272.882C269.174 272.097 268.394 271.365 267.564 270.693L286.268 262.272C287.563 263.374 288.743 264.604 289.79 265.943C291.986 268.673 293.937 272.41 295.83 276.211C299.674 283.941 312.415 322.061 312.415 322.061Z" fill="white"/>
<path d="M228.48 264.687C227.05 262.125 226.643 259.116 227.342 256.266C228.041 253.416 229.794 250.937 232.247 249.327C235.861 246.927 244.124 244.09 246.071 239.601C250.095 230.346 273.074 223.231 279.306 227.213C283.461 229.866 288.799 227.635 291.686 227.393C297.362 226.925 300.553 232.385 299.462 236.94C297.631 244.62 294.47 241.613 293.626 253.359C293.372 256.984 295.231 261.976 291.076 265.037C282.755 271.181 271.258 275.194 264.68 271.473C263.055 270.555 260.586 267.203 259.304 266.316C256.186 264.165 248.552 268.213 241.958 270.182C239.437 270.943 236.732 270.821 234.288 269.837C231.845 268.854 229.81 267.067 228.518 264.772L228.48 264.687Z" fill="#36C196"/>
<path d="M259.88 261.185C257.399 260.333 249.754 263.808 241.832 266.615C236.751 268.42 231.003 267.832 228.392 264.561L228.457 264.687L228.507 264.776C229.798 267.071 231.834 268.858 234.277 269.841C236.72 270.825 239.425 270.946 241.947 270.186C248.552 268.216 256.155 264.169 259.292 266.319C260.578 267.206 263.048 270.543 264.668 271.476C266.826 272.698 269.514 273.082 272.448 272.832C265.279 271.872 265.505 263.113 259.88 261.185Z" fill="#1D7C89"/>
<path d="M235.934 265.82C238.866 264.668 240.308 261.358 239.155 258.427C238.003 255.496 234.693 254.054 231.762 255.206L208.679 264.28C205.748 265.432 204.306 268.742 205.458 271.673C206.61 274.604 209.92 276.046 212.851 274.894L235.934 265.82Z" fill="#162A4D"/>
<path d="M299.804 239.151C303.145 236.694 309.289 232.408 311.551 232.309C311.551 232.309 311.021 234.006 313.141 234.613C315.26 235.219 316.431 232.693 314.945 231.333C313.459 229.974 310.936 230.431 307.953 231.375C305.987 231.997 300.83 233.679 297.542 234.774C297.191 234.89 296.87 235.084 296.603 235.339C296.335 235.595 296.128 235.907 295.995 236.253C295.863 236.599 295.809 236.97 295.838 237.339C295.866 237.708 295.976 238.066 296.16 238.387C296.336 238.691 296.574 238.955 296.858 239.161C297.143 239.367 297.468 239.511 297.812 239.583C298.155 239.655 298.511 239.654 298.854 239.58C299.197 239.505 299.521 239.359 299.804 239.151Z" fill="#03736D"/>
<path d="M291.89 242.945L292.351 248.924C292.689 253.352 290.949 257.468 288.019 259.016L278.727 263.927C275.939 265.402 272.69 263.516 271.55 259.646L269.491 252.645C268.443 249.086 269.806 245.288 272.471 244.255L287.447 238.453C289.494 237.662 291.656 239.889 291.89 242.945Z" fill="#FFBA40"/>
<path d="M293.322 241.651C293.126 236.909 289.482 235.369 287.209 236.275L270.885 242.846C267.905 244.047 266.377 248.463 267.548 252.603L269.852 260.748C271.127 265.248 274.775 267.752 278.465 266.085" stroke="white" stroke-width="0.768" stroke-linecap="round" stroke-linejoin="round"/>
<path d="M285.585 239.179L283.976 239.801L280.98 262.737L282.62 261.869L285.585 239.179Z" fill="white"/>
<path d="M277.882 242.162L275.025 264.05C275.609 264.32 276.247 264.449 276.89 264.427C277.533 264.406 278.162 264.235 278.726 263.927L278.876 263.851L281.914 240.599L277.882 242.162Z" fill="white"/>
<path d="M310.498 275.922L266.869 293.073C265.79 293.497 265.259 294.716 265.683 295.796L271.312 310.116C271.737 311.196 272.956 311.727 274.036 311.302L317.664 294.152C318.744 293.727 319.275 292.508 318.851 291.428L313.221 277.108C312.797 276.029 311.578 275.498 310.498 275.922Z" fill="#162A4D"/>
<path d="M288.242 230.561L294.493 214.456C294.974 213.216 295.75 212.11 296.754 211.237C297.757 210.363 298.958 209.747 300.253 209.441L308.513 207.521" stroke="#162A4D" stroke-width="2.304" stroke-linecap="round" stroke-linejoin="round"/>
<path d="M321.503 212.776C324.716 207.211 323.238 200.342 318.202 197.435C313.166 194.527 306.479 196.681 303.266 202.246C300.053 207.811 301.531 214.68 306.567 217.587C311.603 220.495 318.29 218.341 321.503 212.776Z" fill="#162A4D"/>
<path d="M214.979 234.397L228.906 233.833C230.127 233.784 231.341 234.033 232.444 234.559C233.547 235.085 234.504 235.872 235.235 236.851L244.639 249.496" stroke="#162A4D" stroke-width="2.304" stroke-linecap="round" stroke-linejoin="round"/>
<path d="M223.139 239.66C226.352 234.095 224.874 227.227 219.838 224.319C214.802 221.412 208.115 223.566 204.902 229.131C201.689 234.696 203.167 241.565 208.203 244.472C213.239 247.38 219.926 245.225 223.139 239.66Z" fill="#162A4D"/>
<path d="M264.38 275.658C264.38 275.658 245.76 287.881 244.639 320.947" stroke="white" stroke-width="0.768" stroke-linecap="round" stroke-linejoin="round"/>
<path d="M197.318 244.785C197.318 244.785 206.796 248.947 214.022 249.627C221.249 250.307 227.117 248.398 229.298 254.127C231.479 259.857 235.1 265.382 233.66 268.032C232.22 270.682 228.614 268.988 228.614 268.988C228.614 268.988 228.906 271.077 227.274 271.972C225.354 273.02 223.261 271.446 223.261 271.446C223.261 271.446 223.407 273.462 221.772 274.211C220.136 274.959 218.442 273.788 218.442 273.788C218.442 273.788 218.058 275.293 216.684 275.601C216.029 275.778 215.338 275.77 214.687 275.578C214.036 275.386 213.451 275.018 212.997 274.514C212.997 274.514 216.142 272.897 215.601 268.581C214.979 263.624 208.666 264.265 208.666 264.265C208.666 264.265 205.636 269.476 200.602 268.454C195.567 267.433 192.154 263.931 186.624 262.852L197.318 244.785Z" fill="#FFA397"/>
<path d="M226.998 263.628L228.614 268.992" stroke="#162A4D" stroke-width="0.768" stroke-linecap="round" stroke-linejoin="round"/>
<path d="M223.261 271.45L221.887 266.308" stroke="#162A4D" stroke-width="0.768" stroke-linecap="round" stroke-linejoin="round"/>
<path d="M206.615 248.106C206.615 248.106 201.565 259.415 202.084 268.585C202.084 268.585 199.33 268.585 197.541 267.371C197.541 267.371 201.727 253.336 206.615 248.106Z" fill="#162A4D"/>
<path d="M223.872 275.712C223.872 275.712 225.304 276.941 224.794 278.676C224.283 280.412 219.886 280.723 219.475 277.194C219.13 274.218 235.519 263.205 240.66 259.826C241.129 259.515 241.664 259.319 242.222 259.252C242.78 259.185 243.346 259.25 243.874 259.442C244.461 259.657 244.982 260.02 245.385 260.497C245.789 260.973 246.063 261.546 246.179 262.16C246.295 262.774 246.25 263.407 246.048 263.998C245.846 264.589 245.494 265.118 245.026 265.532C243.712 266.662 242.18 267.511 240.526 268.028C233.798 270.286 227.969 271.311 223.872 275.712Z" fill="#03736D"/>
<path d="M141.439 222.524C141.439 222.524 134.166 208.128 125.422 190.08C120.353 179.639 113.234 169.885 106.257 167.996C86.6495 162.693 78.2246 185.007 95.1206 209.115C112.017 233.222 119.24 245.533 127.031 249.485C134.822 253.436 198.217 270.071 198.217 270.071C198.217 270.071 200.728 254.934 207.817 246.547L141.439 222.524Z" fill="#03736D"/>
<path d="M206.127 324.922C206.085 325.056 191.535 324.507 183.825 324.012C176.118 312.357 164.102 294.578 187.25 303.199C199.135 307.016 209.629 312.507 206.127 324.922Z" fill="#03736D"/>
<path d="M100.021 216.192L118.218 241.667C118.218 241.667 122.005 247.987 129.101 250.383C136.197 252.78 176.083 264.165 176.083 264.165" stroke="white" stroke-width="0.768" stroke-linecap="round" stroke-linejoin="round"/>
<path d="M117.888 149.76C117.888 149.76 131.931 164.287 152.129 162.616L151.054 159.744C150.641 158.639 149.953 157.659 149.054 156.895C148.156 156.131 147.077 155.611 145.92 155.382C140.79 154.376 131.435 151.599 124.8 144.142L117.888 149.76Z" fill="#03736D"/>
<path d="M152.125 162.601L152.728 159.275C152.905 158.3 153.348 157.393 154.008 156.654C154.668 155.914 155.52 155.372 156.469 155.086C159.588 154.158 162.62 152.955 165.527 151.492L171.445 156.261C171.445 156.261 165.439 161.695 152.125 162.601Z" fill="#03736D"/>
<path d="M127.872 156.956C127.872 156.956 143.942 168.426 165.999 159.199" stroke="white" stroke-width="0.768" stroke-linecap="round" stroke-linejoin="round"/>
<path d="M312.776 148.024L287.9 109.079H352.739L327.863 148.024C327.054 149.291 325.939 150.334 324.62 151.056C323.302 151.779 321.823 152.157 320.319 152.157C318.816 152.157 317.337 151.779 316.019 151.056C314.7 150.334 313.585 149.291 312.776 148.024Z" fill="#03736D"/>
<path d="M320.321 127.357C341.238 127.357 358.195 110.401 358.195 89.4835C358.195 68.5664 341.238 51.6096 320.321 51.6096C299.404 51.6096 282.447 68.5664 282.447 89.4835C282.447 110.401 299.404 127.357 320.321 127.357Z" fill="#03736D"/>
<path d="M320.321 103.738C328.194 103.738 334.575 97.3559 334.575 89.4836C334.575 81.6113 328.194 75.2295 320.321 75.2295C312.449 75.2295 306.067 81.6113 306.067 89.4836C306.067 97.3559 312.449 103.738 320.321 103.738Z" fill="white"/>
</svg>
