<svg width="20" height="20" viewBox="0 0 20 20" fill="none" xmlns="http://www.w3.org/2000/svg">
<g clip-path="url(#clip0_548_38164)">
<path d="M0 9.99998C0 4.49999 4.49997 0 9.99994 0C15.4999 0 19.9999 4.49999 19.9999 9.99998C19.9999 15.5 15.4999 20 9.99994 20C4.49997 20 0 15.5 0 9.99998ZM10.1874 4.99999C8.81245 4.99999 8.62495 4.99999 8.06245 4.99999C7.49995 5.06249 7.12496 5.12499 6.81246 5.24999C6.49996 5.37499 6.18746 5.56249 5.87496 5.87499C5.56247 6.18749 5.37497 6.43749 5.24997 6.81249C5.12497 7.12499 4.99997 7.49998 4.99997 8.06248C4.99997 8.62498 4.99997 8.74998 4.99997 10.1875C4.99997 11.625 4.99997 11.8125 5.06247 12.375C5.06247 12.9375 5.18747 13.3125 5.31247 13.625C5.43747 13.9375 5.62497 14.25 5.93746 14.5625C6.18746 14.8125 6.49996 15 6.87496 15.1875C7.18746 15.3125 7.56245 15.4375 8.12495 15.4375C8.68745 15.4375 8.87495 15.5 10.2499 15.5C11.6874 15.5 11.8749 15.5 12.4374 15.4375C12.9999 15.375 13.3749 15.3125 13.6874 15.1875C13.9999 15.0625 14.3124 14.875 14.6249 14.5625C14.9374 14.25 15.1249 14 15.2499 13.625C15.3749 13.3125 15.4999 12.875 15.4999 12.375C15.5624 11.8125 15.5624 11.625 15.5624 10.1875C15.5624 8.74998 15.5624 8.62498 15.4999 8.06248C15.4999 7.49998 15.3749 7.12499 15.2499 6.81249C15.1249 6.43749 14.9374 6.18749 14.6249 5.87499C14.3749 5.62499 14.0624 5.43749 13.6874 5.24999C13.3749 5.12499 12.9374 5.06249 12.4374 4.99999C11.8124 4.99999 11.6249 4.99999 10.1874 4.99999ZM9.74994 5.93749C9.87494 5.93749 10.0624 5.93749 10.1874 5.93749C11.5624 5.93749 11.7499 5.93749 12.3124 5.93749C12.8124 5.93749 13.0624 6.06249 13.2499 6.12499C13.4999 6.24999 13.6874 6.37499 13.8749 6.49999C14.0624 6.62499 14.1874 6.81249 14.2499 7.12499C14.3124 7.31248 14.4374 7.56248 14.4374 8.06248C14.4999 8.62498 14.4999 8.81248 14.4999 10.1875C14.4999 11.5625 14.4999 11.75 14.4374 12.3125C14.4374 12.8125 14.3124 13.125 14.2499 13.3125C14.1874 13.5625 14.0624 13.6875 13.8749 13.9375C13.6874 14.125 13.4999 14.1875 13.2499 14.3125C13.0624 14.375 12.8124 14.5 12.3124 14.5C11.7499 14.5 11.5624 14.5625 10.1874 14.5625C8.81245 14.5625 8.62495 14.5625 8.06245 14.5C7.56245 14.5 7.31246 14.375 7.12496 14.3125C6.87496 14.1875 6.68746 14.125 6.49996 13.9375C6.31246 13.75 6.18746 13.5625 6.12496 13.3125C6.06246 13.125 5.99996 12.875 5.93746 12.3125C5.93746 11.75 5.93746 11.625 5.93746 10.1875C5.93746 8.81248 5.93746 8.62498 5.93746 8.06248C5.99996 7.56248 6.06246 7.31248 6.12496 7.12499C6.24996 6.87499 6.37496 6.68749 6.49996 6.49999C6.62496 6.31249 6.87496 6.18749 7.12496 6.12499C7.31246 6.06249 7.56245 5.93749 8.06245 5.93749C8.56245 5.93749 8.74995 5.93749 9.74994 5.93749ZM12.9999 6.81249C12.6874 6.81249 12.3749 7.06249 12.3749 7.43748C12.3749 7.81248 12.6249 8.06248 12.9999 8.06248C13.3749 8.06248 13.6249 7.81248 13.6249 7.43748C13.6249 7.06249 13.3124 6.81249 12.9999 6.81249ZM10.1874 7.49998C8.74995 7.49998 7.49995 8.68748 7.49995 10.1875C7.49995 11.6875 8.68745 12.875 10.1874 12.875C11.6874 12.875 12.8749 11.6875 12.8749 10.1875C12.8749 8.68748 11.6874 7.49998 10.1874 7.49998ZM10.1874 8.43748C11.1249 8.43748 11.9374 9.18748 11.9374 10.1875C11.9374 11.1875 11.1874 11.9375 10.1874 11.9375C9.24994 11.9375 8.43745 11.1875 8.43745 10.1875C8.43745 9.18748 9.24994 8.43748 10.1874 8.43748Z" fill="white"/>
</g>
<defs>
<clipPath id="clip0_548_38164">
<rect width="19.9999" height="20" fill="white"/>
</clipPath>
</defs>
</svg>
