<svg width="188" height="188" viewBox="0 0 188 188" fill="none" xmlns="http://www.w3.org/2000/svg">
<g filter="url(#filter0_d_1002_56655)">
<rect x="8" y="8" width="159.355" height="160" rx="15.975" fill="#03736D" shape-rendering="crispEdges"/>
<path d="M24.0389 102.062H151.366C151.371 102.098 151.374 102.133 151.379 102.168C150.748 102.24 150.118 102.313 149.487 102.385C149.487 102.402 149.487 102.417 149.488 102.433H150.798C150.799 102.462 150.801 102.491 150.802 102.521C149.496 102.663 148.19 102.809 146.884 102.944C143.693 103.273 140.502 103.601 137.311 103.922C135.043 104.151 132.773 104.364 130.505 104.594C127.775 104.873 125.048 105.172 122.318 105.447C120.009 105.679 117.698 105.886 115.389 106.109C112.899 106.348 110.409 106.608 107.919 106.831C105.708 107.031 103.495 107.198 101.281 107.37C98.6475 107.573 96.0135 107.777 93.3783 107.957C91.6672 108.075 89.9525 108.163 88.2389 108.245C84.7306 108.414 81.2223 108.57 77.7139 108.729C76.6055 108.779 75.4959 108.845 74.3863 108.859C67.3369 108.948 60.2875 109.064 53.2381 109.091C49.7456 109.103 46.2482 109.025 42.7604 108.841C39.2169 108.655 35.6771 108.346 32.1482 107.975C30.0623 107.756 27.9971 107.314 26.1114 106.261C24.6161 105.427 23.7199 103.644 24.0389 102.062Z" fill="white"/>
<path d="M124.47 93.5263C124.494 93.2828 124.707 93.101 124.951 93.1121C131.812 93.4218 135.848 93.4118 142.713 93.1107C142.951 93.1003 143.16 93.2727 143.191 93.5088C143.463 95.6192 143.466 96.961 143.186 99.0828C143.157 99.2983 142.978 99.464 142.761 99.4791C135.922 99.9557 131.885 99.9846 124.89 99.4803C124.672 99.4645 124.493 99.2967 124.467 99.0797C124.213 96.9656 124.265 95.6256 124.47 93.5263Z" fill="white"/>
<path d="M124.529 79.3973C124.547 79.1491 124.762 78.9605 125.01 78.9717C131.822 79.2789 135.837 79.2693 142.647 78.9713C142.897 78.9603 143.113 79.1526 143.127 79.4031C143.252 81.6408 143.264 82.9839 143.13 84.8849C143.114 85.1135 142.928 85.2942 142.699 85.3076C135.913 85.7062 131.893 85.7205 124.946 85.3069C124.724 85.2938 124.542 85.1235 124.518 84.9032C124.297 82.8579 124.377 81.5095 124.529 79.3973Z" fill="white"/>
<path d="M123.829 83.5463C124.371 83.4605 124.7 83.4374 124.973 83.6562L125.83 84.4993C126.147 84.8111 125.978 85.3366 125.534 85.3335C125.105 85.3306 124.577 85.2841 123.815 85.1829C123.629 85.1582 123.464 85.0406 123.4 84.8644C123.251 84.456 123.261 84.1603 123.473 83.7827C123.547 83.6521 123.681 83.5698 123.829 83.5463Z" fill="white"/>
<path d="M143.82 83.5456C143.329 83.4664 143.014 83.4435 142.716 83.6297C142.689 83.6466 142.664 83.6673 142.642 83.6896L141.801 84.5165C141.488 84.8249 141.65 85.3406 142.089 85.3359C142.509 85.3315 143.043 85.2839 143.832 85.1819C144.019 85.1577 144.184 85.0399 144.249 84.8628C144.397 84.4548 144.387 84.1593 144.175 83.7817C144.101 83.6517 143.967 83.5694 143.82 83.5456Z" fill="white"/>
<path d="M124.498 72.8364C124.533 72.3336 124.947 71.9403 125.451 71.9277C131.366 71.7795 135.306 71.7574 142.199 71.9276C142.708 71.9402 143.125 72.3411 143.151 72.8493C143.244 74.6539 143.254 75.8834 143.16 77.431C143.13 77.9195 142.735 78.3053 142.246 78.3333C135.871 78.698 131.909 78.7102 125.379 78.3317C124.906 78.3044 124.518 77.9416 124.475 77.4704C124.322 75.7977 124.377 74.5592 124.498 72.8364Z" fill="white"/>
<path d="M123.829 76.5456C124.371 76.4598 124.7 76.4367 124.973 76.6554L125.83 77.4985C126.147 77.8104 125.978 78.3358 125.534 78.3328C125.105 78.3298 124.577 78.2833 123.815 78.1821C123.629 78.1575 123.464 78.0399 123.4 77.8636C123.251 77.4552 123.261 77.1596 123.473 76.782C123.547 76.6514 123.681 76.569 123.829 76.5456Z" fill="white"/>
<path d="M143.82 76.5452C143.329 76.4659 143.014 76.443 142.716 76.6292C142.689 76.6461 142.664 76.6668 142.642 76.6891L141.801 77.516C141.488 77.8245 141.65 78.3401 142.089 78.3354C142.509 78.331 143.043 78.2834 143.832 78.1814C144.019 78.1572 144.184 78.0395 144.249 77.8624C144.397 77.4543 144.387 77.1588 144.175 76.7812C144.101 76.6512 143.967 76.5689 143.82 76.5452Z" fill="white"/>
<path d="M124.529 86.3978C124.547 86.1496 124.762 85.961 125.01 85.9722C131.822 86.2794 135.837 86.2698 142.647 85.9718C142.897 85.9608 143.113 86.1531 143.127 86.4035C143.252 88.6413 143.264 89.9843 143.13 91.8854C143.114 92.114 142.928 92.2947 142.699 92.3081C135.913 92.7067 131.893 92.721 124.946 92.3074C124.724 92.2943 124.542 92.124 124.518 91.9037C124.297 89.8584 124.377 88.51 124.529 86.3978Z" fill="white"/>
<path d="M123.829 90.5465C124.371 90.4607 124.7 90.4377 124.973 90.6564L125.83 91.4995C126.147 91.8114 125.978 92.3368 125.534 92.3338C125.105 92.3308 124.577 92.2843 123.815 92.1831C123.629 92.1584 123.464 92.0409 123.4 91.8646C123.251 91.4562 123.261 91.1606 123.473 90.783C123.547 90.6524 123.681 90.57 123.829 90.5465Z" fill="white"/>
<path d="M124.11 97.7487C124.651 97.6629 124.98 97.6398 125.253 97.8585L126.11 98.7016C126.427 99.0135 126.259 99.539 125.814 99.5359C125.385 99.533 124.858 99.4865 124.095 99.3853C123.909 99.3606 123.745 99.243 123.681 99.0668C123.532 98.6583 123.541 98.3627 123.753 97.9851C123.827 97.8545 123.962 97.7721 124.11 97.7487Z" fill="white"/>
<path d="M143.82 90.5461C143.329 90.4669 143.014 90.444 142.716 90.6302C142.689 90.6471 142.664 90.6678 142.642 90.6901L141.801 91.517C141.488 91.8254 141.65 92.3411 142.089 92.3364C142.509 92.3319 143.043 92.2844 143.832 92.1824C144.019 92.1582 144.184 92.0404 144.249 91.8633C144.397 91.4553 144.387 91.1598 144.175 90.7821C144.101 90.6522 143.967 90.5699 143.82 90.5461Z" fill="white"/>
<path d="M143.732 97.7444C143.241 97.6652 142.926 97.6422 142.628 97.8285C142.601 97.8453 142.576 97.866 142.554 97.8883L141.713 98.7152C141.4 99.0237 141.562 99.5393 142.002 99.5346C142.421 99.5302 142.956 99.4826 143.744 99.3806C143.931 99.3564 144.096 99.2387 144.161 99.0616C144.309 98.6536 144.299 98.358 144.087 97.9804C144.013 97.8504 143.879 97.7681 143.732 97.7444Z" fill="white"/>
<path fill-rule="evenodd" clip-rule="evenodd" d="M138.936 75.7286H128.575V70.2682C128.575 68.4124 130.08 66.908 131.935 66.908H135.576C137.432 66.908 138.936 68.4124 138.936 70.2682V75.7286ZM131.935 68.4481C130.93 68.4481 130.115 69.263 130.115 70.2682V74.1885H137.396V70.2682C137.396 69.263 136.581 68.4481 135.576 68.4481H131.935Z" fill="white"/>
<g style="mix-blend-mode:darken">
<rect x="139.775" y="71.8081" width="2.24016" height="28.002" fill="#D9D9D9"/>
</g>
<g style="mix-blend-mode:darken">
<rect x="138.936" y="71.8081" width="0.560041" height="28.002" fill="#D9D9D9"/>
</g>
<g style="mix-blend-mode:darken">
<rect x="136.999" y="71.8782" width="0.28002" height="28.002" fill="#D9D9D9"/>
</g>
<path d="M36.1876 97.1914C34.7797 97.1914 33.4209 97.0195 32.1113 96.6758C30.818 96.3156 29.762 95.8572 28.9435 95.3006L30.5397 91.7154C31.3091 92.2065 32.1931 92.6158 33.1917 92.9432C34.2067 93.2543 35.2135 93.4098 36.2122 93.4098C36.8834 93.4098 37.4236 93.3525 37.8329 93.2379C38.2421 93.1069 38.5368 92.9432 38.7169 92.7468C38.9133 92.5339 39.0116 92.2884 39.0116 92.0101C39.0116 91.6172 38.8315 91.3061 38.4713 91.0769C38.1112 90.8477 37.6446 90.6595 37.0716 90.5121C36.4986 90.3648 35.8602 90.2175 35.1562 90.0701C34.4687 89.9228 33.7729 89.7345 33.069 89.5053C32.3814 89.2761 31.7511 88.9815 31.1781 88.6213C30.6051 88.2448 30.1386 87.7618 29.7784 87.1725C29.4183 86.5668 29.2382 85.8055 29.2382 84.8888C29.2382 83.8574 29.5165 82.9243 30.0731 82.0894C30.6461 81.2544 31.4974 80.5832 32.6269 80.0757C33.7565 79.5682 35.1644 79.3145 36.8506 79.3145C37.9802 79.3145 39.0852 79.4455 40.1657 79.7074C41.2626 79.953 42.2366 80.3213 43.0879 80.8124L41.59 84.4222C40.7714 83.9802 39.9611 83.6528 39.1589 83.4399C38.3567 83.2108 37.5791 83.0962 36.8261 83.0962C36.1549 83.0962 35.6146 83.1698 35.2053 83.3172C34.7961 83.4481 34.5014 83.6282 34.3213 83.8574C34.1412 84.0866 34.0512 84.3485 34.0512 84.6432C34.0512 85.0197 34.2231 85.3226 34.5669 85.5518C34.927 85.7646 35.3936 85.9447 35.9666 86.092C36.5559 86.223 37.1944 86.3621 37.882 86.5095C38.5859 86.6568 39.2817 86.8451 39.9693 87.0743C40.6732 87.2871 41.3117 87.5818 41.8846 87.9583C42.4576 88.3185 42.916 88.8014 43.2598 89.4071C43.62 89.9965 43.8 90.7413 43.8 91.6417C43.8 92.6404 43.5135 93.5653 42.9406 94.4166C42.384 95.2515 41.5409 95.9227 40.4113 96.4302C39.2981 96.9377 37.8902 97.1914 36.1876 97.1914ZM51.7676 97.0687C50.065 97.0687 48.739 96.6512 47.7895 95.8163C46.84 94.965 46.3652 93.6881 46.3652 91.9855V80.5669H51.0309V91.9364C51.0309 92.4112 51.1619 92.7877 51.4238 93.066C51.6857 93.3279 52.0213 93.4589 52.4306 93.4589C52.9872 93.4589 53.462 93.3197 53.8549 93.0414L55.009 96.3074C54.6161 96.5694 54.1332 96.7576 53.5602 96.8722C52.9872 97.0032 52.3897 97.0687 51.7676 97.0687ZM44.4253 87.5163V84.0293H54.0759V87.5163H44.4253ZM62.4069 97.0687C61.3265 97.0687 60.3524 96.8558 59.4848 96.4302C58.6335 96.0046 57.9623 95.3415 57.4711 94.4411C56.9964 93.5244 56.759 92.3702 56.759 90.9787V83.5382H61.4247V90.2175C61.4247 91.2488 61.613 91.9855 61.9895 92.4275C62.3824 92.8695 62.9308 93.0906 63.6348 93.0906C64.0931 93.0906 64.5106 92.9841 64.8871 92.7713C65.2637 92.5585 65.5665 92.2229 65.7957 91.7645C66.0249 91.2898 66.1395 90.684 66.1395 89.9474V83.5382H70.8052V96.8477H66.3605V93.0906L67.22 94.1465C66.7616 95.1287 66.0986 95.8654 65.2309 96.3565C64.3633 96.8313 63.4219 97.0687 62.4069 97.0687ZM74.3507 96.8477V83.6855C74.3507 82.0812 74.8254 80.8042 75.7749 79.8547C76.7408 78.8889 78.116 78.4059 79.9004 78.4059C80.4734 78.4059 81.0382 78.4632 81.5948 78.5778C82.1514 78.6924 82.6179 78.8643 82.9945 79.0935L81.8403 82.384C81.6439 82.2694 81.4229 82.1794 81.1773 82.1139C80.9318 82.0321 80.6862 81.9911 80.4406 81.9911C79.9495 81.9911 79.5648 82.1385 79.2865 82.4331C79.0246 82.7114 78.8936 83.1453 78.8936 83.7346V84.6923L79.0164 86.6323V96.8477H74.3507ZM72.4107 87.5163V84.0293H82.0613V87.5163H72.4107ZM84.3267 96.8477V83.6855C84.3267 82.0812 84.8014 80.8042 85.7509 79.8547C86.7168 78.8889 88.0919 78.4059 89.8764 78.4059C90.4493 78.4059 91.0141 78.4632 91.5707 78.5778C92.1274 78.6924 92.5939 78.8643 92.9705 79.0935L91.8163 82.384C91.6199 82.2694 91.3989 82.1794 91.1533 82.1139C90.9077 82.0321 90.6622 81.9911 90.4166 81.9911C89.9255 81.9911 89.5408 82.1385 89.2625 82.4331C89.0005 82.7114 88.8696 83.1453 88.8696 83.7346V84.6923L88.9923 86.6323V96.8477H84.3267ZM82.3867 87.5163V84.0293H92.0373V87.5163H82.3867ZM94.1737 96.8477V83.5382H98.8394V96.8477H94.1737ZM96.5066 82.0648C95.6553 82.0648 94.9677 81.8274 94.4438 81.3527C93.92 80.8779 93.658 80.2886 93.658 79.5846C93.658 78.8807 93.92 78.2913 94.4438 77.8166C94.9677 77.3418 95.6553 77.1044 96.5066 77.1044C97.3578 77.1044 98.0454 77.3336 98.5693 77.792C99.0931 78.234 99.3551 78.807 99.3551 79.5109C99.3551 80.2476 99.0931 80.8615 98.5693 81.3527C98.0618 81.8274 97.3742 82.0648 96.5066 82.0648ZM110.536 83.3172C111.568 83.3172 112.501 83.53 113.336 83.9556C114.171 84.3649 114.825 85.0034 115.3 85.871C115.791 86.7387 116.037 87.8601 116.037 89.2352V96.8477H111.371V89.9965C111.371 89.047 111.175 88.3594 110.782 87.9337C110.405 87.4917 109.873 87.2707 109.186 87.2707C108.695 87.2707 108.244 87.3853 107.835 87.6145C107.426 87.8273 107.107 88.1629 106.877 88.6213C106.648 89.0797 106.534 89.6772 106.534 90.4139V96.8477H101.868V83.5382H106.313V87.3198L105.453 86.2148C105.961 85.2489 106.656 84.5286 107.54 84.0539C108.424 83.5627 109.423 83.3172 110.536 83.3172Z" fill="white"/>
<rect x="7.5" y="7.5" width="160.355" height="161" rx="16.475" stroke="white" stroke-opacity="0.4" shape-rendering="crispEdges"/>
</g>
<defs>
<filter id="filter0_d_1002_56655" x="0" y="0" width="187.354" height="188" filterUnits="userSpaceOnUse" color-interpolation-filters="sRGB">
<feFlood flood-opacity="0" result="BackgroundImageFix"/>
<feColorMatrix in="SourceAlpha" type="matrix" values="0 0 0 0 0 0 0 0 0 0 0 0 0 0 0 0 0 0 127 0" result="hardAlpha"/>
<feOffset dx="6" dy="6"/>
<feGaussianBlur stdDeviation="6.5"/>
<feComposite in2="hardAlpha" operator="out"/>
<feColorMatrix type="matrix" values="0 0 0 0 0 0 0 0 0 0.350833 0 0 0 0 0.332039 0 0 0 1 0"/>
<feBlend mode="normal" in2="BackgroundImageFix" result="effect1_dropShadow_1002_56655"/>
<feBlend mode="normal" in="SourceGraphic" in2="effect1_dropShadow_1002_56655" result="shape"/>
</filter>
</defs>
</svg>
