<svg width="40" height="56" viewBox="0 0 40 56" fill="none" xmlns="http://www.w3.org/2000/svg">
<g clip-path="url(#clip0_548_37849)">
<path d="M34.14 13.8557C26.3284 6.04641 13.665 6.04828 5.85573 13.86C-1.95356 21.6717 -1.95169 34.335 5.86003 42.1443C13.6717 49.9536 26.335 49.9517 34.1443 42.14C37.8948 38.3884 40.0012 33.3005 40 27.9957C39.9989 22.6918 37.891 17.6055 34.14 13.8557ZM30.2893 35.8598C30.2885 35.8606 30.2876 35.8616 30.2867 35.8624V35.8558L29.2733 36.8624C27.9628 38.1895 26.0541 38.7355 24.24 38.3024C22.4122 37.8132 20.6747 37.0345 19.0933 35.9958C17.6241 35.0568 16.2625 33.9591 15.0333 32.7224C13.9023 31.5997 12.8862 30.3669 12 29.0424C11.0306 27.6173 10.2633 26.0648 9.71995 24.4291C9.09706 22.5075 9.61323 20.399 11.0533 18.9824L12.24 17.7958C12.5699 17.4644 13.106 17.4632 13.4373 17.7931C13.4382 17.794 13.4391 17.7948 13.44 17.7958L17.1866 21.5424C17.518 21.8723 17.5192 22.4084 17.1892 22.7398C17.1884 22.7406 17.1875 22.7415 17.1866 22.7424L14.9866 24.9424C14.3553 25.5668 14.276 26.559 14.8 27.2758C15.5957 28.3678 16.4762 29.3954 17.4333 30.3491C18.5004 31.4209 19.6605 32.3958 20.9 33.2625C21.6161 33.762 22.5871 33.6778 23.2066 33.0625L25.3332 30.9025C25.6632 30.5711 26.1992 30.5699 26.5306 30.8998C26.5314 30.9007 26.5323 30.9016 26.5332 30.9025L30.2866 34.6625C30.6181 34.9923 30.6192 35.5284 30.2893 35.8598Z" fill="#03736D"/>
</g>
<defs>
<clipPath id="clip0_548_37849">
<rect width="40" height="40" fill="white" transform="translate(0 8)"/>
</clipPath>
</defs>
</svg>
