<svg width="64" height="19" viewBox="0 0 64 19" fill="none" xmlns="http://www.w3.org/2000/svg">
<g id="Pill">
<rect id="Rectangle 3" x="0.918945" y="0.796875" width="62.4925" height="18.1023" rx="9.05117" fill="#2D2D2D"/>
<g id="Group 12">
<path id="Ellipse 1" d="M51.9207 13.3105C53.8388 13.3105 55.4625 11.7974 55.4625 9.84741C55.4625 7.89741 53.8388 6.38435 51.9207 6.38435C50.0027 6.38435 48.379 7.89741 48.379 9.84741C48.379 11.7974 50.0027 13.3105 51.9207 13.3105Z" fill="url(#paint0_linear_1024_57495)" fill-opacity="0.38" stroke="#0B0C0F" stroke-width="2.36118"/>
<g id="Vector 1" filter="url(#filter0_f_1024_57495)">
<path d="M52.5615 8.06128C52.707 8.03065 52.898 7.99408 53.1917 8.05033C53.4043 8.09106 53.5862 8.22125 53.7316 8.3817C53.8234 8.48315 53.8986 8.59861 53.9541 8.72373L54.0579 8.95782C54.1383 9.13901 54.1937 9.33027 54.2227 9.52636C54.2619 9.79114 54.2522 10.0608 54.1943 10.3221L54.1276 10.6229L54.1174 10.6523C54.0267 10.9152 53.8166 11.1193 53.5512 11.2024L53.4339 11.2417C53.191 11.3232 52.9262 11.3092 52.6934 11.2024L52.2505 10.9211C52.0324 10.7826 51.8828 10.5584 51.8385 10.3038C51.8225 10.2119 51.7921 10.1219 51.7492 10.0389C51.6569 9.86023 51.6232 9.6545 51.6551 9.45592L51.7254 9.01844C51.7384 8.93781 51.7589 8.85858 51.7867 8.78178L51.8573 8.58646C51.9192 8.41529 52.0411 8.2724 52.2004 8.18431C52.3117 8.12274 52.437 8.08749 52.5615 8.06128Z" fill="url(#paint1_radial_1024_57495)"/>
</g>
<g id="Vector 2" filter="url(#filter1_f_1024_57495)">
<path d="M50.4099 8.20037L50.1757 8.4132C50.1283 8.45627 50.0857 8.50422 50.0484 8.55628L50.0388 8.56962C50.01 8.60987 49.9772 8.64713 49.941 8.68086C49.9052 8.71419 49.8779 8.75562 49.8614 8.80167L49.8435 8.85159C49.836 8.87272 49.8234 8.89173 49.807 8.90703C49.7877 8.92496 49.7739 8.94795 49.7671 8.97338L49.738 9.08175C49.728 9.1187 49.7139 9.15438 49.6958 9.18808C49.6777 9.22178 49.6635 9.25746 49.6536 9.29441L49.6141 9.44169L49.6012 9.5088C49.5735 9.65386 49.5596 9.80122 49.5596 9.9489V10.0942C49.5596 10.132 49.5689 10.1692 49.5868 10.2025C49.6047 10.2358 49.6141 10.273 49.6141 10.3108V10.353C49.6141 10.3878 49.6186 10.4224 49.6276 10.456L49.6431 10.5135C49.66 10.5765 49.6841 10.6373 49.715 10.6948L49.7775 10.8112L49.8221 10.9102C49.8647 11.0049 49.9234 11.0915 49.9955 11.1662L50.0247 11.1895C50.1464 11.2866 50.3253 11.2596 50.4138 11.1315C50.4486 11.081 50.4999 11.044 50.5587 11.0269C50.6387 11.0037 50.7032 10.9445 50.733 10.8667L50.7915 10.714C50.8176 10.646 50.831 10.5738 50.831 10.501V10.169V9.72688V9.58488C50.831 9.47036 50.8558 9.3572 50.9036 9.25316C50.9515 9.14912 50.9763 9.03595 50.9763 8.92143V8.65311V8.40046V8.28206C50.9763 8.19896 50.932 8.12216 50.8601 8.08049C50.7961 8.04338 50.7183 8.03889 50.6504 8.06839L50.5394 8.11666C50.4919 8.13729 50.4482 8.16557 50.4099 8.20037Z" fill="url(#paint2_radial_1024_57495)"/>
</g>
</g>
</g>
<defs>
<filter id="filter0_f_1024_57495" x="50.6991" y="7.07653" width="4.49148" height="5.16189" filterUnits="userSpaceOnUse" color-interpolation-filters="sRGB">
<feFlood flood-opacity="0" result="BackgroundImageFix"/>
<feBlend mode="normal" in="SourceGraphic" in2="BackgroundImageFix" result="shape"/>
<feGaussianBlur stdDeviation="0.472235" result="effect1_foregroundBlur_1024_57495"/>
</filter>
<filter id="filter1_f_1024_57495" x="48.6151" y="7.10485" width="3.30544" height="5.08767" filterUnits="userSpaceOnUse" color-interpolation-filters="sRGB">
<feFlood flood-opacity="0" result="BackgroundImageFix"/>
<feBlend mode="normal" in="SourceGraphic" in2="BackgroundImageFix" result="shape"/>
<feGaussianBlur stdDeviation="0.472235" result="effect1_foregroundBlur_1024_57495"/>
</filter>
<linearGradient id="paint0_linear_1024_57495" x1="51.7109" y1="11.5212" x2="51.6618" y2="8.57932" gradientUnits="userSpaceOnUse">
<stop offset="0.0381927" stop-color="#112D71"/>
<stop offset="1" stop-color="#1D2D4B"/>
</linearGradient>
<radialGradient id="paint1_radial_1024_57495" cx="0" cy="0" r="1" gradientUnits="userSpaceOnUse" gradientTransform="translate(52.6866 9.28058) rotate(81.5883) scale(1.75895 1.06987)">
<stop stop-color="#1D7EFF"/>
<stop offset="0.728416" stop-color="#153864"/>
</radialGradient>
<radialGradient id="paint2_radial_1024_57495" cx="0" cy="0" r="1" gradientUnits="userSpaceOnUse" gradientTransform="translate(50.4859 8.83303) rotate(103.297) scale(2.60594 0.834406)">
<stop stop-color="#1D7EFF"/>
<stop offset="1" stop-color="#153864"/>
</radialGradient>
</defs>
</svg>
