<svg width="20" height="20" viewBox="0 0 20 20" fill="none" xmlns="http://www.w3.org/2000/svg">
<g clip-path="url(#clip0_548_38167)">
<path d="M0 9.99998C0 4.49999 4.49997 0 9.99994 0C15.4999 0 19.9999 4.49999 19.9999 9.99998C19.9999 15.5 15.4999 20 9.99994 20C4.49997 20 0 15.5 0 9.99998ZM10.0624 8.12498V8.49998L9.68744 8.43748C8.31245 8.24998 7.12496 7.68748 6.12496 6.68749L5.62497 6.18749L5.49997 6.56249C5.24997 7.37498 5.37497 8.24998 5.93746 8.81248C6.24996 9.12498 6.18746 9.18748 5.68747 8.99998C5.49997 8.93748 5.37497 8.87498 5.31247 8.93748C5.24997 8.99998 5.43747 9.68748 5.56247 9.93748C5.74997 10.3125 6.18746 10.6875 6.56246 10.875L6.93746 11.0625H6.49996C6.06246 11.0625 6.06246 11.0625 6.12496 11.25C6.31246 11.75 6.87496 12.25 7.56245 12.5L7.99995 12.6875L7.62495 12.9375C6.99996 13.3125 6.31246 13.5 5.62497 13.5C5.31247 13.5 4.99997 13.5625 4.99997 13.5625C4.99997 13.625 5.93746 14.0625 6.43746 14.25C8.06245 14.75 9.93744 14.5 11.3749 13.6875C12.3749 13.0625 13.3749 11.875 13.8749 10.75C14.1249 10.125 14.3749 8.99998 14.3749 8.49998C14.3749 8.18748 14.4374 8.12498 14.8124 7.68748C15.0624 7.43748 15.3124 7.18749 15.3124 7.06249C15.3749 6.93749 15.3749 6.93749 14.9999 7.06249C14.3749 7.31248 14.2499 7.24998 14.6249 6.87499C14.8749 6.62499 15.1249 6.18749 15.1249 6.06249C15.1249 6.06249 14.9999 6.06249 14.8749 6.12499C14.7499 6.18749 14.4374 6.31249 14.1874 6.37499L13.8124 6.49999L13.4999 6.24999C13.3124 6.12499 12.9999 5.93749 12.8749 5.93749C12.4999 5.81249 11.9374 5.81249 11.5624 5.99999C10.5624 6.24999 9.99994 7.18749 10.0624 8.12498Z" fill="white"/>
</g>
<defs>
<clipPath id="clip0_548_38167">
<rect width="19.9999" height="20" fill="white"/>
</clipPath>
</defs>
</svg>
