<svg width="30" height="30" viewBox="0 0 30 30" fill="none" xmlns="http://www.w3.org/2000/svg">
<g clip-path="url(#clip0_548_24645)">
<path d="M25.7137 4.07141H4.28516V25.5H25.7137V4.07141Z" fill="#ECEFF1"/>
<path d="M14.9995 17.0392L25.7138 25.5V8.79639L14.9995 17.0392Z" fill="#CFD8DC"/>
<path d="M26.6067 4.07141H25.7139L14.9996 12.5321L4.2853 4.07141H3.39244C1.91387 4.07141 0.713867 5.27141 0.713867 6.74998V22.8214C0.713867 24.3 1.91387 25.5 3.39244 25.5H4.2853V8.79641L14.9996 17.0375L25.7139 8.79463V25.5H26.6067C28.0853 25.5 29.2853 24.3 29.2853 22.8214V6.74998C29.2853 5.27141 28.0853 4.07141 26.6067 4.07141Z" fill="#03736D"/>
</g>
<defs>
<clipPath id="clip0_548_24645">
<rect width="28.5714" height="28.5714" fill="white" transform="translate(0.713867 0.5)"/>
</clipPath>
</defs>
</svg>
