<svg width="771" height="621" viewBox="0 0 771 621" fill="none" xmlns="http://www.w3.org/2000/svg">
<path fill-rule="evenodd" clip-rule="evenodd" d="M637.417 276.237C699.49 403.099 610.066 547.061 411.301 548.215C212.535 549.368 -14.8027 511.672 31.4135 379.953C77.6297 248.233 251.26 379.224 344.649 274.161C438.038 169.099 575.344 149.375 637.417 276.237Z" fill="#03736D" fill-opacity="0.25"/>
<path fill-rule="evenodd" clip-rule="evenodd" d="M687.898 352.109L670.205 347.444C664.917 346.05 661.556 340.863 662.444 335.467V335.467C663.118 331.374 661.343 327.264 657.902 324.947L653.217 321.795C649.087 319.015 648.355 312.778 651.029 308.579V308.579C652.944 305.573 653.08 303.085 651.195 300.06V300.06C648.387 295.555 649.55 288.815 654.286 286.416L656.526 285.282C661.534 282.745 667.65 284.542 670.491 289.384L671.537 291.168C673.175 293.959 676.387 295.425 679.569 294.832V294.832C684.151 293.978 688.431 297.369 688.648 302.025L689.11 311.923C689.282 315.601 692.473 318.401 696.142 318.093V318.093C701.403 317.651 704.965 323.339 702.271 327.88L687.898 352.109Z" fill="url(#paint0_linear_635_2059)"/>
<path d="M671.271 590.655L693.104 353.072L666.811 309.191" stroke="#18233D" stroke-width="1.26809" stroke-linecap="round"/>
<path fill-rule="evenodd" clip-rule="evenodd" d="M681.802 404.294V389.08C681.802 383.77 677.764 379.331 672.477 378.832V378.832C668.566 378.462 665.207 375.899 663.817 372.225L663.363 371.024C661.091 365.016 654.592 361.752 648.415 363.517C646.836 363.968 645.732 364.283 645.732 364.283C645.732 364.283 644.345 362.924 642.587 361.2C638.609 357.3 632.218 357.368 628.326 361.354L627.579 362.119C624.035 365.749 624.177 371.585 627.892 375.04L629.339 376.385C631.455 378.352 631.999 381.488 630.67 384.053V384.053C628.811 387.64 630.683 392.033 634.558 393.178L644.49 396.113C647.669 397.052 649.366 400.508 648.165 403.598V403.598C646.496 407.89 650.375 412.274 654.839 411.141L681.802 404.294Z" fill="url(#paint1_linear_635_2059)"/>
<path d="M688.279 408.307L645.34 375.619" stroke="#18233D" stroke-width="1.26809" stroke-linecap="round"/>
<path fill-rule="evenodd" clip-rule="evenodd" d="M698.176 364.143V348.929C698.176 343.619 702.215 339.181 707.501 338.681V338.681C711.412 338.312 714.772 335.748 716.161 332.074L716.615 330.874C718.887 324.865 725.387 321.601 731.563 323.366C733.143 323.817 734.247 324.133 734.247 324.133C734.247 324.133 735.633 322.773 737.392 321.049C741.37 317.149 747.76 317.217 751.652 321.203L752.399 321.968C755.943 325.598 755.802 331.435 752.086 334.889L750.639 336.234C748.524 338.201 747.979 341.337 749.308 343.902V343.902C751.167 347.49 749.296 351.882 745.421 353.027L735.488 355.962C732.309 356.901 730.612 360.357 731.814 363.447V363.447C733.482 367.739 729.604 372.123 725.14 370.99L698.176 364.143Z" fill="url(#paint2_linear_635_2059)"/>
<path d="M691.7 368.156L734.639 335.469" stroke="#18233D" stroke-width="1.26809" stroke-linecap="round"/>
<path fill-rule="evenodd" clip-rule="evenodd" d="M676.935 484.172V465.154C676.935 458.517 671.887 452.968 665.279 452.344V452.344C660.39 451.882 656.19 448.678 654.454 444.085L653.886 442.585C651.046 435.074 642.922 430.994 635.201 433.2C633.227 433.764 631.847 434.159 631.847 434.159C631.847 434.159 630.114 432.459 627.916 430.304C622.943 425.429 614.955 425.514 610.09 430.497L609.156 431.453C604.726 435.99 604.903 443.286 609.547 447.604L611.356 449.285C614.001 451.744 614.681 455.664 613.02 458.87V458.87C610.697 463.355 613.036 468.845 617.879 470.276L630.295 473.945C634.269 475.119 636.39 479.439 634.888 483.301V483.301C632.802 488.667 637.651 494.147 643.231 492.73L676.935 484.172Z" fill="url(#paint3_linear_635_2059)"/>
<path fill-rule="evenodd" clip-rule="evenodd" d="M695.141 454.314V435.296C695.141 428.659 700.19 423.111 706.798 422.486V422.486C711.686 422.025 715.886 418.82 717.623 414.227L718.19 412.727C721.03 405.216 729.155 401.137 736.875 403.342C738.849 403.906 740.229 404.301 740.229 404.301C740.229 404.301 741.963 402.601 744.161 400.446C749.133 395.571 757.121 395.656 761.986 400.639L762.92 401.595C767.35 406.132 767.173 413.428 762.529 417.746L760.72 419.428C758.076 421.886 757.395 425.806 759.056 429.012V429.012C761.38 433.497 759.041 438.988 754.197 440.419L741.781 444.087C737.807 445.261 735.686 449.582 737.188 453.444V453.444C739.274 458.809 734.425 464.289 728.846 462.872L695.141 454.314Z" fill="url(#paint4_linear_635_2059)"/>
<path d="M683.455 463.196L750.147 413.288" stroke="#18233D" stroke-width="1.26809" stroke-linecap="round"/>
<path fill-rule="evenodd" clip-rule="evenodd" d="M688.151 536.532V517.515C688.151 510.877 693.199 505.329 699.807 504.705V504.705C704.696 504.243 708.896 501.039 710.632 496.446L711.2 494.945C714.039 487.435 722.164 483.355 729.885 485.561C731.859 486.125 733.239 486.519 733.239 486.519C733.239 486.519 734.972 484.82 737.17 482.665C742.143 477.789 750.131 477.874 754.996 482.857L755.929 483.813C760.36 488.351 760.183 495.647 755.539 499.965L753.73 501.646C751.085 504.105 750.405 508.025 752.066 511.231V511.231C754.389 515.715 752.05 521.206 747.207 522.637L734.791 526.306C730.817 527.48 728.696 531.8 730.198 535.662V535.662C732.284 541.027 727.435 546.508 721.855 545.091L688.151 536.532Z" fill="url(#paint5_linear_635_2059)"/>
<path d="M676.465 545.415L743.157 495.507" stroke="#18233D" stroke-width="1.26809" stroke-linecap="round"/>
<path d="M681.802 486.2L621.114 442.221" stroke="#18233D" stroke-width="1.26809" stroke-linecap="round"/>
<path fill-rule="evenodd" clip-rule="evenodd" d="M419.847 115.402C391.797 185.548 230.619 213.761 206.029 167.214C181.438 120.667 256.188 113.3 298.514 49.6118C340.84 -14.0768 447.896 45.2558 419.847 115.402Z" fill="#03736D" fill-opacity="0.25"/>
<path fill-rule="evenodd" clip-rule="evenodd" d="M0 620.411C0 620.411 645.138 616.541 681.585 616.541C718.031 616.541 732.623 579.773 698.279 558.486C663.936 537.199 651.521 574.811 637.416 582.811C623.311 590.811 611.328 558.535 557.735 582.811C546.948 587.697 510.075 602.886 470.57 606.865C313.793 622.657 0 620.411 0 620.411Z" fill="url(#paint6_linear_635_2059)"/>
<path fill-rule="evenodd" clip-rule="evenodd" d="M109.571 613.235C77.07 613.235 50.7232 586.918 50.7232 554.455C50.7232 521.991 77.07 495.675 109.571 495.675C142.071 495.675 168.418 521.991 168.418 554.455C168.418 586.918 142.071 613.235 109.571 613.235Z" fill="#5A4F53"/>
<path fill-rule="evenodd" clip-rule="evenodd" d="M109.571 585.923C90.8589 585.923 75.6895 570.771 75.6895 552.08C75.6895 533.389 90.8589 518.237 109.571 518.237C128.284 518.237 143.453 533.389 143.453 552.08C143.453 570.771 128.284 585.923 109.571 585.923Z" fill="#393035"/>
<path fill-rule="evenodd" clip-rule="evenodd" d="M132.434 541.49C133.422 539.635 132.717 537.329 130.86 536.343L125.624 533.562C123.77 532.578 121.468 533.281 120.482 535.134L106.046 562.251C105.058 564.107 105.763 566.413 107.62 567.399L112.855 570.179C114.71 571.164 117.011 570.461 117.998 568.607L132.434 541.49Z" fill="url(#paint7_linear_635_2059)"/>
<path fill-rule="evenodd" clip-rule="evenodd" d="M149.426 515.376C149.755 514.757 149.52 513.989 148.901 513.66L133.208 505.326C132.59 504.998 131.822 505.232 131.494 505.85L107.258 551.375C106.928 551.994 107.163 552.763 107.782 553.091L123.476 561.426C124.094 561.754 124.861 561.519 125.19 560.901L149.426 515.376Z" fill="#E5E9F3"/>
<path fill-rule="evenodd" clip-rule="evenodd" d="M126.857 508.752C127.187 508.133 126.952 507.364 126.333 507.036L114.625 500.818C114.006 500.49 113.239 500.724 112.91 501.342L95.0314 534.926C94.702 535.545 94.937 536.313 95.556 536.642L107.264 542.86C107.882 543.188 108.65 542.954 108.978 542.336L126.857 508.752Z" fill="#E5E9F3"/>
<path fill-rule="evenodd" clip-rule="evenodd" d="M468.6 617.985C436.099 617.985 409.752 591.668 409.752 559.205C409.752 526.741 436.099 500.425 468.6 500.425C501.1 500.425 527.447 526.741 527.447 559.205C527.447 591.668 501.1 617.985 468.6 617.985Z" fill="#5A4F53"/>
<path fill-rule="evenodd" clip-rule="evenodd" d="M466.222 593.048C447.509 593.048 432.34 577.896 432.34 559.205C432.34 540.514 447.509 525.362 466.222 525.362C484.934 525.362 500.104 540.514 500.104 559.205C500.104 577.896 484.934 593.048 466.222 593.048Z" fill="#393035"/>
<path opacity="0.307501" fill-rule="evenodd" clip-rule="evenodd" d="M522.293 583.297C525.605 575.945 527.447 567.79 527.447 559.205C527.447 557.978 527.41 556.759 527.335 555.551L409.939 554.496C409.815 556.05 409.752 557.62 409.752 559.205C409.752 567.79 411.595 575.945 414.907 583.297L522.293 583.297L522.293 583.297Z" fill="#271B1F"/>
<path fill-rule="evenodd" clip-rule="evenodd" d="M314.301 295.82C314.301 295.82 242.336 279.553 231.022 279.553C219.708 279.553 213.737 280.984 212.481 285.611C211.224 290.239 231.022 302.202 231.022 302.202L327.723 325.865L314.301 295.82Z" fill="url(#paint8_linear_635_2059)"/>
<path opacity="0.307501" fill-rule="evenodd" clip-rule="evenodd" d="M168.418 554.455C168.418 554.455 134.221 559.759 119.24 540.799C104.259 521.839 70.5885 511.531 70.5885 511.531C70.5885 511.531 94.4352 490.354 115.922 500.208C126.152 504.899 151.841 505.578 161.285 522.987C168.418 536.135 168.418 554.455 168.418 554.455Z" fill="#271B1F"/>
<path fill-rule="evenodd" clip-rule="evenodd" d="M183.873 538.48C183.873 538.48 174.677 469.974 125.524 461.415C76.3704 452.856 53.101 497.969 53.101 497.969C53.101 497.969 83.8526 487.089 118.496 517.61C153.139 548.131 183.873 538.48 183.873 538.48Z" fill="url(#paint9_linear_635_2059)"/>
<path fill-rule="evenodd" clip-rule="evenodd" d="M132.876 463.094L129.427 464.28C145.926 490.751 151.426 507.154 145.926 513.487C137.677 522.987 100.655 492.112 80.5781 496.268C80.5263 496.279 80.4751 496.29 80.4246 496.301C92.6971 498.959 105.388 506.062 118.496 517.61C141.591 537.957 163.384 544.914 183.873 538.48C178.216 496.336 161.217 471.207 132.876 463.094Z" fill="url(#paint10_linear_635_2059)"/>
<path fill-rule="evenodd" clip-rule="evenodd" d="M252.126 297.789C252.126 297.789 255.902 304.956 252.126 311.516C248.35 318.076 243.265 312.951 235.518 311.516C227.77 310.081 218.194 308.725 218.194 308.725L208.629 331.803L192.867 323.81L196.406 308.725C196.406 308.725 175.696 308.725 170.108 308.725C164.521 308.725 158.907 296.616 158.907 279.862C158.907 263.108 166.821 260.555 170.108 260.555C173.396 260.555 191.643 260.169 204.919 275.202C218.194 290.235 252.126 297.789 252.126 297.789Z" fill="url(#paint11_linear_635_2059)"/>
<path fill-rule="evenodd" clip-rule="evenodd" d="M218.35 309.24H196.695L194.573 317.839L211.079 328.24L218.35 309.24Z" fill="#95B53B"/>
<path fill-rule="evenodd" clip-rule="evenodd" d="M168.553 260.554C164.989 261.168 158.907 264.831 158.907 279.869C158.907 294.114 162.779 305.02 167.233 308.053C170.401 302.065 171.984 294.845 171.984 286.392C171.984 276.877 170.841 268.265 168.553 260.554V260.554Z" fill="#FDC952"/>
<path fill-rule="evenodd" clip-rule="evenodd" d="M523.881 481.425V448.901C523.881 442.598 518.771 437.488 512.468 437.488H479.894L523.881 481.425Z" fill="#C72326"/>
<path fill-rule="evenodd" clip-rule="evenodd" d="M563.111 550.197C563.111 550.197 539.902 470.997 469.872 422.252H295.279V440.328C295.279 444.709 298.071 448.599 302.109 450.296C315.408 455.886 343.876 470.345 348.414 493.21C354.371 523.221 332.337 535.031 332.337 535.031H203.747C198.094 535.031 193 531.619 190.848 526.391L178.742 496.976C168.167 471.282 168.888 442.325 180.727 417.188L216.581 341.06C218.752 336.449 217.166 330.943 212.874 328.195L194.404 316.365C194.404 316.365 173.608 353.564 162.143 385.981C150.678 418.398 150.578 435.94 129.186 441.804V463.271C129.186 463.271 144.407 472.699 158.271 499.075C172.134 525.45 176.613 558.611 220.377 558.611C255.746 558.611 342.87 558.611 374.994 558.611C382.811 558.611 390.298 555.598 395.95 550.197V550.197H563.111Z" fill="url(#paint12_linear_635_2059)"/>
<rect width="12.6809" height="35.5066" rx="6.34046" transform="matrix(-0.920505 -0.390731 -0.390731 0.920505 192.75 355.372)" fill="#FDC952"/>
<path fill-rule="evenodd" clip-rule="evenodd" d="M129.428 464.28C127.046 464.28 125.115 459.218 125.115 452.973C125.115 446.728 127.046 441.666 129.428 441.666C131.809 441.666 133.74 446.728 133.74 452.973C133.74 459.218 131.809 464.28 129.428 464.28Z" fill="#FDC952"/>
<path fill-rule="evenodd" clip-rule="evenodd" d="M470.367 422.051L476.491 389.985C478.209 380.991 470.966 372.811 461.834 373.476C423.216 376.285 335.279 382.868 325.053 385.268C311.901 388.356 284.966 399.232 284.966 408.868C284.966 418.505 283.723 422.051 294.727 422.051C305.731 422.051 470.367 422.051 470.367 422.051Z" fill="#393035"/>
<path fill-rule="evenodd" clip-rule="evenodd" d="M410.753 377.34C402.43 391.441 390.151 401.064 373.917 406.209C346.914 414.766 315.791 401.848 302.757 422.051H470.075L473.501 404.109C476.078 390.618 467.276 377.584 453.841 374.997C451.716 374.588 449.546 374.46 447.388 374.617C434.106 375.582 421.894 376.49 410.753 377.34Z" fill="url(#paint13_linear_635_2059)"/>
<rect width="135.527" height="74.8112" rx="20.9235" transform="matrix(-1 0 0 1 528.637 498.05)" fill="#E78763"/>
<path fill-rule="evenodd" clip-rule="evenodd" d="M379.508 332.99C379.508 332.99 399.097 365.58 368.564 385.864C338.03 406.147 248.644 392.95 248.644 392.95L291.145 512.641L250.907 522.987L200.369 401.335C195.197 388.884 196.702 374.658 204.366 363.565V363.565C211.037 353.91 221.639 347.704 233.324 346.615L379.508 332.99Z" fill="#020101"/>
<path fill-rule="evenodd" clip-rule="evenodd" d="M395.731 550.299C395.731 550.299 342.013 489.395 371.402 450.665C400.791 411.934 478.595 438.574 520.853 472.964C563.111 507.354 563.111 550.299 563.111 550.299H395.731Z" fill="url(#paint14_linear_635_2059)"/>
<path fill-rule="evenodd" clip-rule="evenodd" d="M420.451 550.299H563.111C563.111 521.589 549.059 495.739 520.955 472.748C506.434 460.868 487.705 449.911 468.192 442.238C502.016 472.818 508.922 499.028 488.912 520.87C473.27 537.944 450.449 547.754 420.451 550.299V550.299Z" fill="url(#paint15_linear_635_2059)"/>
<path fill-rule="evenodd" clip-rule="evenodd" d="M215.996 342.963C218.688 337.15 216.493 330.244 210.939 327.053V327.053L169.277 416.776C158.459 440.134 158.631 467.039 169.748 490.26L197.477 547.843C200.647 554.426 207.308 558.611 214.615 558.611H215.679L180.039 485.423C170.366 465.218 170.216 441.808 179.63 421.483L215.996 342.963Z" fill="#6B9941"/>
<path d="M583.322 280.037C583.322 275.835 579.916 272.428 575.714 272.428H458.891C455.389 272.428 452.55 275.267 452.55 278.769V367.024C452.55 370.525 455.389 373.364 458.891 373.364H575.714C579.916 373.364 583.322 369.958 583.322 365.756V280.037Z" fill="#FDC952"/>
<path fill-rule="evenodd" clip-rule="evenodd" d="M565.088 272.428C565.088 272.428 532.541 286.196 528.175 318.362C523.809 350.527 471.572 373.364 471.572 373.364H575.714C579.916 373.364 583.322 369.958 583.322 365.756V280.037C583.322 275.835 579.916 272.428 575.714 272.428H565.088Z" fill="url(#paint16_linear_635_2059)"/>
<path fill-rule="evenodd" clip-rule="evenodd" d="M519.918 366.479C496.106 366.479 476.803 347.175 476.803 323.363C476.803 299.552 496.106 280.248 519.918 280.248C543.73 280.248 563.033 299.552 563.033 323.363C563.033 347.175 543.73 366.479 519.918 366.479Z" fill="#03736D" fill-opacity="0.4"/>
<path d="M552.412 381.677V409.37C552.412 416.373 546.735 422.051 539.731 422.051H457.305" stroke="#18233D" stroke-width="3.80428" stroke-linecap="round"/>
<path d="M484.648 381.677V409.37C484.648 416.373 478.971 422.051 471.968 422.051H288.49" stroke="#18233D" stroke-width="3.80428" stroke-linecap="round"/>
<path d="M563.111 381.677H471.571" stroke="#18233D" stroke-width="3.80428" stroke-linecap="round"/>
<path fill-rule="evenodd" clip-rule="evenodd" d="M229.988 313.752C229.988 313.752 225.732 307.432 229.988 299.665C234.244 291.898 240.518 294.422 240.518 294.422C240.518 294.422 267.692 300.69 269.639 303.777C271.586 306.865 271.586 319.927 261.91 319.927C256.749 319.927 251.043 318.08 240.518 315.444C237.888 314.786 229.988 313.752 229.988 313.752Z" fill="#393035"/>
<path fill-rule="evenodd" clip-rule="evenodd" d="M278.98 163.753C278.98 163.753 285.719 205.791 289.941 208.921C294.163 212.052 302.274 206.506 302.274 206.506L307.879 213.054L324.156 208.921L312.496 185.71C312.496 185.71 317.179 181.224 317.179 177.434C317.179 173.645 315.255 170.96 309.46 173.645C307.616 174.499 307.278 177.964 306.437 178.956C304.636 181.077 303.781 180.077 303.781 175.647C303.781 169.148 301.738 164.363 295.84 162.643C289.941 160.923 278.98 163.753 278.98 163.753Z" fill="url(#paint17_linear_635_2059)"/>
<path opacity="0.800851" fill-rule="evenodd" clip-rule="evenodd" d="M275.413 174.231C275.413 174.231 279.761 198.805 284.056 198.805C288.352 198.805 303.945 186.518 303.945 186.518L296.703 171.493L275.413 174.231Z" fill="url(#paint18_linear_635_2059)"/>
<path fill-rule="evenodd" clip-rule="evenodd" d="M285.854 514.674C285.854 514.674 292.484 534.534 294.391 543.529C296.298 552.524 236.219 549.961 229.223 549.961C222.228 549.961 221.281 534.425 235.693 532.486C250.106 530.548 253.591 520.807 253.591 520.807L285.854 514.674Z" fill="#020101"/>
<path fill-rule="evenodd" clip-rule="evenodd" d="M302.497 511.53C302.497 511.53 309.127 533.143 311.034 542.932C312.94 552.72 252.862 549.931 245.866 549.931C238.871 549.931 237.923 533.024 252.336 530.915C266.748 528.805 270.233 518.205 270.233 518.205L302.497 511.53Z" fill="#393035"/>
<path fill-rule="evenodd" clip-rule="evenodd" d="M392.586 332.99C392.586 332.99 412.175 365.58 381.642 385.864C351.108 406.147 261.723 392.95 261.723 392.95L304.223 512.641L263.986 522.987L213.447 401.335C208.275 388.884 209.78 374.658 217.444 363.565V363.565C224.115 353.91 234.717 347.704 246.402 346.615L392.586 332.99Z" fill="#18233D"/>
<path d="M349.715 329.428C349.715 329.428 362.352 377.054 336.622 377.054C310.893 377.054 243.315 380.618 243.315 380.618L296.822 513.487" stroke="white" stroke-width="1.26809"/>
<path fill-rule="evenodd" clip-rule="evenodd" d="M299.19 222.554C299.19 222.554 299.217 216.394 307.094 211.005C314.97 205.617 323.994 201.061 326.409 202.709C328.825 204.358 331.289 209.202 331.289 209.202L299.19 222.554Z" fill="#18233D"/>
<path fill-rule="evenodd" clip-rule="evenodd" d="M393.303 333.264C393.303 333.264 400.049 326.88 393.303 319.467C386.558 312.053 371.344 235.083 357.211 221.982C343.078 208.881 330.027 207.117 330.027 207.117C330.027 207.117 311.611 213.269 302.527 217.593C293.444 221.917 298.801 221.982 298.801 221.982C298.801 221.982 297.042 251.465 300.232 266.185C303.423 280.905 319.54 317.042 319.54 340.115L393.303 333.264Z" fill="url(#paint19_linear_635_2059)"/>
<path fill-rule="evenodd" clip-rule="evenodd" d="M328.643 207.581C346.416 216.687 357.894 230.503 363.076 249.027C370.981 277.289 386.544 325.865 389.567 332.99C389.648 333.181 389.742 333.38 389.848 333.585L393.303 333.264C397.8 329.008 397.8 324.409 393.303 319.467C386.558 312.053 371.344 235.083 357.211 221.982C347.789 213.248 338.728 208.293 330.027 207.117C329.561 207.273 329.1 207.427 328.643 207.581Z" fill="url(#paint20_linear_635_2059)"/>
<path fill-rule="evenodd" clip-rule="evenodd" d="M316.371 218.772C301.198 214.769 293.155 222.776 298.431 250.407C303.706 278.037 306.913 290.241 306.913 290.241L344.365 285.002C344.365 285.002 331.545 222.776 316.371 218.772Z" fill="url(#paint21_linear_635_2059)"/>
<path fill-rule="evenodd" clip-rule="evenodd" d="M305.113 218.508C318.418 225.133 327.143 235.306 331.288 249.027C335.223 262.05 338.348 274.215 340.664 285.52L344.365 285.002C335.819 243.518 326.487 221.441 316.371 218.772C311.968 217.611 308.164 217.46 305.113 218.508V218.508Z" fill="url(#paint22_linear_635_2059)"/>
<path fill-rule="evenodd" clip-rule="evenodd" d="M310.239 289.531L319.793 322.742C319.793 322.742 283.601 300.315 262.002 293.706C259.748 293.017 258.668 290.033 256.687 289.531C254.902 289.079 252.213 289.792 250.614 289.531C248.557 289.197 245.178 287.687 243.45 287.596C241.002 287.465 238.928 289.109 237.198 289.531C232.069 290.785 229.703 292.676 227.483 296.14C223.119 302.948 226.428 316.614 232.311 317.854C238.195 319.095 244.698 322.742 249.082 322.742C252.533 322.742 263.079 319.097 253.466 317.854C257.804 312.271 258.135 300.373 264.126 300.373C272.464 300.373 271.238 312.385 268.492 315.12C268.492 315.12 305.448 355.016 335.169 356.702C364.889 358.387 340.523 284.303 340.523 284.303L310.239 289.531Z" fill="url(#paint23_linear_635_2059)"/>
<path fill-rule="evenodd" clip-rule="evenodd" d="M272.05 318.89C295.274 343.029 316.314 355.633 335.169 356.702C354.915 357.822 356.755 333.858 340.689 284.81L335.563 285.239C348.415 325.687 350.321 347.043 341.282 349.307C328.987 352.387 286.644 331.975 272.05 318.89V318.89Z" fill="#E59368"/>
<path fill-rule="evenodd" clip-rule="evenodd" d="M311.078 198.91C311.078 198.91 301.985 209.854 298.012 211.298C294.038 212.742 293.246 210.522 293.246 210.522L305.966 194.055L311.078 198.91Z" fill="#FDC952"/>
<path d="M242.205 271.796C242.205 271.796 229.128 277.733 226.75 291.983" stroke="#18233D" stroke-width="3.80428" stroke-linecap="round"/>
<path fill-rule="evenodd" clip-rule="evenodd" d="M248.546 283.209C241.542 283.209 235.865 277.815 235.865 271.162C235.865 264.509 241.542 259.115 248.546 259.115C255.549 259.115 261.227 264.509 261.227 271.162C261.227 277.815 255.549 283.209 248.546 283.209Z" fill="#18233D"/>
<path fill-rule="evenodd" clip-rule="evenodd" d="M313.967 199.493C322.588 196.194 336.588 188.659 334.419 168.873C332.25 149.087 317.443 130.913 292.058 140.094C266.672 149.275 273.977 175.585 273.977 175.585L294.659 176.592C294.659 176.592 305.347 202.792 313.967 199.493Z" fill="#18233D"/>
<path fill-rule="evenodd" clip-rule="evenodd" d="M300.244 137.994C306.13 139.372 311.723 144.617 317.023 153.732C324.711 166.954 318.53 177.426 298.479 185.148C302.516 193.304 306.315 198.069 309.877 199.444C310.047 199.503 310.217 199.561 310.385 199.617C311.607 199.981 312.802 199.939 313.968 199.493C322.589 196.194 336.589 188.659 334.419 168.873C332.495 151.32 320.624 135.035 300.244 137.994V137.994Z" fill="url(#paint24_linear_635_2059)"/>
<rect width="70.1413" height="4.74992" rx="1.3315" transform="matrix(-1 0 0 1 497.727 488.55)" fill="#FDC952"/>
<rect width="70.1413" height="4.74992" rx="1.3315" transform="matrix(-1 0 0 1 497.727 500.425)" fill="#FDC952"/>
<rect width="70.1413" height="4.74992" rx="1.3315" transform="matrix(-1 0 0 1 497.727 511.112)" fill="#FDC952"/>
<path d="M504.25 341.915C504.291 341.498 504.657 341.186 505.076 341.205C516.847 341.736 523.771 341.719 535.549 341.203C535.957 341.185 536.316 341.48 536.368 341.885C536.835 345.506 536.84 347.808 536.359 351.449C536.31 351.818 536.003 352.103 535.631 352.128C523.898 352.946 516.971 352.996 504.971 352.13C504.597 352.103 504.289 351.816 504.244 351.443C503.809 347.816 503.899 345.517 504.25 341.915Z" fill="white"/>
<path d="M504.353 317.675C504.383 317.25 504.751 316.926 505.178 316.945C516.864 317.472 523.752 317.456 535.436 316.944C535.866 316.926 536.235 317.256 536.259 317.685C536.475 321.524 536.495 323.829 536.265 327.09C536.238 327.482 535.919 327.792 535.526 327.815C523.883 328.499 516.986 328.524 505.067 327.814C504.687 327.792 504.374 327.5 504.333 327.122C503.955 323.613 504.092 321.299 504.353 317.675Z" fill="white"/>
<path d="M503.153 324.793C504.081 324.646 504.646 324.606 505.114 324.981L506.584 326.428C507.128 326.963 506.839 327.864 506.076 327.859C505.341 327.854 504.436 327.774 503.127 327.601C502.808 327.558 502.527 327.357 502.416 327.054C502.161 326.353 502.177 325.846 502.542 325.198C502.668 324.974 502.899 324.833 503.153 324.793Z" fill="white"/>
<path d="M537.449 324.792C536.606 324.656 536.066 324.617 535.554 324.936C535.508 324.965 535.466 325.001 535.427 325.039L533.985 326.458C533.447 326.987 533.725 327.872 534.48 327.864C535.2 327.856 536.116 327.774 537.469 327.599C537.789 327.558 538.073 327.356 538.184 327.052C538.438 326.352 538.422 325.845 538.057 325.197C537.931 324.974 537.701 324.833 537.449 324.792Z" fill="white"/>
<path d="M504.299 306.419C504.359 305.556 505.07 304.882 505.934 304.86C516.082 304.606 522.841 304.568 534.668 304.86C535.541 304.881 536.256 305.569 536.301 306.441C536.461 309.537 536.477 311.646 536.316 314.302C536.265 315.14 535.587 315.802 534.749 315.85C523.81 316.475 517.014 316.496 505.81 315.847C504.999 315.8 504.333 315.178 504.259 314.369C503.997 311.499 504.092 309.375 504.299 306.419Z" fill="white"/>
<path d="M503.153 312.783C504.081 312.636 504.646 312.596 505.114 312.971L506.584 314.418C507.128 314.953 506.839 315.854 506.076 315.849C505.341 315.844 504.436 315.764 503.127 315.591C502.808 315.548 502.527 315.347 502.416 315.044C502.161 314.344 502.177 313.836 502.542 313.188C502.668 312.964 502.899 312.823 503.153 312.783Z" fill="white"/>
<path d="M537.449 312.782C536.606 312.646 536.066 312.607 535.554 312.926C535.508 312.955 535.466 312.991 535.427 313.029L533.985 314.448C533.447 314.977 533.725 315.861 534.48 315.853C535.2 315.846 536.116 315.764 537.469 315.589C537.789 315.548 538.073 315.346 538.184 315.042C538.438 314.342 538.422 313.835 538.057 313.187C537.931 312.964 537.701 312.823 537.449 312.782Z" fill="white"/>
<path d="M504.353 329.686C504.383 329.26 504.751 328.936 505.178 328.956C516.864 329.483 523.752 329.466 535.436 328.955C535.866 328.936 536.235 329.266 536.259 329.696C536.475 333.535 536.495 335.839 536.265 339.101C536.238 339.493 535.919 339.803 535.526 339.826C523.883 340.51 516.986 340.534 505.067 339.825C504.687 339.802 504.374 339.51 504.333 339.132C503.955 335.623 504.092 333.31 504.353 329.686Z" fill="white"/>
<path d="M503.153 336.804C504.081 336.657 504.646 336.617 505.114 336.993L506.584 338.439C507.128 338.974 506.839 339.876 506.076 339.87C505.341 339.865 504.436 339.786 503.127 339.612C502.808 339.57 502.527 339.368 502.416 339.065C502.161 338.365 502.177 337.858 502.542 337.21C502.668 336.986 502.899 336.844 503.153 336.804Z" fill="white"/>
<path d="M503.633 349.16C504.562 349.013 505.127 348.973 505.595 349.348L507.065 350.795C507.609 351.33 507.32 352.231 506.557 352.226C505.821 352.221 504.916 352.141 503.608 351.968C503.289 351.925 503.007 351.724 502.897 351.421C502.642 350.721 502.658 350.213 503.022 349.566C503.148 349.342 503.379 349.2 503.633 349.16Z" fill="white"/>
<path d="M537.449 336.803C536.606 336.667 536.066 336.628 535.554 336.947C535.508 336.976 535.466 337.012 535.427 337.05L533.985 338.469C533.447 338.998 533.725 339.883 534.48 339.875C535.2 339.867 536.116 339.785 537.469 339.61C537.789 339.569 538.073 339.367 538.184 339.063C538.438 338.363 538.422 337.856 538.057 337.208C537.931 336.985 537.701 336.844 537.449 336.803Z" fill="white"/>
<path d="M537.298 349.153C536.455 349.017 535.916 348.977 535.404 349.297C535.357 349.326 535.315 349.361 535.276 349.4L533.834 350.818C533.297 351.347 533.575 352.232 534.329 352.224C535.049 352.216 535.966 352.135 537.318 351.96C537.639 351.918 537.923 351.716 538.033 351.412C538.288 350.712 538.271 350.205 537.906 349.557C537.781 349.334 537.551 349.193 537.298 349.153Z" fill="white"/>
<path fill-rule="evenodd" clip-rule="evenodd" d="M529.066 311.381H511.291V302.013C511.291 298.829 513.872 296.248 517.056 296.248H523.301C526.485 296.248 529.066 298.829 529.066 302.013V311.381ZM517.056 298.89C515.331 298.89 513.933 300.288 513.933 302.013V308.738H526.424V302.013C526.424 300.288 525.026 298.89 523.301 298.89H517.056Z" fill="white"/>
<g style="mix-blend-mode:darken">
<rect x="530.508" y="304.655" width="3.84334" height="48.0417" fill="#D9D9D9"/>
</g>
<g style="mix-blend-mode:darken">
<rect x="529.066" y="304.655" width="0.960834" height="48.0417" fill="#D9D9D9"/>
</g>
<g style="mix-blend-mode:darken">
<rect x="525.744" y="304.775" width="0.480417" height="48.0417" fill="#D9D9D9"/>
</g>
<defs>
<linearGradient id="paint0_linear_635_2059" x1="653.203" y1="281.066" x2="711.632" y2="296.722" gradientUnits="userSpaceOnUse">
<stop stop-color="#C7DB6D"/>
<stop offset="1" stop-color="#95B53B"/>
</linearGradient>
<linearGradient id="paint1_linear_635_2059" x1="621.115" y1="354.132" x2="621.115" y2="413.847" gradientUnits="userSpaceOnUse">
<stop stop-color="#C7DB6D"/>
<stop offset="1" stop-color="#95B53B"/>
</linearGradient>
<linearGradient id="paint2_linear_635_2059" x1="758.863" y1="313.981" x2="758.863" y2="373.696" gradientUnits="userSpaceOnUse">
<stop stop-color="#C7DB6D"/>
<stop offset="1" stop-color="#95B53B"/>
</linearGradient>
<linearGradient id="paint3_linear_635_2059" x1="601.076" y1="421.469" x2="601.076" y2="496.113" gradientUnits="userSpaceOnUse">
<stop stop-color="#C7DB6D"/>
<stop offset="1" stop-color="#95B53B"/>
</linearGradient>
<linearGradient id="paint4_linear_635_2059" x1="771" y1="391.611" x2="771" y2="466.255" gradientUnits="userSpaceOnUse">
<stop stop-color="#C7DB6D"/>
<stop offset="1" stop-color="#95B53B"/>
</linearGradient>
<linearGradient id="paint5_linear_635_2059" x1="764.01" y1="473.829" x2="764.01" y2="548.474" gradientUnits="userSpaceOnUse">
<stop stop-color="#C7DB6D"/>
<stop offset="1" stop-color="#95B53B"/>
</linearGradient>
<linearGradient id="paint6_linear_635_2059" x1="0" y1="552.044" x2="0" y2="620.521" gradientUnits="userSpaceOnUse">
<stop stop-color="#C3F0EE"/>
<stop offset="1" stop-color="#B9EDEA"/>
</linearGradient>
<linearGradient id="paint7_linear_635_2059" x1="134.221" y1="538.13" x2="116.225" y2="571.975" gradientUnits="userSpaceOnUse">
<stop stop-color="white"/>
<stop offset="1" stop-color="#E5E9F3"/>
</linearGradient>
<linearGradient id="paint8_linear_635_2059" x1="327.723" y1="279.553" x2="327.723" y2="325.865" gradientUnits="userSpaceOnUse">
<stop stop-color="#FFA864"/>
<stop offset="1" stop-color="#DB6F3A"/>
</linearGradient>
<linearGradient id="paint9_linear_635_2059" x1="183.873" y1="460.05" x2="183.873" y2="540.799" gradientUnits="userSpaceOnUse">
<stop stop-color="#A4C976"/>
<stop offset="1" stop-color="#6B9941"/>
</linearGradient>
<linearGradient id="paint10_linear_635_2059" x1="171.794" y1="470.761" x2="171.794" y2="547.51" gradientUnits="userSpaceOnUse">
<stop stop-color="#90B863"/>
<stop offset="1" stop-color="#5C8238"/>
</linearGradient>
<linearGradient id="paint11_linear_635_2059" x1="254.014" y1="260.554" x2="254.014" y2="331.803" gradientUnits="userSpaceOnUse">
<stop stop-color="#A4C976"/>
<stop offset="1" stop-color="#6B9941"/>
</linearGradient>
<linearGradient id="paint12_linear_635_2059" x1="563.111" y1="316.365" x2="563.111" y2="558.611" gradientUnits="userSpaceOnUse">
<stop stop-color="#A4C976"/>
<stop offset="1" stop-color="#6B9941"/>
</linearGradient>
<linearGradient id="paint13_linear_635_2059" x1="473.949" y1="374.552" x2="473.949" y2="422.051" gradientUnits="userSpaceOnUse">
<stop stop-color="#443A3E"/>
<stop offset="1" stop-color="#5A4F53"/>
</linearGradient>
<linearGradient id="paint14_linear_635_2059" x1="563.111" y1="431.551" x2="563.111" y2="550.299" gradientUnits="userSpaceOnUse">
<stop stop-color="#A4C976"/>
<stop offset="1" stop-color="#6B9941"/>
</linearGradient>
<linearGradient id="paint15_linear_635_2059" x1="566.333" y1="471.149" x2="566.333" y2="556.036" gradientUnits="userSpaceOnUse">
<stop stop-color="#A4C976"/>
<stop offset="1" stop-color="#6B9941"/>
</linearGradient>
<linearGradient id="paint16_linear_635_2059" x1="583.322" y1="272.428" x2="583.322" y2="373.364" gradientUnits="userSpaceOnUse">
<stop stop-color="#FFE68A"/>
<stop offset="1" stop-color="#FDC952"/>
</linearGradient>
<linearGradient id="paint17_linear_635_2059" x1="324.156" y1="161.993" x2="324.156" y2="213.054" gradientUnits="userSpaceOnUse">
<stop stop-color="#FFC698"/>
<stop offset="1" stop-color="#FF945F"/>
</linearGradient>
<linearGradient id="paint18_linear_635_2059" x1="303.945" y1="171.493" x2="303.945" y2="198.805" gradientUnits="userSpaceOnUse">
<stop stop-color="white"/>
<stop offset="1" stop-color="#E5E9F3"/>
</linearGradient>
<linearGradient id="paint19_linear_635_2059" x1="396.676" y1="207.117" x2="396.676" y2="340.115" gradientUnits="userSpaceOnUse">
<stop stop-color="white"/>
<stop offset="1" stop-color="#E5E9F3"/>
</linearGradient>
<linearGradient id="paint20_linear_635_2059" x1="396.676" y1="207.117" x2="396.676" y2="333.585" gradientUnits="userSpaceOnUse">
<stop stop-color="#E8EDF9"/>
<stop offset="1" stop-color="#CDD7F0"/>
</linearGradient>
<linearGradient id="paint21_linear_635_2059" x1="344.365" y1="217.804" x2="344.365" y2="290.241" gradientUnits="userSpaceOnUse">
<stop stop-color="white"/>
<stop offset="1" stop-color="#E5E9F3"/>
</linearGradient>
<linearGradient id="paint22_linear_635_2059" x1="344.365" y1="217.804" x2="344.365" y2="285.52" gradientUnits="userSpaceOnUse">
<stop stop-color="white"/>
<stop offset="1" stop-color="#CDD7F0"/>
</linearGradient>
<linearGradient id="paint23_linear_635_2059" x1="351.5" y1="284.303" x2="351.5" y2="356.739" gradientUnits="userSpaceOnUse">
<stop stop-color="#FFC698"/>
<stop offset="1" stop-color="#FF945F"/>
</linearGradient>
<linearGradient id="paint24_linear_635_2059" x1="334.645" y1="137.644" x2="334.645" y2="199.862" gradientUnits="userSpaceOnUse">
<stop stop-color="#18233D"/>
<stop offset="1" stop-color="#080C16"/>
</linearGradient>
</defs>
</svg>
