<svg width="171" height="150" viewBox="0 0 171 150" fill="none" xmlns="http://www.w3.org/2000/svg">
<path d="M42.3958 18.4857C56.6801 6.78982 68.9032 3.4025 81.9412 7.07742C94.9792 10.7523 103.368 28.0405 118.738 32.2267C134.125 36.4289 147.163 38.8735 158.587 48.2525C169.996 57.6316 172.456 68.225 167.966 83.3081C163.477 98.3913 141.044 106.684 114.952 103.568C88.8596 100.452 58.6933 95.5472 44.425 79.2338C30.1567 62.9203 24.4526 33.1534 42.3958 18.4857Z" fill="#9AC7C5"/>
<path d="M101.499 11.1518C102.25 18.4697 108.833 24.1898 123.916 29.095C138.999 33.9842 147.963 34.7991 152.868 31.1402C157.757 27.4652 154.498 17.6868 147.979 11.5672C141.46 5.44766 129.22 0.558408 121.471 0.15896C113.738 -0.272444 100.284 -0.671893 101.499 11.1518Z" fill="#9AC7C5"/>
<path d="M117.875 29.8459C118.274 31.22 118.546 31.971 118.737 32.2107C118.929 32.4503 118.737 32.9776 118.306 33.1214C117.875 33.2652 116.405 33.7446 116.405 33.7446L115.686 28.6156L116.117 27.7528L117.331 26.6823C117.347 26.6823 117.619 28.9672 117.875 29.8459Z" fill="#F37E4E"/>
<path d="M99.2285 39.4167C99.2285 39.4167 101.993 37.0999 102.632 36.2691C103.527 35.0867 103.926 34.6074 103.702 33.6487C103.463 32.69 103.095 32.0509 103.622 32.2426C104.15 32.4344 112.714 38.6018 112.714 38.6018C112.714 38.6018 110.892 39.4167 109.598 40.6151C108.32 41.7974 107.217 44.258 107.217 44.258L99.2285 39.4167Z" fill="#FFA171"/>
<path d="M104.629 37.9308C106.211 40.2157 107.633 43.3633 107.633 43.3633C107.633 43.3633 108.384 41.7655 108.943 41.2063C110.206 39.944 112.171 38.6658 112.171 38.6658L107.953 32.035L104.102 33.3132L103.575 34.943L102.84 36.0135C102.84 36.0135 103.655 36.5088 104.629 37.9308Z" fill="#F37E4E"/>
<path d="M116.677 22.6719C116.677 22.6719 117.14 23.8063 117.268 26.0272C117.38 28.0245 117.412 29.127 117.332 30.3732C117.236 32.003 117.396 33.2972 117.348 34.8151C117.3 36.333 116.725 37.6752 116.197 38.1705C115.383 38.9214 114.967 38.9853 113.529 39.0333C112.107 39.0812 110.477 38.5859 108.336 37.6432C106.211 36.7005 104.342 36.349 103.91 34.3038C103.479 32.2586 103.719 30.3093 103.719 30.3093L111.085 23.4228L116.677 22.6719Z" fill="#FFA171"/>
<path d="M107.729 30.9324C107.729 30.9324 107.41 31.6035 108.241 32.5622C109.071 33.5209 109.471 34.16 109.631 34.6233C109.79 35.1027 108.96 35.2145 108.273 34.863C107.601 34.5115 107.554 34.3038 106.994 34.4636C106.435 34.6233 105.684 34.7032 105.285 34.3517C104.885 34.0002 104.853 33.9203 104.374 34.0801C103.895 34.2399 103.176 33.9682 102.824 33.1214C102.489 32.2906 107.729 30.9324 107.729 30.9324Z" fill="#5E2D1E"/>
<path fill-rule="evenodd" clip-rule="evenodd" d="M110.685 16.6162C113.897 17.0956 116.309 19.1088 117.508 22.4002C118.722 25.6917 118.882 30.1975 118.85 30.1655C118.131 31.3639 116.517 32.2586 115.159 32.9776C113.818 33.7029 112.618 32.9967 111.282 32.2102C111.264 32.1997 111.246 32.1892 111.228 32.1787C109.87 31.3798 108.895 31.2999 107.777 31.6195C107.039 31.8303 105.912 32.6044 105.047 33.1986C104.6 33.505 104.224 33.7636 104.006 33.8724C103.367 34.1919 102.552 34.1919 101.913 33.3132C101.82 33.1855 101.722 33.0639 101.62 32.9366C101.017 32.1875 100.254 31.2398 99.4205 27.6889C98.5257 23.8862 99.2447 21.6652 101.785 18.9969C103.958 16.7281 107.473 16.1369 110.685 16.6162ZM115.798 31.1402C116.565 31.0603 117.188 30.6129 117.428 30.3413C117.795 29.9418 117.715 29.3347 117.587 28.5517C117.476 27.7688 117.076 26.2829 115.878 25.9633C115.127 25.7556 114.344 26.4267 114.088 27.3534C113.849 28.2322 113.833 29.1429 114.28 30.1815C114.52 30.7407 114.967 31.2201 115.798 31.1402Z" fill="#03736D"/>
<path d="M105.7 29.9578C107.342 29.9578 108.672 28.5915 108.672 26.906C108.672 25.2206 107.342 23.8542 105.7 23.8542C104.059 23.8542 102.729 25.2206 102.729 26.906C102.729 28.5915 104.059 29.9578 105.7 29.9578Z" fill="#FFAA00"/>
<path d="M105.7 28.7594C106.697 28.7594 107.506 27.9296 107.506 26.906C107.506 25.8824 106.697 25.0526 105.7 25.0526C104.703 25.0526 103.895 25.8824 103.895 26.906C103.895 27.9296 104.703 28.7594 105.7 28.7594Z" fill="#FFC648"/>
<path d="M92.5977 17.2553C92.5977 16.1848 94.2114 15.9771 99.0208 16.6961C103.846 17.4151 106.003 17.495 107.058 18.4697C108.096 19.4283 107.857 20.4829 107.617 22.0807C107.377 23.6945 106.419 26.2509 106.259 26.8261C106.099 27.3854 105.3 27.3854 104.901 27.1457C104.501 26.906 104.501 25.7876 104.581 25.3721C104.661 24.9727 103.303 23.5187 103.303 23.5187C103.303 23.5187 101.769 23.1991 100.89 22.7198C100.011 22.2405 99.8516 21.7611 99.8516 21.7611C99.8516 21.7611 97.8384 21.5215 96.7999 20.9622C95.7613 20.403 95.6814 19.5082 95.6814 19.5082C95.6814 19.5082 92.5977 18.7892 92.5977 17.2553Z" fill="#FFAA00"/>
<path d="M116.102 30.1815C116.508 30.1815 116.837 29.5949 116.837 28.8713C116.837 28.1477 116.508 27.5611 116.102 27.5611C115.696 27.5611 115.367 28.1477 115.367 28.8713C115.367 29.5949 115.696 30.1815 116.102 30.1815Z" fill="#5E2D1E"/>
<path d="M93.3977 17.527C93.7013 18.246 94.5321 18.6614 96.1619 18.7732C97.7756 18.8851 104.119 19.0608 105.062 19.0289C106.02 18.9969 106.867 18.1821 103.735 17.7826C100.604 17.3832 96.6732 16.792 95.347 16.76C94.0208 16.7121 93.0941 16.8239 93.3977 17.527Z" fill="#FFC648"/>
<path d="M96.7038 19.8438C96.8476 20.403 97.4068 20.5788 98.4774 20.8664C99.5479 21.154 100.203 21.0581 101.417 21.0102C102.632 20.9782 104.437 20.6107 104.98 20.5308C105.54 20.4509 106.562 19.7958 104.165 19.652C101.769 19.5082 98.2377 19.4283 97.3589 19.4283C96.6559 19.4283 96.6399 19.5402 96.7038 19.8438Z" fill="#FFC648"/>
<path d="M101.019 21.9689C101.227 22.3683 101.946 22.592 102.425 22.7038C102.905 22.8157 103.608 22.4482 104.406 22.1127C105.221 21.7771 105.876 21.1859 105.477 21.154C105.078 21.122 103.671 21.3457 102.713 21.4416C101.754 21.5694 100.795 21.5694 101.019 21.9689Z" fill="#FFC648"/>
<path d="M103.958 23.3589C104.294 23.8862 104.55 24.4934 104.821 24.5732C105.093 24.6531 105.492 24.3815 105.604 23.3909C105.716 22.4162 105.924 21.6653 105.285 22.1766C104.661 22.6878 104.102 22.8796 103.911 23.0074C103.719 23.1192 103.751 23.0394 103.958 23.3589Z" fill="#FFC648"/>
<path d="M112.986 119.258C112.986 119.258 112.395 125.602 112.155 126.608C111.899 127.615 111.324 128.366 111.404 129.452C111.484 130.539 112.331 130.874 114.823 130.874C117.332 130.874 124.682 130.794 124.682 130.794C124.682 130.794 119.169 127.711 118.418 127.199C117.667 126.704 117.412 126.193 117.667 124.771C117.923 123.349 118.674 120.76 118.674 120.76L112.986 119.258Z" fill="#FFA171"/>
<path d="M114.344 124.851C116.086 124.931 117.699 124.371 117.699 124.371L118.962 119.866L112.842 120.041L112.475 124.419C112.475 124.435 113.082 124.787 114.344 124.851Z" fill="#F37E4E"/>
<path d="M119.106 126.64C120.288 127.152 122.286 128.174 123.66 128.941C125.05 129.708 125.609 129.964 125.609 130.683C125.609 131.402 123.26 131.29 120.113 131.29C117.396 131.29 111.405 131.274 111.213 131.274C111.005 131.274 110.398 130.076 110.654 128.446C110.909 126.8 112.156 126.624 112.156 126.624C112.156 126.624 112.347 128.414 113.945 128.526C116.182 128.669 117.316 128.238 117.828 127.934C118.339 127.631 118.339 127.279 118.339 127.279C118.339 127.279 117.668 126.608 118.243 126.257C118.786 125.873 119.106 126.64 119.106 126.64Z" fill="#FFC648"/>
<path d="M63.3583 82.4133C63.3583 82.4133 61.377 87.9417 67.7043 92.8309C74.0315 97.7042 84.7048 98.1037 96.161 98.1037C107.617 98.1037 112.506 98.2315 112.506 98.2315C112.506 98.2315 111.723 110.359 110.797 115.488C109.87 120.633 108.815 122.071 109.487 122.598C110.142 123.125 111.723 122.917 115.798 122.917C119.968 122.917 121.678 122.598 122.205 121.943C122.732 121.288 126.215 114.545 127.526 104.671C128.836 94.7802 129.635 89.907 127.398 86.3599C125.161 82.7968 120.815 80.0326 114.488 78.9781C108.16 77.9235 102.36 76.6133 102.36 76.6133L63.3583 82.4133Z" fill="#FFC648"/>
<path d="M69.334 86.999C75.7731 88.437 86.6381 88.8365 93.4447 84.9698C100.251 81.1032 104.022 79.6172 105.444 79.2337C106.866 78.8503 110.957 78.4668 110.957 78.4668L105.332 77.3643L80.0872 81.5026L63.0547 84.5384C63.0547 84.5544 66.1864 86.296 69.334 86.999Z" fill="#FFAA00"/>
<path d="M99.9001 39.0972C99.9001 39.0972 99.7243 34.879 93.3491 33.5368C86.9899 32.1947 85.5519 32.4663 83.0434 34.9749C80.5348 37.4834 79.1927 40.8867 80.439 43.3952C81.6852 45.9038 87.8847 44.29 91.3679 42.9478C94.883 41.6057 98.1904 40.9027 99.9001 39.0972Z" fill="#FFC648"/>
<path d="M99.2609 38.2503C99.2609 38.2503 98.4141 36.0134 95.8257 34.8151C93.8604 33.9043 90.5689 33.2013 88.1243 33.2013C86.0951 33.2013 85.0725 33.7445 84.8329 34.6074C84.5452 35.6299 88.0764 34.7032 91.7673 35.5181C94.2918 36.0773 96.7524 36.7324 97.8549 37.9627C98.51 38.6817 99.1491 39.5286 99.3887 39.3688C99.6923 39.209 99.4527 38.5699 99.2609 38.2503Z" fill="#FFAA00"/>
<path d="M101.993 40.9985C104.677 42.5324 107.201 44.2421 107.201 44.2421C107.201 44.2421 105.06 49.0674 104.805 54.9633C104.549 60.8591 103.782 65.2051 104.421 69.9506C105.06 74.696 105.316 77.3803 105.316 77.3803C105.316 77.3803 96.3523 82.2536 86.0945 83.5318C75.8526 84.81 63.0383 84.5544 63.0383 84.5544C63.0383 84.5544 58.0372 76.1021 68.5507 60.3478C79.0642 44.5936 88.2835 41.5098 91.2234 40.1038C94.1633 38.6977 99.2124 39.4167 99.2124 39.4167L101.993 40.9985Z" fill="#FFC648"/>
<path d="M66.7462 150C74.2204 150 80.2795 143.941 80.2795 136.467C80.2795 128.992 74.2204 122.933 66.7462 122.933C59.272 122.933 53.2129 128.992 53.2129 136.467C53.2129 143.941 59.272 150 66.7462 150Z" fill="#1D5C58"/>
<path d="M66.7462 145.047C71.4848 145.047 75.3263 141.205 75.3263 136.467C75.3263 131.728 71.4848 127.887 66.7462 127.887C62.0075 127.887 58.166 131.728 58.166 136.467C58.166 141.205 62.0075 145.047 66.7462 145.047Z" fill="#DBB38A"/>
<path d="M66.7456 144.136C70.9813 144.136 74.415 140.702 74.415 136.467C74.415 132.231 70.9813 128.797 66.7456 128.797C62.5099 128.797 59.0762 132.231 59.0762 136.467C59.0762 140.702 62.5099 144.136 66.7456 144.136Z" fill="#F9E5D0"/>
<path d="M66.7455 139.534C68.4398 139.534 69.8133 138.161 69.8133 136.467C69.8133 134.772 68.4398 133.399 66.7455 133.399C65.0512 133.399 63.6777 134.772 63.6777 136.467C63.6777 138.161 65.0512 139.534 66.7455 139.534Z" fill="#1D5C58"/>
<path d="M150.039 150C157.513 150 163.572 143.941 163.572 136.467C163.572 128.992 157.513 122.933 150.039 122.933C142.565 122.933 136.506 128.992 136.506 136.467C136.506 143.941 142.565 150 150.039 150Z" fill="#1D5C58"/>
<path d="M150.039 145.047C154.778 145.047 158.619 141.205 158.619 136.467C158.619 131.728 154.778 127.887 150.039 127.887C145.3 127.887 141.459 131.728 141.459 136.467C141.459 141.205 145.3 145.047 150.039 145.047Z" fill="#DBB38A"/>
<path d="M150.039 144.136C154.274 144.136 157.708 140.702 157.708 136.467C157.708 132.231 154.274 128.797 150.039 128.797C145.803 128.797 142.369 132.231 142.369 136.467C142.369 140.702 145.803 144.136 150.039 144.136Z" fill="#F9E5D0"/>
<path d="M150.038 139.534C151.733 139.534 153.106 138.161 153.106 136.467C153.106 134.772 151.733 133.399 150.038 133.399C148.344 133.399 146.971 134.772 146.971 136.467C146.971 138.161 148.344 139.534 150.038 139.534Z" fill="#1D5C58"/>
<path d="M48.0202 124.02C49.6968 124.02 51.056 122.367 51.056 120.329C51.056 118.291 49.6968 116.638 48.0202 116.638C46.3436 116.638 44.9844 118.291 44.9844 120.329C44.9844 122.367 46.3436 124.02 48.0202 124.02Z" fill="#03736D"/>
<path d="M57.1743 115.408C57.1743 115.408 53.3237 115.248 51.4702 115.408C49.6328 115.568 47.9551 116.239 47.9551 116.239V124.148C47.9551 124.148 48.2906 124.627 49.7925 124.627C51.2945 124.627 57.1743 115.408 57.1743 115.408Z" fill="#F9E5D0"/>
<path d="M80.0078 47.0542C80.0078 47.0542 81.9092 47.5974 85.2486 45.9677C87.9329 44.6575 90.745 43.6988 93.3014 42.5804C95.8579 41.4619 99.2293 39.4167 99.2293 39.4167C99.2293 39.4167 87.6772 42.9479 87.1819 43.0757C86.6866 43.2035 82.9318 44.6415 82.9318 44.6415L80.0078 47.0542Z" fill="#FFAA00"/>
<path d="M63.3909 109.416C63.3909 108.905 63.0873 108.473 62.6719 108.266V92.1758C62.6719 91.5687 62.1766 91.0734 61.5694 91.0734H59.3325C58.7253 91.0734 58.23 91.5687 58.23 92.1758V108.154H21.2411C20.5381 108.154 19.9629 108.729 19.9629 109.432C19.9629 110.135 20.5381 110.71 21.2411 110.71H47.413L61.0901 117.725C61.5375 117.948 62.0807 117.772 62.3044 117.341L62.9116 116.159C63.1353 115.711 62.9595 115.168 62.5281 114.944L54.3314 110.726H62.1286C62.8157 110.694 63.3909 110.119 63.3909 109.416Z" fill="#9E9E9F"/>
<path d="M97.1995 45.3126C97.1995 45.3126 100.763 45.4085 101.258 51.6079C101.498 54.5479 101.721 56.7209 101.881 58.2068C102.057 59.7407 102.904 61.1148 104.182 61.9616L104.294 64.1985L98.6056 64.8057L95.6816 62.3771L97.1995 45.3126Z" fill="#FFAA00"/>
<path d="M83.2033 72.1555C83.8903 76.2459 87.1977 78.0194 93.509 77.9715C100.252 77.9235 105.221 76.5814 105.221 76.5814L104.342 71.1329C104.342 71.1329 92.071 71.2607 89.914 68.2249C87.757 65.1891 85.7437 47.9809 85.7437 47.9809C85.7437 47.9809 80.6787 57.1043 83.2033 72.1555Z" fill="#FFAA00"/>
<path d="M94.6282 108.505C94.6282 108.505 92.7109 104.894 79.4812 105.374C66.2514 105.853 59.7644 108.809 54.8911 115.232C50.7049 120.76 48.2283 126.049 46.7743 130.619C45.3363 135.188 44.6173 135.428 46.0553 136.626C47.4933 137.825 83.4916 138.096 83.4916 138.096L87.1506 139.263L118.883 139.023L135.947 136.626L166.241 127.966C166.241 127.966 165.171 120.824 156.894 117.581C152.005 115.663 148.218 116.191 148.218 116.191L132.112 68.8321C132.112 68.8321 130.834 67.3302 128.837 66.0839C126.84 64.8377 123.229 65.4608 120.976 66.9627C118.739 68.4646 123.468 72.4431 125.961 77.0608C128.454 81.6784 131.841 87.5742 131.841 102.514C131.841 117.453 131.841 119.099 131.841 121.863C131.841 124.627 130.627 128.062 127.239 130.699C126.073 131.609 101.914 131.434 99.885 131.434C97.3285 131.434 90.9373 127.391 89.8189 121.495C88.7004 115.6 94.6282 108.505 94.6282 108.505Z" fill="#0FA59D"/>
<path d="M77.4827 111.078C84.513 112.963 86.638 117.373 86.9736 123.604C87.3091 129.516 87.1493 129.852 87.4209 131.657C87.7565 133.958 87.5807 133.351 98.7493 133.591C110.477 133.846 117.396 133.639 122.572 132.568C126.311 131.801 128.34 130.683 130.05 128.19C132.239 124.963 131.712 119.29 131.904 111.222C132.143 100.9 130.21 86.4398 127.781 80.2564C126.247 76.3258 128.996 69.1197 132.127 68.8641C135.275 68.6084 137.576 110.311 137.576 110.311L142.737 114.289C142.737 114.289 148.92 115.983 150.022 116.095C154.768 116.622 155.886 117.373 155.87 117.389C155.87 117.389 151.844 117.389 146.715 128.398C146.156 129.596 145.085 133.974 145.085 133.974C145.085 133.974 138.502 135.955 137.879 136.099C133.885 136.994 132.495 138.544 132.495 138.544L111.979 139.534L87.1973 139.295L83.5064 138.112L80.9339 123.764L69.6056 118.348L60.2425 122.119L52.2056 129.5L48.2111 137.361C48.2111 137.361 47.1566 137.537 46.0701 136.642C44.9836 135.748 44.9836 136.195 46.7891 130.635C48.5946 125.074 52.1577 120.585 57.0469 115.951C61.9361 111.317 72.3538 109.704 77.4827 111.078Z" fill="#03736D"/>
<path d="M70.8836 113.762C79.0483 113.538 83.4103 117.82 84.1453 124.084C84.8803 130.347 83.5062 138.112 83.5062 138.112L48.2109 137.361C48.2109 137.361 50.0484 114.321 70.8836 113.762Z" fill="#0FA59D"/>
<path d="M65.1644 90.3704C65.1644 90.3704 61.6652 89.6354 61.106 92.3996C60.5467 95.1638 61.106 104.559 61.106 106.412C61.106 108.25 65.7396 106.987 69.9737 106.62C74.2079 106.252 80.9665 105.549 85.9357 106.476C90.9048 107.403 94.6117 108.537 94.6117 108.537C94.6117 108.537 96.4811 108.441 98.1428 108.441C99.8045 108.441 100.172 105.118 100.54 102.178C100.907 99.2222 100.06 98.1197 96.1615 98.1197C92.2629 98.1197 71.4277 99.3979 65.1644 90.3704Z" fill="#03736D"/>
<path d="M124.666 69.5192C124.107 71.3886 124.171 71.8679 123.068 71.5484C121.95 71.2448 121.47 71.6123 120.975 72.539C120.48 73.4657 117.156 70.382 117.156 70.382C117.156 70.382 118.211 68.96 120.432 68.1611C122.653 67.3622 123.515 67.7297 124.25 67.9693C124.969 68.209 124.842 68.896 124.666 69.5192Z" fill="#0FA59D"/>
<path d="M119.01 62.1693C120.421 62.1693 121.566 60.2164 121.566 57.8073C121.566 55.3983 120.421 53.4454 119.01 53.4454C117.598 53.4454 116.453 55.3983 116.453 57.8073C116.453 60.2164 117.598 62.1693 119.01 62.1693Z" fill="#0FA59D"/>
<path d="M125.56 58.4784C126.822 58.4784 127.845 56.7329 127.845 54.5798C127.845 52.4266 126.822 50.6812 125.56 50.6812C124.298 50.6812 123.275 52.4266 123.275 54.5798C123.275 56.7329 124.298 58.4784 125.56 58.4784Z" fill="#0FA59D"/>
<path d="M120.336 57.4398C120.336 57.4398 121.662 58.2068 121.95 61.0508C122.237 63.8949 124.89 66.3715 124.89 66.3715L122.589 67.7296C122.589 67.7296 121.374 64.4701 121.103 62.5687C120.815 60.6674 120.16 57.8233 120.16 57.8233L120.336 57.4398Z" fill="#0FA59D"/>
<path d="M123.66 55.2509C123.66 55.2509 123.261 57.4398 123.756 59.9963C124.699 64.8376 126.744 66.3395 126.744 66.3395L129.636 66.9147C129.636 66.9147 126.408 63.7831 125.561 61.8817C124.715 59.9803 124.89 57.0404 124.89 57.0404L123.66 55.2509Z" fill="#0FA59D"/>
<path d="M147.738 82.669H147.482C150.087 82.669 152.196 80.4001 152.196 77.3643V76.6294C152.196 73.4977 150.087 71.1489 147.482 71.1489H147.738V82.669Z" fill="#2D2D2D"/>
<path d="M148.856 83.1483H147.146C144.318 83.1483 142.033 80.8635 142.033 78.0354V75.7665C142.033 72.9384 144.318 70.6536 147.146 70.6536H148.856V83.1483Z" fill="#03736D"/>
<path d="M108.751 65.0294C108.751 65.0294 110.637 65.0773 113.896 65.0773C117.156 65.0773 119.569 64.8377 121.262 64.2784C122.956 63.7192 122.956 63.3837 124.665 64.4702C126.359 65.5567 126.647 65.7963 126.743 66.3556C126.838 66.9148 126.263 69.4233 125.992 70.366C125.704 71.3087 125.193 71.2608 124.905 71.117C124.618 70.9732 124.809 69.5511 124.857 68.9919C124.905 68.4327 124.809 68.0972 124.809 68.0972C124.809 68.0972 123.196 67.6657 122.588 67.7137C121.981 67.7616 120.559 67.7616 119.473 68.5605C118.642 69.1837 118.194 69.6949 116.964 69.9346C116.037 70.1104 114.791 70.1743 113.657 69.7908C112.634 69.4553 107.889 69.7429 107.889 69.7429L108.751 65.0294Z" fill="#FFA171"/>
<path d="M85.3127 52.1671C85.0251 57.0723 83.9865 65.301 85.4725 69.4712C86.2554 71.6762 87.4218 72.507 89.3711 73.5935C92.1992 75.1753 97.4879 74.2007 101.722 74.0888C108.097 73.9291 107.666 71.085 107.666 71.085C107.666 71.085 106.707 69.9825 107.362 67.2982C108.001 64.6139 108.529 64.6778 108.529 64.6778C108.529 64.6778 108.768 62.1853 105.301 62.6966C101.85 63.2079 99.6609 62.9522 99.6609 62.9522C99.6609 62.9522 101.067 54.8834 99.533 48.9875C97.9992 43.0916 94.1485 41.6856 91.5121 42.2927C88.2207 43.0277 85.6962 45.6321 85.3127 52.1671Z" fill="#FFC648"/>
<path d="M110.766 66.8508C111.149 68.209 112.475 68.7362 113.274 69.0079C114.073 69.2795 115.431 69.6949 116.63 69.2316C117.828 68.7682 120.401 68.1451 120.401 68.1451C120.401 68.1451 118.403 69.2955 117.94 69.631C117.477 69.9665 116.294 70.3181 115.431 70.2062C114.585 70.0944 113.498 69.7428 112.987 69.631C112.475 69.5192 108.545 69.6949 108.545 69.6949L108.944 65.7643L109.855 65.0294L110.702 65.0933C110.718 65.0933 110.478 65.8283 110.766 66.8508Z" fill="#F37E4E"/>
<path d="M108.497 64.6459L110.303 64.9335C110.303 64.9335 109.488 65.4128 109.488 67.2183C109.488 69.615 109.999 69.9825 109.999 69.9825L107.586 70.6696C107.586 70.6696 106.324 70.8453 106.324 68.2888C106.324 65.7324 106.804 64.8057 108.497 64.6459Z" fill="#FFC648"/>
<path d="M107.793 64.0228C107.442 64.55 106.435 64.5341 106.18 67.3622C105.924 70.1903 106.036 71.2288 105.589 72.0757C105.141 72.9225 104.885 73.0343 104.63 73.29C104.374 73.5456 103.703 73.9451 103.703 73.9451C103.703 73.9451 105.365 73.8013 106.276 73.1302C107.202 72.4751 107.298 72.2834 107.49 71.8839C107.682 71.4845 107.602 70.8134 107.602 70.8134C107.602 70.8134 107.043 69.8867 107.378 67.6178C107.714 65.333 108.481 64.6459 108.481 64.6459C108.481 64.6459 108.512 64.4222 108.481 64.0228C108.449 63.6233 108.033 63.2239 107.809 63.112C107.618 63.0002 108.097 63.5754 107.793 64.0228Z" fill="#FFAA00"/>
<path d="M118.818 74.3285C120.133 74.3285 121.199 73.2626 121.199 71.9478C121.199 70.633 120.133 69.5671 118.818 69.5671C117.503 69.5671 116.438 70.633 116.438 71.9478C116.438 73.2626 117.503 74.3285 118.818 74.3285Z" fill="#03736D"/>
<path d="M133.359 66.9627C130.227 68.8801 128.885 71.5963 131.122 85.0018C133.359 98.4073 136.443 113.698 134.909 122.294C133.359 130.89 130.962 132.089 126.488 134.837C122.015 137.585 104.343 137.873 98.6709 137.873C92.9987 137.873 83.5078 138.112 83.5078 138.112C83.5078 138.112 83.8593 139.662 84.8819 140.349C85.9205 141.036 127.511 140.349 130.595 140.349C133.694 140.349 139.191 136.051 144.512 127.982C149.832 119.898 152.596 111.317 152.069 99.7974C151.542 88.2773 146.573 78.8343 143.297 74.1847C140.054 69.5352 136.443 65.0613 133.359 66.9627Z" fill="#0FA59D"/>
<path d="M109.247 121.799C109.247 121.799 113.242 107.547 114.951 103.552C116.661 99.5577 117.795 97.2888 116.181 96.8094C114.568 96.3301 106.02 98.0398 106.02 98.0398L112.507 98.2155C112.507 98.2315 109.055 119.514 109.247 121.799Z" fill="#FFAA00"/>
<path d="M48.8025 137.601L83.4906 138.144C84.1137 138.16 84.641 137.809 84.7368 137.33L84.8647 136.642C84.9605 136.147 84.4652 135.796 83.8261 135.716C81.3016 135.412 75.9969 135.204 66.2024 135.141C56.2162 135.077 50.7837 135.013 48.5628 135.268C48.0675 135.332 47.8278 135.492 47.7639 135.876L47.684 136.595C47.6041 137.122 48.1154 137.585 48.8025 137.601Z" fill="#2D2D2D"/>
<path d="M137.863 136.099L166.256 127.982C166.719 127.839 167.007 127.359 166.863 126.88C166.751 126.512 166.592 126.305 166.192 125.777C165.777 125.218 165.233 125.458 165.233 125.458L140.564 133.223C140.564 133.239 139.094 135.3 137.863 136.099Z" fill="#2D2D2D"/>
<path d="M66.346 82.5092C72.0821 82.7329 78.2016 82.669 86.7338 81.2629C97.7746 79.4574 105.204 76.1979 105.204 76.1979L105.316 77.3643C105.316 77.3643 98.9889 81.0392 90.4886 82.8128C81.9884 84.5864 71.0435 84.7302 68.9824 84.7302C66.9212 84.7302 63.0386 84.5384 63.0386 84.5384L62 81.7263C62.016 81.7423 63.5339 82.3974 66.346 82.5092Z" fill="white"/>
<path fill-rule="evenodd" clip-rule="evenodd" d="M108.783 45.0889H109.087C109.982 45.0889 112.602 44.9771 113.353 43.6988C113.689 43.1236 113.609 42.4206 113.113 41.6377C112.714 40.9986 112.171 40.663 111.532 40.6471C109.486 40.5991 107.042 43.9066 106.946 44.0504L106.738 44.322L107.01 44.5297C107.012 44.5309 107.019 44.535 107.029 44.5414C107.148 44.6176 107.796 45.03 108.783 45.0889ZM108.831 44.4019C108.352 44.3699 107.969 44.2421 107.729 44.1303C108.512 43.1236 110.205 41.3181 111.468 41.3341H111.516C111.915 41.3501 112.267 41.5578 112.538 42.0052C112.906 42.5484 112.97 43.0118 112.778 43.3473C112.235 44.2741 109.838 44.4498 108.831 44.4019Z" fill="#FFAA00"/>
<path fill-rule="evenodd" clip-rule="evenodd" d="M107.84 49.6267C108.032 49.7385 108.256 49.7864 108.48 49.7864C108.831 49.7864 109.23 49.6426 109.678 49.355C110.237 48.9716 110.525 48.4922 110.525 47.917C110.541 46.1435 107.761 44.1782 107.441 43.9545L107.153 43.7628L106.962 44.0504C106.96 44.0528 106.957 44.0584 106.952 44.0671C106.886 44.1751 106.528 44.7601 106.498 45.6322C106.498 45.6326 106.498 45.6337 106.498 45.6354C106.497 45.7531 106.47 48.8704 107.84 49.6267ZM107.169 45.6482C107.185 45.2807 107.281 44.9611 107.361 44.7534C108.256 45.4404 109.838 46.8465 109.822 47.917C109.822 48.2685 109.646 48.5561 109.278 48.7958C108.815 49.0994 108.448 49.1793 108.16 49.0195C107.393 48.6041 107.137 46.6228 107.169 45.6482Z" fill="#FFAA00"/>
<path d="M113.034 46.1115C110.11 46.1115 107.665 44.8173 107.553 44.7694C107.393 44.6735 107.33 44.4818 107.409 44.306C107.505 44.1462 107.697 44.0823 107.873 44.1622C107.889 44.1782 110.285 45.4245 113.034 45.4245C115.638 45.4245 116.373 44.4019 116.389 44.3859C116.501 44.2261 116.709 44.1942 116.852 44.29C117.012 44.3859 117.06 44.5936 116.948 44.7534C116.916 44.8173 116.069 46.1115 113.034 46.1115Z" fill="#FFAA00"/>
<path d="M112.171 50.2338C112.139 50.2338 112.091 50.2338 112.059 50.2178C111.883 50.1539 111.787 49.9782 111.851 49.8024C111.851 49.7704 111.883 49.7385 111.915 49.6746C112.075 49.339 112.538 48.3484 111.819 47.5974C110.892 46.6228 108.48 45.4564 108.448 45.4404C108.272 45.3605 108.208 45.1528 108.288 44.993C108.368 44.8173 108.576 44.7534 108.735 44.8333C108.847 44.8812 111.292 46.0636 112.314 47.1341C113.001 47.8531 113.065 48.8118 112.522 49.9622C112.506 49.9941 112.506 50.0101 112.49 50.0261C112.442 50.1379 112.298 50.2338 112.171 50.2338Z" fill="#FFAA00"/>
<path d="M52.207 129.5C52.207 129.5 54.1084 121.431 62.2891 117.309C70.4858 113.187 75.6467 115.775 77.4841 116.798C79.6571 118.012 80.7915 121.368 80.9354 123.748C81.0951 126.145 52.207 129.5 52.207 129.5Z" fill="#51E8E0"/>
<path d="M133.806 69.0239C131.92 70.4779 131.489 73.6575 131.824 77.9715C132.16 82.2856 134.717 95.5472 135.531 101.315C136.362 107.083 136.682 114.193 136.682 117.165C136.682 120.137 136.346 121.783 136.346 121.783C136.346 121.783 138.168 118.476 137.672 111.877C137.177 105.278 137.337 100.484 136.186 93.7258C135.036 86.9671 134.045 80.528 133.87 77.0608C133.71 73.5936 133.71 71.117 135.196 70.1263C136.682 69.1357 135.883 67.4101 133.806 69.0239Z" fill="#51E8E0"/>
<path d="M36.739 118.747C38.928 117.373 40.4778 117.261 41.8679 118.747C43.258 120.233 43.0343 121.847 41.7561 123.013C40.4778 124.18 39.615 124.084 38.88 125.042C38.1291 126.001 35.4607 126.001 34.7258 124.835C33.9588 123.668 33.863 120.569 36.739 118.747Z" fill="#9AC7C5"/>
<path d="M21.9121 118.012C25.0917 116.558 27.1369 116.095 28.8465 116.942C30.5562 117.788 31.8344 118.763 32.154 120.457C32.4735 122.166 32.6812 123.557 31.5148 125.042C30.3484 126.528 29.3738 127.503 27.9997 127.823C26.6096 128.142 25.2195 127.183 24.8041 126.752C24.3727 126.321 23.6377 126.544 23.3182 127.183C22.9986 127.823 21.4967 128.35 20.4421 127.823C19.3716 127.295 19.2757 126.752 19.1639 126.225C19.0521 125.698 18.5248 125.905 18.2052 125.154C17.8537 124.403 17.2146 120.137 21.9121 118.012Z" fill="#9AC7C5"/>
<path d="M0.0382114 116.734C-0.169502 120.185 0.469615 121.639 1.95556 122.598C3.44151 123.557 3.44151 123.988 3.6652 125.058C3.87291 126.129 5.37484 127.519 8.13902 126.976C10.9192 126.449 13.1561 123.78 13.3638 122.598C13.5715 121.415 13.7952 121.112 14.7539 120.888C15.7126 120.68 18.4927 119.402 18.7004 116.191C18.9081 112.995 17.6299 112.132 16.6712 111.717C15.7126 111.285 15.5048 111.509 15.7126 110.55C15.9203 109.592 14.642 107.355 12.4051 107.035C10.1682 106.716 7.81946 107.035 6.31754 109.176C5.24702 110.71 5.56658 111.637 4.92746 112.164C4.30432 112.676 0.245924 113.315 0.0382114 116.734Z" fill="#9AC7C5"/>
<path d="M148.857 83.356C148.585 83.356 148.361 83.1323 148.361 82.8607V71.0051C148.361 70.7335 148.585 70.5098 148.857 70.5098C149.128 70.5098 149.352 70.7335 149.352 71.0051V82.8607C149.352 83.1323 149.128 83.356 148.857 83.356Z" fill="white"/>
<path d="M110.67 130.06L125.513 130.123" stroke="#FFDDA1" stroke-width="0.351185"/>
<path d="M116.118 122.997L115.447 122.869C117.796 111.174 121.199 92.1439 120.304 90.8976C119.33 89.8271 114.984 89.7312 106.308 89.5555C103.607 89.4916 100.54 89.4277 96.9765 89.3318C87.2939 89.0442 83.5391 87.1428 82.0851 85.6089C81.2383 84.6982 81.2383 83.9792 81.2383 83.8993L81.9253 83.9153C81.9253 83.9632 82.1171 88.2133 96.9925 88.6607C100.556 88.7726 103.607 88.8365 106.308 88.8844C115.735 89.0761 119.633 89.172 120.8 90.4662C121.087 90.7858 121.774 91.5527 119.01 107.467C117.684 115.216 116.134 122.917 116.118 122.997Z" fill="#FFDDA1"/>
<path fill-rule="evenodd" clip-rule="evenodd" d="M45.0479 74.4546H30.2793V66.6712C30.2793 64.0258 32.4238 61.8813 35.0691 61.8813H40.2581C42.9034 61.8813 45.0479 64.0258 45.0479 66.6712V74.4546ZM35.0691 64.0767C33.6362 64.0767 32.4746 65.2383 32.4746 66.6712V72.2593H42.8526V66.6712C42.8526 65.2383 41.691 64.0767 40.2581 64.0767H35.0691Z" fill="url(#paint0_linear_548_37098)"/>
<path d="M24.4303 99.8241C24.4642 99.477 24.7677 99.2179 25.1162 99.2337C34.8958 99.6752 40.6486 99.6609 50.4345 99.2318C50.7735 99.2169 51.0718 99.4627 51.1152 99.7992C51.5029 102.808 51.5069 104.72 51.1078 107.745C51.0672 108.052 50.8118 108.288 50.5026 108.31C40.754 108.989 34.9994 109.03 25.029 108.311C24.7183 108.289 24.4624 108.05 24.4253 107.74C24.0634 104.727 24.1382 102.817 24.4303 99.8241Z" fill="#00BCA6"/>
<path d="M24.5129 79.6843C24.5384 79.3306 24.8441 79.0617 25.1984 79.0776C34.9076 79.5156 40.6311 79.5019 50.3384 79.077C50.6956 79.0614 51.0024 79.3356 51.0225 79.6925C51.2017 82.8823 51.2181 84.7967 51.0273 87.5066C51.0043 87.8325 50.7393 88.09 50.4132 88.1091C40.7396 88.6772 35.0096 88.6977 25.1065 88.1082C24.7912 88.0894 24.5307 87.8467 24.4968 87.5326C24.1824 84.6172 24.296 82.6951 24.5129 79.6843Z" fill="#00BCA6"/>
<path d="M23.5169 85.5983C24.2882 85.476 24.7577 85.4431 25.1464 85.7549L26.3681 86.9567C26.82 87.4012 26.5799 88.1502 25.946 88.1459C25.3348 88.1417 24.5828 88.0754 23.4958 87.9311C23.2307 87.896 22.9966 87.7284 22.905 87.4771C22.6929 86.895 22.7063 86.4736 23.009 85.9353C23.1137 85.7491 23.3059 85.6317 23.5169 85.5983Z" fill="#00BCA6"/>
<path d="M52.0121 85.5975C51.3115 85.4846 50.8636 85.4519 50.4379 85.7174C50.3994 85.7414 50.3645 85.7709 50.3322 85.8027L49.1341 86.9814C48.6872 87.4211 48.9182 88.1561 49.5451 88.1494C50.1433 88.1431 50.905 88.0753 52.0286 87.9299C52.295 87.8954 52.531 87.7275 52.6228 87.4751C52.8343 86.8935 52.8204 86.4722 52.5173 85.9339C52.413 85.7486 52.222 85.6313 52.0121 85.5975Z" fill="#00BCA6"/>
<path d="M24.4683 70.3322C24.5184 69.6156 25.1086 69.0549 25.8267 69.037C34.2585 68.8256 39.8739 68.7942 49.7005 69.0368C50.4255 69.0547 51.0194 69.6263 51.0569 70.3506C51.1902 72.9229 51.2036 74.6755 51.0697 76.8815C51.0275 77.5779 50.464 78.1278 49.7675 78.1677C40.6793 78.6875 35.0329 78.705 25.7236 78.1655C25.0501 78.1265 24.4967 77.6094 24.4353 76.9376C24.2174 74.5534 24.2965 72.788 24.4683 70.3322Z" fill="#00BCA6"/>
<path d="M23.5169 75.6193C24.2882 75.497 24.7577 75.4642 25.1464 75.7759L26.3681 76.9777C26.82 77.4223 26.5799 78.1713 25.946 78.1669C25.3348 78.1627 24.5828 78.0964 23.4958 77.9522C23.2307 77.917 22.9966 77.7495 22.905 77.4982C22.6929 76.916 22.7063 76.4946 23.009 75.9563C23.1137 75.7702 23.3059 75.6528 23.5169 75.6193Z" fill="#00BCA6"/>
<path d="M52.0121 75.6188C51.3115 75.5058 50.8636 75.4732 50.4379 75.7386C50.3994 75.7626 50.3645 75.7921 50.3322 75.8239L49.1341 77.0027C48.6872 77.4423 48.9182 78.1773 49.5451 78.1707C50.1433 78.1643 50.905 78.0965 52.0286 77.9511C52.295 77.9166 52.531 77.7488 52.6228 77.4963C52.8343 76.9147 52.8204 76.4935 52.5173 75.9552C52.413 75.7699 52.222 75.6526 52.0121 75.6188Z" fill="#00BCA6"/>
<path d="M24.5129 89.663C24.5384 89.3093 24.8441 89.0404 25.1984 89.0564C34.9076 89.4944 40.6311 89.4807 50.3384 89.0558C50.6956 89.0402 51.0024 89.3143 51.0225 89.6713C51.2017 92.861 51.2181 94.7755 51.0273 97.4854C51.0043 97.8112 50.7393 98.0688 50.4132 98.0879C40.7396 98.656 35.0096 98.6764 25.1065 98.0869C24.7912 98.0681 24.5307 97.8254 24.4968 97.5114C24.1824 94.596 24.296 92.6739 24.5129 89.663Z" fill="#00BCA6"/>
<path d="M23.5169 95.577C24.2882 95.4547 24.7577 95.4219 25.1464 95.7336L26.3681 96.9354C26.82 97.38 26.5799 98.129 25.946 98.1246C25.3348 98.1204 24.5828 98.0541 23.4958 97.9099C23.2307 97.8747 22.9966 97.7072 22.905 97.4559C22.6929 96.8737 22.7063 96.4523 23.009 95.914C23.1137 95.7279 23.3059 95.6105 23.5169 95.577Z" fill="#00BCA6"/>
<path d="M23.9153 105.843C24.6866 105.721 25.1562 105.688 25.5449 106L26.7665 107.201C27.2184 107.646 26.9783 108.395 26.3444 108.391C25.7332 108.386 24.9812 108.32 23.8943 108.176C23.6291 108.141 23.395 107.973 23.3035 107.722C23.0914 107.14 23.1047 106.718 23.4074 106.18C23.5121 105.994 23.7044 105.876 23.9153 105.843Z" fill="#00BCA6"/>
<path d="M52.0121 95.5763C51.3115 95.4634 50.8636 95.4308 50.4379 95.6962C50.3994 95.7202 50.3645 95.7497 50.3322 95.7815L49.1341 96.9603C48.6872 97.3999 48.9182 98.1349 49.5451 98.1283C50.1433 98.1219 50.905 98.0541 52.0286 97.9087C52.295 97.8742 52.531 97.7064 52.6228 97.4539C52.8343 96.8723 52.8204 96.4511 52.5173 95.9128C52.413 95.7275 52.222 95.6102 52.0121 95.5763Z" fill="#00BCA6"/>
<path d="M51.8871 105.837C51.1865 105.724 50.7386 105.691 50.3129 105.957C50.2744 105.981 50.2395 106.01 50.2072 106.042L49.0091 107.221C48.5622 107.66 48.7932 108.395 49.4201 108.389C50.0183 108.382 50.78 108.315 51.9036 108.169C52.17 108.135 52.406 107.967 52.4978 107.714C52.7093 107.133 52.6954 106.711 52.3923 106.173C52.288 105.988 52.097 105.871 51.8871 105.837Z" fill="#00BCA6"/>
<mask id="mask0_548_37098" style="mask-type:alpha" maskUnits="userSpaceOnUse" x="22" y="68" width="31" height="41">
<path d="M24.4303 99.8242C24.4642 99.477 24.7677 99.218 25.1162 99.2337C34.8958 99.6752 40.6486 99.6609 50.4345 99.2319C50.7735 99.217 51.0718 99.4628 51.1152 99.7993C51.5029 102.808 51.5069 104.72 51.1078 107.745C51.0672 108.052 50.8118 108.288 50.5026 108.31C40.754 108.989 34.9994 109.03 25.029 108.311C24.7183 108.289 24.4624 108.05 24.4253 107.74C24.0634 104.727 24.1382 102.817 24.4303 99.8242Z" fill="#00BCA6"/>
<path d="M24.5148 79.6843C24.5403 79.3306 24.8461 79.0617 25.2004 79.0777C34.9096 79.5157 40.6331 79.502 50.3403 79.0771C50.6975 79.0615 51.0044 79.3356 51.0244 79.6926C51.2036 82.8823 51.22 84.7968 51.0292 87.5067C51.0063 87.8325 50.7413 88.0901 50.4152 88.1092C40.7416 88.6773 35.0115 88.6977 25.1084 88.1082C24.7931 88.0894 24.5326 87.8467 24.4988 87.5327C24.1844 84.6173 24.298 82.6952 24.5148 79.6843Z" fill="#00BCA6"/>
<path d="M23.5169 85.5983C24.2882 85.476 24.7577 85.4432 25.1464 85.7549L26.3681 86.9567C26.82 87.4013 26.5799 88.1503 25.946 88.1459C25.3348 88.1417 24.5828 88.0754 23.4958 87.9312C23.2307 87.896 22.9966 87.7285 22.905 87.4772C22.6929 86.895 22.7063 86.4736 23.009 85.9353C23.1137 85.7492 23.3059 85.6318 23.5169 85.5983Z" fill="#00BCA6"/>
<path d="M52.0121 85.5976C51.3115 85.4847 50.8636 85.452 50.4379 85.7174C50.3994 85.7415 50.3645 85.7709 50.3322 85.8028L49.1341 86.9815C48.6872 87.4211 48.9182 88.1562 49.5451 88.1495C50.1433 88.1431 50.905 88.0753 52.0286 87.9299C52.295 87.8955 52.531 87.7276 52.6228 87.4752C52.8343 86.8936 52.8204 86.4723 52.5173 85.934C52.413 85.7487 52.222 85.6314 52.0121 85.5976Z" fill="#00BCA6"/>
<path d="M24.4683 70.3323C24.5184 69.6156 25.1086 69.055 25.8267 69.037C34.2585 68.8257 39.8739 68.7942 49.7005 69.0369C50.4255 69.0548 51.0194 69.6263 51.0569 70.3506C51.1902 72.923 51.2036 74.6756 51.0697 76.8816C51.0275 77.578 50.464 78.1279 49.7675 78.1677C40.6793 78.6876 35.0329 78.7051 25.7236 78.1656C25.0501 78.1265 24.4967 77.6095 24.4353 76.9377C24.2174 74.5534 24.2965 72.788 24.4683 70.3323Z" fill="#00BCA6"/>
<path d="M23.5169 75.6194C24.2882 75.4971 24.7577 75.4642 25.1464 75.776L26.3681 76.9778C26.82 77.4224 26.5799 78.1713 25.946 78.167C25.3348 78.1628 24.5828 78.0965 23.4958 77.9523C23.2307 77.9171 22.9966 77.7495 22.905 77.4982C22.6929 76.9161 22.7063 76.4947 23.009 75.9564C23.1137 75.7703 23.3059 75.6528 23.5169 75.6194Z" fill="#00BCA6"/>
<path d="M52.0121 75.6188C51.3115 75.5059 50.8636 75.4732 50.4379 75.7387C50.3994 75.7627 50.3645 75.7922 50.3322 75.824L49.1341 77.0027C48.6872 77.4424 48.9182 78.1774 49.5451 78.1707C50.1433 78.1644 50.905 78.0966 52.0286 77.9512C52.295 77.9167 52.531 77.7488 52.6228 77.4964C52.8343 76.9148 52.8204 76.4935 52.5173 75.9552C52.413 75.7699 52.222 75.6526 52.0121 75.6188Z" fill="#00BCA6"/>
<path d="M24.5129 89.6631C24.5384 89.3094 24.8441 89.0405 25.1984 89.0565C34.9076 89.4944 40.6311 89.4807 50.3384 89.0559C50.6956 89.0402 51.0024 89.3144 51.0225 89.6714C51.2017 92.8611 51.2181 94.7756 51.0273 97.4854C51.0043 97.8113 50.7393 98.0688 50.4132 98.088C40.7396 98.6561 35.0096 98.6765 25.1065 98.087C24.7912 98.0682 24.5307 97.8255 24.4968 97.5115C24.1824 94.596 24.296 92.6739 24.5129 89.6631Z" fill="#00BCA6"/>
<path d="M23.5169 95.5771C24.2882 95.4548 24.7577 95.4219 25.1464 95.7337L26.3681 96.9355C26.82 97.3801 26.5799 98.129 25.946 98.1247C25.3348 98.1205 24.5828 98.0542 23.4958 97.91C23.2307 97.8748 22.9966 97.7072 22.905 97.4559C22.6929 96.8738 22.7063 96.4524 23.009 95.9141C23.1137 95.728 23.3059 95.6106 23.5169 95.5771Z" fill="#00BCA6"/>
<path d="M23.9153 105.843C24.6866 105.721 25.1562 105.688 25.5449 106L26.7665 107.201C27.2184 107.646 26.9783 108.395 26.3444 108.391C25.7332 108.386 24.9812 108.32 23.8943 108.176C23.6291 108.141 23.395 107.973 23.3035 107.722C23.0914 107.14 23.1047 106.718 23.4074 106.18C23.5121 105.994 23.7044 105.877 23.9153 105.843Z" fill="#00BCA6"/>
<path d="M52.0121 95.5764C51.3115 95.4635 50.8636 95.4308 50.4379 95.6963C50.3994 95.7203 50.3645 95.7498 50.3322 95.7816L49.1341 96.9603C48.6872 97.4 48.9182 98.135 49.5451 98.1283C50.1433 98.122 50.905 98.0541 52.0286 97.9088C52.295 97.8743 52.531 97.7064 52.6228 97.454C52.8343 96.8724 52.8204 96.4511 52.5173 95.9128C52.413 95.7275 52.222 95.6102 52.0121 95.5764Z" fill="#00BCA6"/>
<path d="M51.8871 105.837C51.1865 105.724 50.7386 105.691 50.3129 105.957C50.2744 105.981 50.2395 106.01 50.2072 106.042L49.0091 107.221C48.5622 107.66 48.7932 108.395 49.4201 108.389C50.0183 108.382 50.78 108.315 51.9036 108.169C52.17 108.135 52.406 107.967 52.4978 107.714C52.7093 107.133 52.6954 106.712 52.3923 106.173C52.288 105.988 52.097 105.871 51.8871 105.837Z" fill="#00BCA6"/>
</mask>
<g mask="url(#mask0_548_37098)">
<rect x="22.7793" y="61.6927" width="30.9362" height="47.5443" fill="#00BCA6"/>
<rect x="22.7793" y="61.6927" width="30.9362" height="47.5443" fill="url(#paint1_linear_548_37098)"/>
</g>
<mask id="mask1_548_37098" style="mask-type:alpha" maskUnits="userSpaceOnUse" x="22" y="68" width="31" height="41">
<path d="M24.4303 99.8242C24.4642 99.477 24.7677 99.218 25.1162 99.2337C34.8958 99.6752 40.6486 99.6609 50.4345 99.2319C50.7735 99.217 51.0718 99.4628 51.1152 99.7993C51.5029 102.808 51.5069 104.72 51.1078 107.745C51.0672 108.052 50.8118 108.288 50.5026 108.31C40.754 108.989 34.9994 109.03 25.029 108.311C24.7183 108.289 24.4624 108.05 24.4253 107.74C24.0634 104.727 24.1382 102.817 24.4303 99.8242Z" fill="#00BCA6"/>
<path d="M24.5129 79.6843C24.5384 79.3306 24.8441 79.0617 25.1984 79.0777C34.9076 79.5157 40.6311 79.502 50.3384 79.0771C50.6956 79.0615 51.0024 79.3356 51.0225 79.6926C51.2017 82.8823 51.2181 84.7968 51.0273 87.5067C51.0043 87.8325 50.7393 88.0901 50.4132 88.1092C40.7396 88.6773 35.0096 88.6977 25.1065 88.1082C24.7912 88.0894 24.5307 87.8467 24.4968 87.5327C24.1824 84.6173 24.296 82.6952 24.5129 79.6843Z" fill="#00BCA6"/>
<path d="M23.5169 85.5983C24.2882 85.476 24.7577 85.4432 25.1464 85.7549L26.3681 86.9567C26.82 87.4013 26.5799 88.1503 25.946 88.1459C25.3348 88.1417 24.5828 88.0754 23.4958 87.9312C23.2307 87.896 22.9966 87.7285 22.905 87.4772C22.6929 86.895 22.7063 86.4736 23.009 85.9353C23.1137 85.7492 23.3059 85.6318 23.5169 85.5983Z" fill="#00BCA6"/>
<path d="M52.0121 85.5976C51.3115 85.4847 50.8636 85.452 50.4379 85.7174C50.3994 85.7415 50.3645 85.7709 50.3322 85.8028L49.1341 86.9815C48.6872 87.4211 48.9182 88.1562 49.5451 88.1495C50.1433 88.1431 50.905 88.0753 52.0286 87.9299C52.295 87.8955 52.531 87.7276 52.6228 87.4752C52.8343 86.8936 52.8204 86.4723 52.5173 85.934C52.413 85.7487 52.222 85.6314 52.0121 85.5976Z" fill="#00BCA6"/>
<path d="M24.4683 70.3323C24.5184 69.6156 25.1086 69.055 25.8267 69.037C34.2585 68.8257 39.8739 68.7942 49.7005 69.0369C50.4255 69.0548 51.0194 69.6263 51.0569 70.3506C51.1902 72.923 51.2036 74.6756 51.0697 76.8816C51.0275 77.578 50.464 78.1279 49.7675 78.1677C40.6793 78.6876 35.0329 78.7051 25.7236 78.1656C25.0501 78.1265 24.4967 77.6095 24.4353 76.9377C24.2174 74.5534 24.2965 72.788 24.4683 70.3323Z" fill="#00BCA6"/>
<path d="M23.5169 75.6194C24.2882 75.4971 24.7577 75.4642 25.1464 75.776L26.3681 76.9778C26.82 77.4224 26.5799 78.1713 25.946 78.167C25.3348 78.1628 24.5828 78.0965 23.4958 77.9523C23.2307 77.9171 22.9966 77.7495 22.905 77.4982C22.6929 76.9161 22.7063 76.4947 23.009 75.9564C23.1137 75.7703 23.3059 75.6528 23.5169 75.6194Z" fill="#00BCA6"/>
<path d="M52.0121 75.6188C51.3115 75.5059 50.8636 75.4732 50.4379 75.7387C50.3994 75.7627 50.3645 75.7922 50.3322 75.824L49.1341 77.0027C48.6872 77.4424 48.9182 78.1774 49.5451 78.1707C50.1433 78.1644 50.905 78.0966 52.0286 77.9512C52.295 77.9167 52.531 77.7488 52.6228 77.4964C52.8343 76.9148 52.8204 76.4935 52.5173 75.9552C52.413 75.7699 52.222 75.6526 52.0121 75.6188Z" fill="#00BCA6"/>
<path d="M24.5129 89.6631C24.5384 89.3094 24.8441 89.0405 25.1984 89.0565C34.9076 89.4944 40.6311 89.4807 50.3384 89.0559C50.6956 89.0402 51.0024 89.3144 51.0225 89.6714C51.2017 92.8611 51.2181 94.7756 51.0273 97.4854C51.0043 97.8113 50.7393 98.0688 50.4132 98.088C40.7396 98.6561 35.0096 98.6765 25.1065 98.087C24.7912 98.0682 24.5307 97.8255 24.4968 97.5115C24.1824 94.596 24.296 92.6739 24.5129 89.6631Z" fill="#00BCA6"/>
<path d="M23.5169 95.5771C24.2882 95.4548 24.7577 95.4219 25.1464 95.7337L26.3681 96.9355C26.82 97.3801 26.5799 98.129 25.946 98.1247C25.3348 98.1205 24.5828 98.0542 23.4958 97.91C23.2307 97.8748 22.9966 97.7072 22.905 97.4559C22.6929 96.8738 22.7063 96.4524 23.009 95.9141C23.1137 95.728 23.3059 95.6106 23.5169 95.5771Z" fill="#00BCA6"/>
<path d="M23.9153 105.843C24.6866 105.721 25.1562 105.688 25.5449 106L26.7665 107.201C27.2184 107.646 26.9783 108.395 26.3444 108.391C25.7332 108.386 24.9812 108.32 23.8943 108.176C23.6291 108.141 23.395 107.973 23.3035 107.722C23.0914 107.14 23.1047 106.718 23.4074 106.18C23.5121 105.994 23.7044 105.877 23.9153 105.843Z" fill="#00BCA6"/>
<path d="M52.0121 95.5764C51.3115 95.4635 50.8636 95.4308 50.4379 95.6963C50.3994 95.7203 50.3645 95.7498 50.3322 95.7816L49.1341 96.9603C48.6872 97.4 48.9182 98.135 49.5451 98.1283C50.1433 98.122 50.905 98.0541 52.0286 97.9088C52.295 97.8743 52.531 97.7064 52.6228 97.454C52.8343 96.8724 52.8204 96.4511 52.5173 95.9128C52.413 95.7275 52.222 95.6102 52.0121 95.5764Z" fill="#00BCA6"/>
<path d="M51.8871 105.837C51.1865 105.724 50.7386 105.691 50.3129 105.957C50.2744 105.981 50.2395 106.01 50.2072 106.042L49.0091 107.221C48.5622 107.66 48.7932 108.395 49.4201 108.389C50.0183 108.382 50.78 108.315 51.9036 108.169C52.17 108.135 52.406 107.967 52.4978 107.714C52.7093 107.133 52.6954 106.712 52.3923 106.173C52.288 105.988 52.097 105.871 51.8871 105.837Z" fill="#00BCA6"/>
</mask>
<g mask="url(#mask1_548_37098)">
<g style="mix-blend-mode:darken">
<rect x="45.8594" y="68.8323" width="3.19321" height="39.9152" fill="#03736D"/>
</g>
<g style="mix-blend-mode:darken">
<rect x="44.2852" y="69.0325" width="0.798304" height="39.9152" fill="#03736D"/>
</g>
<g style="mix-blend-mode:darken">
<rect x="42.2871" y="68.9662" width="0.399152" height="39.9152" fill="#03736D"/>
</g>
</g>
<path fill-rule="evenodd" clip-rule="evenodd" d="M30.9453 68.8814C31.0834 68.8814 31.1953 69.1001 31.1953 69.3698V110.393C31.1953 110.663 31.0834 110.881 30.9453 110.881C30.8072 110.881 30.6953 110.663 30.6953 110.393V69.3698C30.6953 69.1001 30.8072 68.8814 30.9453 68.8814Z" fill="#FFC648"/>
<path fill-rule="evenodd" clip-rule="evenodd" d="M37.9453 68.8814C38.0834 68.8814 38.1953 69.1001 38.1953 69.3698V110.393C38.1953 110.663 38.0834 110.881 37.9453 110.881C37.8072 110.881 37.6953 110.663 37.6953 110.393V69.3698C37.6953 69.1001 37.8072 68.8814 37.9453 68.8814Z" fill="#FFC648"/>
<path fill-rule="evenodd" clip-rule="evenodd" d="M38.302 69.2493H38.3819C38.4617 69.2493 38.5416 69.2174 38.5896 69.1694C38.6695 69.1055 38.7174 69.0097 38.7174 68.8978C38.7174 68.77 38.6055 65.8301 37.535 63.5772C36.816 62.0752 35.4899 61.0047 34.2276 60.8929C33.5725 60.829 32.6138 61.0047 31.8309 62.1232C31.1119 63.1458 30.9361 64.1524 31.3036 65.0951C32.3901 67.9232 38.0623 69.2014 38.302 69.2493ZM32.4061 62.5226C32.8535 61.8835 33.3967 61.564 34.0199 61.564C34.0678 61.564 34.1158 61.564 34.1956 61.5799C35.2182 61.6598 36.3367 62.5865 36.9438 63.8808C37.7108 65.5105 37.9505 67.5717 38.0303 68.4824C36.7042 68.1309 32.7576 66.9166 31.9587 64.8554C31.6711 64.1204 31.8149 63.3535 32.4061 62.5226Z" fill="#FFC648"/>
<path fill-rule="evenodd" clip-rule="evenodd" d="M38.1116 69.2973C38.1755 69.3772 38.2714 69.4251 38.3673 69.4251C38.3832 69.4251 38.3832 69.4251 38.3992 69.4091C38.5111 69.4091 41.3072 69.1695 43.5121 68.1469C44.8862 67.5078 45.9408 66.2615 46.2124 64.9832C46.3722 64.2003 46.2284 63.4653 45.781 62.954C44.9821 62.0273 44.0075 61.6758 42.9689 61.9155C40.9397 62.3948 39.0543 65.0951 38.0477 68.9937C38.0157 69.1055 38.0477 69.2174 38.1116 69.2973ZM43.1287 62.5865C43.2884 62.5546 43.4323 62.5386 43.592 62.5386C44.1992 62.5386 44.7584 62.8262 45.2857 63.4014C45.5893 63.7529 45.6851 64.2802 45.5573 64.8554C45.3176 65.9419 44.4069 66.9965 43.2405 67.5397C41.6747 68.2747 39.7413 68.5783 38.8466 68.6901C39.8053 65.3507 41.451 62.97 43.1287 62.5865Z" fill="#FFC648"/>
<path d="M36.5771 69.3293C33.6052 69.3293 30.6174 68.2268 27.7254 67.1563C25.057 66.1816 22.5325 65.2549 20.0559 65.1111C14.5276 64.8075 13.6967 68.5623 13.6648 68.7221C13.6328 68.8979 13.4571 69.0257 13.2653 68.9937C13.0736 68.9618 12.9617 68.786 12.9937 68.5943C13.0097 68.5463 13.9524 64.0885 20.0879 64.424C22.6603 64.5678 25.3446 65.5585 27.949 66.5012C31.3683 67.7634 34.9154 69.0576 38.3027 68.4824C38.4945 68.4505 38.6702 68.5783 38.7022 68.7541C38.7341 68.9458 38.6063 69.1215 38.4306 69.1535C37.8074 69.2813 37.2003 69.3293 36.5771 69.3293Z" fill="#FFC648"/>
<path d="M13.7288 79.9865C8.39218 79.9865 5.75582 75.2571 5.73984 75.1931C5.64398 75.0334 5.70789 74.8257 5.88364 74.7298C6.04342 74.6339 6.25114 74.6978 6.347 74.8736C6.37896 74.9215 9.14314 79.8747 14.7035 79.2515C18.4103 78.8361 20.3756 77.3022 22.6605 75.5447C23.9387 74.554 25.2489 73.5314 26.9905 72.5887C33.1899 69.2334 38.191 68.7061 38.3987 68.6901C38.5905 68.6741 38.7502 68.802 38.7662 68.9937C38.7822 69.1854 38.887 69.3654 38.6953 69.3814C38.6474 69.3814 33.3657 69.9045 27.3101 73.1799C25.6164 74.0907 24.3222 75.0973 23.0599 76.0719C20.7911 77.8295 18.666 79.4912 14.7674 79.9226C14.4159 79.9705 14.0643 79.9865 13.7288 79.9865Z" fill="#FFC648"/>
<defs>
<linearGradient id="paint0_linear_548_37098" x1="29.0241" y1="64.5017" x2="48.9508" y2="82.5542" gradientUnits="userSpaceOnUse">
<stop stop-color="#52BEB8"/>
<stop offset="1" stop-color="#03736D"/>
</linearGradient>
<linearGradient id="paint1_linear_548_37098" x1="33.3418" y1="76.0099" x2="50.3974" y2="108.893" gradientUnits="userSpaceOnUse">
<stop stop-color="#52BEB8"/>
<stop offset="1" stop-color="#308B85"/>
</linearGradient>
</defs>
</svg>
