<svg width="168" height="168" viewBox="0 0 168 168" fill="none" xmlns="http://www.w3.org/2000/svg">
<rect width="168" height="168" rx="84" fill="#DB8C0E" fill-opacity="0.2"/>
<path d="M94.75 58.125V61.5L92.5 60.375L90.25 61.5L88 60.375L85.75 61.5V58.125V49.125H94.75V58.125Z" fill="#E2DEDE"/>
<path d="M92.5 49.125V57.5062C92.5 57.8854 92.2862 58.2319 91.9465 58.4018L90.7529 58.998C90.4356 59.1566 90.0633 59.1566 89.7471 58.998L88.5029 58.3759C88.1856 58.2172 87.8133 58.2172 87.4971 58.3759L85.75 59.25V61.5L88 60.375L90.25 61.5L92.5 60.375L94.75 61.5V59.25V49.125H92.5Z" fill="#D3BEBE"/>
<path d="M90.25 105.375V111C90.25 111.619 89.7437 112.125 89.125 112.125H77.875C77.2562 112.125 76.75 111.619 76.75 111V105.375H80.125H80.2263H90.25Z" fill="#FFCA3A"/>
<path d="M90.25 105.375V111C90.25 111.619 89.7437 112.125 89.125 112.125H77.875C77.2562 112.125 76.75 111.619 76.75 111V109.875H86.875C87.4937 109.875 88 109.369 88 108.75V105.375H90.25Z" fill="#FF9700"/>
<path d="M118.375 106.5V117.75C118.375 118.369 117.869 118.875 117.25 118.875H49.75C49.1312 118.875 48.625 118.369 48.625 117.75V106.5C48.625 105.881 49.1312 105.375 49.75 105.375H53.0237H76.75V111C76.75 111.619 77.2563 112.125 77.875 112.125H89.125C89.7438 112.125 90.25 111.619 90.25 111V105.375H108.25H117.25C117.869 105.375 118.375 105.881 118.375 106.5Z" fill="#E89A10"/>
<path d="M76.75 105.375V108.75H49.75C49.1312 108.75 48.625 109.256 48.625 109.875V106.5C48.625 105.881 49.1312 105.375 49.75 105.375H76.75Z" fill="#EFAB48"/>
<path d="M108.362 108.75H90.25V105.375H110.77C111.24 105.375 111.625 105.881 111.625 106.5C111.11 107.855 109.811 108.75 108.362 108.75Z" fill="#EFAB48"/>
<path d="M118.375 106.5V117.75C118.375 118.369 117.869 118.875 117.25 118.875H49.75C49.1312 118.875 48.625 118.369 48.625 117.75V115.5H104.875C110.444 115.5 115 110.944 115 105.375H117.25C117.869 105.375 118.375 105.881 118.375 106.5Z" fill="#C97700"/>
<path d="M82.375 93L81.34 104.351C81.295 104.936 80.8 105.375 80.2262 105.375H80.125H76.75H53.0237C52.45 105.375 51.955 104.936 51.91 104.351L50.875 93H62.125V96.375C62.125 96.9938 62.6313 97.5 63.25 97.5H70C70.6187 97.5 71.125 96.9938 71.125 96.375V93H82.375Z" fill="#E89A10"/>
<path d="M71.125 93V96.375C71.125 96.9938 70.6187 97.5 70 97.5H63.25C62.6312 97.5 62.125 96.9938 62.125 96.375V93H71.125Z" fill="#FFCA3A"/>
<path d="M71.125 93V96.375C71.125 96.9938 70.6187 97.5 70 97.5H63.25C62.6312 97.5 62.125 96.9938 62.125 96.375V95.25H67.75C68.3688 95.25 68.875 94.7437 68.875 94.125V93H71.125Z" fill="#FF9700"/>
<path d="M82.3744 93H79.9219H73.3744H71.1244V95.25V96.375C71.1244 96.9938 70.6181 97.5 69.9994 97.5H64.3744C64.3744 98.1188 64.8806 98.625 65.4994 98.625H72.2494C72.8681 98.625 73.3744 98.1188 73.3744 97.5V95.25H78.483C79.1445 95.25 79.6631 95.8181 79.6035 96.4774L79.0894 102.101C79.0444 102.686 78.5494 103.125 77.9756 103.125H51.7969L51.9094 104.351C51.9544 104.936 52.4494 105.375 53.0231 105.375H80.2256C80.7994 105.375 81.2944 104.936 81.3394 104.351L82.1696 95.25H82.1719L82.3744 93Z" fill="#C97700"/>
<path d="M62.125 93H50.875L51.0775 95.25H62.125V93Z" fill="#C97700"/>
<path d="M84.5792 91.5825C84.7817 92.2913 84.2304 93 83.4767 93H82.3742H71.1242H62.1242H50.8742H49.7717C49.018 93 48.4667 92.2913 48.6692 91.5825L51.4817 81.4575C51.6167 80.9625 52.0667 80.625 52.5842 80.625H67.2767H80.6642C81.1817 80.625 81.6317 80.9625 81.7667 81.4575L84.5792 91.5825Z" fill="#EFAB48"/>
<path d="M71.6968 82.875H51.0879L51.4794 81.4643C51.6178 80.9681 52.0689 80.625 52.5841 80.625H71.6641C72.1794 80.625 72.6305 80.9681 72.7689 81.4643C72.9658 82.173 72.4325 82.875 71.6968 82.875Z" fill="#EFBD7B"/>
<path d="M83.4767 93H49.7717C49.018 93 48.4667 92.2913 48.6692 91.5825L48.9055 90.75H80.1017C80.8554 90.75 81.4067 90.0413 81.2042 89.3325L78.7854 80.625H80.6642C81.1817 80.625 81.6317 80.9625 81.7667 81.4575L84.5792 91.5825C84.7817 92.2913 84.2304 93 83.4767 93Z" fill="#E89A10"/>
<path d="M116.125 96.375L117.25 105.375H108.25L109.375 96.375L111.625 58.125H112.75L115 49.125L116.125 96.375Z" fill="#D1800B"/>
<path d="M116.125 96.375L117.25 105.375H108.25L109.375 96.375L111.625 58.125H112.75L115 49.125L116.125 96.375Z" fill="#D1800B"/>
<path d="M116.125 96.375L115.559 72.6217C113.137 81.9356 116.501 93.036 111.415 100.301L111.625 98.625L113.875 60.375H115L115.248 59.3962L115 49.125L112.75 58.125H111.625L109.375 96.375L108.25 105.375H110.781H117.25L116.125 96.375Z" fill="#AD6207"/>
<path d="M85.75 49.125V58.125H68.875H67.75L70 49.125H85.75Z" fill="#EFAB48"/>
<path d="M85.75 49.125V51.375H69.4375L70 49.125H85.75Z" fill="#EFBD7B"/>
<path d="M115 49.125L112.75 58.125H111.625H94.75V49.125H115Z" fill="#EFAB48"/>
<path d="M110.15 50.5234C110.025 51.024 109.575 51.375 109.059 51.375H94.75V49.125H109.059C109.791 49.125 110.328 49.8124 110.15 50.5234Z" fill="#EFBD7B"/>
<path d="M111.625 58.125L109.375 96.375L108.25 105.375H90.2498H80.2261C80.7998 105.375 81.2948 104.936 81.3398 104.351L82.3748 93H83.4773C84.2311 93 84.7823 92.2913 84.5798 91.5825L81.7673 81.4575C81.6323 80.9625 81.1823 80.625 80.6648 80.625H67.2773L68.8748 58.125H85.7498V61.5L87.9998 60.375L90.2498 61.5L92.4998 60.375L94.7498 61.5V58.125H111.625Z" fill="#E89A10"/>
<path d="M111.625 58.125L109.375 96.375L108.25 105.375H82.4761C83.0498 105.375 83.5448 104.936 83.5898 104.351L84.6248 93H85.7273C86.4811 93 87.0323 92.2913 86.8298 91.5825L84.0173 81.4575C83.8823 80.9625 83.4323 80.625 82.9148 80.625H67.2773L68.8748 58.125H85.7498V61.5L87.9998 60.375L90.2498 61.5L92.4998 60.375L94.7498 61.5V58.125H111.625Z" fill="#DB8C0E"/>
<path d="M109.025 64.8041L107.125 93C106.483 98.1413 102.112 102 96.9306 102H86.7156C85.1529 102 83.9278 100.658 84.0696 99.1009L84.6253 93H85.7278C86.4816 93 87.0328 92.2913 86.8303 91.5825L84.0178 81.4575C83.8828 80.9625 83.4328 80.625 82.9153 80.625H80.6653C81.1828 80.625 81.6328 80.9625 81.7678 81.4575L84.5803 91.5825C84.7828 92.2913 84.2316 93 83.4778 93H82.3753L81.5552 102L81.3403 104.351C81.2953 104.936 80.8003 105.375 80.2266 105.375H82.4766H108.25L109.375 96.375L111.354 62.733C110.144 62.6734 109.108 63.5948 109.025 64.8041Z" fill="#BC6D04"/>
<path d="M90.25 61.5L88 60.375L85.75 61.5V61.9297C85.75 62.7656 86.6297 63.3101 87.3779 62.9355L88 62.625L89.7471 63.498C90.0633 63.6566 90.4367 63.6566 90.7529 63.498L92.5 62.625L93.1221 62.9355C93.8703 63.3101 94.75 62.7656 94.75 61.9297V61.5L92.5 60.375L90.25 61.5Z" fill="#C97700"/>
<path d="M111.625 58.125H97H94.75V60.375V61.5L95.551 61.9005C96.217 62.2335 97 61.7498 97 61.005V60.375H111.49L111.625 58.125Z" fill="#C97700"/>
<path d="M85.7493 58.125H68.8743L68.7168 60.375H85.7493V58.125Z" fill="#C97700"/>
<path d="M87.6094 52.8634V54.9255C87.6094 56.3734 89.8594 56.3756 89.8594 54.9255V52.8634C89.8594 51.4155 87.6094 51.4133 87.6094 52.8634Z" fill="#F9F4F4"/>
</svg>
