<svg width="168" height="168" viewBox="0 0 168 168" fill="none" xmlns="http://www.w3.org/2000/svg">
<rect width="168" height="168" rx="84" fill="#FFBA00" fill-opacity="0.2"/>
<g clip-path="url(#clip0_548_37859)">
<path fill-rule="evenodd" clip-rule="evenodd" d="M69.6583 111.314V101.354C69.6583 101.012 69.3794 100.733 69.0362 100.733L59.0766 100.732C58.734 100.732 58.4551 101.011 58.4551 101.354V111.313C58.4551 111.656 58.734 111.935 59.0766 111.935L69.0362 111.935C69.3794 111.935 69.6583 111.656 69.6583 111.314Z" fill="#FFBA00"/>
<path fill-rule="evenodd" clip-rule="evenodd" d="M59.0766 69.043H69.0362C69.3794 69.043 69.6583 68.7639 69.6583 68.4207V58.4619C69.6583 58.1187 69.3794 57.8398 69.0362 57.8398H59.0766C58.734 57.8398 58.4551 58.1187 58.4551 58.4619V68.4207C58.4551 68.7639 58.734 69.043 59.0766 69.043Z" fill="#FFBA00"/>
<path fill-rule="evenodd" clip-rule="evenodd" d="M77.838 60.4589L110.336 60.4591C110.876 60.4591 111.316 60.0194 111.316 59.4786C111.316 58.9377 110.876 58.498 110.336 58.498L77.838 58.4979C77.2975 58.4979 76.8574 58.9376 76.8574 59.4784C76.8574 60.0193 77.2972 60.4589 77.838 60.4589Z" fill="#FFBA00"/>
<path fill-rule="evenodd" clip-rule="evenodd" d="M110.336 66.4237H77.838C77.2975 66.4237 76.8574 66.8635 76.8574 67.4043C76.8574 67.9451 77.2972 68.3849 77.838 68.3849H110.336C110.876 68.3849 111.316 67.9451 111.316 67.4043C111.316 66.8635 110.876 66.4237 110.336 66.4237Z" fill="#FFBA00"/>
<path fill-rule="evenodd" clip-rule="evenodd" d="M110.336 101.39L77.838 101.39C77.2975 101.39 76.8574 101.83 76.8574 102.37C76.8574 102.91 77.2972 103.35 77.838 103.35L110.336 103.35C110.876 103.35 111.316 102.911 111.316 102.37C111.316 101.83 110.876 101.39 110.336 101.39Z" fill="#FFBA00"/>
<path fill-rule="evenodd" clip-rule="evenodd" d="M110.336 109.316L77.838 109.316C77.2975 109.316 76.8574 109.756 76.8574 110.296C76.8574 110.837 77.2972 111.276 77.838 111.276L110.336 111.276C110.876 111.276 111.316 110.837 111.316 110.297C111.316 109.756 110.876 109.316 110.336 109.316Z" fill="#FFBA00"/>
<path fill-rule="evenodd" clip-rule="evenodd" d="M109.449 111.72H76.9508C75.677 111.72 74.6405 110.684 74.6405 109.41C74.6405 108.135 75.677 107.099 76.9508 107.099H109.449C110.723 107.099 111.76 108.135 111.76 109.41C111.76 110.684 110.723 111.72 109.449 111.72ZM68.1496 69.4862H58.19C57.1139 69.4862 56.2383 68.6104 56.2383 67.5339V57.5753C56.2383 56.4987 57.114 55.623 58.19 55.623H68.1496C69.2261 55.623 70.1018 56.4987 70.1018 57.5753V67.5341C70.1016 68.6104 69.2257 69.4862 68.1496 69.4862ZM58.19 56.9532C57.8474 56.9532 57.5685 57.2321 57.5685 57.5753V67.5341C57.5685 67.8773 57.8474 68.1563 58.19 68.1563H68.1496C68.4928 68.1563 68.7716 67.8773 68.7716 67.5341V57.5753C68.7716 57.2321 68.4928 56.9532 68.1496 56.9532H58.19ZM109.449 60.9021H76.9507C75.677 60.9021 74.6405 59.8657 74.6405 58.592C74.6405 57.3181 75.677 56.2817 76.9507 56.2817L109.449 56.2816C110.723 56.2816 111.759 57.318 111.759 58.5917C111.759 59.8656 110.723 60.9021 109.449 60.9021ZM76.9507 57.6113C76.4102 57.6113 75.9701 58.051 75.9701 58.5917C75.9701 59.1326 76.41 59.5723 76.9507 59.5723L109.449 59.5724C109.989 59.5724 110.429 59.1328 110.429 58.592C110.429 58.0511 109.989 57.6114 109.449 57.6114L76.9507 57.6113ZM109.449 68.8279H76.9507C75.677 68.8279 74.6405 67.7915 74.6405 66.5176C74.6405 65.2439 75.677 64.2074 76.9507 64.2074L109.449 64.2073C110.723 64.2073 111.759 65.2436 111.759 66.5175C111.759 67.7913 110.723 68.8279 109.449 68.8279ZM76.9507 65.5371C76.4102 65.5371 75.9701 65.9769 75.9701 66.5177C75.9701 67.0584 76.41 67.4982 76.9507 67.4982H109.449C109.989 67.4982 110.429 67.0584 110.429 66.5177C110.429 65.9769 109.989 65.5371 109.449 65.5371H76.9507ZM68.1496 90.9324H58.1901C57.1139 90.9324 56.2383 90.0567 56.2383 88.9802V79.021C56.2383 77.9445 57.1141 77.0687 58.1901 77.0687H68.1496C69.2262 77.0687 70.1019 77.9445 70.1019 79.021V88.9799C70.1017 90.0563 69.2258 90.9324 68.1496 90.9324ZM58.1901 78.3995C57.8474 78.3995 57.5685 78.6784 57.5685 79.0215V88.9804C57.5685 89.3232 57.8474 89.6021 58.1901 89.6021L68.1496 89.6022C68.4928 89.6022 68.7717 89.3233 68.7717 88.9807V79.021C68.7717 78.6778 68.4928 78.3989 68.1496 78.3989L58.1901 78.3995ZM109.449 82.3485H76.9508C75.677 82.3485 74.6405 81.312 74.6405 80.0383C74.6405 78.7639 75.677 77.7275 76.9508 77.7275L109.449 77.7273C110.723 77.7273 111.76 78.7637 111.76 80.038C111.76 81.312 110.723 82.3485 109.449 82.3485ZM76.9508 79.0572C76.4103 79.0572 75.9702 79.4972 75.9702 80.0377C75.9702 80.5781 76.41 81.0182 76.9508 81.0182H109.449C109.989 81.0182 110.429 80.5785 110.429 80.0377C110.429 79.497 109.989 79.0572 109.449 79.0572H76.9508ZM109.449 90.2742H76.9508C75.677 90.2742 74.6405 89.2378 74.6405 87.9634C74.6405 86.6891 75.677 85.6526 76.9508 85.6526H109.449C110.723 85.6526 111.76 86.6891 111.76 87.9634C111.76 89.2378 110.723 90.2742 109.449 90.2742ZM76.9508 86.9835C76.4103 86.9835 75.9702 87.4232 75.9702 87.9634C75.9702 88.5037 76.41 88.9435 76.9508 88.9435L109.449 88.9436C109.989 88.9436 110.429 88.5039 110.429 87.9637C110.429 87.4233 109.989 86.9836 109.449 86.9836L76.9508 86.9835ZM68.1497 112.378H58.1902C57.114 112.378 56.2384 111.502 56.2384 110.426V100.467C56.2384 99.3902 57.1141 98.5141 58.1902 98.5141H68.1497C69.2263 98.5141 70.102 99.3899 70.102 100.467V110.426C70.1017 111.503 69.2259 112.378 68.1497 112.378ZM58.1902 99.8457C57.8475 99.8457 57.5686 100.125 57.5686 100.467V110.427C57.5686 110.77 57.8475 111.048 58.1902 111.048L68.1497 111.049C68.4929 111.049 68.7718 110.77 68.7718 110.427V100.468C68.7718 100.125 68.4929 99.8459 68.1497 99.8459L58.1902 99.8457ZM109.449 103.794H76.9509C75.6771 103.794 74.6406 102.758 74.6406 101.484C74.6406 100.209 75.6771 99.1727 76.9509 99.1727H109.449C110.723 99.1727 111.76 100.209 111.76 101.484C111.76 102.758 110.723 103.794 109.449 103.794ZM76.9509 100.503C76.4104 100.503 75.9703 100.943 75.9703 101.484C75.9703 102.024 76.4101 102.464 76.9509 102.464L109.449 102.464C109.989 102.464 110.429 102.024 110.429 101.484C110.429 100.943 109.989 100.504 109.449 100.504L76.9509 100.503ZM76.9509 108.43C76.4104 108.43 75.9703 108.869 75.9703 109.41C75.9703 109.95 76.4101 110.39 76.9509 110.39L109.449 110.39C109.989 110.39 110.429 109.95 110.429 109.41C110.429 108.87 109.989 108.43 109.449 108.43L76.9509 108.43Z" fill="#010103"/>
<path fill-rule="evenodd" clip-rule="evenodd" d="M58.1899 89.6019L68.1494 89.602C68.4926 89.602 68.7715 89.3231 68.7715 88.9805V79.0208C68.7715 78.6776 68.4926 78.3987 68.1494 78.3987L58.1899 78.3992C57.8473 78.3992 57.5684 78.6781 57.5684 79.0213V88.9802C57.5684 89.323 57.8473 89.6019 58.1899 89.6019Z" fill="white"/>
<path fill-rule="evenodd" clip-rule="evenodd" d="M109.449 79.057H76.9513C76.4108 79.057 75.9707 79.497 75.9707 80.0376C75.9707 80.5779 76.4105 81.018 76.9513 81.018H109.449C109.99 81.018 110.429 80.5783 110.429 80.0376C110.429 79.4968 109.99 79.057 109.449 79.057Z" fill="white"/>
<path fill-rule="evenodd" clip-rule="evenodd" d="M109.449 86.9834L76.9513 86.9833C76.4108 86.9833 75.9707 87.423 75.9707 87.9632C75.9707 88.5035 76.4105 88.9433 76.9513 88.9433L109.449 88.9434C109.99 88.9434 110.429 88.5037 110.429 87.9635C110.429 87.4231 109.99 86.9834 109.449 86.9834Z" fill="white"/>
</g>
<rect x="49.039" y="49.0391" width="69.9225" height="69.9225" rx="3.81007" stroke="#2D2D2D" stroke-width="2.07822" stroke-linejoin="round"/>
<defs>
<clipPath id="clip0_548_37859">
<rect width="56.7604" height="56.7604" fill="white" transform="translate(55.6191 55.6202)"/>
</clipPath>
</defs>
</svg>
