<svg width="168" height="168" viewBox="0 0 168 168" fill="none" xmlns="http://www.w3.org/2000/svg">
<rect width="168" height="168" rx="84" fill="#03736D" fill-opacity="0.2"/>
<path d="M118.837 111.2H48.6484V113.691C48.6484 116.295 50.7994 118.446 53.4032 118.446H113.969C116.573 118.446 118.724 116.295 118.724 113.691V111.2H118.837Z" fill="#00ADA4"/>
<path d="M113.968 119.691H53.4024C50.1194 119.691 47.5156 116.974 47.5156 113.804V111.314C47.5156 110.634 47.9685 110.181 48.6477 110.181H118.836C119.516 110.181 119.968 110.634 119.968 111.314V113.804C119.968 117.087 117.251 119.691 113.968 119.691ZM49.7798 112.332V113.691C49.7798 115.729 51.4779 117.314 53.4024 117.314H113.968C116.006 117.314 117.591 115.615 117.591 113.691V112.332H49.7798Z" fill="#143534"/>
<path d="M89.9689 114.936H77.4029C76.2708 114.936 75.252 114.031 75.252 112.785V111.314H92.1199V112.785C92.1199 113.917 91.2142 114.936 89.9689 114.936Z" fill="white"/>
<path d="M114.194 112.332H53.2883C52.6091 112.332 52.1562 111.88 52.1562 111.2V74.0683C52.1562 71.2381 54.5336 68.8607 57.3638 68.8607H59.1751C59.8544 68.8607 60.3072 69.3136 60.3072 69.9928C60.3072 70.6721 59.8544 71.1249 59.1751 71.1249H57.3638C55.7789 71.1249 54.4204 72.4834 54.4204 74.0683V110.068H113.062V74.0683C113.062 72.4834 111.703 71.1249 110.119 71.1249H104.571C103.892 71.1249 103.439 70.6721 103.439 69.9928C103.439 69.3136 103.892 68.8607 104.571 68.8607H110.119C112.949 68.8607 115.326 71.2381 115.326 74.0683V111.2C115.326 111.88 114.76 112.332 114.194 112.332Z" fill="#143534"/>
<path d="M111.931 116.068H108.534C107.855 116.068 107.402 115.615 107.402 114.936C107.402 114.257 107.855 113.804 108.534 113.804H111.931C112.61 113.804 113.063 114.257 113.063 114.936C113.063 115.615 112.497 116.068 111.931 116.068Z" fill="#143534"/>
<path d="M111.48 63.54C115.544 63.54 118.838 60.2455 118.838 56.1815C118.838 52.1175 115.544 48.823 111.48 48.823C107.416 48.823 104.121 52.1175 104.121 56.1815C104.121 60.2455 107.416 63.54 111.48 63.54Z" fill="#00ADA4"/>
<path d="M111.479 64.6721C106.837 64.6721 102.988 60.823 102.988 56.1815C102.988 51.54 106.837 47.6909 111.479 47.6909C116.12 47.6909 119.969 51.4268 119.969 56.1815C119.969 60.9362 116.234 64.6721 111.479 64.6721ZM111.479 49.9551C108.083 49.9551 105.252 52.7853 105.252 56.1815C105.252 59.5777 108.083 62.4079 111.479 62.4079C114.875 62.4079 117.705 59.5777 117.705 56.1815C117.705 52.7853 114.988 49.9551 111.479 49.9551Z" fill="#143534"/>
<path d="M110.346 59.3513C110.006 59.3513 109.78 59.2381 109.553 59.0117L107.855 57.3136C107.402 56.8607 107.402 56.1815 107.855 55.7287C108.308 55.2758 108.987 55.2758 109.44 55.7287L110.346 56.6343L113.629 53.3513C114.082 52.8985 114.761 52.8985 115.214 53.3513C115.667 53.8041 115.667 54.4834 115.214 54.9362L111.138 59.0117C110.912 59.2381 110.572 59.3513 110.346 59.3513Z" fill="white"/>
<path d="M63.9316 87.3136H76.0448V68.5211C76.0448 66.257 74.2335 64.4456 71.9694 64.4456C69.7052 64.4456 67.8939 66.257 67.8939 68.5211V83.2381" fill="#00ADA4"/>
<path d="M76.0441 88.4456H63.9309C63.2517 88.4456 62.7988 87.9928 62.7988 87.3136C62.7988 86.6343 63.2517 86.1815 63.9309 86.1815H74.912V68.5211C74.912 66.9362 73.5535 65.5777 71.9686 65.5777C70.3837 65.5777 69.0252 66.9362 69.0252 68.5211V83.2381C69.0252 83.9173 68.5724 84.3702 67.8932 84.3702C67.2139 84.3702 66.7611 83.9173 66.7611 83.2381V68.5211C66.7611 65.6909 69.0252 63.3136 71.9686 63.3136C74.912 63.3136 77.1762 65.5777 77.1762 68.5211V87.3136C77.1762 87.9928 76.7234 88.4456 76.0441 88.4456Z" fill="#143534"/>
<path d="M79.7793 106.106C78.534 106.106 77.2888 105.653 76.3831 104.634C75.4774 103.729 74.9114 102.483 74.9114 101.238V68.5211C74.9114 67.8419 75.3642 67.389 76.0435 67.389C76.7227 67.389 77.1756 67.8419 77.1756 68.5211V101.238C77.1756 101.917 77.402 102.597 77.968 103.049C78.4208 103.502 79.1001 103.842 79.7793 103.842H100.836C102.308 103.842 103.44 102.71 103.44 101.238V68.2947C103.44 66.823 102.308 65.6909 100.836 65.6909H71.968C71.2888 65.6909 70.8359 65.2381 70.8359 64.5588C70.8359 63.8796 71.2888 63.4268 71.968 63.4268H100.723C103.44 63.4268 105.591 65.5777 105.591 68.2947V101.351C105.591 104.068 103.44 106.219 100.723 106.219L79.7793 106.106Z" fill="#143534"/>
<path d="M91.7799 53.1249V64.5588H71.9686C69.3648 64.7853 68.1195 66.3702 67.8931 68.7475V83.2381C67.8931 85.5022 66.0818 87.3136 63.8177 87.3136C61.5535 87.3136 59.7422 85.5022 59.7422 83.2381V53.1249C59.7422 51.0871 61.4403 49.389 63.478 49.389H87.9309C90.0818 49.389 91.7799 51.0871 91.7799 53.1249Z" fill="#BCE3E0"/>
<path d="M63.9302 88.4456C61.1 88.4456 58.7227 86.1815 58.7227 83.2381V53.1249C58.7227 50.4079 60.8736 48.257 63.5906 48.257H88.0434C89.2887 48.257 90.534 48.7098 91.4396 49.7287C92.3453 50.6343 92.9113 51.8796 92.9113 53.1249V64.5588C92.9113 65.2381 92.4585 65.6909 91.7793 65.6909H71.9679C70.1566 65.8041 69.251 66.823 69.0245 68.8607V83.2381C69.1378 86.1815 66.7604 88.4456 63.9302 88.4456ZM88.0434 50.5211H63.5906C62.1189 50.5211 60.9868 51.6532 60.9868 53.1249V83.2381C60.9868 84.823 62.3453 86.1815 63.9302 86.1815C65.5151 86.1815 66.8736 84.823 66.8736 83.2381V68.7475C67.3264 64.5588 69.817 63.54 71.9679 63.4268H90.6472V53.1249C90.6472 52.4456 90.4208 51.7664 89.8547 51.3136C89.4019 50.8607 88.7227 50.5211 88.0434 50.5211Z" fill="#143534"/>
<path d="M100.046 97.389L95.8574 93.2004L113.857 75.2004C114.537 74.5211 115.669 74.5211 116.461 75.2004L118.046 76.7853C118.725 77.4645 118.725 78.5966 118.046 79.389L100.046 97.389Z" fill="#BCE3E0"/>
<path d="M100.045 98.5211C99.7057 98.5211 99.4793 98.4079 99.2529 98.1815L95.0642 93.9928C94.6114 93.54 94.6114 92.8607 95.0642 92.4079L113.064 74.4079C114.196 73.2758 116.121 73.2758 117.253 74.4079L118.838 75.9928C119.404 76.5588 119.743 77.2381 119.743 78.0305C119.743 78.823 119.404 79.6154 118.838 80.0683L100.838 98.1815C100.611 98.4079 100.385 98.5211 100.045 98.5211ZM97.4416 93.2003L100.045 95.8041L117.253 78.5966C117.366 78.4834 117.479 78.257 117.479 78.1437C117.479 77.9173 117.366 77.8041 117.253 77.6909L115.668 76.106C115.442 75.8796 114.989 75.8796 114.649 76.106L97.4416 93.2003Z" fill="#143534"/>
<path d="M94.6106 99.8796C94.271 99.8796 94.0446 99.7664 93.8181 99.54C93.5917 99.3135 93.4785 98.8607 93.4785 98.5211L94.7238 93.0871C94.837 92.5211 95.5163 92.0683 96.0823 92.2947C96.6483 92.4079 97.1012 93.0871 96.8747 93.6532L95.9691 97.389L99.7049 96.4834C100.271 96.3702 100.95 96.7098 101.063 97.2758C101.177 97.8419 100.837 98.5211 100.271 98.6343L94.837 99.8796C94.7238 99.8796 94.7238 99.8796 94.6106 99.8796Z" fill="#143534"/>
<path d="M115.553 83.0117C115.214 83.0117 114.987 82.8985 114.761 82.672L110.572 78.4834C110.119 78.0305 110.119 77.3513 110.572 76.8985C111.025 76.4456 111.704 76.4456 112.157 76.8985L116.346 81.0871C116.798 81.54 116.798 82.2192 116.346 82.672C116.119 82.8985 115.893 83.0117 115.553 83.0117Z" fill="#143534"/>
<path d="M75.9316 55.9551H65.0637C64.3845 55.9551 63.9316 55.5022 63.9316 54.823C63.9316 54.1437 64.3845 53.6909 65.0637 53.6909H75.9316C76.6109 53.6909 77.0637 54.1437 77.0637 54.823C77.0637 55.5022 76.6109 55.9551 75.9316 55.9551Z" fill="#143534"/>
<path d="M86.5732 60.823H65.177C64.4978 60.823 64.0449 60.3702 64.0449 59.6909C64.0449 59.0117 64.4978 58.5588 65.177 58.5588H86.5732C87.2525 58.5588 87.7053 59.0117 87.7053 59.6909C87.7053 60.3702 87.1393 60.823 86.5732 60.823Z" fill="#143534"/>
<path d="M81.3652 69.4268H99.5917V75.2004H81.3652V69.4268Z" fill="#BCE3E0"/>
<path d="M99.5909 76.4456H81.3645C80.6853 76.4456 80.2324 75.9928 80.2324 75.3136V69.54C80.2324 68.8607 80.6853 68.4079 81.3645 68.4079H99.5909C100.27 68.4079 100.723 68.8607 100.723 69.54V75.3136C100.723 75.8796 100.157 76.4456 99.5909 76.4456ZM82.4966 74.1815H98.4588V70.672H82.4966V74.1815Z" fill="#143534"/>
<path d="M84.7615 83.8041H82.3842C81.8181 83.8041 81.4785 83.3513 81.4785 82.8985V80.5211C81.4785 79.9551 81.9313 79.6154 82.3842 79.6154H84.7615C85.3276 79.6154 85.6672 80.0683 85.6672 80.5211V82.8985C85.7804 83.3513 85.3276 83.8041 84.7615 83.8041Z" fill="#00ADA4"/>
<path d="M84.7608 92.9739H82.3834C81.2514 92.9739 80.3457 92.0683 80.3457 90.9362V88.5588C80.3457 87.4268 81.2514 86.5211 82.3834 86.5211H84.7608C85.8929 86.5211 86.7985 87.4268 86.7985 88.5588V90.9362C86.9117 92.0683 86.0061 92.9739 84.7608 92.9739ZM82.6099 90.7098H84.6476V88.672H82.6099V90.7098Z" fill="#143534"/>
<path d="M84.7615 99.9928H82.3842C81.8181 99.9928 81.4785 99.54 81.4785 99.0871V96.7098C81.4785 96.1437 81.9313 95.8041 82.3842 95.8041H84.7615C85.3276 95.8041 85.6672 96.257 85.6672 96.7098V99.0871C85.7804 99.54 85.3276 99.9928 84.7615 99.9928Z" fill="#BCE3E0"/>
<path d="M99.5908 82.7853H90.1946C89.5153 82.7853 89.0625 82.3324 89.0625 81.6532C89.0625 80.9739 89.5153 80.5211 90.1946 80.5211H99.5908C100.27 80.5211 100.723 80.9739 100.723 81.6532C100.723 82.3324 100.157 82.7853 99.5908 82.7853Z" fill="#143534"/>
<path d="M92.9116 90.9362H90.1946C89.5153 90.9362 89.0625 90.4834 89.0625 89.8041C89.0625 89.1249 89.5153 88.6721 90.1946 88.6721H92.9116C93.5908 88.6721 94.0436 89.1249 94.0436 89.8041C94.0436 90.4834 93.4776 90.9362 92.9116 90.9362Z" fill="#143534"/>
</svg>
