<svg width="160" height="160" viewBox="0 0 160 160" fill="none" xmlns="http://www.w3.org/2000/svg">
<path d="M80 16C60.334 36.666 27.666 32 27.666 32V88C27.666 121 80 144 80 144C80 144 132.334 121 132.334 88V32C132.334 32 99.666 36.666 80 16Z" fill="#32BEA6"/>
<path d="M80.0004 34.422C66.0004 49.14 42.7324 45.822 42.7324 45.822V85.702C42.7324 109.2 80.0004 125.578 80.0004 125.578C80.0004 125.578 117.27 109.198 117.27 85.698V45.818C117.27 45.818 94.0004 49.14 80.0004 34.422Z" fill="#415E72"/>
<path d="M76.3358 100.39L57.0078 84.242L62.1358 78.102L74.7998 88.684L95.5498 59.264L102.09 63.874L76.3358 100.39Z" fill="white"/>
</svg>
