<svg width="160" height="160" viewBox="0 0 160 160" fill="none" xmlns="http://www.w3.org/2000/svg">
<path fill-rule="evenodd" clip-rule="evenodd" d="M81.7001 134.858C83.2391 136.118 84.0051 136.803 84.7784 136.833C85.5441 136.803 86.3174 136.118 87.8566 134.858L128.439 93.3028C140.442 80.4603 140.442 59.4395 128.439 46.5898C117.533 34.9188 99.6241 37.5125 88.2614 48.6895L86.1259 50.7895C84.8886 52.0053 84.6531 52.0053 83.3864 50.76L81.2876 48.6895C69.9471 37.505 52.0159 34.9188 41.1099 46.5898C29.1066 59.4395 29.1066 80.4603 41.1099 93.3028L45.9774 98.291L81.7001 134.858Z" fill="#FD8087"/>
<path fill-rule="evenodd" clip-rule="evenodd" d="M93.2622 44.6005C99.1017 53.0738 102.489 63.1383 102.489 73.9325C102.489 75.1113 102.445 76.2755 102.364 77.425C101.716 87.0108 98.3875 95.926 93.0707 103.537C90.729 106.89 88.0042 109.991 84.941 112.791C81.6715 115.783 78.0262 118.421 74.0717 120.638C72.7167 121.397 71.325 122.112 69.8965 122.775L81.701 134.859C83.24 136.119 84.006 136.804 84.7792 136.833C85.545 136.804 86.3182 136.118 87.8575 134.859L100.273 122.142L128.44 93.3028C137.924 83.157 139.913 67.898 134.412 55.6083C132.946 52.3443 130.958 49.2865 128.44 46.5898C126.783 44.8215 124.964 43.3773 123.034 42.2428C116.746 38.5515 109.256 38.1315 102.187 40.2975C99.087 41.248 96.0605 42.707 93.2622 44.6005Z" fill="#FE636E"/>
<path d="M96.746 88.8033C96.7345 88.8033 96.723 88.803 96.7117 88.803C96.019 88.7908 95.386 88.408 95.0525 87.8005L85.068 69.5963L77.634 82.592C77.297 83.181 76.6762 83.55 75.998 83.5643C75.3147 83.5768 74.6837 83.2358 74.3227 82.6615L69.705 75.32L66.2202 81.111C65.871 81.6918 65.243 82.0468 64.5655 82.0468H52.496C51.4292 82.0468 50.5645 81.1815 50.5645 80.1143C50.5645 79.047 51.4292 78.1818 52.496 78.1818H63.4737L68.0137 70.637C68.3597 70.0623 68.9787 69.7078 69.6495 69.7013C69.656 69.701 69.6622 69.701 69.6685 69.701C70.332 69.701 70.9495 70.0418 71.3032 70.6043L75.8787 77.8785L83.427 64.6833C83.7712 64.0815 84.4112 63.7108 85.1032 63.7108C85.1092 63.7108 85.1147 63.7108 85.1207 63.711C85.8195 63.7173 86.4605 64.1008 86.7967 64.7138L96.8144 82.979L101.868 74.4908C102.217 73.9058 102.847 73.5473 103.528 73.5473H119.625C120.692 73.5473 121.557 74.4125 121.557 75.4798C121.557 76.547 120.692 77.4123 119.625 77.4123H104.626L98.4052 87.8598C98.0564 88.4453 97.4257 88.8033 96.746 88.8033Z" fill="#F8F2F0"/>
<path fill-rule="evenodd" clip-rule="evenodd" d="M123.035 58.9608C134.582 58.9608 144 49.537 144 37.9767C144 26.4237 134.582 17 123.035 17C111.481 17 102.062 26.4237 102.062 37.9767C102.062 49.537 111.481 58.9608 123.035 58.9608Z" fill="#F8F2F0"/>
<path fill-rule="evenodd" clip-rule="evenodd" d="M115.517 18.3853C122.888 21.642 128.028 29.01 128.028 37.5863C128.028 37.7188 128.028 37.8515 128.021 37.9767C127.976 40.4155 127.52 42.7512 126.71 44.91C124.619 50.5392 120.171 55.0262 114.574 57.1777C117.159 58.3273 120.023 58.9608 123.035 58.9608C127.225 58.9608 131.136 57.7303 134.413 55.6082C140.186 51.8652 144 45.3667 144 37.9767C144 26.3942 134.611 17 123.035 17C120.384 17 117.851 17.4863 115.517 18.3853Z" fill="#D6DCEA"/>
<path d="M130.664 36.044H124.967V30.3435C124.967 29.2763 124.102 28.411 123.035 28.411C121.968 28.411 121.104 29.2763 121.104 30.3435V36.0443H115.406C114.339 36.0443 113.475 36.9095 113.475 37.9768C113.475 39.044 114.339 39.9093 115.406 39.9093H121.104V45.61C121.104 46.6773 121.968 47.5425 123.035 47.5425C124.102 47.5425 124.967 46.6773 124.967 45.61V39.909H130.664C131.731 39.909 132.596 39.0438 132.596 37.9765C132.596 36.9093 131.731 36.044 130.664 36.044Z" fill="#FD8087"/>
<path fill-rule="evenodd" clip-rule="evenodd" d="M33.8864 102.962L29.5859 116.917L33.8864 131.705L53.6954 137.098L69.7634 141.467C79.1377 144.385 83.2762 142.72 91.8994 139.949L123.498 129.811C132.57 126.901 131.216 114.419 117.938 118.685L100.272 122.141L97.3857 122.708C93.0999 123.541 92.5107 123.887 88.1882 123.217L74.0714 120.638L71.5087 120.166C65.7207 118.317 67.9739 110.566 73.0257 111.332C76.4424 111.767 81.0229 112.386 84.9404 112.791C85.0214 112.798 85.1024 112.806 85.1762 112.813C92.7389 113.579 95.7729 107.928 93.0704 103.537C92.0469 101.864 90.1837 100.368 87.4222 99.4917L76.7812 97.5392C69.8812 96.272 64.9767 97.8487 54.2697 99.6097L48.2387 100.604L33.8864 102.962Z" fill="#FED1A3"/>
<path fill-rule="evenodd" clip-rule="evenodd" d="M16 100.464V134.468C16 134.895 16.4492 135.241 16.9942 135.241H32.8857C33.438 135.241 33.8873 134.895 33.8873 134.468V131.705V102.962V100.464C33.8873 100.037 33.438 99.6907 32.8857 99.6907H16.9942C16.4492 99.691 16 100.037 16 100.464Z" fill="#99E6FC"/>
<path fill-rule="evenodd" clip-rule="evenodd" d="M16 129.244V134.468C16 134.895 16.4492 135.242 16.9942 135.242H32.8857C33.438 135.242 33.8873 134.895 33.8873 134.468V131.705V129.244C33.8873 129.664 33.438 130.018 32.8857 130.018H16.9942C16.4492 130.018 16 129.664 16 129.244Z" fill="#62DBFB"/>
<path fill-rule="evenodd" clip-rule="evenodd" d="M33.8867 129.244V131.705L53.6957 137.098L69.7637 141.467C79.138 144.385 83.2765 142.72 91.8997 139.95L123.498 129.811C128.616 128.176 130.413 123.49 128.631 120.476C127.755 122.215 126.039 123.777 123.498 124.587L91.8997 134.726C83.2765 137.489 79.138 139.161 69.7637 136.243L53.6957 131.874L33.8867 126.473V129.244Z" fill="#FFBC85"/>
<path fill-rule="evenodd" clip-rule="evenodd" d="M73.0259 106.108C69.0199 105.504 66.7739 110.242 68.8946 113.152C69.7414 111.892 71.1996 111.06 73.0259 111.332C76.4426 111.767 81.0231 112.386 84.9406 112.791L85.1764 112.813C92.3856 113.542 95.4786 108.451 93.4166 104.17C92.8496 105.261 91.8996 106.196 90.5889 106.823C89.1896 107.493 87.3709 107.81 85.1764 107.589L84.9406 107.567C81.0231 107.162 76.4429 106.543 73.0259 106.108Z" fill="#FFBC85"/>
</svg>
