<svg width="80" height="100" viewBox="0 0 80 100" fill="none" xmlns="http://www.w3.org/2000/svg">
<path d="M40 67.5C49.665 67.5 57.5 59.665 57.5 50C57.5 40.335 49.665 32.5 40 32.5C30.335 32.5 22.5 40.335 22.5 50C22.5 59.665 30.335 67.5 40 67.5Z" fill="#F2F2F2"/>
<path d="M37.5007 77.3875C31.0977 76.8018 25.1021 73.9916 20.5556 69.4451C16.0091 64.8986 13.1989 58.903 12.6132 52.5H7.5957C8.19203 60.233 11.5342 67.4979 17.0185 72.9822C22.5028 78.4665 29.7677 81.8087 37.5007 82.405V77.3875Z" fill="#03736D"/>
<path d="M42.5 77.3887C48.9031 76.8028 54.8987 73.9923 59.4452 69.4456C63.9917 64.8989 66.8019 58.9032 67.3875 52.5H72.405C71.8087 60.233 68.4665 67.4979 62.9822 72.9822C57.4979 78.4665 50.233 81.8087 42.5 82.405V77.3887Z" fill="#03736D"/>
<path d="M37.5007 22.6112C31.0975 23.197 25.1018 26.0074 20.5552 30.5541C16.0087 35.1009 13.1986 41.0968 12.6132 47.5H7.5957C8.19299 39.7672 11.5355 32.5028 17.0195 27.0184C22.5036 21.5341 29.7679 18.1914 37.5007 17.5938V22.6112Z" fill="#03736D"/>
<path d="M42.5 22.6112C48.9032 23.197 54.8989 26.0074 59.4455 30.5541C63.992 35.1009 66.8021 41.0968 67.3875 47.5H72.405C71.8077 39.7672 68.4653 32.5028 62.9812 27.0184C57.4971 21.5341 50.2328 18.1914 42.5 17.5938V22.6112Z" fill="#03736D"/>
<path d="M33.75 51.25H30C29.337 51.25 28.7011 51.5134 28.2322 51.9822C27.7634 52.4511 27.5 53.087 27.5 53.75C27.5 54.413 27.7634 55.0489 28.2322 55.5178C28.7011 55.9866 29.337 56.25 30 56.25H33.75" fill="#F2B9A1"/>
<path d="M46.25 51.25H50C50.663 51.25 51.2989 51.5134 51.7678 51.9822C52.2366 52.4511 52.5 53.087 52.5 53.75C52.5 54.413 52.2366 55.0489 51.7678 55.5178C51.2989 55.9866 50.663 56.25 50 56.25H46.25" fill="#F2B9A1"/>
<path d="M48.75 51.25L50 47.5V45.8212C50 43.9458 49.255 42.1472 47.9289 40.8211C46.6028 39.495 44.8042 38.75 42.9287 38.75C41.0534 38.7501 39.2548 39.4951 37.9288 40.8212L37.5 41.25L35.9675 39.7175C35.6607 39.4107 35.2965 39.1673 34.8956 39.0013C34.4948 38.8353 34.0651 38.7499 33.6313 38.75C32.9383 38.7504 32.2631 38.9688 31.7012 39.3741C31.1392 39.7795 30.719 40.3514 30.5 41.0087C30.1694 41.996 30.0005 43.0301 30 44.0712C29.9999 45.5183 30.1775 46.9599 30.5288 48.3638L31.25 51.25H48.75Z" fill="#C18E59"/>
<path d="M47.5 50V55C47.5 56.9891 46.7098 58.8968 45.3033 60.3033C43.8968 61.7098 41.9891 62.5 40 62.5C38.0109 62.5 36.1032 61.7098 34.6967 60.3033C33.2902 58.8968 32.5 56.9891 32.5 55V50L37.5375 49.28C38.5678 49.1329 39.5105 48.619 40.1925 47.8328C40.8744 47.0466 41.2499 46.0408 41.25 45L47.5 50Z" fill="#FBE1CA"/>
<path d="M37.5 12.5H42.5V27.5H37.5V12.5Z" fill="#F4A93C"/>
<path d="M37.5 12.5H40V25H37.5V12.5Z" fill="#F6B940"/>
<path d="M37.5 72.5H42.5V87.5H37.5V72.5Z" fill="#F4A93C"/>
<path d="M77.5 47.5V52.5H62.5V47.5H77.5Z" fill="#F4A93C"/>
<path d="M2.5 47.5H17.5V52.5H2.5V47.5Z" fill="#F4A93C"/>
<path d="M2.5 47.5H15V50H2.5V47.5Z" fill="#F6B940"/>
<path d="M62.5 47.5H75V50H62.5V47.5Z" fill="#F6B940"/>
<path d="M62.5 37.5C68.0228 37.5 72.5 33.0228 72.5 27.5C72.5 21.9772 68.0228 17.5 62.5 17.5C56.9772 17.5 52.5 21.9772 52.5 27.5C52.5 33.0228 56.9772 37.5 62.5 37.5Z" fill="#559B2D"/>
<path d="M62.4999 17.5C60.6731 17.4989 58.881 17.9985 57.3183 18.9445C55.7556 19.8905 54.4821 21.2467 53.6361 22.8658C52.7902 24.4849 52.4042 26.3048 52.5201 28.1279C52.6361 29.9509 53.2494 31.7074 54.2936 33.2063C56.2181 34.5467 58.5527 35.1677 60.8889 34.9604C63.225 34.7531 65.4139 33.7308 67.0723 32.0724C68.7307 30.414 69.753 28.2252 69.9603 25.889C70.1676 23.5529 69.5466 21.2182 68.2061 19.2938C66.533 18.1247 64.5409 17.4985 62.4999 17.5Z" fill="#66AA3A"/>
<path d="M60.0009 32.5C59.6694 32.5 59.3516 32.3682 59.1172 32.1338L56.6172 29.6338L58.3847 27.8663L60.0009 29.4825L66.6172 22.8663L68.3847 24.6338L60.8847 32.1338C60.6503 32.3682 60.3324 32.5 60.0009 32.5Z" fill="#F2F2F2"/>
<path d="M37.5 72.5H40V85H37.5V72.5Z" fill="#F6B940"/>
</svg>
