<svg width="531" height="511" viewBox="0 0 531 511" fill="none" xmlns="http://www.w3.org/2000/svg">
<path fill-rule="evenodd" clip-rule="evenodd" d="M190.326 34.8093L171.859 30.7871L173.979 21.0546C174.699 17.7469 177.965 15.6494 181.272 16.3699L187.761 17.7831C191.069 18.5036 193.166 21.7691 192.445 25.0768L190.326 34.8093ZM180.675 19.115C178.883 18.7247 177.114 19.8608 176.724 21.6525L175.202 28.64L188.179 31.4664L189.7 24.4789C190.091 22.6872 188.955 20.9184 187.163 20.5282L180.675 19.115Z" fill="url(#paint0_linear_548_38284)"/>
<path d="M157.636 60.9163C157.773 60.4915 158.223 60.2502 158.655 60.3648C170.763 63.5803 177.96 65.1292 190.314 67.2579C190.742 67.3316 191.048 67.7202 191.01 68.1528C190.676 72.02 190.16 74.4125 188.837 78.0858C188.703 78.4589 188.319 78.6845 187.927 78.6273C175.552 76.8216 168.345 75.3061 156.074 71.6916C155.691 71.579 155.436 71.2102 155.474 70.8132C155.843 66.9465 156.456 64.5785 157.636 60.9163Z" fill="#00BCA6"/>
<path d="M163.226 35.7562C163.355 35.3208 163.81 35.0679 164.249 35.1843C176.27 38.3763 183.43 39.9179 195.684 42.0304C196.135 42.1082 196.444 42.5346 196.372 42.9864C195.727 47.0236 195.226 49.422 194.25 52.7584C194.132 53.1597 193.731 53.4095 193.318 53.3446C181.067 51.4204 173.897 49.8854 161.674 46.4511C161.285 46.3418 161.026 45.9673 161.069 45.5655C161.47 41.8343 162.135 39.4619 163.226 35.7562Z" fill="#00BCA6"/>
<path d="M160.367 42.8794C161.365 42.9365 161.961 43.0233 162.362 43.519L163.562 45.3545C164.006 46.0334 163.502 46.9045 162.71 46.7264C161.947 46.5547 161.025 46.2671 159.705 45.7907C159.383 45.6745 159.136 45.4012 159.09 45.0621C158.984 44.2764 159.115 43.7531 159.64 43.1625C159.822 42.9582 160.094 42.8638 160.367 42.8794Z" fill="#00BCA6"/>
<path d="M195.999 50.6394C195.154 50.3074 194.602 50.1446 193.998 50.3605C193.943 50.3801 193.892 50.4074 193.842 50.4384L192.023 51.586C191.345 52.0141 191.433 52.9961 192.219 53.1584C192.969 53.3134 193.94 53.4361 195.384 53.5603C195.727 53.5897 196.068 53.4441 196.251 53.1534C196.674 52.4838 196.771 51.9533 196.539 51.1976C196.459 50.9375 196.252 50.7389 195.999 50.6394Z" fill="#00BCA6"/>
<path d="M165.718 24.0501C165.976 23.1677 166.866 22.6274 167.769 22.8005C178.37 24.8327 185.4 26.3227 197.621 29.3024C198.523 29.5222 199.11 30.3986 198.96 31.3145C198.426 34.5673 197.965 36.7624 197.197 39.4844C196.954 40.3436 196.1 40.8778 195.218 40.7379C183.713 38.9128 176.648 37.3968 165.154 34.1868C164.323 33.9546 163.772 33.1574 163.878 32.3007C164.255 29.26 164.834 27.0741 165.718 24.0501Z" fill="#00BCA6"/>
<path d="M163.086 30.4016C164.083 30.4588 164.68 30.5456 165.081 31.0413L166.281 32.8767C166.725 33.5557 166.221 34.4268 165.429 34.2487C164.666 34.077 163.744 33.7893 162.424 33.3129C162.102 33.1967 161.855 32.9235 161.809 32.5843C161.702 31.7986 161.834 31.2753 162.359 30.6847C162.54 30.4805 162.813 30.386 163.086 30.4016Z" fill="#00BCA6"/>
<path d="M198.718 38.1617C197.872 37.8298 197.321 37.6669 196.717 37.8829C196.662 37.9024 196.61 37.9298 196.561 37.9608L194.742 39.1084C194.063 39.5364 194.152 40.5184 194.938 40.6808C195.688 40.8358 196.658 40.9584 198.103 41.0826C198.445 41.1121 198.786 40.9665 198.97 40.6758C199.393 40.0062 199.49 39.4757 199.258 38.72C199.178 38.4599 198.971 38.2612 198.718 38.1617Z" fill="#00BCA6"/>
<path d="M160.51 48.2338C160.638 47.7984 161.093 47.5454 161.532 47.6619C173.553 50.8538 180.714 52.3955 192.967 54.508C193.418 54.5857 193.727 55.0121 193.655 55.4639C193.01 59.5012 192.51 61.8995 191.533 65.236C191.415 65.6372 191.014 65.8871 190.601 65.8222C178.35 63.8979 171.18 62.3629 158.958 58.9287C158.568 58.8193 158.309 58.4449 158.352 58.043C158.753 54.3119 159.418 51.9395 160.51 48.2338Z" fill="#00BCA6"/>
<path d="M157.65 55.357C158.648 55.4141 159.244 55.5009 159.645 55.9966L160.845 57.832C161.289 58.511 160.785 59.3821 159.994 59.204C159.231 59.0323 158.308 58.7446 156.988 58.2682C156.667 58.1521 156.419 57.8788 156.373 57.5396C156.267 56.7539 156.398 56.2307 156.923 55.64C157.105 55.4358 157.377 55.3413 157.65 55.357Z" fill="#00BCA6"/>
<path d="M155.353 68.3022C156.351 68.3594 156.947 68.4461 157.348 68.9419L158.548 70.7773C158.992 71.4563 158.488 72.3274 157.697 72.1493C156.934 71.9776 156.011 71.6899 154.692 71.2135C154.37 71.0973 154.123 70.824 154.077 70.4849C153.97 69.6992 154.101 69.1759 154.626 68.5853C154.808 68.3811 155.08 68.2866 155.353 68.3022Z" fill="#00BCA6"/>
<path d="M193.282 63.1169C192.437 62.785 191.886 62.6221 191.281 62.8381C191.226 62.8576 191.175 62.885 191.126 62.916L189.306 64.0636C188.628 64.4916 188.717 65.4736 189.502 65.636C190.252 65.791 191.223 65.9136 192.667 66.0378C193.01 66.0673 193.351 65.9217 193.534 65.631C193.957 64.9614 194.054 64.4309 193.822 63.6752C193.742 63.4151 193.535 63.2164 193.282 63.1169Z" fill="#00BCA6"/>
<path d="M190.333 75.9127C189.488 75.5807 188.936 75.4178 188.332 75.6338C188.277 75.6534 188.225 75.6807 188.176 75.7117L186.357 76.8593C185.679 77.2873 185.767 78.2693 186.553 78.4317C187.303 78.5867 188.274 78.7093 189.718 78.8336C190.061 78.863 190.401 78.7174 190.585 78.4267C191.008 77.7571 191.105 77.2266 190.873 76.4709C190.793 76.2108 190.586 76.0121 190.333 75.9127Z" fill="#00BCA6"/>
<mask id="mask0_548_38284" style="mask-type:alpha" maskUnits="userSpaceOnUse" x="154" y="22" width="46" height="57">
<path d="M157.636 60.9163C157.773 60.4915 158.223 60.2502 158.655 60.3648C170.763 63.5803 177.96 65.1292 190.314 67.2579C190.742 67.3316 191.048 67.7201 191.01 68.1527C190.676 72.0199 190.16 74.4125 188.837 78.0857C188.703 78.4588 188.319 78.6845 187.927 78.6272C175.552 76.8216 168.345 75.306 156.074 71.6916C155.691 71.579 155.436 71.2101 155.474 70.8132C155.843 66.9465 156.456 64.5784 157.636 60.9163Z" fill="#00BCA6"/>
<path d="M163.226 35.7561C163.355 35.3208 163.81 35.0678 164.249 35.1843C176.27 38.3762 183.43 39.9179 195.684 42.0304C196.135 42.1081 196.444 42.5345 196.372 42.9863C195.727 47.0236 195.226 49.4219 194.25 52.7584C194.132 53.1596 193.731 53.4094 193.318 53.3446C181.067 51.4203 173.897 49.8853 161.674 46.4511C161.285 46.3417 161.026 45.9673 161.069 45.5654C161.47 41.8343 162.135 39.4618 163.226 35.7561Z" fill="#00BCA6"/>
<path d="M160.367 42.8793C161.365 42.9365 161.961 43.0232 162.362 43.519L163.562 45.3544C164.006 46.0334 163.502 46.9045 162.71 46.7264C161.947 46.5547 161.025 46.267 159.705 45.7906C159.383 45.6744 159.136 45.4011 159.09 45.062C158.984 44.2763 159.115 43.753 159.64 43.1624C159.822 42.9581 160.094 42.8637 160.367 42.8793Z" fill="#00BCA6"/>
<path d="M195.999 50.6393C195.154 50.3073 194.602 50.1445 193.998 50.3605C193.943 50.38 193.892 50.4074 193.842 50.4384L192.023 51.586C191.345 52.014 191.433 52.996 192.219 53.1584C192.969 53.3134 193.94 53.436 195.384 53.5602C195.727 53.5897 196.068 53.444 196.251 53.1534C196.674 52.4837 196.771 51.9532 196.539 51.1976C196.459 50.9375 196.252 50.7388 195.999 50.6393Z" fill="#00BCA6"/>
<path d="M165.718 24.0501C165.976 23.1677 166.866 22.6274 167.769 22.8005C178.37 24.8326 185.4 26.3226 197.621 29.3023C198.523 29.5222 199.11 30.3986 198.96 31.3145C198.426 34.5673 197.965 36.7624 197.197 39.4843C196.954 40.3436 196.1 40.8777 195.218 40.7378C183.713 38.9127 176.648 37.3968 165.154 34.1868C164.323 33.9546 163.772 33.1574 163.878 32.3006C164.255 29.26 164.834 27.074 165.718 24.0501Z" fill="#00BCA6"/>
<path d="M163.086 30.4016C164.083 30.4587 164.68 30.5455 165.081 31.0412L166.281 32.8767C166.725 33.5556 166.221 34.4268 165.429 34.2487C164.666 34.0769 163.744 33.7893 162.424 33.3129C162.102 33.1967 161.855 32.9234 161.809 32.5843C161.702 31.7986 161.834 31.2753 162.359 30.6847C162.54 30.4804 162.813 30.386 163.086 30.4016Z" fill="#00BCA6"/>
<path d="M198.718 38.1617C197.872 37.8297 197.321 37.6669 196.717 37.8829C196.662 37.9024 196.61 37.9298 196.561 37.9608L194.742 39.1084C194.063 39.5364 194.152 40.5184 194.938 40.6808C195.688 40.8358 196.658 40.9584 198.103 41.0826C198.445 41.1121 198.786 40.9664 198.97 40.6758C199.393 40.0061 199.49 39.4756 199.258 38.72C199.178 38.4599 198.971 38.2612 198.718 38.1617Z" fill="#00BCA6"/>
<path d="M160.51 48.2337C160.638 47.7983 161.093 47.5454 161.532 47.6618C173.553 50.8538 180.714 52.3954 192.967 54.508C193.418 54.5857 193.727 55.0121 193.655 55.4639C193.01 59.5012 192.51 61.8995 191.533 65.236C191.415 65.6372 191.014 65.887 190.601 65.8221C178.35 63.8979 171.18 62.3629 158.958 58.9286C158.568 58.8193 158.309 58.4449 158.352 58.043C158.753 54.3118 159.418 51.9394 160.51 48.2337Z" fill="#00BCA6"/>
<path d="M157.65 55.3569C158.648 55.414 159.244 55.5008 159.645 55.9965L160.845 57.832C161.289 58.5109 160.785 59.3821 159.994 59.204C159.231 59.0322 158.308 58.7446 156.988 58.2682C156.667 58.152 156.419 57.8787 156.373 57.5396C156.267 56.7539 156.398 56.2306 156.923 55.64C157.105 55.4357 157.377 55.3413 157.65 55.3569Z" fill="#00BCA6"/>
<path d="M155.353 68.3022C156.351 68.3593 156.947 68.4461 157.348 68.9418L158.548 70.7772C158.992 71.4562 158.488 72.3273 157.697 72.1492C156.934 71.9775 156.011 71.6899 154.692 71.2135C154.37 71.0973 154.123 70.824 154.077 70.4848C153.97 69.6991 154.101 69.1759 154.626 68.5852C154.808 68.381 155.08 68.2865 155.353 68.3022Z" fill="#00BCA6"/>
<path d="M193.282 63.1169C192.437 62.7849 191.886 62.6221 191.281 62.838C191.226 62.8576 191.175 62.885 191.126 62.9159L189.306 64.0635C188.628 64.4916 188.717 65.4736 189.502 65.636C190.252 65.7909 191.223 65.9136 192.667 66.0378C193.01 66.0672 193.351 65.9216 193.534 65.631C193.957 64.9613 194.054 64.4308 193.822 63.6752C193.742 63.415 193.535 63.2164 193.282 63.1169Z" fill="#00BCA6"/>
<path d="M190.333 75.9126C189.488 75.5806 188.936 75.4178 188.332 75.6338C188.277 75.6533 188.225 75.6807 188.176 75.7117L186.357 76.8592C185.679 77.2873 185.767 78.2693 186.553 78.4317C187.303 78.5866 188.274 78.7093 189.718 78.8335C190.061 78.8629 190.401 78.7173 190.585 78.4267C191.008 77.757 191.105 77.2265 190.873 76.4709C190.793 76.2108 190.586 76.0121 190.333 75.9126Z" fill="#00BCA6"/>
</mask>
<g mask="url(#mask0_548_38284)">
<rect x="165.957" y="12.7869" width="39.5897" height="59.4526" transform="rotate(12.29 165.957 12.7869)" fill="#00BCA6"/>
<rect x="165.957" y="12.7869" width="39.5897" height="59.4526" transform="rotate(12.29 165.957 12.7869)" fill="url(#paint1_linear_548_38284)"/>
</g>
<mask id="mask1_548_38284" style="mask-type:alpha" maskUnits="userSpaceOnUse" x="154" y="22" width="46" height="57">
<path d="M157.636 60.9163C157.773 60.4915 158.223 60.2502 158.655 60.3648C170.763 63.5803 177.96 65.1292 190.314 67.2579C190.742 67.3316 191.048 67.7202 191.01 68.1528C190.676 72.02 190.16 74.4125 188.837 78.0858C188.703 78.4589 188.319 78.6845 187.927 78.6273C175.552 76.8216 168.345 75.3061 156.074 71.6916C155.691 71.579 155.436 71.2102 155.474 70.8132C155.843 66.9465 156.456 64.5785 157.636 60.9163Z" fill="#00BCA6"/>
<path d="M163.226 35.7562C163.355 35.3208 163.81 35.0679 164.249 35.1843C176.27 38.3763 183.43 39.9179 195.684 42.0304C196.135 42.1082 196.444 42.5346 196.372 42.9864C195.727 47.0236 195.226 49.422 194.25 52.7584C194.132 53.1597 193.731 53.4095 193.318 53.3446C181.067 51.4204 173.897 49.8854 161.674 46.4511C161.285 46.3418 161.026 45.9673 161.069 45.5655C161.47 41.8343 162.135 39.4619 163.226 35.7562Z" fill="#00BCA6"/>
<path d="M160.367 42.8794C161.365 42.9365 161.961 43.0233 162.362 43.519L163.562 45.3545C164.006 46.0334 163.502 46.9045 162.71 46.7264C161.947 46.5547 161.025 46.2671 159.705 45.7907C159.383 45.6745 159.136 45.4012 159.09 45.0621C158.984 44.2764 159.115 43.7531 159.64 43.1625C159.822 42.9582 160.094 42.8638 160.367 42.8794Z" fill="#00BCA6"/>
<path d="M195.999 50.6394C195.154 50.3074 194.602 50.1446 193.998 50.3605C193.943 50.3801 193.892 50.4074 193.842 50.4384L192.023 51.586C191.345 52.0141 191.433 52.9961 192.219 53.1584C192.969 53.3134 193.94 53.4361 195.384 53.5603C195.727 53.5897 196.068 53.4441 196.251 53.1534C196.674 52.4838 196.771 51.9533 196.539 51.1976C196.459 50.9375 196.252 50.7389 195.999 50.6394Z" fill="#00BCA6"/>
<path d="M165.718 24.0501C165.976 23.1677 166.866 22.6274 167.769 22.8005C178.37 24.8327 185.4 26.3227 197.621 29.3024C198.523 29.5222 199.11 30.3986 198.96 31.3145C198.426 34.5673 197.965 36.7624 197.197 39.4844C196.954 40.3436 196.1 40.8778 195.218 40.7379C183.713 38.9128 176.648 37.3968 165.154 34.1868C164.323 33.9546 163.772 33.1574 163.878 32.3007C164.255 29.26 164.834 27.0741 165.718 24.0501Z" fill="#00BCA6"/>
<path d="M163.086 30.4016C164.083 30.4588 164.68 30.5456 165.081 31.0413L166.281 32.8767C166.725 33.5557 166.221 34.4268 165.429 34.2487C164.666 34.077 163.744 33.7893 162.424 33.3129C162.102 33.1967 161.855 32.9235 161.809 32.5843C161.702 31.7986 161.834 31.2753 162.359 30.6847C162.54 30.4805 162.813 30.386 163.086 30.4016Z" fill="#00BCA6"/>
<path d="M198.718 38.1617C197.872 37.8298 197.321 37.6669 196.717 37.8829C196.662 37.9024 196.61 37.9298 196.561 37.9608L194.742 39.1084C194.063 39.5364 194.152 40.5184 194.938 40.6808C195.688 40.8358 196.658 40.9584 198.103 41.0826C198.445 41.1121 198.786 40.9665 198.97 40.6758C199.393 40.0062 199.49 39.4757 199.258 38.72C199.178 38.4599 198.971 38.2612 198.718 38.1617Z" fill="#00BCA6"/>
<path d="M160.51 48.2338C160.638 47.7984 161.093 47.5454 161.532 47.6619C173.553 50.8538 180.714 52.3955 192.967 54.508C193.418 54.5857 193.727 55.0121 193.655 55.4639C193.01 59.5012 192.51 61.8995 191.533 65.236C191.415 65.6372 191.014 65.8871 190.601 65.8222C178.35 63.8979 171.18 62.3629 158.958 58.9287C158.568 58.8193 158.309 58.4449 158.352 58.043C158.753 54.3119 159.418 51.9395 160.51 48.2338Z" fill="#00BCA6"/>
<path d="M157.65 55.357C158.648 55.4141 159.244 55.5009 159.645 55.9966L160.845 57.832C161.289 58.511 160.785 59.3821 159.994 59.204C159.231 59.0323 158.308 58.7446 156.988 58.2682C156.667 58.1521 156.419 57.8788 156.373 57.5396C156.267 56.7539 156.398 56.2307 156.923 55.64C157.105 55.4358 157.377 55.3413 157.65 55.357Z" fill="#00BCA6"/>
<path d="M155.353 68.3022C156.351 68.3594 156.947 68.4461 157.348 68.9419L158.548 70.7773C158.992 71.4563 158.488 72.3274 157.697 72.1493C156.934 71.9776 156.011 71.6899 154.692 71.2135C154.37 71.0973 154.123 70.824 154.077 70.4849C153.97 69.6992 154.101 69.1759 154.626 68.5853C154.808 68.3811 155.08 68.2866 155.353 68.3022Z" fill="#00BCA6"/>
<path d="M193.282 63.1169C192.437 62.785 191.886 62.6221 191.281 62.8381C191.226 62.8576 191.175 62.885 191.126 62.916L189.306 64.0636C188.628 64.4916 188.717 65.4736 189.502 65.636C190.252 65.791 191.223 65.9136 192.667 66.0378C193.01 66.0673 193.351 65.9217 193.534 65.631C193.957 64.9614 194.054 64.4309 193.822 63.6752C193.742 63.4151 193.535 63.2164 193.282 63.1169Z" fill="#00BCA6"/>
<path d="M190.333 75.9127C189.488 75.5807 188.936 75.4178 188.332 75.6338C188.277 75.6534 188.225 75.6807 188.176 75.7117L186.357 76.8593C185.679 77.2873 185.767 78.2693 186.553 78.4317C187.303 78.5867 188.274 78.7093 189.718 78.8336C190.061 78.863 190.401 78.7174 190.585 78.4267C191.008 77.7571 191.105 77.2266 190.873 76.4709C190.793 76.2108 190.586 76.0121 190.333 75.9127Z" fill="#00BCA6"/>
</mask>
<g mask="url(#mask1_548_38284)">
<g style="mix-blend-mode:darken">
<rect x="192.873" y="28" width="4.08643" height="51.0804" transform="rotate(12.2876 192.873 28)" fill="#03736D"/>
</g>
<g style="mix-blend-mode:darken">
<rect x="190.85" y="27.8216" width="1.02161" height="51.0804" transform="rotate(12.2876 190.85 27.8216)" fill="#03736D"/>
</g>
<g style="mix-blend-mode:darken">
<rect x="188.369" y="27.1946" width="0.510804" height="51.0804" transform="rotate(12.2876 188.369 27.1946)" fill="#03736D"/>
</g>
</g>
<path d="M505.286 250.927C487.973 282.47 469.67 299.903 450.449 310.15L449.818 310.483C446.051 312.454 442.179 314.201 438.22 315.714L437.614 315.942C379.182 338.005 312.718 309.615 240.083 412.229C187.253 486.86 62.7528 495.832 20.9186 433.424C-18.1498 375.156 -6.86415 287.005 92.211 250.927C191.286 214.849 187.127 130.702 210.107 92.617C328.516 -103.532 618.434 44.8941 505.286 250.927Z" fill="#03736D" fill-opacity="0.3"/>
<path d="M466.352 123.898H421.672V1.62665H466.352V123.898Z" fill="url(#paint2_linear_548_38284)"/>
<path d="M444.022 31.8121C441.64 31.8121 439.313 31.0773 437.333 29.7005C435.353 28.3237 433.81 26.3668 432.899 24.0772C431.988 21.7877 431.749 19.2684 432.214 16.8378C432.678 14.4073 433.825 12.1747 435.509 10.4224C437.192 8.67002 439.337 7.47667 441.673 6.9932C444.008 6.50974 446.429 6.75787 448.629 7.70622C450.829 8.65458 452.709 10.2606 454.032 12.3211C455.355 14.3816 456.061 16.8041 456.061 19.2823C456.058 22.6043 454.788 25.7893 452.531 28.1384C450.274 30.4874 447.214 31.8086 444.022 31.8121Z" fill="url(#paint3_linear_548_38284)"/>
<path d="M444.022 68.6658C441.64 68.6658 439.313 67.931 437.333 66.5542C435.353 65.1774 433.81 63.2205 432.899 60.9309C431.988 58.6414 431.749 56.1221 432.214 53.6915C432.678 51.261 433.825 49.0284 435.509 47.2761C437.192 45.5237 439.337 44.3304 441.673 43.8469C444.008 43.3634 446.429 43.6116 448.629 44.5599C450.829 45.5083 452.709 47.1143 454.032 49.1748C455.355 51.2353 456.061 53.6578 456.061 56.136C456.058 59.458 454.788 62.643 452.531 64.9921C450.274 67.3411 447.214 68.6623 444.022 68.6658Z" fill="url(#paint4_linear_548_38284)"/>
<path d="M444.022 105.515C441.64 105.515 439.313 104.78 437.333 103.403C435.353 102.026 433.81 100.07 432.899 97.7801C431.988 95.4905 431.749 92.9712 432.214 90.5406C432.678 88.1101 433.825 85.8775 435.509 84.1252C437.192 82.3728 439.337 81.1795 441.673 80.696C444.008 80.2126 446.429 80.4607 448.629 81.409C450.829 82.3574 452.709 83.9634 454.032 86.0239C455.355 88.0844 456.061 90.5069 456.061 92.9851C456.058 96.3071 454.788 99.4921 452.531 101.841C450.274 104.19 447.214 105.511 444.022 105.515Z" fill="url(#paint5_linear_548_38284)"/>
<path d="M88.6328 375.739C88.5191 377.929 90.8806 381.912 99.3502 391.743C107.82 401.574 117.476 406.713 118.423 405.412C119.371 404.111 119.35 397.789 119.35 397.789C119.35 397.789 98.8829 369.277 88.6328 375.739Z" fill="url(#paint6_linear_548_38284)"/>
<path d="M396.5 393.754C397.54 394.985 406.485 386.052 409.882 382.516C413.279 378.981 421.21 370.977 421.025 368.812C421.025 368.812 419.223 365.47 414.159 368.374C409.095 371.279 392.105 388.475 396.5 393.754Z" fill="url(#paint7_linear_548_38284)"/>
<path d="M242.441 113.545L274.143 112.428L300.873 236.5L221.195 231.059L242.441 113.545Z" fill="url(#paint8_linear_548_38284)"/>
<path opacity="0.25" d="M242.441 113.545L274.143 112.428L300.873 236.5L221.195 231.059L242.441 113.545Z" fill="#52BEB8"/>
<path d="M250.32 122.04C250.32 122.04 250.252 125.361 249.272 131.933C248.009 140.427 245.39 150.951 242.684 161.246C240.259 170.482 237.75 179.533 236.049 186.779C232.454 202.113 229.946 234.248 229.946 234.248L197.747 242.042C192.355 223.974 207.656 194.288 212.202 178.302C214.884 168.874 215.347 159.297 215.275 153.027C215.229 148.646 214.922 145.899 214.922 145.899L214.753 146.075C214.412 146.434 213.558 147.31 212.308 148.48C207.475 153.001 196.69 161.908 186.579 162.131C173.37 162.429 167.695 149.036 167.695 144.87C167.695 140.703 167.771 110.194 168.146 104.345C168.52 98.4963 172.717 95.6092 175.866 95.0615C179.015 94.5139 185.548 93.112 191.98 96.2313C198.412 99.3506 197.974 113.545 197.974 113.545C207.042 104.888 212.586 99.1184 218.731 98.5708C220.226 98.4393 222.23 98.3999 224.406 98.4131C231.162 98.4569 239.56 99.0396 239.56 99.0396L250.32 122.04Z" fill="url(#paint9_linear_548_38284)"/>
<path d="M214.303 140.874C214.669 142.58 214.82 144.328 214.753 146.075C214.412 146.434 213.558 147.31 212.308 148.48C207.475 153.001 196.69 161.908 186.579 162.131C173.37 162.429 167.695 149.036 167.695 144.87C167.695 140.703 167.771 110.194 168.146 104.345C168.52 98.4963 172.717 95.6092 175.866 95.0615C179.015 94.5139 185.548 93.112 191.98 96.2313C198.412 99.3506 197.974 113.545 197.974 113.545C207.042 104.888 212.586 99.1184 218.731 98.5708C220.226 98.4393 222.23 98.3999 224.406 98.4131C218.946 106.4 210.721 123.959 214.303 140.874Z" fill="url(#paint10_linear_548_38284)"/>
<path d="M174.667 88.2361C174.667 88.2361 174.633 96.7572 175.016 97.8744C175.399 98.9916 178.523 101.861 184.248 101.625C189.973 101.388 192.843 98.5841 192.995 96.8405C193.147 95.0968 193.176 86.2996 193.176 86.2996L174.667 88.2361Z" fill="url(#paint11_linear_548_38284)"/>
<path d="M359.431 178.302C356.401 186.941 343.599 192.641 343.599 192.641L309.46 192.396C308.416 185.539 325.949 171.73 325.949 171.73L309.599 152.419L307.915 150.434L307.89 150.916C307.814 152.134 307.747 153.374 307.692 154.622C307.271 163.678 307.221 173.364 307.473 181.969C307.84 194.547 308.846 204.825 310.243 207.471C312.74 212.181 313.767 221.284 314.12 230.292C314.613 242.857 313.788 255.229 313.788 255.229L291.402 235.83C291.373 231.767 291.014 227.715 290.328 223.716C288.989 215.278 286.784 207.177 286.034 203.778C285.709 202.092 285.532 200.38 285.504 198.661C285.348 194.31 285.584 189.539 284.515 186.779C280.945 177.553 278.12 169.785 275.86 163.148C268.556 141.681 267.188 132.069 265.875 123.131L280.002 98.4702C280.002 98.4702 297.8 97.3004 307.486 101.073C307.747 101.169 308 101.274 308.248 101.384C313.081 103.495 325.713 118.141 336.237 131.276C340.577 136.695 344.559 141.851 347.485 145.768C355.197 156.09 363.043 167.971 359.431 178.302Z" fill="url(#paint12_linear_548_38284)"/>
<path d="M359.431 178.302C356.4 186.941 343.599 192.641 343.599 192.641L309.46 192.396C308.416 185.539 325.949 171.73 325.949 171.73L325.843 171.607L309.599 152.418L307.915 150.434C308.563 141.234 310.02 111.907 307.494 101.072C307.755 101.169 308.008 101.274 308.256 101.383C313.089 103.495 325.721 118.141 336.245 131.275C340.585 136.695 344.567 141.851 347.493 145.768C349.257 148.134 351.033 150.587 352.671 153.071C358.189 161.456 362.214 170.354 359.431 178.302Z" fill="url(#paint13_linear_548_38284)"/>
<path d="M359.43 178.302C356.399 186.941 343.598 192.641 343.598 192.641L309.459 192.396C308.415 185.54 325.948 171.73 325.948 171.73L325.842 171.608C326.337 171.341 326.811 171.035 327.261 170.692C328.89 169.378 342.083 156.274 352.665 153.071C358.188 161.457 362.213 170.355 359.43 178.302Z" fill="url(#paint14_linear_548_38284)"/>
<path d="M345.009 150.447L343.973 148.541L300.076 174.319C299.756 174.383 299.466 174.56 299.258 174.822C299.05 175.083 298.936 175.412 298.936 175.752V180.852C298.936 181.239 299.083 181.611 299.347 181.885C299.61 182.159 299.967 182.313 300.339 182.313C300.712 182.313 301.069 182.159 301.332 181.885C301.595 181.611 301.743 181.239 301.743 180.852V175.857L345.009 150.447Z" fill="url(#paint15_linear_548_38284)"/>
<path d="M196.388 174.319L152.483 148.528L151.447 150.447L194.717 175.857V180.852C194.717 181.239 194.865 181.611 195.128 181.885C195.391 182.159 195.748 182.313 196.121 182.313C196.493 182.313 196.85 182.159 197.113 181.885C197.377 181.611 197.525 181.239 197.525 180.852V175.752C197.525 175.413 197.411 175.084 197.204 174.823C196.996 174.562 196.708 174.383 196.388 174.319Z" fill="url(#paint16_linear_548_38284)"/>
<path d="M305.237 183.608C305.148 181.369 303.789 179.489 301.638 179.371H299.032C296.881 179.489 295.525 181.369 295.433 183.608L295.281 187.353H305.384L305.237 183.608Z" fill="url(#paint17_linear_548_38284)"/>
<path d="M201.022 183.608C200.934 181.369 199.574 179.489 197.423 179.371H194.839C192.687 179.489 191.332 181.369 191.239 183.608L191.088 187.353H201.191L201.022 183.608Z" fill="url(#paint18_linear_548_38284)"/>
<path d="M312.773 193.381C312.925 188.676 315.48 182.547 324.594 183.103C332.512 183.585 336.334 189.263 334.448 196.588C334.41 196.742 312.773 193.381 312.773 193.381Z" fill="url(#paint19_linear_548_38284)"/>
<path d="M155.796 202.726H186.294C188.41 202.726 190.125 200.941 190.125 198.74V196.115C190.125 193.913 188.41 192.128 186.294 192.128H155.796C153.681 192.128 151.966 193.913 151.966 196.115V198.74C151.966 200.941 153.681 202.726 155.796 202.726Z" fill="url(#paint20_linear_548_38284)"/>
<path d="M340.661 192.128H310.163C308.047 192.128 306.332 193.913 306.332 196.115V198.739C306.332 200.941 308.047 202.726 310.163 202.726H340.661C342.776 202.726 344.491 200.941 344.491 198.739V196.115C344.491 193.913 342.776 192.128 340.661 192.128Z" fill="url(#paint21_linear_548_38284)"/>
<path d="M312.368 191.235C315.736 187.292 320.484 186.854 324.454 186.779C328.423 186.705 334.754 189.469 335.041 193.11C335.327 196.75 335.798 200.584 335.041 202.358C334.283 204.133 331.252 207.672 328.52 205.605C328.52 205.605 326.794 208.075 324.597 205.973C324.231 207.541 321.625 208.43 320.202 207.028C320.202 207.028 319.082 209.188 317.175 209.188C314.452 209.188 314.418 198.958 314.229 192.133H311.812L312.368 191.235Z" fill="#C39873"/>
<path d="M189.57 189.833H183.676C181.786 189.833 180.254 193.631 180.254 197.644C180.254 201.657 181.323 205.022 182.413 205.131C183.504 205.241 188.707 205.131 188.707 205.131L189.57 189.833Z" fill="url(#paint22_linear_548_38284)"/>
<path d="M306.887 189.833H312.78C314.67 189.833 316.202 193.631 316.202 197.644C316.202 201.657 315.133 205.022 314.043 205.131C312.953 205.241 307.75 205.131 307.75 205.131L306.887 189.833Z" fill="url(#paint23_linear_548_38284)"/>
<path d="M192.919 188.536H187.026C185.136 188.536 183.604 192.974 183.604 197.666C183.604 202.358 184.673 206.288 185.763 206.428C186.853 206.568 192.056 206.428 192.056 206.428L192.919 188.536Z" fill="url(#paint24_linear_548_38284)"/>
<path d="M303.537 188.536H309.43C311.321 188.536 312.853 192.974 312.853 197.666C312.853 202.358 311.784 206.288 310.693 206.428C309.603 206.568 304.4 206.428 304.4 206.428L303.537 188.536Z" fill="url(#paint25_linear_548_38284)"/>
<path d="M240.086 115.14C245.672 120.932 267.566 124.778 276.629 113.02L270.554 97.4362L245.074 95.5524L240.086 115.14Z" fill="#C39873"/>
<path d="M250.32 122.04C250.32 122.04 250.253 125.361 249.272 131.933C248.009 140.428 245.391 150.951 242.684 161.246C226.688 160.462 218.745 155.915 215.276 153.028C215.23 148.647 214.923 145.9 214.923 145.9L214.754 146.075C214.413 146.434 213.559 147.31 212.308 148.48C207.56 134.15 197.996 129.931 197.996 129.931V113.545C207.063 104.888 212.607 99.1186 218.753 98.571C220.248 98.4396 222.251 98.4001 224.428 98.4133C231.184 98.4571 239.582 99.0398 239.582 99.0398L250.32 122.04Z" fill="url(#paint26_linear_548_38284)"/>
<path d="M250.32 122.04C251.014 118.444 251.536 111.316 250.888 109.944C248.871 105.664 240.869 90.085 240.869 90.085C239.233 90.6602 237.802 91.7363 236.763 93.1723C235.724 94.6083 235.126 96.3373 235.047 98.133C234.635 104.569 239.547 123.644 250.32 122.04Z" fill="url(#paint27_linear_548_38284)"/>
<path d="M336.236 131.276C325.367 133.865 316.969 143.451 309.594 152.419L308.938 153.216C308.536 153.707 308.115 154.175 307.675 154.622C299.971 162.657 287.785 164.318 275.842 163.148C268.539 141.681 267.171 132.069 265.857 123.131L279.985 98.4702C279.985 98.4702 297.782 97.3004 307.469 101.073L307.662 101.147C307.856 101.223 308.045 101.302 308.23 101.384C313.08 103.495 325.713 118.141 336.236 131.276Z" fill="url(#paint28_linear_548_38284)"/>
<path d="M336.237 131.275C325.368 133.865 316.97 143.45 309.595 152.418L307.911 150.434C308.559 141.234 310.016 111.907 307.49 101.072L307.684 101.147C307.877 101.223 308.067 101.302 308.252 101.383C313.08 103.495 325.713 118.141 336.237 131.275Z" fill="url(#paint29_linear_548_38284)"/>
<path d="M243.67 96.8139C251.538 108.468 256.665 111.061 271.916 108.108L266.898 88.284L243.67 96.8139Z" fill="#9E7150"/>
<path d="M265.873 123.127C276.469 121.076 284.147 105.335 281.028 93.3353L272.419 89.4625C272.419 89.4625 271.022 95.4864 268.462 98.2859C265.903 101.085 262.375 107.136 265.873 123.127Z" fill="url(#paint30_linear_548_38284)"/>
<path d="M235.023 59.8952C234.88 60.1055 235.915 97.7738 249.756 103.338C264.153 109.116 271.157 95.9557 276.617 85.095C282.077 74.2344 279.745 51.4616 279.745 51.4616C279.745 51.4616 239.725 41.0216 235.023 59.8952Z" fill="#C39873"/>
<path d="M237.705 65.1214C237.564 65.1222 237.427 65.0739 237.316 64.9843C237.204 64.8947 237.125 64.7689 237.09 64.6268C237.055 64.4848 237.067 64.3348 237.123 64.2005C237.18 64.0663 237.278 63.9556 237.402 63.886C241.948 61.288 247.037 62.357 248.46 62.9353C248.607 63.005 248.723 63.1306 248.783 63.2863C248.844 63.4419 248.845 63.6158 248.786 63.7723C248.728 63.9287 248.614 64.0558 248.468 64.1275C248.322 64.1992 248.155 64.2099 248.001 64.1576C246.389 63.5048 241.826 62.8433 238.008 65.0338C237.916 65.0892 237.811 65.1193 237.705 65.1214Z" fill="#654B1E"/>
<path d="M286.21 89.4759C283.436 96.8843 279.432 101.147 274.331 98.7594C269.229 96.3717 269.877 91.5394 270.542 87.9119C271.207 84.2844 275.972 78.313 276.915 74.887C277.858 71.461 275.77 63.4524 274.027 61.6387C272.992 60.5609 266.45 57.538 256.722 57.2576C245.487 56.9465 239.042 59.2729 239.042 59.2729C238.621 85.8265 240.511 91.627 243.125 97.0245C230.648 95.2195 230.194 77.8354 232.134 62.0943C232.587 58.1288 233.55 54.2445 234.997 50.5458C239.476 39.4223 248.253 33.2669 260.027 33.2669C274.267 33.2669 286.096 43.2732 289.19 56.6311C289.683 58.751 289.948 60.9212 289.982 63.1019C290.213 79.5791 288.988 82.0632 286.21 89.4759Z" fill="url(#paint31_linear_548_38284)"/>
<path d="M190.777 90.2861C188.593 92.5161 181.937 92.9892 179.222 91.6004C179.109 91.5435 179.003 91.4822 178.907 91.4208C176.461 89.8436 158.078 78.0104 150.795 74.1156C147.482 72.3413 151.705 69.5856 153.544 70.3392C154.176 66.5627 157.952 67.1585 163.529 71.4081C162.338 69.0161 164.691 66.348 166.977 67.9602C169.01 69.3972 178.991 78.3171 178.991 78.3171C172.563 70.5538 176.537 70.475 177.846 71.3556C180.005 72.8013 183.12 76.718 183.12 76.718C186.147 77.2875 188.55 78.2294 190.276 79.4211C194.284 82.2118 194.654 86.3344 190.777 90.2861Z" fill="#C39873"/>
<path d="M162.93 81.7694C162.855 81.7694 162.781 81.7482 162.716 81.7081C157.176 78.2777 153.101 75.8638 150.601 74.5232C148.803 73.5593 149.09 72.3327 149.296 71.8683C149.856 70.5758 151.822 69.612 153.223 69.8223C153.311 69.3418 153.51 68.8908 153.803 68.5089C154.097 68.1271 154.476 67.8259 154.907 67.6318C156.591 66.922 159.306 67.8596 162.796 70.3393C162.755 69.8564 162.823 69.3702 162.994 68.9193C163.165 68.4684 163.434 68.0651 163.781 67.7413C164.247 67.3074 164.845 67.0561 165.47 67.0305C166.095 67.005 166.709 67.2067 167.207 67.6011C169.236 69.0337 178.851 77.625 179.259 77.9886C179.301 78.026 179.336 78.0716 179.361 78.1229C179.386 78.1742 179.401 78.2301 179.405 78.2875C179.41 78.3448 179.403 78.4025 179.386 78.4572C179.369 78.5119 179.341 78.5626 179.305 78.6063C179.269 78.65 179.226 78.686 179.176 78.7121C179.127 78.7381 179.073 78.7539 179.018 78.7584C178.963 78.7628 178.908 78.756 178.855 78.7381C178.803 78.7203 178.754 78.6919 178.712 78.6545C178.611 78.5669 168.723 69.7303 166.736 68.3284C166.393 68.0445 165.964 67.8959 165.526 67.9087C165.088 67.9215 164.668 68.095 164.341 68.3985C163.976 68.749 163.735 69.2162 163.655 69.7257C163.575 70.2352 163.661 70.758 163.899 71.2111C163.943 71.2989 163.958 71.3999 163.94 71.4975C163.922 71.595 163.873 71.6834 163.8 71.748C163.728 71.8127 163.637 71.8499 163.541 71.8534C163.446 71.8569 163.352 71.8266 163.276 71.7675C159.618 68.9811 156.759 67.7982 155.227 68.4466C154.545 68.7314 154.133 69.3798 153.964 70.4181C153.953 70.4821 153.929 70.5429 153.893 70.5959C153.857 70.649 153.81 70.6931 153.756 70.7249C153.702 70.7568 153.641 70.7757 153.579 70.7802C153.516 70.7847 153.454 70.7748 153.396 70.7511C152.436 70.3568 150.508 71.1892 150.07 72.2144C149.83 72.7664 150.142 73.2746 150.992 73.7302C153.518 75.0752 157.597 77.5023 163.154 80.9414C163.233 80.9904 163.295 81.0651 163.329 81.1541C163.364 81.2431 163.369 81.3415 163.345 81.434C163.32 81.5266 163.267 81.6083 163.194 81.6665C163.121 81.7247 163.031 81.7563 162.939 81.7563L162.93 81.7694Z" fill="#875D3E"/>
<path d="M321.967 208.163C321.205 208.177 320.467 207.884 319.908 207.344C319.868 207.304 319.836 207.256 319.814 207.204C319.791 207.151 319.779 207.094 319.777 207.037C319.776 206.979 319.786 206.922 319.806 206.868C319.825 206.815 319.855 206.765 319.893 206.724C319.932 206.682 319.977 206.649 320.028 206.625C320.078 206.602 320.133 206.589 320.188 206.588C320.244 206.586 320.299 206.596 320.35 206.617C320.402 206.638 320.449 206.669 320.489 206.708C320.797 206.983 321.169 207.168 321.567 207.245C321.965 207.322 322.376 207.288 322.758 207.146C323.084 207.071 323.386 206.911 323.636 206.681C323.886 206.451 324.077 206.159 324.189 205.832C324.207 205.758 324.242 205.69 324.292 205.634C324.343 205.579 324.406 205.538 324.476 205.516C324.547 205.494 324.621 205.491 324.693 205.508C324.764 205.525 324.83 205.561 324.884 205.613C325.098 205.852 325.36 206.04 325.65 206.165C325.941 206.29 326.254 206.348 326.568 206.336C327.211 206.214 327.787 205.847 328.184 205.306C328.25 205.213 328.348 205.151 328.458 205.133C328.567 205.115 328.679 205.143 328.769 205.21C329.086 205.461 329.454 205.631 329.845 205.708C330.236 205.784 330.639 205.763 331.021 205.648C332.68 205.184 334.17 203.278 334.658 202.143C334.681 202.091 334.713 202.043 334.753 202.003C334.793 201.964 334.84 201.933 334.892 201.912C334.943 201.891 334.998 201.881 335.054 201.883C335.109 201.884 335.163 201.897 335.214 201.92C335.265 201.943 335.31 201.977 335.348 202.018C335.387 202.06 335.416 202.109 335.436 202.163C335.456 202.216 335.466 202.274 335.465 202.331C335.463 202.389 335.451 202.446 335.429 202.498C334.86 203.813 333.185 205.955 331.24 206.498C330.8 206.632 330.338 206.669 329.883 206.608C329.428 206.547 328.99 206.389 328.597 206.143C328.086 206.722 327.399 207.098 326.652 207.208C325.977 207.266 325.306 207.063 324.766 206.638C324.352 207.288 323.723 207.756 322.998 207.953C322.666 208.074 322.318 208.145 321.967 208.163Z" fill="#875D3E"/>
<path d="M320.198 207.462C320.117 207.462 320.038 207.437 319.97 207.392C319.878 207.329 319.813 207.231 319.789 207.119C319.765 207.006 319.785 206.889 319.844 206.792C320.227 206.021 320.097 198.441 319.781 191.695C319.775 191.578 319.814 191.465 319.889 191.378C319.964 191.292 320.069 191.24 320.181 191.234C320.292 191.229 320.402 191.269 320.485 191.347C320.567 191.425 320.617 191.535 320.623 191.651C320.783 195.033 321.25 206.152 320.555 207.265C320.516 207.326 320.463 207.377 320.401 207.411C320.338 207.446 320.268 207.463 320.198 207.462Z" fill="#875D3E"/>
<path d="M324.593 206.406C324.526 206.407 324.459 206.39 324.399 206.358C324.339 206.326 324.288 206.28 324.248 206.223C324.209 206.166 324.184 206.1 324.174 206.03C324.165 205.961 324.171 205.89 324.194 205.824C324.863 203.808 325.305 195.261 324.955 191.068C324.946 190.952 324.981 190.837 325.053 190.747C325.126 190.658 325.229 190.603 325.341 190.593C325.452 190.583 325.563 190.62 325.649 190.695C325.734 190.77 325.788 190.877 325.797 190.994C326.155 195.261 325.688 204.019 324.993 206.108C324.965 206.195 324.911 206.271 324.839 206.324C324.768 206.378 324.682 206.406 324.593 206.406Z" fill="#875D3E"/>
<path d="M328.516 206.038C328.433 206.039 328.353 206.014 328.284 205.968C328.215 205.921 328.161 205.855 328.128 205.777C328.094 205.698 328.084 205.612 328.098 205.527C328.111 205.443 328.148 205.365 328.204 205.302C329.14 204.172 329.855 202.862 330.309 201.447C330.452 200.952 330.465 196.277 330.401 192.133C330.401 192.016 330.446 191.905 330.525 191.823C330.604 191.741 330.711 191.695 330.822 191.695C330.934 191.695 331.041 191.741 331.12 191.823C331.199 191.905 331.243 192.016 331.243 192.133C331.273 194.205 331.357 201.017 331.104 201.771C330.61 203.298 329.832 204.709 328.814 205.924C328.733 206.001 328.626 206.042 328.516 206.038Z" fill="#875D3E"/>
<path d="M115.931 389.798C115.78 389.85 110.484 395.524 104.94 401.504C98.7312 408.194 92.2107 415.26 92.2107 415.26L85.0797 420.439L78.656 410.721L78.1172 397.626L92.9852 380.54L97.6788 375.143C97.6788 375.143 116.255 389.684 115.931 389.798Z" fill="#C39873"/>
<path d="M92.2116 415.26C90.553 419.457 89.9342 420.855 87.6569 423.549C86.6424 424.75 84.3398 427.61 81.974 430.449C79.9703 432.85 77.9287 435.229 76.5901 436.583C76.2115 437.029 75.7561 437.398 75.2472 437.669C73.9002 437.994 64.5929 430.66 61.3853 424.088C58.1776 417.516 55.9129 413.096 52.9031 409.985C40.4135 397.11 39.1422 392.864 38.2372 388.426C37.3321 383.988 37.4037 377.386 38.2456 376.072C38.4533 375.746 38.6826 375.435 38.9318 375.143C40.0431 373.829 42.232 371.818 45.0271 371.914C46.4415 371.958 48.0117 372.536 49.6576 373.999C55.5509 379.187 55.9129 382.963 58.3629 383.813C60.8128 384.663 78.0381 389.285 80.3028 389.947C82.5676 390.608 83.9315 394.766 83.2958 397.683C82.6602 400.601 84.887 413.311 92.2116 415.26Z" fill="url(#paint32_linear_548_38284)"/>
<path d="M81.974 430.449C79.9703 432.85 77.9287 435.229 76.5901 436.583C76.2115 437.029 75.7561 437.398 75.2472 437.669C73.9002 437.994 64.5929 430.66 61.3853 424.088C58.1776 417.516 55.9129 413.096 52.9031 409.985C40.4135 397.11 39.1422 392.864 38.2372 388.426C37.3321 383.988 37.4037 377.386 38.2456 376.072C38.4533 375.746 38.6826 375.435 38.9318 375.143C40.0431 373.829 42.232 371.818 45.0271 371.914C48.622 378.924 51.5855 386.889 55.5004 394.056C64.4624 410.494 76.1775 421.306 81.974 430.449Z" fill="url(#paint33_linear_548_38284)"/>
<path opacity="0.15" d="M81.974 430.449C79.9703 432.85 77.9287 435.229 76.5901 436.583C76.2115 437.029 75.7561 437.398 75.2472 437.669C73.9002 437.994 64.5929 430.66 61.3853 424.088C58.1776 417.516 55.9129 413.096 52.9031 409.985C40.4135 397.11 39.1422 392.864 38.2372 388.426C37.3321 383.988 37.4037 377.386 38.2456 376.072C38.4533 375.746 38.6826 375.435 38.9318 375.143C40.0431 373.829 42.232 371.818 45.0271 371.914C48.622 378.924 51.5855 386.889 55.5004 394.056C64.4624 410.494 76.1775 421.306 81.974 430.449Z" fill="url(#paint34_linear_548_38284)"/>
<path d="M115.931 389.798C115.78 389.85 110.484 395.524 104.94 401.504C103.379 391.191 96.2434 383.541 92.9727 380.54L97.6662 375.143C97.6662 375.143 116.255 389.684 115.931 389.798Z" fill="#9E7150"/>
<path d="M88.6328 375.739C88.6328 376.313 93.2928 374.424 107.395 389.14C116.761 398.901 119.181 404.518 118.424 405.412C126.683 394.761 147.692 366.534 180.884 319.775L187.169 243.256C187.169 243.256 147.882 285.41 145.621 289.06C117.531 334.452 88.6076 372.523 88.6328 375.739Z" fill="url(#paint35_linear_548_38284)"/>
<path d="M428.816 380.015C427.554 406.481 414.925 399.046 414.925 399.046L407.891 390.897L399.51 381.189L413.7 366.486L418.865 371.104L428.816 380.015Z" fill="#C39873"/>
<path d="M418.851 371.125C415.311 375.252 410.55 382.017 407.877 390.919L399.496 381.211L413.686 366.508L418.851 371.125Z" fill="#9E7150"/>
<path d="M468.323 373.211C468.277 373.465 468.231 373.719 468.185 373.982C467.937 375.227 467.531 376.432 466.976 377.566C463.47 385.013 454.348 392.729 452.664 394.915C450.669 397.469 450.673 398.647 447.554 405.293C444.434 411.939 435.653 421.42 432.256 421.429C431.987 421.429 431.562 421.166 431.015 420.697C429.613 419.501 427.441 416.991 425.302 414.388C422.2 410.594 419.165 406.599 418.672 406.135C417.708 405.228 416.298 402.235 414.98 399.151C422.221 397.486 424.267 386.306 423.993 382.941C423.719 379.577 424.338 375.695 427.045 374.683C429.752 373.671 448.812 368.216 449.423 368.028C450.033 367.84 454.63 360.287 457.24 357.825C458.326 356.799 460.186 356.572 462.085 356.799C464.733 357.115 467.439 358.307 468.155 359.428L468.21 359.516C469.325 361.417 469.679 365.474 468.323 373.211Z" fill="url(#paint36_linear_548_38284)"/>
<path d="M468.322 373.211C468.276 373.465 468.229 373.719 468.183 373.982C467.935 375.227 467.529 376.432 466.975 377.566C463.468 385.013 454.346 392.728 452.663 394.915C450.667 397.469 450.672 398.647 447.552 405.293C444.433 411.939 435.652 421.42 432.255 421.429C431.985 421.429 431.56 421.166 431.013 420.697C429.611 419.501 427.439 416.991 425.301 414.388C430.659 404.181 437.437 398.656 443.069 391.681C454.271 377.815 457.323 362.587 462.084 356.808C464.731 357.124 467.438 358.315 468.154 359.437L468.208 359.524C469.324 361.417 469.678 365.474 468.322 373.211Z" fill="url(#paint37_linear_548_38284)"/>
<path opacity="0.15" d="M468.322 373.211C468.276 373.465 468.229 373.719 468.183 373.982C467.935 375.227 467.529 376.432 466.975 377.566C463.468 385.013 454.346 392.728 452.663 394.915C450.667 397.469 450.672 398.647 447.552 405.293C444.433 411.939 435.652 421.42 432.255 421.429C431.985 421.429 431.56 421.166 431.013 420.697C429.611 419.501 427.439 416.991 425.301 414.388C430.659 404.181 437.437 398.656 443.069 391.681C454.271 377.815 457.323 362.587 462.084 356.808C464.731 357.124 467.438 358.315 468.154 359.437L468.208 359.524C469.324 361.417 469.678 365.474 468.322 373.211Z" fill="url(#paint38_linear_548_38284)"/>
<path d="M468.323 373.211C467.902 374.591 467.481 376.054 466.976 377.566C463.469 385.013 454.347 392.729 452.663 394.915C450.668 397.469 450.672 398.647 447.553 405.293C444.434 411.939 435.653 421.42 432.255 421.429C431.986 421.429 431.561 421.166 431.014 420.697C434.099 412.373 444.215 403.449 445.941 399.992C447.477 396.926 457.134 384.19 460.169 374.21C462.854 365.382 464.315 358.639 468.209 359.516C469.324 361.417 469.678 365.474 468.323 373.211Z" fill="url(#paint39_linear_548_38284)"/>
<path d="M396.499 393.754C397.43 387.62 405.79 379.962 410.74 374.915C415.69 369.868 419.841 367.441 421.02 368.782C421.02 368.782 420.216 367.686 416.389 363.432C412.563 359.178 371.928 306.847 365.113 299.627C358.298 292.407 308.02 242.007 308.02 242.007L316.594 311.061C316.594 311.061 362.798 356.83 396.499 393.754Z" fill="url(#paint40_linear_548_38284)"/>
<path d="M319.984 383.27C318.115 411.16 318.674 432.968 299.029 437.643C292.066 439.299 283.656 441.008 275.695 442.519C257.534 445.967 238.923 445.967 220.761 442.519C212.805 441.008 204.395 439.299 197.428 437.643C177.782 432.968 178.342 411.16 176.473 383.27C174.604 355.38 176.098 300.161 179.091 273.485C182.084 246.808 182.274 238.822 191.252 232.202C201.048 224.982 216.998 221.635 231.554 220.303C237.519 219.755 243.253 219.545 248.228 219.545C256.744 219.545 267.478 220.158 277.813 222.029C288.244 223.917 298.267 227.085 305.204 232.202C314.183 238.822 314.372 246.808 317.365 273.485C320.358 300.161 321.857 355.375 319.984 383.27Z" fill="url(#paint41_linear_548_38284)"/>
<path d="M272.315 421.823C272.284 421.505 272.254 421.189 272.226 420.877H224.238C224.207 421.186 224.178 421.502 224.149 421.823C223.018 432.029 222.469 442.296 222.508 452.569C222.508 453.533 222.508 454.493 222.508 455.448V455.531C222.765 483.202 226.629 505.712 231.592 509.549C232.099 509.772 232.618 509.967 233.145 510.132C234.672 510.609 236.258 510.85 237.851 510.846H258.617C260.211 510.85 261.797 510.609 263.323 510.132C263.846 509.969 264.36 509.778 264.864 509.558C269.827 505.72 273.704 483.211 273.948 455.54V455.456C273.948 454.501 273.948 453.542 273.948 452.578C273.99 442.302 273.444 432.032 272.315 421.823Z" fill="url(#paint42_linear_548_38284)"/>
<path d="M243.719 452.569C243.719 484.306 238.983 510.036 233.14 510.123C232.617 509.96 232.103 509.769 231.6 509.549C226.637 505.712 222.76 483.202 222.516 455.531V455.448C222.516 454.493 222.516 453.533 222.516 452.569C222.477 442.296 223.025 432.029 224.157 421.823C224.191 421.508 224.233 421.192 224.267 420.877H241.985C243.187 431.394 243.767 441.978 243.719 452.569Z" fill="url(#paint43_linear_548_38284)"/>
<path d="M233.175 489.138C236.897 489.138 239.914 472.766 239.914 452.569C239.914 432.373 236.897 416.001 233.175 416.001C229.453 416.001 226.436 432.373 226.436 452.569C226.436 472.766 229.453 489.138 233.175 489.138Z" fill="url(#paint44_linear_548_38284)"/>
<path d="M283.163 346.504H213.285C211.834 346.504 210.442 347.104 209.415 348.172C208.389 349.24 207.812 350.689 207.812 352.199V371.252C207.815 372.686 208.336 374.065 209.272 375.116C210.209 376.166 211.491 376.811 212.864 376.922L248.224 379.8L283.584 376.922C284.957 376.811 286.239 376.166 287.175 375.116C288.112 374.065 288.633 372.686 288.635 371.252V352.208C288.636 351.459 288.496 350.718 288.221 350.026C287.947 349.334 287.544 348.705 287.035 348.175C286.527 347.645 285.923 347.225 285.259 346.938C284.594 346.651 283.882 346.504 283.163 346.504Z" fill="url(#paint45_linear_548_38284)"/>
<path d="M299.374 184.545C290.21 184.365 285.824 185.78 279.93 181.522C271.554 175.463 265.618 161.023 248.666 160.541V160.524H248.245H247.824C230.881 161.01 224.937 175.45 216.56 181.505C210.667 185.763 206.285 184.352 197.117 184.527C191.156 184.641 186.984 188.317 187.014 197.373C187.043 206.428 189.089 209.999 193.749 209.999C197.416 209.999 224.807 209.175 224.807 209.175C224.807 209.175 227.429 270.624 228.086 282.229C228.743 293.835 231.529 304.406 248.208 304.42H248.237C264.919 304.42 267.706 293.831 268.358 282.229C269.011 270.628 271.638 209.175 271.638 209.175C271.638 209.175 299.025 209.999 302.695 209.999C307.372 209.999 309.397 206.428 309.431 197.373C309.464 188.317 305.331 184.659 299.374 184.545Z" fill="url(#paint46_linear_548_38284)"/>
<path d="M444.022 35.3128C441.64 35.3128 439.313 34.5779 437.333 33.2011C435.353 31.8243 433.81 29.8674 432.899 27.5779C431.988 25.2884 431.749 22.7691 432.214 20.3385C432.678 17.908 433.825 15.6754 435.509 13.923C437.192 12.1707 439.337 10.9773 441.673 10.4939C444.008 10.0104 446.429 10.2585 448.629 11.2069C450.829 12.1552 452.709 13.7612 454.032 15.8218C455.355 17.8823 456.061 20.3048 456.061 22.783C456.058 26.105 454.788 29.29 452.531 31.639C450.274 33.9881 447.214 35.3093 444.022 35.3128Z" fill="url(#paint47_linear_548_38284)"/>
<path d="M444.022 72.1664C441.64 72.1664 439.313 71.4316 437.333 70.0548C435.353 68.678 433.81 66.7211 432.899 64.4315C431.988 62.142 431.749 59.6227 432.214 57.1921C432.678 54.7616 433.825 52.529 435.509 50.7766C437.192 49.0243 439.337 47.831 441.673 47.3475C444.008 46.864 446.429 47.1122 448.629 48.0605C450.829 49.0089 452.709 50.6149 454.032 52.6754C455.355 54.7359 456.061 57.1584 456.061 59.6366C456.058 62.9586 454.788 66.1436 452.531 68.4927C450.274 70.8417 447.214 72.1629 444.022 72.1664Z" fill="url(#paint48_linear_548_38284)"/>
<path d="M444.022 109.016C441.64 109.016 439.313 108.281 437.333 106.904C435.353 105.527 433.81 103.57 432.899 101.281C431.988 98.9912 431.749 96.4719 432.214 94.0413C432.678 91.6108 433.825 89.3782 435.509 87.6258C437.192 85.8735 439.337 84.6802 441.673 84.1967C444.008 83.7132 446.429 83.9614 448.629 84.9097C450.829 85.8581 452.709 87.4641 454.032 89.5246C455.355 91.5851 456.061 94.0076 456.061 96.4858C456.058 99.8078 454.788 102.993 452.531 105.342C450.274 107.691 447.214 109.012 444.022 109.016Z" fill="url(#paint49_linear_548_38284)"/>
<path d="M76.5901 436.561C76.2115 437.007 75.7561 437.376 75.2472 437.648C73.9002 437.972 64.5929 430.638 61.3853 424.066C58.1776 417.495 55.9129 413.074 52.9031 409.964C40.4135 397.088 39.1422 392.842 38.2372 388.404C37.3321 383.966 37.4037 377.386 38.2456 376.072C38.4533 375.746 38.6826 375.435 38.9318 375.143C41.1754 375.818 42.6908 377.439 43.7643 381.246C45.4481 387.195 47.3129 396.233 53.9134 404.79C60.5139 413.346 63.0775 419.396 69.7791 426.16C73.7486 430.169 75.6766 434.064 76.5901 436.561Z" fill="url(#paint50_linear_548_38284)"/>
<path d="M308.495 274.799C310.048 275.631 310.574 278.79 310.574 283.035C310.574 287.281 311.084 310.851 310.574 312.126C310.065 313.401 301.086 314.886 300.269 312.976C299.453 311.065 300.37 292.91 301.494 285.585C302.618 278.26 305.725 273.309 308.495 274.799Z" fill="url(#paint51_linear_548_38284)"/>
<path d="M187.96 274.799C186.407 275.631 185.881 278.79 185.881 283.035C185.881 287.281 185.371 310.851 185.881 312.126C186.39 313.401 195.369 314.886 196.186 312.976C197.002 311.065 196.085 292.91 194.961 285.585C193.837 278.26 190.734 273.309 187.96 274.799Z" fill="url(#paint52_linear_548_38284)"/>
<path d="M248.228 296.713C254.963 296.713 260.423 291.031 260.423 284.021C260.423 277.012 254.963 271.329 248.228 271.329C241.493 271.329 236.033 277.012 236.033 284.021C236.033 291.031 241.493 296.713 248.228 296.713Z" fill="url(#paint53_linear_548_38284)"/>
<path d="M248.228 210.586C260.559 210.586 270.555 200.182 270.555 187.349C270.555 174.515 260.559 164.112 248.228 164.112C235.897 164.112 225.9 174.515 225.9 187.349C225.9 200.182 235.897 210.586 248.228 210.586Z" fill="url(#paint54_linear_548_38284)"/>
<path d="M261.391 177.307C261.094 177.307 260.801 177.242 260.531 177.116C260.26 176.99 260.018 176.806 259.821 176.576C258.412 174.934 256.697 173.609 254.779 172.681C252.862 171.754 250.782 171.243 248.669 171.181C246.555 171.118 244.451 171.506 242.486 172.319C240.521 173.132 238.736 174.354 237.241 175.91C236.844 176.309 236.312 176.53 235.76 176.525C235.208 176.52 234.681 176.289 234.29 175.883C233.9 175.477 233.679 174.928 233.674 174.353C233.669 173.779 233.881 173.225 234.265 172.812C236.165 170.835 238.433 169.281 240.93 168.247C243.427 167.214 246.101 166.721 248.787 166.8C251.473 166.878 254.116 167.527 256.553 168.705C258.99 169.884 261.171 171.568 262.961 173.653C263.231 173.969 263.408 174.359 263.471 174.777C263.533 175.194 263.478 175.622 263.312 176.008C263.146 176.393 262.876 176.721 262.535 176.951C262.194 177.181 261.797 177.303 261.391 177.303V177.307Z" fill="url(#paint55_linear_548_38284)"/>
<path d="M248.227 207.905C244.981 207.907 241.785 207.077 238.921 205.486C236.058 203.896 233.615 201.595 231.81 198.788C231.646 198.549 231.53 198.279 231.469 197.993C231.407 197.707 231.402 197.411 231.452 197.123C231.502 196.834 231.608 196.559 231.762 196.314C231.916 196.069 232.116 195.859 232.35 195.695C232.584 195.532 232.847 195.419 233.123 195.364C233.399 195.308 233.684 195.311 233.959 195.371C234.235 195.432 234.496 195.55 234.727 195.718C234.958 195.885 235.154 196.099 235.304 196.347C236.679 198.482 238.524 200.246 240.685 201.491C242.846 202.737 245.26 203.428 247.729 203.509C250.198 203.589 252.65 203.056 254.881 201.954C257.113 200.852 259.06 199.212 260.561 197.171C260.9 196.71 261.402 196.408 261.955 196.331C262.509 196.255 263.069 196.41 263.512 196.763C263.955 197.117 264.245 197.639 264.319 198.215C264.392 198.791 264.243 199.373 263.903 199.835C262.068 202.35 259.697 204.388 256.977 205.788C254.257 207.188 251.262 207.913 248.227 207.905Z" fill="url(#paint56_linear_548_38284)"/>
<path d="M354.97 161.36C363.72 161.36 370.814 153.977 370.814 144.87C370.814 135.763 363.72 128.38 354.97 128.38C346.219 128.38 339.125 135.763 339.125 144.87C339.125 153.977 346.219 161.36 354.97 161.36Z" fill="url(#paint57_linear_548_38284)"/>
<path d="M141.493 161.36C150.244 161.36 157.338 153.977 157.338 144.87C157.338 135.763 150.244 128.38 141.493 128.38C132.742 128.38 125.648 135.763 125.648 144.87C125.648 153.977 132.742 161.36 141.493 161.36Z" fill="url(#paint58_linear_548_38284)"/>
<path d="M268.989 210.555C268.85 210.556 268.715 210.509 268.605 210.422C268.495 210.334 268.415 210.212 268.378 210.073C268.341 209.934 268.349 209.786 268.401 209.653C268.453 209.519 268.546 209.406 268.665 209.333C269.581 208.764 270.638 208.487 271.704 208.536C271.871 208.551 272.026 208.636 272.134 208.77C272.242 208.904 272.294 209.078 272.279 209.252C272.263 209.426 272.182 209.587 272.053 209.699C271.924 209.811 271.758 209.866 271.59 209.85C270.791 209.827 270.001 210.04 269.313 210.463C269.215 210.524 269.103 210.556 268.989 210.555Z" fill="#308B85"/>
<path d="M248.215 215.431C248.048 215.431 247.887 215.362 247.769 215.239C247.651 215.115 247.584 214.948 247.584 214.774C247.584 214.6 247.651 214.433 247.769 214.309C247.887 214.186 248.048 214.117 248.215 214.117C253.595 214.117 261.185 213 272.21 204.299C272.275 204.243 272.351 204.202 272.433 204.177C272.514 204.152 272.6 204.145 272.684 204.156C272.768 204.166 272.849 204.194 272.923 204.238C272.997 204.282 273.061 204.341 273.112 204.411C273.163 204.482 273.2 204.562 273.221 204.648C273.242 204.733 273.246 204.823 273.233 204.91C273.22 204.997 273.19 205.081 273.145 205.156C273.1 205.231 273.041 205.295 272.972 205.346C261.648 214.283 253.772 215.431 248.215 215.431Z" fill="#308B85"/>
<path d="M227.466 210.555C227.352 210.556 227.24 210.524 227.142 210.463C226.453 210.04 225.664 209.827 224.865 209.85C224.697 209.866 224.531 209.811 224.402 209.699C224.272 209.587 224.191 209.426 224.176 209.252C224.161 209.078 224.213 208.904 224.321 208.77C224.429 208.636 224.584 208.551 224.751 208.536C225.817 208.487 226.874 208.764 227.79 209.333C227.909 209.406 228.002 209.519 228.054 209.653C228.106 209.786 228.114 209.934 228.077 210.073C228.04 210.212 227.96 210.334 227.85 210.422C227.739 210.509 227.605 210.556 227.466 210.555Z" fill="#308B85"/>
<path d="M248.244 215.431C242.667 215.431 234.812 214.283 223.48 205.355C223.41 205.304 223.351 205.239 223.306 205.164C223.262 205.089 223.232 205.006 223.219 204.919C223.205 204.831 223.209 204.742 223.23 204.657C223.251 204.571 223.288 204.491 223.339 204.42C223.39 204.35 223.455 204.291 223.528 204.247C223.602 204.203 223.683 204.175 223.767 204.164C223.852 204.154 223.937 204.161 224.018 204.186C224.1 204.21 224.176 204.252 224.242 204.308C235.27 213.013 242.86 214.126 248.236 214.126C248.403 214.126 248.564 214.195 248.682 214.318C248.801 214.441 248.867 214.609 248.867 214.783C248.867 214.957 248.801 215.124 248.682 215.248C248.564 215.371 248.403 215.44 248.236 215.44L248.244 215.431Z" fill="#308B85"/>
<path d="M214.923 146.552C214.767 146.552 214.617 146.492 214.501 146.384C214.386 146.275 214.312 146.126 214.296 145.965C214.296 145.886 213.454 137.922 211.871 130.062C211.836 129.891 211.868 129.713 211.96 129.567C212.052 129.421 212.195 129.318 212.359 129.282C212.523 129.246 212.695 129.279 212.835 129.375C212.976 129.47 213.074 129.62 213.109 129.79C214.7 137.716 215.546 145.742 215.554 145.821C215.572 145.994 215.523 146.167 215.418 146.303C215.313 146.438 215.161 146.525 214.994 146.544L214.923 146.552Z" fill="#51823B"/>
<path d="M198.796 141.532C198.688 141.532 198.582 141.503 198.488 141.448C197.398 140.809 197.166 136.581 197.31 119.894C197.31 117.602 197.348 115.425 197.348 113.55C197.348 113.376 197.414 113.208 197.532 113.085C197.651 112.962 197.811 112.893 197.979 112.893C198.146 112.893 198.307 112.962 198.425 113.085C198.544 113.208 198.61 113.376 198.61 113.55C198.61 115.425 198.61 117.607 198.572 119.907C198.509 127.539 198.413 139.048 199.183 140.357C199.288 140.441 199.365 140.557 199.403 140.689C199.441 140.821 199.439 140.961 199.396 141.092C199.353 141.222 199.272 141.335 199.164 141.414C199.057 141.494 198.928 141.537 198.796 141.536V141.532Z" fill="#51823B"/>
<path d="M307.679 155.595H307.653C307.57 155.59 307.489 155.569 307.414 155.531C307.339 155.494 307.272 155.442 307.217 155.378C307.161 155.313 307.118 155.238 307.091 155.157C307.063 155.075 307.051 154.989 307.056 154.902C307.077 154.464 307.11 153.947 307.144 153.417C307.211 152.361 307.279 151.266 307.291 150.425C307.371 143.888 309.527 139.521 310.954 138.18C311.101 138.013 311.28 137.88 311.479 137.788C311.678 137.697 311.894 137.65 312.111 137.65C312.279 137.657 312.436 137.734 312.55 137.862C312.663 137.991 312.723 138.161 312.715 138.335C312.708 138.51 312.635 138.674 312.511 138.792C312.387 138.91 312.224 138.972 312.057 138.964C311.442 139.214 308.651 142.933 308.554 150.443C308.554 151.319 308.474 152.432 308.403 153.509C308.369 154.031 308.335 154.534 308.314 154.977C308.305 155.145 308.233 155.303 308.115 155.418C307.997 155.533 307.841 155.596 307.679 155.595Z" fill="#51823B"/>
<path d="M325.945 172.387C325.812 172.388 325.682 172.344 325.574 172.263C325.466 172.182 325.386 172.067 325.344 171.935C325.302 171.803 325.302 171.661 325.343 171.529C325.383 171.397 325.463 171.282 325.571 171.2C328.332 169.071 335.446 163.038 335.518 162.977C335.582 162.919 335.656 162.875 335.736 162.848C335.816 162.821 335.901 162.811 335.985 162.818C336.069 162.826 336.151 162.85 336.226 162.891C336.301 162.932 336.367 162.989 336.42 163.057C336.474 163.125 336.514 163.203 336.538 163.287C336.562 163.372 336.569 163.46 336.559 163.547C336.55 163.635 336.523 163.719 336.482 163.796C336.44 163.872 336.384 163.939 336.318 163.993C336.246 164.055 329.111 170.127 326.328 172.256C326.218 172.342 326.083 172.389 325.945 172.387Z" fill="#51823B"/>
<path d="M289.166 56.6439C282.746 56.6439 274.597 54.2781 264.406 50.173C253.04 45.5992 243.139 46.4185 234.973 50.5586C239.452 39.4351 248.228 33.2797 260.002 33.2797C274.243 33.2797 286.072 43.286 289.166 56.6439Z" fill="url(#paint59_linear_548_38284)"/>
<path d="M268.504 68.6216C268.386 68.6219 268.27 68.5875 268.17 68.5225C268.069 68.4574 267.988 68.3642 267.936 68.2536C266.16 64.4772 261.491 62.8518 256.57 64.3107C256.409 64.3583 256.236 64.3373 256.09 64.2523C255.943 64.1672 255.835 64.0251 255.79 63.8572C255.744 63.6893 255.764 63.5094 255.846 63.357C255.927 63.2046 256.064 63.0922 256.225 63.0446C261.727 61.4148 267.002 63.3206 269.056 67.6797C269.103 67.78 269.125 67.8912 269.119 68.0027C269.114 68.1142 269.081 68.2225 269.024 68.3172C268.967 68.4119 268.888 68.4899 268.794 68.544C268.701 68.598 268.595 68.6262 268.488 68.626L268.504 68.6216Z" fill="#654B1E"/>
<path d="M250.321 83.8158H250.287C249.851 83.8085 249.423 83.6835 249.047 83.4532C248.671 83.2228 248.358 82.8949 248.14 82.5015C246.772 79.9911 248.948 74.8039 249.946 72.6879C250.611 71.2772 250.834 70.2827 250.611 69.7394C250.434 69.3013 249.933 69.148 249.403 68.9771L249.104 68.8763C248.998 68.8397 248.91 68.7608 248.86 68.6569C248.81 68.5529 248.802 68.4325 248.837 68.3222C248.872 68.2118 248.948 68.1204 249.048 68.0683C249.148 68.0161 249.263 68.0073 249.369 68.044L249.651 68.1359C250.274 68.3375 251.053 68.5741 251.386 69.3846C251.718 70.1951 251.508 71.3692 250.704 73.0646C249.193 76.2628 247.921 80.3022 248.877 82.059C249.03 82.3266 249.248 82.5482 249.508 82.7018C249.769 82.8554 250.063 82.9358 250.363 82.9352C250.474 82.9398 250.58 82.9904 250.655 83.0759C250.731 83.1613 250.771 83.2746 250.767 83.3908C250.762 83.507 250.714 83.6166 250.632 83.6955C250.55 83.7743 250.441 83.816 250.329 83.8114L250.321 83.8158Z" fill="#875D3E"/>
<path d="M254.29 90.7637C254.11 90.7637 253.932 90.755 253.755 90.7375C253.588 90.7206 253.433 90.6352 253.326 90.5001C253.219 90.3649 253.168 90.1911 253.185 90.0168C253.201 89.8425 253.283 89.682 253.413 89.5707C253.543 89.4594 253.71 89.4063 253.877 89.4231C256.963 89.7386 260.76 86.5404 261.799 84.7004C261.841 84.6259 261.897 84.5607 261.963 84.5086C262.03 84.4565 262.105 84.4185 262.185 84.3967C262.266 84.375 262.349 84.3699 262.431 84.3817C262.514 84.3936 262.593 84.4222 262.664 84.466C262.736 84.5097 262.799 84.5677 262.849 84.6366C262.899 84.7055 262.935 84.784 262.956 84.8676C262.977 84.9512 262.982 85.0383 262.971 85.1238C262.959 85.2094 262.932 85.2918 262.89 85.3663C261.589 87.6707 257.699 90.7637 254.29 90.7637Z" fill="#875D3E"/>
<path d="M261.132 72.3941C261.446 71.149 261.049 69.9619 260.246 69.7427C259.444 69.5236 258.538 70.3552 258.225 71.6003C257.911 72.8454 258.307 74.0324 259.11 74.2516C259.913 74.4708 260.818 73.6392 261.132 72.3941Z" fill="#654B1E"/>
<path d="M245.817 71.4778C246.131 70.2328 245.735 69.0457 244.932 68.8265C244.129 68.6073 243.224 69.439 242.91 70.6841C242.596 71.9292 242.993 73.1162 243.795 73.3354C244.598 73.5546 245.503 72.7229 245.817 71.4778Z" fill="#654B1E"/>
<path d="M171.784 79.0664C171.693 79.0664 171.604 79.0356 171.532 78.9787C171.494 78.9525 167.857 76.1048 163.247 71.7544C163.202 71.717 163.166 71.6705 163.139 71.6177C163.112 71.5649 163.096 71.507 163.091 71.4474C163.087 71.3879 163.094 71.328 163.112 71.2715C163.131 71.215 163.16 71.163 163.199 71.1187C163.237 71.0745 163.284 71.0389 163.336 71.0141C163.388 70.9893 163.445 70.976 163.502 70.9748C163.56 70.9736 163.617 70.9846 163.67 71.0072C163.723 71.0297 163.771 71.0633 163.811 71.106C168.391 75.4257 171.999 78.2515 172.037 78.2778C172.107 78.3329 172.16 78.4099 172.186 78.4976C172.212 78.5854 172.211 78.6796 172.183 78.7668C172.156 78.854 172.102 78.9299 172.03 78.9837C171.959 79.0374 171.872 79.0664 171.784 79.0664Z" fill="#875D3E"/>
<path d="M167.056 79.4736C166.974 79.4742 166.894 79.4498 166.825 79.4035C166.749 79.3509 159.063 74.1462 153.355 70.764C153.306 70.7352 153.264 70.6969 153.23 70.6512C153.197 70.6054 153.172 70.5532 153.157 70.4975C153.143 70.4417 153.139 70.3836 153.146 70.3263C153.153 70.2691 153.171 70.2139 153.199 70.1638C153.226 70.1137 153.263 70.0699 153.307 70.0346C153.351 69.9994 153.401 69.9735 153.455 69.9584C153.508 69.9434 153.564 69.9395 153.619 69.9469C153.674 69.9543 153.727 69.9729 153.775 70.0017C159.513 73.3926 167.221 78.6193 167.296 78.6718C167.372 78.7244 167.429 78.8009 167.459 78.8899C167.489 78.9789 167.491 79.0757 167.464 79.1658C167.437 79.2559 167.382 79.3345 167.309 79.3899C167.236 79.4454 167.147 79.4747 167.056 79.4736Z" fill="#875D3E"/>
<path d="M179.828 79.6181C179.726 79.618 179.627 79.579 179.55 79.5086L176.288 76.512C176.244 76.4749 176.207 76.4288 176.18 76.3766C176.154 76.3244 176.137 76.2671 176.132 76.2082C176.128 76.1493 176.134 76.0899 176.152 76.0338C176.17 75.9776 176.198 75.9257 176.236 75.8813C176.273 75.8369 176.319 75.8009 176.37 75.7754C176.422 75.7499 176.477 75.7355 176.534 75.7331C176.591 75.7306 176.648 75.7401 176.701 75.761C176.754 75.7819 176.802 75.8138 176.843 75.8548L180.106 78.8514C180.17 78.9103 180.215 78.988 180.236 79.0743C180.256 79.1606 180.251 79.2514 180.221 79.3346C180.191 79.4178 180.137 79.4895 180.067 79.5402C179.997 79.5908 179.913 79.618 179.828 79.6181Z" fill="#875D3E"/>
<path d="M237.221 186.372C237.832 182.779 242.475 182.179 245.724 185.736C248.532 188.803 251.904 186.385 253.655 184.829C256.227 182.547 262.916 186.262 258.597 192.799C253.432 200.601 235.057 199.077 237.221 186.372Z" fill="url(#paint60_linear_548_38284)"/>
<path d="M286.4 410.244C277.943 368.747 256.129 363.923 249.356 363.441H249.167C249.167 363.441 248.834 363.41 248.237 363.415C247.639 363.419 247.306 363.441 247.306 363.441H247.117C240.344 363.923 218.547 368.742 210.073 410.178V410.244C209.655 413.35 210.025 416.516 211.145 419.428C212.265 422.339 214.097 424.896 216.459 426.844C218.858 428.828 221.405 430.725 222.971 431.299C226.612 432.614 240.104 433.976 248.228 433.976C256.353 433.976 269.861 432.636 273.485 431.299C275.047 430.725 277.598 428.828 279.997 426.844C282.362 424.898 284.197 422.342 285.321 419.43C286.444 416.519 286.816 413.352 286.4 410.244Z" fill="url(#paint61_linear_548_38284)"/>
<path d="M214.304 140.875C214.669 142.58 214.821 144.328 214.754 146.075C214.413 146.434 213.559 147.31 212.308 148.48C207.56 134.15 197.996 129.931 197.996 129.931V113.545C207.063 104.888 212.607 99.1186 218.753 98.571C220.248 98.4396 222.251 98.4001 224.428 98.4133C218.947 106.4 210.721 123.959 214.304 140.875Z" fill="url(#paint62_linear_548_38284)"/>
<path d="M449.817 123.902H438.22C438.053 123.902 437.892 123.971 437.774 124.095C437.655 124.218 437.589 124.385 437.589 124.559V315.714C437.582 315.762 437.582 315.81 437.589 315.858V315.942L438.195 315.714C442.153 314.201 446.025 312.454 449.792 310.483L450.423 310.15V124.559C450.424 124.389 450.36 124.226 450.247 124.104C450.134 123.981 449.98 123.909 449.817 123.902Z" fill="url(#paint63_linear_548_38284)"/>
<path d="M450.45 124.559V128.143C448.473 129.247 446.264 129.825 444.02 129.825C441.776 129.825 439.567 129.247 437.59 128.143V124.559C437.59 124.385 437.656 124.218 437.775 124.095C437.893 123.971 438.054 123.902 438.221 123.902H449.818C449.986 123.902 450.147 123.971 450.265 124.095C450.383 124.218 450.45 124.385 450.45 124.559Z" fill="url(#paint64_linear_548_38284)"/>
<path d="M279.304 140.079C278.98 140.079 278.668 140.04 278.368 139.961C278.071 139.878 277.828 139.773 277.64 139.645L278.007 138.821C278.183 138.934 278.386 139.028 278.616 139.103C278.849 139.175 279.08 139.211 279.309 139.211C279.464 139.211 279.588 139.197 279.682 139.171C279.776 139.141 279.843 139.103 279.885 139.058C279.93 139.009 279.952 138.953 279.952 138.889C279.952 138.799 279.911 138.727 279.828 138.675C279.746 138.622 279.638 138.579 279.507 138.545C279.375 138.511 279.229 138.477 279.067 138.444C278.909 138.41 278.749 138.366 278.588 138.314C278.43 138.261 278.285 138.194 278.153 138.111C278.022 138.024 277.915 137.913 277.832 137.778C277.749 137.639 277.708 137.464 277.708 137.254C277.708 137.017 277.772 136.802 277.9 136.611C278.031 136.419 278.227 136.265 278.486 136.148C278.745 136.032 279.069 135.973 279.456 135.973C279.715 135.973 279.969 136.004 280.217 136.064C280.469 136.12 280.693 136.205 280.889 136.317L280.544 137.146C280.357 137.045 280.17 136.97 279.986 136.921C279.802 136.868 279.623 136.842 279.45 136.842C279.296 136.842 279.172 136.859 279.078 136.893C278.984 136.923 278.917 136.964 278.875 137.017C278.834 137.069 278.813 137.13 278.813 137.197C278.813 137.284 278.853 137.353 278.932 137.406C279.014 137.455 279.121 137.496 279.253 137.53C279.388 137.56 279.535 137.592 279.693 137.626C279.855 137.66 280.014 137.703 280.172 137.756C280.334 137.804 280.481 137.872 280.612 137.959C280.744 138.041 280.849 138.152 280.928 138.291C281.011 138.427 281.052 138.598 281.052 138.804C281.052 139.034 280.986 139.246 280.855 139.442C280.727 139.633 280.533 139.788 280.274 139.904C280.018 140.021 279.695 140.079 279.304 140.079ZM282.882 140.051C282.491 140.051 282.186 139.955 281.968 139.763C281.75 139.568 281.641 139.274 281.641 138.883V136.261H282.713V138.872C282.713 138.981 282.743 139.068 282.803 139.132C282.863 139.192 282.94 139.222 283.034 139.222C283.162 139.222 283.271 139.19 283.361 139.126L283.626 139.876C283.536 139.936 283.425 139.979 283.294 140.006C283.162 140.036 283.025 140.051 282.882 140.051ZM281.196 137.857V137.056H283.412V137.857H281.196ZM285.325 140.051C285.077 140.051 284.853 140.002 284.654 139.904C284.459 139.806 284.305 139.654 284.192 139.447C284.083 139.237 284.028 138.972 284.028 138.652V136.943H285.1V138.477C285.1 138.714 285.143 138.883 285.229 138.985C285.32 139.086 285.446 139.137 285.607 139.137C285.713 139.137 285.808 139.113 285.895 139.064C285.981 139.015 286.051 138.938 286.104 138.833C286.156 138.724 286.182 138.585 286.182 138.415V136.943H287.254V140H286.233V139.137L286.431 139.38C286.325 139.605 286.173 139.774 285.974 139.887C285.775 139.996 285.558 140.051 285.325 140.051ZM288.068 140V136.977C288.068 136.609 288.177 136.316 288.395 136.097C288.617 135.876 288.933 135.765 289.343 135.765C289.474 135.765 289.604 135.778 289.732 135.804C289.86 135.831 289.967 135.87 290.053 135.923L289.788 136.678C289.743 136.652 289.692 136.631 289.636 136.616C289.58 136.598 289.523 136.588 289.467 136.588C289.354 136.588 289.266 136.622 289.202 136.69C289.142 136.754 289.112 136.853 289.112 136.989V137.208L289.14 137.654V140H288.068ZM287.623 137.857V137.056H289.839V137.857H287.623ZM290.359 140V136.977C290.359 136.609 290.468 136.316 290.686 136.097C290.908 135.876 291.224 135.765 291.634 135.765C291.765 135.765 291.895 135.778 292.023 135.804C292.151 135.831 292.258 135.87 292.344 135.923L292.079 136.678C292.034 136.652 291.984 136.631 291.927 136.616C291.871 136.598 291.814 136.588 291.758 136.588C291.645 136.588 291.557 136.622 291.493 136.69C291.433 136.754 291.403 136.853 291.403 136.989V137.208L291.431 137.654V140H290.359ZM289.914 137.857V137.056H292.13V137.857H289.914ZM292.621 140V136.943H293.692V140H292.621ZM293.157 136.605C292.961 136.605 292.803 136.551 292.683 136.442C292.563 136.332 292.502 136.197 292.502 136.035C292.502 135.874 292.563 135.738 292.683 135.629C292.803 135.52 292.961 135.466 293.157 135.466C293.352 135.466 293.51 135.519 293.63 135.624C293.751 135.725 293.811 135.857 293.811 136.019C293.811 136.188 293.751 136.329 293.63 136.442C293.514 136.551 293.356 136.605 293.157 136.605ZM296.379 136.893C296.615 136.893 296.83 136.942 297.021 137.039C297.213 137.133 297.364 137.28 297.473 137.479C297.585 137.678 297.642 137.936 297.642 138.252V140H296.57V138.427C296.57 138.209 296.525 138.051 296.435 137.953C296.348 137.851 296.226 137.801 296.068 137.801C295.956 137.801 295.852 137.827 295.758 137.88C295.664 137.928 295.591 138.006 295.538 138.111C295.486 138.216 295.459 138.353 295.459 138.523V140H294.388V136.943H295.409V137.812L295.211 137.558C295.328 137.336 295.488 137.171 295.691 137.062C295.894 136.949 296.123 136.893 296.379 136.893Z" fill="white"/>
<defs>
<linearGradient id="paint0_linear_548_38284" x1="173" y1="18" x2="193" y2="46" gradientUnits="userSpaceOnUse">
<stop stop-color="#52BEB8"/>
<stop offset="1" stop-color="#03736D"/>
</linearGradient>
<linearGradient id="paint1_linear_548_38284" x1="179.474" y1="30.6901" x2="200.516" y2="72.2067" gradientUnits="userSpaceOnUse">
<stop stop-color="#52BEB8"/>
<stop offset="1" stop-color="#308B85"/>
</linearGradient>
<linearGradient id="paint2_linear_548_38284" x1="426.037" y1="49.4109" x2="473.633" y2="82.0348" gradientUnits="userSpaceOnUse">
<stop stop-color="#E8E8EB"/>
<stop offset="1" stop-color="#D3D3D3"/>
</linearGradient>
<linearGradient id="paint3_linear_548_38284" x1="338.902" y1="19.2823" x2="377.667" y2="19.2823" gradientUnits="userSpaceOnUse">
<stop stop-color="#E8E8EB"/>
<stop offset="1" stop-color="#D3D3D3"/>
</linearGradient>
<linearGradient id="paint4_linear_548_38284" x1="338.902" y1="56.136" x2="377.667" y2="56.136" gradientUnits="userSpaceOnUse">
<stop stop-color="#E8E8EB"/>
<stop offset="1" stop-color="#D3D3D3"/>
</linearGradient>
<linearGradient id="paint5_linear_548_38284" x1="338.902" y1="92.9851" x2="377.667" y2="92.9851" gradientUnits="userSpaceOnUse">
<stop stop-color="#E8E8EB"/>
<stop offset="1" stop-color="#D3D3D3"/>
</linearGradient>
<linearGradient id="paint6_linear_548_38284" x1="103.989" y1="324.901" x2="103.989" y2="189.491" gradientUnits="userSpaceOnUse">
<stop stop-color="#C98348"/>
<stop offset="1" stop-color="#DD9127"/>
</linearGradient>
<linearGradient id="paint7_linear_548_38284" x1="413.245" y1="363.297" x2="424.461" y2="327.818" gradientUnits="userSpaceOnUse">
<stop stop-color="#C98348"/>
<stop offset="1" stop-color="#DD9127"/>
</linearGradient>
<linearGradient id="paint8_linear_548_38284" x1="261.034" y1="126.11" x2="261.034" y2="171.485" gradientUnits="userSpaceOnUse">
<stop stop-color="white"/>
<stop offset="1" stop-color="#DDF1F3"/>
</linearGradient>
<linearGradient id="paint9_linear_548_38284" x1="210.725" y1="140.712" x2="230.036" y2="211.385" gradientUnits="userSpaceOnUse">
<stop stop-color="#AAC76F"/>
<stop offset="1" stop-color="#51823B"/>
</linearGradient>
<linearGradient id="paint10_linear_548_38284" x1="207.454" y1="108.178" x2="173.356" y2="137.858" gradientUnits="userSpaceOnUse">
<stop stop-color="#AAC76F"/>
<stop offset="1" stop-color="#51823B"/>
</linearGradient>
<linearGradient id="paint11_linear_548_38284" x1="179.933" y1="77.4893" x2="186.369" y2="98.3432" gradientUnits="userSpaceOnUse">
<stop stop-color="#AAC76F"/>
<stop offset="1" stop-color="#51823B"/>
</linearGradient>
<linearGradient id="paint12_linear_548_38284" x1="302.536" y1="76.9767" x2="323.232" y2="204.051" gradientUnits="userSpaceOnUse">
<stop stop-color="#AAC76F"/>
<stop offset="1" stop-color="#51823B"/>
</linearGradient>
<linearGradient id="paint13_linear_548_38284" x1="339.402" y1="138.268" x2="313.475" y2="153.464" gradientUnits="userSpaceOnUse">
<stop stop-color="#AAC76F"/>
<stop offset="1" stop-color="#51823B"/>
</linearGradient>
<linearGradient id="paint14_linear_548_38284" x1="327.568" y1="151.871" x2="338.069" y2="190.896" gradientUnits="userSpaceOnUse">
<stop stop-color="#AAC76F"/>
<stop offset="1" stop-color="#51823B"/>
</linearGradient>
<linearGradient id="paint15_linear_548_38284" x1="229.39" y1="92.9324" x2="247.64" y2="106.128" gradientUnits="userSpaceOnUse">
<stop offset="0.04" stop-color="#654B1E"/>
<stop offset="1" stop-color="#2E1D12"/>
</linearGradient>
<linearGradient id="paint16_linear_548_38284" x1="177.311" y1="164.939" x2="195.556" y2="178.14" gradientUnits="userSpaceOnUse">
<stop offset="0.04" stop-color="#654B1E"/>
<stop offset="1" stop-color="#2E1D12"/>
</linearGradient>
<linearGradient id="paint17_linear_548_38284" x1="302.707" y1="181.137" x2="300.705" y2="184.095" gradientUnits="userSpaceOnUse">
<stop stop-color="#E8E8EB"/>
<stop offset="1" stop-color="#D3D3D3"/>
</linearGradient>
<linearGradient id="paint18_linear_548_38284" x1="229.449" y1="131.574" x2="227.447" y2="134.537" gradientUnits="userSpaceOnUse">
<stop stop-color="#E8E8EB"/>
<stop offset="1" stop-color="#D3D3D3"/>
</linearGradient>
<linearGradient id="paint19_linear_548_38284" x1="328.652" y1="213.547" x2="324.939" y2="198.565" gradientUnits="userSpaceOnUse">
<stop stop-color="#AAC76F"/>
<stop offset="1" stop-color="#51823B"/>
</linearGradient>
<linearGradient id="paint20_linear_548_38284" x1="171.047" y1="192.917" x2="171.047" y2="203.427" gradientUnits="userSpaceOnUse">
<stop offset="0.04" stop-color="#654B1E"/>
<stop offset="1" stop-color="#2E1D12"/>
</linearGradient>
<linearGradient id="paint21_linear_548_38284" x1="325.414" y1="192.917" x2="325.414" y2="203.427" gradientUnits="userSpaceOnUse">
<stop offset="0.04" stop-color="#654B1E"/>
<stop offset="1" stop-color="#2E1D12"/>
</linearGradient>
<linearGradient id="paint22_linear_548_38284" x1="184.905" y1="189.951" x2="184.905" y2="202.95" gradientUnits="userSpaceOnUse">
<stop offset="0.04" stop-color="#654B1E"/>
<stop offset="1" stop-color="#2E1D12"/>
</linearGradient>
<linearGradient id="paint23_linear_548_38284" x1="311.551" y1="189.951" x2="311.551" y2="202.95" gradientUnits="userSpaceOnUse">
<stop offset="0.04" stop-color="#654B1E"/>
<stop offset="1" stop-color="#2E1D12"/>
</linearGradient>
<linearGradient id="paint24_linear_548_38284" x1="188.255" y1="194.507" x2="188.255" y2="206.257" gradientUnits="userSpaceOnUse">
<stop stop-color="#E8E8EB"/>
<stop offset="1" stop-color="#D3D3D3"/>
</linearGradient>
<linearGradient id="paint25_linear_548_38284" x1="308.201" y1="194.507" x2="308.201" y2="206.257" gradientUnits="userSpaceOnUse">
<stop stop-color="#E8E8EB"/>
<stop offset="1" stop-color="#D3D3D3"/>
</linearGradient>
<linearGradient id="paint26_linear_548_38284" x1="217.937" y1="99.2194" x2="234.853" y2="166.524" gradientUnits="userSpaceOnUse">
<stop stop-color="#DBE8C4"/>
<stop offset="1" stop-color="#AAC76F"/>
</linearGradient>
<linearGradient id="paint27_linear_548_38284" x1="235.005" y1="95.6971" x2="255.015" y2="120.703" gradientUnits="userSpaceOnUse">
<stop stop-color="#AAC76F"/>
<stop offset="1" stop-color="#51823B"/>
</linearGradient>
<linearGradient id="paint28_linear_548_38284" x1="310.424" y1="107.587" x2="284.097" y2="158.48" gradientUnits="userSpaceOnUse">
<stop stop-color="#DBE8C4"/>
<stop offset="1" stop-color="#AAC76F"/>
</linearGradient>
<linearGradient id="paint29_linear_548_38284" x1="322.935" y1="113.278" x2="312.072" y2="140.351" gradientUnits="userSpaceOnUse">
<stop stop-color="#DBE8C4"/>
<stop offset="1" stop-color="#AAC76F"/>
</linearGradient>
<linearGradient id="paint30_linear_548_38284" x1="265.587" y1="96.6562" x2="280.748" y2="117.29" gradientUnits="userSpaceOnUse">
<stop stop-color="#AAC76F"/>
<stop offset="1" stop-color="#51823B"/>
</linearGradient>
<linearGradient id="paint31_linear_548_38284" x1="249.995" y1="23.0196" x2="265.536" y2="87.0545" gradientUnits="userSpaceOnUse">
<stop stop-color="#AAC76F"/>
<stop offset="1" stop-color="#51823B"/>
</linearGradient>
<linearGradient id="paint32_linear_548_38284" x1="64.4919" y1="394.095" x2="68.3425" y2="437.591" gradientUnits="userSpaceOnUse">
<stop stop-color="#52BEB8"/>
<stop offset="1" stop-color="#308B85"/>
</linearGradient>
<linearGradient id="paint33_linear_548_38284" x1="56.9232" y1="385.592" x2="61.7353" y2="419.186" gradientUnits="userSpaceOnUse">
<stop stop-color="white"/>
<stop offset="1" stop-color="#DDF1F3"/>
</linearGradient>
<linearGradient id="paint34_linear_548_38284" x1="61.7768" y1="418.437" x2="54.1214" y2="380.387" gradientUnits="userSpaceOnUse">
<stop stop-color="#53BEB8"/>
<stop offset="1" stop-color="#53BEB8" stop-opacity="0"/>
</linearGradient>
<linearGradient id="paint35_linear_548_38284" x1="140.574" y1="313.046" x2="174.349" y2="341.848" gradientUnits="userSpaceOnUse">
<stop stop-color="#F3CE63"/>
<stop offset="1" stop-color="#D2A651"/>
</linearGradient>
<linearGradient id="paint36_linear_548_38284" x1="442.334" y1="374.113" x2="441.345" y2="402.675" gradientUnits="userSpaceOnUse">
<stop stop-color="#52BEB8"/>
<stop offset="1" stop-color="#308B85"/>
</linearGradient>
<linearGradient id="paint37_linear_548_38284" x1="447.578" y1="370.438" x2="446.834" y2="409.472" gradientUnits="userSpaceOnUse">
<stop stop-color="white"/>
<stop offset="1" stop-color="#DDF1F3"/>
</linearGradient>
<linearGradient id="paint38_linear_548_38284" x1="448.003" y1="405.14" x2="446.681" y2="379.998" gradientUnits="userSpaceOnUse">
<stop stop-color="#53BEB8"/>
<stop offset="1" stop-color="#53BEB8" stop-opacity="0"/>
</linearGradient>
<linearGradient id="paint39_linear_548_38284" x1="449.603" y1="367.603" x2="450.296" y2="400.412" gradientUnits="userSpaceOnUse">
<stop stop-color="#E8E8EB"/>
<stop offset="1" stop-color="#D3D3D3"/>
</linearGradient>
<linearGradient id="paint40_linear_548_38284" x1="361.283" y1="308.717" x2="333.668" y2="334.654" gradientUnits="userSpaceOnUse">
<stop stop-color="#F3CE63"/>
<stop offset="1" stop-color="#D2A651"/>
</linearGradient>
<linearGradient id="paint41_linear_548_38284" x1="225.211" y1="287.469" x2="306.637" y2="442.739" gradientUnits="userSpaceOnUse">
<stop stop-color="#52BEB8"/>
<stop offset="1" stop-color="#308B85"/>
</linearGradient>
<linearGradient id="paint42_linear_548_38284" x1="246.531" y1="458.164" x2="295.9" y2="519.107" gradientUnits="userSpaceOnUse">
<stop offset="0.04" stop-color="#654B1E"/>
<stop offset="1" stop-color="#2E1D12"/>
</linearGradient>
<linearGradient id="paint43_linear_548_38284" x1="217.106" y1="452.771" x2="276.236" y2="487.287" gradientUnits="userSpaceOnUse">
<stop offset="0.04" stop-color="#654B1E"/>
<stop offset="1" stop-color="#2E1D12"/>
</linearGradient>
<linearGradient id="paint44_linear_548_38284" x1="217.541" y1="434.213" x2="242.912" y2="461.718" gradientUnits="userSpaceOnUse">
<stop offset="0.04" stop-color="#654B1E"/>
<stop offset="1" stop-color="#2E1D12"/>
</linearGradient>
<linearGradient id="paint45_linear_548_38284" x1="242.234" y1="346.574" x2="256.299" y2="379.365" gradientUnits="userSpaceOnUse">
<stop offset="0.04" stop-color="#654B1E"/>
<stop offset="1" stop-color="#2E1D12"/>
</linearGradient>
<linearGradient id="paint46_linear_548_38284" x1="222.925" y1="224.925" x2="334.254" y2="256.095" gradientUnits="userSpaceOnUse">
<stop stop-color="#52BEB8"/>
<stop offset="1" stop-color="#308B85"/>
</linearGradient>
<linearGradient id="paint47_linear_548_38284" x1="441.138" y1="16.1851" x2="448.025" y2="30.7419" gradientUnits="userSpaceOnUse">
<stop stop-color="#E94E4E"/>
<stop offset="1" stop-color="#D33332"/>
</linearGradient>
<linearGradient id="paint48_linear_548_38284" x1="440.258" y1="52.5086" x2="447.009" y2="64.3158" gradientUnits="userSpaceOnUse">
<stop stop-color="#ECDE74"/>
<stop offset="1" stop-color="#EDC34D"/>
</linearGradient>
<linearGradient id="paint49_linear_548_38284" x1="439.168" y1="87.6798" x2="452.415" y2="109.882" gradientUnits="userSpaceOnUse">
<stop stop-color="#AAC76F"/>
<stop offset="1" stop-color="#51823B"/>
</linearGradient>
<linearGradient id="paint50_linear_548_38284" x1="60.6697" y1="346.158" x2="54.5707" y2="444.076" gradientUnits="userSpaceOnUse">
<stop stop-color="#E8E8EB"/>
<stop offset="1" stop-color="#D3D3D3"/>
</linearGradient>
<linearGradient id="paint51_linear_548_38284" x1="297.92" y1="261.84" x2="307.657" y2="303.266" gradientUnits="userSpaceOnUse">
<stop stop-color="#E8E8EB"/>
<stop offset="1" stop-color="#D3D3D3"/>
</linearGradient>
<linearGradient id="paint52_linear_548_38284" x1="188.023" y1="287.666" x2="197.76" y2="329.093" gradientUnits="userSpaceOnUse">
<stop stop-color="#E8E8EB"/>
<stop offset="1" stop-color="#D3D3D3"/>
</linearGradient>
<linearGradient id="paint53_linear_548_38284" x1="237.995" y1="271.566" x2="252.13" y2="287.45" gradientUnits="userSpaceOnUse">
<stop stop-color="#52BEB8"/>
<stop offset="1" stop-color="#308B85"/>
</linearGradient>
<linearGradient id="paint54_linear_548_38284" x1="237.506" y1="193.167" x2="293.348" y2="165.192" gradientUnits="userSpaceOnUse">
<stop stop-color="#E8E8EB"/>
<stop offset="1" stop-color="#D3D3D3"/>
</linearGradient>
<linearGradient id="paint55_linear_548_38284" x1="246.952" y1="178.442" x2="261.064" y2="148.616" gradientUnits="userSpaceOnUse">
<stop stop-color="white"/>
<stop offset="1" stop-color="#DDF1F3"/>
</linearGradient>
<linearGradient id="paint56_linear_548_38284" x1="264.286" y1="167.161" x2="288.394" y2="125.212" gradientUnits="userSpaceOnUse">
<stop stop-color="#D3D3D3"/>
<stop offset="1" stop-color="#E8E8EB"/>
</linearGradient>
<linearGradient id="paint57_linear_548_38284" x1="357.297" y1="137.54" x2="348.565" y2="162.905" gradientUnits="userSpaceOnUse">
<stop stop-color="#52BEB8"/>
<stop offset="1" stop-color="#308B85"/>
</linearGradient>
<linearGradient id="paint58_linear_548_38284" x1="137.608" y1="139.113" x2="150.721" y2="157.047" gradientUnits="userSpaceOnUse">
<stop stop-color="#52BEB8"/>
<stop offset="1" stop-color="#308B85"/>
</linearGradient>
<linearGradient id="paint59_linear_548_38284" x1="253.789" y1="29.731" x2="263.402" y2="55.0163" gradientUnits="userSpaceOnUse">
<stop stop-color="#DBE8C4"/>
<stop offset="1" stop-color="#AAC76F"/>
</linearGradient>
<linearGradient id="paint60_linear_548_38284" x1="253.541" y1="207.926" x2="242.058" y2="167.596" gradientUnits="userSpaceOnUse">
<stop stop-color="#D3D3D3"/>
<stop offset="1" stop-color="#E8E8EB"/>
</linearGradient>
<linearGradient id="paint61_linear_548_38284" x1="241.068" y1="378.608" x2="261.795" y2="470.131" gradientUnits="userSpaceOnUse">
<stop stop-color="#52BEB8"/>
<stop offset="1" stop-color="#308B85"/>
</linearGradient>
<linearGradient id="paint62_linear_548_38284" x1="226.932" y1="118.382" x2="201.792" y2="128.225" gradientUnits="userSpaceOnUse">
<stop stop-color="#DBE8C4"/>
<stop offset="1" stop-color="#AAC76F"/>
</linearGradient>
<linearGradient id="paint63_linear_548_38284" x1="368.755" y1="162.67" x2="494.511" y2="251.213" gradientUnits="userSpaceOnUse">
<stop stop-color="#E8E8EB"/>
<stop offset="1" stop-color="#D3D3D3"/>
</linearGradient>
<linearGradient id="paint64_linear_548_38284" x1="368.853" y1="126.864" x2="403.623" y2="126.864" gradientUnits="userSpaceOnUse">
<stop stop-color="#E8E8EB"/>
<stop offset="1" stop-color="#D3D3D3"/>
</linearGradient>
</defs>
</svg>
