<svg width="160" height="160" viewBox="0 0 160 160" fill="none" xmlns="http://www.w3.org/2000/svg">
<path d="M123.618 33.9623H28.3925C21.5592 33.9623 16 39.5215 16 46.355V48.036C16 54.8693 21.5592 60.4285 28.3925 60.4285H123.619C124.658 60.4285 125.499 59.587 125.499 58.5485V35.8423C125.499 34.8038 124.657 33.9623 123.618 33.9623Z" fill="#7C3D1E"/>
<path d="M16.5132 42.8317C16.181 43.9492 16 45.1307 16 46.355V48.036C16 54.8692 21.5592 60.4285 28.3925 60.4285H123.619C124.658 60.4285 125.499 59.587 125.499 58.5485V51.6942H28.3925C22.775 51.694 18.0335 47.9555 16.5132 42.8317Z" fill="#68321A"/>
<path d="M75.922 28.181L68.7797 21.039C68.0457 20.305 66.8552 20.305 66.1207 21.039L29.9412 57.2185C29.4035 57.7565 29.2427 58.5648 29.534 59.2675C29.8247 59.9703 30.5107 60.4283 31.271 60.4283H45.5552C46.0537 60.4283 46.532 60.2303 46.8847 59.8778L75.9222 30.8403C76.2747 30.4875 76.4727 30.0095 76.4727 29.5108C76.4727 29.012 76.2745 28.534 75.922 28.181Z" fill="#78AA17"/>
<path d="M35.38 51.7797L29.9412 57.2185C29.4035 57.7565 29.2427 58.5647 29.534 59.2675C29.8247 59.9702 30.5107 60.4282 31.271 60.4282H45.5552C46.0537 60.4282 46.532 60.2302 46.8847 59.8777L54.9825 51.78L35.38 51.7797Z" fill="#6D8915"/>
<path d="M119.244 57.2185L83.0649 21.039C82.3304 20.305 81.1401 20.305 80.4056 21.039L44.2264 57.2185C43.6886 57.7565 43.5279 58.5648 43.8191 59.2675C44.1099 59.9703 44.7959 60.4283 45.5561 60.4283H117.915C118.675 60.4283 119.361 59.9703 119.652 59.2675C119.943 58.5648 119.782 57.7563 119.244 57.2185Z" fill="#8ACC19"/>
<path d="M44.2264 57.2185C43.6886 57.7565 43.5279 58.5647 43.8191 59.2675C44.1099 59.9702 44.7959 60.4282 45.5561 60.4282H117.915C118.675 60.4282 119.361 59.9702 119.652 59.2675C119.943 58.5647 119.782 57.7565 119.245 57.2185L113.806 51.7797H49.6651L44.2264 57.2185Z" fill="#78A017"/>
<path d="M108.553 57.2185L88.466 37.1315C88.1132 36.779 87.635 36.581 87.1365 36.581C86.638 36.581 86.16 36.779 85.807 37.1315C84.7267 38.212 83.2907 38.807 81.7627 38.807C80.235 38.807 78.7987 38.2122 77.7185 37.1317C77.366 36.779 76.8877 36.581 76.389 36.581C75.8902 36.581 75.4122 36.779 75.0595 37.1315L54.9725 57.2185C54.4347 57.7565 54.274 58.5647 54.5652 59.2675C54.856 59.9702 55.542 60.4282 56.3022 60.4282H107.223C107.984 60.4282 108.67 59.9702 108.96 59.2675C109.251 58.5647 109.09 57.7562 108.553 57.2185Z" fill="#78A017"/>
<path d="M54.9725 57.2185C54.4347 57.7565 54.274 58.5647 54.5652 59.2675C54.856 59.9702 55.542 60.4282 56.3022 60.4282H107.223C107.984 60.4282 108.67 59.9702 108.96 59.2675C109.251 58.5647 109.091 57.7565 108.553 57.2185L103.114 51.7797H60.411L54.9725 57.2185Z" fill="#6D8915"/>
<path d="M135.301 56.668H45.856H29.233H26.167C20.768 56.668 16.352 52.4683 16.002 47.1578C16.0018 47.1703 16 47.1828 16 47.196V47.1963V126.279C16 133.576 21.9362 139.512 29.233 139.512H135.301C136.34 139.512 137.181 138.67 137.181 137.632V58.548C137.181 57.5098 136.34 56.668 135.301 56.668Z" fill="#AA5D24"/>
<path d="M137.18 88.9612H116.944C109.386 88.9612 103.236 95.1102 103.236 102.669C103.236 110.227 109.385 116.377 116.944 116.377H137.18V88.9612Z" fill="#7C3D1E"/>
<path d="M138.359 84.1328H116.944C109.386 84.1328 103.236 90.2817 103.236 97.8405C103.236 105.399 109.385 111.548 116.944 111.548H138.359C141.469 111.548 143.999 109.018 143.999 105.908V89.7732C143.999 86.6627 141.469 84.1328 138.359 84.1328Z" fill="#F99608"/>
<path d="M118.537 91.707C115.156 91.707 112.404 94.4585 112.404 97.84C112.404 101.222 115.156 103.973 118.537 103.973C121.919 103.973 124.67 101.222 124.67 97.84C124.67 94.4585 121.919 91.707 118.537 91.707Z" fill="#FFD039"/>
</svg>
