<svg width="125" height="24" viewBox="0 0 125 24" fill="none" xmlns="http://www.w3.org/2000/svg">
<rect y="6.10352e-05" width="24.8034" height="24" fill="#FF0000" fill-opacity="0.01"/>
<path d="M21.8929 10.7896C22.2827 10.4063 22.4201 9.8441 22.2521 9.32176C22.0841 8.79941 21.6457 8.42631 21.108 8.3476L16.4038 7.65761C16.3119 7.64433 16.2316 7.58606 16.1904 7.50122L14.0871 3.19775C13.8451 2.70505 13.3581 2.39941 12.8141 2.39941C12.27 2.39941 11.783 2.70505 11.5432 3.19775L9.43882 7.50122C9.39762 7.58606 9.31733 7.64433 9.22542 7.65761L4.52119 8.34862C3.98347 8.42733 3.54506 8.80044 3.37709 9.32278C3.20912 9.84512 3.34645 10.4073 3.73627 10.7907L7.14005 14.1404C7.20661 14.2058 7.23724 14.3009 7.2214 14.3939L6.41746 19.1247C6.32555 19.6654 6.54212 20.2021 6.98159 20.5251C7.42106 20.8481 7.99364 20.89 8.47431 20.6345L12.682 18.4009C12.7644 18.357 12.8637 18.357 12.9461 18.4009L17.1538 20.6345C17.363 20.7438 17.5891 20.799 17.8152 20.799C18.1078 20.799 18.3983 20.706 18.6476 20.5241C19.0871 20.201 19.3036 19.6644 19.2117 19.1236L18.4078 14.3929C18.392 14.2999 18.4226 14.2048 18.4891 14.1394L21.8929 10.7896Z" fill="#2D2D2D"/>
<mask id="mask0_548_42120" style="mask-type:luminance" maskUnits="userSpaceOnUse" x="3" y="2" width="20" height="19">
<path d="M21.8929 10.7896C22.2827 10.4063 22.4201 9.8441 22.2521 9.32176C22.0841 8.79941 21.6457 8.42631 21.108 8.3476L16.4038 7.65761C16.3119 7.64433 16.2316 7.58606 16.1904 7.50122L14.0871 3.19775C13.8451 2.70505 13.3581 2.39941 12.8141 2.39941C12.27 2.39941 11.783 2.70505 11.5432 3.19775L9.43882 7.50122C9.39762 7.58606 9.31733 7.64433 9.22542 7.65761L4.52119 8.34862C3.98347 8.42733 3.54506 8.80044 3.37709 9.32278C3.20912 9.84512 3.34645 10.4073 3.73627 10.7907L7.14005 14.1404C7.20661 14.2058 7.23724 14.3009 7.2214 14.3939L6.41746 19.1247C6.32555 19.6654 6.54212 20.2021 6.98159 20.5251C7.42106 20.8481 7.99364 20.89 8.47431 20.6345L12.682 18.4009C12.7644 18.357 12.8637 18.357 12.9461 18.4009L17.1538 20.6345C17.363 20.7438 17.5891 20.799 17.8152 20.799C18.1078 20.799 18.3983 20.706 18.6476 20.5241C19.0871 20.201 19.3036 19.6644 19.2117 19.1236L18.4078 14.3929C18.392 14.2999 18.4226 14.2048 18.4891 14.1394L21.8929 10.7896Z" fill="white"/>
</mask>
<g mask="url(#mask0_548_42120)">
<rect y="6.10352e-05" width="24.8034" height="24" fill="#FFC700"/>
</g>
<rect x="24.8047" width="24.8034" height="24" fill="#FF0000" fill-opacity="0.01"/>
<path d="M46.6976 10.7896C47.0874 10.4063 47.2248 9.84404 47.0568 9.3217C46.8888 8.79935 46.4504 8.42625 45.9127 8.34754L41.2085 7.65755C41.1166 7.64427 41.0363 7.586 40.9951 7.50116L38.8917 3.19769C38.6498 2.70499 38.1628 2.39935 37.6188 2.39935C37.0747 2.39935 36.5877 2.70499 36.3479 3.19769L34.2435 7.50116C34.2023 7.586 34.122 7.64427 34.0301 7.65755L29.3259 8.34856C28.7882 8.42727 28.3497 8.80037 28.1818 9.32272C28.0138 9.84506 28.1511 10.4073 28.541 10.7906L31.9447 14.1404C32.0113 14.2058 32.0419 14.3008 32.0261 14.3939L31.2221 19.1246C31.1302 19.6653 31.3468 20.202 31.7863 20.525C32.2257 20.848 32.7983 20.8899 33.279 20.6344L37.4867 18.4009C37.5691 18.3569 37.6684 18.3569 37.7508 18.4009L41.9585 20.6344C42.1677 20.7438 42.3938 20.799 42.6198 20.799C42.9125 20.799 43.203 20.7059 43.4523 20.524C43.8918 20.201 44.1083 19.6643 44.0164 19.1236L43.2125 14.3928C43.1966 14.2998 43.2273 14.2048 43.2938 14.1393L46.6976 10.7896Z" fill="#2D2D2D"/>
<mask id="mask1_548_42120" style="mask-type:luminance" maskUnits="userSpaceOnUse" x="28" y="2" width="20" height="19">
<path d="M46.6976 10.7896C47.0874 10.4063 47.2248 9.84404 47.0568 9.3217C46.8888 8.79935 46.4504 8.42625 45.9127 8.34754L41.2085 7.65755C41.1166 7.64427 41.0363 7.586 40.9951 7.50116L38.8917 3.19769C38.6498 2.70499 38.1628 2.39935 37.6188 2.39935C37.0747 2.39935 36.5877 2.70499 36.3479 3.19769L34.2435 7.50116C34.2023 7.586 34.122 7.64427 34.0301 7.65755L29.3259 8.34856C28.7882 8.42727 28.3497 8.80037 28.1818 9.32272C28.0138 9.84506 28.1511 10.4073 28.541 10.7906L31.9447 14.1404C32.0113 14.2058 32.0419 14.3008 32.0261 14.3939L31.2221 19.1246C31.1302 19.6653 31.3468 20.202 31.7863 20.525C32.2257 20.848 32.7983 20.8899 33.279 20.6344L37.4867 18.4009C37.5691 18.3569 37.6684 18.3569 37.7508 18.4009L41.9585 20.6344C42.1677 20.7438 42.3938 20.799 42.6198 20.799C42.9125 20.799 43.203 20.7059 43.4523 20.524C43.8918 20.201 44.1083 19.6643 44.0164 19.1236L43.2125 14.3928C43.1966 14.2998 43.2273 14.2048 43.2938 14.1393L46.6976 10.7896Z" fill="white"/>
</mask>
<g mask="url(#mask1_548_42120)">
<rect x="24.8047" width="24.8034" height="24" fill="#FFC700"/>
</g>
<rect x="49.6074" width="24.8034" height="24" fill="#FF0000" fill-opacity="0.01"/>
<path d="M71.5003 10.7896C71.8902 10.4063 72.0275 9.84404 71.8595 9.3217C71.6916 8.79935 71.2531 8.42625 70.7154 8.34754L66.0112 7.65755C65.9193 7.64427 65.839 7.586 65.7978 7.50116L63.6945 3.19769C63.4526 2.70499 62.9655 2.39935 62.4215 2.39935C61.8774 2.39935 61.3904 2.70499 61.1506 3.19769L59.0462 7.50116C59.005 7.586 58.9248 7.64427 58.8328 7.65755L54.1286 8.34856C53.5909 8.42727 53.1525 8.80037 52.9845 9.32272C52.8165 9.84506 52.9539 10.4073 53.3437 10.7906L56.7475 14.1404C56.814 14.2058 56.8447 14.3008 56.8288 14.3939L56.0249 19.1246C55.933 19.6653 56.1495 20.202 56.589 20.525C57.0285 20.848 57.6011 20.8899 58.0817 20.6344L62.2894 18.4009C62.3718 18.3569 62.4711 18.3569 62.5535 18.4009L66.7613 20.6344C66.9704 20.7438 67.1965 20.799 67.4226 20.799C67.7152 20.799 68.0057 20.7059 68.255 20.524C68.6945 20.201 68.9111 19.6643 68.8192 19.1236L68.0152 14.3928C67.9994 14.2998 68.03 14.2048 68.0966 14.1393L71.5003 10.7896Z" fill="#2D2D2D"/>
<mask id="mask2_548_42120" style="mask-type:luminance" maskUnits="userSpaceOnUse" x="52" y="2" width="20" height="19">
<path d="M71.5003 10.7896C71.8902 10.4063 72.0275 9.84404 71.8595 9.3217C71.6916 8.79935 71.2531 8.42625 70.7154 8.34754L66.0112 7.65755C65.9193 7.64427 65.839 7.586 65.7978 7.50116L63.6945 3.19769C63.4526 2.70499 62.9655 2.39935 62.4215 2.39935C61.8774 2.39935 61.3904 2.70499 61.1506 3.19769L59.0462 7.50116C59.005 7.586 58.9248 7.64427 58.8328 7.65755L54.1286 8.34856C53.5909 8.42727 53.1525 8.80037 52.9845 9.32272C52.8165 9.84506 52.9539 10.4073 53.3437 10.7906L56.7475 14.1404C56.814 14.2058 56.8447 14.3008 56.8288 14.3939L56.0249 19.1246C55.933 19.6653 56.1495 20.202 56.589 20.525C57.0285 20.848 57.6011 20.8899 58.0817 20.6344L62.2894 18.4009C62.3718 18.3569 62.4711 18.3569 62.5535 18.4009L66.7613 20.6344C66.9704 20.7438 67.1965 20.799 67.4226 20.799C67.7152 20.799 68.0057 20.7059 68.255 20.524C68.6945 20.201 68.9111 19.6643 68.8192 19.1236L68.0152 14.3928C67.9994 14.2998 68.03 14.2048 68.0966 14.1393L71.5003 10.7896Z" fill="white"/>
</mask>
<g mask="url(#mask2_548_42120)">
<rect x="49.6074" width="24.8034" height="24" fill="#FFC700"/>
</g>
<rect x="74.4121" width="24.8034" height="24" fill="#FF0000" fill-opacity="0.01"/>
<path d="M96.305 10.7896C96.6949 10.4063 96.8322 9.84404 96.6642 9.3217C96.4962 8.79935 96.0578 8.42625 95.5201 8.34754L90.8159 7.65755C90.724 7.64427 90.6437 7.586 90.6025 7.50116L88.4992 3.19769C88.2572 2.70499 87.7702 2.39935 87.2262 2.39935C86.6821 2.39935 86.1951 2.70499 85.9553 3.19769L83.8509 7.50116C83.8097 7.586 83.7294 7.64427 83.6375 7.65755L78.9333 8.34856C78.3956 8.42727 77.9572 8.80037 77.7892 9.32272C77.6212 9.84506 77.7586 10.4073 78.1484 10.7906L81.5522 14.1404C81.6187 14.2058 81.6494 14.3008 81.6335 14.3939L80.8296 19.1246C80.7377 19.6653 80.9542 20.202 81.3937 20.525C81.8332 20.848 82.4057 20.8899 82.8864 20.6344L87.0941 18.4009C87.1765 18.3569 87.2758 18.3569 87.3582 18.4009L91.5659 20.6344C91.7751 20.7438 92.0012 20.799 92.2273 20.799C92.5199 20.799 92.8104 20.7059 93.0597 20.524C93.4992 20.201 93.7158 19.6643 93.6238 19.1236L92.8199 14.3928C92.8041 14.2998 92.8347 14.2048 92.9013 14.1393L96.305 10.7896Z" fill="#2D2D2D"/>
<mask id="mask3_548_42120" style="mask-type:luminance" maskUnits="userSpaceOnUse" x="77" y="2" width="20" height="19">
<path d="M96.305 10.7896C96.6949 10.4063 96.8322 9.84404 96.6642 9.3217C96.4962 8.79935 96.0578 8.42625 95.5201 8.34754L90.8159 7.65755C90.724 7.64427 90.6437 7.586 90.6025 7.50116L88.4992 3.19769C88.2572 2.70499 87.7702 2.39935 87.2262 2.39935C86.6821 2.39935 86.1951 2.70499 85.9553 3.19769L83.8509 7.50116C83.8097 7.586 83.7294 7.64427 83.6375 7.65755L78.9333 8.34856C78.3956 8.42727 77.9572 8.80037 77.7892 9.32272C77.6212 9.84506 77.7586 10.4073 78.1484 10.7906L81.5522 14.1404C81.6187 14.2058 81.6494 14.3008 81.6335 14.3939L80.8296 19.1246C80.7377 19.6653 80.9542 20.202 81.3937 20.525C81.8332 20.848 82.4057 20.8899 82.8864 20.6344L87.0941 18.4009C87.1765 18.3569 87.2758 18.3569 87.3582 18.4009L91.5659 20.6344C91.7751 20.7438 92.0012 20.799 92.2273 20.799C92.5199 20.799 92.8104 20.7059 93.0597 20.524C93.4992 20.201 93.7158 19.6643 93.6238 19.1236L92.8199 14.3928C92.8041 14.2998 92.8347 14.2048 92.9013 14.1393L96.305 10.7896Z" fill="white"/>
</mask>
<g mask="url(#mask3_548_42120)">
<rect x="74.4121" width="24.8034" height="24" fill="#FFC700"/>
</g>
<rect x="99.2139" y="0.00012207" width="24.8034" height="24" fill="#FF0000" fill-opacity="0.01"/>
<path d="M121.107 10.7897C121.497 10.4064 121.634 9.84416 121.466 9.32182C121.298 8.79947 120.86 8.42637 120.322 8.34766L115.618 7.65768C115.526 7.64439 115.445 7.58612 115.404 7.50128L113.301 3.19781C113.059 2.70511 112.572 2.39948 112.028 2.39948C111.484 2.39948 110.997 2.70511 110.757 3.19781L108.653 7.50128C108.611 7.58612 108.531 7.64439 108.439 7.65768L103.735 8.34868C103.197 8.42739 102.759 8.8005 102.591 9.32284C102.423 9.84519 102.56 10.4074 102.95 10.7907L106.354 14.1405C106.42 14.2059 106.451 14.301 106.435 14.394L105.631 19.1247C105.539 19.6655 105.756 20.2021 106.195 20.5251C106.635 20.8482 107.208 20.8901 107.688 20.6345L111.896 18.401C111.978 18.3571 112.078 18.3571 112.16 18.401L116.368 20.6345C116.577 20.7439 116.803 20.7991 117.029 20.7991C117.322 20.7991 117.612 20.7061 117.861 20.5241C118.301 20.2011 118.518 19.6644 118.426 19.1237L117.622 14.393C117.606 14.2999 117.636 14.2049 117.703 14.1395L121.107 10.7897Z" fill="#2D2D2D"/>
<mask id="mask4_548_42120" style="mask-type:luminance" maskUnits="userSpaceOnUse" x="102" y="2" width="20" height="19">
<path d="M121.107 10.7897C121.497 10.4064 121.634 9.84416 121.466 9.32182C121.298 8.79947 120.86 8.42637 120.322 8.34766L115.618 7.65768C115.526 7.64439 115.445 7.58612 115.404 7.50128L113.301 3.19781C113.059 2.70511 112.572 2.39948 112.028 2.39948C111.484 2.39948 110.997 2.70511 110.757 3.19781L108.653 7.50128C108.611 7.58612 108.531 7.64439 108.439 7.65768L103.735 8.34868C103.197 8.42739 102.759 8.8005 102.591 9.32284C102.423 9.84519 102.56 10.4074 102.95 10.7907L106.354 14.1405C106.42 14.2059 106.451 14.301 106.435 14.394L105.631 19.1247C105.539 19.6655 105.756 20.2021 106.195 20.5251C106.635 20.8482 107.208 20.8901 107.688 20.6345L111.896 18.401C111.978 18.3571 112.078 18.3571 112.16 18.401L116.368 20.6345C116.577 20.7439 116.803 20.7991 117.029 20.7991C117.322 20.7991 117.612 20.7061 117.861 20.5241C118.301 20.2011 118.518 19.6644 118.426 19.1237L117.622 14.393C117.606 14.2999 117.636 14.2049 117.703 14.1395L121.107 10.7897Z" fill="white"/>
</mask>
<g mask="url(#mask4_548_42120)">
<rect x="99.2139" y="0.00012207" width="24.8034" height="24" fill="#DAD9E2"/>
</g>
</svg>
