<svg width="160" height="160" viewBox="0 0 160 160" fill="none" xmlns="http://www.w3.org/2000/svg">
<path d="M77.5564 122.666H28.7967C24.0839 122.666 20.2637 118.846 20.2637 114.133V105.6H85.7529L77.5564 122.666Z" fill="#D3DCFB"/>
<path d="M131.205 54.4V90.2495V114.133H28.7967C24.0839 114.133 20.2637 110.313 20.2637 105.6V54.4L80.0012 33.0665L131.205 54.4Z" fill="#EBF5FC"/>
<path d="M35.334 71.4667H30.8008C29.6963 71.4667 28.8008 70.5712 28.8008 69.4667V64.9335C28.8008 63.829 29.6963 62.9335 30.8008 62.9335H35.334C36.4385 62.9335 37.334 63.829 37.334 64.9335V69.4667C37.334 70.5712 36.4385 71.4667 35.334 71.4667Z" fill="#3C58A0"/>
<path d="M52.4004 71.4667H47.8672C46.7627 71.4667 45.8672 70.5712 45.8672 69.4667V64.9335C45.8672 63.829 46.7627 62.9335 47.8672 62.9335H52.4004C53.5049 62.9335 54.4004 63.829 54.4004 64.9335V69.4667C54.4004 70.5712 53.5049 71.4667 52.4004 71.4667Z" fill="#3C58A0"/>
<path d="M69.4668 71.4667H64.9336C63.8291 71.4667 62.9336 70.5712 62.9336 69.4667V64.9335C62.9336 63.829 63.8291 62.9335 64.9336 62.9335H69.4668C70.5713 62.9335 71.4668 63.829 71.4668 64.9335V69.4667C71.4668 70.5712 70.5716 71.4667 69.4668 71.4667Z" fill="#3C58A0"/>
<path d="M86.5332 71.4667H82C80.8955 71.4667 80 70.5712 80 69.4667V64.9335C80 63.829 80.8955 62.9335 82 62.9335H86.5332C87.6377 62.9335 88.5332 63.829 88.5332 64.9335V69.4667C88.5332 70.5712 87.6377 71.4667 86.5332 71.4667Z" fill="#3C58A0"/>
<path d="M103.598 71.4667H99.0645C97.96 71.4667 97.0645 70.5712 97.0645 69.4667V64.9335C97.0645 63.829 97.96 62.9335 99.0645 62.9335H103.598C104.702 62.9335 105.598 63.829 105.598 64.9335V69.4667C105.598 70.5712 104.702 71.4667 103.598 71.4667Z" fill="#3C58A0"/>
<path d="M120.664 71.4667H116.131C115.026 71.4667 114.131 70.5712 114.131 69.4667V64.9335C114.131 63.829 115.026 62.9335 116.131 62.9335H120.664C121.769 62.9335 122.664 63.829 122.664 64.9335V69.4667C122.664 70.5712 121.769 71.4667 120.664 71.4667Z" fill="#3C58A0"/>
<path d="M35.334 88.5332H30.8008C29.6963 88.5332 28.8008 87.6377 28.8008 86.5332V82C28.8008 80.8955 29.6963 80 30.8008 80H35.334C36.4385 80 37.334 80.8955 37.334 82V86.5332C37.334 87.638 36.4385 88.5332 35.334 88.5332Z" fill="#3C58A0"/>
<path d="M52.4004 88.5332H47.8672C46.7627 88.5332 45.8672 87.6377 45.8672 86.5332V82C45.8672 80.8955 46.7627 80 47.8672 80H52.4004C53.5049 80 54.4004 80.8955 54.4004 82V86.5332C54.4004 87.638 53.5049 88.5332 52.4004 88.5332Z" fill="#3C58A0"/>
<path d="M69.4668 88.5332H64.9336C63.8291 88.5332 62.9336 87.6377 62.9336 86.5332V82C62.9336 80.8955 63.8291 80 64.9336 80H69.4668C70.5713 80 71.4668 80.8955 71.4668 82V86.5332C71.4668 87.638 70.5716 88.5332 69.4668 88.5332Z" fill="#3C58A0"/>
<path d="M88.5332 88.5332V82.1332C88.5332 80.955 87.5783 80 86.4 80H82.1333C80.955 80 80 80.955 80 82.1332V86.4C80 87.5783 80.9553 88.5332 82.1333 88.5332H88.5332Z" fill="#3C58A0"/>
<path d="M35.334 105.6H30.8008C29.6963 105.6 28.8008 104.704 28.8008 103.6V99.0667C28.8008 97.9622 29.6963 97.0667 30.8008 97.0667H35.334C36.4385 97.0667 37.334 97.9622 37.334 99.0667V103.6C37.334 104.704 36.4385 105.6 35.334 105.6Z" fill="#3C58A0"/>
<path d="M52.4004 105.6H47.8672C46.7627 105.6 45.8672 104.704 45.8672 103.6V99.0667C45.8672 97.9622 46.7627 97.0667 47.8672 97.0667H52.4004C53.5049 97.0667 54.4004 97.9622 54.4004 99.0667V103.6C54.4004 104.704 53.5049 105.6 52.4004 105.6Z" fill="#3C58A0"/>
<path d="M69.4668 105.6H64.9336C63.8291 105.6 62.9336 104.704 62.9336 103.6V99.0667C62.9336 97.9622 63.8291 97.0667 64.9336 97.0667H69.4668C70.5713 97.0667 71.4668 97.9622 71.4668 99.0667V103.6C71.4668 104.704 70.5716 105.6 69.4668 105.6Z" fill="#3C58A0"/>
<path d="M120.604 62.9332H116.191C115.924 62.9332 115.67 62.9857 115.436 63.078C116.199 63.3795 116.74 64.1225 116.74 64.9935V69.406C116.74 70.277 116.199 71.02 115.436 71.3215C115.67 71.414 115.924 71.4665 116.191 71.4665H120.604C121.742 71.4665 122.664 70.544 122.664 69.4062V64.9937C122.664 63.8557 121.741 62.9332 120.604 62.9332Z" fill="#2A428C"/>
<path d="M103.537 62.9332H99.1246C98.8576 62.9332 98.6034 62.9857 98.3691 63.078C99.1329 63.3795 99.6739 64.1225 99.6739 64.9935V69.406C99.6739 70.277 99.1326 71.02 98.3691 71.3215C98.6034 71.414 98.8576 71.4665 99.1246 71.4665H103.537C104.675 71.4665 105.597 70.544 105.597 69.4062V64.9937C105.597 63.8557 104.675 62.9332 103.537 62.9332Z" fill="#2A428C"/>
<path d="M86.4727 62.9332H82.0602C81.7932 62.9332 81.5389 62.9857 81.3047 63.078C82.0684 63.3795 82.6097 64.1225 82.6097 64.9935V69.406C82.6097 70.277 82.0684 71.02 81.3047 71.3215C81.5389 71.414 81.7932 71.4665 82.0602 71.4665H86.4727C87.6107 71.4665 88.5332 70.544 88.5332 69.4062V64.9937C88.5329 63.8557 87.6104 62.9332 86.4727 62.9332Z" fill="#2A428C"/>
<path d="M69.4063 62.9332H64.9938C64.7268 62.9332 64.4725 62.9857 64.2383 63.078C65.002 63.3795 65.5433 64.1225 65.5433 64.9935V69.406C65.5433 70.277 65.002 71.02 64.2383 71.3215C64.4725 71.414 64.7268 71.4665 64.9938 71.4665H69.4063C70.5443 71.4665 71.4668 70.544 71.4668 69.4062V64.9937C71.4665 63.8557 70.5443 62.9332 69.4063 62.9332Z" fill="#2A428C"/>
<path d="M52.3399 62.9332H47.9274C47.6604 62.9332 47.4061 62.9857 47.1719 63.078C47.9356 63.3795 48.4766 64.1225 48.4766 64.9935V69.406C48.4766 70.277 47.9354 71.02 47.1719 71.3215C47.4061 71.414 47.6604 71.4665 47.9274 71.4665H52.3399C53.4779 71.4665 54.4004 70.544 54.4004 69.4062V64.9937C54.4004 63.8557 53.4779 62.9332 52.3399 62.9332Z" fill="#2A428C"/>
<path d="M35.2735 62.9332H30.861C30.594 62.9332 30.3397 62.9857 30.1055 63.078C30.8692 63.3795 31.4105 64.1225 31.4105 64.9935V69.406C31.4105 70.277 30.8692 71.02 30.1055 71.3215C30.3397 71.414 30.594 71.4665 30.861 71.4665H35.2735C36.4115 71.4665 37.334 70.544 37.334 69.4062V64.9937C37.3337 63.8557 36.4112 62.9332 35.2735 62.9332Z" fill="#2A428C"/>
<path d="M35.2735 80H30.861C30.594 80 30.3397 80.0525 30.1055 80.1448C30.8692 80.4463 31.4105 81.1892 31.4105 82.0602V86.473C31.4105 87.344 30.8692 88.087 30.1055 88.3885C30.3397 88.481 30.594 88.5335 30.861 88.5335H35.2735C36.4115 88.5335 37.334 87.611 37.334 86.4733V82.0605C37.3337 80.9225 36.4112 80 35.2735 80Z" fill="#2A428C"/>
<path d="M35.2735 97.0668H30.861C30.594 97.0668 30.3397 97.1193 30.1055 97.2115C30.8692 97.513 31.4105 98.256 31.4105 99.127V103.54C31.4105 104.411 30.8692 105.154 30.1055 105.455C30.3397 105.548 30.594 105.6 30.861 105.6H35.2735C36.4115 105.6 37.334 104.678 37.334 103.54V99.1273C37.3337 97.989 36.4112 97.0668 35.2735 97.0668Z" fill="#2A428C"/>
<path d="M52.3399 80H47.9274C47.6604 80 47.4061 80.0525 47.1719 80.1448C47.9356 80.4463 48.4766 81.1892 48.4766 82.0602V86.473C48.4766 87.344 47.9354 88.087 47.1719 88.3885C47.4061 88.481 47.6604 88.5335 47.9274 88.5335H52.3399C53.4779 88.5335 54.4004 87.611 54.4004 86.4733V82.0605C54.4004 80.9225 53.4779 80 52.3399 80Z" fill="#2A428C"/>
<path d="M52.3399 97.0668H47.9274C47.6604 97.0668 47.4061 97.1193 47.1719 97.2115C47.9356 97.513 48.4766 98.256 48.4766 99.127V103.54C48.4766 104.411 47.9354 105.154 47.1719 105.455C47.4061 105.548 47.6604 105.6 47.9274 105.6H52.3399C53.4779 105.6 54.4004 104.678 54.4004 103.54V99.1273C54.4004 97.989 53.4779 97.0668 52.3399 97.0668Z" fill="#2A428C"/>
<path d="M69.4063 80H64.9938C64.7268 80 64.4725 80.0525 64.2383 80.1448C65.002 80.4463 65.5433 81.1892 65.5433 82.0602V86.473C65.5433 87.344 65.002 88.087 64.2383 88.3885C64.4725 88.481 64.7268 88.5335 64.9938 88.5335H69.4063C70.5443 88.5335 71.4668 87.611 71.4668 86.4733V82.0605C71.4665 80.9225 70.5443 80 69.4063 80Z" fill="#2A428C"/>
<path d="M88.5332 88.5332V82.0602C88.5332 80.9222 87.6107 80 86.4727 80H82.0602C81.7932 80 81.5389 80.0525 81.3047 80.1448C82.0684 80.4463 82.6097 81.1892 82.6097 82.0602V86.473C82.6097 87.344 82.0684 88.087 81.3047 88.3885C81.5389 88.481 81.7932 88.5335 82.0602 88.5335H88.5332V88.5332Z" fill="#2A428C"/>
<path d="M69.4063 97.0668H64.9938C64.7268 97.0668 64.4725 97.1193 64.2383 97.2115C65.002 97.513 65.5433 98.256 65.5433 99.127V103.54C65.5433 104.411 65.002 105.154 64.2383 105.455C64.4725 105.548 64.7268 105.6 64.9938 105.6H69.4063C70.5443 105.6 71.4668 104.678 71.4668 103.54V99.1273C71.4665 97.989 70.5443 97.0668 69.4063 97.0668Z" fill="#2A428C"/>
<path d="M125.277 51.9302V90.2495V114.133H131.205V90.2495V54.4L125.277 51.9302Z" fill="#D3DCFB"/>
<path d="M131.205 54.4V33.0665C131.205 28.3538 127.385 24.5335 122.672 24.5335H28.7967C24.0839 24.5335 20.2637 28.3538 20.2637 33.0665V54.4H131.205Z" fill="#FF4155"/>
<path d="M47.1518 34.9983H41.5975C40.5305 34.9983 39.666 34.1335 39.666 33.0668C39.666 32 40.5308 31.1353 41.5975 31.1353H47.1518C48.2188 31.1353 49.0833 32 49.0833 33.0668C49.0833 34.1335 48.2185 34.9983 47.1518 34.9983Z" fill="#E80054"/>
<path d="M60.7963 34.9983H55.242C54.175 34.9983 53.3105 34.1335 53.3105 33.0668C53.3105 32 54.1753 31.1353 55.242 31.1353H60.7963C61.8633 31.1353 62.7278 32 62.7278 33.0668C62.7278 34.1335 61.8633 34.9983 60.7963 34.9983Z" fill="#E80054"/>
<path d="M96.2204 34.9983H90.6659C89.5989 34.9983 88.7344 34.1335 88.7344 33.0668C88.7344 32 89.5991 31.1353 90.6659 31.1353H96.2204C97.2874 31.1353 98.1519 32 98.1519 33.0668C98.1519 34.1335 97.2874 34.9983 96.2204 34.9983Z" fill="#E80054"/>
<path d="M109.867 34.9983H104.312C103.245 34.9983 102.381 34.1335 102.381 33.0668C102.381 32 103.246 31.1353 104.312 31.1353H109.867C110.934 31.1353 111.798 32 111.798 33.0668C111.798 34.1335 110.934 34.9983 109.867 34.9983Z" fill="#E80054"/>
<path d="M56.5298 32C56.5298 34.9455 54.142 37.3333 51.1965 37.3333C48.251 37.3333 45.8633 34.9455 45.8633 32V21.3333C45.863 18.3878 48.2508 16 51.1963 16C54.1418 16 56.5295 18.3878 56.5295 21.3333V32H56.5298Z" fill="#EBF5FC"/>
<path d="M105.6 32C105.6 34.9455 103.213 37.3333 100.267 37.3333C97.3216 37.3333 94.9336 34.9455 94.9336 32V21.3333C94.9336 18.3878 97.3213 16 100.267 16C103.212 16 105.6 18.3878 105.6 21.3333V32H105.6Z" fill="#EBF5FC"/>
<path d="M100.266 16C99.1706 16 98.1536 16.331 97.3066 16.897C98.7379 17.8535 99.6811 19.4827 99.6811 21.3335V32C99.6811 33.8505 98.7379 35.48 97.3066 36.4365C98.1534 37.0023 99.1706 37.3335 100.266 37.3335C103.211 37.3335 105.599 34.9457 105.599 32.0002V21.3333C105.599 18.3878 103.211 16 100.266 16Z" fill="#D3DCFB"/>
<path d="M51.1973 16C50.1023 16 49.0853 16.331 48.2383 16.897C49.6695 17.8535 50.6128 19.4827 50.6128 21.3335V32C50.6128 33.8505 49.6695 35.48 48.2383 36.4365C49.085 37.0023 50.1023 37.3335 51.1973 37.3335C54.1428 37.3335 56.5305 34.9457 56.5305 32.0002V21.3333C56.5308 18.3878 54.143 16 51.1973 16Z" fill="#D3DCFB"/>
<path d="M122.672 24.5333H116.746C121.459 24.5333 125.279 28.3535 125.279 33.0663V54.4H131.205V33.0665C131.205 28.3538 127.384 24.5333 122.672 24.5333Z" fill="#E80054"/>
<path d="M20.2637 43.935H131.205V47.7982H20.2637V43.935Z" fill="#E80054"/>
<path d="M107.734 144C125.407 144 139.734 129.673 139.734 112C139.734 94.3269 125.407 80 107.734 80C90.0613 80 75.7344 94.3269 75.7344 112C75.7344 129.673 90.0613 144 107.734 144Z" fill="#4FABF7"/>
<path d="M107.734 135.467C120.695 135.467 131.201 124.96 131.201 112C131.201 99.0397 120.695 88.5333 107.734 88.5333C94.774 88.5333 84.2676 99.0397 84.2676 112C84.2676 124.96 94.774 135.467 107.734 135.467Z" fill="#EBF5FC"/>
<path d="M107.734 109.665C106.667 109.665 105.803 108.8 105.803 107.733V97.0665C105.803 95.9998 106.667 95.135 107.734 95.135C108.801 95.135 109.666 95.9998 109.666 97.0665V107.733C109.666 108.8 108.801 109.665 107.734 109.665Z" fill="#3C58A0"/>
<path d="M118.402 113.931H112.002C110.935 113.931 110.07 113.067 110.07 112C110.07 110.933 110.935 110.068 112.002 110.068H118.402C119.469 110.068 120.334 110.933 120.334 112C120.334 113.067 119.469 113.931 118.402 113.931Z" fill="#3C58A0"/>
<path d="M107.735 80C106.737 80 105.749 80.0482 104.774 80.1377C121.058 81.6325 133.812 95.3258 133.812 112C133.812 128.674 121.058 142.368 104.773 143.862C105.749 143.952 106.736 144 107.735 144C125.408 144 139.735 129.673 139.735 112C139.735 94.327 125.408 80 107.735 80Z" fill="#1886EA"/>
<path d="M107.735 88.5333C106.733 88.5333 105.745 88.5965 104.775 88.7185C116.338 90.1738 125.282 100.042 125.282 112C125.282 123.958 116.338 133.826 104.775 135.282C105.745 135.404 106.733 135.467 107.735 135.467C120.695 135.467 131.202 124.96 131.202 112C131.202 99.0398 120.695 88.5333 107.735 88.5333Z" fill="#D3DCFB"/>
<path d="M107.735 116.267C110.092 116.267 112.002 114.356 112.002 112C112.002 109.644 110.092 107.733 107.735 107.733C105.379 107.733 103.469 109.644 103.469 112C103.469 114.356 105.379 116.267 107.735 116.267Z" fill="#FFDD40"/>
</svg>
