<svg width="80" height="100" viewBox="0 0 80 100" fill="none" xmlns="http://www.w3.org/2000/svg">
<g clip-path="url(#clip0_548_37828)">
<path d="M61.3327 34H66.666C68.1387 34 69.3327 35.194 69.3327 36.6667V80.6667H58.666V36.6667C58.666 35.194 59.86 34 61.3327 34Z" fill="#03736D"/>
<path d="M43.9987 48.6667H49.332C50.8047 48.6667 51.9987 49.8607 51.9987 51.3333V80.6667H41.332V51.3333C41.332 49.8607 42.526 48.6667 43.9987 48.6667Z" fill="#03736D"/>
<path d="M26.6667 42H32C33.4727 42 34.6667 43.194 34.6667 44.6667V80.6667H24V44.6667C24 43.194 25.194 42 26.6667 42Z" fill="#03736D"/>
<path d="M9.33268 55.3333H14.666C16.1387 55.3333 17.3327 56.5274 17.3327 58V80.6667H6.66602V58C6.66602 56.5274 7.86003 55.3333 9.33268 55.3333Z" fill="#03736D"/>
<path d="M77.334 79.3333H80.0007V82H77.334V79.3333Z" fill="#A3A3A3"/>
<path d="M74.6667 82H4C1.79167 81.9974 0.00260417 80.2083 0 78V24.6667H2.66667V78C2.66732 78.7363 3.26367 79.3327 4 79.3333H74.6667V82Z" fill="#A3A3A3"/>
<path d="M0 19.3333H2.66667V22H0V19.3333Z" fill="#A3A3A3"/>
<path d="M13.6758 42.4408L25.6771 29.1087L27.6589 30.8926L15.6576 44.2246L13.6758 42.4408Z" fill="#CCA63B"/>
<path d="M31.3535 31.1654L32.6478 28.8346L44.6478 35.5013L43.3535 37.832L31.3535 31.1654Z" fill="#CCA63B"/>
<path d="M48.3418 35.7741L60.3431 22.442L62.3249 24.2259L50.3236 37.5579L48.3418 35.7741Z" fill="#CCA63B"/>
<path d="M10.6673 40.6667H13.334C14.0703 40.6667 14.6673 41.2637 14.6673 42V44.6667C14.6673 45.403 14.0703 46 13.334 46H10.6673C9.93099 46 9.33398 45.403 9.33398 44.6667V42C9.33398 41.2637 9.93099 40.6667 10.6673 40.6667Z" fill="#CCA63B"/>
<path d="M13.3333 47.3333H10.6667C9.19466 47.3314 8.00195 46.1387 8 44.6667V42C8.00195 40.528 9.19466 39.3353 10.6667 39.3333H13.3333C14.8053 39.3353 15.998 40.528 16 42V44.6667C15.998 46.1387 14.8053 47.3314 13.3333 47.3333ZM10.6667 42V44.6667H13.3346L13.3333 42H10.6667Z" fill="#FFD04A"/>
<path d="M27.9993 27.3333H30.666C31.4023 27.3333 31.9993 27.9303 31.9993 28.6667V31.3333C31.9993 32.0697 31.4023 32.6667 30.666 32.6667H27.9993C27.263 32.6667 26.666 32.0697 26.666 31.3333V28.6667C26.666 27.9303 27.263 27.3333 27.9993 27.3333Z" fill="#CCA63B"/>
<path d="M30.6673 34H28.0007C26.5286 33.998 25.3359 32.8053 25.334 31.3333V28.6667C25.3359 27.1947 26.5286 26.002 28.0007 26H30.6673C32.1393 26.002 33.332 27.1947 33.334 28.6667V31.3333C33.332 32.8053 32.1393 33.998 30.6673 34ZM28.0007 28.6667V31.3333H30.6686L30.6673 28.6667H28.0007Z" fill="#FFD04A"/>
<path d="M45.3333 34H48C48.7363 34 49.3333 34.597 49.3333 35.3333V38C49.3333 38.7363 48.7363 39.3333 48 39.3333H45.3333C44.597 39.3333 44 38.7363 44 38V35.3333C44 34.597 44.597 34 45.3333 34Z" fill="#CCA63B"/>
<path d="M47.9993 40.6667H45.3327C43.8607 40.6647 42.668 39.472 42.666 38V35.3333C42.668 33.8613 43.8607 32.6686 45.3327 32.6667H47.9993C49.4714 32.6686 50.6641 33.8613 50.666 35.3333V38C50.6641 39.472 49.4714 40.6647 47.9993 40.6667ZM45.3327 35.3333V38H48.0007L47.9993 35.3333H45.3327Z" fill="#FFD04A"/>
<path d="M62.6673 19.3333H65.334C66.0703 19.3333 66.6673 19.9303 66.6673 20.6667V23.3333C66.6673 24.0697 66.0703 24.6667 65.334 24.6667H62.6673C61.931 24.6667 61.334 24.0697 61.334 23.3333V20.6667C61.334 19.9303 61.931 19.3333 62.6673 19.3333Z" fill="#CCA63B"/>
<path d="M65.3333 26H62.6667C61.1947 25.998 60.002 24.8053 60 23.3333V20.6667C60.002 19.1947 61.1947 18.002 62.6667 18H65.3333C66.8053 18.002 67.998 19.1947 68 20.6667V23.3333C67.998 24.8053 66.8053 25.998 65.3333 26ZM62.6667 20.6667V23.3333H65.3346L65.3333 20.6667H62.6667Z" fill="#FFD04A"/>
</g>
<defs>
<clipPath id="clip0_548_37828">
<rect width="80" height="80" fill="white" transform="translate(0 10)"/>
</clipPath>
</defs>
</svg>
