<svg width="608" height="640" viewBox="0 0 608 640" fill="none" xmlns="http://www.w3.org/2000/svg">
<path d="M343.892 454.285H46.73C41.0763 454.285 36.4922 449.701 36.4922 444.048V29.6096C36.4922 23.9559 41.0763 19.3718 46.73 19.3718H343.892C349.545 19.3718 354.129 23.9559 354.129 29.6096V444.048C354.129 449.701 349.547 454.285 343.892 454.285Z" fill="#F5F5F5"/>
<path d="M585.107 45.2763L585.703 48.2959L579.721 80.6606C575.43 83.8082 570.03 85.0442 564.798 84.077L530.948 77.8203C530.948 77.8203 525.567 76.6184 527.067 69.6334C527.067 69.6334 527.333 65.9482 530.49 65.7021C530.49 65.7021 523.929 63.0367 524.654 57.9847C525.381 52.9312 529.103 52.998 529.103 52.998C529.103 52.998 522.957 51.4477 523.595 45.7556C524.232 40.0635 527.553 40.055 527.553 40.055C527.553 40.055 520.404 38.3183 522.194 32.009C523.983 25.6996 530.127 27.2513 530.127 27.2513L554.204 31.6961L575.31 35.5975C580.251 36.5077 584.134 40.3451 585.107 45.2763Z" fill="#EBEBEB"/>
<path d="M579.146 36.9971C579.146 36.9971 571.731 30.2895 569.123 22.993C567.23 17.6963 567.36 11.7269 567.36 11.7269C567.413 11.4395 567.848 8.89076 568.204 6.80423C568.496 5.09461 567.383 3.47744 565.689 3.10479C562.126 2.3211 555.861 4.36638 553.974 10.8649C551.159 20.5623 553.565 27.1732 553.647 30.1245C553.728 33.0772 553.728 33.0772 553.728 33.0772L579.146 36.9971Z" fill="#EBEBEB"/>
<path d="M574.528 85.4745L598.171 89.8457L607.052 41.8121L583.409 37.4409L574.528 85.4745Z" fill="#EBEBEB"/>
<path d="M574.497 85.4951C574.446 85.4852 576.392 74.724 578.844 61.4609C581.296 48.1936 583.325 37.4494 583.377 37.4594C583.428 37.4693 581.482 48.2277 579.03 61.4965C576.578 74.7581 574.548 85.5051 574.497 85.4951Z" fill="#E0E0E0"/>
<path d="M598.138 89.866C598.087 89.856 600.032 79.0948 602.484 65.8318C604.936 52.5644 606.966 41.8203 607.017 41.8302C607.068 41.8402 605.123 52.5985 602.671 65.8673C600.219 79.129 598.189 89.8759 598.138 89.866Z" fill="#E0E0E0"/>
<path d="M589.691 49.9983C589.239 52.4418 590.855 54.7886 593.297 55.2395C595.74 55.6918 598.087 54.0761 598.539 51.6325C598.992 49.189 597.376 46.8422 594.932 46.3913C592.49 45.9404 590.143 47.5548 589.691 49.9983Z" fill="white"/>
<path d="M548.662 30.6693C548.672 30.6181 551.256 31.0533 554.437 31.6407C557.617 32.2281 560.187 32.7458 560.177 32.797C560.167 32.8482 557.583 32.413 554.403 31.8256C551.222 31.2396 548.652 30.7205 548.662 30.6693Z" fill="#E0E0E0"/>
<path d="M528.582 53.1336C528.592 53.0824 530.248 53.3455 532.279 53.721C534.311 54.0965 535.951 54.4421 535.941 54.4933C535.931 54.5445 534.277 54.2814 532.245 53.9059C530.213 53.5318 528.574 53.1862 528.582 53.1336Z" fill="#E0E0E0"/>
<path d="M527.109 39.8487C527.119 39.7975 529.465 40.1887 532.349 40.722C535.235 41.2554 537.565 41.729 537.555 41.7802C537.545 41.8314 535.2 41.4403 532.315 40.9069C529.431 40.3736 527.099 39.8999 527.109 39.8487Z" fill="#E0E0E0"/>
<path d="M528.996 65.4878C529.006 65.4366 531.352 65.8277 534.236 66.3611C537.122 66.8944 539.452 67.3681 539.442 67.4193C539.432 67.4705 537.086 67.0794 534.202 66.546C531.317 66.0126 528.986 65.539 528.996 65.4878Z" fill="#E0E0E0"/>
<path d="M588.701 39.8516C588.711 39.8004 592.022 40.3693 596.097 41.1231C600.174 41.877 603.469 42.5284 603.459 42.5796C603.449 42.6308 600.139 42.0619 596.063 41.308C591.988 40.5542 588.691 39.9028 588.701 39.8516Z" fill="white"/>
<path d="M525.857 48.1779C525.844 48.1822 525.807 48.0854 525.752 47.9062C525.692 47.7284 525.635 47.4611 525.594 47.1268C525.55 46.7926 525.544 46.3886 525.581 45.9434C525.628 45.4997 525.723 45.0147 525.89 44.5268C526.062 44.0404 526.288 43.6009 526.527 43.224C526.774 42.8513 527.029 42.5384 527.271 42.3037C527.51 42.0676 527.72 41.8927 527.878 41.7903C528.033 41.685 528.123 41.631 528.13 41.6424C528.151 41.6708 527.813 41.9098 527.367 42.3962C527.143 42.6366 526.907 42.9509 526.673 43.3164C526.45 43.6877 526.235 44.1172 526.067 44.5894C525.907 45.063 525.809 45.5324 525.753 45.9619C525.708 46.3929 525.699 46.7854 525.726 47.114C525.773 47.7711 525.891 48.1694 525.857 48.1779Z" fill="white"/>
<path d="M524.605 35.3628C524.592 35.3756 524.368 35.1751 524.135 34.7541C523.901 34.3374 523.693 33.6859 523.706 32.9478C523.721 32.2096 523.953 31.5667 524.202 31.1585C524.451 30.7474 524.683 30.5554 524.694 30.5682C524.72 30.5896 524.528 30.8114 524.319 31.2225C524.108 31.6307 523.909 32.248 523.893 32.9506C523.882 33.6532 524.058 34.2776 524.253 34.6929C524.448 35.1139 524.632 35.3429 524.605 35.3628Z" fill="white"/>
<path d="M527.618 61.9619C527.609 61.9776 527.304 61.8069 526.959 61.3702C526.618 60.9435 526.268 60.2111 526.28 59.352C526.292 58.4929 526.665 57.7704 527.018 57.3536C527.373 56.9269 527.685 56.7648 527.692 56.7818C527.713 56.8075 527.436 57.0052 527.123 57.4361C526.81 57.8586 526.48 58.5484 526.467 59.3562C526.457 60.1641 526.766 60.8625 527.068 61.2934C527.369 61.7315 527.639 61.9363 527.618 61.9619Z" fill="white"/>
<path d="M530.321 74.2574C530.307 74.2702 530.092 74.0497 529.866 73.6117C529.638 73.1764 529.432 72.5094 529.428 71.7541C529.426 70.9974 529.63 70.329 529.853 69.8937C530.076 69.4542 530.29 69.2324 530.304 69.2452C530.331 69.2636 530.159 69.5111 529.974 69.9492C529.788 70.3859 529.616 71.0287 529.616 71.7541C529.62 72.4795 529.796 73.121 529.985 73.5562C530.174 73.9928 530.348 74.2389 530.321 74.2574Z" fill="white"/>
<path d="M554.239 22.0982C554.226 22.1011 554.168 21.9119 554.074 21.5634C554.024 21.3899 553.97 21.1766 553.923 20.9248C553.875 20.6731 553.806 20.3886 553.768 20.0686C553.664 19.4314 553.599 18.6648 553.579 17.8114C553.572 16.958 553.62 16.0178 553.757 15.0421C553.903 14.0664 554.125 13.1519 554.375 12.3369C554.637 11.5247 554.92 10.8079 555.2 10.2262C555.33 9.93033 555.475 9.67716 555.593 9.44959C555.709 9.22202 555.823 9.03285 555.92 8.88066C556.109 8.57486 556.22 8.40845 556.23 8.41556C556.241 8.42267 556.152 8.60046 555.984 8.91764C555.897 9.0741 555.793 9.26753 555.687 9.49937C555.577 9.72978 555.442 9.9858 555.321 10.2816C555.058 10.8648 554.791 11.5802 554.542 12.3881C554.303 13.1988 554.088 14.1048 553.943 15.0706C553.806 16.0363 553.754 16.9665 553.751 17.8114C553.761 18.6562 553.812 19.4172 553.899 20.0515C553.929 20.3701 553.987 20.6546 554.025 20.9063C554.062 21.1581 554.106 21.3728 554.145 21.5478C554.217 21.8991 554.252 22.0954 554.239 22.0982Z" fill="white"/>
<path d="M548.509 341.193L550.112 343.028L558.815 367.584C557.118 371.44 553.905 374.424 549.935 375.831L524.251 384.933C524.251 384.933 520.087 386.238 518.351 380.856C518.351 380.856 517.076 378.223 519.144 376.805C519.144 376.805 513.59 377.574 512.089 373.822C510.588 370.07 513.166 368.642 513.166 368.642C513.166 368.642 508.338 370.01 506.523 365.856C504.709 361.701 506.982 360.381 506.982 360.381C506.982 360.381 501.393 362.02 500.123 356.986C498.853 351.953 503.68 350.585 503.68 350.585L521.946 344.106L537.96 338.429C541.71 337.104 545.89 338.198 548.509 341.193Z" fill="#EBEBEB"/>
<path d="M541.143 337.876C541.143 337.876 533.406 336.211 528.731 332.241C525.337 329.359 523.064 325.215 523.064 325.215C522.987 324.997 522.276 323.077 521.694 321.507C521.218 320.22 519.815 319.551 518.507 319.965C515.755 320.837 512.267 324.718 513.546 329.921C515.453 337.683 519.719 341.264 520.942 343.255C522.165 345.248 522.165 345.248 522.165 345.248L541.143 337.876Z" fill="#EBEBEB"/>
<path d="M557.169 373L575.106 366.642L562.187 330.197L544.25 336.555L557.169 373Z" fill="#EBEBEB"/>
<path d="M557.148 372.966C557.109 372.98 554.185 364.832 550.618 354.767C547.049 344.7 544.19 336.532 544.229 336.518C544.267 336.503 547.19 344.651 550.759 354.718C554.326 364.782 557.186 372.953 557.148 372.966Z" fill="#E0E0E0"/>
<path d="M575.085 366.608C575.046 366.622 572.122 358.474 568.556 348.41C564.988 338.343 562.129 330.174 562.167 330.16C562.206 330.146 565.129 338.293 568.697 348.36C572.264 358.423 575.125 366.594 575.085 366.608Z" fill="#E0E0E0"/>
<path d="M553.518 342.617C554.175 344.47 556.211 345.441 558.065 344.784C559.919 344.127 560.89 342.092 560.233 340.237C559.576 338.384 557.54 337.412 555.686 338.069C553.831 338.728 552.861 340.763 553.518 342.617Z" fill="white"/>
<path d="M517.74 345.598C517.726 345.559 519.672 344.834 522.084 343.979C524.498 343.124 526.463 342.462 526.478 342.501C526.492 342.54 524.548 343.265 522.134 344.12C519.722 344.975 517.755 345.638 517.74 345.598Z" fill="#E0E0E0"/>
<path d="M512.865 368.947C512.851 368.908 514.09 368.433 515.632 367.887C517.174 367.341 518.435 366.928 518.449 366.968C518.464 367.007 517.225 367.482 515.682 368.028C514.14 368.573 512.88 368.985 512.865 368.947Z" fill="#E0E0E0"/>
<path d="M506.596 360.42C506.582 360.381 508.345 359.72 510.534 358.945C512.723 358.168 514.508 357.572 514.522 357.611C514.537 357.649 512.773 358.31 510.584 359.086C508.395 359.862 506.61 360.46 506.596 360.42Z" fill="#E0E0E0"/>
<path d="M518.037 377.25C518.023 377.212 519.787 376.55 521.976 375.775C524.165 374.998 525.95 374.401 525.964 374.441C525.978 374.479 524.214 375.141 522.025 375.916C519.836 376.692 518.05 377.29 518.037 377.25Z" fill="#E0E0E0"/>
<path d="M548.828 336.053C548.814 336.014 551.31 335.094 554.401 333.999C557.493 332.902 560.01 332.046 560.025 332.084C560.039 332.123 557.543 333.043 554.451 334.14C551.36 335.235 548.842 336.091 548.828 336.053Z" fill="white"/>
<path d="M509.031 366.627C509.024 366.634 508.962 366.583 508.852 366.482C508.74 366.384 508.596 366.223 508.435 366.01C508.273 365.798 508.11 365.523 507.959 365.203C507.815 364.88 507.689 364.51 507.611 364.109C507.537 363.707 507.517 363.317 507.532 362.964C507.554 362.612 507.605 362.296 507.679 362.04C507.75 361.782 507.824 361.581 507.892 361.447C507.956 361.313 507.997 361.242 508.006 361.246C508.032 361.258 507.894 361.555 507.781 362.064C507.723 362.317 507.684 362.627 507.67 362.97C507.665 363.314 507.687 363.691 507.758 364.082C507.835 364.472 507.955 364.83 508.087 365.148C508.226 365.462 508.376 365.734 508.525 365.948C508.814 366.381 509.051 366.607 509.031 366.627Z" fill="white"/>
<path d="M503.105 358.336C503.101 358.35 502.869 358.3 502.542 358.104C502.216 357.912 501.816 357.546 501.532 357.036C501.25 356.524 501.155 355.99 501.165 355.614C501.172 355.232 501.256 355.01 501.269 355.013C501.294 355.018 501.252 355.245 501.27 355.611C501.287 355.975 501.395 356.475 501.663 356.965C501.933 357.451 502.3 357.81 502.6 358.017C502.899 358.226 503.113 358.31 503.105 358.336Z" fill="white"/>
<path d="M515.697 375.38C515.697 375.394 515.419 375.398 515.011 375.235C514.609 375.077 514.078 374.713 513.745 374.12C513.414 373.525 513.384 372.884 513.461 372.457C513.536 372.023 513.686 371.79 513.697 371.797C513.721 371.807 513.61 372.052 513.565 372.471C513.516 372.885 513.565 373.488 513.875 374.047C514.188 374.605 514.676 374.962 515.053 375.138C515.435 375.319 515.701 375.353 515.697 375.38Z" fill="white"/>
<path d="M522.414 382.74C522.41 382.754 522.175 382.689 521.847 382.477C521.519 382.269 521.113 381.894 520.811 381.376C520.511 380.858 520.386 380.319 520.366 379.932C520.345 379.543 520.404 379.307 520.419 379.309C520.444 379.312 520.424 379.548 520.471 379.922C520.517 380.295 520.652 380.804 520.939 381.302C521.229 381.797 521.603 382.168 521.906 382.392C522.209 382.616 522.425 382.716 522.414 382.74Z" fill="white"/>
<path d="M518.173 337.516C518.166 337.523 518.051 337.417 517.849 337.215C517.747 337.115 517.624 336.99 517.492 336.836C517.36 336.684 517.2 336.515 517.047 336.31C516.724 335.915 516.375 335.414 516.024 334.837C515.681 334.255 515.343 333.591 515.051 332.868C514.765 332.141 514.556 331.426 514.406 330.767C514.263 330.106 514.174 329.504 514.137 328.995C514.108 328.742 514.107 328.51 514.098 328.308C514.088 328.106 514.091 327.931 514.097 327.789C514.105 327.505 514.115 327.347 514.125 327.347C514.135 327.347 514.145 327.505 514.155 327.788C514.158 327.93 514.164 328.103 514.182 328.304C514.198 328.504 514.206 328.733 514.242 328.985C514.293 329.489 514.393 330.085 514.541 330.737C514.699 331.387 514.909 332.094 515.192 332.813C515.481 333.53 515.812 334.187 516.145 334.767C516.486 335.343 516.824 335.844 517.132 336.245C517.279 336.451 517.431 336.623 517.557 336.781C517.683 336.939 517.798 337.07 517.893 337.173C518.079 337.388 518.18 337.509 518.173 337.516Z" fill="white"/>
<path d="M326.438 623.181H257.172C246.718 623.181 238.244 614.707 238.244 604.253V534.987C238.244 524.533 246.718 516.059 257.172 516.059H326.438C336.892 516.059 345.366 524.533 345.366 534.987V604.253C345.366 614.707 336.892 623.181 326.438 623.181Z" fill="#E0E0E0"/>
<path d="M307.203 623.181H237.938C227.484 623.181 219.01 614.707 219.01 604.253V534.987C219.01 524.533 227.484 516.059 237.938 516.059H307.203C317.657 516.059 326.131 524.533 326.131 534.987V604.253C326.131 614.707 317.656 623.181 307.203 623.181Z" fill="#EBEBEB"/>
<path d="M235.586 571.161L246.376 560.371L267.187 578.87L301.937 543.985L311.957 554.775L265.645 599.68L235.586 571.161Z" fill="white"/>
<path d="M79.1015 622.157H33.852C23.398 622.157 14.9238 613.682 14.9238 603.228V557.98C14.9238 547.526 23.398 539.052 33.852 539.052H79.1001C89.5541 539.052 98.0283 547.526 98.0283 557.98V603.228C98.0283 613.681 89.5541 622.157 79.1015 622.157Z" fill="#E0E0E0"/>
<path d="M64.1783 622.157H18.9301C8.47611 622.157 0.00195312 613.683 0.00195312 603.229V557.981C0.00195312 547.527 8.47611 539.052 18.9301 539.052H64.1783C74.6323 539.052 83.1064 547.527 83.1064 557.981V603.229C83.1064 613.681 74.6323 622.157 64.1783 622.157Z" fill="#EBEBEB"/>
<path d="M12.8613 581.8L21.2317 573.428L37.3764 587.779L64.3364 560.716L72.1093 569.087L36.1802 603.924L12.8613 581.8Z" fill="white"/>
<path d="M587.489 619.704C587.489 619.909 459.542 620.074 301.747 620.074C143.899 620.074 15.9785 619.908 15.9785 619.704C15.9785 619.499 143.899 619.334 301.747 619.334C459.542 619.334 587.489 619.501 587.489 619.704Z" fill="#263238"/>
<path d="M530.215 578.967C530.215 578.967 524.286 538.207 524.78 514.495C525.273 490.78 524.75 464.102 524.75 464.102H527.482C527.482 464.102 525.632 511.172 527.646 539.561C529.658 567.928 534.959 578.968 534.959 578.968H530.215" fill="#263238"/>
<path d="M547.87 418.241C547.321 416.849 546.645 415.398 545.381 414.597C543.647 413.499 541.376 413.956 539.441 414.64C531.188 417.558 523.87 432.949 520.533 441.044L531.492 477.968C551.272 459.618 554.697 435.545 547.87 418.241Z" fill="#455A64"/>
<path d="M544.743 416.092C544.757 416.098 544.702 416.264 544.584 416.574C544.443 416.928 544.265 417.374 544.047 417.92C543.567 419.082 542.893 420.772 542.087 422.869C540.473 427.062 538.418 432.924 536.58 439.529C534.75 446.137 533.49 452.22 532.712 456.647C532.32 458.86 532.027 460.655 531.84 461.898C531.744 462.478 531.668 462.952 531.606 463.327C531.548 463.653 531.51 463.824 531.494 463.822C531.478 463.821 531.487 463.646 531.515 463.316C531.555 462.937 531.605 462.46 531.665 461.874C531.798 460.622 532.045 458.817 532.396 456.594C533.094 452.148 534.309 446.036 536.144 439.41C537.987 432.787 540.096 426.924 541.789 422.754C542.634 420.668 543.353 418.994 543.885 417.853C544.136 417.32 544.339 416.886 544.5 416.54C544.646 416.239 544.729 416.085 544.743 416.092Z" fill="#263238"/>
<path d="M526.624 486.821C516.352 481.146 510.299 470.467 509.734 458.746C509.339 450.552 511.857 442.511 514.71 434.82C514.957 434.152 515.25 433.433 515.87 433.083C516.732 432.595 517.81 433.029 518.671 433.52C526.135 437.769 530.657 445.872 533.063 454.117C534.665 459.603 535.494 465.389 534.753 471.056C534.012 476.724 530.772 482.889 526.624 486.821Z" fill="#455A64"/>
<path d="M526.624 486.821C526.609 486.821 526.596 486.65 526.584 486.326C526.577 485.952 526.569 485.484 526.557 484.909C526.555 483.679 526.505 481.9 526.404 479.703C526.206 475.311 525.63 469.258 524.498 462.646C523.359 456.032 521.976 450.109 520.956 445.83C520.454 443.735 520.042 442.019 519.74 440.761C519.612 440.2 519.507 439.744 519.425 439.378C519.358 439.061 519.329 438.893 519.343 438.889C519.359 438.884 519.416 439.045 519.513 439.355C519.618 439.714 519.749 440.165 519.911 440.716C520.248 441.901 520.715 443.621 521.266 445.753C522.366 450.017 523.8 455.938 524.943 462.57C526.08 469.201 526.607 475.284 526.724 479.691C526.784 481.894 526.785 483.679 526.734 484.909C526.711 485.484 526.691 485.953 526.677 486.327C526.657 486.651 526.64 486.822 526.624 486.821Z" fill="#263238"/>
<g opacity="0.3">
<path d="M526.624 486.821C516.352 481.146 510.299 470.467 509.734 458.746C509.339 450.552 511.857 442.511 514.71 434.82C514.957 434.152 515.25 433.433 515.87 433.083C516.732 432.595 517.81 433.029 518.671 433.52C526.135 437.769 530.657 445.872 533.063 454.117C534.665 459.603 535.494 465.389 534.753 471.056C534.012 476.724 530.772 482.889 526.624 486.821Z" fill="black"/>
</g>
<path d="M538.213 549.185C548.323 551.405 556.646 558.537 566.399 562.004C572.852 564.299 580.148 565.109 585.301 569.622C584.065 566.502 581.134 564.422 578.287 562.644C570.266 557.635 561.678 553.535 552.739 550.448C548.151 548.864 543.173 547.54 538.497 548.845" fill="#455A64"/>
<path d="M523.595 558.191C510.935 557.986 497.604 547.208 485.002 546.565C498.19 542.307 517.072 545.784 523.595 558.191Z" fill="#455A64"/>
<path d="M528.543 527.821C534.972 525.504 542.031 525.393 548.784 526.444C555.537 527.493 562.058 529.658 568.543 531.814C567.893 527.422 564.336 524.118 560.993 521.195C558.478 518.995 555.944 516.782 553.059 515.097C550.174 513.412 546.882 512.27 543.544 512.413C539.516 512.583 535.683 514.661 533.042 517.706C530.401 520.749 528.98 523.814 528.543 527.821Z" fill="#455A64"/>
<path d="M502.558 513.842C494.589 507.038 482.518 507.703 472.041 507.939C488.146 515.64 505.5 526.196 519.37 537.433C519.794 530.027 512.625 522.437 502.558 513.842Z" fill="#455A64"/>
<g opacity="0.3">
<path d="M502.558 513.842C494.589 507.038 482.518 507.703 472.041 507.94C488.146 515.64 505.5 526.196 519.37 537.433C519.794 530.027 512.625 522.437 502.558 513.842Z" fill="black"/>
</g>
<path d="M532.127 504.449C536.133 501.778 540.188 499.23 544.383 497.325C548.577 495.419 552.491 492.382 556.542 490.189C561.796 487.344 566.346 483.39 571.169 479.864C575.991 476.338 581.288 473.154 587.189 472.221C582.377 471.228 577.349 471.77 572.61 473.064C567.871 474.358 563.368 476.384 558.889 478.402C552.672 481.203 546.347 484.073 541.265 488.619C536.183 493.164 531.591 497.652 532.127 504.449Z" fill="#455A64"/>
<path d="M566.17 558.191C566.163 558.204 566.025 558.144 565.769 558.017C565.47 557.862 565.106 557.673 564.663 557.446C563.711 556.938 562.341 556.187 560.617 555.319C559.764 554.868 558.819 554.399 557.792 553.917C556.777 553.412 555.673 552.915 554.505 552.409C552.167 551.411 549.557 550.368 546.71 549.692C543.871 548.996 541.043 548.843 538.588 549.489C537.351 549.788 536.184 550.084 535.148 550.516C534.106 550.938 533.178 551.431 532.37 551.943C530.747 552.964 529.615 554.046 528.879 554.826C528.146 555.611 527.789 556.091 527.757 556.067C527.744 556.057 527.823 555.931 527.985 555.695C528.143 555.457 528.399 555.123 528.75 554.708C529.453 553.884 530.568 552.748 532.198 551.672C533.01 551.135 533.949 550.614 535.007 550.169C536.062 549.711 537.254 549.394 538.494 549.082C541.002 548.397 543.942 548.543 546.815 549.252C549.706 549.939 552.331 551.001 554.673 552.027C555.844 552.546 556.946 553.058 557.959 553.578C558.981 554.076 559.921 554.564 560.768 555.033C562.477 555.938 563.824 556.733 564.752 557.289C565.177 557.548 565.528 557.761 565.816 557.935C566.054 558.091 566.177 558.177 566.17 558.191Z" fill="#263238"/>
<path d="M514.153 551.917C514.164 551.887 514.444 551.971 514.947 552.149C515.45 552.32 516.158 552.623 517.009 553.045C518.713 553.886 520.953 555.319 523.058 557.335C525.157 559.357 526.678 561.539 527.587 563.207C528.043 564.041 528.375 564.736 528.565 565.233C528.763 565.726 528.857 566.004 528.828 566.016C528.756 566.048 528.282 564.977 527.309 563.368C526.341 561.761 524.806 559.649 522.744 557.66C520.676 555.679 518.504 554.231 516.858 553.328C515.214 552.421 514.123 551.991 514.153 551.917Z" fill="#263238"/>
<path d="M486.139 513.206C486.144 513.192 486.329 513.247 486.678 513.365C487.07 513.505 487.574 513.684 488.197 513.906C488.871 514.155 489.673 514.451 490.593 514.789C491.526 515.136 492.541 515.648 493.688 516.153C498.247 518.223 504.312 521.704 510.17 526.654C513.059 529.169 515.672 531.725 517.856 534.224C520.033 536.727 521.876 539.081 523.311 541.135C524.756 543.183 525.853 544.888 526.604 546.067C526.959 546.625 527.246 547.074 527.47 547.425C527.666 547.737 527.763 547.905 527.75 547.915C527.737 547.925 527.615 547.774 527.394 547.478C527.173 547.184 526.853 546.743 526.457 546.165C525.661 545.015 524.526 543.339 523.052 541.321C521.587 539.297 519.727 536.974 517.545 534.498C515.355 532.028 512.749 529.496 509.877 526.997C504.054 522.078 498.056 518.575 493.552 516.44C492.418 515.918 491.417 515.388 490.497 515.019C489.589 514.654 488.8 514.335 488.136 514.067C487.525 513.812 487.032 513.607 486.648 513.448C486.309 513.304 486.134 513.22 486.139 513.206Z" fill="#263238"/>
<path d="M547.539 520.703C547.53 520.733 547.17 520.685 546.529 520.574C546.18 520.51 545.795 520.439 545.365 520.359C544.913 520.272 544.385 520.269 543.811 520.21C541.534 520.045 538.217 520.232 535.11 521.926C533.543 522.72 532.227 523.791 531.151 524.865C530.058 525.93 529.229 527.041 528.605 528.012C527.335 529.957 526.942 531.361 526.864 531.334C526.84 531.328 526.911 530.969 527.121 530.346C527.355 529.733 527.713 528.844 528.333 527.843C528.933 526.833 529.753 525.68 530.853 524.572C531.939 523.457 533.283 522.345 534.899 521.527C538.104 519.78 541.535 519.639 543.838 519.891C544.42 519.972 544.954 519.998 545.408 520.11C545.836 520.218 546.22 520.315 546.567 520.402C547.203 520.568 547.547 520.673 547.539 520.703Z" fill="#263238"/>
<path d="M560.261 481.23C560.268 481.244 560.103 481.345 559.781 481.525C559.417 481.723 558.948 481.978 558.369 482.292C557.14 482.953 555.374 483.93 553.226 485.195C551.088 486.478 548.571 488.052 545.891 489.967C543.22 491.885 540.351 494.117 537.703 496.828C536.397 498.192 535.192 499.616 534.353 501.165C533.524 502.758 532.732 504.297 532.002 505.774C530.539 508.727 529.345 511.445 528.485 513.782C527.626 516.119 527.091 518.065 526.774 519.42C526.449 520.775 526.333 521.539 526.289 521.532C526.273 521.529 526.291 521.337 526.34 520.972C526.385 520.606 526.462 520.069 526.603 519.383C526.869 518.009 527.361 516.039 528.186 513.674C529.014 511.31 530.181 508.564 531.631 505.591C532.352 504.103 533.138 502.557 533.962 500.961C534.834 499.341 536.056 497.898 537.38 496.515C540.061 493.771 542.954 491.54 545.652 489.63C548.357 487.724 550.902 486.172 553.067 484.922C555.241 483.687 557.035 482.753 558.289 482.138C558.885 481.854 559.367 481.625 559.741 481.446C560.076 481.289 560.255 481.215 560.261 481.23Z" fill="#263238"/>
<path d="M524.764 519.562C524.733 519.567 524.646 519.187 524.513 518.496C524.365 517.715 524.18 516.735 523.959 515.571C523.477 513.107 522.74 509.713 521.566 506.07C520.402 502.424 518.985 499.25 517.95 496.962C517.459 495.882 517.045 494.975 516.715 494.251C516.428 493.608 516.282 493.247 516.31 493.233C516.339 493.218 516.538 493.554 516.873 494.173C517.209 494.791 517.681 495.695 518.239 496.824C519.35 499.081 520.823 502.254 521.997 505.93C523.18 509.599 523.871 513.026 524.275 515.512C524.473 516.756 524.616 517.766 524.689 518.467C524.766 519.17 524.794 519.558 524.764 519.562Z" fill="#263238"/>
<path d="M523.847 490.759C523.53 485.976 521.971 481.328 519.729 477.091C513.585 465.472 502.036 456.86 489.146 454.286C498.584 468.352 508.022 482.419 517.459 496.486L521.116 504.018C523.611 499.923 524.164 495.543 523.847 490.759Z" fill="#455A64"/>
<path d="M564.461 573.925H498.625V585.594H564.461V573.925Z" fill="#03736D"/>
<path d="M503.539 583.278L509.144 619.486H552.852L559.541 583.278H503.539Z" fill="#03736D"/>
<path d="M564.422 585.608C564.422 585.736 549.572 585.839 531.258 585.839C512.937 585.839 498.09 585.736 498.09 585.608C498.09 585.48 512.937 585.376 531.258 585.376C549.572 585.377 564.422 585.48 564.422 585.608Z" fill="#263238"/>
<path d="M155.438 619.704H97.0258C86.5718 619.704 78.0977 611.23 78.0977 600.776V542.365C78.0977 531.911 86.5718 523.437 97.0258 523.437H155.438C165.892 523.437 174.366 531.911 174.366 542.365V600.776C174.366 611.23 165.892 619.704 155.438 619.704Z" fill="#03736D"/>
<g opacity="0.3">
<path d="M155.438 619.704H97.0258C86.5718 619.704 78.0977 611.23 78.0977 600.776V542.365C78.0977 531.911 86.5718 523.437 97.0258 523.437H155.438C165.892 523.437 174.366 531.911 174.366 542.365V600.776C174.366 611.23 165.892 619.704 155.438 619.704Z" fill="black"/>
</g>
<path d="M138.154 619.705H79.7426C69.2886 619.705 60.8145 611.23 60.8145 600.776V542.365C60.8145 531.911 69.2886 523.437 79.7426 523.437H138.154C148.608 523.437 157.082 531.911 157.082 542.365V600.776C157.081 611.23 148.607 619.705 138.154 619.705Z" fill="#03736D"/>
<path d="M75.7148 572.957L85.4122 563.26L104.114 579.884L135.344 548.533L144.349 558.231L102.729 598.585L75.7148 572.957Z" fill="white"/>
<path d="M205.999 619.705H167.821C161.36 619.705 156.121 614.466 156.121 608.005V569.827C156.121 563.365 161.36 558.127 167.821 558.127H205.999C212.46 558.127 217.699 563.365 217.699 569.827V608.005C217.7 614.466 212.462 619.705 205.999 619.705Z" fill="#263238"/>
<path d="M194.942 619.705H156.764C150.303 619.705 145.064 614.466 145.064 608.005V569.827C145.064 563.366 150.303 558.127 156.764 558.127H194.942C201.404 558.127 206.642 563.366 206.642 569.827V608.005C206.642 614.466 201.404 619.705 194.942 619.705Z" fill="#455A64"/>
<path d="M154.59 589.802L160.793 583.599L172.756 594.232L192.732 574.179L198.492 580.382L171.87 606.195L154.59 589.802Z" fill="white"/>
<path d="M358.186 435.283H61.0249C55.3712 435.283 50.7871 430.699 50.7871 425.045V10.6076C50.7871 4.95386 55.3712 0.369751 61.0249 0.369751H358.186C363.84 0.369751 368.424 4.95386 368.424 10.6076V425.045C368.424 430.701 363.84 435.283 358.186 435.283Z" fill="white"/>
<path d="M358.187 435.283C358.167 435.2 359.543 435.446 361.922 434.53C363.09 434.063 364.497 433.259 365.741 431.853C367.006 430.486 368.054 428.456 368.301 426.003C368.374 416.111 368.282 401.486 368.28 382.672C368.252 345.028 368.212 290.569 368.162 223.276C368.148 189.627 368.134 152.771 368.117 113.205C368.111 93.4219 368.105 72.9605 368.098 51.8847C368.095 41.3467 368.092 30.6552 368.09 19.8172C368.09 17.1077 368.088 14.3896 368.088 11.6616C368.259 8.96209 367.518 6.27818 365.761 4.23858C364.054 2.20041 361.494 0.894728 358.823 0.739696C356.105 0.675691 353.3 0.722629 350.53 0.708406C261.554 0.71694 163.734 0.726896 61.0585 0.736853C57.9579 0.725474 54.8956 2.24308 53.0864 4.75915C52.1605 5.99372 51.5404 7.45017 51.3014 8.97205C51.0639 10.4712 51.1862 12.1026 51.1549 13.6913C51.1549 20.0718 51.1549 26.4324 51.1549 32.7716C51.1549 45.4501 51.1535 58.0461 51.1535 70.5497C51.1521 95.5568 51.1492 120.197 51.1478 144.409C51.1407 192.832 51.1336 239.539 51.1265 284.035C51.1151 328.529 51.1023 370.81 51.0924 410.379C51.0909 415.324 51.0909 420.228 51.0895 425.088C51.0995 427.452 51.9827 429.776 53.516 431.543C55.0336 433.326 57.2055 434.511 59.4954 434.854C60.629 435.039 61.8223 434.972 63.0142 434.985C64.2018 434.985 65.3866 434.986 66.5686 434.986C68.9325 434.988 71.285 434.988 73.6275 434.989C78.3112 434.99 82.9494 434.993 87.5406 434.995C105.907 435.003 123.534 435.012 140.358 435.019C207.651 435.069 262.106 435.108 299.744 435.137C318.556 435.167 333.165 435.191 343.078 435.207C348.026 435.222 351.801 435.235 354.347 435.244C356.886 435.259 358.187 435.283 358.187 435.283C358.187 435.283 356.887 435.309 354.349 435.322C351.803 435.33 348.028 435.342 343.08 435.359C333.166 435.374 318.557 435.399 299.746 435.429C262.106 435.457 207.651 435.497 140.36 435.547C123.535 435.554 105.908 435.562 87.542 435.571C82.9508 435.572 78.3126 435.575 73.6289 435.576C71.2878 435.578 68.9339 435.578 66.57 435.579C65.3881 435.579 64.2033 435.581 63.0156 435.581C61.8365 435.568 60.6332 435.64 59.4058 435.446C56.9779 435.083 54.6752 433.828 53.0651 431.94C51.438 430.069 50.4993 427.6 50.4865 425.095C50.4836 420.234 50.4822 415.33 50.4793 410.383C50.4694 370.813 50.458 328.533 50.4452 284.039C50.4381 239.545 50.431 192.837 50.4239 144.413C50.4224 120.201 50.4196 95.5611 50.4182 70.5539C50.4182 58.0504 50.4168 45.4558 50.4168 32.7759C50.4168 26.4366 50.4168 20.076 50.4168 13.6955C50.4523 12.1011 50.3172 10.5181 50.5732 8.854C50.8307 7.21834 51.4991 5.64952 52.4933 4.3225C54.4348 1.62153 57.7346 -0.0141311 61.0614 9.20067e-05C163.737 0.0100482 261.557 0.020005 350.533 0.0285389C353.322 0.0441844 356.064 -0.00417211 358.869 0.0640989C361.723 0.23051 364.46 1.62864 366.28 3.80478C368.154 5.95105 368.946 8.92653 368.761 11.6616C368.761 14.3896 368.759 17.1077 368.759 19.8172C368.757 30.6552 368.754 41.3467 368.751 51.8847C368.744 72.9605 368.738 93.4205 368.732 113.205C368.715 152.771 368.701 189.627 368.687 223.276C368.637 290.569 368.597 345.028 368.569 382.672C368.525 401.494 368.573 416.098 368.451 426.017C368.188 428.506 367.114 430.556 365.825 431.93C364.557 433.343 363.13 434.141 361.949 434.601C360.762 435.077 359.79 435.178 359.155 435.254C358.512 435.281 358.187 435.283 358.187 435.283Z" fill="#263238"/>
<path d="M178.072 65.336C176.696 65.336 175.368 65.168 174.088 64.832C172.824 64.48 171.792 64.032 170.992 63.488L172.552 59.984C173.304 60.464 174.168 60.864 175.144 61.184C176.136 61.488 177.12 61.64 178.096 61.64C178.752 61.64 179.28 61.584 179.68 61.472C180.08 61.344 180.368 61.184 180.544 60.992C180.736 60.784 180.832 60.544 180.832 60.272C180.832 59.888 180.656 59.584 180.304 59.36C179.952 59.136 179.496 58.952 178.936 58.808C178.376 58.664 177.752 58.52 177.064 58.376C176.392 58.232 175.712 58.048 175.024 57.824C174.352 57.6 173.736 57.312 173.176 56.96C172.616 56.592 172.16 56.12 171.808 55.544C171.456 54.952 171.28 54.208 171.28 53.312C171.28 52.304 171.552 51.392 172.096 50.576C172.656 49.76 173.488 49.104 174.592 48.608C175.696 48.112 177.072 47.864 178.72 47.864C179.824 47.864 180.904 47.992 181.96 48.248C183.032 48.488 183.984 48.848 184.816 49.328L183.352 52.856C182.552 52.424 181.76 52.104 180.976 51.896C180.192 51.672 179.432 51.56 178.696 51.56C178.04 51.56 177.512 51.632 177.112 51.776C176.712 51.904 176.424 52.08 176.248 52.304C176.072 52.528 175.984 52.784 175.984 53.072C175.984 53.44 176.152 53.736 176.488 53.96C176.84 54.168 177.296 54.344 177.856 54.488C178.432 54.616 179.056 54.752 179.728 54.896C180.416 55.04 181.096 55.224 181.768 55.448C182.456 55.656 183.08 55.944 183.64 56.312C184.2 56.664 184.648 57.136 184.984 57.728C185.336 58.304 185.512 59.032 185.512 59.912C185.512 60.888 185.232 61.792 184.672 62.624C184.128 63.44 183.304 64.096 182.2 64.592C181.112 65.088 179.736 65.336 178.072 65.336ZM193.299 65.216C191.635 65.216 190.339 64.808 189.411 63.992C188.483 63.16 188.019 61.912 188.019 60.248V49.088H192.579V60.2C192.579 60.664 192.707 61.032 192.963 61.304C193.219 61.56 193.547 61.688 193.947 61.688C194.491 61.688 194.955 61.552 195.339 61.28L196.467 64.472C196.083 64.728 195.611 64.912 195.051 65.024C194.491 65.152 193.907 65.216 193.299 65.216ZM186.123 55.88V52.472H195.555V55.88H186.123ZM203.698 65.216C202.642 65.216 201.69 65.008 200.842 64.592C200.01 64.176 199.354 63.528 198.874 62.648C198.41 61.752 198.178 60.624 198.178 59.264V51.992H202.738V58.52C202.738 59.528 202.922 60.248 203.29 60.68C203.674 61.112 204.21 61.328 204.898 61.328C205.346 61.328 205.754 61.224 206.122 61.016C206.49 60.808 206.786 60.48 207.01 60.032C207.234 59.568 207.346 58.976 207.346 58.256V51.992H211.906V65H207.562V61.328L208.402 62.36C207.954 63.32 207.306 64.04 206.458 64.52C205.61 64.984 204.69 65.216 203.698 65.216ZM215.371 65V52.136C215.371 50.568 215.835 49.32 216.763 48.392C217.707 47.448 219.051 46.976 220.795 46.976C221.355 46.976 221.907 47.032 222.451 47.144C222.995 47.256 223.451 47.424 223.819 47.648L222.691 50.864C222.499 50.752 222.283 50.664 222.043 50.6C221.803 50.52 221.563 50.48 221.323 50.48C220.843 50.48 220.467 50.624 220.195 50.912C219.939 51.184 219.811 51.608 219.811 52.184V53.12L219.931 55.016V65H215.371ZM213.475 55.88V52.472H222.907V55.88H213.475ZM225.121 65V52.136C225.121 50.568 225.585 49.32 226.513 48.392C227.457 47.448 228.801 46.976 230.545 46.976C231.105 46.976 231.657 47.032 232.201 47.144C232.745 47.256 233.201 47.424 233.569 47.648L232.441 50.864C232.249 50.752 232.033 50.664 231.793 50.6C231.553 50.52 231.313 50.48 231.073 50.48C230.593 50.48 230.217 50.624 229.945 50.912C229.689 51.184 229.561 51.608 229.561 52.184V53.12L229.681 55.016V65H225.121ZM223.225 55.88V52.472H232.657V55.88H223.225ZM234.745 65V51.992H239.305V65H234.745ZM237.025 50.552C236.193 50.552 235.521 50.32 235.009 49.856C234.497 49.392 234.241 48.816 234.241 48.128C234.241 47.44 234.497 46.864 235.009 46.4C235.521 45.936 236.193 45.704 237.025 45.704C237.857 45.704 238.529 45.928 239.041 46.376C239.553 46.808 239.809 47.368 239.809 48.056C239.809 48.776 239.553 49.376 239.041 49.856C238.545 50.32 237.873 50.552 237.025 50.552ZM250.737 51.776C251.745 51.776 252.657 51.984 253.473 52.4C254.289 52.8 254.929 53.424 255.393 54.272C255.873 55.12 256.113 56.216 256.113 57.56V65H251.553V58.304C251.553 57.376 251.361 56.704 250.977 56.288C250.609 55.856 250.089 55.64 249.417 55.64C248.937 55.64 248.497 55.752 248.097 55.976C247.697 56.184 247.385 56.512 247.161 56.96C246.937 57.408 246.825 57.992 246.825 58.712V65H242.265V51.992H246.609V55.688L245.769 54.608C246.265 53.664 246.945 52.96 247.809 52.496C248.673 52.016 249.649 51.776 250.737 51.776Z" fill="#263238"/>
<path d="M310.331 148.508H169.529C164.576 148.508 160.562 144.494 160.562 139.542V138.687C160.562 133.735 164.576 129.721 169.529 129.721H310.331C315.283 129.721 319.297 133.735 319.297 138.687V139.542C319.297 144.494 315.282 148.508 310.331 148.508Z" fill="#E0E0E0"/>
<path d="M136.141 162.049H107.228C103.191 162.049 99.9199 158.776 99.9199 154.741V125.828C99.9199 121.791 103.191 118.52 107.228 118.52H136.141C140.177 118.52 143.448 121.791 143.448 125.828V154.741C143.448 158.776 140.176 162.049 136.141 162.049Z" fill="#03736D"/>
<path d="M106.65 140.91L111.035 136.527L119.491 144.042L133.612 129.867L137.684 134.252L118.865 152.499L106.65 140.91Z" fill="white"/>
<path d="M310.331 216.032H169.529C164.576 216.032 160.562 212.018 160.562 207.066V206.211C160.562 201.259 164.576 197.245 169.529 197.245H310.331C315.283 197.245 319.297 201.259 319.297 206.211V207.066C319.297 212.017 315.282 216.032 310.331 216.032Z" fill="#E0E0E0"/>
<path d="M136.141 229.571H107.228C103.191 229.571 99.9199 226.3 99.9199 222.263V193.352C99.9199 189.316 103.191 186.044 107.228 186.044H136.141C140.177 186.044 143.448 189.317 143.448 193.352V222.263C143.448 226.3 140.176 229.571 136.141 229.571Z" fill="#03736D"/>
<path d="M106.65 208.434L111.035 204.049L119.491 211.566L133.612 197.391L137.684 201.775L118.865 220.022L106.65 208.434Z" fill="white"/>
<path d="M310.331 283.555H169.529C164.576 283.555 160.562 279.542 160.562 274.589V273.734C160.562 268.782 164.576 264.768 169.529 264.768H310.331C315.283 264.768 319.297 268.782 319.297 273.734V274.589C319.297 279.542 315.282 283.555 310.331 283.555Z" fill="#E0E0E0"/>
<path d="M136.141 297.096H107.228C103.191 297.096 99.9199 293.823 99.9199 289.788V260.875C99.9199 256.839 103.191 253.567 107.228 253.567H136.141C140.177 253.567 143.448 256.839 143.448 260.875V289.786C143.448 293.824 140.176 297.096 136.141 297.096Z" fill="#03736D"/>
<path d="M106.65 275.957L111.035 271.574L119.491 279.089L133.612 264.915L137.684 269.3L118.865 287.546L106.65 275.957Z" fill="white"/>
<path d="M310.331 351.08H169.529C164.576 351.08 160.562 347.066 160.562 342.114V341.259C160.562 336.308 164.576 332.292 169.529 332.292H310.331C315.283 332.292 319.297 336.306 319.297 341.259V342.114C319.297 347.066 315.282 351.08 310.331 351.08Z" fill="#E0E0E0"/>
<path d="M136.141 364.62H107.228C103.191 364.62 99.9199 361.347 99.9199 357.312V328.4C99.9199 324.363 103.191 321.092 107.228 321.092H136.141C140.177 321.092 143.448 324.363 143.448 328.4V357.312C143.448 361.347 140.176 364.62 136.141 364.62Z" fill="#03736D"/>
<path d="M106.65 343.482L111.035 339.097L119.491 346.614L133.612 332.439L137.684 336.823L118.865 355.071L106.65 343.482Z" fill="white"/>
<path d="M424.356 569.465L423.136 601.577C423.136 601.577 455.365 613.602 455.717 619.557L393.369 619.427L393.219 569.316L424.356 569.465Z" fill="#263238"/>
<path d="M403.843 598.836C402.636 599.163 401.799 600.519 402.077 601.738C402.354 602.958 403.725 603.82 404.938 603.514C406.152 603.209 407.206 601.613 406.793 600.432C406.381 599.252 404.717 598.327 403.613 598.915" fill="#E0E0E0"/>
<path d="M393.354 619.429L393.536 614.377L453.244 616.391C453.244 616.391 456.018 617.604 455.699 619.558L393.354 619.429Z" fill="#455A64"/>
<path d="M424.139 601.262C424.128 601.567 422.606 601.702 421.105 602.677C419.579 603.615 418.804 604.932 418.525 604.809C418.245 604.75 418.703 602.931 420.539 601.781C422.365 600.616 424.206 600.983 424.139 601.262Z" fill="white"/>
<path d="M430.674 603.98C430.743 604.276 429.424 604.791 428.387 606.075C427.314 607.33 427.049 608.722 426.746 608.708C426.46 608.756 426.252 606.973 427.572 605.398C428.877 603.815 430.669 603.69 430.674 603.98Z" fill="white"/>
<path d="M434.369 611.816C434.092 611.88 433.672 610.358 434.458 608.693C435.231 607.02 436.668 606.366 436.796 606.62C436.968 606.871 436.041 607.764 435.418 609.141C434.762 610.503 434.672 611.786 434.369 611.816Z" fill="white"/>
<path d="M423.595 593.912C423.467 594.189 422.07 593.765 420.351 593.879C418.627 593.957 417.287 594.532 417.129 594.27C416.953 594.05 418.263 592.926 420.292 592.821C422.318 592.701 423.744 593.673 423.595 593.912Z" fill="white"/>
<path d="M348.022 565.1L344.646 603.831L350.809 635.234C351.253 637.497 349.689 639.665 347.4 639.954C346.119 640.116 344.847 639.656 343.974 638.703C338.417 632.646 318.088 610.257 318.494 607.437C318.965 604.17 319.343 566.346 319.343 566.346L348.022 565.1Z" fill="#263238"/>
<path d="M347.406 639.954L318.668 604.82L318.563 606.465C318.472 607.885 318.882 609.293 319.734 610.436C322.012 613.489 328.485 621.781 343.865 638.7C344.757 639.683 346.091 640.156 347.406 639.954Z" fill="#455A64"/>
<g opacity="0.6">
<path d="M327.436 592.814C328.365 593.548 328.588 595.039 327.893 595.997C327.196 596.956 325.682 597.195 324.741 596.476C323.799 595.76 323.476 593.978 324.274 593.103C325.074 592.228 326.866 592.043 327.608 592.966" fill="white"/>
</g>
<path d="M339.626 622.432C339.838 622.554 340.844 620.577 343.222 619.633C345.57 618.618 347.679 619.302 347.743 619.066C347.783 618.973 347.311 618.639 346.412 618.453C345.522 618.262 344.2 618.305 342.895 618.844C341.592 619.387 340.629 620.292 340.133 621.057C339.629 621.826 339.531 622.395 339.626 622.432Z" fill="white"/>
<path d="M342.059 627.806C342.233 627.987 343.56 626.805 345.602 626.358C347.636 625.866 349.344 626.35 349.423 626.112C349.548 625.922 347.733 624.979 345.41 625.525C343.085 626.048 341.864 627.688 342.059 627.806Z" fill="white"/>
<path d="M334.904 615.444C335.075 615.639 337.105 613.813 340.222 612.84C343.324 611.819 346.04 612.126 346.064 611.867C346.14 611.664 343.292 610.94 339.962 612.027C336.622 613.079 334.725 615.322 334.904 615.444Z" fill="white"/>
<path d="M334.949 603.584C335.037 603.823 337.238 603.065 340.034 603.143C342.832 603.183 344.998 604.033 345.096 603.797C345.214 603.614 343.058 602.338 340.051 602.288C337.047 602.213 334.838 603.396 334.949 603.584Z" fill="white"/>
<path d="M335.652 592.19C335.757 592.421 337.996 591.266 340.933 591.589C343.877 591.848 345.846 593.418 345.995 593.211C346.065 593.134 345.672 592.621 344.81 592.046C343.957 591.471 342.602 590.9 341.019 590.739C339.434 590.585 337.993 590.881 337.043 591.278C336.086 591.673 335.601 592.1 335.652 592.19Z" fill="white"/>
<path d="M341.007 589.418C341.056 589.423 341.177 588.906 341.153 587.955C341.128 587.009 340.944 585.609 340.233 584.036C339.86 583.288 339.483 582.334 338.432 581.753C337.91 581.46 337.101 581.51 336.609 581.994C336.12 582.465 335.935 583.092 335.882 583.706C335.764 586.171 337.725 588.689 340.473 589.221C343.235 589.704 345.857 588.278 347.094 586.222C347.37 585.688 347.581 585.023 347.322 584.348C347.069 583.668 346.296 583.354 345.734 583.413C344.571 583.511 343.801 584.129 343.093 584.578C341.686 585.567 340.788 586.645 340.253 587.423C339.715 588.206 339.527 588.701 339.57 588.724C339.699 588.835 340.672 586.881 343.429 585.08C344.12 584.669 344.922 584.144 345.756 584.122C346.162 584.107 346.501 584.291 346.623 584.625C346.751 584.948 346.639 585.43 346.401 585.848C345.359 587.528 342.959 588.827 340.631 588.381C338.311 587.958 336.592 585.742 336.667 583.756C336.693 583.278 336.851 582.806 337.124 582.54C337.392 582.277 337.779 582.226 338.128 582.393C338.863 582.746 339.317 583.592 339.688 584.298C341.142 587.249 340.832 589.445 341.007 589.418Z" fill="white"/>
<path d="M454.385 298.772C454.385 298.772 459.113 317.074 457.397 339.372C456.734 347.999 427.617 586.693 427.617 586.693H388.305L399.355 362.355L396.137 363.053C396.137 363.053 374.677 458.734 372.926 474.225C371.351 488.148 353.254 589.309 353.254 589.309L317.311 589.722L328.79 455.916L342.148 327.527L347.175 290.154L454.385 298.772Z" fill="#263238"/>
<path d="M397.922 347.134C397.905 347.154 397.99 347.245 398.177 347.403C398.369 347.546 398.682 347.74 399.135 347.855C400.024 348.11 401.506 347.98 402.863 346.972C404.276 345.98 405.122 344.005 405.408 341.891C405.689 339.755 405.732 337.458 405.891 335.027C406.156 330.171 406.352 325.775 406.456 322.589C406.56 319.404 406.571 317.432 406.466 317.426C406.361 317.42 406.157 319.383 405.915 322.559C405.674 325.737 405.391 330.13 405.128 334.984C404.97 337.404 404.943 339.746 404.709 341.793C404.469 343.826 403.739 345.618 402.532 346.542C401.346 347.504 400.02 347.709 399.196 347.562C398.347 347.431 397.965 347.064 397.922 347.134Z" fill="#455A64"/>
<path d="M340.09 324.054C340.079 324.101 340.466 324.256 341.191 324.451C341.916 324.647 342.989 324.857 344.333 324.978C347.005 325.233 350.84 324.981 354.694 323.431C358.552 321.883 361.495 319.411 363.25 317.379C364.136 316.362 364.764 315.469 365.153 314.824C365.542 314.182 365.715 313.802 365.673 313.776C365.562 313.704 364.688 315.113 362.851 317.011C361.035 318.905 358.136 321.223 354.409 322.72C350.684 324.216 346.988 324.549 344.364 324.436C341.729 324.338 340.12 323.924 340.09 324.054Z" fill="#455A64"/>
<path d="M438.715 314.069C438.635 314.078 438.701 315.615 439.311 318.015C439.914 320.41 441.17 323.644 443.265 326.807C445.37 329.965 447.866 332.376 449.842 333.859C451.819 335.353 453.21 336.008 453.248 335.937C453.426 335.735 447.998 332.64 443.903 326.384C439.722 320.187 438.969 313.984 438.715 314.069Z" fill="#455A64"/>
<path d="M558.797 246.532L567.818 249.385L584.208 240.327L593.508 266.221L571.205 271.529L554.311 269.67L558.797 246.532Z" fill="#AE7461"/>
<path d="M453.873 142.565C453.873 142.565 463.09 148.098 470.723 166.898C485.719 203.83 495.137 223.765 495.137 223.765L563.979 245.509L558.48 273.105C558.48 273.105 488.698 263.384 479.352 259.879C466.569 255.086 457.087 229.871 457.087 229.871L453.873 142.565Z" fill="#E0E0E0"/>
<path d="M434.949 59.7113C438.5 59.9346 441.992 57.1568 442.572 53.6451C443.152 50.1334 440.739 46.3814 437.304 45.4512C439.386 43.0887 439.749 39.3694 438.163 36.6485C436.577 33.9276 433.161 32.4114 430.08 33.0614C429.793 29.965 427.789 27.0848 424.984 25.7393C422.18 24.3952 418.679 24.637 416.084 26.3524C412.506 23.586 406.97 23.7552 403.568 26.7364C400.524 26.3324 397.317 28.1046 396.04 30.8966C394.762 33.6886 395.519 37.2743 397.815 39.3125" fill="#263238"/>
<path d="M402.368 33.9747L403.963 33.8951C420.004 33.0972 433.968 44.7502 436.052 60.6758C437.99 75.4878 439.94 91.8757 440.239 99.8591C440.856 116.388 424.461 119.779 424.461 119.779L426.845 139.556L386.692 140.305L379.569 68.5028C377.236 51.4251 385.232 35.8323 402.368 33.9747Z" fill="#AE7461"/>
<path d="M424.591 119.748C424.591 119.748 414.073 120.907 402.631 114.488C402.631 114.488 408.313 126.124 424.722 123.817L424.591 119.748Z" fill="#6F4439"/>
<path d="M430.106 75.9155C430.212 77.1586 429.247 78.2737 427.95 78.4088C426.655 78.5425 425.519 77.6464 425.412 76.4033C425.307 75.1602 426.271 74.0437 427.566 73.9086C428.863 73.7735 430.001 74.6724 430.106 75.9155Z" fill="#263238"/>
<path d="M432.896 68.9361C432.619 69.259 430.767 68.0244 428.228 68.1567C425.691 68.2534 423.893 69.6515 423.603 69.3543C423.46 69.2234 423.731 68.6531 424.512 68.0216C425.281 67.3943 426.615 66.7543 428.197 66.6818C429.778 66.6121 431.137 67.1283 431.932 67.6859C432.741 68.2477 433.033 68.791 432.896 68.9361Z" fill="#263238"/>
<path d="M406.961 76.557C407.068 77.8001 406.101 78.9152 404.805 79.0489C403.511 79.184 402.374 78.2866 402.268 77.0435C402.162 75.8004 403.128 74.6838 404.422 74.5487C405.718 74.4136 406.855 75.3125 406.961 76.557Z" fill="#263238"/>
<path d="M407.981 70.6464C407.704 70.9693 405.849 69.7347 403.312 69.8684C400.776 69.9651 398.977 71.3633 398.685 71.066C398.543 70.9351 398.81 70.3648 399.595 69.7347C400.365 69.1075 401.697 68.4674 403.279 68.3949C404.861 68.3252 406.22 68.8415 407.014 69.399C407.823 69.958 408.116 70.5013 407.981 70.6464Z" fill="#263238"/>
<path d="M418.113 89.0162C418.093 88.8725 419.658 88.5212 422.199 88.0675C422.843 87.9693 423.451 87.8086 423.539 87.3606C423.668 86.8855 423.363 86.2 423.011 85.4604C422.324 83.9228 421.605 82.3099 420.849 80.6202C417.838 73.7249 415.624 68.0427 415.903 67.9233C416.181 67.8052 418.848 73.2968 421.859 80.1936C422.586 81.8946 423.282 83.5161 423.943 85.0678C424.225 85.7918 424.688 86.6068 424.405 87.5953C424.254 88.0888 423.796 88.4643 423.387 88.5966C422.977 88.7445 422.613 88.7687 422.293 88.8042C419.724 89.0688 418.13 89.1584 418.113 89.0162Z" fill="#263238"/>
<path d="M409.683 60.7708C409.38 61.4308 407.17 60.8419 404.487 60.8874C401.803 60.8732 399.572 61.4905 399.293 60.8334C399.172 60.5205 399.619 59.9189 400.559 59.3556C401.49 58.7924 402.927 58.3216 404.536 58.3116C406.144 58.3031 407.564 58.7568 408.474 59.3087C409.393 59.8605 409.817 60.4565 409.683 60.7708Z" fill="#263238"/>
<path d="M432.501 58.4617C431.994 59.0648 429.869 58.5698 427.349 58.668C424.826 58.6921 422.715 59.2867 422.195 58.7078C421.964 58.4262 422.271 57.8316 423.177 57.2385C424.069 56.6497 425.584 56.1277 427.316 56.0864C429.05 56.0466 430.576 56.4947 431.482 57.0408C432.4 57.5898 432.723 58.1687 432.501 58.4617Z" fill="#263238"/>
<path d="M434.089 53.1787C434.089 53.1787 429.217 43.0504 424.11 40.8843C417.925 38.2615 415.655 45.0189 409.82 43.6962C403.984 42.3734 398.08 39.8559 392.419 44.5965C386.223 49.7851 389.409 53.0522 389.375 60.4013C389.239 90.1973 384.231 98.8706 381.991 84.9504C381.746 83.4257 377.429 82.4172 376.476 75.9699C375.242 67.6095 374.411 57.4244 375.99 51.3696C377.321 46.2649 380.014 42.6508 384.96 38.5673C392.77 32.1214 403.906 31.4387 411.509 31.8241C419.114 32.2096 434.134 40.1916 434.089 53.1787Z" fill="#263238"/>
<path d="M383.018 84.4494C382.788 81.9049 380.491 80.0004 377.962 80.3688C374.895 80.814 371.554 82.7341 372.073 89.0904C372.995 100.367 384.126 97.1151 384.119 96.7894C384.115 96.569 383.446 89.1644 383.018 84.4494Z" fill="#AE7461"/>
<path d="M381.323 92.7493C381.271 92.718 381.138 92.9029 380.818 93.0821C380.507 93.2571 379.959 93.405 379.352 93.2315C378.125 92.8916 376.968 91.0824 376.746 89.0541C376.634 88.0301 376.769 87.0359 377.066 86.1967C377.344 85.3433 377.829 84.7232 378.42 84.5682C379.006 84.3804 379.46 84.7061 379.624 85.0119C379.8 85.3149 379.747 85.5453 379.809 85.5609C379.843 85.5865 380.035 85.3519 379.907 84.8939C379.841 84.6734 379.688 84.4188 379.405 84.224C379.116 84.0263 378.709 83.9466 378.295 84.0263C377.43 84.1571 376.714 85.0219 376.386 85.9421C376.012 86.8709 375.836 87.9903 375.963 89.1409C376.22 91.4081 377.557 93.4391 379.225 93.7762C380.036 93.9185 380.678 93.6255 380.998 93.331C381.325 93.0224 381.363 92.7664 381.323 92.7493Z" fill="#6F4439"/>
<path d="M382.156 62.5573C383.672 63.4861 385.274 64.4419 387.049 64.5287C388.825 64.6154 390.795 63.5003 391.007 61.7352C391.102 60.9416 390.865 60.0398 391.351 59.4069C391.932 58.6517 393.081 58.8223 394.032 58.875C397.334 59.0599 400.989 55.2424 401.667 52.0066C402.566 53.2184 404.42 53.5072 405.647 52.6268C406.875 51.7463 407.313 51.2571 408.248 50.0723C409.184 48.8875 410.526 47.8023 412.029 47.9402C412.87 48.017 413.676 48.475 414.512 48.3598C415.989 48.1536 416.627 46.3814 416.778 44.8979C416.929 43.4144 417.018 41.6892 418.235 40.8258C419.361 40.0265 420.891 40.3806 422.267 40.5129C423.642 40.6466 425.389 40.2384 425.672 38.8858C425.82 38.1761 425.483 37.4549 425.064 36.8633C423.169 34.1822 419.273 33.1425 416.293 34.5235C415.003 30.8469 411.369 28.116 407.478 27.8998C403.586 27.6836 399.672 29.9949 397.984 33.5066C395.489 31.4599 391.976 30.7231 388.868 31.5964C385.762 32.4697 383.146 34.9275 382.082 37.9741C379.299 37.3881 376.221 38.6056 374.591 40.9368C372.962 43.2679 372.878 46.5777 374.386 48.9899C372.413 50.2501 370.776 52.3537 370.85 54.6934C370.924 57.0331 373.316 59.2491 375.542 58.5222C374.722 60.3883 375.585 62.8205 377.4 63.7507C379.215 64.6794 381.694 63.9597 382.728 62.2032" fill="#263238"/>
<path d="M417.299 37.805C417.308 37.805 417.31 37.8747 417.306 38.0127C417.297 38.1492 417.3 38.354 417.263 38.62C417.185 39.1462 417.014 39.9299 416.552 40.8374C416.085 41.732 415.344 42.7746 414.181 43.6322C413.042 44.497 411.453 45.1911 409.619 45.1811L409.799 44.9208C410.197 45.8695 410.159 47.033 409.726 48.0499C409.321 49.0825 408.648 50.0127 407.931 50.923C407.563 51.3611 407.25 51.8703 406.732 52.2813C406.227 52.6767 405.613 52.9214 404.976 53.0337C403.71 53.2599 402.253 52.937 401.276 51.9115L401.693 51.7693C401.517 54.0279 400.352 56.3377 398.392 57.8084C397.356 58.6376 396.052 59.1781 394.743 59.208C393.435 59.2606 392.202 58.9377 391.048 58.5878L391.344 58.4399C390.807 59.8736 389.933 61.1181 388.844 62.0583C387.776 62.9956 386.319 63.5873 384.962 63.3256C382.268 62.8946 380.391 60.7654 379.93 58.6945L380.192 58.8012C378.905 59.5877 377.489 59.7271 376.339 59.5636C375.174 59.4099 374.242 58.9534 373.572 58.4911C372.9 58.0189 372.49 57.5211 372.242 57.1741C372.012 56.8128 371.915 56.6108 371.927 56.6037C371.981 56.5539 372.343 57.4429 373.679 58.3333C374.345 58.7571 375.253 59.171 376.373 59.2919C377.478 59.4242 378.818 59.2606 380.005 58.5082L380.212 58.3773L380.269 58.6149C380.724 60.5435 382.529 62.5277 385.025 62.9003C386.254 63.125 387.534 62.5974 388.545 61.7098C389.562 60.8237 390.394 59.6247 390.892 58.2778L390.97 58.0644L391.186 58.1299C392.321 58.4712 393.512 58.7713 394.719 58.7201C395.93 58.686 397.1 58.2052 398.087 57.4187C399.939 56.0277 401.033 53.8658 401.211 51.7266L401.255 51.189L401.627 51.5858C402.452 52.4634 403.757 52.7763 404.895 52.5757C405.466 52.4776 406.012 52.2628 406.452 51.9215C406.882 51.5943 407.21 51.0894 407.583 50.6471C408.298 49.7524 408.954 48.8564 409.341 47.8949C409.752 46.9434 409.789 45.9207 409.446 45.0602L409.344 44.7971L409.628 44.8014C411.356 44.8312 412.887 44.1997 414.002 43.3862C415.141 42.5826 415.883 41.5912 416.364 40.735C417.309 38.977 417.216 37.7823 417.299 37.805Z" fill="#455A64"/>
<path d="M418.002 97.7298C417.918 97.3116 415.168 98.0299 412.598 96.1923C410.023 94.3603 409.559 91.3493 409.169 91.4289C408.987 91.436 408.808 92.2226 409.099 93.4671C409.377 94.6903 410.233 96.3601 411.806 97.4851C413.381 98.6045 415.139 98.8008 416.291 98.5974C417.467 98.3997 418.067 97.9132 418.002 97.7298Z" fill="#263238"/>
<path d="M485.04 202.162C484.789 201.27 470.083 161.242 465.391 152.479C459.779 141.998 447.979 137.361 440.656 136.91C433.331 136.459 354.953 142.705 354.953 142.705C354.953 142.705 331.54 147.949 328.556 168.084C325.121 191.264 322.111 244.326 322.111 244.326L357.787 226.042L362.41 214.403L436.221 230.872L454.244 204.213L485.04 202.162Z" fill="#E0E0E0"/>
<path d="M349.77 144.987L380.385 131.489L383.816 118.286L419.551 135.18L427.037 126.911L430.17 136.231L438.002 138.791L456.304 170.981L456.247 239.574L459.951 298.742L455.983 308.082L423.195 312.92C419.61 313.449 415.967 313.453 412.382 312.931L345.829 302.05L344.113 282.502L351.222 228.621L349.77 144.987Z" fill="#E0E0E0"/>
<path d="M383.823 118.286C383.823 118.286 387.818 119.442 398.08 124.918C408.133 130.282 419.559 135.182 419.559 135.182L418.69 151.318L380.658 132.225" fill="#E0E0E0"/>
<path d="M427.04 126.911L419.555 135.181L423.554 152.479L430.222 136.845" fill="#E0E0E0"/>
<g opacity="0.3">
<path d="M419.696 136.968C420.027 137.215 422.105 156.93 422.105 156.93L383.984 133.897L418.687 151.319L419.696 136.968Z" fill="black"/>
</g>
<path d="M419.438 210.545C418.867 195.466 421.243 156.996 421.243 156.996L426.213 156.196C426.213 156.196 435.495 193.592 438.961 239.418C440.363 257.963 440.363 279.443 440.363 279.443L430.382 300.868L419.35 279.584C419.35 279.584 420.134 228.869 419.438 210.545Z" fill="#455A64"/>
<path d="M347.496 147.32C347.438 147.394 348.529 148.244 350.072 149.835C351.617 151.419 353.555 153.813 355.16 156.785C356.754 159.765 357.683 162.702 358.152 164.864C358.627 167.029 358.734 168.407 358.828 168.4C358.865 168.397 358.865 168.052 358.837 167.426C358.817 166.799 358.713 165.895 358.519 164.792C358.14 162.583 357.251 159.569 355.626 156.535C353.994 153.508 351.97 151.105 350.337 149.569C349.522 148.798 348.825 148.213 348.314 147.85C347.808 147.481 347.519 147.291 347.496 147.32Z" fill="#263238"/>
<path d="M419.435 142.898L422.839 141.57L426.066 147.104L426.649 156.197L422.103 156.929L418.686 151.318L419.435 142.898Z" fill="#455A64"/>
<path d="M456.253 169.946C456.106 169.946 455.988 189.628 455.988 213.901C455.988 238.183 456.106 257.86 456.253 257.86C456.399 257.86 456.517 238.183 456.517 213.901C456.517 189.626 456.398 169.946 456.253 169.946Z" fill="#263238"/>
<path d="M419.193 135.042C419.128 135.087 419.927 136.309 421.135 138.33C422.342 140.351 423.939 143.185 425.461 146.434C425.585 146.702 425.709 146.966 425.823 147.214L426.06 147.726L426.302 147.218C427.77 144.13 428.828 141.259 429.484 139.159C429.814 138.11 430.05 137.256 430.195 136.663C430.34 136.069 430.4 135.737 430.367 135.727C430.294 135.706 429.886 136.986 429.141 139.043C428.398 141.101 427.289 143.93 425.825 146.991L426.305 146.995C426.19 146.746 426.066 146.479 425.942 146.21C424.409 142.937 422.748 140.111 421.453 138.132C420.806 137.143 420.254 136.36 419.857 135.83C419.461 135.301 419.223 135.022 419.193 135.042Z" fill="#263238"/>
<path d="M380.391 131.489C380.384 131.505 380.563 131.613 380.913 131.802C381.317 132.013 381.827 132.28 382.456 132.609C383.86 133.337 385.786 134.334 388.138 135.551C392.931 138.045 399.495 141.596 406.769 145.482C411.2 147.843 415.395 150.029 419.045 151.855L419.382 152.023L419.386 151.651C419.433 146.916 419.472 142.928 419.5 140.043C419.497 138.688 419.496 137.594 419.495 136.77C419.485 136.014 419.468 135.608 419.442 135.608C419.416 135.608 419.385 136.012 419.348 136.768C419.317 137.59 419.276 138.682 419.224 140.037C419.149 142.922 419.044 146.909 418.92 151.642L419.26 151.437C415.632 149.578 411.45 147.375 407.021 145.016C399.75 141.13 393.152 137.628 388.312 135.219C385.894 134.01 383.921 133.061 382.55 132.424C381.904 132.132 381.378 131.895 380.963 131.706C380.594 131.549 380.399 131.474 380.391 131.489Z" fill="#263238"/>
<path d="M451.649 143.925C451.572 143.972 452.171 144.985 452.941 146.71C453.713 148.431 454.598 150.896 455.122 153.723C455.639 156.554 455.689 159.172 455.579 161.055C455.472 162.941 455.275 164.101 455.361 164.118C455.397 164.125 455.479 163.842 455.599 163.32C455.726 162.801 455.849 162.035 455.95 161.085C456.158 159.185 456.168 156.513 455.642 153.628C455.107 150.747 454.147 148.252 453.278 146.549C452.844 145.696 452.456 145.026 452.154 144.585C451.86 144.141 451.681 143.907 451.649 143.925Z" fill="#263238"/>
<path d="M422.931 157.517C423.01 157.64 423.874 157.235 424.862 156.611C425.85 155.986 426.588 155.38 426.51 155.257C426.432 155.133 425.567 155.538 424.578 156.163C423.591 156.787 422.853 157.393 422.931 157.517Z" fill="#263238"/>
<path d="M421.295 155.297C421.429 155.355 422.464 153.294 423.607 150.694C424.749 148.093 425.567 145.937 425.433 145.878C425.299 145.82 424.265 147.879 423.122 150.481C421.979 153.081 421.163 155.237 421.295 155.297Z" fill="#263238"/>
<path d="M343.502 148.37C343.502 148.37 331.707 156.86 330.232 161.55C328.757 166.241 322.49 242.469 321.385 251.537C320.28 260.607 319.173 277.564 326.177 283.093C333.18 288.623 348.294 292.769 348.294 292.769L362.255 263.924L354.859 248.442L362.255 190.548L343.502 148.37Z" fill="#E0E0E0"/>
<path d="M344.93 291.753C344.931 291.733 345.189 291.715 345.685 291.698C346.18 291.681 346.912 291.689 347.855 291.56C349.704 291.325 352.549 290.84 355.402 288.83C358.275 286.89 360.915 283.43 362.601 278.978C364.294 274.539 365.28 269.187 365.331 263.462L365.397 263.66C362.042 259.014 358.378 253.944 354.563 248.663L354.478 248.545L354.496 248.4C354.546 248.016 354.599 247.599 354.651 247.181C356.736 230.945 358.622 216.251 359.998 205.53C360.682 200.256 361.239 195.962 361.635 192.911C361.823 191.474 361.973 190.331 362.084 189.482C362.178 188.701 362.231 188.287 362.258 188.287C362.271 188.287 362.275 188.391 362.272 188.594C362.266 188.796 362.261 189.102 362.234 189.497C362.157 190.352 362.053 191.5 361.922 192.945C361.623 195.936 361.141 200.257 360.518 205.595C359.272 216.27 357.459 231.005 355.387 247.275C355.334 247.691 355.28 248.108 355.231 248.494L355.165 248.23C358.968 253.52 362.619 258.599 365.964 263.253L366.031 263.347L366.03 263.451C365.952 269.298 364.92 274.677 363.152 279.194C361.397 283.711 358.638 287.244 355.647 289.189C354.173 290.189 352.681 290.81 351.347 291.179C351.014 291.271 350.691 291.359 350.381 291.445C350.067 291.499 349.763 291.551 349.471 291.601C348.892 291.719 348.36 291.769 347.88 291.79C346.922 291.885 346.184 291.839 345.686 291.817C345.186 291.794 344.928 291.773 344.93 291.753Z" fill="#263238"/>
<path d="M330.677 253.789C330.629 253.726 331.728 252.759 333.774 251.587C335.812 250.412 338.849 249.121 342.391 248.427C345.939 247.744 349.239 247.804 351.567 248.129C353.902 248.451 355.283 248.934 355.262 249.011C355.244 249.269 349.507 247.75 342.531 249.153C335.542 250.463 330.79 254.021 330.677 253.789Z" fill="#263238"/>
<path d="M423.231 177.897C423.273 177.891 423.904 180.427 424.981 184.895C427.386 181.42 430.481 178.464 434.074 176.196L434.028 176.204C434.028 176.204 452.239 158.114 458.057 139.09C462.28 125.28 461.229 109.986 461.229 109.986C461.058 109.256 459.638 102.77 458.478 97.4622C457.526 93.1128 460.185 88.8302 464.484 87.6724C473.526 85.236 498.007 80.4713 503.622 96.9132C512.001 121.447 498.458 147.946 498.603 155.528C498.63 156.96 498.652 158.121 498.671 159.064C505.848 157.404 511.415 156.208 511.442 156.328L511.433 156.333L558.573 145.334C558.573 145.334 574.148 140.621 579.491 156.586C584.833 172.552 566.707 177.861 566.707 177.861C566.707 177.861 575.227 177.486 577.541 192.006C579.855 206.527 564.282 211.24 564.282 211.24C564.282 211.24 573.822 210.626 576.29 223.498C578.692 236.027 563.12 243.578 562.288 243.972C564.595 243.478 566.029 243.204 566.045 243.266C566.057 243.322 564.984 243.626 563.187 244.089C570.448 245.017 571.501 253.664 571.501 253.664C576.18 271.398 562.527 275.125 562.527 275.125L476.463 295.224C467.802 297.246 458.852 296.868 450.517 294.282C451.342 297.949 451.789 300.014 451.753 300.025L391.64 314.063C391.511 314.093 385.019 286.776 377.144 253.056C369.266 219.323 362.988 191.962 363.117 191.932L423.231 177.897Z" fill="#03736D"/>
<g opacity="0.3">
<path d="M423.231 177.897C423.273 177.891 423.904 180.427 424.981 184.895C427.386 181.42 430.481 178.464 434.074 176.196L434.028 176.204C434.028 176.204 452.239 158.114 458.057 139.09C462.28 125.28 461.229 109.986 461.229 109.986C461.058 109.256 459.638 102.77 458.478 97.4622C457.526 93.1128 460.185 88.8302 464.484 87.6724C473.526 85.236 498.007 80.4713 503.622 96.9132C512.001 121.447 498.458 147.946 498.603 155.528C498.63 156.96 498.652 158.121 498.671 159.064C505.848 157.404 511.415 156.208 511.442 156.328L511.433 156.333L558.573 145.334C558.573 145.334 574.148 140.621 579.491 156.586C584.833 172.552 566.707 177.861 566.707 177.861C566.707 177.861 575.227 177.486 577.541 192.006C579.855 206.527 564.282 211.24 564.282 211.24C564.282 211.24 573.822 210.626 576.29 223.498C578.692 236.027 563.12 243.578 562.288 243.972C564.595 243.478 566.029 243.204 566.045 243.266C566.057 243.322 564.984 243.626 563.187 244.089C570.448 245.017 571.501 253.664 571.501 253.664C576.18 271.398 562.527 275.125 562.527 275.125L476.463 295.224C467.802 297.246 458.852 296.868 450.517 294.282C451.342 297.949 451.789 300.014 451.753 300.025L391.64 314.063C391.511 314.093 385.019 286.776 377.144 253.056C369.266 219.323 362.988 191.962 363.117 191.932L423.231 177.897Z" fill="black"/>
</g>
<path d="M434.854 195.024L433.688 202.838L452.904 285.123C464.286 292.682 478.283 295.206 491.587 292.099L577.651 271.998C577.651 271.998 591.304 268.272 586.625 250.537C586.625 250.537 585.501 241.117 577.373 240.864C577.373 240.864 593.883 233.243 591.414 220.371C588.946 207.499 579.407 208.114 579.407 208.114C579.407 208.114 594.981 203.4 592.665 188.88C590.35 174.358 581.832 174.735 581.832 174.735C581.832 174.735 599.958 169.427 594.615 153.46C589.273 137.494 573.697 142.208 573.697 142.208L512.482 156.491L458.823 169.023C446.258 171.957 436.758 182.263 434.854 195.024Z" fill="#03736D"/>
<path d="M449.152 173.079C449.152 173.079 467.364 154.989 473.181 135.965C477.404 122.156 476.353 106.862 476.353 106.862C476.182 106.132 474.763 99.6467 473.602 94.3386C472.65 89.9892 475.309 85.7066 479.608 84.5488C488.65 82.1124 504.967 86.6055 510.582 103.049C518.961 127.582 513.582 144.822 513.728 152.405C513.875 159.987 513.875 159.987 513.875 159.987L449.152 173.079Z" fill="#03736D"/>
<path d="M438.353 174.782L378.24 188.819L406.76 310.951L466.873 296.914L438.353 174.782Z" fill="#03736D"/>
<path d="M466.877 296.903C467.006 296.873 460.727 269.506 452.851 235.785C444.973 202.052 438.484 174.741 438.354 174.77C438.224 174.8 444.502 202.161 452.38 235.894C460.256 269.615 466.747 296.933 466.877 296.903Z" fill="#263238"/>
<path d="M406.763 310.941C406.893 310.911 400.613 283.543 392.738 249.823C384.86 216.09 378.37 188.779 378.24 188.809C378.111 188.839 384.389 216.2 392.267 249.933C400.143 283.654 406.634 310.971 406.763 310.941Z" fill="#263238"/>
<path d="M423.664 207.683C425.115 213.895 421.254 220.107 415.043 221.557C408.831 223.008 402.619 219.148 401.169 212.937C399.718 206.724 403.578 200.513 409.791 199.062C416 197.611 422.213 201.471 423.664 207.683Z" fill="white"/>
<path d="M526.569 153.202C526.539 153.071 519.959 154.497 511.876 156.385C503.79 158.274 497.262 159.91 497.293 160.039C497.323 160.169 503.901 158.745 511.987 156.856C520.069 154.967 526.598 153.332 526.569 153.202Z" fill="#263238"/>
<path d="M580.761 208.41C580.731 208.28 576.517 209.152 571.351 210.36C566.182 211.567 562.019 212.65 562.049 212.78C562.079 212.91 566.292 212.038 571.46 210.83C576.628 209.624 580.792 208.541 580.761 208.41Z" fill="#263238"/>
<path d="M582.948 174.163C582.918 174.032 576.947 175.316 569.613 177.029C562.277 178.741 556.358 180.236 556.389 180.365C556.419 180.495 562.388 179.212 569.724 177.499C577.056 175.786 582.978 174.292 582.948 174.163Z" fill="#263238"/>
<path d="M581.172 240.141C581.142 240.012 575.172 241.295 567.838 243.007C560.502 244.72 554.582 246.214 554.613 246.344C554.643 246.473 560.613 245.19 567.949 243.478C575.281 241.765 581.202 240.272 581.172 240.141Z" fill="#263238"/>
<g opacity="0.3">
<path d="M480.122 90.5965C478.252 92.3431 478.036 95.2959 478.745 97.7536C479.455 100.211 480.919 102.37 482.029 104.675C484.489 109.768 485.207 115.683 484.041 121.218C483.684 122.907 483.214 124.864 484.298 126.21C485.833 128.117 488.932 127.058 490.871 125.563C498.214 119.898 501.744 109.717 499.483 100.722C498.53 96.9301 496.553 93.2876 493.415 90.955C490.279 88.6238 485.453 86.5088 480.122 90.5965Z" fill="white"/>
</g>
<g opacity="0.3">
<path d="M579.326 144.336C577.217 143.931 575.052 144.464 572.97 144.992C560.862 148.067 548.752 151.142 536.644 154.218C532.683 155.224 525.251 156.12 525.176 160.162C524.375 162.371 526.056 164.863 528.222 165.767C530.39 166.672 532.849 166.398 535.169 166.026C540.028 165.248 544.822 164.119 549.607 162.975C559.223 160.678 568.869 158.309 577.999 154.514C579.355 153.951 580.721 153.341 581.818 152.365C582.915 151.389 583.715 149.977 583.617 148.513C583.476 146.369 581.437 144.741 579.326 144.336Z" fill="white"/>
</g>
<path d="M424.991 181.544C424.962 181.414 416.536 183.27 406.177 185.69C395.814 188.111 387.441 190.177 387.471 190.307C387.501 190.436 395.924 188.581 406.287 186.161C416.647 183.741 425.021 181.673 424.991 181.544Z" fill="white"/>
<path d="M587.157 195.374C587.19 195.382 587.272 195.129 587.394 194.663C587.528 194.199 587.641 193.506 587.706 192.644C587.78 191.783 587.746 190.746 587.596 189.609C587.423 188.477 587.12 187.247 586.635 186.012C586.133 184.785 585.503 183.685 584.846 182.747C584.167 181.822 583.477 181.05 582.827 180.477C582.184 179.899 581.626 179.475 581.209 179.232C580.798 178.979 580.565 178.854 580.546 178.882C580.495 178.958 581.394 179.529 582.591 180.724C583.196 181.314 583.842 182.089 584.48 183.003C585.099 183.93 585.699 185.002 586.186 186.193C586.656 187.39 586.962 188.579 587.155 189.677C587.323 190.778 587.392 191.785 587.363 192.63C587.323 194.32 587.067 195.354 587.157 195.374Z" fill="white"/>
<path d="M588.834 162.359C588.868 162.391 589.418 161.849 589.966 160.744C590.518 159.647 590.972 157.95 590.852 156.06C590.724 154.171 590.054 152.545 589.364 151.531C588.677 150.506 588.06 150.041 588.032 150.076C587.968 150.136 588.487 150.679 589.073 151.709C589.663 152.732 590.248 154.291 590.37 156.091C590.482 157.893 590.107 159.513 589.655 160.604C589.207 161.701 588.763 162.308 588.834 162.359Z" fill="white"/>
<path d="M584.285 230.934C584.309 230.974 585.074 230.501 585.902 229.339C586.726 228.202 587.536 226.283 587.406 224.08C587.268 221.877 586.229 220.071 585.273 219.042C584.311 217.99 583.494 217.613 583.474 217.656C583.423 217.725 584.156 218.199 585.013 219.264C585.868 220.31 586.794 222.041 586.923 224.11C587.046 226.18 586.337 228.01 585.616 229.151C584.897 230.311 584.225 230.87 584.285 230.934Z" fill="white"/>
<path d="M578.825 262.792C578.864 262.822 579.387 262.231 579.915 261.081C580.445 259.939 580.895 258.203 580.815 256.263C580.727 254.323 580.128 252.634 579.501 251.541C578.875 250.442 578.302 249.899 578.266 249.931C578.199 249.984 578.669 250.596 579.196 251.698C579.727 252.796 580.246 254.424 580.331 256.283C580.407 258.142 580.031 259.811 579.597 260.95C579.169 262.096 578.754 262.746 578.825 262.792Z" fill="white"/>
<path d="M511.247 131.887C511.28 131.895 511.407 131.4 511.607 130.496C511.713 130.046 511.828 129.491 511.919 128.839C512.014 128.189 512.152 127.451 512.215 126.625C512.402 124.979 512.482 123.004 512.428 120.813C512.344 118.624 512.109 116.219 511.639 113.733C511.147 111.25 510.467 108.931 509.727 106.868C508.959 104.815 508.148 103.012 507.359 101.555C506.993 100.813 506.589 100.18 506.258 99.6109C505.931 99.0406 505.618 98.5684 505.352 98.19C504.829 97.4262 504.527 97.0152 504.5 97.0337C504.473 97.0522 504.721 97.5002 505.193 98.2896C505.433 98.6821 505.722 99.1657 506.025 99.7446C506.332 100.322 506.712 100.961 507.055 101.709C507.798 103.174 508.569 104.976 509.307 107.015C510.016 109.066 510.676 111.363 511.164 113.821C511.629 116.282 511.875 118.66 511.983 120.826C512.06 122.995 512.017 124.954 511.873 126.591C511.833 127.413 511.72 128.148 511.651 128.798C511.587 129.45 511.501 130.004 511.422 130.459C511.279 131.373 511.215 131.88 511.247 131.887Z" fill="white"/>
<path d="M373.999 275.988C373.999 275.988 378.725 272.329 382.233 272.176C385.74 272.024 390.314 273.397 391.229 272.939C392.143 272.481 394.278 270.475 395.651 272.165C397.023 273.855 398.7 279.954 391.381 281.63H386.349C386.349 281.63 386.959 286.663 388.179 288.645C389.4 290.628 406.477 312.128 406.477 312.128C406.477 312.128 408.612 314.263 407.544 316.397C406.477 318.532 401.902 317.312 401.902 317.312C401.902 317.312 398.7 320.209 395.041 318.837C391.381 317.464 389.856 316.397 389.856 316.397C389.856 316.397 385.891 319.599 381.622 316.397C377.353 313.196 363.115 295.353 363.115 295.353L368.203 275.379L373.999 275.988Z" fill="#AE7461"/>
<path d="M359.179 264.187L373.999 275.988L363.117 295.353L341.414 287.473C341.414 287.473 342.037 264.601 359.179 264.187Z" fill="#AE7461"/>
<path d="M590.343 237.822C590.343 237.822 589.875 232.515 586.91 233.607C583.944 234.7 582.695 240.944 582.695 240.944L590.343 237.822Z" fill="#AE7461"/>
<path d="M579.729 243.056C579.729 243.056 584.881 237.28 592.061 237.749C599.24 238.217 594.715 244.306 594.715 244.306C594.715 244.306 600.028 247.584 596.123 252.267L595.496 253.516C595.496 253.516 600.023 255.232 595.339 260.071C595.339 260.071 597.056 263.193 594.715 265.534C592.374 267.875 586.519 264.753 586.519 264.753C586.519 264.753 581.134 266.002 580.665 263.816C580.197 261.631 581.446 260.07 581.914 259.758C582.382 259.447 585.192 258.353 585.192 258.353C585.192 258.353 578.948 259.134 578.792 257.572C578.635 256.01 578.011 254.294 582.695 252.733L585.192 252.065C585.192 252.065 578.718 252.265 578.677 250.704C578.635 249.143 578.324 248.519 580.665 247.425C583.006 246.333 584.879 245.084 584.879 245.084C584.879 245.084 578.793 246.334 579.729 243.056Z" fill="#AE7461"/>
<path d="M578.58 249.151C578.701 249.329 581.621 246.482 586.303 245.197C590.967 243.84 594.944 244.736 594.954 244.521C594.971 244.453 594.016 244.129 592.403 243.974C590.796 243.814 588.52 243.905 586.128 244.578C583.739 245.258 581.753 246.372 580.466 247.349C579.173 248.326 578.53 249.101 578.58 249.151Z" fill="#6F4439"/>
<path d="M579.299 258.079C579.336 258.035 579.147 257.881 578.999 257.521C578.849 257.167 578.796 256.577 579.014 255.898C579.23 255.228 579.649 254.453 580.426 253.94C581.191 253.388 582.19 253.01 583.28 252.749C587.711 251.727 591.463 251.966 591.463 251.765C591.469 251.684 590.543 251.52 589.024 251.495C587.508 251.469 585.404 251.601 583.128 252.125C581.992 252.397 580.908 252.82 580.075 253.463C579.196 254.092 578.749 255.022 578.574 255.783C578.388 256.56 578.523 257.257 578.777 257.636C579.031 258.022 579.287 258.104 579.299 258.079Z" fill="#6F4439"/>
<path d="M581.927 264.939C581.944 264.89 581.703 264.8 581.384 264.501C581.074 264.208 580.684 263.674 580.609 262.914C580.531 262.163 580.725 261.202 581.523 260.594C582.29 259.981 583.461 259.559 584.587 259.175C586.921 258.525 589.212 258.821 590.841 258.846C592.485 258.913 593.511 258.792 593.505 258.704C593.499 258.614 592.495 258.575 590.872 258.393C589.264 258.259 586.937 257.862 584.408 258.558C583.186 258.981 582.065 259.383 581.142 260.142C580.693 260.519 580.368 261.031 580.226 261.543C580.092 262.058 580.087 262.54 580.161 262.98C580.313 263.864 580.835 264.436 581.23 264.698C581.639 264.967 581.922 264.974 581.927 264.939Z" fill="#6F4439"/>
<path d="M579.635 243.306C579.683 243.31 579.771 243.11 580.092 242.817C580.401 242.521 580.885 242.12 581.512 241.663C582.771 240.777 584.594 239.546 586.803 238.819C589.073 238.099 591.188 237.697 592.7 237.963C594.21 238.194 595.045 238.756 595.101 238.648C595.141 238.61 594.381 237.889 592.782 237.516C591.179 237.109 588.901 237.476 586.617 238.204C581.95 239.878 579.246 243.096 579.635 243.306Z" fill="#6F4439"/>
</svg>
