<svg width="669" height="640" viewBox="0 0 669 640" fill="none" xmlns="http://www.w3.org/2000/svg">
<path d="M579.297 563.462V575.079H492.341V563.462H579.297Z" fill="#E0E0E0"/>
<path d="M567.426 563.943C567.125 563.943 566.879 566.381 566.879 569.385C566.879 572.39 567.125 574.827 567.426 574.827C567.729 574.827 567.973 572.39 567.973 569.385C567.973 566.381 567.727 563.943 567.426 563.943Z" fill="#FAFAFA"/>
<path d="M569.32 563.707C569.018 563.707 568.774 566.144 568.774 569.15C568.774 572.155 569.018 574.593 569.32 574.593C569.622 574.593 569.867 572.155 569.867 569.15C569.867 566.144 569.622 563.707 569.32 563.707Z" fill="#FAFAFA"/>
<path d="M499.065 563.944C498.762 563.944 498.518 566.382 498.518 569.386C498.518 572.391 498.762 574.828 499.065 574.828C499.366 574.828 499.611 572.391 499.611 569.386C499.61 566.382 499.366 563.944 499.065 563.944Z" fill="#FAFAFA"/>
<path d="M500.951 563.707C500.65 563.707 500.405 566.144 500.405 569.15C500.405 572.155 500.65 574.593 500.951 574.593C501.252 574.593 501.498 572.155 501.498 569.15C501.498 566.144 501.254 563.707 500.951 563.707Z" fill="#FAFAFA"/>
<path d="M512.309 569.622C512.309 569.925 522.27 570.169 534.551 570.169C546.838 570.169 556.795 569.923 556.795 569.622C556.795 569.321 546.838 569.075 534.551 569.075C522.27 569.075 512.309 569.321 512.309 569.622Z" fill="#FAFAFA"/>
<path d="M579.666 615.766V639H492.71V615.766H579.666Z" fill="#E0E0E0"/>
<path d="M491.58 632.465C491.573 632.482 491.732 632.573 492.053 632.735C492.371 632.9 492.856 633.124 493.502 633.398C494.794 633.926 496.745 634.675 499.397 635.084C502.004 635.455 505.502 635.56 508.963 633.727C510.662 632.818 512.278 631.439 513.507 629.609C514.709 627.783 515.481 625.397 515.089 622.917C514.88 621.683 514.365 620.464 513.49 619.457C512.641 618.449 511.277 617.706 509.824 617.792C508.367 617.857 507.051 618.693 506.139 619.78C505.218 620.87 504.586 622.267 504.457 623.743C504.112 626.688 505.352 629.743 507.455 631.977C509.523 634.29 512.615 635.7 515.81 636.062C519.027 636.443 522.354 635.934 525.511 634.857C528.666 633.768 531.785 631.998 533.986 629.161C535.065 627.751 535.845 626.001 535.961 624.145C536.122 622.294 535.532 620.305 534.109 618.926C533.402 618.239 532.413 617.777 531.389 617.733C530.364 617.684 529.374 618.018 528.546 618.534C526.869 619.575 525.797 621.357 525.346 623.221C524.529 627.02 526.032 630.977 528.775 633.455C531.525 635.957 535.127 637.067 538.565 637.44C542.026 637.787 545.508 637.529 548.714 636.44C551.908 635.378 554.781 633.276 556.435 630.438C558.117 627.666 558.668 624.155 557.402 621.209C556.807 619.749 555.463 618.455 553.854 618.208C552.286 617.914 550.683 618.348 549.474 619.264C547.02 621.212 546.61 624.551 547.403 627.091C548.207 629.705 549.965 631.708 551.786 633.265C555.503 636.403 559.904 637.761 563.711 637.897C567.558 638.033 570.792 636.972 573.158 635.75C575.542 634.51 577.111 633.103 578.085 632.099C578.564 631.586 578.915 631.181 579.126 630.891C579.344 630.605 579.448 630.454 579.432 630.441C579.321 630.29 577.691 632.978 572.967 635.37C570.622 636.508 567.455 637.475 563.737 637.285C560.055 637.097 555.822 635.725 552.288 632.676C550.55 631.164 548.916 629.232 548.21 626.851C547.5 624.548 547.962 621.567 550.019 619.985C551.024 619.227 552.407 618.872 553.675 619.123C554.964 619.338 555.987 620.319 556.518 621.592C557.615 624.172 557.134 627.37 555.568 629.918C554.032 632.523 551.397 634.448 548.373 635.45C545.352 636.468 541.991 636.714 538.678 636.372C535.387 636.011 532.01 634.939 529.505 632.649C527.032 630.431 525.683 626.79 526.41 623.465C526.804 621.839 527.737 620.314 529.122 619.459C530.48 618.56 532.254 618.588 533.362 619.717C534.485 620.801 535.028 622.484 534.88 624.07C534.781 625.684 534.109 627.226 533.128 628.514C531.135 631.106 528.175 632.828 525.171 633.867C522.133 634.914 518.952 635.405 515.926 635.059C512.907 634.724 510.082 633.449 508.153 631.319C506.193 629.261 505.061 626.471 505.352 623.839C505.564 621.283 507.513 618.791 509.862 618.634C511.021 618.557 512.13 619.127 512.88 619.993C513.645 620.855 514.128 621.948 514.321 623.045C514.7 625.288 514.028 627.498 512.919 629.229C511.787 630.963 510.267 632.303 508.664 633.191C505.419 634.982 502.009 634.968 499.449 634.663C496.841 634.326 494.884 633.651 493.576 633.192C492.272 632.715 491.599 632.423 491.58 632.465Z" fill="#FAFAFA"/>
<path d="M571.885 575.416V615.726H492.695V575.416H571.885Z" fill="#EBEBEB"/>
<path d="M558.734 576.798C558.432 576.798 558.188 585.533 558.188 596.306C558.188 607.084 558.432 615.818 558.734 615.818C559.037 615.818 559.281 607.084 559.281 596.306C559.281 585.533 559.037 576.798 558.734 576.798Z" fill="#E0E0E0"/>
<path d="M552.735 576.298C552.432 576.298 552.188 584.923 552.188 595.556C552.188 606.195 552.433 614.816 552.735 614.816C553.036 614.816 553.281 606.195 553.281 595.556C553.281 584.923 553.036 576.298 552.735 576.298Z" fill="#E0E0E0"/>
<path d="M501.635 575.004C501.332 575.004 501.088 584.085 501.088 595.286C501.088 606.489 501.332 615.568 501.635 615.568C501.936 615.568 502.182 606.488 502.182 595.286C502.182 584.085 501.936 575.004 501.635 575.004Z" fill="#E0E0E0"/>
<path d="M508.703 575.547C508.402 575.547 508.156 584.394 508.156 595.306C508.156 606.221 508.402 615.066 508.703 615.066C509.004 615.066 509.25 606.221 509.25 595.306C509.25 584.396 509.006 575.547 508.703 575.547Z" fill="#E0E0E0"/>
<path d="M82.4523 487.419C74.2433 483.184 64.5764 482.632 55.4624 484.138C50.5664 484.947 45.4619 486.413 42.1304 490.09C38.799 493.768 38.1673 500.241 41.993 503.401C44.2711 505.282 47.4466 505.568 50.3996 505.534C57.5336 505.45 65.4506 504.195 71.1497 508.487C74.4024 510.936 76.5662 515.008 80.4552 516.212C84.2593 517.391 88.5514 515.147 90.5685 511.713C92.5856 508.28 92.652 503.989 91.713 500.119C91.713 500.119 90.7214 491.684 82.4523 487.419Z" fill="#EBEBEB"/>
<path d="M101.255 451.112C96.2356 458.282 86.4791 455.908 81.9553 451.532C77.4315 447.155 75.5194 440.813 73.7788 434.765C69.8017 420.945 65.7923 406.449 68.75 392.375C69.6334 388.168 71.2072 383.972 74.1634 380.851C77.1195 377.729 81.6665 375.873 85.8227 376.971C90.7418 378.271 93.7999 383.088 96.0085 387.672C102.503 401.145 105.943 416.08 105.994 431.035C106.018 438.021 105.195 445.345 101.255 451.112Z" fill="#EBEBEB"/>
<path d="M115.05 461.398C109.6 454.93 108.566 445.495 110.991 437.392C113.416 429.288 118.896 422.395 125.21 416.767C132.614 410.169 141.316 405.034 150.672 401.744C154.354 400.45 158.237 399.429 162.123 399.8C166.009 400.17 169.921 402.156 171.733 405.613C174.412 410.724 171.844 416.922 169.064 421.98C164.168 430.89 158.57 439.412 152.34 447.445C147.327 453.907 141.586 460.281 133.947 463.202C126.308 466.123 118.372 465.78 114.323 460.481" fill="#EBEBEB"/>
<path d="M101.603 559.259C101.509 559.265 101.356 558.103 101.149 556.001C100.919 553.63 100.629 550.653 100.284 547.111C99.8705 543.37 99.3238 538.918 98.2844 534.07C97.248 529.234 95.6263 523.993 93.5443 518.677C91.3882 513.394 88.758 508.592 85.6844 504.751C82.6325 500.893 79.0849 498.1 75.7488 496.491C72.4235 494.847 69.4411 494.182 67.3808 493.885C65.3019 493.672 64.1374 493.508 64.1374 493.416C64.1358 493.323 65.3034 493.308 67.4379 493.365C69.5539 493.505 72.6583 494.041 76.1642 495.635C79.6795 497.195 83.445 500.029 86.6451 503.968C89.8715 507.889 92.5975 512.797 94.7923 518.175C96.9113 523.584 98.5083 528.879 99.4983 533.819C100.485 538.752 100.936 543.253 101.231 547.025C101.514 550.799 101.62 553.857 101.671 555.97C101.719 558.083 101.695 559.254 101.603 559.259Z" fill="#E0E0E0"/>
<path d="M100.985 552.419C100.939 552.417 100.91 551.895 100.897 550.907C100.9 549.772 100.904 548.34 100.908 546.584C100.919 542.832 100.916 537.403 100.715 530.7C100.383 517.293 99.2294 502.863 96.9991 482.52C94.8878 463.39 92.0537 441.128 89.062 426.655C88.4211 423.363 87.7755 420.4 87.167 417.806C86.5878 415.206 86.092 412.964 85.6147 411.151C85.2039 409.445 84.8703 408.053 84.6047 406.95C84.3884 405.985 84.2958 405.471 84.3406 405.458C84.3854 405.444 84.5645 405.932 84.8657 406.876C85.1947 407.963 85.6101 409.335 86.1213 411.018C86.6774 412.816 87.2488 415.042 87.899 417.632C88.5786 420.214 89.2906 423.17 89.9933 426.457C92.9526 439.573 96.0863 457.903 98.3366 478.295C100.572 498.68 101.577 517.242 101.667 530.683C101.747 537.403 101.603 542.845 101.432 546.598C101.325 548.354 101.237 549.784 101.168 550.918C101.094 551.904 101.032 552.422 100.985 552.419Z" fill="#E0E0E0"/>
<path d="M100.881 516.618C100.787 516.615 100.804 515.01 100.912 512.102C101.079 509.2 101.478 505.006 102.295 499.868C103.161 494.742 104.372 488.656 106.273 482.043C107.096 479.02 109.035 471.775 113.727 460.952C119.909 446.285 128.308 434.295 135.617 426.868C137.33 424.897 139.239 423.475 140.766 422.082C141.557 421.414 142.255 420.747 142.965 420.22C143.681 419.728 144.346 419.269 144.963 418.843C147.367 417.198 148.714 416.331 148.763 416.409C148.98 416.702 143.376 420 136.303 427.526C129.257 435.037 121.093 446.945 114.959 461.487C111.54 469.375 109.155 476.412 107.462 482.384C105.507 488.933 104.21 494.958 103.229 500.032C102.296 505.118 101.757 509.269 101.431 512.145C101.167 515.025 100.974 516.622 100.881 516.618Z" fill="#E0E0E0"/>
<path d="M137.896 574.334L134.309 623.481H71.1717L67.5839 574.334H137.896Z" fill="#EBEBEB"/>
<path d="M60.0519 554.963H143.996V574.333H60.0519V554.963Z" fill="#EBEBEB"/>
<path d="M143.996 621.599V626.97H140.051H61.4388V621.599H143.996Z" fill="#E0E0E0"/>
<path d="M136.189 635.826L140.055 626.375H64.4492L68.9591 635.826H136.189Z" fill="#E0E0E0"/>
<path d="M68.7495 590.397C68.7356 590.409 68.836 590.562 69.0445 590.847C69.2947 591.18 69.6052 591.592 69.9882 592.099C70.8856 593.246 72.1165 594.823 73.6656 596.806L73.8293 597.016L73.9884 596.797C76.3005 593.6 79.3895 589.328 83.0252 584.299H82.5047C85.1921 588.105 88.1868 592.344 91.4009 596.896L91.6805 597.291L91.9924 596.919C95.276 593.013 98.8422 588.77 102.543 584.365L101.934 584.358C102.118 584.588 102.316 584.836 102.515 585.087C105.788 589.189 108.954 593.16 111.949 596.914L112.264 597.308L112.554 596.897C115.757 592.366 118.749 588.132 121.455 584.304L120.938 584.328C125.324 589.326 129.045 593.564 131.9 596.817L132.095 597.039L132.243 596.789C133.687 594.361 134.841 592.426 135.675 591.022C136.033 590.397 136.324 589.89 136.555 589.487C136.75 589.136 136.841 588.949 136.824 588.939C136.807 588.928 136.682 589.095 136.457 589.425C136.2 589.813 135.879 590.301 135.482 590.903C134.605 592.281 133.395 594.181 131.879 596.565L132.222 596.537C129.412 593.245 125.752 588.954 121.435 583.896L121.163 583.576L120.918 583.921C118.188 587.731 115.169 591.946 111.936 596.457L112.54 596.44C109.552 592.679 106.393 588.704 103.128 584.595C102.929 584.345 102.731 584.097 102.547 583.866L102.248 583.49L101.939 583.859C98.2476 588.271 94.6922 592.522 91.4179 596.437L92.0079 596.46C88.7614 591.932 85.7373 587.714 83.0236 583.927L82.7595 583.559L82.5032 583.927C78.9431 589.01 75.9205 593.328 73.6579 596.561L73.9791 596.551C72.3667 594.619 71.0863 593.082 70.1535 591.964C69.738 591.484 69.4013 591.093 69.1295 590.778C68.8932 590.515 68.765 590.384 68.7495 590.397Z" fill="#F5F5F5"/>
<path d="M66.6946 574.009C66.6946 574.227 82.5148 574.402 102.025 574.402C121.542 574.402 137.359 574.225 137.359 574.009C137.359 573.793 121.542 573.617 102.025 573.617C82.5163 573.617 66.6946 573.793 66.6946 574.009Z" fill="#F5F5F5"/>
<path d="M426.656 62.0491C426.662 62.063 426.784 62.0244 427.016 61.9379C427.294 61.8283 427.629 61.697 428.038 61.5364C428.997 61.1379 430.298 60.5958 431.936 59.9147C435.379 58.4397 440.238 56.3608 446.211 53.8032C458.293 48.5396 474.865 41.3191 493.174 33.3434C493.731 33.0994 494.287 32.8553 494.802 32.6299L494.463 32.6314C512.463 40.3291 528.678 47.2623 540.48 52.3081C546.31 54.7576 551.047 56.7485 554.403 58.1586C555.999 58.8104 557.265 59.3262 558.199 59.7077C559.071 60.0537 559.534 60.222 559.545 60.1942C559.556 60.168 559.115 59.9471 558.266 59.5517C557.345 59.1347 556.102 58.5694 554.531 57.8574C551.2 56.3886 546.5 54.3144 540.713 51.7613C528.938 46.6553 512.758 39.6387 494.797 31.8499L494.627 31.7758L494.457 31.8499C493.943 32.0754 493.387 32.3194 492.829 32.5634C474.56 40.6272 458.021 47.9279 445.965 53.2502C440.037 55.9114 435.217 58.0752 431.799 59.6104C430.187 60.3548 428.908 60.9433 427.964 61.3788C427.569 61.5703 427.244 61.7279 426.976 61.8592C426.759 61.9719 426.65 62.0368 426.656 62.0491Z" fill="#E0E0E0"/>
<path d="M353.39 55.306H655.02V281.151H353.39V55.306Z" fill="#E0E0E0"/>
<path d="M362.801 65.8071H644.475V271.87H362.801V65.8071Z" fill="#FAFAFA"/>
<path d="M582.26 155.838C582.26 155.838 581.966 190.429 580.207 200.983L536.821 198.93C536.821 198.93 540.631 164.925 539.166 155.838H582.26Z" fill="#E0E0E0"/>
<path d="M560.895 160.729C560.895 160.725 560.841 160.718 560.736 160.712C560.614 160.708 560.459 160.701 560.268 160.694C559.855 160.664 559.245 160.694 558.462 160.783C557.685 160.907 556.729 161.117 555.704 161.603C554.681 162.088 553.623 162.879 552.701 163.979C551.813 165.097 550.999 166.486 550.621 168.157C550.264 169.829 550.445 171.707 551.076 173.518C551.384 174.427 551.802 175.321 552.295 176.197C552.785 177.071 553.276 177.95 553.685 178.903C554.504 180.797 555.154 182.88 555.44 185.059L555.458 185.203L555.599 185.206C556.969 185.228 558.416 185.251 559.883 185.276C561.423 185.3 562.94 185.324 564.376 185.345L564.535 185.348L564.541 185.186C564.615 183.004 565.596 181.016 566.625 179.257C567.145 178.367 567.715 177.535 568.25 176.691C568.772 175.864 569.358 175.071 569.774 174.206C570.63 172.48 570.776 170.569 570.454 168.923C570.143 167.273 569.596 165.777 568.779 164.6C567.967 163.421 566.932 162.601 565.956 162.057C564.974 161.511 564.05 161.214 563.292 161.027C562.53 160.844 561.928 160.771 561.52 160.738C561.316 160.728 561.16 160.718 561.055 160.722C560.949 160.718 560.895 160.725 560.895 160.729C560.895 160.735 560.949 160.739 561.052 160.749C561.173 160.762 561.324 160.777 561.513 160.797C561.916 160.848 562.512 160.939 563.261 161.14C564.007 161.342 564.913 161.651 565.869 162.204C566.821 162.753 567.82 163.566 568.599 164.722C569.379 165.869 569.905 167.347 570.197 168.964C570.5 170.578 570.345 172.413 569.511 174.078C569.105 174.917 568.531 175.686 567.992 176.531C567.462 177.36 566.883 178.202 566.354 179.096C565.312 180.874 564.297 182.889 564.214 185.18L564.379 185.021C562.941 184.998 561.424 184.973 559.886 184.948C558.419 184.925 556.972 184.903 555.602 184.882L555.761 185.029C555.464 182.789 554.805 180.699 553.969 178.778C553.555 177.817 553.046 176.914 552.558 176.049C552.07 175.189 551.654 174.311 551.35 173.423C550.723 171.653 550.539 169.831 550.873 168.211C551.223 166.598 552.014 165.214 552.87 164.118C553.759 163.034 554.783 162.249 555.778 161.759C556.776 161.267 557.713 161.043 558.479 160.902C559.251 160.796 559.857 160.748 560.268 160.757C560.459 160.752 560.612 160.748 560.734 160.745C560.841 160.738 560.895 160.734 560.895 160.729Z" fill="white"/>
<path d="M558.671 184.828C558.671 184.828 558.682 184.781 558.697 184.692C558.713 184.596 558.734 184.462 558.763 184.29C558.819 183.93 558.898 183.41 559 182.741C559.194 181.394 559.483 179.445 559.678 177.019C559.724 176.412 559.766 175.776 559.791 175.111C559.812 174.447 559.842 173.755 559.803 173.037C559.763 172.322 559.645 171.568 559.315 170.867C558.983 170.177 558.43 169.527 557.661 169.21C556.898 168.881 555.926 169.052 555.299 169.659C554.99 169.964 554.783 170.398 554.793 170.847C554.794 171.295 554.967 171.732 555.236 172.09C555.503 172.455 555.875 172.734 556.28 172.934C556.686 173.138 557.125 173.264 557.57 173.362C558.459 173.548 559.377 173.652 560.308 173.68C561.239 173.701 562.161 173.684 563.063 173.547C563.513 173.473 563.956 173.357 564.368 173.17C564.782 172.985 565.158 172.721 565.462 172.393C565.765 172.066 565.996 171.667 566.092 171.233C566.192 170.799 566.126 170.339 565.938 169.948C565.751 169.559 565.434 169.224 565.031 169.065C564.628 168.901 564.171 168.947 563.797 169.122C563.419 169.296 563.107 169.578 562.876 169.905C562.645 170.237 562.507 170.612 562.416 170.986C562.239 171.74 562.243 172.487 562.197 173.199C562.123 174.628 562.053 175.958 561.99 177.173C561.868 179.598 561.769 181.563 561.7 182.927C561.669 183.601 561.644 184.128 561.627 184.491C561.621 184.666 561.616 184.802 561.612 184.899C561.608 184.99 561.61 185.038 561.61 185.038C561.61 185.038 561.618 184.992 561.624 184.9C561.632 184.803 561.641 184.669 561.653 184.494C561.676 184.131 561.709 183.605 561.751 182.931C561.829 181.567 561.944 179.604 562.084 177.18C562.152 175.964 562.228 174.634 562.308 173.207C562.356 172.495 562.356 171.749 562.53 171.016C562.62 170.653 562.756 170.29 562.975 169.978C563.195 169.666 563.494 169.4 563.848 169.238C564.199 169.076 564.619 169.035 564.985 169.185C565.352 169.33 565.647 169.641 565.822 170.007C565.998 170.373 566.06 170.802 565.965 171.207C565.876 171.615 565.657 171.993 565.366 172.307C564.782 172.946 563.922 173.281 563.042 173.419C562.155 173.553 561.235 173.57 560.313 173.55C559.389 173.522 558.478 173.42 557.599 173.235C557.162 173.139 556.732 173.014 556.34 172.819C555.948 172.626 555.596 172.361 555.342 172.016C555.088 171.677 554.925 171.266 554.924 170.852C554.915 170.436 555.103 170.041 555.39 169.757C555.977 169.188 556.895 169.02 557.614 169.33C558.346 169.629 558.885 170.253 559.208 170.923C559.533 171.602 559.65 172.341 559.692 173.048C559.732 173.758 559.706 174.449 559.687 175.111C559.665 175.774 559.627 176.41 559.584 177.016C559.401 179.439 559.126 181.39 558.949 182.738C558.858 183.408 558.787 183.929 558.737 184.29C558.714 184.463 558.697 184.598 558.685 184.695C558.674 184.78 558.671 184.828 558.671 184.828Z" fill="white"/>
<path d="M564.381 185.056C564.359 185.076 564.324 185.595 564.268 186.498C564.214 187.546 564.149 188.797 564.075 190.258L564.111 190.167C563.238 191.172 562.254 192.307 561.19 193.532L561.34 193.467C560.277 193.407 559.142 193.344 557.963 193.277L558.106 193.348C557.563 192.686 557 191.998 556.424 191.296C556.139 190.95 555.857 190.607 555.58 190.269L555.625 190.4C555.67 188.42 555.713 186.546 555.753 184.838L555.57 185.013C558.03 185.04 560.163 185.064 561.877 185.082C562.561 185.082 563.162 185.081 563.7 185.081C564.131 185.076 564.367 185.07 564.381 185.056C564.395 185.042 564.185 185.023 563.78 184.999C563.255 184.971 562.668 184.94 562.001 184.906C560.255 184.838 558.084 184.752 555.58 184.654L555.401 184.647L555.395 184.829C555.344 186.537 555.287 188.411 555.228 190.389L555.225 190.463L555.273 190.522C555.549 190.86 555.831 191.203 556.115 191.549C556.692 192.25 557.258 192.937 557.801 193.598L557.857 193.666L557.943 193.671C559.122 193.728 560.257 193.784 561.321 193.836L561.414 193.841L561.473 193.771C562.517 192.528 563.482 191.377 564.338 190.358L564.373 190.316V190.265C564.387 188.769 564.399 187.484 564.41 186.41C564.409 185.515 564.402 185.036 564.381 185.056Z" fill="white"/>
<path d="M555.659 189.943C555.664 189.953 555.776 189.9 555.979 189.807C556.181 189.715 556.479 189.59 556.855 189.46C557.604 189.2 558.691 188.958 559.903 188.995C561.116 189.03 562.188 189.339 562.92 189.645C563.287 189.797 563.576 189.94 563.774 190.045C563.971 190.149 564.08 190.209 564.086 190.2C564.09 190.192 563.99 190.118 563.8 189.999C563.61 189.88 563.324 189.722 562.958 189.557C562.228 189.227 561.142 188.898 559.91 188.861C558.677 188.822 557.573 189.085 556.824 189.37C556.448 189.512 556.153 189.653 555.956 189.759C555.758 189.868 555.654 189.936 555.659 189.943Z" fill="white"/>
<path d="M555.659 188.592C555.664 188.601 555.776 188.548 555.979 188.456C556.181 188.363 556.479 188.238 556.855 188.108C557.604 187.849 558.691 187.606 559.905 187.643C561.117 187.68 562.189 187.988 562.921 188.294C563.289 188.445 563.578 188.589 563.774 188.694C563.971 188.797 564.08 188.857 564.086 188.848C564.09 188.84 563.992 188.766 563.8 188.647C563.61 188.528 563.324 188.371 562.958 188.206C562.228 187.875 561.142 187.546 559.91 187.509C558.677 187.47 557.573 187.733 556.824 188.019C556.447 188.161 556.153 188.301 555.956 188.408C555.759 188.516 555.656 188.584 555.659 188.592Z" fill="white"/>
<path d="M555.745 187.307C555.75 187.316 555.862 187.263 556.065 187.171C556.269 187.078 556.565 186.953 556.94 186.823C557.69 186.564 558.777 186.321 559.989 186.358C561.202 186.395 562.274 186.703 563.006 187.007C563.373 187.158 563.662 187.302 563.86 187.407C564.057 187.51 564.166 187.571 564.172 187.561C564.176 187.554 564.076 187.48 563.886 187.361C563.696 187.242 563.41 187.084 563.044 186.919C562.314 186.588 561.228 186.259 559.995 186.222C558.761 186.184 557.659 186.446 556.91 186.732C556.533 186.874 556.239 187.015 556.042 187.121C555.845 187.231 555.742 187.3 555.745 187.307Z" fill="white"/>
<path d="M630.574 99.2867C630.574 99.2867 630.281 133.878 628.522 144.432L585.136 142.379C585.136 142.379 588.947 108.374 587.482 99.2867H630.574Z" fill="#EBEBEB"/>
<path d="M594.023 113.818C594.009 114.053 600.516 114.635 608.554 115.118C616.594 115.602 623.123 115.804 623.137 115.569C623.151 115.335 616.645 114.752 608.605 114.269C600.567 113.785 594.039 113.583 594.023 113.818Z" fill="white"/>
<path d="M594.006 121.144C593.992 121.379 600.499 121.961 608.536 122.445C616.578 122.928 623.105 123.13 623.119 122.896C623.133 122.661 616.628 122.079 608.587 121.595C600.55 121.112 594.019 120.909 594.006 121.144Z" fill="white"/>
<path d="M601.385 128.338C601.371 128.573 605.073 128.987 609.652 129.262C614.233 129.537 617.959 129.571 617.973 129.336C617.987 129.101 614.286 128.689 609.703 128.412C605.124 128.136 601.399 128.103 601.385 128.338Z" fill="white"/>
<path d="M632.643 201.059C632.643 201.059 632.349 235.651 630.59 246.204L587.204 244.152C587.204 244.152 591.016 210.145 589.548 201.058H632.643V201.059Z" fill="#EBEBEB"/>
<path d="M596.082 215.588C596.068 215.823 602.575 216.405 610.612 216.889C618.653 217.372 625.181 217.574 625.195 217.34C625.209 217.105 618.704 216.523 610.663 216.039C602.626 215.556 596.096 215.355 596.082 215.588Z" fill="white"/>
<path d="M596.08 222.915C596.066 223.15 602.573 223.732 610.61 224.215C618.651 224.699 625.179 224.901 625.193 224.666C625.207 224.432 618.702 223.849 610.661 223.366C602.622 222.882 596.094 222.682 596.08 222.915Z" fill="white"/>
<path d="M603.457 230.109C603.443 230.344 607.145 230.758 611.725 231.032C616.306 231.307 620.031 231.341 620.045 231.107C620.059 230.872 616.358 230.459 611.776 230.183C607.195 229.908 603.471 229.874 603.457 230.109Z" fill="white"/>
<path d="M514.066 108.456L509.768 208.228L385.216 209.731L390.807 109.774L514.066 108.456Z" fill="#EBEBEB"/>
<path d="M391.792 107.741H515.516V201.166H391.792V107.741Z" fill="#F5F5F5"/>
<path d="M391.794 201.166C391.794 201.166 391.819 200.563 391.833 199.433C391.842 198.278 391.855 196.613 391.873 194.447C391.895 190.067 391.924 183.685 391.963 175.543C392.006 159.253 392.069 135.942 392.145 107.742L391.796 108.091C426.772 108.112 469.466 108.139 515.509 108.166H515.52L515.095 107.742C515.11 141.342 515.124 173.155 515.137 201.164L515.52 200.781C478.912 200.86 448.032 200.926 426.275 200.973C415.394 201.016 406.8 201.051 400.893 201.075C397.963 201.095 395.705 201.11 394.147 201.121C393.396 201.13 392.82 201.138 392.401 201.143C392.006 201.15 391.794 201.166 391.794 201.166C391.794 201.166 391.977 201.181 392.356 201.187C392.764 201.192 393.328 201.2 394.058 201.209C395.6 201.22 397.832 201.235 400.729 201.255C406.617 201.28 415.181 201.314 426.023 201.357C447.84 201.404 478.807 201.47 515.517 201.549L515.9 201.55V201.166C515.912 173.155 515.926 141.342 515.941 107.743V107.317H515.515H515.504C469.462 107.345 426.768 107.371 391.791 107.393H391.441L391.442 107.742C391.518 136.033 391.58 159.42 391.624 175.762C391.663 183.871 391.694 190.226 391.714 194.588C391.731 196.724 391.745 198.367 391.754 199.507C391.768 200.614 391.794 201.166 391.794 201.166Z" fill="#E0E0E0"/>
<path d="M450.434 127.532H500.588V190.654H450.434V127.532Z" fill="#F5F5F5"/>
<path d="M450.436 190.653C450.444 190.646 450.451 190.539 450.458 190.335C450.464 190.096 450.47 189.804 450.479 189.438C450.49 188.607 450.505 187.456 450.524 185.986C450.549 182.936 450.583 178.56 450.626 173.036C450.672 161.925 450.739 146.202 450.816 127.534L450.434 127.915C465.38 127.927 482.485 127.943 500.584 127.96C500.684 128.049 499.784 127.161 500.164 127.546V127.563V127.597V127.665V127.802V128.076V128.622V129.714V131.891C500.164 133.338 500.164 134.779 500.165 136.212C500.167 139.079 500.168 141.916 500.168 144.717C500.173 150.322 500.178 155.793 500.182 161.097C500.201 171.698 500.219 181.634 500.236 190.653L500.59 190.3C485.542 190.375 473.056 190.439 464.276 190.482C459.921 190.521 456.487 190.551 454.087 190.573C452.941 190.59 452.045 190.604 451.386 190.613C450.773 190.627 450.436 190.653 450.436 190.653C450.424 190.666 450.72 190.68 451.312 190.692C451.954 190.701 452.828 190.715 453.945 190.732C456.327 190.754 459.732 190.785 464.054 190.823C472.888 190.868 485.449 190.931 500.588 191.006L500.941 191.007V190.652C500.958 181.632 500.974 171.696 500.993 161.095C500.998 155.791 501.002 150.322 501.007 144.716C501.008 141.913 501.01 139.077 501.01 136.21C501.01 134.777 501.01 133.336 501.012 131.889V129.713V128.621V128.074V127.801V127.663V127.595V127.561V127.544C501.39 127.92 500.497 127.013 500.581 127.107C482.482 127.123 465.377 127.138 450.431 127.152H450.048L450.05 127.534C450.129 146.305 450.193 162.111 450.24 173.283C450.283 178.77 450.317 183.116 450.34 186.147C450.359 187.586 450.374 188.71 450.385 189.523C450.394 189.872 450.4 190.151 450.407 190.378C450.42 190.568 450.428 190.661 450.436 190.653Z" fill="#E0E0E0"/>
<path d="M402.545 113.09H498.664V122.186H402.545V113.09Z" fill="#F5F5F5"/>
<path d="M402.548 122.184C402.558 122.173 402.569 121.962 402.582 121.562C402.592 121.118 402.605 120.536 402.622 119.798C402.645 118.218 402.677 115.972 402.719 113.09L402.548 113.262C418.757 113.411 455.706 113.515 498.661 113.515H498.665C497.816 112.665 498.431 113.28 498.241 113.092V113.095V113.104V113.123V113.16V113.232V113.377V113.669V114.253V115.416C498.241 116.188 498.241 116.958 498.241 117.719C498.241 119.242 498.242 120.737 498.242 122.186L498.665 121.762C471.785 121.833 447.832 121.897 430.534 121.943C421.911 121.996 414.95 122.039 410.085 122.07C407.708 122.095 405.845 122.115 404.52 122.128C403.916 122.141 403.434 122.15 403.062 122.158C402.731 122.166 402.557 122.175 402.548 122.184C402.538 122.193 402.693 122.204 403.006 122.213C403.365 122.221 403.828 122.23 404.41 122.243C405.712 122.257 407.542 122.277 409.878 122.301C414.72 122.331 421.647 122.374 430.228 122.427C447.603 122.473 471.665 122.536 498.667 122.607L499.09 122.609V122.184C499.09 120.735 499.09 119.24 499.092 117.717C499.092 116.956 499.092 116.187 499.092 115.415V114.252V113.668V113.376V113.231V113.158V113.121V113.103V113.093V113.09C498.902 112.9 499.516 113.513 498.665 112.662H498.661C455.706 112.662 418.757 112.766 402.548 112.916L402.373 112.917L402.376 113.089C402.418 116.014 402.452 118.292 402.473 119.897C402.49 120.62 402.504 121.189 402.514 121.622C402.526 122.006 402.537 122.195 402.548 122.184Z" fill="#E0E0E0"/>
<path d="M402.549 127.532H444.293V165.575H402.549V127.532Z" fill="#F5F5F5"/>
<path d="M402.55 165.577C402.564 165.563 402.576 165.312 402.59 164.841C402.601 164.315 402.615 163.632 402.632 162.776C402.655 160.917 402.686 158.31 402.726 155.022C402.771 148.328 402.836 138.879 402.911 127.534L402.55 127.896C414.606 127.914 428.942 127.936 444.291 127.959C444.389 128.05 443.49 127.156 443.87 127.541V127.551V127.571V127.612V127.692V127.854V128.178V128.826V130.117C443.87 130.976 443.87 131.833 443.87 132.684C443.871 134.387 443.871 136.077 443.873 137.75C443.876 141.093 443.88 144.371 443.884 147.563C443.897 153.945 443.91 159.99 443.922 165.573L444.296 165.2C431.915 165.277 421.543 165.342 414.185 165.388C410.563 165.43 407.689 165.464 405.642 165.487C404.694 165.505 403.94 165.519 403.362 165.53C402.84 165.547 402.564 165.561 402.55 165.577C402.536 165.59 402.785 165.604 403.279 165.618C403.838 165.629 404.567 165.643 405.486 165.661C407.511 165.685 410.359 165.719 413.945 165.76C421.36 165.807 431.818 165.872 444.296 165.949L444.668 165.952L444.67 165.577C444.682 159.993 444.694 153.948 444.708 147.566C444.711 144.374 444.714 141.096 444.719 137.753C444.719 136.08 444.721 134.39 444.722 132.687C444.722 131.834 444.722 130.979 444.722 130.12V128.829V128.182V127.857V127.695V127.615V127.575V127.554V127.544C445.102 127.921 444.205 127.019 444.293 127.111C428.945 127.134 414.609 127.156 402.552 127.175H402.187L402.19 127.536C402.267 138.974 402.331 148.504 402.376 155.253C402.416 158.506 402.447 161.087 402.47 162.926C402.487 163.752 402.501 164.412 402.511 164.922C402.522 165.366 402.536 165.589 402.55 165.577Z" fill="#E0E0E0"/>
<path d="M402.543 171.539H444.287V190.654H402.543V171.539Z" fill="#F5F5F5"/>
<path d="M402.547 190.654C402.569 190.632 402.591 190.155 402.614 189.268C402.632 188.308 402.658 187.03 402.691 185.43C402.731 182.057 402.788 177.336 402.858 171.539L402.549 171.848C413.436 171.879 428.124 171.919 444.29 171.964C444.672 172.344 443.776 171.447 443.868 171.541V171.545V171.555V171.575V171.613V171.692V171.85V172.165V172.792V174.043C443.868 174.874 443.87 175.702 443.87 176.523C443.871 178.167 443.873 179.791 443.875 181.39C443.881 184.587 443.885 187.685 443.892 190.651L444.295 190.248C432.255 190.325 421.897 190.393 414.443 190.441C410.793 190.487 407.86 190.526 405.744 190.552C404.781 190.572 404.004 190.589 403.395 190.603C402.852 190.621 402.563 190.637 402.547 190.654C402.53 190.671 402.787 190.686 403.296 190.703C403.883 190.716 404.632 190.732 405.562 190.754C407.656 190.782 410.559 190.819 414.17 190.865C421.69 190.913 432.143 190.98 444.293 191.058L444.696 191.061V190.655C444.701 187.69 444.707 184.592 444.712 181.395C444.713 179.796 444.715 178.171 444.716 176.528C444.716 175.706 444.718 174.878 444.718 174.047V172.796V172.169V171.854V171.697V171.618V171.579V171.559V171.55V171.545C444.811 171.635 443.912 170.738 444.29 171.118C428.124 171.162 413.434 171.204 402.549 171.233L402.237 171.235L402.24 171.544C402.309 177.418 402.365 182.204 402.405 185.622C402.438 187.193 402.464 188.447 402.482 189.39C402.504 190.24 402.526 190.675 402.547 190.654Z" fill="#E0E0E0"/>
<path d="M451.676 127.642C467.201 149.088 485.065 169.207 500.59 190.653L451.676 127.642Z" fill="white"/>
<path d="M500.587 190.654C500.611 190.637 500.47 190.395 500.178 189.95C499.823 189.429 499.39 188.795 498.868 188.027C497.721 186.364 496.005 183.999 493.847 181.103C489.538 175.307 483.371 167.462 476.464 158.883C469.556 150.3 463.321 142.524 458.894 136.828C456.746 134.054 454.977 131.771 453.661 130.072C453.087 129.343 452.613 128.741 452.223 128.245C451.887 127.832 451.698 127.624 451.675 127.642C451.652 127.659 451.794 127.902 452.084 128.347C452.44 128.867 452.872 129.502 453.394 130.268C454.542 131.93 456.258 134.296 458.415 137.192C462.724 142.988 468.893 150.834 475.802 159.416C482.707 167.994 488.942 175.77 493.368 181.468C495.517 184.242 497.285 186.524 498.601 188.223C499.176 188.952 499.65 189.555 500.039 190.05C500.376 190.463 500.564 190.671 500.587 190.654Z" fill="#E0E0E0"/>
<path d="M450.432 190.654C450.616 190.801 461.994 176.787 475.842 159.36C489.694 141.925 500.771 127.679 500.588 127.532C500.404 127.386 489.029 141.396 475.176 158.83C461.327 176.258 450.248 190.507 450.432 190.654Z" fill="#E0E0E0"/>
<path d="M509.769 127.667C509.769 132 513.283 135.512 517.615 135.512C521.949 135.512 525.461 132 525.461 127.667C525.461 123.333 521.949 119.821 517.615 119.821C513.281 119.821 509.769 123.334 509.769 127.667Z" fill="#E0E0E0"/>
<path d="M381.447 108.621C381.447 112.955 384.96 116.467 389.293 116.467C393.627 116.467 397.139 112.955 397.139 108.621C397.139 104.288 393.625 100.776 389.293 100.776C384.959 100.776 381.447 104.288 381.447 108.621Z" fill="#E0E0E0"/>
<path d="M74.5227 163.272H164.941V294.331H74.5227V163.272Z" fill="#E0E0E0"/>
<path d="M79.0579 163.273H169.477V294.331H79.0579V163.273Z" fill="#F5F5F5"/>
<path d="M90.2911 177.468H158.242V280.137H90.2911V177.468Z" fill="white"/>
<path d="M90.2955 280.137C90.2955 280.137 90.3048 279.963 90.3094 279.635C90.3125 279.297 90.3172 278.812 90.3218 278.179C90.328 276.889 90.3372 275 90.3496 272.548C90.3635 267.627 90.3836 260.456 90.4098 251.399C90.4376 233.295 90.4747 207.658 90.521 177.468L90.2955 177.693C111.056 177.7 134.06 177.706 158.239 177.713H158.247L158.001 177.468C158.02 216.199 158.037 251.91 158.05 280.137L158.247 279.941C137.554 279.984 120.591 280.02 108.788 280.045C102.883 280.066 98.2728 280.083 95.1236 280.094C93.559 280.103 92.3589 280.111 91.5373 280.116C90.7233 280.123 90.2955 280.137 90.2955 280.137C90.2955 280.137 90.6956 280.151 91.4941 280.159C92.308 280.164 93.4957 280.171 95.0448 280.181C98.1847 280.191 102.781 280.208 108.666 280.23C120.498 280.255 137.503 280.29 158.247 280.333H158.443V280.137C158.457 251.909 158.474 216.199 158.492 177.468V177.222H158.247H158.239C134.06 177.23 111.056 177.236 90.2955 177.242H90.07V177.468C90.1148 207.718 90.1534 233.406 90.1812 251.547C90.2075 260.584 90.2276 267.737 90.2415 272.647C90.2538 275.079 90.2631 276.953 90.2693 278.233C90.2755 278.855 90.2801 279.33 90.2832 279.663C90.2863 279.981 90.2955 280.137 90.2955 280.137Z" fill="#E0E0E0"/>
<path d="M78.7782 163.274C78.7257 163.316 79.3389 164.212 80.3891 165.616C81.4394 167.019 82.9298 168.93 84.6318 170.996C86.3338 173.063 87.9247 174.892 89.1016 176.192C90.2785 177.493 91.0399 178.266 91.0909 178.222C91.1434 178.177 90.4746 177.321 89.3657 175.965C88.1533 174.495 86.6613 172.685 85.0118 170.683C83.3638 168.681 81.8734 166.871 80.6625 165.399C79.5427 164.051 78.8323 163.231 78.7782 163.274Z" fill="#E0E0E0"/>
<path d="M89.9434 279.805C86.5687 285.172 82.5839 290.155 78.091 294.628L89.9434 279.805Z" fill="white"/>
<path d="M78.0617 294.626C78.1064 294.671 78.9127 293.971 80.1282 292.747C81.3437 291.522 82.953 289.761 84.5995 287.704C86.2443 285.645 87.6081 283.687 88.5348 282.232C89.463 280.777 89.9681 279.836 89.914 279.802C89.8523 279.764 89.2437 280.638 88.2475 282.037C87.2513 283.437 85.8505 285.35 84.2164 287.397C82.5808 289.44 81.0225 291.227 79.8764 292.507C78.7289 293.789 78.0107 294.575 78.0617 294.626Z" fill="#E0E0E0"/>
<path d="M169.459 294.229C165.511 289.357 161.564 284.488 157.616 279.616L169.459 294.229Z" fill="white"/>
<path d="M157.615 279.614C157.51 279.699 160.075 283.04 163.345 287.076C166.616 291.112 169.353 294.313 169.458 294.228C169.563 294.143 166.997 290.803 163.726 286.767C160.457 282.731 157.72 279.529 157.615 279.614Z" fill="#E0E0E0"/>
<path d="M169.452 163.274C169.345 163.189 166.77 166.267 163.703 170.145C160.634 174.026 158.234 177.239 158.341 177.322C158.447 177.407 161.02 174.331 164.089 170.449C167.158 166.571 169.558 163.357 169.452 163.274Z" fill="#E0E0E0"/>
<path d="M111.46 198.313H134.213V262.914H111.46V198.313Z" fill="#E0E0E0"/>
<path d="M95.3639 24.0168L108.307 24.0867L107.959 88.4916L95.0161 88.4217L95.3639 24.0168Z" fill="#E0E0E0"/>
<path d="M186.905 24.1865L220.424 24.3675L220.232 59.923L186.713 59.742L186.905 24.1865Z" fill="#EBEBEB"/>
<path d="M153.552 24.0071L187.07 24.188L186.878 59.7436L153.36 59.5626L153.552 24.0071Z" fill="#F5F5F5"/>
<path d="M220.392 34.2084C198.117 34.3922 175.787 34.2625 153.515 33.9011C153.057 33.8949 153.06 33.1921 153.52 33.1891C175.795 33.0655 198.125 33.1752 220.396 33.5983C220.787 33.6061 220.784 34.2053 220.392 34.2084Z" fill="#E0E0E0"/>
<path d="M180.417 59.1519L241.314 59.4807L241.158 88.4552L180.261 88.1263L180.417 59.1519Z" fill="#EBEBEB"/>
<path d="M119.812 58.8217L180.709 59.1505L180.553 88.125L119.655 87.7961L119.812 58.8217Z" fill="#F5F5F5"/>
<path d="M241.292 67.5564C200.837 68.0151 160.24 67.6043 119.787 66.9571C119.329 66.9494 119.332 66.2467 119.79 66.2451C160.248 66.032 200.846 66.0552 241.293 66.9463C241.687 66.954 241.686 67.5518 241.292 67.5564Z" fill="#E0E0E0"/>
<path d="M28.1338 88.4739H264.064V98.8543H28.1338V88.4739Z" fill="#E0E0E0"/>
<path d="M215.864 93.4639H225.441V128.885H215.864V93.4639Z" fill="#E0E0E0"/>
<path d="M72.8856 93.4642H82.4629V128.885H72.8856V93.4642Z" fill="#E0E0E0"/>
<path d="M82.7213 -5.6851e-06L95.6641 0.0698853L95.1857 88.649L82.243 88.5791L82.7213 -5.6851e-06Z" fill="#EBEBEB"/>
<path d="M62.4971 16.4883L82.6094 16.5969L82.2217 88.3798L62.1095 88.2712L62.4971 16.4883Z" fill="#F5F5F5"/>
<path d="M62.6491 30.3443C62.6491 30.5373 67.1512 30.6933 72.7037 30.6933C78.2592 30.6933 82.7598 30.5373 82.7598 30.3443C82.7598 30.1512 78.2576 29.9952 72.7037 29.9952C67.1512 29.9952 62.6491 30.1512 62.6491 30.3443Z" fill="#E0E0E0"/>
<path d="M62.6491 27.3277C62.6491 27.5207 67.1512 27.6767 72.7037 27.6767C78.2592 27.6767 82.7598 27.5207 82.7598 27.3277C82.7598 27.1346 78.2576 26.9786 72.7037 26.9786C67.1512 26.9802 62.6491 27.1362 62.6491 27.3277Z" fill="#E0E0E0"/>
<path d="M62.6491 77.4968C62.6491 77.6898 67.1512 77.8458 72.7037 77.8458C78.2592 77.8458 82.7598 77.6898 82.7598 77.4968C82.7598 77.3037 78.2576 77.1477 72.7037 77.1477C67.1512 77.1477 62.6491 77.3037 62.6491 77.4968Z" fill="#E0E0E0"/>
<path d="M62.6491 74.4806C62.6491 74.6737 67.1512 74.8297 72.7037 74.8297C78.2592 74.8297 82.7598 74.6737 82.7598 74.4806C82.7598 74.2876 78.2576 74.1316 72.7037 74.1316C67.1512 74.1331 62.6491 74.2891 62.6491 74.4806Z" fill="#E0E0E0"/>
<path d="M72.3892 67.9011C72.5823 67.9011 72.7383 60.659 72.7383 51.7272C72.7383 42.7924 72.5823 35.5519 72.3892 35.5519C72.1961 35.5519 72.0402 42.7924 72.0402 51.7272C72.0402 60.659 72.1961 67.9011 72.3892 67.9011Z" fill="#E0E0E0"/>
<path d="M40.5362 34.1421H62.4277V88.3241H40.5362V34.1421Z" fill="#EBEBEB"/>
<path d="M50.8625 74.2723C53.7415 74.2723 55.7539 72.2227 55.7539 69.3994C55.7539 67.8673 55.1624 66.5391 53.9824 65.7437L53.4851 66.4279C54.4627 67.1291 54.9245 68.1994 54.9245 69.3994C54.9245 71.6714 53.2997 73.3317 50.8625 73.3317C48.4253 73.3317 46.8005 71.6698 46.8005 69.3994C46.8005 68.1994 47.2624 67.1291 48.2416 66.4279L47.7427 65.7437C46.5797 66.5375 45.9712 67.8673 45.9712 69.3994C45.9696 72.2227 48.0006 74.2723 50.8625 74.2723Z" fill="#FAFAFA"/>
<path d="M47.2067 64.3982L47.945 63.9734C47.3179 63.2352 46.782 61.9239 46.782 60.503C46.782 58.472 47.5017 57.6611 48.5921 57.6611C51.3985 57.6611 49.3304 64.0476 53.1144 64.0476C54.5724 64.0476 55.7539 62.829 55.7539 60.3918C55.7539 59.1732 55.3848 57.8449 54.8133 57.0881L54.075 57.5129C54.6666 58.3237 54.9431 59.3771 54.9431 60.4103C54.9431 62.293 54.1677 63.1255 53.1345 63.1255C50.237 63.1255 52.285 56.7375 48.6122 56.7375C47.043 56.7375 45.9727 58.0843 45.9727 60.5401C45.9696 62.1278 46.5055 63.6414 47.2067 64.3982Z" fill="#FAFAFA"/>
<path d="M47.2067 55.5763L47.945 55.1515C47.3179 54.4133 46.782 53.102 46.782 51.6795C46.782 49.6501 47.5017 48.8377 48.5921 48.8377C51.3985 48.8377 49.3304 55.2241 53.1144 55.2241C54.5724 55.2241 55.7539 54.0055 55.7539 51.5699C55.7539 50.3497 55.3848 49.0215 54.8133 48.2647L54.075 48.6894C54.6666 49.5018 54.9431 50.5552 54.9431 51.5884C54.9431 53.4696 54.1677 54.3021 53.1345 54.3021C50.237 54.3021 52.285 47.9156 48.6122 47.9156C47.043 47.9156 45.9727 49.2624 45.9727 51.7182C45.9696 53.3059 46.5055 54.8195 47.2067 55.5763Z" fill="#FAFAFA"/>
<path d="M89.3926 18.8703C87.3378 18.8703 85.672 17.2045 85.672 15.1496C85.672 13.0948 87.3378 11.429 89.3926 11.429C91.4475 11.429 93.1133 13.0948 93.1133 15.1496C93.1133 17.2045 91.4475 18.8703 89.3926 18.8703Z" fill="#E0E0E0"/>
<path d="M88.2472 25.3799H90.5469V78.0745H88.2472V25.3799Z" fill="#E0E0E0"/>
<path d="M0.994568 638.414C0.994568 638.636 150.173 638.815 334.152 638.815C518.194 638.815 667.342 638.635 667.342 638.414C667.342 638.191 518.196 638.012 334.152 638.012C150.173 638.012 0.994568 638.191 0.994568 638.414Z" fill="#263238"/>
<path d="M486.92 107.45C511.706 146.436 510.083 200.488 483.003 237.915C464.951 262.867 437.87 279.592 416.366 301.638C394.863 323.685 378.531 356.175 389.88 384.805C401.433 413.951 435.269 425.808 460.61 444.269C488.211 464.378 507.597 495.439 513.536 529.069C519.475 562.698 511.9 598.519 492.857 626.867H229.64C229.64 626.867 183.403 538.746 242.85 471.592C302.297 404.438 334.223 403.337 332.022 359.302C329.82 315.268 298.995 300.955 281.382 284.443C263.768 267.931 177.898 229.399 228.539 107.451L486.92 107.45Z" fill="#FAFAFA"/>
<path d="M486.91 107.45C486.91 107.45 485.383 107.425 482.379 107.413C479.366 107.405 474.896 107.393 469.036 107.377C457.289 107.36 439.975 107.335 417.673 107.303C373.023 107.271 308.411 107.223 228.529 107.164H228.336L228.267 107.34C224.67 116.474 221.035 125.875 218.459 135.842C215.809 145.764 213.636 156.101 212.867 166.813C212.06 177.504 212.406 188.544 214.536 199.509C216.734 210.442 220.651 221.272 226.433 231.289C229.309 236.309 232.692 241.075 236.347 245.675C240.045 250.246 244.139 254.545 248.472 258.647C252.812 262.744 257.434 266.604 262.234 270.297C267.024 274.002 272.023 277.505 276.905 281.202C279.35 283.046 281.584 285.114 283.913 287.187C286.254 289.22 288.665 291.181 291.098 293.124C295.961 297.015 300.874 300.904 305.512 305.162C314.874 313.538 322.781 323.995 327.131 336.167C329.24 342.242 330.752 348.607 331.247 355.121C331.378 356.748 331.596 358.372 331.656 360.006C331.688 361.642 331.781 363.282 331.704 364.921C331.682 368.203 331.313 371.48 330.717 374.714C329.48 381.18 326.765 387.375 322.817 392.745C318.926 398.164 314.129 402.935 309.165 407.525C299.171 416.663 288.573 425.384 278.419 434.801C268.216 444.165 258.31 454.051 248.767 464.441C244.031 469.654 239.217 474.899 235.078 480.717C230.796 486.425 227.202 492.662 224.044 499.116C217.818 512.084 213.969 526.31 212.709 540.856C211.353 555.403 212.389 570.227 215.273 584.735C216.7 591.995 218.594 599.186 220.92 606.26C223.247 613.335 225.933 620.312 229.277 627.05L229.383 627.267H229.632C231.768 627.267 234.088 627.267 236.409 627.267C326.261 627.26 412.957 627.254 492.847 627.248H493.053L493.166 627.078C505.707 608.251 513.153 586.622 515.207 564.947C517.389 543.268 514.053 521.528 506.101 502.233C498.252 482.868 486.05 465.884 471.306 452.535C463.956 445.807 455.761 440.302 447.552 435.209C439.334 430.107 431.046 425.389 423.211 420.226C415.41 415.052 407.892 409.541 401.788 402.798C395.662 396.112 390.981 388.258 388.53 379.816C386.068 371.366 386.045 362.505 387.484 354.162C388.944 345.789 391.891 337.872 395.619 330.579C399.358 323.277 403.893 316.572 408.868 310.455C413.83 304.317 419.347 298.87 424.899 293.728C436.043 283.471 447.444 274.499 457.709 265.28C462.849 260.681 467.72 256.038 472.204 251.267C476.655 246.47 480.725 241.551 484.22 236.456C491.269 226.29 496.103 215.579 499.28 205.24C502.462 194.889 504.043 184.882 504.406 175.676C504.623 173.377 504.538 171.122 504.535 168.922C504.505 166.721 504.572 164.569 504.343 162.483C504.182 160.393 504.025 158.356 503.872 156.371C503.634 154.397 503.308 152.485 503.043 150.623C500.726 135.712 496.227 124.817 492.719 117.844C491.879 116.073 491.139 114.514 490.338 113.252C489.585 111.972 488.955 110.897 488.449 110.03C487.432 108.311 486.91 107.45 486.91 107.45C487.019 107.64 487.448 108.398 488.402 110.085C488.9 110.953 489.517 112.029 490.254 113.313C491.037 114.568 491.769 116.13 492.599 117.904C496.063 124.888 500.514 135.78 502.786 150.664C503.046 152.524 503.367 154.431 503.599 156.402C503.745 158.382 503.898 160.415 504.053 162.5C504.275 164.582 504.204 166.728 504.229 168.923C504.227 171.118 504.307 173.368 504.087 175.659C503.705 184.841 502.11 194.816 498.92 205.129C495.737 215.429 490.903 226.094 483.866 236.208C480.377 241.279 476.315 246.177 471.87 250.954C467.394 255.706 462.526 260.333 457.388 264.919C447.126 274.113 435.714 283.071 424.54 293.336C418.973 298.479 413.43 303.942 408.438 310.104C403.436 316.245 398.873 322.976 395.106 330.315C391.35 337.647 388.375 345.613 386.896 354.059C385.436 362.473 385.45 371.431 387.935 379.984C390.408 388.53 395.142 396.478 401.318 403.227C407.473 410.035 415.03 415.578 422.851 420.774C430.708 425.957 438.997 430.683 447.199 435.78C455.394 440.872 463.539 446.352 470.846 453.048C485.503 466.335 497.637 483.239 505.435 502.505C513.337 521.701 516.643 543.315 514.466 564.876C512.416 586.431 505.001 607.939 492.531 626.65L492.849 626.48C412.959 626.474 326.264 626.47 236.411 626.464C234.089 626.464 231.771 626.464 229.633 626.464L229.989 626.678C226.687 620.02 223.998 613.047 221.684 606.011C219.367 598.969 217.482 591.807 216.061 584.58C213.189 570.138 212.159 555.391 213.506 540.93C214.757 526.471 218.58 512.34 224.761 499.461C227.897 493.051 231.465 486.856 235.719 481.183C239.827 475.407 244.613 470.19 249.349 464.976C258.875 454.6 268.763 444.727 278.949 435.376C289.088 425.967 299.667 417.257 309.69 408.089C314.668 403.484 319.498 398.682 323.439 393.19C327.439 387.748 330.21 381.427 331.461 374.86C332.067 371.576 332.439 368.254 332.459 364.938C332.536 363.279 332.444 361.628 332.41 359.977C332.348 358.328 332.128 356.69 331.996 355.05C331.495 348.483 329.966 342.055 327.832 335.917C323.433 323.615 315.423 313.043 306.007 304.629C301.342 300.349 296.411 296.451 291.55 292.567C289.118 290.627 286.713 288.671 284.385 286.651C282.096 284.617 279.801 282.495 277.341 280.642C272.434 276.929 267.446 273.438 262.665 269.744C257.877 266.063 253.27 262.222 248.947 258.145C244.632 254.063 240.556 249.791 236.877 245.247C233.241 240.675 229.874 235.941 227.014 230.954C221.261 221.003 217.364 210.249 215.171 199.382C213.047 188.486 212.694 177.503 213.487 166.858C214.244 156.192 216.402 145.889 219.037 135.995C221.596 126.058 225.215 116.673 228.795 107.555L228.532 107.731C308.367 107.672 372.94 107.624 417.562 107.592C439.881 107.559 457.208 107.535 468.965 107.518C474.84 107.502 479.322 107.49 482.342 107.482C485.355 107.474 486.91 107.45 486.91 107.45Z" fill="#263238"/>
<path d="M239.042 178.952C200.274 185.325 261.4 253.986 295.998 281.079C316.031 296.768 337.547 313.781 347.061 337.38C357.856 364.155 349.855 394.25 355.086 421.184C355.954 425.655 362.565 424.952 362.498 420.398C362.241 402.72 362.712 385.049 365.641 367.643C369.796 342.957 379.287 318.536 396.588 300.444C410.711 285.677 429.229 275.864 444.294 262.057C466.289 241.902 488.882 215.905 491.086 186.154C491.086 186.154 448.857 152.138 425.416 156.432C398.022 161.45 371.053 203.721 328.605 198.88C298.966 195.5 284.009 171.562 239.042 178.952Z" fill="#03736D"/>
<path d="M235.595 546.455C236.574 536.761 239.16 525.789 247.764 521.215C252.977 518.445 259.323 518.753 265.031 520.255C270.74 521.756 276.104 524.352 281.763 526.033C292.897 529.339 305.094 528.953 315.996 524.948C326.514 521.084 335.543 514.1 345.311 508.609C355.078 503.119 366.51 499.026 377.383 501.732C396.133 506.398 405.891 528.97 424.428 534.421C432.668 536.842 441.515 535.483 449.891 533.585C458.266 531.687 466.674 529.251 475.256 529.573C481.98 529.824 488.977 532.149 493.691 536.757L493.641 536.693C493.689 536.74 493.729 536.791 493.777 536.841C494.552 537.608 495.264 538.438 495.902 539.332C501.652 546.997 502.571 557.304 500.803 566.663C498.823 577.143 493.927 586.83 488.673 596.11C482.484 607.042 475.455 617.928 465.223 625.216C452.6 634.208 436.725 628.002 421.276 629.221C385.239 632.064 346.467 634.006 310.425 631.212C291.388 629.735 273.543 631.799 258.436 620.119C247.807 611.903 240.896 599.517 237.563 586.502C234.23 573.487 234.245 559.821 235.595 546.455Z" fill="#03736D"/>
<g opacity="0.24">
<path d="M303.61 527.886C305.646 531.001 306.512 535.174 304.551 538.337C302.589 541.5 299.937 544.375 299.086 547.998C297.75 553.688 301.176 559.253 303.731 564.51C308.301 573.914 310.38 584.642 308.838 594.984C307.297 605.326 301.991 615.206 293.715 621.594C290.054 624.419 285.299 626.609 280.888 625.227C276.735 623.925 274.049 619.71 273.224 615.436C272.399 611.163 273.08 606.761 273.622 602.443C276.14 582.4 275.624 561.979 272.098 542.089C271.508 538.764 270.944 534.967 273.052 532.328C274.398 530.643 276.545 529.85 278.591 529.168C286.624 526.494 295.293 529.466 303.61 527.886Z" fill="black"/>
</g>
<path d="M512.175 638.817C512.175 638.817 512.899 626.736 497.144 620.011H220.292C220.292 620.011 205.856 627.318 204.078 638.566L512.175 638.817Z" fill="#263238"/>
<path d="M226.159 108.922C226.303 108.99 226.45 109.058 226.598 109.126L486.922 107.45C486.922 107.45 487.846 106.859 489.231 105.776C496.648 99.9749 492.485 88.0592 483.07 88.1349L230.405 90.1751C219.975 90.2601 216.729 104.466 226.159 108.922Z" fill="#263238"/>
<g opacity="0.24">
<path d="M267.82 208.226C267.296 209.23 269.249 211.4 272.982 214.713C276.726 218.029 282.191 222.577 289.139 228.177C296.124 233.731 304.586 240.428 315.367 246.677C320.766 249.797 326.778 252.628 333.351 254.931C336.656 256.04 340.082 257.07 343.685 257.788C347.267 258.556 351.006 259.066 354.85 259.242C362.517 259.682 370.315 258.559 377.293 256.174C384.232 253.766 390.151 250.373 395.326 246.969C400.516 243.528 404.99 240.132 409.207 236.881C413.406 233.622 417.233 230.48 420.654 227.526C434.329 215.678 441.52 206.965 440.133 205.284C438.7 203.535 429.021 209.077 413.934 218.347C410.164 220.662 406.039 223.195 401.612 225.912C397.191 228.605 392.434 231.578 387.584 234.328C382.719 237.077 377.642 239.577 372.377 241.199C367.147 242.762 361.57 243.505 355.638 243.173C343.781 242.567 332.274 238.39 322.305 233.578C312.284 228.675 303.325 223.127 295.508 218.751C287.702 214.326 281.025 211.057 276.166 209.319C271.3 207.576 268.324 207.26 267.82 208.226Z" fill="black"/>
</g>
<path d="M362.302 453.451C359.445 452.446 356.03 455.32 356.534 458.307C357.037 461.294 361.207 462.89 363.577 461.002C365.946 459.115 365.323 454.695 362.525 453.536" fill="#03736D"/>
<path d="M455.419 251.308C455.439 251.327 455.755 251.007 456.338 250.381C456.963 249.696 457.803 248.775 458.86 247.617C459.926 246.39 461.328 244.973 462.761 243.161C464.216 241.351 465.863 239.301 467.677 237.043C469.356 234.669 471.262 232.112 473.177 229.278C474.088 227.827 475.029 226.329 475.999 224.786C476.476 224.009 476.994 223.242 477.455 222.425C477.903 221.6 478.356 220.764 478.815 219.918C482.616 213.226 486 205.389 488.406 196.828C490.814 188.262 491.943 179.794 492.045 172.085C492.051 170.159 491.946 168.281 491.903 166.457C491.859 165.546 491.876 164.644 491.785 163.764C491.691 162.883 491.598 162.017 491.507 161.166C491.313 159.464 491.177 157.814 490.948 156.242C490.665 154.681 490.394 153.179 490.134 151.745C489.692 148.864 488.931 146.336 488.386 144.092C488.089 142.975 487.858 141.925 487.563 140.98C487.257 140.045 486.976 139.188 486.721 138.408C486.222 136.922 485.827 135.739 485.532 134.859C485.25 134.051 485.091 133.631 485.065 133.64C485.039 133.649 485.147 134.087 485.377 134.91C485.637 135.799 485.984 136.995 486.421 138.498C486.656 139.282 486.912 140.144 487.193 141.083C487.465 142.031 487.675 143.085 487.95 144.201C488.452 146.449 489.172 148.974 489.575 151.847C489.818 153.275 490.071 154.772 490.335 156.327C490.545 157.892 490.664 159.533 490.845 161.226C490.928 162.073 491.013 162.934 491.099 163.809C491.183 164.684 491.16 165.579 491.197 166.484C491.228 168.295 491.322 170.159 491.305 172.072C491.161 179.721 490.02 188.111 487.632 196.606C485.246 205.097 481.91 212.884 478.164 219.558C477.713 220.401 477.267 221.235 476.828 222.057C476.374 222.871 475.863 223.639 475.395 224.416C474.442 225.958 473.517 227.457 472.621 228.907C470.739 231.744 468.867 234.309 467.223 236.697C465.449 238.977 463.838 241.043 462.414 242.871C461.018 244.704 459.651 246.149 458.624 247.405C457.615 248.604 456.815 249.558 456.217 250.267C455.674 250.934 455.399 251.29 455.419 251.308Z" fill="#263238"/>
<path d="M470.069 480.759C470.082 480.753 469.983 480.58 469.78 480.251C469.552 479.889 469.248 479.409 468.861 478.799C468.443 478.15 467.936 477.367 467.343 476.45C467.041 475.985 466.715 475.484 466.369 474.953C465.989 474.443 465.544 473.929 465.094 473.37C464.182 472.255 463.169 471.018 462.064 469.668C460.875 468.387 459.513 467.061 458.084 465.601C455.151 462.766 451.605 459.738 447.481 456.679C439.283 450.465 428.706 444.29 417.242 437.085C411.552 433.423 405.564 429.565 399.902 424.869C394.232 420.209 388.766 414.836 384.341 408.426C375.615 395.452 372.07 380.422 371.761 366.988C371.409 353.45 374.288 341.394 377.681 331.783C381.115 322.137 385.053 314.795 387.912 309.843C389.342 307.361 390.518 305.471 391.325 304.198C391.708 303.585 392.008 303.103 392.235 302.742C392.436 302.411 392.533 302.238 392.522 302.231C392.512 302.223 392.391 302.38 392.167 302.697C391.925 303.049 391.602 303.516 391.191 304.11C390.337 305.357 389.118 307.222 387.643 309.686C384.695 314.599 380.665 321.924 377.145 331.593C373.667 341.226 370.707 353.351 371.02 367.006C371.077 370.41 371.352 373.896 371.873 377.422C372.361 380.953 373.107 384.527 374.134 388.09C376.12 395.233 379.308 402.325 383.676 408.879C388.159 415.376 393.688 420.797 399.405 425.482C405.116 430.203 411.133 434.061 416.846 437.714C428.354 444.899 438.936 451.007 447.143 457.139C451.273 460.158 454.827 463.139 457.774 465.93C459.208 467.367 460.582 468.672 461.78 469.93C462.9 471.257 463.924 472.473 464.849 473.569C465.306 474.119 465.759 474.623 466.146 475.125C466.502 475.647 466.835 476.136 467.147 476.593C467.763 477.492 468.29 478.258 468.724 478.893C469.138 479.485 469.464 479.951 469.709 480.3C469.936 480.607 470.058 480.766 470.069 480.759Z" fill="#263238"/>
<path d="M484.448 508.05C484.424 508.066 484.542 508.311 484.786 508.767C485.082 509.296 485.445 509.945 485.885 510.733C486.383 511.573 486.973 512.612 487.569 513.867C488.177 515.113 488.947 516.492 489.598 518.114C489.946 518.917 490.309 519.754 490.686 520.625C491.058 521.501 491.362 522.445 491.725 523.402C492.48 525.31 493.066 527.421 493.733 529.625C494.922 534.075 495.915 539.051 496.43 544.344C496.887 549.645 496.816 554.721 496.456 559.311C496.2 561.6 496.01 563.784 495.614 565.797C495.432 566.805 495.305 567.789 495.098 568.717C494.887 569.642 494.681 570.532 494.487 571.385C494.142 573.097 493.636 574.594 493.265 575.93C492.907 577.271 492.516 578.4 492.181 579.317C491.89 580.171 491.653 580.874 491.456 581.45C491.299 581.941 491.229 582.205 491.254 582.216C491.28 582.227 491.401 581.984 491.606 581.512C491.839 580.95 492.127 580.261 492.473 579.427C492.856 578.522 493.291 577.403 493.693 576.068C494.108 574.736 494.655 573.241 495.038 571.525C495.251 570.67 495.474 569.777 495.705 568.85C495.931 567.917 496.074 566.929 496.272 565.916C496.698 563.891 496.918 561.691 497.196 559.382C497.6 554.752 497.695 549.624 497.233 544.273C496.714 538.929 495.688 533.905 494.448 529.426C493.755 527.206 493.14 525.084 492.352 523.171C491.974 522.21 491.653 521.263 491.262 520.387C490.865 519.518 490.485 518.681 490.119 517.878C489.43 516.261 488.619 514.889 487.969 513.657C487.331 512.416 486.699 511.395 486.157 510.575C485.665 509.817 485.257 509.193 484.925 508.683C484.634 508.252 484.472 508.035 484.448 508.05Z" fill="#263238"/>
<path d="M293.487 545.169C293.479 545.181 293.586 545.257 293.8 545.397C294.058 545.558 294.373 545.756 294.764 546C295.677 546.548 296.928 547.3 298.511 548.252C299.334 548.74 300.241 549.277 301.231 549.862C302.242 550.42 303.382 550.95 304.585 551.558C307.015 552.73 309.712 554.222 312.895 555.426C314.469 556.071 316.115 556.746 317.829 557.45C319.551 558.141 321.409 558.674 323.297 559.327C327.056 560.7 331.218 561.678 335.568 562.813C344.339 564.765 354.152 566.195 364.531 566.527C374.916 566.737 384.795 565.82 393.657 564.33C398.061 563.425 402.268 562.665 406.095 561.489C408.015 560.936 409.899 560.499 411.654 559.9C413.403 559.287 415.082 558.698 416.689 558.136C419.929 557.101 422.701 555.753 425.188 554.709C426.422 554.164 427.586 553.693 428.626 553.189C429.644 552.656 430.578 552.165 431.426 551.722C433.057 550.854 434.345 550.17 435.286 549.669C435.687 549.447 436.013 549.265 436.279 549.118C436.5 548.99 436.611 548.919 436.603 548.906C436.597 548.894 436.473 548.942 436.239 549.047C435.964 549.175 435.625 549.333 435.208 549.527C434.254 549.994 432.944 550.633 431.287 551.442C430.433 551.866 429.491 552.334 428.464 552.842C427.418 553.324 426.247 553.771 425.009 554.295C422.513 555.296 419.737 556.604 416.497 557.599C414.894 558.144 413.215 558.712 411.468 559.305C409.715 559.886 407.836 560.305 405.922 560.842C402.106 561.985 397.914 562.716 393.531 563.597C384.707 565.042 374.882 565.93 364.555 565.721C354.233 565.391 344.472 563.99 335.736 562.087C331.405 560.978 327.257 560.03 323.507 558.689C321.624 558.053 319.768 557.537 318.049 556.865C316.334 556.181 314.689 555.524 313.116 554.897C309.932 553.734 307.228 552.284 304.788 551.154C303.578 550.565 302.432 550.057 301.413 549.521C300.414 548.959 299.498 548.443 298.667 547.975C297.054 547.081 295.779 546.373 294.85 545.858C294.444 545.641 294.114 545.467 293.847 545.323C293.615 545.21 293.494 545.156 293.487 545.169Z" fill="#263238"/>
<path d="M277.375 218.294C277.367 218.305 277.479 218.409 277.704 218.6C277.967 218.816 278.3 219.091 278.717 219.434C279.664 220.189 280.983 221.243 282.66 222.582C286.097 225.299 291.064 229.239 297.342 233.932C303.633 238.6 311.253 244.036 320.315 249.119C324.89 251.563 329.761 254.06 335.114 255.929C340.449 257.81 346.183 259.253 352.191 259.727C364.258 260.544 375.697 257.486 385.004 252.902C389.658 250.569 393.855 247.956 397.676 245.365C401.448 242.703 404.891 240.129 407.936 237.661C414.051 232.754 418.842 228.601 422.17 225.754C423.794 224.352 425.069 223.248 425.987 222.455C426.39 222.097 426.711 221.81 426.966 221.583C427.184 221.382 427.292 221.275 427.283 221.264C427.273 221.254 427.148 221.34 426.914 221.519C426.645 221.731 426.307 221.998 425.882 222.332C424.943 223.096 423.633 224.16 421.968 225.515C418.578 228.289 413.731 232.375 407.583 237.216C404.52 239.652 401.068 242.189 397.298 244.815C393.48 247.369 389.296 249.944 384.677 252.236C375.442 256.738 364.143 259.727 352.249 258.924C346.33 258.456 340.663 257.039 335.378 255.186C330.074 253.346 325.228 250.881 320.67 248.469C311.638 243.449 304.002 238.076 297.677 233.474C291.365 228.846 286.345 224.974 282.85 222.333C281.134 221.045 279.784 220.032 278.815 219.306C278.379 218.989 278.028 218.735 277.752 218.535C277.511 218.365 277.383 218.284 277.375 218.294Z" fill="#263238"/>
<g opacity="0.24">
<path d="M416.674 558.142C409.356 552.491 399.073 553.862 390.024 555.764C380.976 557.665 371.861 560.76 362.703 559.478C355.803 558.513 349.472 555.116 342.661 553.641C335.851 552.167 327.588 553.257 323.812 559.114C353.775 568.855 386.921 568.509 416.674 558.142Z" fill="black"/>
</g>
<path d="M161.281 516.231L194.545 478.987L194.882 524.259L184.87 553.297L284.367 570.555L288.587 492.049L295.75 431.757C296.628 424.37 292.414 417.319 285.492 414.593L258.11 403.811L219.544 410.886L204.03 416.783C197.517 419.259 191.711 423.296 187.124 428.543L140.423 481.948" fill="#03736D"/>
<path d="M196.875 470.081C196.867 469.922 194.686 470.245 191.256 469.686C187.861 469.156 183.169 467.496 179.277 463.914C175.391 460.323 173.356 455.781 172.554 452.439C171.72 449.066 171.864 446.866 171.706 446.871C171.658 446.869 171.579 447.412 171.566 448.4C171.549 449.388 171.644 450.826 172 452.567C172.678 456.022 174.695 460.774 178.732 464.506C182.775 468.228 187.676 469.854 191.174 470.25C192.938 470.463 194.379 470.443 195.363 470.346C196.348 470.251 196.881 470.129 196.875 470.081Z" fill="white"/>
<path d="M193.972 522.331C193.739 522.329 193.68 506.645 193.838 487.305C193.997 467.959 194.313 452.281 194.545 452.284C194.778 452.285 194.837 467.967 194.679 487.313C194.522 506.653 194.205 522.332 193.972 522.331Z" fill="#263238"/>
<path d="M197.609 533.839L257.73 509.637C262.578 507.685 265.9 503.15 266.297 497.939L270.697 440.299C270.697 440.299 270.177 415.785 285.489 414.591L294.2 418.021C305.458 424 308.247 440.392 306.715 453.047C304.537 471.03 303.63 496.476 301.193 512.083C299.199 524.85 291.888 536.08 279.393 539.368L205.344 555.398L197.609 533.839Z" fill="#03736D"/>
<path d="M269.832 449.092C269.804 449.091 269.739 449.545 269.642 450.413C269.546 451.352 269.418 452.618 269.256 454.211C268.949 457.588 268.516 462.345 267.985 468.19C267.475 474.118 266.873 481.139 266.202 488.929C266.039 490.881 265.87 492.881 265.699 494.925C265.52 496.968 265.396 499.061 264.931 501.092C264.491 503.131 263.512 505.04 261.943 506.493C260.383 507.952 258.432 509.02 256.395 509.945C239.817 517.119 224.538 523.041 213.448 527.195C207.941 529.223 203.462 530.874 200.281 532.046C198.78 532.599 197.586 533.04 196.701 533.367C195.885 533.676 195.461 533.85 195.47 533.878C195.479 533.904 195.921 533.781 196.753 533.521C197.651 533.229 198.861 532.837 200.384 532.343C203.53 531.3 208.067 529.737 213.644 527.731C224.8 523.708 240.102 517.874 256.729 510.678C258.795 509.738 260.826 508.637 262.493 507.077C264.173 505.526 265.251 503.401 265.697 501.273C266.178 499.14 266.291 497.031 266.464 494.994C266.626 492.951 266.785 490.949 266.941 488.996C267.546 481.199 268.091 474.172 268.552 468.238C268.976 462.384 269.322 457.621 269.568 454.237C269.667 452.64 269.746 451.37 269.804 450.428C269.851 449.553 269.86 449.094 269.832 449.092Z" fill="#263238"/>
<path d="M304.274 480.426C304.246 480.425 304.207 480.692 304.155 481.2C304.101 481.801 304.036 482.536 303.956 483.426C303.777 485.48 303.536 488.245 303.242 491.605C302.913 495.054 302.495 499.161 301.895 503.699C301.278 508.229 300.547 513.227 299.18 518.3C298.533 520.862 297.623 523.229 296.246 525.261C294.868 527.311 293.337 529.15 291.754 530.78C288.576 534.031 285.183 536.414 282.134 537.997C275.982 541.194 271.511 541.24 271.574 541.454C271.576 541.481 271.844 541.474 272.356 541.435C272.867 541.399 273.624 541.341 274.58 541.148C276.496 540.809 279.253 540.057 282.39 538.502C285.522 536.958 289.013 534.581 292.281 531.299C293.907 529.654 295.48 527.788 296.897 525.701C298.335 523.609 299.311 521.077 299.954 518.513C301.341 513.362 302.047 508.348 302.629 503.793C303.19 499.234 303.551 495.114 303.808 491.652C304.061 488.189 304.195 485.383 304.266 483.443C304.285 482.549 304.302 481.812 304.314 481.208C304.317 480.697 304.302 480.426 304.274 480.426Z" fill="#263238"/>
<path d="M278.57 520.761C278.651 520.737 278.397 519.452 277.475 517.557C276.565 515.667 274.88 513.222 272.427 511.118C269.965 509.024 267.287 507.744 265.276 507.14C263.261 506.527 261.951 506.476 261.94 506.561C261.915 506.695 263.177 506.945 265.089 507.677C267 508.402 269.531 509.713 271.904 511.73C274.267 513.758 275.958 516.053 276.973 517.826C277.995 519.598 278.44 520.805 278.57 520.761Z" fill="#263238"/>
<path d="M266.74 476.925C266.733 476.913 266.604 476.971 266.359 477.093C266.075 477.242 265.721 477.427 265.282 477.657C264.317 478.111 262.91 478.825 260.993 479.477C257.214 480.789 251.291 482.124 244.143 480.916C237.086 479.762 228.88 475.603 223.197 467.902C220.384 464.1 218.206 459.415 217.712 454.281C217.464 451.731 217.672 449.075 218.514 446.574C219.339 444.08 220.849 441.765 222.849 439.952C224.838 438.134 227.31 436.853 229.906 436.523C232.464 436.118 235.205 436.795 236.98 438.509C237.837 439.371 238.371 440.523 238.359 441.709C238.362 442.894 237.906 444.063 237.197 445.013C235.773 446.957 233.375 447.864 231.081 448.202C226.397 448.846 221.794 447.998 217.941 446.323C214.069 444.635 210.906 442.126 208.628 439.359C206.345 436.579 204.938 433.573 204.098 430.847C203.253 428.11 202.995 425.628 202.953 423.614C202.922 421.594 203.134 420.031 203.291 418.976C203.381 418.49 203.453 418.097 203.511 417.782C203.559 417.512 203.575 417.371 203.562 417.368C203.562 417.368 202.711 419.51 202.64 423.614C202.632 425.653 202.847 428.178 203.665 430.975C204.479 433.761 205.875 436.847 208.184 439.718C210.49 442.577 213.71 445.177 217.67 446.934C221.618 448.68 226.329 449.583 231.189 448.937C233.577 448.593 236.197 447.652 237.812 445.473C238.604 444.417 239.134 443.101 239.136 441.709C239.154 440.313 238.518 438.939 237.536 437.955C235.522 436.004 232.542 435.311 229.796 435.731C227.016 436.084 224.398 437.447 222.305 439.357C220.202 441.266 218.62 443.691 217.752 446.321C216.872 448.947 216.662 451.713 216.924 454.356C217.45 459.67 219.706 464.464 222.597 468.342C228.443 476.193 236.848 480.372 244.046 481.477C251.331 482.63 257.314 481.185 261.095 479.77C264.922 478.312 266.74 476.925 266.74 476.925Z" fill="white"/>
<path d="M306.122 461.552C306.159 461.518 305.823 461.068 305.135 460.321C304.442 459.579 303.368 458.562 301.887 457.496C298.97 455.301 294.137 453.306 288.588 452.782C285.814 452.487 283.122 452.62 280.749 453.111C278.374 453.604 276.331 454.404 274.709 455.233C273.084 456.058 271.855 456.872 271.036 457.47C270.221 458.072 269.801 458.444 269.83 458.486C269.913 458.613 271.711 457.253 274.955 455.748C278.162 454.212 283.072 452.932 288.503 453.584C293.941 454.101 298.628 455.942 301.564 457.965C304.539 459.945 306.011 461.664 306.122 461.552Z" fill="white"/>
<path d="M296.503 420.335C296.38 420.199 294.959 422.167 291.637 423.872C289.995 424.725 287.873 425.438 285.443 425.689C283.023 425.945 280.288 425.668 277.689 424.618C275.106 423.525 272.975 421.787 271.443 419.894C269.9 418 268.904 415.995 268.343 414.232C267.198 410.678 267.583 408.282 267.399 408.29C267.358 408.285 267.237 408.863 267.198 409.929C267.155 410.993 267.282 412.551 267.798 414.398C268.307 416.244 269.285 418.357 270.864 420.359C272.43 422.359 274.651 424.207 277.38 425.361C280.124 426.472 283.003 426.733 285.524 426.425C288.054 426.123 290.239 425.319 291.904 424.374C293.574 423.432 294.766 422.417 295.487 421.636C296.213 420.856 296.537 420.362 296.503 420.335Z" fill="white"/>
<path d="M244.119 515.115C244.147 515.112 244.103 514.721 243.994 513.977C243.824 513.25 243.586 512.147 242.928 510.866C241.716 508.276 238.695 505.033 233.928 503.054C229.228 500.943 222.766 500.535 216.252 502.421C213.075 503.368 209.427 504.534 207.04 507.638C205.874 509.164 205.474 511.438 206.364 513.291C207.215 515.155 208.889 516.437 210.648 517.335C212.441 518.21 214.387 518.706 216.34 518.745C218.275 518.782 220.294 518.302 221.804 517.051C223.328 515.818 224.132 513.914 224.251 512.097C224.391 510.266 224.019 508.496 223.432 506.889C220.87 500.458 215.688 496.37 211.041 494.347C206.316 492.279 202.038 492.062 199.214 492.316C196.366 492.609 194.893 493.225 194.893 493.225C194.918 493.33 196.424 492.821 199.238 492.628C202.029 492.473 206.216 492.777 210.806 494.866C213.084 495.907 215.435 497.4 217.552 499.445C219.66 501.479 221.555 504.086 222.734 507.144C223.287 508.679 223.622 510.358 223.483 512.037C223.361 513.705 222.643 515.364 221.302 516.445C219.977 517.54 218.158 517.986 216.35 517.949C214.533 517.914 212.685 517.443 211.003 516.621C209.348 515.782 207.817 514.576 207.09 512.968C206.331 511.371 206.65 509.476 207.677 508.103C208.694 506.701 210.182 505.689 211.699 504.911C213.226 504.139 214.863 503.615 216.449 503.141C222.828 501.258 229.092 501.596 233.706 503.587C238.387 505.456 241.374 508.534 242.645 511.018C243.966 513.504 244.004 515.148 244.119 515.115Z" fill="white"/>
<path d="M284.14 536.82C284.165 536.669 281.848 536.472 278.375 535.235C274.923 534.026 270.322 531.547 266.556 527.383C262.791 523.216 260.788 518.388 259.932 514.833C259.05 511.253 259.089 508.93 258.934 508.937C258.887 508.937 258.831 509.514 258.85 510.559C258.865 511.605 258.999 513.12 259.378 514.959C260.107 518.617 262.079 523.629 265.96 527.922C269.842 532.214 274.628 534.679 278.194 535.773C279.986 536.333 281.481 536.619 282.519 536.741C283.557 536.866 284.136 536.869 284.14 536.82Z" fill="white"/>
<path d="M303.633 492.015C303.64 491.989 303.392 491.889 302.907 491.725C302.422 491.566 301.702 491.343 300.76 491.105C298.883 490.651 296.085 490.029 292.571 490.273C290.823 490.41 288.908 490.809 287.003 491.649C285.11 492.488 283.215 493.807 281.809 495.725C280.431 497.642 279.585 500.133 279.79 502.734C279.886 504.03 280.283 505.332 280.983 506.495C281.687 507.639 282.744 508.679 284.134 509.13C285.503 509.561 287.113 509.341 288.196 508.326C289.264 507.292 289.532 505.84 289.596 504.58C289.694 502.016 289.139 499.558 288.18 497.427C286.268 493.116 282.71 490.285 279.412 489.107C276.09 487.878 273.143 487.969 271.236 488.298C270.272 488.464 269.544 488.679 269.061 488.849C268.581 489.03 268.335 489.136 268.344 489.163C268.369 489.241 269.376 488.843 271.28 488.606C273.165 488.378 276.028 488.383 279.207 489.637C282.362 490.843 285.707 493.589 287.504 497.728C288.402 499.77 288.911 502.121 288.81 504.539C288.75 505.721 288.474 506.961 287.646 507.744C286.832 508.516 285.507 508.72 284.378 508.362C283.235 507.994 282.299 507.102 281.665 506.075C281.037 505.032 280.669 503.855 280.577 502.667C280.376 500.286 281.145 497.949 282.413 496.156C283.704 494.36 285.48 493.082 287.28 492.255C289.09 491.424 290.931 491.007 292.622 490.837C296.029 490.526 298.811 491.048 300.692 491.407C302.581 491.797 303.616 492.077 303.633 492.015Z" fill="white"/>
<g opacity="0.3">
<path d="M214.881 526.968C221.31 523.337 227.6 520.546 234.322 517.492C241.043 514.437 247.628 510.516 252.026 504.587C260.323 493.403 259.378 477.263 267.871 466.228C267.317 473.649 266.762 481.069 266.208 488.49C265.7 495.29 266.742 502.017 262.36 506.638C258.671 510.531 251.475 513.517 246.38 515.197C236.143 518.575 225.12 523.591 214.881 526.968Z" fill="black"/>
</g>
<path d="M110.41 611.685C110.41 611.685 60.1064 625.607 58.0893 626.317C55.059 627.384 55.5672 638.486 60.284 638.313C62.5142 638.231 98.9223 639.669 103.522 639.382C108.123 639.094 122 633.625 122 633.625L110.41 611.685Z" fill="#03736D"/>
<path d="M89.4678 630.879C89.2145 630.913 88.8748 628.253 87.2515 625.478C85.6669 622.679 83.537 621.048 83.6945 620.848C83.7826 620.653 86.2815 622.071 87.9805 625.058C89.7088 628.026 89.6794 630.901 89.4678 630.879Z" fill="#263238"/>
<path d="M94.6954 628.501C94.4482 628.545 93.9401 626.166 92.5995 623.539C91.2851 620.898 89.6789 619.072 89.8596 618.899C89.9986 618.734 91.9632 620.379 93.3517 623.16C94.7602 625.93 94.9116 628.487 94.6954 628.501Z" fill="#263238"/>
<path d="M99.6247 627.183C99.3714 627.167 99.5645 624.655 98.4478 621.868C97.379 619.064 95.5318 617.348 95.7079 617.164C95.8083 616.972 98.0647 618.528 99.2308 621.563C100.431 624.582 99.8286 627.256 99.6247 627.183Z" fill="#263238"/>
<path d="M98.7294 620.686C98.6398 620.709 98.1934 619.303 98.1904 616.944C98.1934 615.768 98.3294 614.361 98.7001 612.841C98.8839 612.081 99.1325 611.297 99.4491 610.506C99.6113 610.108 99.7982 609.647 100.255 609.274C100.725 608.852 101.579 608.94 101.982 609.359C102.444 609.76 102.589 610.327 102.652 610.781C102.703 611.243 102.728 611.674 102.719 612.109C102.706 612.976 102.595 613.805 102.408 614.571C102.036 616.108 101.437 617.396 100.861 618.417C99.6885 620.459 98.6723 621.501 98.6012 621.446C98.4869 621.365 99.3286 620.193 100.333 618.142C100.827 617.116 101.343 615.856 101.652 614.403C101.806 613.677 101.894 612.903 101.894 612.105C101.871 611.332 101.883 610.366 101.431 609.993C101.191 609.794 100.975 609.782 100.765 609.938C100.543 610.108 100.357 610.452 100.214 610.817C99.9016 611.569 99.6484 612.313 99.4522 613.036C99.0568 614.482 98.8653 615.828 98.7865 616.964C98.6367 619.242 98.8653 620.666 98.7294 620.686Z" fill="#263238"/>
<path d="M98.7972 620.174C98.774 620.083 99.988 619.665 102.042 619.651C103.065 619.649 104.291 619.756 105.611 620.088C106.263 620.264 106.963 620.432 107.667 620.845C108.356 621.194 109.077 622.151 108.804 623.143C108.588 624.079 107.788 624.734 106.992 624.939C106.191 625.163 105.415 625.083 104.736 624.933C103.355 624.616 102.282 623.937 101.468 623.327C99.8552 622.062 99.069 621.095 99.1293 621.024C99.2173 620.917 100.17 621.745 101.809 622.839C102.634 623.365 103.665 623.935 104.895 624.175C105.506 624.292 106.166 624.328 106.761 624.148C107.352 623.986 107.845 623.534 107.985 622.953C108.129 622.391 107.789 621.876 107.238 621.549C106.699 621.215 106.032 621.022 105.412 620.837C104.167 620.482 103.004 620.318 102.022 620.246C100.053 620.108 98.8188 620.309 98.7972 620.174Z" fill="#263238"/>
<path d="M81.7346 631.418C81.4859 631.39 81.7315 629.239 80.743 626.88C79.8009 624.502 78.1221 623.137 78.2796 622.942C78.363 622.737 80.4666 623.929 81.5215 626.562C82.6072 629.183 81.9369 631.506 81.7346 631.418Z" fill="#263238"/>
<path d="M116.83 633.74C116.851 633.794 116.161 634.115 114.884 634.655C113.591 635.144 111.7 635.828 109.286 636.39C104.475 637.602 97.6162 638.29 90.0807 638.209C82.5421 638.126 75.7494 637.783 70.8225 637.585C68.4904 637.462 66.5366 637.358 64.9936 637.276C63.6175 637.185 62.8576 637.107 62.8592 637.048C62.8607 636.989 63.6237 636.957 65.0029 636.949C66.5474 636.96 68.5042 636.974 70.8395 636.991C75.9347 637.091 82.6532 637.222 90.0837 637.368C97.5853 637.446 104.361 636.859 109.154 635.809C113.963 634.821 116.771 633.584 116.83 633.74Z" fill="#263238"/>
<path d="M118.323 634.886C118.255 635.001 116.879 634.197 114.554 633.179C112.258 632.194 108.815 631.012 105.036 631.596C101.245 632.177 98.558 634.722 96.8081 636.49C95.0443 638.321 94.011 639.538 93.9091 639.451C93.8334 639.388 94.6922 638.052 96.371 636.086C97.2205 635.114 98.297 633.987 99.7071 632.967C101.1 631.943 102.895 631.072 104.904 630.765C108.959 630.144 112.532 631.499 114.806 632.638C117.113 633.82 118.374 634.804 118.323 634.886Z" fill="#263238"/>
<path d="M163.801 597.796C163.801 597.796 211.402 628.962 213.109 630.252C215.672 632.188 212.732 641.412 208.291 639.815C206.191 639.06 166.247 627.949 161.952 626.278C157.657 624.607 146.095 615.181 146.095 615.181L163.801 597.796Z" fill="#03736D"/>
<path d="M177.947 622.447C177.738 622.403 178.583 619.657 181.131 617.352C183.658 615.023 186.469 614.432 186.494 614.643C186.582 614.883 184.058 615.789 181.698 617.975C179.309 620.126 178.177 622.557 177.947 622.447Z" fill="#263238"/>
<path d="M173.671 618.589C173.47 618.51 174.391 616.119 176.573 613.908C178.74 611.679 181.112 610.709 181.194 610.908C181.315 611.128 179.23 612.379 177.176 614.496C175.1 616.594 173.892 618.705 173.671 618.589Z" fill="#263238"/>
<path d="M169.382 615.84C169.166 615.848 169.404 613.117 171.463 610.605C173.497 608.069 176.118 607.272 176.156 607.485C176.267 607.713 173.988 608.787 172.117 611.134C170.207 613.449 169.628 615.902 169.382 615.84Z" fill="#263238"/>
<path d="M172.201 609.921C172.076 609.861 172.728 608.572 173.279 606.358C173.549 605.252 173.776 603.911 173.838 602.413C173.87 601.664 173.855 600.878 173.785 600.067C173.759 599.676 173.687 599.292 173.528 599.061C173.375 598.848 173.166 598.796 172.876 598.913C172.332 599.129 172.05 600.055 171.793 600.784C171.551 601.545 171.399 602.308 171.327 603.046C171.18 604.524 171.288 605.882 171.447 607.009C171.781 609.269 172.227 610.642 172.094 610.684C172.009 610.716 171.359 609.413 170.86 607.111C170.621 605.964 170.44 604.554 170.553 602.977C170.608 602.191 170.754 601.364 171.005 600.536C171.127 600.118 171.282 599.715 171.472 599.29C171.67 598.876 171.98 598.38 172.542 598.138C173.055 597.861 173.895 598.038 174.213 598.581C174.535 599.077 174.573 599.571 174.607 600.001C174.667 600.85 174.666 601.673 174.612 602.453C174.504 604.013 174.206 605.395 173.852 606.517C173.131 608.767 172.28 609.969 172.201 609.921Z" fill="#263238"/>
<path d="M172.303 609.415C172.241 609.537 171.126 608.97 169.209 608.504C168.252 608.275 167.093 608.077 165.799 608.039C165.154 608.028 164.459 608.008 163.844 608.162C163.22 608.307 162.738 608.694 162.706 609.273C162.664 609.869 162.996 610.45 163.51 610.783C164.023 611.135 164.661 611.301 165.28 611.375C166.524 611.52 167.68 611.291 168.626 611.04C170.519 610.494 171.677 609.996 171.73 610.125C171.766 610.21 170.723 610.893 168.802 611.61C167.841 611.943 166.612 612.264 165.2 612.149C164.506 612.085 163.743 611.925 163.048 611.469C162.353 611.032 161.788 610.164 161.867 609.208C161.907 608.179 162.885 607.487 163.648 607.362C164.445 607.183 165.161 607.234 165.836 607.265C167.195 607.35 168.397 607.62 169.37 607.932C171.324 608.568 172.352 609.334 172.303 609.415Z" fill="#263238"/>
<path d="M202.23 638.076C202.175 638.151 201.429 637.595 201.065 636.232C200.666 634.902 200.917 632.858 201.956 631.066C202.453 630.162 203.023 629.379 203.552 628.689C204.072 627.997 204.611 627.372 205.167 626.955C205.717 626.525 206.293 626.332 206.688 626.318C207.087 626.301 207.289 626.399 207.283 626.448C207.282 626.579 206.432 626.516 205.552 627.41C205.105 627.835 204.661 628.433 204.179 629.146C203.691 629.854 203.159 630.624 202.694 631.471C201.731 633.149 201.443 634.885 201.647 636.112C201.82 637.344 202.341 637.995 202.23 638.076Z" fill="#263238"/>
<path d="M185.14 625.308C184.92 625.331 184.988 622.914 186.816 620.747C188.622 618.559 190.988 618.063 191.005 618.282C191.096 618.515 189.082 619.306 187.462 621.286C185.803 623.234 185.386 625.358 185.14 625.308Z" fill="#263238"/>
<path d="M150.998 616.862C151.039 616.812 151.768 617.348 153.09 618.298C154.429 619.225 156.396 620.522 158.959 621.894C161.52 623.268 164.68 624.695 168.282 626.044C171.887 627.387 175.929 628.655 180.204 629.894C188.768 632.359 196.52 634.614 202.114 636.296C204.797 637.119 207.022 637.803 208.729 638.327C210.286 638.824 211.138 639.125 211.123 639.183C211.107 639.238 210.222 639.043 208.639 638.642C206.914 638.185 204.664 637.589 201.952 636.869C196.314 635.332 188.542 633.17 179.969 630.702C175.686 629.46 171.626 628.163 168.007 626.768C164.391 625.369 161.222 623.871 158.672 622.414C156.119 620.961 154.182 619.574 152.896 618.559C151.623 617.523 150.965 616.9 150.998 616.862Z" fill="#263238"/>
<path d="M149.241 617.502C149.216 617.408 150.717 616.853 153.275 616.429C155.788 616.033 159.604 615.828 163.278 617.65C165.099 618.554 166.545 619.928 167.561 621.328C168.594 622.728 169.279 624.128 169.793 625.312C170.797 627.696 171.208 629.229 171.117 629.266C170.993 629.317 170.378 627.845 169.254 625.564C168.123 623.348 166.336 620.106 162.901 618.402C159.477 616.697 155.839 616.778 153.352 617.019C150.827 617.284 149.27 617.633 149.241 617.502Z" fill="#263238"/>
<path d="M64.8881 521.786C64.8881 521.786 50.6078 526.885 50.5491 542.898C50.4348 573.568 112.521 607.377 112.521 607.377L195.144 552.633L200.322 550.537C200.322 550.537 88.789 508.641 64.8881 521.786Z" fill="#263238"/>
<path d="M153.292 580.283C153.256 580.33 152.492 579.808 151.14 578.824C149.786 577.843 147.854 576.385 145.489 574.556C140.758 570.901 134.322 565.717 127.398 559.776C120.475 553.828 114.378 548.249 110.049 544.125C107.884 542.065 106.153 540.375 104.977 539.185C103.8 537.997 103.169 537.32 103.209 537.279C103.249 537.237 103.956 537.833 105.203 538.947C106.553 540.165 108.321 541.762 110.454 543.688C114.883 547.696 121.034 553.196 127.947 559.136C134.861 565.07 141.228 570.318 145.86 574.09C148.087 575.908 149.932 577.414 151.341 578.564C152.631 579.629 153.327 580.237 153.292 580.283Z" fill="#455A64"/>
<path d="M88.2089 533.252C88.178 533.046 91.8632 532.685 96.1707 533.974C100.489 535.232 103.388 537.534 103.249 537.69C103.112 537.91 100.1 535.99 95.9313 534.782C91.7782 533.534 88.2058 533.509 88.2089 533.252Z" fill="#455A64"/>
<path d="M95.3336 528.417C95.4077 528.218 98.0566 529.382 100.231 532.101C102.432 534.8 103.013 537.635 102.801 537.666C102.56 537.749 101.657 535.176 99.5747 532.631C97.5283 530.061 95.2023 528.635 95.3336 528.417Z" fill="#455A64"/>
<path d="M60.3466 625.533C60.3034 625.437 61.332 625.238 62.4765 626.178C63.6009 627.077 64.5569 628.876 64.8643 630.974C65.1747 633.087 64.7052 635.028 64.1106 636.262C63.5252 637.518 62.8827 638.106 62.8101 638.048C62.6973 637.969 63.1483 637.272 63.5576 636.041C63.9777 634.824 64.3144 633.031 64.0302 631.093C63.7476 629.165 62.9569 627.5 62.0765 626.62C61.2008 625.703 60.3296 625.667 60.3466 625.533Z" fill="#263238"/>
<path d="M83.8893 471.68L113.315 546.274L240.021 548.339L242.367 541.484L197.962 539.874L176.62 473.702L83.8893 471.68Z" fill="#455A64"/>
<path d="M143.062 503.974C141.435 502.872 138.431 503.314 136.969 504.624C135.506 505.935 135.032 508.204 135.776 510.022C136.519 511.84 138.393 513.114 140.354 513.219C142.438 513.33 144.611 512.026 145.193 510.023C145.774 508.02 145.127 505.03 143.062 503.974Z" fill="#EBEBEB"/>
<path d="M104.698 611.104C104.698 611.104 221.433 534.535 226.213 532.941C230.993 531.347 242.544 523.779 254.096 526.965C265.647 530.151 276.004 540.509 281.183 555.645C284.14 564.292 285.54 579.047 286.195 590.111C286.978 603.341 282.882 616.533 274.228 626.57C270.291 631.137 265.434 635.111 259.673 636.904C258.457 637.283 257.195 637.61 255.9 637.89C233.829 642.675 211.147 632.767 198.746 613.893L196.023 609.748C196.023 609.748 119.659 637.803 118.464 637.405L104.698 611.104Z" fill="#263238"/>
<path d="M249.123 590.028C249.123 590.028 248.911 590.136 248.482 590.311C248.02 590.495 247.387 590.747 246.572 591.069C244.849 591.733 242.364 592.69 239.17 593.919C232.677 596.365 223.312 599.893 211.668 604.279C199.984 608.638 185.991 613.82 170.289 619.534C154.587 625.241 137.185 631.507 118.602 637.799L118.264 637.914L118.098 637.597C115.181 632.024 112.103 626.146 108.978 620.18C107.386 617.137 105.806 614.118 104.329 611.297L104.15 610.955L104.473 610.749C139.527 588.498 170.886 568.589 193.519 554.223C204.82 547.095 213.938 541.343 220.266 537.351C223.4 535.395 225.84 533.873 227.53 532.818C228.34 532.322 228.971 531.937 229.426 531.658C229.856 531.4 230.086 531.287 230.086 531.287C230.086 531.287 229.885 531.448 229.469 531.729C229.023 532.024 228.408 532.432 227.616 532.957C225.945 534.041 223.531 535.609 220.433 537.619C214.139 541.663 205.067 547.49 193.826 554.711C171.232 569.133 139.923 589.117 104.929 611.455L105.072 610.908C106.549 613.727 108.129 616.748 109.723 619.789C112.844 625.755 115.921 631.637 118.837 637.209L118.335 637.007C136.909 630.732 154.318 624.497 170.035 618.835C185.727 613.123 199.744 608.022 211.472 603.754C223.153 599.468 232.549 596.023 239.062 593.633C242.278 592.464 244.78 591.553 246.514 590.923C247.341 590.629 247.985 590.402 248.453 590.237C248.893 590.086 249.123 590.028 249.123 590.028Z" fill="#455A64"/>
<path d="M237.006 318.116C235.016 312.735 230.616 310.398 225.041 309.048C219.465 307.698 213.261 309.297 209.031 313.172C206.201 315.763 204.127 319.345 200.633 320.93C194.878 323.538 187.505 319.727 182.052 322.914C178.824 324.802 177.237 329.097 178.467 332.629C179.696 336.161 183.604 338.546 187.307 338.021C183.557 339.793 182.858 345.436 185.44 348.681C188.023 351.926 192.795 352.805 196.786 351.676C200.775 350.547 204.09 347.762 206.908 344.721C209.727 341.68 212.195 338.305 215.246 335.497C218.297 332.689 222.105 330.428 226.248 330.274C231.858 330.065 237.034 333.835 239.979 338.614C242.924 343.393 244.022 349.059 244.843 354.612C245.663 360.166 246.282 365.831 248.424 371.02C248.676 371.629 249.036 372.305 249.68 372.44C250.611 372.634 251.294 371.603 251.668 370.727C255.887 360.839 258.137 350.116 258.252 339.366C258.318 333.123 257.619 327.279 253.742 322.385C249.865 317.49 240.923 314.444 237.006 318.116Z" fill="#263238"/>
<path d="M250.14 343.03L258.721 405.391C260.181 415.996 252.467 425.664 241.804 426.599C231.853 427.47 222.968 420.367 221.616 410.468C220.975 405.773 220.43 401.859 220.333 401.38C220.333 401.38 204.252 402.072 200.943 386.516C199.345 378.999 197.312 363.249 195.638 348.978C193.84 333.652 204.134 319.52 219.266 316.496L220.77 316.194C237.185 313.902 248.302 326.559 250.14 343.03Z" fill="#FFBE9D"/>
<path d="M220.267 401.162C220.267 401.162 230.281 399.995 239.441 391.323C239.441 391.323 236.879 403.505 221.037 405.209L220.267 401.162Z" fill="#EB996E"/>
<path d="M202.324 358.518C202.517 359.702 203.68 360.515 204.92 360.336C206.159 360.156 207.009 359.054 206.814 357.869C206.621 356.684 205.458 355.87 204.219 356.05C202.981 356.229 202.131 357.333 202.324 358.518Z" fill="#263238"/>
<path d="M200.562 355.964C200.896 356.199 202.334 354.614 204.733 354.142C207.12 353.635 209.125 354.517 209.326 354.171C209.428 354.015 209.042 353.547 208.164 353.142C207.299 352.738 205.906 352.455 204.414 352.759C202.924 353.065 201.778 353.865 201.168 354.572C200.544 355.286 200.4 355.861 200.562 355.964Z" fill="#263238"/>
<path d="M225.987 354.637C226.18 355.821 227.343 356.634 228.583 356.454C229.822 356.275 230.672 355.173 230.479 353.988C230.285 352.803 229.122 351.989 227.884 352.169C226.644 352.346 225.794 353.452 225.987 354.637Z" fill="#263238"/>
<path d="M224.248 351.704C224.583 351.939 226.023 350.355 228.418 349.882C230.806 349.375 232.811 350.257 233.013 349.911C233.115 349.755 232.732 349.287 231.852 348.884C230.987 348.48 229.594 348.197 228.103 348.501C226.613 348.809 225.467 349.609 224.857 350.314C224.233 351.026 224.088 351.602 224.248 351.704Z" fill="#263238"/>
<path d="M219.101 371.213C219.086 371.074 217.545 371.114 215.069 371.289C214.445 371.347 213.841 371.341 213.654 370.944C213.422 370.53 213.546 369.82 213.7 369.049C213.98 367.454 214.272 365.781 214.579 364.028C215.767 356.893 216.496 351.075 216.209 351.028C215.921 350.983 214.724 356.73 213.537 363.866C213.259 365.622 212.991 367.298 212.74 368.899C212.647 369.641 212.406 370.509 212.902 371.364C213.158 371.789 213.674 372.032 214.086 372.058C214.503 372.1 214.848 372.036 215.155 371.995C217.609 371.641 219.118 371.351 219.101 371.213Z" fill="#263238"/>
<path d="M226.433 371.462C226.039 371.518 226.553 374.119 224.695 376.411C222.843 378.707 220.012 378.968 220.063 379.336C220.06 379.506 220.781 379.717 221.958 379.515C223.113 379.325 224.717 378.621 225.853 377.22C226.986 375.816 227.267 374.19 227.143 373.104C227.027 371.998 226.607 371.413 226.433 371.462Z" fill="#263238"/>
<path d="M221.725 342.436C222.091 343.04 224.424 342.253 227.301 342.031C230.175 341.75 232.608 342.121 232.864 341.461C232.975 341.148 232.456 340.615 231.414 340.167C230.379 339.719 228.81 339.41 227.085 339.558C225.359 339.711 223.867 340.287 222.928 340.91C221.979 341.531 221.562 342.147 221.725 342.436Z" fill="#263238"/>
<path d="M200.056 348.854C200.586 349.314 202.124 348.42 204.104 347.995C206.069 347.502 207.843 347.629 208.117 346.982C208.231 346.671 207.857 346.179 207.02 345.811C206.194 345.442 204.899 345.264 203.543 345.578C202.187 345.893 201.105 346.624 200.525 347.319C199.935 348.018 199.817 348.625 200.056 348.854Z" fill="#263238"/>
<path d="M251.214 354.831C251.456 354.663 261.295 349.521 263.085 360.251C264.875 370.979 253.734 370.563 253.663 370.259C253.592 369.955 251.214 354.831 251.214 354.831Z" fill="#FFBE9D"/>
<path d="M256.264 365.647C256.305 365.605 256.472 365.747 256.812 365.839C257.144 365.928 257.689 365.937 258.214 365.635C259.279 365.029 259.932 363.071 259.662 361.128C259.526 360.147 259.166 359.251 258.692 358.539C258.233 357.809 257.634 357.345 257.047 357.339C256.457 357.302 256.109 357.711 256.029 358.036C255.935 358.36 256.04 358.563 255.986 358.59C255.96 358.623 255.726 358.45 255.739 357.991C255.748 357.77 255.831 357.497 256.049 357.248C256.272 356.996 256.633 356.827 257.038 356.803C257.875 356.723 258.746 357.359 259.268 358.141C259.835 358.919 260.262 359.922 260.415 361.023C260.707 363.196 259.938 365.405 258.462 366.11C257.74 366.433 257.072 366.311 256.706 366.112C256.326 365.903 256.23 365.673 256.264 365.647Z" fill="#EB996E"/>
<path d="M191.718 346.403C198.953 346.858 206.321 343.58 210.825 337.899C213.976 333.925 215.979 328.717 220.44 326.303C223.442 324.678 227.135 324.66 230.391 325.693C233.645 326.726 236.513 328.725 239.081 330.975C237.651 339.502 241.443 347.943 245.139 355.759C245.547 356.623 246.015 357.548 246.872 357.971C248.327 358.689 250.063 357.554 250.932 356.184C252.324 353.991 252.488 351.253 252.435 348.655C252.318 342.738 251.28 336.792 248.877 331.383C246.475 325.976 242.657 321.124 237.661 317.952C231.418 313.989 223.552 312.858 216.324 314.418C209.095 315.978 202.531 320.12 197.617 325.647C195.337 328.21 193.352 331.154 192.577 334.496" fill="#263238"/>
<path d="M623.967 597.994C623.981 597.986 623.889 597.765 623.696 597.342C623.48 596.882 623.191 596.263 622.821 595.476C622.078 593.828 621.111 591.331 620.249 588.007C618.547 581.366 617.954 571.217 620.468 559.163C621.636 553.127 623.519 546.652 625.819 539.789C628.083 532.912 630.713 525.616 632.861 517.73C634.985 509.863 636.662 501.322 636.34 492.368C636.014 483.398 633.359 474.443 630.437 465.53C627.522 456.603 624.507 447.875 623.604 439.099C622.583 430.337 624.458 421.736 628.449 414.689C632.315 407.565 637.178 401.474 640.819 395.165C644.516 388.876 646.828 382.409 648.254 376.395C651.017 364.267 650.048 354.051 648.725 347.317C647.29 340.547 645.69 337.047 645.69 337.047C645.674 337.054 645.736 337.284 645.869 337.73C646.02 338.217 646.224 338.868 646.484 339.699C647.02 341.429 647.712 344.013 648.37 347.386C649.579 354.106 650.433 364.254 647.614 376.246C646.161 382.194 643.838 388.576 640.154 394.779C636.523 401.014 631.638 407.08 627.695 414.285C623.619 421.412 621.659 430.292 622.699 439.192C623.607 448.117 626.645 456.902 629.553 465.819C632.474 474.724 635.098 483.585 635.43 492.405C635.76 501.221 634.126 509.68 632.035 517.509C629.922 525.357 627.323 532.655 625.086 539.551C622.816 546.436 620.957 552.961 619.824 559.04C617.376 571.185 618.075 581.435 619.899 588.098C620.821 591.434 621.849 593.927 622.651 595.557C623.055 596.329 623.374 596.936 623.611 597.388C623.834 597.796 623.953 598.002 623.967 597.994Z" fill="#263238"/>
<path d="M635.864 401.39C635.864 401.39 643.256 377.754 629.996 363.915C629.531 363.429 628.711 363.659 628.591 364.321C627.883 368.223 626.998 380.112 635.864 401.39Z" fill="#03736D"/>
<path d="M631.434 371.791C631.309 371.816 631.52 373.479 631.931 376.151C632.416 379.155 632.988 382.681 633.618 386.576C634.235 390.473 634.796 393.997 635.272 397.001C635.676 399.67 635.919 401.326 636.055 401.315C636.174 401.306 636.163 399.624 635.922 396.921C635.678 394.22 635.201 390.505 634.532 386.426C633.865 382.349 633.154 378.676 632.575 376.03C631.999 373.385 631.56 371.766 631.434 371.791Z" fill="#263238"/>
<path d="M627.193 457.137C627.193 457.137 622.673 432.788 604.482 426.755C603.842 426.544 603.226 427.129 603.43 427.771C604.628 431.552 609.407 442.475 627.193 457.137Z" fill="#03736D"/>
<path d="M609.434 433.045C609.335 433.125 610.299 434.497 611.913 436.667C613.748 439.094 615.901 441.944 618.278 445.093C620.647 448.249 622.791 451.103 624.616 453.534C626.223 455.704 627.211 457.054 627.325 456.981C627.427 456.918 626.63 455.437 625.154 453.16C623.674 450.888 621.516 447.825 619.017 444.534C616.522 441.241 614.174 438.328 612.426 436.26C610.679 434.191 609.533 432.963 609.434 433.045Z" fill="#263238"/>
<path d="M632.114 518.221C632.114 518.221 634.86 493.608 619.203 482.553C618.653 482.165 617.894 482.547 617.901 483.22C617.952 487.186 619.352 499.026 632.114 518.221Z" fill="#03736D"/>
<path d="M622.106 490.01C621.987 490.058 622.512 491.65 623.426 494.195C624.477 497.051 625.709 500.404 627.071 504.108C628.421 507.815 629.643 511.169 630.684 514.025C631.591 516.569 632.145 518.147 632.276 518.11C632.392 518.078 632.059 516.43 631.308 513.823C630.553 511.219 629.377 507.662 627.941 503.787C626.508 499.911 625.11 496.441 624.037 493.954C622.965 491.468 622.225 489.962 622.106 490.01Z" fill="#263238"/>
<path d="M618.399 579.662C618.399 579.662 620.261 554.967 604.22 544.479C603.657 544.111 602.911 544.519 602.943 545.191C603.135 549.154 604.959 560.935 618.399 579.662Z" fill="#03736D"/>
<path d="M607.398 551.828C607.281 551.88 607.863 553.452 608.867 555.964C610.019 558.781 611.371 562.086 612.864 565.739C614.345 569.395 615.688 572.703 616.83 575.52C617.828 578.03 618.437 579.587 618.566 579.546C618.681 579.511 618.29 577.875 617.445 575.296C616.597 572.72 615.294 569.209 613.72 565.387C612.149 561.564 610.626 558.148 609.466 555.701C608.31 553.253 607.516 551.774 607.398 551.828Z" fill="#263238"/>
<path d="M646.504 380.624C646.504 380.624 668.456 369.161 668.886 349.998C668.902 349.325 668.161 348.908 667.606 349.291C664.344 351.546 655.303 359.319 646.504 380.624Z" fill="#03736D"/>
<path d="M664.317 356.581C664.211 356.51 663.183 357.833 661.582 360.014C659.799 362.479 657.705 365.375 655.393 368.572C653.072 371.762 650.971 374.648 649.183 377.107C647.58 379.279 646.579 380.621 646.682 380.709C646.773 380.788 647.955 379.591 649.699 377.512C651.438 375.431 653.731 372.469 656.145 369.114C658.561 365.761 660.658 362.665 662.122 360.386C663.587 358.107 664.424 356.652 664.317 356.581Z" fill="#263238"/>
<path d="M622.919 431.384C622.919 431.384 645.528 421.274 647.12 402.175C647.176 401.504 646.461 401.043 645.886 401.39C642.493 403.444 632.997 410.652 622.919 431.384Z" fill="#03736D"/>
<path d="M642.17 408.469C642.068 408.391 640.962 409.65 639.231 411.729C637.302 414.081 635.036 416.844 632.534 419.895C630.024 422.937 627.752 425.691 625.817 428.037C624.084 430.108 623.005 431.386 623.102 431.48C623.188 431.563 624.439 430.44 626.307 428.471C628.169 426.5 630.637 423.683 633.251 420.48C635.866 417.28 638.147 414.316 639.747 412.131C641.348 409.947 642.272 408.546 642.17 408.469Z" fill="#263238"/>
<path d="M635.923 488.005C635.923 488.005 651.445 468.708 644.164 450.979C643.909 450.357 643.061 450.272 642.708 450.843C640.621 454.218 635.452 464.96 635.923 488.005Z" fill="#03736D"/>
<path d="M642.629 458.836C642.503 458.813 642.092 460.438 641.497 463.077C640.852 466.05 640.093 469.541 639.255 473.397C638.405 477.249 637.638 480.735 636.983 483.705C636.384 486.339 636.004 487.968 636.135 488.007C636.249 488.042 636.853 486.471 637.618 483.869C638.377 481.266 639.293 477.634 640.16 473.593C641.031 469.555 641.71 465.876 642.14 463.202C642.571 460.527 642.755 458.859 642.629 458.836Z" fill="#263238"/>
<path d="M620.563 554.638C620.563 554.638 642.997 544.149 644.27 525.027C644.314 524.355 643.591 523.905 643.022 524.264C639.662 526.372 630.289 533.739 620.563 554.638Z" fill="#03736D"/>
<path d="M639.424 531.4C639.32 531.325 638.236 532.602 636.54 534.709C634.651 537.093 632.432 539.894 629.982 542.986C627.523 546.07 625.298 548.861 623.403 551.239C621.705 553.338 620.647 554.634 620.746 554.727C620.834 554.809 622.067 553.666 623.9 551.666C625.729 549.664 628.15 546.805 630.71 543.56C633.27 540.317 635.501 537.314 637.064 535.104C638.627 532.892 639.527 531.476 639.424 531.4Z" fill="#263238"/>
<path d="M575.871 457.268C575.849 457.27 575.84 457.455 575.843 457.813C575.854 458.244 575.866 458.765 575.882 459.396C575.948 460.884 576.036 462.893 576.147 465.401C576.436 470.68 576.839 478.041 577.323 486.847L577.324 486.867L577.33 486.898C578.932 495.859 583.496 505.791 589.626 515.435C594.123 522.538 598.837 528.997 602.902 535.003C606.995 540.993 610.449 546.541 612.857 551.457C615.28 556.365 616.688 560.583 617.513 563.532C617.907 565.011 618.204 566.165 618.375 566.954C618.559 567.74 618.672 568.151 618.704 568.146C618.735 568.14 618.685 567.719 618.559 566.919C618.448 566.116 618.207 564.945 617.864 563.442C617.142 560.45 615.816 556.16 613.448 551.173C611.096 546.178 607.675 540.556 603.613 534.528C599.576 528.478 594.886 522.01 590.414 514.942C584.316 505.346 579.775 495.565 578.115 486.748L578.121 486.799C577.503 478.003 576.986 470.65 576.615 465.375C576.413 462.873 576.251 460.868 576.13 459.384C576.067 458.756 576.014 458.238 575.971 457.809C575.923 457.45 575.891 457.268 575.871 457.268Z" fill="#263238"/>
<path d="M589.233 513.592C589.233 513.592 579.731 490.723 591.682 475.74C592.102 475.215 592.94 475.369 593.119 476.017C594.177 479.839 596.135 491.599 589.233 513.592Z" fill="#03736D"/>
<path d="M590.966 483.713C590.84 483.699 590.548 485.353 590.212 488.04C589.876 490.728 589.5 494.45 589.205 498.571C588.907 502.693 588.77 506.437 588.771 509.149C588.778 511.863 588.917 513.538 589.037 513.537C589.173 513.535 589.264 511.864 589.426 509.169C589.629 506.136 589.867 502.574 590.131 498.637C590.406 494.7 590.654 491.137 590.866 488.102C591.034 485.401 591.094 483.727 590.966 483.713Z" fill="#263238"/>
<g opacity="0.3">
<path d="M589.233 513.592C589.233 513.592 579.731 490.723 591.682 475.74C592.102 475.215 592.94 475.369 593.119 476.017C594.177 479.839 596.135 491.599 589.233 513.592Z" fill="black"/>
</g>
<path d="M618.665 568.704C618.665 568.704 611.049 545.138 624.177 531.174C624.639 530.683 625.459 530.906 625.586 531.567C626.33 535.462 627.328 547.344 618.665 568.704Z" fill="#03736D"/>
<path d="M622.802 539.064C622.677 539.041 622.252 540.664 621.701 543.316C621.148 545.966 620.471 549.645 619.843 553.729C619.211 557.814 618.771 561.533 618.552 564.236C618.337 566.94 618.342 568.622 618.461 568.63C618.596 568.639 618.822 566.982 619.202 564.309C619.65 561.301 620.176 557.771 620.757 553.868C621.35 549.966 621.888 546.436 622.345 543.427C622.733 540.752 622.927 539.087 622.802 539.064Z" fill="#263238"/>
<g opacity="0.3">
<path d="M618.665 568.704C618.665 568.704 611.049 545.138 624.177 531.174C624.639 530.683 625.459 530.906 625.586 531.567C626.33 535.462 627.328 547.344 618.665 568.704Z" fill="black"/>
</g>
<path d="M577.127 485.642C577.127 485.642 556.839 471.439 558.887 452.383C558.959 451.714 559.748 451.396 560.247 451.845C563.191 454.505 571.153 463.38 577.127 485.642Z" fill="#03736D"/>
<g opacity="0.3">
<path d="M577.127 485.642C577.127 485.642 556.839 471.439 558.887 452.383C558.959 451.714 559.748 451.396 560.247 451.845C563.191 454.505 571.153 463.38 577.127 485.642Z" fill="black"/>
</g>
<path d="M562.557 459.498C562.443 459.555 563.084 461.106 564.242 463.554C565.401 466.002 567.08 469.344 569.043 472.981C571.003 476.62 572.895 479.853 574.351 482.14C575.811 484.426 576.828 485.765 576.929 485.7C577.043 485.626 576.225 484.168 574.915 481.807C573.458 479.138 571.749 476.004 569.858 472.541C567.979 469.072 566.277 465.931 564.826 463.256C563.52 460.888 562.672 459.443 562.557 459.498Z" fill="#263238"/>
<path d="M610.486 545.343C610.486 545.343 586.017 541.528 579.462 523.517C579.232 522.886 579.801 522.253 580.448 522.436C584.261 523.525 595.318 527.986 610.486 545.343Z" fill="#03736D"/>
<g opacity="0.3">
<path d="M610.486 545.343C610.486 545.343 586.017 541.528 579.462 523.517C579.232 522.886 579.801 522.253 580.448 522.436C584.261 523.525 595.318 527.986 610.486 545.343Z" fill="black"/>
</g>
<path d="M585.888 528.289C585.811 528.391 587.07 529.499 589.187 531.188C591.305 532.876 594.284 535.137 597.648 537.537C601.011 539.94 604.133 542.01 606.449 543.423C608.767 544.833 610.27 545.587 610.331 545.483C610.401 545.366 609.023 544.418 606.807 542.875C604.323 541.12 601.409 539.06 598.187 536.783C594.972 534.496 592.06 532.426 589.581 530.664C587.365 529.112 585.967 528.187 585.888 528.289Z" fill="#263238"/>
<path d="M633.822 590.374L640.959 638.415H596.478L602.245 590.374H633.822Z" fill="#455A64"/>
<path d="M600.46 605.259C600.46 605.515 608.492 605.722 618.396 605.722C628.304 605.722 636.334 605.515 636.334 605.259C636.334 605.003 628.304 604.796 618.396 604.796C608.492 604.797 600.46 605.004 600.46 605.259Z" fill="#263238"/>
<path d="M599.574 609.082C599.574 609.338 607.87 609.545 618.099 609.545C628.333 609.545 636.625 609.338 636.625 609.082C636.625 608.825 628.333 608.618 618.099 608.618C607.87 608.62 599.574 608.827 599.574 609.082Z" fill="#263238"/>
</svg>
