<svg width="384" height="384" viewBox="0 0 384 384" fill="none" xmlns="http://www.w3.org/2000/svg">
<path d="M291.176 112.236C319.45 133.129 372.008 265.363 349.866 314.031C329.076 359.727 180.561 357.969 106.921 351.825C33.2812 345.681 14.1427 311.482 27.3907 247.872C44.8588 163.968 71.0784 106.003 120.522 98.1235C172.266 89.879 260.924 89.879 291.176 112.236Z" fill="#D2FFDC"/>
<path d="M334.697 123.729L333.518 126.801C333.445 126.99 333.333 127.162 333.189 127.305C333.046 127.449 332.874 127.561 332.685 127.634L329.613 128.809C329.344 128.916 329.114 129.102 328.952 129.341C328.79 129.581 328.703 129.864 328.703 130.153C328.703 130.442 328.79 130.725 328.952 130.964C329.114 131.204 329.344 131.389 329.613 131.497L332.685 132.676C332.875 132.748 333.047 132.859 333.191 133.003C333.334 133.147 333.446 133.319 333.518 133.509L334.697 136.581C334.804 136.85 334.99 137.08 335.23 137.242C335.469 137.404 335.752 137.491 336.041 137.491C336.33 137.491 336.613 137.404 336.852 137.242C337.092 137.08 337.277 136.85 337.385 136.581L338.564 133.509C338.636 133.32 338.747 133.148 338.89 133.004C339.033 132.861 339.204 132.749 339.393 132.676L342.465 131.497C342.734 131.389 342.964 131.204 343.126 130.964C343.288 130.725 343.375 130.442 343.375 130.153C343.375 129.864 343.288 129.581 343.126 129.341C342.964 129.102 342.734 128.916 342.465 128.809L339.393 127.634C339.205 127.56 339.034 127.448 338.891 127.304C338.748 127.161 338.637 126.989 338.564 126.801L337.385 123.729C337.277 123.46 337.092 123.23 336.852 123.068C336.613 122.906 336.33 122.819 336.041 122.819C335.752 122.819 335.469 122.906 335.23 123.068C334.99 123.23 334.804 123.46 334.697 123.729Z" fill="#D2FFDC"/>
<path d="M15.1633 183.068L13.4391 187.569C13.3323 187.847 13.168 188.1 12.957 188.311C12.7459 188.522 12.4928 188.687 12.2141 188.794L7.71366 190.522C7.31125 190.675 6.96502 190.948 6.72075 191.303C6.47649 191.657 6.3457 192.078 6.3457 192.509C6.3457 192.94 6.47649 193.36 6.72075 193.715C6.96502 194.07 7.31125 194.342 7.71366 194.496L12.2103 196.224C12.4892 196.33 12.7427 196.494 12.9544 196.704C13.166 196.914 13.3312 197.167 13.4391 197.445L15.1671 201.949C15.3216 202.351 15.5939 202.696 15.9483 202.939C16.3027 203.182 16.7225 203.312 17.1524 203.312C17.5822 203.312 18.002 203.182 18.3564 202.939C18.7108 202.696 18.9832 202.351 19.1377 201.949L20.8695 197.445C20.9759 197.168 21.1392 196.916 21.3489 196.706C21.5585 196.495 21.8099 196.331 22.0868 196.224L26.5911 194.496C26.9935 194.342 27.3397 194.07 27.584 193.715C27.8283 193.36 27.9591 192.94 27.9591 192.509C27.9591 192.078 27.8283 191.657 27.584 191.303C27.3397 190.948 26.9935 190.675 26.5911 190.522L22.0868 188.794C21.8086 188.687 21.556 188.522 21.3456 188.311C21.1352 188.1 20.9716 187.847 20.8657 187.569L19.1338 183.068C18.9794 182.667 18.707 182.322 18.3526 182.079C17.9982 181.835 17.5784 181.705 17.1485 181.705C16.7187 181.705 16.2989 181.835 15.9445 182.079C15.5901 182.322 15.3177 182.667 15.1633 183.068Z" fill="#D2FFDC"/>
<path d="M234.646 225.128L233.494 228.154C233.422 228.341 233.311 228.511 233.169 228.652C233.026 228.794 232.856 228.904 232.668 228.975L229.646 230.127C229.376 230.231 229.143 230.413 228.979 230.652C228.815 230.89 228.728 231.172 228.728 231.462C228.728 231.751 228.815 232.034 228.979 232.272C229.143 232.51 229.376 232.693 229.646 232.796L232.668 233.948C232.856 234.02 233.026 234.13 233.168 234.272C233.31 234.413 233.421 234.583 233.494 234.77L234.646 237.796C234.745 238.072 234.928 238.312 235.169 238.481C235.409 238.65 235.696 238.74 235.99 238.74C236.284 238.74 236.571 238.65 236.811 238.481C237.052 238.312 237.234 238.072 237.334 237.796L238.486 234.77C238.557 234.583 238.667 234.413 238.809 234.271C238.95 234.13 239.12 234.019 239.308 233.948L242.33 232.796C242.6 232.693 242.832 232.51 242.996 232.272C243.161 232.034 243.248 231.751 243.248 231.462C243.248 231.172 243.161 230.89 242.996 230.652C242.832 230.413 242.6 230.231 242.33 230.127L239.308 228.975C239.12 228.905 238.95 228.795 238.808 228.653C238.666 228.511 238.557 228.341 238.486 228.154L237.334 225.128C237.234 224.851 237.052 224.612 236.811 224.443C236.571 224.274 236.284 224.183 235.99 224.183C235.696 224.183 235.409 224.274 235.169 224.443C234.928 224.612 234.745 224.851 234.646 225.128Z" fill="white"/>
<path d="M113.952 313.283L113.184 315.314C113.136 315.44 113.062 315.554 112.966 315.65C112.871 315.745 112.757 315.819 112.631 315.867L110.599 316.635C110.418 316.704 110.262 316.827 110.152 316.987C110.041 317.147 109.982 317.337 109.982 317.532C109.982 317.726 110.041 317.916 110.152 318.076C110.262 318.236 110.418 318.359 110.599 318.428L112.631 319.196C112.756 319.245 112.87 319.319 112.966 319.414C113.061 319.51 113.135 319.624 113.184 319.749L113.952 321.784C114.021 321.966 114.144 322.122 114.304 322.232C114.464 322.342 114.654 322.401 114.848 322.401C115.043 322.401 115.233 322.342 115.393 322.232C115.553 322.122 115.676 321.966 115.745 321.784L116.513 319.749C116.562 319.624 116.637 319.51 116.732 319.415C116.827 319.32 116.941 319.245 117.066 319.196L119.101 318.428C119.283 318.359 119.439 318.236 119.549 318.076C119.659 317.916 119.718 317.726 119.718 317.532C119.718 317.337 119.659 317.147 119.549 316.987C119.439 316.827 119.283 316.704 119.101 316.635L117.066 315.867C116.94 315.818 116.826 315.744 116.731 315.649C116.636 315.554 116.562 315.439 116.513 315.314L115.745 313.283C115.676 313.101 115.553 312.945 115.393 312.835C115.233 312.725 115.043 312.666 114.848 312.666C114.654 312.666 114.464 312.725 114.304 312.835C114.144 312.945 114.021 313.101 113.952 313.283Z" fill="white"/>
<path d="M135.842 113.664L135.074 115.695C135.026 115.821 134.952 115.936 134.857 116.031C134.762 116.126 134.647 116.2 134.521 116.248L132.49 117.016C132.309 117.086 132.152 117.209 132.042 117.369C131.932 117.529 131.873 117.719 131.873 117.913C131.873 118.107 131.932 118.297 132.042 118.457C132.152 118.617 132.309 118.74 132.49 118.81L134.521 119.578C134.647 119.626 134.762 119.7 134.857 119.795C134.952 119.89 135.026 120.005 135.074 120.131L135.842 122.162C135.912 122.343 136.035 122.5 136.195 122.61C136.355 122.72 136.545 122.779 136.739 122.779C136.933 122.779 137.123 122.72 137.283 122.61C137.443 122.5 137.566 122.343 137.636 122.162L138.404 120.131C138.452 120.005 138.526 119.89 138.621 119.795C138.716 119.7 138.831 119.626 138.957 119.578L140.988 118.81C141.17 118.74 141.326 118.617 141.436 118.457C141.546 118.297 141.605 118.107 141.605 117.913C141.605 117.719 141.546 117.529 141.436 117.369C141.326 117.209 141.17 117.086 140.988 117.016L138.957 116.248C138.831 116.2 138.716 116.126 138.621 116.031C138.526 115.936 138.452 115.821 138.404 115.695L137.636 113.664C137.566 113.482 137.443 113.326 137.283 113.216C137.123 113.106 136.933 113.047 136.739 113.047C136.545 113.047 136.355 113.106 136.195 113.216C136.035 113.326 135.912 113.482 135.842 113.664Z" fill="white"/>
<path d="M172.53 197.153C172.384 203.478 178.121 208.673 185.344 208.673C192.567 208.673 198.362 203.462 198.281 197.153C198.204 190.936 192.467 185.975 185.467 185.975C178.467 185.975 172.676 190.936 172.53 197.153Z" fill="#85FFA7"/>
<path d="M83.3264 348.518C86.255 349.13 89.3065 349.674 92.4809 350.15L100.507 277.432H109.795C121.104 277.432 129.637 286.548 128.796 298.038L124.764 353.119C127.805 353.311 130.922 353.491 134.114 353.66L137.597 298.038C138.615 281.837 126.496 269.119 110.621 269.119H101.428L108.974 200.717H151.214C152.366 214.971 164.727 226.671 181.043 228.434L179.664 354.996C182.913 355.014 186.179 355.014 189.464 354.996V270.394H322.712L332.876 331.354C335.748 329.65 338.463 327.695 340.99 325.513L331.183 270.397H354.565C354.334 267.709 354.035 264.991 353.682 262.226H329.728L318.784 200.717H338.752C337.945 198.339 337.121 195.974 336.279 193.624H257.862L255.113 164.713C254.229 155.432 244.66 148.063 233.762 148.063C226.85 148.063 220.975 143.455 220.706 137.891L220.591 135.487H309.614C308.431 133.51 307.255 131.626 306.085 129.834H220.334L218.636 93.9955C216.44 93.8496 214.228 93.7216 212.001 93.6115L213.326 129.838H189.414V93.0778C187.11 93.0778 184.814 93.0957 182.525 93.1315L182.141 129.838H116.792L120.286 98.1696C117.98 98.5437 115.695 99.0359 113.44 99.6442L109.788 129.838H71.6029C70.2281 131.651 68.888 133.533 67.5824 135.487H109.104L102.069 193.624H41.2515C40.5091 195.956 39.7833 198.321 39.0742 200.717H101.213L92.9264 269.119H24.0982C23.8422 271.963 23.6643 274.734 23.5645 277.432H91.9165L83.3264 348.518ZM250.174 193.624H219.262C216.905 180.184 204.524 169.859 189.418 168.361V135.487H213.533L213.621 137.891C213.944 146.696 223.16 154.019 234.154 154.019C241.143 154.019 247.233 158.769 247.732 164.698L250.174 193.624ZM189.437 228.434C205.772 226.671 218.268 214.971 219.558 200.717H311.038L321.326 262.226H189.445L189.437 228.434ZM159.869 197.153C160.364 184.927 171.842 175.311 185.524 175.311C199.206 175.311 210.58 184.911 210.945 197.153C211.329 209.825 199.84 220.397 185.282 220.397C170.725 220.397 159.358 209.81 159.869 197.153ZM109.753 193.624L116.17 135.487H182.053L181.696 168.361C166.574 169.859 154.086 180.173 151.586 193.624H109.753Z" fill="white"/>
<path d="M268.246 185.057H317.186L312.655 159.821H265.446L268.246 185.057Z" fill="#85FFA7"/>
<path d="M34.9004 319.926H77.317L82.0057 284.463H41.3631L34.9004 319.926Z" fill="#85FFA7"/>
<path d="M58.8926 188.275H94.7159L98.0836 162.812H63.5313L58.8926 188.275Z" fill="#85FFA7"/>
<path d="M163.463 126.858H177.867L178.193 109.375H164.154L163.463 126.858Z" fill="#85FFA7"/>
<path d="M271.383 255.725H312.67L310.117 239.201H269.966L271.383 255.725Z" fill="#85FFA7"/>
<g opacity="0.1">
<path d="M303.664 113.864C305.2 160.8 245.461 199.457 170.247 199.457C95.0327 199.457 34.7294 160.8 35.5473 113.864C36.3537 67.7299 96.0887 30.9197 168.987 30.9197C241.886 30.9197 302.166 67.7299 303.664 113.864Z" fill="#03736D"/>
</g>
<g opacity="0.2">
<path d="M250.794 110.88C251.715 139.296 215.546 162.72 169.996 162.72C124.446 162.72 87.9276 139.296 88.4229 110.88C88.9145 82.9402 125.087 60.6451 169.232 60.6451C213.377 60.6451 249.887 82.944 250.794 110.88Z" fill="#03736D"/>
</g>
<g opacity="0.3">
<path d="M205.298 111.325C205.705 123.821 189.808 134.112 169.782 134.112C149.756 134.112 133.709 123.821 133.928 111.325C134.139 99.0375 150.056 89.2455 169.448 89.2455C188.84 89.2455 204.903 99.0451 205.298 111.325Z" fill="#03736D"/>
</g>
<path d="M260.41 257.23H312.576C313.32 257.23 314.034 256.934 314.561 256.408C315.087 255.881 315.383 255.167 315.383 254.423V228.426H257.603V254.423C257.603 255.167 257.898 255.881 258.425 256.408C258.951 256.934 259.665 257.23 260.41 257.23Z" fill="#03736D"/>
<path d="M254.776 221.153H261.988V229.167C261.988 230.124 261.608 231.041 260.932 231.717C260.256 232.393 259.338 232.773 258.382 232.773C257.426 232.773 256.509 232.393 255.832 231.717C255.156 231.041 254.776 230.124 254.776 229.167V221.153Z" fill="#EF9F20"/>
<path d="M261.992 221.153H269.204V229.167C269.204 230.124 268.824 231.041 268.148 231.717C267.471 232.393 266.554 232.773 265.598 232.773C264.642 232.773 263.724 232.393 263.048 231.717C262.372 231.041 261.992 230.124 261.992 229.167V221.153Z" fill="#49A12A"/>
<path d="M269.203 221.153H276.415V229.167C276.415 230.124 276.035 231.041 275.359 231.717C274.682 232.393 273.765 232.773 272.809 232.773C271.853 232.773 270.935 232.393 270.259 231.717C269.583 231.041 269.203 230.124 269.203 229.167V221.153Z" fill="#EF9F20"/>
<path d="M276.415 221.153H283.627V229.167C283.627 230.124 283.247 231.041 282.57 231.717C281.894 232.393 280.977 232.773 280.021 232.773C279.064 232.773 278.147 232.393 277.471 231.717C276.795 231.041 276.415 230.124 276.415 229.167V221.153Z" fill="#49A12A"/>
<path d="M283.63 221.153H290.841V229.167C290.841 230.124 290.462 231.041 289.785 231.717C289.109 232.393 288.192 232.773 287.236 232.773C286.279 232.773 285.362 232.393 284.686 231.717C284.01 231.041 283.63 230.124 283.63 229.167V221.153Z" fill="#EF9F20"/>
<path d="M290.842 221.153H298.053V229.167C298.053 230.124 297.673 231.041 296.997 231.717C296.321 232.393 295.404 232.773 294.448 232.773C293.491 232.773 292.574 232.393 291.898 231.717C291.222 231.041 290.842 230.124 290.842 229.167V221.153Z" fill="#49A12A"/>
<path d="M298.057 221.153H305.28V229.167C305.28 230.124 304.9 231.041 304.224 231.717C303.547 232.393 302.63 232.773 301.674 232.773C300.718 232.773 299.8 232.393 299.124 231.717C298.448 231.041 298.068 230.124 298.068 229.167V221.153H298.057Z" fill="#EF9F20"/>
<path d="M305.28 221.153H312.492V229.167C312.492 230.124 312.112 231.041 311.436 231.717C310.759 232.393 309.842 232.773 308.886 232.773C307.93 232.773 307.013 232.393 306.336 231.717C305.66 231.041 305.28 230.124 305.28 229.167V221.153Z" fill="#49A12A"/>
<path d="M312.48 221.153H319.692V229.167C319.692 230.124 319.312 231.041 318.636 231.717C317.96 232.393 317.043 232.773 316.086 232.773C315.13 232.773 314.213 232.393 313.537 231.717C312.86 231.041 312.48 230.124 312.48 229.167V221.153Z" fill="#EF9F20"/>
<path d="M319.695 221.153H254.776L260.878 213.22C261.405 212.536 262.081 211.983 262.856 211.603C263.63 211.223 264.481 211.026 265.344 211.027H309.12C309.981 211.027 310.831 211.225 311.604 211.605C312.377 211.985 313.053 212.537 313.578 213.22L319.695 221.153Z" fill="#FFBA40"/>
<path d="M265.344 211.027C264.138 211.029 262.965 211.42 261.999 212.141V221.153H269.211V211.027H265.344Z" fill="#03736D"/>
<path d="M283.627 211.027H276.415V221.153H283.627V211.027Z" fill="#03736D"/>
<path d="M298.053 211.027H290.842V221.153H298.053V211.027Z" fill="#03736D"/>
<path d="M309.12 211.027H305.28V221.153H312.492V212.141C311.518 211.414 310.335 211.024 309.12 211.027Z" fill="#03736D"/>
<path d="M274.667 236.083H264.503V257.23H274.667V236.083Z" fill="white"/>
<path d="M307.296 236.102H281.487V249.876H307.296V236.102Z" fill="white"/>
<path d="M37.4908 322.656H80.3068C81.1093 322.656 81.8789 322.337 82.4464 321.77C83.0139 321.202 83.3327 320.433 83.3327 319.63V291.598H34.4648V319.63C34.4648 320.433 34.7836 321.202 35.3511 321.77C35.9186 322.337 36.6882 322.656 37.4908 322.656Z" fill="#03736D"/>
<path d="M31.8223 283.776H39.5983V292.416C39.5952 293.445 39.1844 294.43 38.456 295.156C37.7275 295.883 36.7408 296.291 35.7122 296.291C34.6815 296.291 33.6931 295.881 32.9643 295.152C32.2355 294.424 31.8261 293.435 31.8261 292.404V283.776H31.8223Z" fill="#17AF6F"/>
<path d="M39.5977 283.776H47.3737V292.416C47.3737 293.447 46.9642 294.435 46.2354 295.164C45.5067 295.893 44.5182 296.302 43.4876 296.302C42.4569 296.302 41.4685 295.893 40.7397 295.164C40.0109 294.435 39.6015 293.447 39.6015 292.416V283.776H39.5977Z" fill="#24E27B"/>
<path d="M47.375 283.776H55.151V292.416C55.151 292.926 55.0505 293.432 54.8552 293.903C54.6599 294.375 54.3736 294.803 54.0128 295.164C53.6519 295.525 53.2235 295.811 52.7521 296.006C52.2806 296.202 51.7752 296.302 51.2649 296.302C50.2343 296.302 49.2458 295.893 48.517 295.164C47.7883 294.435 47.3788 293.447 47.3788 292.416V283.776H47.375Z" fill="#17AF6F"/>
<path d="M55.1504 283.776H62.9264V292.416C62.9264 293.447 62.517 294.435 61.7882 295.164C61.0594 295.893 60.071 296.302 59.0403 296.302C58.53 296.302 58.0247 296.202 57.5532 296.006C57.0817 295.811 56.6533 295.525 56.2924 295.164C55.9316 294.803 55.6453 294.375 55.45 293.903C55.2548 293.432 55.1542 292.926 55.1542 292.416V283.776H55.1504Z" fill="#24E27B"/>
<path d="M62.9258 283.776H70.7018V292.416C70.6987 293.445 70.288 294.43 69.5595 295.156C68.8311 295.883 67.8444 296.291 66.8157 296.291C65.7851 296.291 64.7966 295.881 64.0678 295.152C63.3391 294.424 62.9296 293.435 62.9296 292.404V283.776H62.9258Z" fill="#17AF6F"/>
<path d="M70.7031 283.776H78.4791V292.416C78.4791 293.447 78.0697 294.435 77.3409 295.164C76.6121 295.893 75.6237 296.302 74.593 296.302C73.5624 296.302 72.574 295.893 71.8452 295.164C71.1164 294.435 70.707 293.447 70.707 292.416V283.776H70.7031Z" fill="#24E27B"/>
<path d="M78.4784 283.776H85.9703V292.558C85.9703 293.552 85.5754 294.505 84.8726 295.208C84.1697 295.911 83.2164 296.306 82.2224 296.306C81.2285 296.306 80.2752 295.911 79.5723 295.208C78.8695 294.505 78.4746 293.552 78.4746 292.558V283.776H78.4784Z" fill="#17AF6F"/>
<path d="M85.9702 283.776H31.8262L38.4003 275.213C38.9666 274.477 39.6943 273.882 40.5271 273.471C41.3599 273.061 42.2758 272.848 43.2041 272.847H74.5884C75.5168 272.847 76.4329 273.061 77.2658 273.471C78.0987 273.881 78.8263 274.477 79.3923 275.213L85.9702 283.776Z" fill="#36C16E"/>
<path d="M43.2034 272.847C41.9035 272.85 40.6391 273.271 39.5977 274.049V283.776H47.3737V272.847H43.2034Z" fill="#03736D"/>
<path d="M62.9264 272.847H55.1504V283.764H62.9264V272.847Z" fill="#03736D"/>
<path d="M74.593 272.847H70.7031V283.776H78.4791V274.264C77.3906 273.35 76.0147 272.848 74.593 272.847Z" fill="#03736D"/>
<path d="M53.2641 299.877H42.3086V322.656H53.2641V299.877Z" fill="white"/>
<path d="M77.5112 299.877H60.6152V314.726H77.5112V299.877Z" fill="white"/>
<path d="M163.772 113.787L138.896 74.8416H203.735L178.859 113.787C178.05 115.054 176.935 116.097 175.617 116.819C174.298 117.541 172.819 117.92 171.316 117.92C169.812 117.92 168.333 117.541 167.015 116.819C165.696 116.097 164.581 115.054 163.772 113.787Z" fill="#03736D"/>
<path d="M171.313 93.12C192.231 93.12 209.187 76.1633 209.187 55.2461C209.187 34.3289 192.231 17.3722 171.313 17.3722C150.396 17.3722 133.439 34.3289 133.439 55.2461C133.439 76.1633 150.396 93.12 171.313 93.12Z" fill="#03736D"/>
<path d="M171.313 69.5002C179.185 69.5002 185.567 63.1184 185.567 55.2461C185.567 47.3738 179.185 40.992 171.313 40.992C163.44 40.992 157.059 47.3738 157.059 55.2461C157.059 63.1184 163.44 69.5002 171.313 69.5002Z" fill="white"/>
</svg>
