<svg width="568" height="568" viewBox="0 0 568 568" fill="none" xmlns="http://www.w3.org/2000/svg">
<path d="M46.8652 368.366C46.8652 368.366 -16.085 297.631 3.92883 174.533C23.9439 51.4356 126.721 6.09055 194.925 29.7893C263.128 53.4881 278.47 94.7095 334.179 118.3C389.887 141.89 495.648 125.677 548.558 204.887C601.466 284.096 533.927 415.347 447.943 497.646C361.959 579.944 142.465 528.41 46.8652 368.366Z" fill="#92E3A9"/>
<path opacity="0.7" d="M46.8652 368.366C46.8652 368.366 -16.085 297.631 3.92883 174.533C23.9439 51.4356 126.721 6.09055 194.925 29.7893C263.128 53.4881 278.47 94.7095 334.179 118.3C389.887 141.89 495.648 125.677 548.558 204.887C601.466 284.096 533.927 415.347 447.943 497.646C361.959 579.944 142.465 528.41 46.8652 368.366Z" fill="white"/>
<path d="M509.873 567.113H16.8833" stroke="#263238" stroke-width="1.232" stroke-miterlimit="10"/>
<path d="M433.377 379.865L413.813 566.872" stroke="#263238" stroke-width="2.464" stroke-miterlimit="10"/>
<path d="M417.284 528.502L425.98 519.316" stroke="#263238" stroke-width="2.464" stroke-miterlimit="10"/>
<path d="M423.339 522.068C423.339 522.068 423.09 518.005 426.801 514.691C429.033 512.698 440.78 507.755 441.895 511.893C443.108 516.394 431.082 525.231 423.339 522.068Z" fill="#00D0C5" stroke="#263238" stroke-width="1.232" stroke-miterlimit="10"/>
<path d="M423.339 522.068L434.523 515.099" stroke="#263238" stroke-width="0.616" stroke-miterlimit="10"/>
<path d="M415.106 549.406L423.803 540.221" stroke="#263238" stroke-width="2.464" stroke-miterlimit="10"/>
<path d="M421.158 542.973C421.158 542.973 420.91 538.91 424.619 535.596C426.852 533.602 438.6 528.659 439.714 532.798C440.927 537.298 428.903 546.137 421.158 542.973Z" fill="#00D0C5" stroke="#263238" stroke-width="1.232" stroke-miterlimit="10"/>
<path d="M421.158 542.973L432.342 536.003" stroke="#263238" stroke-width="0.616" stroke-miterlimit="10"/>
<path d="M422.609 477.489L431.305 468.304" stroke="#263238" stroke-width="2.464" stroke-miterlimit="10"/>
<path d="M428.663 471.056C428.663 471.056 428.414 466.993 432.125 463.679C434.358 461.685 446.105 456.743 447.22 460.881C448.432 465.381 436.408 474.22 428.663 471.056Z" fill="#00D0C5" stroke="#263238" stroke-width="1.232" stroke-miterlimit="10"/>
<path d="M428.664 471.056L439.848 464.087" stroke="#263238" stroke-width="0.616" stroke-miterlimit="10"/>
<path d="M420.43 498.394L429.127 489.21" stroke="#263238" stroke-width="2.464" stroke-miterlimit="10"/>
<path d="M426.483 491.961C426.483 491.961 426.234 487.897 429.943 484.583C432.176 482.59 443.924 477.647 445.038 481.786C446.251 486.286 434.227 495.124 426.483 491.961Z" fill="#00D0C5" stroke="#263238" stroke-width="1.232" stroke-miterlimit="10"/>
<path d="M426.482 491.961L437.666 484.991" stroke="#263238" stroke-width="0.616" stroke-miterlimit="10"/>
<path d="M426.155 443.531L434.852 434.346" stroke="#263238" stroke-width="2.464" stroke-miterlimit="10"/>
<path d="M432.207 437.098C432.207 437.098 431.958 433.035 435.668 429.721C437.9 427.728 449.649 422.785 450.762 426.923C451.976 431.423 439.952 440.261 432.207 437.098Z" fill="#00D0C5" stroke="#263238" stroke-width="1.232" stroke-miterlimit="10"/>
<path d="M432.207 437.099L443.391 430.128" stroke="#263238" stroke-width="0.616" stroke-miterlimit="10"/>
<path d="M429.713 409.424L438.41 400.24" stroke="#263238" stroke-width="2.464" stroke-miterlimit="10"/>
<path d="M435.769 402.991C435.769 402.991 435.52 398.927 439.231 395.615C441.463 393.621 453.21 388.678 454.325 392.817C455.537 397.316 443.512 406.154 435.769 402.991Z" fill="#00D0C5" stroke="#263238" stroke-width="1.232" stroke-miterlimit="10"/>
<path d="M435.769 402.991L446.953 396.021" stroke="#263238" stroke-width="0.616" stroke-miterlimit="10"/>
<path d="M418.75 516.133L412.138 505.35" stroke="#263238" stroke-width="2.464" stroke-miterlimit="10"/>
<path d="M414.155 508.588C414.155 508.588 415.238 504.664 412.291 500.655C410.518 498.244 400.044 490.982 398.1 494.8C395.984 498.953 405.924 510.085 414.155 508.588Z" fill="#00D0C5" stroke="#263238" stroke-width="1.232" stroke-miterlimit="10"/>
<path d="M414.154 508.588L404.083 498.962" stroke="#263238" stroke-width="0.616" stroke-miterlimit="10"/>
<path d="M424.49 461.121L417.878 450.338" stroke="#263238" stroke-width="2.464" stroke-miterlimit="10"/>
<path d="M419.896 453.576C419.896 453.576 420.978 449.653 418.031 445.644C416.259 443.233 405.784 435.971 403.84 439.789C401.725 443.942 411.665 455.072 419.896 453.576Z" fill="#00D0C5" stroke="#263238" stroke-width="1.232" stroke-miterlimit="10"/>
<path d="M419.895 453.577L409.823 443.951" stroke="#263238" stroke-width="0.616" stroke-miterlimit="10"/>
<path d="M427.012 436.946L420.398 426.162" stroke="#263238" stroke-width="2.464" stroke-miterlimit="10"/>
<path d="M422.417 429.401C422.417 429.401 423.5 425.477 420.553 421.468C418.78 419.057 408.306 411.796 406.362 415.614C404.246 419.767 414.186 430.896 422.417 429.401Z" fill="#00D0C5" stroke="#263238" stroke-width="1.232" stroke-miterlimit="10"/>
<path d="M422.416 429.401L412.344 419.775" stroke="#263238" stroke-width="0.616" stroke-miterlimit="10"/>
<path d="M430.711 401.503L424.099 390.721" stroke="#263238" stroke-width="2.464" stroke-miterlimit="10"/>
<path d="M426.117 393.96C426.117 393.96 427.198 390.036 424.253 386.027C422.48 383.616 412.005 376.355 410.061 380.173C407.946 384.326 417.886 395.456 426.117 393.96Z" fill="#00D0C5" stroke="#263238" stroke-width="1.232" stroke-miterlimit="10"/>
<path d="M426.115 393.96L416.045 384.334" stroke="#263238" stroke-width="0.616" stroke-miterlimit="10"/>
<path d="M433.54 378.845C433.54 378.845 434.622 374.921 431.676 370.912C429.904 368.501 419.429 361.239 417.485 365.057C415.368 369.21 425.309 380.34 433.54 378.845Z" fill="#00D0C5" stroke="#263238" stroke-width="1.232" stroke-miterlimit="10"/>
<path d="M433.541 378.845L423.469 369.219" stroke="#263238" stroke-width="0.616" stroke-miterlimit="10"/>
<path d="M432.956 379.26C432.956 379.26 436.972 379.925 440.649 376.574C442.861 374.558 448.984 363.38 444.983 361.847C440.631 360.179 430.605 371.231 432.956 379.26Z" fill="#00D0C5" stroke="#263238" stroke-width="1.232" stroke-miterlimit="10"/>
<path d="M432.956 379.26L441.473 368.235" stroke="#263238" stroke-width="0.616" stroke-miterlimit="10"/>
<path d="M382.778 405.179L398.959 566.872" stroke="#263238" stroke-width="2.464" stroke-miterlimit="10"/>
<path d="M397.638 553.944L404.256 543.165" stroke="#263238" stroke-width="2.464" stroke-miterlimit="10"/>
<path d="M402.237 546.403C402.237 546.403 401.157 542.478 404.105 538.471C405.879 536.06 416.357 528.805 418.3 532.624C420.414 536.778 410.467 547.903 402.237 546.403Z" fill="#00D0C5" stroke="#263238" stroke-width="1.232" stroke-miterlimit="10"/>
<path d="M402.236 546.403L411.744 537.279" stroke="#263238" stroke-width="0.616" stroke-miterlimit="10"/>
<path d="M392.343 502.929L398.963 492.15" stroke="#263238" stroke-width="2.464" stroke-miterlimit="10"/>
<path d="M396.943 495.387C396.943 495.387 395.863 491.462 398.812 487.455C400.586 485.044 411.064 477.79 413.007 481.609C415.12 485.764 405.173 496.889 396.943 495.387Z" fill="#00D0C5" stroke="#263238" stroke-width="1.232" stroke-miterlimit="10"/>
<path d="M396.943 495.387L406.453 486.264" stroke="#263238" stroke-width="0.616" stroke-miterlimit="10"/>
<path d="M394.513 523.835L401.133 513.056" stroke="#263238" stroke-width="2.464" stroke-miterlimit="10"/>
<path d="M399.114 516.293C399.114 516.293 398.034 512.367 400.982 508.361C402.756 505.95 413.234 498.696 415.177 502.515C417.291 506.669 407.344 517.794 399.114 516.293Z" fill="#00D0C5" stroke="#263238" stroke-width="1.232" stroke-miterlimit="10"/>
<path d="M399.113 516.293L408.623 507.17" stroke="#263238" stroke-width="0.616" stroke-miterlimit="10"/>
<path d="M388.82 468.969L395.439 458.189" stroke="#263238" stroke-width="2.464" stroke-miterlimit="10"/>
<path d="M393.421 461.427C393.421 461.427 392.341 457.502 395.289 453.495C397.063 451.084 407.541 443.829 409.484 447.649C411.597 451.802 401.651 462.927 393.421 461.427Z" fill="#00D0C5" stroke="#263238" stroke-width="1.232" stroke-miterlimit="10"/>
<path d="M393.421 461.427L402.93 452.304" stroke="#263238" stroke-width="0.616" stroke-miterlimit="10"/>
<path d="M385.279 434.86L391.898 424.08" stroke="#263238" stroke-width="2.464" stroke-miterlimit="10"/>
<path d="M389.879 427.318C389.879 427.318 388.798 423.392 391.748 419.386C393.522 416.976 404 409.721 405.943 413.54C408.056 417.694 398.109 428.818 389.879 427.318Z" fill="#00D0C5" stroke="#263238" stroke-width="1.232" stroke-miterlimit="10"/>
<path d="M389.879 427.318L399.389 418.195" stroke="#263238" stroke-width="0.616" stroke-miterlimit="10"/>
<path d="M396.52 541.539L387.829 532.349" stroke="#263238" stroke-width="2.464" stroke-miterlimit="10"/>
<path d="M390.469 535.103C390.469 535.103 390.72 531.04 387.012 527.724C384.781 525.73 373.036 520.78 371.919 524.917C370.703 529.416 382.722 538.262 390.469 535.103Z" fill="#00D0C5" stroke="#263238" stroke-width="1.232" stroke-miterlimit="10"/>
<path d="M390.471 535.103L378.634 527.756" stroke="#263238" stroke-width="0.616" stroke-miterlimit="10"/>
<path d="M390.812 486.524L382.122 477.334" stroke="#263238" stroke-width="2.464" stroke-miterlimit="10"/>
<path d="M384.762 480.088C384.762 480.088 385.013 476.025 381.305 472.709C379.074 470.715 367.329 465.766 366.212 469.902C364.997 474.401 377.016 483.247 384.762 480.088Z" fill="#00D0C5" stroke="#263238" stroke-width="1.232" stroke-miterlimit="10"/>
<path d="M384.764 480.088L372.927 472.742" stroke="#263238" stroke-width="0.616" stroke-miterlimit="10"/>
<path d="M388.303 462.347L379.612 453.158" stroke="#263238" stroke-width="2.464" stroke-miterlimit="10"/>
<path d="M382.252 455.91C382.252 455.91 382.504 451.847 378.795 448.531C376.564 446.537 364.819 441.588 363.702 445.724C362.487 450.224 374.505 459.069 382.252 455.91Z" fill="#00D0C5" stroke="#263238" stroke-width="1.232" stroke-miterlimit="10"/>
<path d="M382.254 455.91L370.417 448.565" stroke="#263238" stroke-width="0.616" stroke-miterlimit="10"/>
<path d="M384.623 426.904L375.931 417.713" stroke="#263238" stroke-width="2.464" stroke-miterlimit="10"/>
<path d="M378.573 420.466C378.573 420.466 378.824 416.403 375.116 413.088C372.884 411.093 361.14 406.144 360.022 410.28C358.808 414.781 370.827 423.625 378.573 420.466Z" fill="#00D0C5" stroke="#263238" stroke-width="1.232" stroke-miterlimit="10"/>
<path d="M378.572 420.467L366.736 413.121" stroke="#263238" stroke-width="0.616" stroke-miterlimit="10"/>
<path d="M382.725 404.147C382.725 404.147 382.976 400.084 379.268 396.769C377.037 394.774 365.292 389.825 364.175 393.962C362.96 398.46 374.979 407.305 382.725 404.147Z" fill="#00D0C5" stroke="#263238" stroke-width="1.232" stroke-miterlimit="10"/>
<path d="M382.725 404.147L370.888 396.801" stroke="#263238" stroke-width="0.616" stroke-miterlimit="10"/>
<path d="M382.24 404.673C382.24 404.673 386.307 404.497 389.216 400.462C390.965 398.034 394.656 385.835 390.424 385.159C385.823 384.421 378.287 397.301 382.24 404.673Z" fill="#00D0C5" stroke="#263238" stroke-width="1.232" stroke-miterlimit="10"/>
<path d="M382.241 404.673L388.305 392.132" stroke="#263238" stroke-width="0.616" stroke-miterlimit="10"/>
<path d="M404.638 330.325L405.836 567.147" stroke="#263238" stroke-width="2.464" stroke-miterlimit="10"/>
<path d="M404.456 527.831L412.152 517.793" stroke="#263238" stroke-width="2.464" stroke-miterlimit="10"/>
<path d="M409.809 520.804C409.809 520.804 409.141 516.789 412.487 513.108C414.5 510.894 425.671 504.758 427.209 508.758C428.882 513.108 417.84 523.147 409.809 520.804Z" fill="#00D0C5" stroke="#263238" stroke-width="1.232" stroke-miterlimit="10"/>
<path d="M409.81 520.804L420.209 512.712" stroke="#263238" stroke-width="0.616" stroke-miterlimit="10"/>
<path d="M404.456 484.146L412.152 474.108" stroke="#263238" stroke-width="2.464" stroke-miterlimit="10"/>
<path d="M409.809 477.12C409.809 477.12 409.141 473.105 412.487 469.423C414.5 467.21 425.671 461.074 427.209 465.073C428.882 469.423 417.84 479.462 409.809 477.12Z" fill="#00D0C5" stroke="#263238" stroke-width="1.232" stroke-miterlimit="10"/>
<path d="M409.81 477.12L420.209 469.027" stroke="#263238" stroke-width="0.616" stroke-miterlimit="10"/>
<path d="M404.456 432.858L412.152 422.82" stroke="#263238" stroke-width="2.464" stroke-miterlimit="10"/>
<path d="M409.809 425.831C409.809 425.831 409.141 421.815 412.487 418.134C414.5 415.92 425.671 409.785 427.209 413.784C428.882 418.134 417.84 428.173 409.809 425.831Z" fill="#00D0C5" stroke="#263238" stroke-width="1.232" stroke-miterlimit="10"/>
<path d="M409.81 425.831L420.209 417.738" stroke="#263238" stroke-width="0.616" stroke-miterlimit="10"/>
<path d="M404.456 398.714L412.152 388.676" stroke="#263238" stroke-width="2.464" stroke-miterlimit="10"/>
<path d="M409.809 391.688C409.809 391.688 409.141 387.673 412.487 383.992C414.5 381.777 425.671 375.643 427.209 379.642C428.882 383.992 417.84 394.03 409.809 391.688Z" fill="#00D0C5" stroke="#263238" stroke-width="1.232" stroke-miterlimit="10"/>
<path d="M409.81 391.688L420.209 383.595" stroke="#263238" stroke-width="0.616" stroke-miterlimit="10"/>
<path d="M404.456 364.423L412.152 354.384" stroke="#263238" stroke-width="2.464" stroke-miterlimit="10"/>
<path d="M409.809 357.395C409.809 357.395 409.141 353.38 412.487 349.699C414.5 347.484 425.671 341.35 427.209 345.349C428.882 349.7 417.84 359.739 409.809 357.395Z" fill="#00D0C5" stroke="#263238" stroke-width="1.232" stroke-miterlimit="10"/>
<path d="M409.81 357.395L420.209 349.302" stroke="#263238" stroke-width="0.616" stroke-miterlimit="10"/>
<path d="M404.623 541.171L396.927 531.133" stroke="#263238" stroke-width="2.464" stroke-miterlimit="10"/>
<path d="M399.27 534.144C399.27 534.144 399.939 530.129 396.592 526.448C394.579 524.233 383.408 518.099 381.87 522.098C380.197 526.448 391.239 536.486 399.27 534.144Z" fill="#00D0C5" stroke="#263238" stroke-width="1.232" stroke-miterlimit="10"/>
<path d="M399.27 534.144L388.254 525.616" stroke="#263238" stroke-width="0.616" stroke-miterlimit="10"/>
<path d="M404.623 471.693L396.927 461.655" stroke="#263238" stroke-width="2.464" stroke-miterlimit="10"/>
<path d="M399.27 464.666C399.27 464.666 399.939 460.651 396.592 456.969C394.579 454.755 383.408 448.62 381.87 452.619C380.197 456.969 391.239 467.008 399.27 464.666Z" fill="#00D0C5" stroke="#263238" stroke-width="1.232" stroke-miterlimit="10"/>
<path d="M399.27 464.666L388.254 456.138" stroke="#263238" stroke-width="0.616" stroke-miterlimit="10"/>
<path d="M404.623 437.4L396.927 427.362" stroke="#263238" stroke-width="2.464" stroke-miterlimit="10"/>
<path d="M399.27 430.374C399.27 430.374 399.939 426.359 396.592 422.678C394.579 420.464 383.408 414.329 381.87 418.328C380.197 422.678 391.239 432.716 399.27 430.374Z" fill="#00D0C5" stroke="#263238" stroke-width="1.232" stroke-miterlimit="10"/>
<path d="M399.27 430.374L388.254 421.845" stroke="#263238" stroke-width="0.616" stroke-miterlimit="10"/>
<path d="M404.623 392.075L396.927 382.037" stroke="#263238" stroke-width="2.464" stroke-miterlimit="10"/>
<path d="M399.27 385.049C399.27 385.049 399.939 381.034 396.592 377.353C394.579 375.137 383.408 369.003 381.87 373.002C380.197 377.353 391.239 387.391 399.27 385.049Z" fill="#00D0C5" stroke="#263238" stroke-width="1.232" stroke-miterlimit="10"/>
<path d="M399.27 385.049L388.254 376.52" stroke="#263238" stroke-width="0.616" stroke-miterlimit="10"/>
<path d="M404.623 356.442L396.927 346.403" stroke="#263238" stroke-width="2.464" stroke-miterlimit="10"/>
<path d="M399.27 349.414C399.27 349.414 399.939 345.399 396.592 341.718C394.579 339.503 383.408 333.369 381.87 337.368C380.197 341.719 391.239 351.756 399.27 349.414Z" fill="#00D0C5" stroke="#263238" stroke-width="1.232" stroke-miterlimit="10"/>
<path d="M399.27 349.414L388.254 340.886" stroke="#263238" stroke-width="0.616" stroke-miterlimit="10"/>
<path d="M405.086 333.61C405.086 333.61 405.755 329.595 402.409 325.914C400.396 323.7 389.224 317.565 387.687 321.564C386.013 325.914 397.056 335.952 405.086 333.61Z" fill="#00D0C5" stroke="#263238" stroke-width="1.232" stroke-miterlimit="10"/>
<path d="M405.086 333.61L394.071 325.082" stroke="#263238" stroke-width="0.616" stroke-miterlimit="10"/>
<path d="M404.548 334.085C404.548 334.085 408.611 334.329 411.922 330.615C413.913 328.38 418.842 316.628 414.704 315.517C410.202 314.31 401.377 326.344 404.548 334.085Z" fill="#00D0C5" stroke="#263238" stroke-width="1.232" stroke-miterlimit="10"/>
<path d="M404.548 334.085L411.873 322.235" stroke="#263238" stroke-width="0.616" stroke-miterlimit="10"/>
<path d="M91.6557 567.113L98.7791 485.028H267.378L276.684 567.113H91.6557Z" fill="#263238" stroke="#263238" stroke-width="1.232" stroke-miterlimit="10"/>
<path d="M194.929 236.226C194.929 236.226 244.238 249.768 265.769 266.089C287.298 282.41 302.23 299.079 298.758 330.678C295.285 362.278 272.714 448.743 272.714 448.743C272.714 448.743 275.839 483.816 275.839 485.899C275.839 487.982 276.187 493.886 268.547 494.234C260.907 494.581 169.233 498.4 148.745 498.748C128.257 499.095 101.171 497.012 98.0457 494.581C94.9201 492.15 93.1842 488.331 92.8368 484.163C92.4893 479.997 89.0176 428.95 89.0176 428.95L88.6702 406.031C88.6702 406.031 66.0987 331.024 64.7102 306.717C63.3205 282.41 72.3499 274.423 82.4202 266.783C92.4906 259.143 123.823 246.21 140.759 241.086C157.693 235.962 194.929 236.226 194.929 236.226Z" fill="#03736D" stroke="#263238" stroke-width="1.232" stroke-miterlimit="10"/>
<path d="M182.766 352.764C185.274 386.587 189.73 448.918 189.335 459.591C188.788 474.371 194.809 478.751 194.809 484.225" stroke="#263238" stroke-width="1.232" stroke-miterlimit="10"/>
<path d="M181.124 330.948C181.124 330.948 181.568 336.709 182.248 345.808" stroke="#263238" stroke-width="1.232" stroke-miterlimit="10"/>
<path d="M159.117 374.397L155.964 411.602L138.307 410.341L159.117 374.397Z" fill="#263238" stroke="#263238" stroke-width="1.232" stroke-miterlimit="10"/>
<path d="M175.848 439.272C175.848 439.272 132.698 432.496 129.489 433.209C126.279 433.922 104.169 444.621 100.959 445.334C97.7499 446.048 94.8966 447.474 94.8966 447.474L90.0586 451.523L91.6873 439.273C91.6873 439.273 98.106 431.428 112.371 425.722C126.635 420.017 133.767 423.226 136.978 424.295C140.186 425.364 175.848 439.272 175.848 439.272Z" fill="#263238" stroke="#263238" stroke-width="1.232" stroke-miterlimit="10"/>
<path d="M242.156 406.726L129.993 406.378C129.993 406.378 93.8786 402.905 92.4901 402.559C91.1004 402.212 76.8635 406.032 75.475 407.073C74.0865 408.115 74.0865 411.24 74.7801 414.365C75.475 417.491 75.475 417.491 75.475 417.491C75.475 417.491 74.4327 423.047 74.4327 425.478C74.4327 427.909 77.2109 428.604 77.5583 429.645C77.9057 430.687 75.475 434.506 78.2531 436.937C81.0313 439.368 81.0313 439.368 81.0313 439.368C81.0313 439.368 81.3787 445.965 82.7672 447.702C84.1556 449.438 88.3235 452.564 90.0594 451.521C91.7953 450.479 91.1004 447.702 91.1004 445.965C91.1004 444.228 91.7953 442.492 93.8786 442.492C95.9619 442.492 96.3093 444.228 107.075 441.451C117.84 438.673 129.646 429.297 130.688 428.95C131.731 428.602 225.836 453.952 253.616 457.424C281.396 460.896 283.827 457.076 284.868 452.562C285.91 448.048 287.646 437.283 287.646 437.283L292.508 416.1L242.156 406.726Z" fill="white" stroke="#263238" stroke-width="1.232" stroke-miterlimit="10"/>
<path d="M169.254 276.922C169.254 276.922 163.461 270.825 159.802 273.569C156.143 276.312 152.789 290.947 148.216 289.728C143.643 288.508 134.497 260.154 134.497 248.873C134.497 237.593 142.423 230.885 144.253 230.275C146.082 229.665 192.729 229.055 198.218 231.19C203.707 233.326 205.84 252.532 207.974 264.118C210.108 275.704 205.231 278.448 202.181 276.924C199.132 275.4 187.242 270.521 184.498 270.521C181.755 270.52 169.254 276.922 169.254 276.922Z" fill="#03736D" stroke="#263238" stroke-width="1.232" stroke-miterlimit="10"/>
<path d="M138.029 212.659C138.029 212.659 142.399 234.263 144.098 239.604C145.797 244.944 158.177 261.208 161.334 264.607C164.49 268.006 173.714 284.755 176.141 285.241C178.568 285.726 185.365 262.908 185.365 262.908C185.365 262.908 194.104 247.858 195.804 243.974C197.503 240.089 200.174 228.681 200.174 228.681C200.174 228.681 185.852 241.061 170.558 238.391C155.264 235.722 147.496 220.428 147.496 220.428L138.029 212.659Z" fill="white" stroke="#263238" stroke-width="1.232" stroke-miterlimit="10"/>
<path d="M197.303 169.603C197.303 169.603 201.572 165.03 204.01 172.042C206.45 179.055 201.571 191.555 201.571 191.555L197.303 169.603Z" fill="white" stroke="#263238" stroke-width="1.232" stroke-miterlimit="10"/>
<path d="M196.531 155.369C196.531 155.369 203.571 205.376 203.571 208.289C203.571 211.202 205.513 220.912 202.6 227.223C199.688 233.535 190.948 241.303 183.908 242.274C176.869 243.244 163.032 241.788 155.264 235.719C147.497 229.65 138.515 216.542 138.515 216.542C138.515 216.542 128.805 215.086 122.493 212.415C116.182 209.745 111.326 203.676 111.569 197.365C111.812 191.053 115.696 186.198 115.696 186.198L119.338 179.401L109.627 161.194C109.627 161.194 115.211 150.756 133.175 140.804C151.138 130.851 167.159 127.695 174.684 127.695C182.209 127.695 191.677 130.851 194.347 136.919C197.017 142.989 196.531 155.369 196.531 155.369Z" fill="white" stroke="#263238" stroke-width="1.232" stroke-miterlimit="10"/>
<path d="M173.471 130.851C173.471 130.851 159.634 153.669 149.195 152.699C138.757 151.728 135.602 146.872 135.602 146.872L128.562 156.339C128.562 156.339 136.087 159.494 134.631 163.379C133.175 167.263 126.62 176.002 126.62 176.002L131.961 198.82C131.961 198.82 127.834 199.548 127.106 198.092C126.378 196.635 122.736 187.653 122.736 187.653C122.736 187.653 121.28 186.682 119.581 186.197C117.882 185.711 115.696 186.197 115.696 186.197C115.696 186.197 113.026 177.215 112.054 176.973C111.084 176.73 101.373 174.059 97.7324 164.592C94.0906 155.126 99.674 140.074 112.297 128.179C124.92 116.284 151.623 113.129 153.079 110.944C154.535 108.759 146.282 111.914 147.981 107.059C149.68 102.204 160.361 95.8922 173.955 102.689C187.549 109.486 185.607 117.011 184.151 119.438C182.695 121.865 182.695 121.865 182.695 121.865C182.695 121.865 194.104 117.981 202.115 122.836C210.125 127.691 214.01 137.401 210.368 138.372C206.726 139.342 202.115 137.158 202.115 137.158C202.115 137.158 206.97 145.169 205.513 146.867C204.056 148.566 196.531 155.363 196.531 155.363C196.531 155.363 193.619 138.37 187.55 135.943C181.481 133.516 173.471 130.851 173.471 130.851Z" fill="#263238" stroke="#263238" stroke-width="1.232" stroke-miterlimit="10"/>
<path d="M177.839 163.623L175.655 170.662L188.035 193.967L174.927 199.065" stroke="#263238" stroke-width="1.232" stroke-miterlimit="10"/>
<path d="M180.269 160.953C180.269 160.953 186.095 156.34 190.95 157.554C195.806 158.767 192.892 159.495 189.494 160.709C186.095 161.924 179.298 165.08 180.269 160.953Z" fill="#263238" stroke="#263238" stroke-width="1.232" stroke-miterlimit="10"/>
<path d="M162.305 159.982C162.305 159.982 167.889 161.438 165.218 162.652C162.548 163.865 154.536 161.438 151.381 162.652C148.225 163.865 144.099 167.993 144.342 166.051C144.584 164.109 146.526 160.225 150.896 158.769C155.266 157.311 162.305 159.982 162.305 159.982Z" fill="#263238" stroke="#263238" stroke-width="1.232" stroke-miterlimit="10"/>
<path d="M183.478 171.725C183.903 173.485 185.093 174.707 186.135 174.454C187.178 174.203 187.678 172.572 187.253 170.813C186.828 169.053 185.638 167.831 184.595 168.084C183.553 168.336 183.053 169.966 183.478 171.725Z" fill="#263238"/>
<path d="M157.017 178.644C157.442 180.404 158.632 181.626 159.674 181.373C160.717 181.121 161.217 179.491 160.792 177.732C160.367 175.972 159.177 174.75 158.134 175.003C157.092 175.255 156.592 176.885 157.017 178.644Z" fill="#263238"/>
<path d="M193.963 209.525C193.963 209.525 190.44 216.318 184.01 216.079C177.579 215.84 175.115 212.144 175.115 212.144" stroke="#263238" stroke-width="1.232" stroke-miterlimit="10"/>
<path d="M93.1818 260.88C93.1818 260.88 58.8041 274.076 52.2067 293.87C45.6094 313.663 53.9426 338.665 57.4156 349.083C60.8886 359.501 82.4178 400.13 85.8896 409.853C89.3626 419.576 94.5715 431.382 94.5715 431.382C94.5715 431.382 99.433 402.213 112.629 384.156C125.825 366.098 128.949 349.778 128.949 349.778C128.949 349.778 104.989 307.413 98.7381 294.217" fill="#03736D"/>
<path d="M93.1818 260.88C93.1818 260.88 58.8041 274.076 52.2067 293.87C45.6094 313.663 53.9426 338.665 57.4156 349.083C60.8886 359.501 82.4178 400.13 85.8896 409.853C89.3626 419.576 94.5715 431.382 94.5715 431.382C94.5715 431.382 99.433 402.213 112.629 384.156C125.825 366.098 128.949 349.778 128.949 349.778C128.949 349.778 104.989 307.413 98.7381 294.217" stroke="#263238" stroke-width="1.232" stroke-miterlimit="10"/>
<path d="M125.304 342.439C125.304 342.439 118.271 338.921 115.926 340.094C113.582 341.267 83.4915 357.288 79.5848 375.655C75.6769 394.021 81.5388 409.652 85.0561 416.295C88.5735 422.938 95.2164 435.833 100.296 437.396C105.376 438.96 109.675 397.147 120.226 375.263C130.776 353.38 125.304 342.439 125.304 342.439Z" fill="#03736D" stroke="#263238" stroke-width="1.232" stroke-miterlimit="10"/>
<path d="M113.67 322.344C113.67 322.344 107.419 301.162 104.988 292.827" stroke="#263238" stroke-width="1.232" stroke-miterlimit="10"/>
<path d="M176.384 247.129C176.384 247.129 186.095 233.535 193.62 224.554C201.145 215.572 208.913 210.232 211.584 210.96C214.253 211.688 215.225 214.358 213.525 217.514C211.826 220.67 203.815 227.709 202.358 229.652C200.902 231.593 198.717 238.633 198.717 238.633C198.717 238.633 205.756 239.118 206.97 240.575C208.183 242.031 209.883 245.915 209.883 245.915C209.883 245.915 212.311 247.129 213.524 249.072C214.738 251.013 214.738 251.499 214.98 252.47C215.223 253.44 218.622 255.139 218.378 259.509C218.135 263.879 214.008 270.191 212.552 273.103C211.096 276.016 200.414 288.881 198.473 291.067C196.531 293.251 185.364 312.671 182.452 319.226C179.539 325.78 151.379 401.76 143.126 413.169C134.873 424.579 119.579 435.502 111.326 439.386C103.073 443.271 97.2466 436.716 93.3621 428.462C89.4776 420.209 86.0798 403.701 93.6048 384.767C101.13 365.832 115.937 349.568 127.347 339.858C138.756 330.147 160.118 305.873 162.545 301.503C164.972 297.133 168.129 287.424 168.129 287.424C168.129 287.424 161.817 268.975 161.332 264.606C160.846 260.236 163.273 252.468 162.545 249.071C161.817 245.673 158.903 238.875 157.69 235.962C156.476 233.05 152.349 228.194 154.535 226.009C156.719 223.824 165.701 226.494 168.857 231.592C172.014 236.69 176.384 247.129 176.384 247.129Z" fill="white" stroke="#263238" stroke-width="1.232" stroke-miterlimit="10"/>
<path d="M251.414 299.7C250.68 295.842 250.14 293.174 250.14 293.174L251.414 299.7Z" fill="#03736D"/>
<path d="M251.414 299.7C250.68 295.842 250.14 293.174 250.14 293.174" stroke="#263238" stroke-width="1.232" stroke-miterlimit="10"/>
<path d="M253.612 259.838C253.612 259.838 272.017 262.269 291.116 282.757C310.214 303.245 301.881 351.86 300.144 361.93C298.408 372.001 295.63 402.905 295.63 402.905L246.668 386.585C246.668 386.585 254.655 332.067 255.35 327.205C255.701 324.749 254.366 316.083 252.961 308.112" fill="#03736D"/>
<path d="M253.612 259.838C253.612 259.838 272.017 262.269 291.116 282.757C310.214 303.245 301.881 351.86 300.144 361.93C298.408 372.001 295.63 402.905 295.63 402.905L246.668 386.585C246.668 386.585 254.655 332.067 255.35 327.205C255.701 324.749 254.366 316.083 252.961 308.112" stroke="#263238" stroke-width="1.232" stroke-miterlimit="10"/>
<path d="M300.491 392.141C300.491 392.141 295.63 418.185 293.199 419.574C290.769 420.964 252.918 410.546 248.751 409.851C244.585 409.157 242.154 410.199 242.154 406.726C242.154 403.253 245.627 386.933 247.71 384.154C249.793 381.376 294.936 387.28 298.756 388.321C302.575 389.363 300.491 392.141 300.491 392.141Z" fill="#03736D" stroke="#263238" stroke-width="1.232" stroke-miterlimit="10"/>
<path d="M272.762 372.013C258.717 377.604 247.71 384.154 247.71 384.154C247.71 384.154 259.516 361.93 264.378 357.416" stroke="#263238" stroke-width="1.232" stroke-miterlimit="10"/>
<path d="M279.311 369.57C277.917 370.054 276.539 370.556 275.185 371.071" stroke="#263238" stroke-width="1.232" stroke-miterlimit="10"/>
<path d="M165.424 483.249C156.443 480.047 148.176 476.521 143.187 473.051" stroke="#263238" stroke-width="1.232" stroke-miterlimit="10"/>
<path d="M207.775 495.622C207.775 495.622 188.589 491.071 170.383 484.963" stroke="#263238" stroke-width="1.232" stroke-miterlimit="10"/>
<path d="M127.085 471.608C136.519 476.309 151.465 483.195 163.674 486.247" stroke="#263238" stroke-width="1.232" stroke-miterlimit="10"/>
<path d="M117.839 466.801C117.839 466.801 119.774 467.87 122.982 469.526" stroke="#263238" stroke-width="1.232" stroke-miterlimit="10"/>
<path d="M442.674 26.1278C525.307 65.9313 540.983 182.809 488.572 253.055C477.617 267.738 463.296 280.118 446.337 287.309C388.407 311.872 342.023 263.04 313.794 218.177C268.728 146.553 263.095 128.848 263.9 140.921C264.704 152.993 243.781 165.869 231.709 102.291C216.278 21.0212 330.058 2.53994 387.652 10.1931C406.962 12.7582 425.665 17.935 442.674 26.1278Z" fill="#263238" stroke="#263238" stroke-width="1.232" stroke-miterlimit="10"/>
<path d="M257.708 163.421C262.554 172.169 262.226 181.617 256.978 184.525C251.73 187.432 243.547 182.697 238.701 173.948C233.856 165.2 234.183 155.751 239.432 152.844C244.68 149.938 252.863 154.672 257.708 163.421Z" fill="#263238" stroke="#263238" stroke-width="1.232" stroke-miterlimit="10"/>
<path d="M230.067 175.741C232.93 180.91 232.737 186.495 229.634 188.212C226.532 189.93 221.697 187.132 218.833 181.962C215.97 176.793 216.164 171.208 219.266 169.491C222.367 167.773 227.202 170.571 230.067 175.741Z" fill="#263238" stroke="#263238" stroke-width="1.232" stroke-miterlimit="10"/>
<path d="M437.914 18.514C520.548 58.3175 536.222 175.195 483.812 245.442C472.857 260.125 458.535 272.506 441.576 279.697C383.648 304.259 337.263 255.428 309.034 210.564C263.968 138.941 258.335 121.236 259.139 133.308C259.944 145.379 239.021 158.255 226.949 94.6787C211.518 13.4086 325.298 -5.0726 382.891 2.58058C402.202 5.14437 420.906 10.3212 437.914 18.514Z" fill="#2F615E" stroke="#263238" stroke-width="1.232" stroke-miterlimit="10"/>
<path d="M252.953 155.807C257.798 164.555 257.47 174.004 252.222 176.911C246.974 179.819 238.791 175.083 233.945 166.334C229.1 157.586 229.427 148.138 234.676 145.23C239.924 142.324 248.107 147.058 252.953 155.807Z" fill="white" stroke="#263238" stroke-width="1.232" stroke-miterlimit="10"/>
<path d="M225.307 168.128C228.17 173.298 227.977 178.882 224.875 180.6C221.772 182.318 216.937 179.519 214.074 174.35C211.21 169.18 211.404 163.596 214.506 161.878C217.608 160.16 222.444 162.957 225.307 168.128Z" fill="white" stroke="#263238" stroke-width="1.232" stroke-miterlimit="10"/>
<path d="M296.834 139.494H485.775C485.782 139.546 485.787 139.598 485.794 139.651C484.859 139.757 483.923 139.866 482.987 139.973C482.987 139.997 482.987 140.019 482.989 140.044H484.932C484.934 140.087 484.936 140.13 484.938 140.175C483 140.384 481.062 140.601 479.123 140.802C474.389 141.29 469.654 141.776 464.918 142.253C461.553 142.592 458.184 142.908 454.819 143.251C450.768 143.664 446.721 144.108 442.671 144.516C439.244 144.86 435.814 145.167 432.388 145.498C428.694 145.853 424.999 146.239 421.303 146.57C418.022 146.866 414.738 147.115 411.454 147.369C407.546 147.67 403.637 147.973 399.727 148.241C397.188 148.415 394.643 148.546 392.1 148.668C386.894 148.918 381.688 149.15 376.482 149.386C374.838 149.461 373.191 149.558 371.544 149.579C361.084 149.712 350.623 149.884 340.163 149.923C334.98 149.942 329.79 149.826 324.615 149.553C319.356 149.276 314.104 148.817 308.867 148.267C305.772 147.942 302.707 147.287 299.909 145.724C297.69 144.486 296.36 141.84 296.834 139.494Z" fill="white"/>
<path d="M445.87 126.827C445.905 126.465 446.221 126.196 446.584 126.212C456.765 126.672 462.754 126.657 472.941 126.21C473.294 126.195 473.604 126.451 473.65 126.801C474.053 129.933 474.057 131.924 473.642 135.072C473.6 135.392 473.334 135.638 473.012 135.66C462.863 136.367 456.873 136.41 446.493 135.662C446.17 135.639 445.904 135.39 445.865 135.068C445.488 131.93 445.566 129.942 445.87 126.827Z" fill="white"/>
<path d="M445.957 105.861C445.984 105.493 446.302 105.213 446.671 105.229C456.778 105.685 462.736 105.671 472.842 105.229C473.214 105.213 473.533 105.498 473.554 105.87C473.74 109.19 473.758 111.183 473.559 114.004C473.535 114.343 473.259 114.611 472.92 114.631C462.849 115.223 456.884 115.244 446.575 114.63C446.247 114.611 445.976 114.358 445.94 114.031C445.613 110.996 445.731 108.995 445.957 105.861Z" fill="white"/>
<path d="M444.918 112.018C445.721 111.891 446.21 111.856 446.614 112.181L447.886 113.432C448.357 113.895 448.107 114.675 447.447 114.67C446.811 114.666 446.028 114.597 444.896 114.446C444.62 114.41 444.376 114.235 444.281 113.974C444.06 113.368 444.074 112.929 444.389 112.369C444.498 112.175 444.698 112.053 444.918 112.018Z" fill="white"/>
<path d="M474.584 112.017C473.854 111.9 473.388 111.866 472.945 112.142C472.905 112.167 472.868 112.198 472.835 112.231L471.588 113.458C471.122 113.916 471.363 114.681 472.015 114.674C472.638 114.667 473.431 114.597 474.601 114.445C474.878 114.409 475.124 114.235 475.219 113.972C475.439 113.366 475.425 112.928 475.11 112.367C475.001 112.174 474.802 112.052 474.584 112.017Z" fill="white"/>
<path d="M445.911 96.1252C445.963 95.3792 446.577 94.7956 447.325 94.7769C456.102 94.5569 461.948 94.5241 472.178 94.7767C472.933 94.7954 473.551 95.3903 473.59 96.1444C473.729 98.8222 473.742 100.647 473.603 102.943C473.559 103.668 472.973 104.241 472.248 104.282C462.787 104.823 456.909 104.841 447.217 104.28C446.516 104.239 445.94 103.701 445.876 103.002C445.649 100.52 445.732 98.6817 445.911 96.1252Z" fill="white"/>
<path d="M444.918 101.629C445.721 101.502 446.21 101.468 446.614 101.792L447.886 103.043C448.357 103.506 448.107 104.286 447.447 104.281C446.811 104.277 446.028 104.208 444.896 104.058C444.62 104.021 444.376 103.847 444.281 103.585C444.06 102.979 444.074 102.54 444.389 101.98C444.498 101.786 444.698 101.664 444.918 101.629Z" fill="white"/>
<path d="M474.584 101.628C473.854 101.511 473.388 101.477 472.945 101.753C472.905 101.778 472.868 101.809 472.835 101.842L471.588 103.069C471.122 103.527 471.363 104.292 472.015 104.285C472.638 104.278 473.431 104.208 474.601 104.056C474.878 104.02 475.124 103.846 475.219 103.583C475.439 102.977 475.425 102.539 475.11 101.978C475.001 101.786 474.802 101.663 474.584 101.628Z" fill="white"/>
<path d="M445.957 116.249C445.984 115.881 446.302 115.601 446.671 115.618C456.778 116.074 462.736 116.059 472.842 115.617C473.214 115.601 473.533 115.886 473.554 116.258C473.74 119.578 473.758 121.571 473.559 124.392C473.535 124.732 473.259 125 472.92 125.02C462.849 125.611 456.884 125.632 446.575 125.019C446.247 124.999 445.976 124.746 445.94 124.42C445.613 121.384 445.731 119.384 445.957 116.249Z" fill="white"/>
<path d="M444.918 122.406C445.721 122.279 446.21 122.244 446.614 122.569L447.886 123.82C448.357 124.283 448.107 125.063 447.447 125.058C446.811 125.054 446.028 124.985 444.896 124.835C444.62 124.798 444.376 124.623 444.281 124.362C444.06 123.756 444.074 123.317 444.389 122.757C444.498 122.563 444.698 122.441 444.918 122.406Z" fill="white"/>
<path d="M445.336 133.093C446.139 132.965 446.628 132.931 447.032 133.256L448.304 134.507C448.775 134.97 448.525 135.749 447.865 135.745C447.229 135.74 446.446 135.671 445.314 135.521C445.038 135.485 444.794 135.31 444.699 135.049C444.478 134.443 444.492 134.004 444.807 133.443C444.916 133.25 445.116 133.127 445.336 133.093Z" fill="white"/>
<path d="M474.584 122.405C473.854 122.287 473.388 122.253 472.945 122.53C472.905 122.555 472.868 122.585 472.835 122.619L471.588 123.846C471.122 124.303 471.363 125.069 472.015 125.062C472.638 125.055 473.431 124.984 474.601 124.833C474.878 124.797 475.124 124.622 475.219 124.36C475.439 123.754 475.425 123.316 475.11 122.755C475.001 122.562 474.802 122.44 474.584 122.405Z" fill="white"/>
<path d="M474.455 133.086C473.725 132.969 473.259 132.935 472.816 133.211C472.776 133.236 472.74 133.267 472.706 133.3L471.459 134.527C470.993 134.985 471.234 135.75 471.887 135.743C472.509 135.736 473.302 135.666 474.472 135.514C474.749 135.478 474.995 135.304 475.09 135.041C475.311 134.435 475.296 133.997 474.981 133.436C474.872 133.244 474.673 133.121 474.455 133.086Z" fill="white"/>
<path fill-rule="evenodd" clip-rule="evenodd" d="M467.331 100.416H451.957V92.3137C451.957 89.5598 454.189 87.3274 456.943 87.3274H462.345C465.099 87.3274 467.331 89.5598 467.331 92.3137V100.416ZM456.943 89.6128C455.452 89.6128 454.242 90.822 454.242 92.3137V98.131H465.046V92.3137C465.046 90.822 463.837 89.6128 462.345 89.6128H456.943Z" fill="white"/>
<g style="mix-blend-mode:darken">
<rect x="468.58" y="94.5985" width="3.32419" height="41.5523" fill="#D9D9D9"/>
</g>
<g style="mix-blend-mode:darken">
<rect x="467.334" y="94.5985" width="0.831047" height="41.5523" fill="#D9D9D9"/>
</g>
<g style="mix-blend-mode:darken">
<rect x="464.461" y="94.7029" width="0.415523" height="41.5523" fill="#D9D9D9"/>
</g>
<path d="M314.862 131.652C312.773 131.652 310.757 131.397 308.813 130.887C306.894 130.352 305.327 129.672 304.113 128.846L306.481 123.526C307.623 124.255 308.935 124.862 310.417 125.348C311.923 125.809 313.417 126.04 314.899 126.04C315.895 126.04 316.696 125.955 317.304 125.785C317.911 125.591 318.348 125.348 318.615 125.056C318.907 124.74 319.053 124.376 319.053 123.963C319.053 123.38 318.785 122.919 318.251 122.578C317.717 122.238 317.024 121.959 316.174 121.74C315.324 121.522 314.376 121.303 313.332 121.084C312.311 120.866 311.279 120.586 310.234 120.246C309.214 119.906 308.279 119.469 307.429 118.935C306.578 118.376 305.886 117.659 305.352 116.785C304.817 115.886 304.55 114.756 304.55 113.396C304.55 111.865 304.963 110.481 305.789 109.242C306.639 108.003 307.902 107.007 309.578 106.254C311.255 105.501 313.344 105.124 315.846 105.124C317.522 105.124 319.162 105.318 320.765 105.707C322.393 106.071 323.838 106.618 325.102 107.347L322.879 112.703C321.664 112.048 320.462 111.562 319.271 111.246C318.081 110.906 316.927 110.736 315.81 110.736C314.814 110.736 314.012 110.845 313.405 111.064C312.797 111.258 312.36 111.525 312.093 111.865C311.826 112.205 311.692 112.594 311.692 113.031C311.692 113.59 311.947 114.04 312.457 114.38C312.992 114.695 313.684 114.963 314.534 115.181C315.409 115.376 316.356 115.582 317.376 115.801C318.421 116.019 319.453 116.299 320.474 116.639C321.518 116.955 322.466 117.392 323.316 117.951C324.166 118.485 324.846 119.202 325.357 120.101C325.891 120.975 326.158 122.08 326.158 123.417C326.158 124.898 325.733 126.271 324.883 127.534C324.057 128.773 322.806 129.769 321.13 130.522C319.478 131.275 317.389 131.652 314.862 131.652ZM337.981 131.47C335.455 131.47 333.487 130.85 332.078 129.611C330.669 128.348 329.965 126.453 329.965 123.927V106.982H336.888V123.854C336.888 124.558 337.082 125.117 337.471 125.53C337.86 125.919 338.358 126.113 338.965 126.113C339.791 126.113 340.496 125.907 341.079 125.494L342.791 130.34C342.208 130.729 341.492 131.008 340.641 131.178C339.791 131.372 338.904 131.47 337.981 131.47ZM327.086 117.295V112.12H341.407V117.295H327.086ZM353.769 131.47C352.166 131.47 350.72 131.154 349.433 130.522C348.17 129.891 347.174 128.907 346.445 127.571C345.74 126.21 345.388 124.498 345.388 122.433V111.392H352.312V121.303C352.312 122.833 352.591 123.927 353.15 124.583C353.733 125.238 354.546 125.566 355.591 125.566C356.271 125.566 356.891 125.409 357.449 125.093C358.008 124.777 358.458 124.279 358.798 123.599C359.138 122.894 359.308 121.995 359.308 120.902V111.392H366.231V131.142H359.636V125.566L360.911 127.133C360.231 128.591 359.247 129.684 357.96 130.413C356.672 131.117 355.275 131.47 353.769 131.47ZM371.492 131.142V111.61C371.492 109.23 372.197 107.335 373.606 105.926C375.039 104.492 377.08 103.776 379.728 103.776C380.578 103.776 381.416 103.861 382.242 104.031C383.068 104.201 383.76 104.456 384.319 104.796L382.606 109.679C382.315 109.509 381.987 109.375 381.623 109.278C381.258 109.157 380.894 109.096 380.529 109.096C379.801 109.096 379.23 109.315 378.817 109.752C378.428 110.165 378.234 110.809 378.234 111.683V113.104L378.416 115.983V131.142H371.492ZM368.614 117.295V112.12H382.934V117.295H368.614ZM386.296 131.142V111.61C386.296 109.23 387 107.335 388.409 105.926C389.843 104.492 391.883 103.776 394.531 103.776C395.381 103.776 396.219 103.861 397.045 104.031C397.871 104.201 398.564 104.456 399.122 104.796L397.41 109.679C397.118 109.509 396.79 109.375 396.426 109.278C396.062 109.157 395.697 109.096 395.333 109.096C394.604 109.096 394.033 109.315 393.62 109.752C393.231 110.165 393.037 110.809 393.037 111.683V113.104L393.219 115.983V131.142H386.296ZM383.417 117.295V112.12H397.738V117.295H383.417ZM400.908 131.142V111.392H407.831V131.142H400.908ZM404.37 109.205C403.106 109.205 402.086 108.853 401.309 108.149C400.531 107.444 400.143 106.569 400.143 105.525C400.143 104.48 400.531 103.606 401.309 102.901C402.086 102.197 403.106 101.845 404.37 101.845C405.633 101.845 406.653 102.185 407.431 102.865C408.208 103.521 408.597 104.371 408.597 105.416C408.597 106.509 408.208 107.42 407.431 108.149C406.677 108.853 405.657 109.205 404.37 109.205ZM425.188 111.064C426.719 111.064 428.103 111.379 429.342 112.011C430.581 112.618 431.553 113.566 432.258 114.853C432.986 116.141 433.351 117.805 433.351 119.845V131.142H426.427V120.975C426.427 119.566 426.136 118.546 425.553 117.914C424.994 117.258 424.204 116.93 423.184 116.93C422.455 116.93 421.787 117.1 421.18 117.44C420.573 117.756 420.099 118.254 419.759 118.935C419.419 119.615 419.249 120.501 419.249 121.595V131.142H412.325V111.392H418.921V117.003L417.645 115.363C418.399 113.93 419.431 112.861 420.743 112.157C422.055 111.428 423.536 111.064 425.188 111.064Z" fill="white"/>
</svg>
