<svg width="384" height="384" viewBox="0 0 384 384" fill="none" xmlns="http://www.w3.org/2000/svg">
<path d="M50.0387 259.2C50.0387 259.2 4.18522 137.752 35.3276 88.6387C66.47 39.5251 304.681 -0.59519 351.651 46.848C387.363 82.8979 379.111 239.512 351.651 269.065C314.715 308.813 73.1209 324.054 50.0387 259.2Z" fill="#D2FFE1"/>
<path d="M71.2125 38.2771L72.5028 41.6371C72.5832 41.8452 72.7065 42.0341 72.8646 42.1915C73.0227 42.349 73.2121 42.4714 73.4205 42.551L76.7805 43.8451C77.081 43.9595 77.3397 44.1625 77.5222 44.4272C77.7047 44.6919 77.8024 45.0058 77.8024 45.3274C77.8024 45.6489 77.7047 45.9628 77.5222 46.2276C77.3397 46.4923 77.081 46.6953 76.7805 46.8096L73.4205 48.1037C73.2121 48.1833 73.0227 48.3058 72.8646 48.4632C72.7065 48.6206 72.5832 48.8095 72.5028 49.0176L71.2125 52.3776C71.0973 52.6778 70.8938 52.9359 70.6288 53.118C70.3638 53.3001 70.0499 53.3976 69.7284 53.3976C69.4069 53.3976 69.0929 53.3001 68.8279 53.118C68.563 52.9359 68.3594 52.6778 68.2442 52.3776L66.954 49.0176C66.8748 48.8094 66.7524 48.6203 66.5949 48.4628C66.4373 48.3053 66.2483 48.1829 66.04 48.1037L62.6762 46.8096C62.3757 46.6953 62.117 46.4923 61.9345 46.2276C61.752 45.9628 61.6543 45.6489 61.6543 45.3274C61.6543 45.0058 61.752 44.6919 61.9345 44.4272C62.117 44.1625 62.3757 43.9595 62.6762 43.8451L66.04 42.551C66.2483 42.4718 66.4373 42.3495 66.5949 42.1919C66.7524 42.0344 66.8748 41.8453 66.954 41.6371L68.2442 38.2771C68.3594 37.977 68.563 37.7188 68.8279 37.5367C69.0929 37.3546 69.4069 37.2571 69.7284 37.2571C70.0499 37.2571 70.3638 37.3546 70.6288 37.5367C70.8938 37.7188 71.0973 37.977 71.2125 38.2771Z" fill="#D2FFE1"/>
<path d="M353.848 194.016L355.768 199.008C355.887 199.315 356.069 199.595 356.303 199.827C356.536 200.06 356.816 200.241 357.124 200.36L362.116 202.28C362.559 202.451 362.941 202.752 363.21 203.144C363.479 203.536 363.623 204.001 363.623 204.476C363.623 204.952 363.479 205.416 363.21 205.808C362.941 206.2 362.559 206.502 362.116 206.673L357.124 208.593C356.816 208.711 356.536 208.892 356.303 209.125C356.069 209.358 355.887 209.637 355.768 209.944L353.848 214.936C353.677 215.38 353.376 215.762 352.984 216.031C352.591 216.3 352.127 216.444 351.652 216.444C351.176 216.444 350.712 216.3 350.319 216.031C349.927 215.762 349.626 215.38 349.455 214.936L347.535 209.944C347.417 209.636 347.236 209.356 347.002 209.123C346.768 208.89 346.488 208.71 346.18 208.593L341.207 206.673C340.763 206.502 340.381 206.2 340.112 205.808C339.843 205.416 339.699 204.952 339.699 204.476C339.699 204.001 339.843 203.536 340.112 203.144C340.381 202.752 340.763 202.451 341.207 202.28L346.18 200.36C346.488 200.243 346.768 200.062 347.002 199.829C347.236 199.596 347.417 199.316 347.535 199.008L349.455 194.016C349.626 193.572 349.927 193.191 350.319 192.922C350.712 192.653 351.176 192.508 351.652 192.508C352.127 192.508 352.591 192.653 352.984 192.922C353.376 193.191 353.677 193.572 353.848 194.016Z" fill="white"/>
<path d="M324.863 50.2311L325.582 52.1011C325.627 52.2168 325.696 52.3219 325.784 52.4098C325.871 52.4977 325.977 52.5665 326.092 52.6119L327.962 53.3299C328.13 53.3936 328.274 53.5066 328.376 53.6541C328.477 53.8015 328.532 53.9764 328.532 54.1555C328.532 54.3347 328.477 54.5096 328.376 54.657C328.274 54.8045 328.13 54.9175 327.962 54.9811L326.092 55.6992C325.977 55.7446 325.871 55.8134 325.784 55.9013C325.696 55.9891 325.627 56.0942 325.582 56.2099L324.863 58.08C324.8 58.2475 324.687 58.3916 324.539 58.4933C324.392 58.595 324.217 58.6495 324.038 58.6495C323.859 58.6495 323.684 58.595 323.536 58.4933C323.389 58.3916 323.276 58.2475 323.212 58.08L322.494 56.2099C322.449 56.0942 322.38 55.9891 322.292 55.9013C322.204 55.8134 322.099 55.7446 321.983 55.6992L320.113 54.9811C319.946 54.9175 319.802 54.8045 319.7 54.657C319.598 54.5096 319.544 54.3347 319.544 54.1555C319.544 53.9764 319.598 53.8015 319.7 53.6541C319.802 53.5066 319.946 53.3936 320.113 53.3299L321.983 52.6119C322.099 52.5665 322.204 52.4977 322.292 52.4098C322.38 52.3219 322.449 52.2168 322.494 52.1011L323.212 50.2311C323.276 50.0636 323.389 49.9195 323.536 49.8178C323.684 49.7161 323.859 49.6616 324.038 49.6616C324.217 49.6616 324.392 49.7161 324.539 49.8178C324.687 49.9195 324.8 50.0636 324.863 50.2311Z" fill="white"/>
<path d="M48.7673 149.491L50.0575 152.855C50.1371 153.063 50.2597 153.252 50.4172 153.409C50.5746 153.567 50.7635 153.689 50.9714 153.769L54.3353 155.059C54.6354 155.174 54.8936 155.378 55.0757 155.643C55.2578 155.908 55.3553 156.222 55.3553 156.543C55.3553 156.865 55.2578 157.179 55.0757 157.444C54.8936 157.709 54.6354 157.912 54.3353 158.028L50.9714 159.318C50.7638 159.398 50.5753 159.521 50.4179 159.678C50.2605 159.836 50.1378 160.024 50.0575 160.232L48.7673 163.584C48.6521 163.884 48.4485 164.142 48.1836 164.324C47.9186 164.507 47.6046 164.604 47.2831 164.604C46.9616 164.604 46.6476 164.507 46.3827 164.324C46.1177 164.142 45.9142 163.884 45.799 163.584L44.5087 160.22C44.4285 160.013 44.3057 159.824 44.1483 159.667C43.9909 159.509 43.8024 159.386 43.5948 159.306L40.231 158.016C39.9308 157.901 39.6726 157.697 39.4905 157.432C39.3084 157.167 39.2109 156.853 39.2109 156.532C39.2109 156.21 39.3084 155.896 39.4905 155.631C39.6726 155.366 39.9308 155.163 40.231 155.048L43.5948 153.757C43.8028 153.678 43.9916 153.555 44.1491 153.398C44.3065 153.24 44.4291 153.051 44.5087 152.844L45.799 149.48C45.9153 149.18 46.1199 148.923 46.3855 148.741C46.6512 148.56 46.9656 148.464 47.2871 148.465C47.6086 148.467 47.9222 148.565 48.1864 148.748C48.4507 148.932 48.6532 149.191 48.7673 149.491Z" fill="white"/>
<path d="M35.3271 88.6387C35.3271 88.6387 130.82 81.961 158.441 162.9C186.063 243.84 295.295 267.963 360.471 251.578" stroke="white" stroke-width="0.384" stroke-miterlimit="10"/>
<path d="M135.617 41.5872C135.617 41.5872 205.782 25.6243 242.98 90.5242C282.267 159.072 374.761 131.205 374.761 131.205" stroke="white" stroke-width="0.384" stroke-miterlimit="10"/>
<path d="M313.471 160.892C313.471 157.785 310.953 155.267 307.847 155.267C304.741 155.267 302.224 157.785 302.224 160.892V224.026C302.224 227.133 304.741 229.651 307.847 229.651C310.953 229.651 313.471 227.133 313.471 224.026V160.892Z" fill="#85FFC4"/>
<path d="M313.471 257.203C313.471 254.096 310.953 251.578 307.847 251.578C304.741 251.578 302.224 254.096 302.224 257.203V278.097C302.224 281.204 304.741 283.722 307.847 283.722C310.953 283.722 313.471 281.204 313.471 278.097V257.203Z" fill="#85FFC4"/>
<path d="M307.369 96.5798V289.782C302.734 291.022 297.857 292.193 292.777 293.284C237.627 305.13 158.523 307.764 105.385 294.628C100.262 293.364 95.401 291.94 90.793 290.404V96.5798C90.794 88.9127 93.8404 81.56 99.2623 76.1389C104.684 70.7178 112.037 67.6723 119.704 67.6723H278.461C286.128 67.6723 293.481 70.7179 298.902 76.1391C304.323 81.5603 307.369 88.9131 307.369 96.5798Z" fill="white"/>
<path d="M212.709 67.6761H278.465C286.132 67.6761 293.485 70.7218 298.906 76.143C304.327 81.5642 307.373 88.9169 307.373 96.5837V289.782" stroke="#03736D" stroke-width="0.768" stroke-linecap="round" stroke-linejoin="round"/>
<path d="M292.777 99.7171V293.284C237.627 305.13 158.523 307.764 105.385 294.628V99.7171C105.386 94.925 107.29 90.3296 110.679 86.9414C114.068 83.5533 118.664 81.6499 123.456 81.6499H274.71C277.083 81.6474 279.433 82.113 281.627 83.0201C283.82 83.9271 285.812 85.2578 287.491 86.936C289.169 88.6142 290.5 90.6069 291.407 92.8001C292.314 94.9933 292.779 97.3438 292.777 99.7171Z" fill="#36C196"/>
<path d="M292.777 134.277V293.284C237.627 305.13 158.523 307.764 105.385 294.628V134.277C105.386 129.485 107.29 124.89 110.679 121.501C114.068 118.113 118.664 116.21 123.456 116.21H274.71C277.083 116.207 279.433 116.673 281.627 117.58C283.82 118.487 285.812 119.818 287.491 121.496C289.169 123.174 290.5 125.167 291.407 127.36C292.314 129.553 292.779 131.904 292.777 134.277Z" fill="#03736D"/>
<path d="M275.685 90.5241H122.466C117.955 90.5241 114.298 94.1801 114.298 98.6899C114.298 103.2 117.955 106.856 122.466 106.856H275.685C280.196 106.856 283.853 103.2 283.853 98.6899C283.853 94.1801 280.196 90.5241 275.685 90.5241Z" fill="white"/>
<path d="M242.98 106.856H122.466C121.393 106.856 120.33 106.645 119.339 106.235C118.348 105.825 117.448 105.223 116.689 104.465C115.93 103.706 115.329 102.805 114.919 101.814C114.508 100.823 114.297 99.7607 114.298 98.688C114.298 97.6154 114.509 96.5533 114.92 95.5623C115.33 94.5714 115.932 93.671 116.69 92.9126C117.449 92.1541 118.349 91.5525 119.34 91.142C120.331 90.7316 121.393 90.5203 122.466 90.5203H180.703" stroke="#03736D" stroke-width="0.768" stroke-linecap="round" stroke-linejoin="round"/>
<path d="M272.709 101.311C274.59 101.311 276.115 99.7857 276.115 97.9046C276.115 96.0235 274.59 94.4985 272.709 94.4985C270.828 94.4985 269.303 96.0235 269.303 97.9046C269.303 99.7857 270.828 101.311 272.709 101.311Z" stroke="#03736D" stroke-width="0.768" stroke-linecap="round" stroke-linejoin="round"/>
<path d="M277.27 102.467L275.116 100.312" stroke="#03736D" stroke-width="0.768" stroke-linecap="round" stroke-linejoin="round"/>
<path d="M272.068 131.205H126.086C122.258 131.205 119.155 134.308 119.155 138.136V168.753C119.155 172.581 122.258 175.684 126.086 175.684H272.068C275.896 175.684 278.999 172.581 278.999 168.753V138.136C278.999 134.308 275.896 131.205 272.068 131.205Z" fill="white"/>
<path d="M152.168 140.102H130.522C129.131 140.102 128.003 141.23 128.003 142.621V164.268C128.003 165.659 129.131 166.787 130.522 166.787H152.168C153.559 166.787 154.687 165.659 154.687 164.268V142.621C154.687 141.23 153.559 140.102 152.168 140.102Z" fill="#FFBA40"/>
<path d="M147.073 157.478C147.073 159.598 144.508 160.339 141.348 160.339C138.187 160.339 135.622 159.598 135.622 157.478C135.622 155.359 138.183 153.638 141.348 153.638C144.512 153.638 147.073 155.363 147.073 157.478Z" fill="#D2FFE1"/>
<path d="M141.343 159.252C146.923 159.252 151.446 157.537 151.446 155.42C151.446 153.304 146.923 151.588 141.343 151.588C135.764 151.588 131.24 153.304 131.24 155.42C131.24 157.537 135.764 159.252 141.343 159.252Z" fill="#85FFC4"/>
<path d="M141.343 157.701C144.824 157.701 147.645 156.793 147.645 155.674C147.645 154.554 144.824 153.646 141.343 153.646C137.863 153.646 135.042 154.554 135.042 155.674C135.042 156.793 137.863 157.701 141.343 157.701Z" fill="#D2FFE1"/>
<path d="M145.153 154.061L150.993 148.685C151.088 148.622 151.169 148.539 151.228 148.441C151.287 148.344 151.324 148.235 151.335 148.121C151.347 148.008 151.333 147.893 151.295 147.786C151.257 147.678 151.195 147.581 151.114 147.5C151.034 147.419 150.936 147.358 150.829 147.32C150.721 147.281 150.607 147.267 150.493 147.279C150.38 147.291 150.27 147.327 150.173 147.387C150.075 147.446 149.992 147.526 149.93 147.621L144.554 153.462C144.225 153.387 143.882 153.402 143.562 153.506C143.241 153.61 142.955 153.799 142.733 154.053C142.027 154.76 141.858 155.739 142.349 156.242C142.841 156.745 143.832 156.572 144.538 155.858C144.792 155.641 144.983 155.359 145.091 155.043C145.199 154.727 145.22 154.388 145.153 154.061Z" fill="#03736D"/>
<path d="M136.769 153.646C135.164 152.878 137.384 150.374 136.001 148.716C134.619 147.057 136.723 145.041 140.11 146.446C143.497 147.852 145.402 145.778 145.551 147.671C145.747 150.013 141.665 155.954 136.769 153.646Z" fill="white"/>
<path d="M140.705 148.662C141.204 149.291 140.859 149.906 140.233 150.405C139.607 150.904 138.931 151.1 138.428 150.47C138.208 150.167 138.113 149.79 138.164 149.418C138.215 149.047 138.407 148.709 138.701 148.476C138.994 148.242 139.367 148.131 139.74 148.166C140.114 148.201 140.459 148.378 140.705 148.662Z" fill="#FF8B00"/>
<path d="M138.536 150.056C138.444 149.887 138.396 149.697 138.396 149.505C138.396 149.312 138.444 149.123 138.536 148.954C138.766 148.608 139.043 148.954 138.92 149.218C138.797 149.483 138.401 149.595 138.536 150.056Z" fill="white"/>
<path d="M245.917 142.902H165.646C164.435 142.902 163.453 143.883 163.453 145.094C163.453 146.305 164.435 147.287 165.646 147.287H245.917C247.128 147.287 248.11 146.305 248.11 145.094C248.11 143.883 247.128 142.902 245.917 142.902Z" fill="#164D3D"/>
<path d="M246.743 153.508H164.82C164.065 153.508 163.453 154.12 163.453 154.875C163.453 155.63 164.065 156.242 164.82 156.242H246.743C247.498 156.242 248.11 155.63 248.11 154.875C248.11 154.12 247.498 153.508 246.743 153.508Z" fill="#D2FFE1"/>
<path d="M208.727 160.166H164.82C164.065 160.166 163.453 160.778 163.453 161.533C163.453 162.288 164.065 162.901 164.82 162.901H208.727C209.482 162.901 210.094 162.288 210.094 161.533C210.094 160.778 209.482 160.166 208.727 160.166Z" fill="#D2FFE1"/>
<path d="M269.022 142.902H258.47C257.577 142.902 256.854 143.626 256.854 144.518V154.625C256.854 155.518 257.577 156.242 258.47 156.242H269.022C269.915 156.242 270.639 155.518 270.639 154.625V144.518C270.639 143.626 269.915 142.902 269.022 142.902Z" fill="#36C196"/>
<path d="M264.191 149.115H265.378V149.971H264.191V151.315H263.285V149.971H262.095V149.115H263.285V147.84H264.191V149.115Z" fill="white"/>
<path d="M272.064 190.564H126.083C122.255 190.564 119.151 193.667 119.151 197.495V228.111C119.151 231.939 122.255 235.043 126.083 235.043H272.064C275.892 235.043 278.995 231.939 278.995 228.111V197.495C278.995 193.667 275.892 190.564 272.064 190.564Z" fill="white"/>
<path d="M152.164 199.461H130.518C129.127 199.461 127.999 200.589 127.999 201.98V223.626C127.999 225.017 129.127 226.145 130.518 226.145H152.164C153.555 226.145 154.683 225.017 154.683 223.626V201.98C154.683 200.589 153.555 199.461 152.164 199.461Z" fill="#FFBA40"/>
<path d="M147.073 216.841C147.073 218.957 144.508 219.698 141.348 219.698C138.187 219.698 135.622 218.957 135.622 216.841C135.622 214.725 138.183 213.001 141.348 213.001C144.512 213.001 147.073 214.721 147.073 216.841Z" fill="#D2FFE1"/>
<path d="M141.343 218.611C146.923 218.611 151.446 216.895 151.446 214.779C151.446 212.662 146.923 210.947 141.343 210.947C135.764 210.947 131.24 212.662 131.24 214.779C131.24 216.895 135.764 218.611 141.343 218.611Z" fill="#85FFC4"/>
<path d="M141.343 217.064C144.824 217.064 147.645 216.156 147.645 215.036C147.645 213.916 144.824 213.009 141.343 213.009C137.863 213.009 135.042 213.916 135.042 215.036C135.042 216.156 137.863 217.064 141.343 217.064Z" fill="#D2FFE1"/>
<path d="M145.153 213.42L150.993 208.044C151.089 207.981 151.169 207.898 151.228 207.8C151.287 207.703 151.324 207.593 151.335 207.48C151.347 207.366 151.333 207.252 151.295 207.144C151.257 207.037 151.195 206.939 151.114 206.859C151.034 206.778 150.936 206.716 150.829 206.678C150.721 206.64 150.607 206.626 150.493 206.638C150.38 206.649 150.27 206.686 150.173 206.745C150.075 206.804 149.992 206.885 149.93 206.98L144.554 212.82C144.225 212.745 143.881 212.76 143.56 212.865C143.239 212.969 142.952 213.158 142.73 213.412C142.023 214.122 141.858 215.098 142.346 215.601C142.833 216.104 143.824 215.935 144.535 215.217C144.789 215 144.98 214.719 145.089 214.402C145.198 214.086 145.22 213.747 145.153 213.42Z" fill="#03736D"/>
<path d="M136.77 213.005C135.165 212.237 137.381 209.733 136.002 208.074C134.624 206.415 136.72 204.399 140.111 205.805C143.502 207.21 145.403 205.137 145.552 207.03C145.748 209.372 141.666 215.316 136.77 213.005Z" fill="white"/>
<path d="M140.702 208.024C141.202 208.65 140.86 209.265 140.234 209.764C139.608 210.263 138.928 210.459 138.429 209.833C138.189 209.532 138.079 209.147 138.123 208.764C138.166 208.382 138.36 208.032 138.661 207.792C138.963 207.552 139.347 207.442 139.73 207.485C140.113 207.529 140.463 207.723 140.702 208.024Z" fill="#FF8B00"/>
<path d="M138.537 209.414C138.445 209.245 138.396 209.056 138.396 208.863C138.396 208.671 138.445 208.481 138.537 208.312C138.763 207.971 139.044 208.312 138.921 208.577C138.798 208.842 138.399 208.954 138.537 209.414Z" fill="white"/>
<path d="M245.917 202.26H165.646C164.435 202.26 163.453 203.242 163.453 204.453C163.453 205.664 164.435 206.646 165.646 206.646H245.917C247.128 206.646 248.11 205.664 248.11 204.453C248.11 203.242 247.128 202.26 245.917 202.26Z" fill="#164D3D"/>
<path d="M246.743 212.867H164.82C164.065 212.867 163.453 213.479 163.453 214.234C163.453 214.989 164.065 215.601 164.82 215.601H246.743C247.498 215.601 248.11 214.989 248.11 214.234C248.11 213.479 247.498 212.867 246.743 212.867Z" fill="#D2FFE1"/>
<path d="M208.727 219.529H164.82C164.065 219.529 163.453 220.141 163.453 220.896C163.453 221.651 164.065 222.263 164.82 222.263H208.727C209.482 222.263 210.094 221.651 210.094 220.896C210.094 220.141 209.482 219.529 208.727 219.529Z" fill="#D2FFE1"/>
<path d="M269.022 202.26H258.47C257.577 202.26 256.854 202.984 256.854 203.877V213.984C256.854 214.877 257.577 215.601 258.47 215.601H269.022C269.915 215.601 270.639 214.877 270.639 213.984V203.877C270.639 202.984 269.915 202.26 269.022 202.26Z" fill="#36C196"/>
<path d="M264.191 208.474H265.382V209.334H264.191V210.674H263.289V209.334H262.095V208.474H263.289V207.187H264.191V208.474Z" fill="white"/>
<path d="M272.064 249.923H126.083C122.255 249.923 119.151 253.026 119.151 256.854V287.47C119.151 291.298 122.255 294.401 126.083 294.401H272.064C275.892 294.401 278.995 291.298 278.995 287.47V256.854C278.995 253.026 275.892 249.923 272.064 249.923Z" fill="white"/>
<path d="M152.164 258.82H130.518C129.127 258.82 127.999 259.948 127.999 261.339V282.985C127.999 284.376 129.127 285.504 130.518 285.504H152.164C153.555 285.504 154.683 284.376 154.683 282.985V261.339C154.683 259.948 153.555 258.82 152.164 258.82Z" fill="#FFBA40"/>
<path d="M147.073 276.2C147.073 278.316 144.512 279.057 141.348 279.057C138.183 279.057 135.622 278.316 135.622 276.2C135.622 274.084 138.187 272.36 141.348 272.36C144.508 272.36 147.073 274.084 147.073 276.2Z" fill="#D2FFE1"/>
<path d="M141.339 277.974C146.919 277.974 151.442 276.258 151.442 274.141C151.442 272.025 146.919 270.309 141.339 270.309C135.76 270.309 131.236 272.025 131.236 274.141C131.236 276.258 135.76 277.974 141.339 277.974Z" fill="#85FFC4"/>
<path d="M141.34 276.422C144.82 276.422 147.641 275.515 147.641 274.395C147.641 273.275 144.82 272.367 141.34 272.367C137.859 272.367 135.038 273.275 135.038 274.395C135.038 275.515 137.859 276.422 141.34 276.422Z" fill="#D2FFE1"/>
<path d="M145.153 272.778L150.997 267.402C151.091 267.339 151.17 267.255 151.228 267.158C151.286 267.06 151.322 266.951 151.333 266.838C151.344 266.725 151.329 266.612 151.291 266.505C151.252 266.398 151.191 266.301 151.111 266.221C151.03 266.141 150.933 266.08 150.826 266.042C150.719 266.004 150.605 265.99 150.492 266.001C150.38 266.012 150.271 266.048 150.173 266.107C150.076 266.165 149.993 266.244 149.93 266.339L144.573 272.183C144.244 272.107 143.9 272.122 143.579 272.226C143.258 272.33 142.971 272.52 142.749 272.774C142.042 273.481 141.873 274.46 142.365 274.959C142.857 275.459 143.843 275.293 144.55 274.575C144.802 274.357 144.991 274.075 145.097 273.759C145.203 273.443 145.222 273.104 145.153 272.778Z" fill="#03736D"/>
<path d="M136.765 272.367C135.164 271.599 137.38 269.092 135.997 267.433C134.615 265.774 136.719 263.758 140.106 265.164C143.493 266.569 145.402 264.499 145.548 266.388C145.743 268.731 141.665 274.675 136.765 272.367Z" fill="white"/>
<path d="M140.701 267.383C141.201 268.009 140.859 268.623 140.229 269.123C139.599 269.622 138.927 269.818 138.428 269.192C138.188 268.89 138.078 268.506 138.122 268.123C138.165 267.74 138.359 267.391 138.66 267.151C138.962 266.911 139.346 266.801 139.729 266.844C140.112 266.888 140.462 267.082 140.701 267.383Z" fill="#FF8B00"/>
<path d="M138.532 268.773C138.439 268.605 138.39 268.416 138.39 268.224C138.39 268.032 138.439 267.843 138.532 267.675C138.763 267.329 139.039 267.675 138.916 267.936C138.793 268.197 138.398 268.316 138.532 268.773Z" fill="white"/>
<path d="M245.917 261.619H165.646C164.435 261.619 163.453 262.601 163.453 263.812C163.453 265.023 164.435 266.004 165.646 266.004H245.917C247.128 266.004 248.11 265.023 248.11 263.812C248.11 262.601 247.128 261.619 245.917 261.619Z" fill="#164D3D"/>
<path d="M246.743 272.225H164.82C164.065 272.225 163.453 272.837 163.453 273.592C163.453 274.347 164.065 274.959 164.82 274.959H246.743C247.498 274.959 248.11 274.347 248.11 273.592C248.11 272.837 247.498 272.225 246.743 272.225Z" fill="#D2FFE1"/>
<path d="M208.727 278.888H164.82C164.065 278.888 163.453 279.5 163.453 280.255C163.453 281.01 164.065 281.622 164.82 281.622H208.727C209.482 281.622 210.094 281.01 210.094 280.255C210.094 279.5 209.482 278.888 208.727 278.888Z" fill="#D2FFE1"/>
<path d="M269.022 261.619H258.47C257.577 261.619 256.854 262.343 256.854 263.236V273.343C256.854 274.236 257.577 274.959 258.47 274.959H269.022C269.915 274.959 270.639 274.236 270.639 273.343V263.236C270.639 262.343 269.915 261.619 269.022 261.619Z" fill="#36C196"/>
<path d="M264.191 267.832H265.378V268.693H264.191V270.033H263.285V268.693H262.095V267.832H263.285V266.546H264.191V267.832Z" fill="white"/>
<path d="M137.223 204.33C137.223 204.33 161.664 225.942 162.018 229.632C162.371 233.322 153.381 237.754 135.111 226.744C116.84 215.735 111.191 212.237 111.191 212.237L137.223 204.33Z" fill="#CE635B"/>
<path d="M93.9226 345.623C93.9226 345.623 105.443 296.517 123.364 286.045C134.815 279.348 143.581 279.295 157.667 262.41C171.64 245.664 173.211 250.932 178.053 247.377C182.895 243.821 176.675 230.707 157.567 238.464C137.883 246.467 134.166 242.63 139.519 232.458C144.872 222.286 166.483 187.25 175.715 174.655C184.946 162.059 188.387 144.173 178.522 145.041C175.131 145.336 132.288 196.838 132.288 196.838C132.288 196.838 127.791 190.633 121.26 187.926C114.405 185.084 110.412 188.694 108.015 186.62C105.619 184.547 99.4061 177.677 89.8061 182.957C81.4886 187.53 81.0163 184.796 74.8301 184.942C68.6438 185.088 62.6534 190.629 56.8781 202.383C50.0621 216.257 46.9325 234.171 45.7037 259.899C44.8742 277.271 34.9517 304.992 25.7549 322.81L93.9226 345.623Z" fill="#FFA397"/>
<path d="M99.4066 327.675L102.782 317.545C102.782 317.545 81.0898 295.254 38.3506 296.317L99.4066 327.675Z" fill="#164D3D"/>
<path d="M123.434 206.746L135.676 193.06" stroke="#164D3D" stroke-width="0.768" stroke-linecap="round" stroke-linejoin="round"/>
<path d="M112.336 186.732C112.336 186.732 106.092 186.221 99.4795 197.311" stroke="#164D3D" stroke-width="0.768" stroke-linecap="round" stroke-linejoin="round"/>
<path d="M91.8304 182.016C91.8304 182.016 84.2617 182.369 79.0547 192.914" stroke="#164D3D" stroke-width="0.768" stroke-linecap="round" stroke-linejoin="round"/>
<path d="M105.392 333.061C108.276 325.629 92.2205 312.466 69.5311 303.661C46.8417 294.855 26.1103 293.742 23.2261 301.174C20.342 308.606 36.3973 321.769 59.0866 330.574C81.776 339.379 102.507 340.493 105.392 333.061Z" fill="#03736D"/>
<path d="M23.224 301.171L10.2803 334.525L92.4457 366.412L105.389 333.058L23.224 301.171Z" fill="#03736D"/>
<path d="M92.4472 366.41C95.3314 358.978 79.2761 345.815 56.5868 337.01C33.8974 328.205 13.166 327.092 10.2818 334.524C7.39765 341.956 23.4529 355.118 46.1423 363.924C68.8316 372.729 89.5631 373.842 92.4472 366.41Z" fill="#164D3D"/>
<path d="M92.4472 366.41C95.3314 358.978 79.2761 345.815 56.5868 337.01C33.8974 328.205 13.166 327.092 10.2818 334.524C7.39765 341.956 23.4529 355.118 46.1423 363.924C68.8316 372.729 89.5631 373.842 92.4472 366.41Z" stroke="white" stroke-width="0.768" stroke-linecap="round" stroke-linejoin="round"/>
<path d="M86.4082 342.132C90.4398 342.132 93.7081 338.864 93.7081 334.833C93.7081 330.801 90.4398 327.533 86.4082 327.533C82.3767 327.533 79.1084 330.801 79.1084 334.833C79.1084 338.864 82.3767 342.132 86.4082 342.132Z" stroke="white" stroke-width="0.768" stroke-linecap="round" stroke-linejoin="round"/>
</svg>
