<svg width="384" height="384" viewBox="0 0 384 384" fill="none" xmlns="http://www.w3.org/2000/svg">
<path d="M22.8052 102.09C35.3505 54.624 93.6955 46.9248 156.756 51.6096C296.421 61.9776 374.361 86.4537 374.868 145.24C375.359 200.133 367.887 300.073 341.31 315.425C314.734 330.778 88.8033 331.208 48.491 296.413C25.6929 276.722 6.14347 165.139 22.8052 102.09Z" fill="#D2FFE1"/>
<path d="M184.47 53.9366C184.47 53.9366 202.222 61.655 220.132 124.792C238.042 187.93 295.745 150.52 346.982 95.5622" stroke="white" stroke-width="0.384" stroke-miterlimit="10"/>
<path d="M45.4805 69.2774C45.4805 69.2774 131.297 48.0691 154.801 143.581C178.306 239.094 266.211 261.853 367.568 249.496" stroke="white" stroke-width="0.384" stroke-miterlimit="10"/>
<path d="M6.21289 182.016H84.7332C84.7332 182.016 85.555 172.251 75.6747 170.231C75.6747 170.231 82.7556 159.145 71.009 150.371C60.1649 142.272 45.7534 149.18 45.4807 158.285C45.4807 158.285 40.266 153.024 31.4839 155.95C25.3399 158.008 20.9623 166.038 23.7079 172.808C23.7079 172.8 10.1681 168.576 6.21289 182.016Z" fill="white"/>
<path d="M294.113 342.816H200.797V160.224L247.453 126.467L294.113 160.224V342.816Z" fill="white"/>
<path d="M226.886 185.272H213.377C211.909 185.272 210.72 186.462 210.72 187.93V201.439C210.72 202.906 211.909 204.096 213.377 204.096H226.886C228.354 204.096 229.543 202.906 229.543 201.439V187.93C229.543 186.462 228.354 185.272 226.886 185.272Z" fill="#85FFCC"/>
<path d="M254.207 185.272H240.698C239.231 185.272 238.041 186.462 238.041 187.93V201.439C238.041 202.906 239.231 204.096 240.698 204.096H254.207C255.675 204.096 256.865 202.906 256.865 201.439V187.93C256.865 186.462 255.675 185.272 254.207 185.272Z" fill="#85FFCC"/>
<path d="M281.53 185.272H268.021C266.553 185.272 265.363 186.462 265.363 187.93V201.439C265.363 202.906 266.553 204.096 268.021 204.096H281.53C282.997 204.096 284.187 202.906 284.187 201.439V187.93C284.187 186.462 282.997 185.272 281.53 185.272Z" fill="#85FFCC"/>
<path d="M226.886 212.621H213.377C211.909 212.621 210.72 213.81 210.72 215.278V228.787C210.72 230.255 211.909 231.444 213.377 231.444H226.886C228.354 231.444 229.543 230.255 229.543 228.787V215.278C229.543 213.81 228.354 212.621 226.886 212.621Z" fill="#85FFCC"/>
<path d="M254.207 212.621H240.698C239.231 212.621 238.041 213.81 238.041 215.278V228.787C238.041 230.255 239.231 231.444 240.698 231.444H254.207C255.675 231.444 256.865 230.255 256.865 228.787V215.278C256.865 213.81 255.675 212.621 254.207 212.621Z" fill="#85FFCC"/>
<path d="M281.53 212.621H268.021C266.553 212.621 265.363 213.81 265.363 215.278V228.787C265.363 230.255 266.553 231.444 268.021 231.444H281.53C282.997 231.444 284.187 230.255 284.187 228.787V215.278C284.187 213.81 282.997 212.621 281.53 212.621Z" fill="#85FFCC"/>
<path d="M226.886 239.965H213.377C211.909 239.965 210.72 241.155 210.72 242.623V256.132C210.72 257.599 211.909 258.789 213.377 258.789H226.886C228.354 258.789 229.543 257.599 229.543 256.132V242.623C229.543 241.155 228.354 239.965 226.886 239.965Z" fill="#85FFCC"/>
<path d="M254.207 239.965H240.698C239.231 239.965 238.041 241.155 238.041 242.623V256.132C238.041 257.599 239.231 258.789 240.698 258.789H254.207C255.675 258.789 256.865 257.599 256.865 256.132V242.623C256.865 241.155 255.675 239.965 254.207 239.965Z" fill="#85FFCC"/>
<path d="M281.53 239.965H268.021C266.553 239.965 265.363 241.155 265.363 242.623V256.132C265.363 257.599 266.553 258.789 268.021 258.789H281.53C282.997 258.789 284.187 257.599 284.187 256.132V242.623C284.187 241.155 282.997 239.965 281.53 239.965Z" fill="#85FFCC"/>
<path d="M226.886 267.314H213.377C211.909 267.314 210.72 268.504 210.72 269.971V283.48C210.72 284.948 211.909 286.138 213.377 286.138H226.886C228.354 286.138 229.543 284.948 229.543 283.48V269.971C229.543 268.504 228.354 267.314 226.886 267.314Z" fill="#85FFCC"/>
<path d="M254.207 267.314H240.698C239.231 267.314 238.041 268.504 238.041 269.971V283.48C238.041 284.948 239.231 286.138 240.698 286.138H254.207C255.675 286.138 256.865 284.948 256.865 283.48V269.971C256.865 268.504 255.675 267.314 254.207 267.314Z" fill="#85FFCC"/>
<path d="M281.53 267.314H268.021C266.553 267.314 265.363 268.504 265.363 269.971V283.48C265.363 284.948 266.553 286.138 268.021 286.138H281.53C282.997 286.138 284.187 284.948 284.187 283.48V269.971C284.187 268.504 282.997 267.314 281.53 267.314Z" fill="#85FFCC"/>
<path d="M226.886 294.659H213.377C211.909 294.659 210.72 295.848 210.72 297.316V310.825C210.72 312.293 211.909 313.482 213.377 313.482H226.886C228.354 313.482 229.543 312.293 229.543 310.825V297.316C229.543 295.848 228.354 294.659 226.886 294.659Z" fill="#85FFCC"/>
<path d="M254.207 294.659H240.698C239.231 294.659 238.041 295.848 238.041 297.316V310.825C238.041 312.293 239.231 313.482 240.698 313.482H254.207C255.675 313.482 256.865 312.293 256.865 310.825V297.316C256.865 295.848 255.675 294.659 254.207 294.659Z" fill="#85FFCC"/>
<path d="M281.53 294.659H268.021C266.553 294.659 265.363 295.848 265.363 297.316V310.825C265.363 312.293 266.553 313.482 268.021 313.482H281.53C282.997 313.482 284.187 312.293 284.187 310.825V297.316C284.187 295.848 282.997 294.659 281.53 294.659Z" fill="#85FFCC"/>
<path d="M247.452 170.907C253.694 170.907 258.754 165.847 258.754 159.606C258.754 153.364 253.694 148.305 247.452 148.305C241.211 148.305 236.151 153.364 236.151 159.606C236.151 165.847 241.211 170.907 247.452 170.907Z" fill="#85FFCC"/>
<path d="M120.419 103.887H66.9619V134.074H120.419V103.887Z" fill="#85FFCC"/>
<path d="M129.101 342.816H57.0391V93.4848L129.101 134.062V342.816Z" fill="white"/>
<path d="M114.554 144.906H98.9023C98.0264 144.906 97.3164 145.616 97.3164 146.492V162.144C97.3164 163.02 98.0264 163.73 98.9023 163.73H114.554C115.43 163.73 116.14 163.02 116.14 162.144V146.492C116.14 145.616 115.43 144.906 114.554 144.906Z" fill="#85FFCC"/>
<path d="M114.554 172.251H98.9023C98.0264 172.251 97.3164 172.961 97.3164 173.837V189.489C97.3164 190.365 98.0264 191.075 98.9023 191.075H114.554C115.43 191.075 116.14 190.365 116.14 189.489V173.837C116.14 172.961 115.43 172.251 114.554 172.251Z" fill="#85FFCC"/>
<path d="M114.554 199.599H98.9023C98.0264 199.599 97.3164 200.309 97.3164 201.185V216.837C97.3164 217.713 98.0264 218.423 98.9023 218.423H114.554C115.43 218.423 116.14 217.713 116.14 216.837V201.185C116.14 200.309 115.43 199.599 114.554 199.599Z" fill="#85FFCC"/>
<path d="M114.554 226.948H98.9023C98.0264 226.948 97.3164 227.658 97.3164 228.534V244.186C97.3164 245.061 98.0264 245.771 98.9023 245.771H114.554C115.43 245.771 116.14 245.061 116.14 244.186V228.534C116.14 227.658 115.43 226.948 114.554 226.948Z" fill="#85FFCC"/>
<path d="M87.2329 144.906H71.581C70.7052 144.906 69.9951 145.616 69.9951 146.492V271.534C69.9951 272.41 70.7052 273.12 71.581 273.12H87.2329C88.1088 273.12 88.8188 272.41 88.8188 271.534V146.492C88.8188 145.616 88.1088 144.906 87.2329 144.906Z" fill="#85FFCC"/>
<path d="M114.554 254.292H98.9023C98.0264 254.292 97.3164 255.002 97.3164 255.878V271.53C97.3164 272.406 98.0264 273.116 98.9023 273.116H114.554C115.43 273.116 116.14 272.406 116.14 271.53V255.878C116.14 255.002 115.43 254.292 114.554 254.292Z" fill="#85FFCC"/>
<path d="M358.598 217.386H302.526V342.82H358.598V217.386Z" fill="white"/>
<path d="M318.424 239.77H309.877C309.113 239.77 308.494 240.389 308.494 241.152V249.7C308.494 250.463 309.113 251.082 309.877 251.082H318.424C319.188 251.082 319.807 250.463 319.807 249.7V241.152C319.807 240.389 319.188 239.77 318.424 239.77Z" fill="#85FFCC"/>
<path d="M334.84 239.77H326.293C325.529 239.77 324.91 240.389 324.91 241.152V249.7C324.91 250.463 325.529 251.082 326.293 251.082H334.84C335.604 251.082 336.223 250.463 336.223 249.7V241.152C336.223 240.389 335.604 239.77 334.84 239.77Z" fill="#85FFCC"/>
<path d="M351.256 239.77H342.709C341.945 239.77 341.326 240.389 341.326 241.152V249.7C341.326 250.463 341.945 251.082 342.709 251.082H351.256C352.02 251.082 352.639 250.463 352.639 249.7V241.152C352.639 240.389 352.02 239.77 351.256 239.77Z" fill="#85FFCC"/>
<path d="M318.424 256.201H309.877C309.113 256.201 308.494 256.82 308.494 257.583V266.131C308.494 266.895 309.113 267.514 309.877 267.514H318.424C319.188 267.514 319.807 266.895 319.807 266.131V257.583C319.807 256.82 319.188 256.201 318.424 256.201Z" fill="#85FFCC"/>
<path d="M334.84 256.201H326.293C325.529 256.201 324.91 256.82 324.91 257.583V266.131C324.91 266.895 325.529 267.514 326.293 267.514H334.84C335.604 267.514 336.223 266.895 336.223 266.131V257.583C336.223 256.82 335.604 256.201 334.84 256.201Z" fill="#85FFCC"/>
<path d="M351.256 256.201H342.709C341.945 256.201 341.326 256.82 341.326 257.583V266.131C341.326 266.895 341.945 267.514 342.709 267.514H351.256C352.02 267.514 352.639 266.895 352.639 266.131V257.583C352.639 256.82 352.02 256.201 351.256 256.201Z" fill="#85FFCC"/>
<path d="M318.424 272.632H309.877C309.113 272.632 308.494 273.251 308.494 274.015V282.563C308.494 283.326 309.113 283.945 309.877 283.945H318.424C319.188 283.945 319.807 283.326 319.807 282.563V274.015C319.807 273.251 319.188 272.632 318.424 272.632Z" fill="#85FFCC"/>
<path d="M334.84 272.632H326.293C325.529 272.632 324.91 273.251 324.91 274.015V282.563C324.91 283.326 325.529 283.945 326.293 283.945H334.84C335.604 283.945 336.223 283.326 336.223 282.563V274.015C336.223 273.251 335.604 272.632 334.84 272.632Z" fill="#85FFCC"/>
<path d="M351.256 272.632H342.709C341.945 272.632 341.326 273.251 341.326 274.015V282.563C341.326 283.326 341.945 283.945 342.709 283.945H351.256C352.02 283.945 352.639 283.326 352.639 282.563V274.015C352.639 273.251 352.02 272.632 351.256 272.632Z" fill="#85FFCC"/>
<path d="M318.424 289.064H309.877C309.113 289.064 308.494 289.683 308.494 290.446V298.994C308.494 299.757 309.113 300.376 309.877 300.376H318.424C319.188 300.376 319.807 299.757 319.807 298.994V290.446C319.807 289.683 319.188 289.064 318.424 289.064Z" fill="#85FFCC"/>
<path d="M334.84 289.064H326.293C325.529 289.064 324.91 289.683 324.91 290.446V298.994C324.91 299.757 325.529 300.376 326.293 300.376H334.84C335.604 300.376 336.223 299.757 336.223 298.994V290.446C336.223 289.683 335.604 289.064 334.84 289.064Z" fill="#85FFCC"/>
<path d="M351.256 289.064H342.709C341.945 289.064 341.326 289.683 341.326 290.446V298.994C341.326 299.757 341.945 300.376 342.709 300.376H351.256C352.02 300.376 352.639 299.757 352.639 298.994V290.446C352.639 289.683 352.02 289.064 351.256 289.064Z" fill="#85FFCC"/>
<path d="M318.424 305.495H309.877C309.113 305.495 308.494 306.114 308.494 306.877V315.425C308.494 316.189 309.113 316.808 309.877 316.808H318.424C319.188 316.808 319.807 316.189 319.807 315.425V306.877C319.807 306.114 319.188 305.495 318.424 305.495Z" fill="#85FFCC"/>
<path d="M334.84 305.495H326.293C325.529 305.495 324.91 306.114 324.91 306.877V315.425C324.91 316.189 325.529 316.808 326.293 316.808H334.84C335.604 316.808 336.223 316.189 336.223 315.425V306.877C336.223 306.114 335.604 305.495 334.84 305.495Z" fill="#85FFCC"/>
<path d="M351.256 305.495H342.709C341.945 305.495 341.326 306.114 341.326 306.877V315.425C341.326 316.189 341.945 316.808 342.709 316.808H351.256C352.02 316.808 352.639 316.189 352.639 315.425V306.877C352.639 306.114 352.02 305.495 351.256 305.495Z" fill="#85FFCC"/>
<path d="M302.526 234.017H358.602" stroke="#EAE6FF" stroke-width="0.768" stroke-miterlimit="10"/>
<path d="M210.72 99.072H280.884C280.884 99.072 281.618 90.3475 272.789 88.5389C272.789 88.5389 279.118 78.6317 268.619 70.7942C258.931 63.5597 246.055 69.7306 245.81 77.8637C245.81 77.8637 241.152 73.1635 233.303 75.7786C227.796 77.6179 223.902 84.791 226.352 90.8429C226.352 90.8467 214.272 87.0643 210.72 99.072Z" fill="white"/>
<path d="M19.2343 281.472L20.4094 284.544C20.4821 284.734 20.5938 284.906 20.7374 285.049C20.8809 285.193 21.0531 285.305 21.2426 285.377L24.3146 286.552C24.5832 286.66 24.8134 286.845 24.9755 287.085C25.1377 287.324 25.2243 287.607 25.2243 287.896C25.2243 288.186 25.1377 288.468 24.9755 288.708C24.8134 288.947 24.5832 289.133 24.3146 289.24L21.2426 290.419C21.0527 290.491 20.8802 290.603 20.7366 290.746C20.5929 290.89 20.4814 291.063 20.4094 291.252L19.2343 294.324C19.1286 294.598 18.9427 294.832 18.7011 294.998C18.4596 295.163 18.1736 295.252 17.8807 295.252C17.5879 295.252 17.3019 295.163 17.0603 294.998C16.8187 294.832 16.6328 294.598 16.5271 294.324L15.3521 291.252C15.2794 291.063 15.1676 290.891 15.0241 290.747C14.8805 290.604 14.7084 290.492 14.5188 290.419L11.4468 289.24C11.1782 289.133 10.9481 288.947 10.7859 288.708C10.6238 288.468 10.5371 288.186 10.5371 287.896C10.5371 287.607 10.6238 287.324 10.7859 287.085C10.9481 286.845 11.1782 286.66 11.4468 286.552L14.5188 285.377C14.7094 285.305 14.8827 285.193 15.0276 285.05C15.1724 284.906 15.2856 284.734 15.3598 284.544L16.5118 281.472C16.6147 281.194 16.8003 280.954 17.0437 280.785C17.2871 280.615 17.5765 280.524 17.873 280.524C18.1696 280.524 18.459 280.615 18.7024 280.785C18.9457 280.954 19.1314 281.194 19.2343 281.472Z" fill="#D2FFE1"/>
<path d="M257.725 36.096L258.9 39.168C258.972 39.3579 259.084 39.5304 259.227 39.674C259.371 39.8177 259.543 39.9292 259.733 40.0013L262.805 41.1802C263.074 41.2877 263.304 41.4731 263.466 41.7127C263.628 41.9522 263.715 42.2349 263.715 42.5242C263.715 42.8134 263.628 43.0961 263.466 43.3356C263.304 43.5752 263.074 43.7606 262.805 43.8681L259.733 45.047C259.543 45.1191 259.371 45.2306 259.227 45.3743C259.084 45.5179 258.972 45.6904 258.9 45.8803L257.725 48.9523C257.616 49.2194 257.43 49.4479 257.191 49.6088C256.951 49.7697 256.669 49.8556 256.381 49.8556C256.092 49.8556 255.811 49.7697 255.571 49.6088C255.332 49.4479 255.146 49.2194 255.037 48.9523L253.862 45.8803C253.79 45.6904 253.678 45.5179 253.535 45.3743C253.391 45.2306 253.218 45.1191 253.029 45.047L249.957 43.8681C249.688 43.7606 249.458 43.5752 249.296 43.3356C249.134 43.0961 249.047 42.8134 249.047 42.5242C249.047 42.2349 249.134 41.9522 249.296 41.7127C249.458 41.4731 249.688 41.2877 249.957 41.1802L253.029 40.0013C253.218 39.9292 253.391 39.8177 253.535 39.674C253.678 39.5304 253.79 39.3579 253.862 39.168L255.037 36.096C255.146 35.8289 255.332 35.6004 255.571 35.4395C255.811 35.2786 256.092 35.1927 256.381 35.1927C256.669 35.1927 256.951 35.2786 257.191 35.4395C257.43 35.6004 257.616 35.8289 257.725 36.096Z" fill="#D2FFE1"/>
<path d="M348.334 164.479L349.509 167.551C349.581 167.74 349.693 167.912 349.837 168.056C349.98 168.2 350.152 168.311 350.342 168.384L353.414 169.559C353.681 169.668 353.91 169.854 354.07 170.093C354.231 170.333 354.317 170.615 354.317 170.903C354.317 171.191 354.231 171.473 354.07 171.713C353.91 171.952 353.681 172.138 353.414 172.247L350.342 173.422C350.152 173.495 349.98 173.607 349.837 173.75C349.693 173.894 349.581 174.066 349.509 174.255L348.334 177.327C348.226 177.596 348.041 177.826 347.801 177.988C347.562 178.15 347.279 178.237 346.99 178.237C346.7 178.237 346.418 178.15 346.178 177.988C345.939 177.826 345.753 177.596 345.646 177.327L344.467 174.255C344.395 174.065 344.283 173.893 344.14 173.749C343.996 173.606 343.823 173.494 343.633 173.422L340.561 172.247C340.294 172.138 340.066 171.952 339.905 171.713C339.744 171.473 339.658 171.191 339.658 170.903C339.658 170.615 339.744 170.333 339.905 170.093C340.066 169.854 340.294 169.668 340.561 169.559L343.633 168.384C343.823 168.312 343.996 168.2 344.14 168.057C344.283 167.913 344.395 167.741 344.467 167.551L345.646 164.479C345.753 164.21 345.939 163.98 346.178 163.818C346.418 163.656 346.7 163.569 346.99 163.569C347.279 163.569 347.562 163.656 347.801 163.818C348.041 163.98 348.226 164.21 348.334 164.479Z" fill="white"/>
<path d="M176.083 299.255C176.083 299.255 82.3869 281.315 75.567 287.063C68.7472 292.812 66.0477 305.43 79.1229 309.542C92.3095 313.69 106.491 315.978 117.258 317.756C128.025 319.534 173.752 320.947 173.752 320.947L176.083 299.255Z" fill="#03736D"/>
<path d="M307.414 234.282C310.142 232.707 311.076 229.219 309.502 226.492C307.927 223.765 304.439 222.83 301.712 224.405L280.232 236.806C277.505 238.381 276.57 241.868 278.145 244.596C279.72 247.323 283.207 248.258 285.935 246.683L307.414 234.282Z" fill="#162A4D"/>
<path d="M278.68 219.302C278.68 219.302 285.454 220.5 290.2 218.999C294.947 217.498 298.894 217.908 301.755 221.303C304.616 224.698 308.64 228.914 308.029 231.59C307.419 234.267 304.189 233.065 304.189 233.065C304.189 233.065 305.875 235.626 303.268 237.101C301.179 238.276 299.689 236.402 299.689 236.402C299.689 236.402 300.591 238.932 297.811 240.28C296.275 241.021 294.167 239.512 294.167 239.512C294.167 239.512 292.289 242.853 290.208 242.17C288.127 241.486 287.8 237.208 285.197 235.53C281.998 233.476 276.399 232.147 276.399 232.147C276.399 232.147 276.783 227.075 277.06 225.619C277.851 221.249 278.68 219.302 278.68 219.302Z" fill="#FFA397"/>
<path d="M299.163 226.088L304.174 233.08" stroke="#162A4D" stroke-width="0.768" stroke-linecap="round" stroke-linejoin="round"/>
<path d="M299.674 236.417L295.83 230.561" stroke="white" stroke-width="0.768" stroke-linecap="round" stroke-linejoin="round"/>
<path d="M213.397 207.398C213.397 207.398 205.886 196.846 198.206 185.533C190.526 174.221 182.673 162.144 173.649 159.245C155.601 153.443 144.872 178.606 164.229 198.102C183.587 217.597 196.274 231.325 204.069 233.725C211.865 236.125 278.439 240.668 278.439 240.668C278.439 240.668 277.087 225.788 281.361 216.53L213.397 207.398Z" fill="#03736D"/>
<path d="M70.0107 165.005L105.684 152.095C111.94 150.317 117.277 150.881 122.653 151.196C131.101 151.688 154.713 154.268 154.713 154.268L109.194 169.033L70.0107 165.005Z" fill="#162A4D"/>
<path d="M109.194 169.033L75.7862 164.39C74.0834 164.153 72.3496 164.284 70.7015 164.773C69.0534 165.263 67.5293 166.1 66.2318 167.228C64.9343 168.356 63.8935 169.748 63.1795 171.312C62.4656 172.876 62.095 174.575 62.0928 176.294V277.67C62.092 280.372 63.0006 282.996 64.6725 285.118C66.3443 287.241 68.6819 288.739 71.3088 289.371L112.343 299.24L109.194 169.033Z" fill="#36C196"/>
<path d="M70.0107 288.987C70.4433 289.14 70.8843 289.268 71.3317 289.371L100.312 296.34V247.615C100.312 246.122 99.804 244.674 98.8716 243.509C97.9392 242.343 96.638 241.53 95.1819 241.202L75.5787 236.794C74.9107 236.643 74.2174 236.645 73.5502 236.799C72.883 236.953 72.259 237.255 71.7243 237.683C71.1896 238.11 70.758 238.653 70.4614 239.27C70.1647 239.887 70.0107 240.563 70.0107 241.248V288.987Z" fill="#FFBA40"/>
<path d="M154.71 154.276L157.425 279.694L112.366 299.255L109.194 169.033L154.71 154.276Z" fill="#FFC550"/>
<path d="M260.256 325.11C238.418 325.878 206.174 324.783 206.112 324.922C180 297.527 163.316 292.193 183.81 324.012C169.099 323.389 138.037 320.398 117.243 317.756C113.469 310.019 111.364 295.638 111.364 295.638L189.831 262.737C189.923 262.702 250.042 306.996 260.256 325.11Z" fill="#162A4D"/>
<path d="M119.808 148.608C119.808 148.608 106.959 155.904 94.6865 164.517C82.4139 173.13 85.0865 195.621 88.3467 209.929C91.6069 224.237 111.064 299.136 111.064 299.136C111.064 299.136 170.384 302.819 198.205 270.09C198.205 270.09 186.52 240.634 186.635 209.134C186.697 192.323 185.948 179.839 181.025 166.268C177.719 157.16 166.855 154.748 166.855 154.748L119.808 148.608Z" fill="#03736D"/>
<path d="M119.809 148.608C119.809 148.608 130.895 143.754 132.189 130.79L160.463 143.378C160.463 143.378 159.192 152.79 170.447 155.908C170.447 155.923 139.116 168.088 119.809 148.608Z" fill="#FFA397"/>
<path d="M136.704 138.075C136.704 138.075 145.106 155.174 163.135 151.603C163.135 151.603 160.447 148.343 159.752 145.075L136.704 138.075Z" fill="#162A4D"/>
<path d="M175.842 102.348C175.842 102.348 181.398 125.599 170.627 141.554C159.856 157.509 138.613 146.761 132.2 130.802C125.787 114.843 130.43 104.34 130.43 104.34C130.43 104.34 162.571 96.4723 175.842 102.348Z" fill="#FFA397"/>
<path d="M180.196 112.639C182.404 112.232 184.036 111.79 184.42 107.923C184.957 102.804 180.303 102.597 180.303 102.597C180.303 102.597 180.142 106.406 180.13 107.816C180.123 109.709 180.196 112.639 180.196 112.639Z" fill="#03736D"/>
<path d="M143.52 106.71C143.52 106.71 140.567 111.072 145.156 121.686C148.551 129.523 150.275 137.184 141.953 142.675C135.064 147.222 108.05 134.941 114.72 102.098C119.82 76.9882 149.111 69.0125 167.608 79.415C187.803 90.7738 177.274 105.627 181.632 118.322C184.858 127.711 181.947 135.122 172.635 137.948C172.635 137.948 178.733 122.884 175.995 106.042C175.995 106.034 163.841 98.7264 143.52 106.71Z" fill="#162A4D"/>
<path d="M156.016 120.269C156.949 120.269 157.705 119.512 157.705 118.579C157.705 117.646 156.949 116.89 156.016 116.89C155.083 116.89 154.326 117.646 154.326 118.579C154.326 119.512 155.083 120.269 156.016 120.269Z" fill="#162A4D"/>
<path d="M173.134 120.269C174.067 120.269 174.824 119.512 174.824 118.579C174.824 117.646 174.067 116.89 173.134 116.89C172.201 116.89 171.444 117.646 171.444 118.579C171.444 119.512 172.201 120.269 173.134 120.269Z" fill="#162A4D"/>
<path d="M168.668 109.755C168.668 109.755 173.848 105.358 178.176 110.976C178.176 110.976 173.422 109.586 168.668 109.755Z" fill="#162A4D"/>
<path d="M160.474 109.755C160.474 109.755 155.293 105.358 150.962 110.984C150.962 110.976 155.72 109.586 160.474 109.755Z" fill="#162A4D"/>
<path d="M165.988 120.269C165.988 120.269 167.317 123.809 168.853 127.085C170.389 130.36 168.546 131.482 165.988 131.992" stroke="#162A4D" stroke-width="0.768" stroke-linecap="round" stroke-linejoin="round"/>
<path d="M160.473 138.847C160.473 138.847 155.232 137.518 153.039 133.325" stroke="#162A4D" stroke-width="0.768" stroke-linecap="round" stroke-linejoin="round"/>
<path d="M129.473 91.5725C127.825 93.132 126.265 94.7819 124.8 96.5146C123.94 97.5077 123.473 98.7815 123.488 100.095C123.503 101.409 123.998 102.672 124.881 103.645C125.667 104.519 126.718 105.11 127.873 105.329C129.028 105.549 130.222 105.383 131.274 104.859L132.891 104.056C133.546 103.731 134.3 103.661 135.004 103.86C135.708 104.06 136.313 104.514 136.7 105.135L137.691 106.729C137.925 107.16 138.243 107.54 138.626 107.846C139.009 108.152 139.45 108.378 139.922 108.511C140.394 108.644 140.888 108.681 141.375 108.621C141.861 108.56 142.331 108.402 142.756 108.157C149.003 104.559 163.807 97.9277 181.298 103.165C187.138 104.913 183.11 111.483 183.11 111.483C183.11 111.483 187.845 109.179 186.344 104.118C184.842 99.0567 179.75 83.9155 175.707 81.0778C167.424 75.241 146.78 76.0704 129.473 91.5725Z" fill="#03736D"/>
<path d="M167.916 78.1747C167.038 78.0288 166.121 77.9213 165.166 77.8521L159.072 102.09C160.028 101.906 161.015 101.752 162.021 101.622L167.916 78.1747Z" fill="white"/>
<path d="M149.845 104.763C151.851 103.979 153.903 103.316 155.989 102.778L162.279 77.7677C160.341 77.7924 158.407 77.954 156.492 78.2515L149.845 104.763Z" fill="white"/>
<path d="M176.64 112.024C176.64 112.024 177.289 127.849 171.46 140.275" stroke="white" stroke-width="0.768" stroke-linecap="round" stroke-linejoin="round"/>
<path d="M128.587 102.42C129.84 102.42 130.856 101.404 130.856 100.151C130.856 98.8977 129.84 97.8816 128.587 97.8816C127.333 97.8816 126.317 98.8977 126.317 100.151C126.317 101.404 127.333 102.42 128.587 102.42Z" fill="white"/>
<path d="M152.563 162.57C152.563 162.57 163.496 244.785 171.445 289.048" stroke="white" stroke-width="0.768" stroke-linecap="round" stroke-linejoin="round"/>
<path d="M98.2314 162.109C98.2314 162.109 120.346 168.146 129.612 201.896C138.878 235.645 102.033 264.161 102.033 264.161L105.742 278.569C105.742 278.569 144.119 253.574 145.152 213.247C146.185 172.919 115.504 151.196 115.504 151.196C109.021 152.911 103.192 156.51 98.7537 161.537L98.2314 162.109Z" fill="#162A4D"/>
<path d="M170.446 155.923C170.446 155.923 184.505 159.11 186.067 185.192C187.749 213.247 186.636 228.764 189.846 240.28C189.846 240.28 178.18 236.006 178.18 201.078C178.176 161.28 170.446 155.923 170.446 155.923Z" fill="#162A4D"/>
<path d="M319.445 320.947C309.503 323.209 268.016 326.02 239.957 325.171C242.983 285.926 255.478 276.403 269.172 269.987C302.937 254.127 308.493 282.563 319.445 320.947Z" fill="#36C196"/>
<path d="M312.415 322.061C312.415 322.061 305.272 322.883 301.77 323.14L289.812 324.023C289.812 324.023 279.686 287.313 275.631 280.412C273.973 277.72 272.052 275.197 269.898 272.882C269.174 272.097 268.394 271.365 267.563 270.693L286.268 262.272C287.563 263.374 288.743 264.604 289.789 265.943C291.986 268.673 293.937 272.41 295.83 276.211C299.674 283.941 312.415 322.061 312.415 322.061Z" fill="white"/>
<path d="M228.479 264.687C227.049 262.125 226.642 259.116 227.341 256.266C228.04 253.416 229.793 250.937 232.246 249.327C235.86 246.927 244.123 244.09 246.07 239.601C250.094 230.346 273.073 223.231 279.305 227.213C283.46 229.866 288.798 227.635 291.685 227.393C297.361 226.925 300.552 232.385 299.461 236.94C297.63 244.62 294.47 241.613 293.625 253.359C293.371 256.984 295.23 261.976 291.075 265.037C282.754 271.181 271.257 275.194 264.679 271.473C263.054 270.555 260.585 267.203 259.303 266.316C256.185 264.165 248.551 268.212 241.957 270.182C239.436 270.942 236.731 270.821 234.287 269.837C231.844 268.854 229.809 267.067 228.517 264.772L228.479 264.687Z" fill="#36C196"/>
<path d="M259.88 261.185C257.399 260.333 249.754 263.808 241.832 266.615C236.751 268.42 231.003 267.832 228.392 264.561L228.457 264.687L228.507 264.776C229.798 267.071 231.834 268.858 234.277 269.841C236.72 270.825 239.425 270.946 241.947 270.186C248.552 268.216 256.155 264.169 259.292 266.319C260.578 267.206 263.048 270.543 264.668 271.476C266.826 272.698 269.514 273.082 272.448 272.832C265.279 271.872 265.505 263.113 259.88 261.185Z" fill="#1D7C89"/>
<path d="M235.934 265.82C238.865 264.668 240.307 261.358 239.155 258.427C238.002 255.496 234.692 254.054 231.761 255.206L208.678 264.28C205.747 265.432 204.305 268.742 205.457 271.673C206.61 274.604 209.92 276.046 212.851 274.894L235.934 265.82Z" fill="#162A4D"/>
<path d="M299.804 239.151C303.145 236.694 309.289 232.408 311.551 232.309C311.551 232.309 311.021 234.006 313.14 234.613C315.26 235.219 316.431 232.693 314.945 231.333C313.459 229.974 310.936 230.431 307.952 231.375C305.986 231.997 300.829 233.679 297.542 234.774C297.191 234.89 296.87 235.084 296.602 235.339C296.335 235.595 296.127 235.907 295.995 236.253C295.863 236.599 295.809 236.97 295.837 237.339C295.866 237.708 295.976 238.066 296.16 238.387C296.336 238.691 296.574 238.955 296.858 239.161C297.143 239.367 297.467 239.511 297.811 239.583C298.155 239.655 298.51 239.654 298.854 239.58C299.197 239.505 299.521 239.359 299.804 239.151Z" fill="#03736D"/>
<path d="M291.89 242.945L292.35 248.924C292.688 253.352 290.949 257.468 288.019 259.016L278.726 263.927C275.938 265.402 272.69 263.516 271.549 259.645L269.491 252.645C268.443 249.085 269.806 245.288 272.471 244.255L287.447 238.452C289.493 237.661 291.655 239.889 291.89 242.945Z" fill="#FFBA40"/>
<path d="M293.322 241.651C293.126 236.909 289.482 235.369 287.209 236.275L270.885 242.845C267.905 244.047 266.377 248.463 267.548 252.603L269.852 260.748C271.127 265.248 274.775 267.752 278.465 266.085" stroke="white" stroke-width="0.768" stroke-linecap="round" stroke-linejoin="round"/>
<path d="M285.585 239.178L283.976 239.801L280.98 262.737L282.62 261.869L285.585 239.178Z" fill="white"/>
<path d="M277.881 242.162L275.024 264.05C275.608 264.319 276.247 264.449 276.89 264.427C277.533 264.406 278.161 264.235 278.726 263.927L278.876 263.851L281.913 240.599L277.881 242.162Z" fill="white"/>
<path d="M310.498 275.922L266.869 293.073C265.789 293.497 265.258 294.716 265.683 295.796L271.312 310.116C271.736 311.196 272.956 311.727 274.035 311.302L317.664 294.152C318.744 293.727 319.275 292.508 318.85 291.428L313.221 277.108C312.797 276.029 311.577 275.497 310.498 275.922Z" fill="#162A4D"/>
<path d="M288.241 230.561L294.493 214.456C294.973 213.216 295.749 212.111 296.753 211.237C297.756 210.363 298.958 209.747 300.253 209.441L308.513 207.521" stroke="#162A4D" stroke-width="2.304" stroke-linecap="round" stroke-linejoin="round"/>
<path d="M321.503 212.776C324.716 207.211 323.238 200.342 318.202 197.435C313.166 194.527 306.479 196.681 303.266 202.246C300.053 207.811 301.531 214.68 306.567 217.587C311.603 220.495 318.29 218.341 321.503 212.776Z" fill="#162A4D"/>
<path d="M214.979 234.397L228.906 233.833C230.127 233.784 231.341 234.033 232.444 234.559C233.547 235.085 234.504 235.872 235.235 236.851L244.639 249.496" stroke="#162A4D" stroke-width="2.304" stroke-linecap="round" stroke-linejoin="round"/>
<path d="M223.139 239.66C226.352 234.095 224.874 227.227 219.838 224.319C214.802 221.412 208.115 223.566 204.902 229.131C201.689 234.696 203.167 241.565 208.203 244.472C213.239 247.38 219.926 245.225 223.139 239.66Z" fill="#162A4D"/>
<path d="M264.38 275.658C264.38 275.658 245.76 287.881 244.639 320.947" stroke="white" stroke-width="0.768" stroke-linecap="round" stroke-linejoin="round"/>
<path d="M197.318 244.785C197.318 244.785 206.796 248.947 214.022 249.627C221.249 250.307 227.117 248.398 229.298 254.127C231.479 259.857 235.1 265.382 233.66 268.032C232.22 270.682 228.614 268.988 228.614 268.988C228.614 268.988 228.906 271.077 227.274 271.972C225.354 273.02 223.261 271.446 223.261 271.446C223.261 271.446 223.407 273.462 221.772 274.211C220.136 274.959 218.442 273.788 218.442 273.788C218.442 273.788 218.058 275.293 216.684 275.601C216.029 275.778 215.338 275.77 214.687 275.578C214.036 275.386 213.451 275.018 212.997 274.514C212.997 274.514 216.142 272.897 215.601 268.581C214.979 263.624 208.666 264.265 208.666 264.265C208.666 264.265 205.636 269.476 200.602 268.454C195.567 267.433 192.154 263.931 186.624 262.852L197.318 244.785Z" fill="#FFA397"/>
<path d="M226.998 263.628L228.615 268.992" stroke="#162A4D" stroke-width="0.768" stroke-linecap="round" stroke-linejoin="round"/>
<path d="M223.261 271.45L221.887 266.308" stroke="#162A4D" stroke-width="0.768" stroke-linecap="round" stroke-linejoin="round"/>
<path d="M206.615 248.106C206.615 248.106 201.565 259.415 202.084 268.585C202.084 268.585 199.33 268.585 197.541 267.372C197.541 267.372 201.727 253.336 206.615 248.106Z" fill="#162A4D"/>
<path d="M223.872 275.712C223.872 275.712 225.304 276.941 224.794 278.676C224.283 280.412 219.886 280.723 219.475 277.194C219.13 274.218 235.519 263.205 240.66 259.826C241.129 259.515 241.664 259.319 242.222 259.252C242.78 259.185 243.346 259.25 243.874 259.442C244.461 259.657 244.982 260.02 245.385 260.497C245.789 260.973 246.063 261.546 246.179 262.16C246.295 262.774 246.25 263.407 246.048 263.998C245.846 264.589 245.494 265.118 245.026 265.532C243.712 266.662 242.18 267.511 240.526 268.028C233.798 270.286 227.969 271.311 223.872 275.712Z" fill="#03736D"/>
<path d="M141.439 222.524C141.439 222.524 134.166 208.128 125.422 190.08C120.353 179.639 113.234 169.885 106.257 167.996C86.6495 162.693 78.2246 185.007 95.1206 209.115C112.017 233.222 119.24 245.533 127.031 249.485C134.822 253.436 198.217 270.071 198.217 270.071C198.217 270.071 200.728 254.934 207.817 246.547L141.439 222.524Z" fill="#03736D"/>
<path d="M206.128 324.922C206.086 325.056 191.536 324.507 183.825 324.012C176.118 312.357 164.103 294.578 187.25 303.199C199.135 307.016 209.63 312.507 206.128 324.922Z" fill="#03736D"/>
<path d="M100.021 216.192L118.218 241.667C118.218 241.667 122.005 247.987 129.101 250.383C136.197 252.78 176.083 264.165 176.083 264.165" stroke="white" stroke-width="0.768" stroke-linecap="round" stroke-linejoin="round"/>
<path d="M117.888 149.76C117.888 149.76 131.931 164.287 152.129 162.616L151.054 159.744C150.641 158.639 149.953 157.659 149.054 156.895C148.156 156.131 147.077 155.611 145.92 155.382C140.789 154.376 131.435 151.599 124.8 144.142L117.888 149.76Z" fill="#03736D"/>
<path d="M152.125 162.601L152.728 159.276C152.905 158.3 153.347 157.393 154.007 156.654C154.667 155.914 155.519 155.372 156.468 155.086C159.588 154.158 162.619 152.956 165.527 151.492L171.444 156.261C171.444 156.261 165.438 161.695 152.125 162.601Z" fill="#03736D"/>
<path d="M127.872 156.956C127.872 156.956 143.942 168.426 165.999 159.199" stroke="white" stroke-width="0.768" stroke-linecap="round" stroke-linejoin="round"/>
<path d="M312.776 148.024L287.9 109.079H352.739L327.863 148.024C327.054 149.291 325.939 150.334 324.62 151.056C323.302 151.779 321.823 152.157 320.32 152.157C318.816 152.157 317.337 151.779 316.019 151.056C314.7 150.334 313.585 149.291 312.776 148.024Z" fill="#03736D"/>
<path d="M320.321 127.357C341.238 127.357 358.195 110.401 358.195 89.4835C358.195 68.5663 341.238 51.6096 320.321 51.6096C299.404 51.6096 282.447 68.5663 282.447 89.4835C282.447 110.401 299.404 127.357 320.321 127.357Z" fill="#03736D"/>
<path d="M320.321 103.738C328.194 103.738 334.576 97.3558 334.576 89.4835C334.576 81.6112 328.194 75.2294 320.321 75.2294C312.449 75.2294 306.067 81.6112 306.067 89.4835C306.067 97.3558 312.449 103.738 320.321 103.738Z" fill="white"/>
</svg>
