<svg width="20" height="20" viewBox="0 0 20 20" fill="none" xmlns="http://www.w3.org/2000/svg">
<g clip-path="url(#clip0_548_38161)">
<path d="M0 9.99998C0 4.49999 4.49997 0 9.99994 0C15.4999 0 19.9999 4.49999 19.9999 9.99998C19.9999 15.5 15.4999 20 9.99994 20C4.49997 20 0 15.5 0 9.99998ZM7.06246 8.37498H4.74997V15.4375H7.06246V8.37498ZM7.24996 6.18749C7.24996 5.49999 6.74996 4.99999 5.93746 4.99999C5.12497 4.99999 4.56247 5.49999 4.56247 6.18749C4.56247 6.87499 5.06247 7.43748 5.87496 7.43748C6.68746 7.43748 7.24996 6.87499 7.24996 6.18749ZM15.4999 11.375C15.4999 9.18748 14.3124 8.18748 12.8124 8.18748C11.5624 8.18748 10.9999 8.87498 10.6874 9.37498V8.37498H8.37495C8.37495 9.06248 8.37495 15.4375 8.37495 15.4375H10.6874V11.5C10.6874 11.3125 10.6874 11.0625 10.7499 10.9375C10.9374 10.5 11.3124 10.0625 11.9374 10.0625C12.7499 10.0625 13.1249 10.6875 13.1249 11.6875V15.4375H15.4374C15.4999 15.4375 15.4999 11.375 15.4999 11.375Z" fill="white"/>
</g>
<defs>
<clipPath id="clip0_548_38161">
<rect width="19.9999" height="20" fill="white"/>
</clipPath>
</defs>
</svg>
