<svg width="40" height="56" viewBox="0 0 40 56" fill="none" xmlns="http://www.w3.org/2000/svg">
<g clip-path="url(#clip0_548_37696)">
<path fill-rule="evenodd" clip-rule="evenodd" d="M24.7752 30.3383C24.0182 30.6477 23.5346 31.8328 23.044 32.4383C22.7924 32.7484 22.4924 32.7969 22.1057 32.6414C19.2643 31.5094 17.0861 29.6133 15.5182 26.9984C15.2526 26.593 15.3002 26.2727 15.6205 25.8961C16.094 25.3383 16.6893 24.7047 16.8174 23.9531C17.1018 22.2906 14.9283 17.1336 12.058 19.4703C3.79865 26.2008 25.8361 44.0516 29.8135 34.3969C30.9385 31.6602 26.0299 29.8242 24.7752 30.3383ZM20.0002 44.5062C17.0791 44.5062 14.2049 43.7297 11.6885 42.2594C11.2846 42.0227 10.7963 41.9602 10.3447 42.0828L4.87677 43.5836L6.78146 39.3875C7.04083 38.8164 6.97443 38.1516 6.60802 37.6437C4.57052 34.8195 3.49318 31.4852 3.49318 28C3.49318 18.8977 10.8979 11.493 20.0002 11.493C29.1026 11.493 36.5065 18.8977 36.5065 28C36.5065 37.1016 29.1018 44.5062 20.0002 44.5062ZM20.0002 8C8.97208 8 0.000209088 16.9719 0.000209088 28C0.000209088 31.8797 1.10177 35.6055 3.19474 38.8391L0.156459 45.5305C-0.12401 46.1484 -0.0216659 46.8719 0.417397 47.3867C0.754897 47.7812 1.24318 48 1.74708 48C2.87365 48 9.01661 46.0695 10.5799 45.6406C13.4697 47.1867 16.7111 48 20.0002 48C31.0276 48 40.0002 39.0273 40.0002 28C40.0002 16.9719 31.0276 8 20.0002 8Z" fill="#39AE41"/>
</g>
<defs>
<clipPath id="clip0_548_37696">
<rect width="40" height="40" fill="white" transform="translate(0 8)"/>
</clipPath>
</defs>
</svg>
