<svg width="20" height="20" viewBox="0 0 20 20" fill="none" xmlns="http://www.w3.org/2000/svg">
<g clip-path="url(#clip0_548_38170)">
<path d="M0 9.99998C0 4.49999 4.49997 0 9.99994 0C15.4999 0 19.9999 4.49999 19.9999 9.99998C19.9999 15.5 15.4999 20 9.99994 20C4.49997 20 0 15.5 0 9.99998ZM15.1874 7.43748C15.0624 6.99999 14.6874 6.62499 14.2499 6.49999C13.4374 6.24999 10.1874 6.24999 10.1874 6.24999C10.1874 6.24999 6.93746 6.24999 6.12496 6.49999C5.68747 6.62499 5.31247 6.99999 5.18747 7.43748C4.99997 8.24998 4.99997 9.99998 4.99997 9.99998C4.99997 9.99998 4.99997 11.75 5.24997 12.5625C5.37497 13 5.74997 13.375 6.18746 13.5C6.99996 13.75 10.2499 13.75 10.2499 13.75C10.2499 13.75 13.4999 13.75 14.3124 13.5C14.7499 13.375 15.1249 13 15.2499 12.5625C15.4999 11.75 15.4999 9.99998 15.4999 9.99998C15.4999 9.99998 15.4374 8.24998 15.1874 7.43748ZM9.24994 11.75V8.49998L11.8749 10.125L9.24994 11.75Z" fill="white"/>
</g>
<defs>
<clipPath id="clip0_548_38170">
<rect width="19.9999" height="20" fill="white"/>
</clipPath>
</defs>
</svg>
